<svg id="Layer_3" height="512" viewBox="0 0 64 64" width="512" xmlns="http://www.w3.org/2000/svg" data-name="Layer 3"><path d="m32 2a30 30 0 0 0 -24.863 46.792l-5.137 13.208 13.208-5.137a30 30 0 1 0 16.792-54.863z" fill="#a72b25"/><circle cx="32" cy="32" fill="#d23f34" r="22"/><g fill="#a72b25"><path d="m26.5 26.5a1 1 0 0 1 -.468-.116l-8.5-4.5.936-1.768 7.847 4.155 2.978-2.978 1.414 1.414-3.5 3.5a1 1 0 0 1 -.707.293z"/><path d="m38.5 26.5a1 1 0 0 1 -.707-.293l-3.5-3.5 1.414-1.414 2.978 2.978 7.847-4.155.936 1.768-8.5 4.5a1 1 0 0 1 -.468.116z"/><path d="m43 45h-2v-1a9 9 0 0 0 -18 0v1h-2v-1a11 11 0 0 1 22 0z"/></g></svg>