<svg height="512pt" viewBox="-3 0 512 512.00035" width="512pt" xmlns="http://www.w3.org/2000/svg"><path d="m358.214844 110.605469c-6.609375 0-13.019532-1.941407-18.050782-5.464844-13.46875-9.433594-14.722656-24.683594-11.703124-34.875 3.054687-10.351563 12.023437-21.597656 28.035156-22.109375.277344-.011719.554687-.015625.828125-.015625 14.335937 0 28.761719 11.359375 31.496093 24.804687 2.398438 11.816407-2.277343 24.5-11.636718 31.5625-5.195313 3.933594-11.933594 6.097657-18.96875 6.097657zm0 0" fill="#fff"/><path d="m258.492188 504c-10.242188 0-20.597657-.65625-30.785157-1.953125-1.910156-.234375-4.046875-.4375-6.066406-.621094-7.882813-.730469-17.6875-1.640625-22.984375-5.25-3.542969-2.417969-3.699219-9.539062-3.546875-17.25.042969-2.113281.078125-4.019531-.015625-5.644531l-2.390625-40.820312c-.09375-1.703126-.171875-3.230469-.171875-4.738282 0-3.105468.273438-7.058594 2.421875-10.109375 3.003906-4.21875 8.671875-5.746093 16.257813-6.742187 23.101562-3.070313 47.675781-4.6875 75.121093-4.9375.433594-.003906.859375-.007813 1.285157-.007813 3.816406 0 8.167968.164063 11.484374 2.085938 3.976563 2.316406 6.660157 7.078125 8.449219 14.980469 4.753907 20.914062 2.746094 42.769531.804688 63.90625-.398438 4.324218-.949219 8.359374-3.300781 10.746093-2.171876 2.210938-5.824219 2.933594-9.378907 3.484375-12.25 1.90625-24.761719 2.871094-37.183593 2.871094zm0 0" fill="#288fc9"/><path d="m209.855469 402.988281c-2.917969-21.992187-10.769531-43.46875-22.699219-62.105469 0 0-1.429688-2.210937-1.742188-2.703124-6.234374-9.605469-12.691406-19.550782-10.246093-29.519532 1.296875-5.296875 4.949219-9.664062 8.8125-14.289062l1.621093 1.179687-1.535156-1.28125c3.183594-3.8125 6.476563-7.753906 8.613282-12.460937 3.417968-7.511719 3.402343-16.019532 3.121093-23.410156-.199219-5.210938-.53125-10.546876-.855469-15.707032l-.050781-.832031c-1.375-21.753906-2.792969-44.25 4.753907-64.425781 2.164062-5.816406 4.613281-9.699219 7.699218-12.210938 2.246094-1.820312 5.175782-2.90625 7.835938-2.90625 1.460937 0 2.792968.316406 3.960937.945313 3.613281 1.953125 5.488281 6.585937 6.960938 10.777343 9.199219 26.1875 14.226562 53.535157 14.941406 81.285157.03125 1.273437.863281 2.386719 2.074219 2.777343.300781.097657.609375.144532.925781.144532.933594 0 1.820313-.441406 2.382813-1.175782 2.058593-2.707031 5.257812-3.300781 6.980468-3.410156.273438-.019531.546875-.027344.824219-.027344 3.570313 0 7.257813 1.492188 9.621094 3.898438 6.335937 6.445312 5.742187 16.671875 5.195312 20.769531-.183593 1.398438.652344 2.757813 1.996094 3.222657.320313.113281.648437.167968.984375.167968 1.050781 0 2.039062-.558594 2.578125-1.464844 2.277344-3.816406 6.875-6.289062 11.710937-6.289062 2.042969 0 4.015626.464844 5.699219 1.34375 5.886719 3.054688 8.660157 11.050781 5.929688 17.105469-.496094 1.109375-.261719 2.445312.59375 3.324219.558593.578124 1.339843.910156 2.144531.910156.398438 0 .785156-.078125 1.148438-.230469 1.265624-.523437 2.609374-.789063 4-.789063 1.714843 0 3.472656.390626 5.226562 1.160157 4.070312 1.777343 7.535156 5.410156 9.042969 9.480469 3.390625 9.210937-.59375 19.367187-3.265625 24.601562-2.203125 4.339844-4.875 8.34375-7.707032 12.582031l-.277343.410157c-2.289063 3.433593-4.65625 6.988281-6.71875 10.691406-7.238281 12.976562-10.886719 28.363281-10.273438 43.335937l.089844 2.132813-2.132813-.050782c-.625-.015624-1.230468-.019531-1.820312-.019531-.59375 0-1.171875.003907-1.726562.007813-27.027344.25-51.292969 1.8125-74.179688 4.773437l-1.976562.257813zm0 0" fill="#ffdac4"/><path d="m425.035156 357.476562c-1.378906 0-2.746094-.007812-4.09375-.011718l-113.328125-.527344 1.863281-3.03125c1.410157-2.289062 2.894532-4.515625 4.464844-6.867188l.066406-.097656c1.003907-1.503906 2.007813-3.042968 3.011719-4.59375l.648438-1 1.183593.089844c19.832032 1.53125 39.914063 2.304688 59.6875 2.304688 14.894532 0 29.941407-.433594 44.726563-1.285157 10.898437-.632812 22.269531-1.816406 30.976563-8.59375 12.132812-9.445312 14.632812-26.253906 16.027343-41.265625l8.46875-91.261718c1.671875-18.03125 1.546875-37.960938-12.042969-49.023438-8.628906-7.023438-19.972656-8.183594-31.8125-8.824219-5.03125-.28125-10.066406-.527343-15.101562-.777343l-2.75-.136719 1.226562-3.226563c.515626-1.355468 1.03125-2.707031 1.535157-4.074218 1.066406-2.910157 1.871093-5.183594 2.613281-7.363282l.472656-1.390625 18.15625.410157c1.609375.042968 3.234375.054687 4.867188.070312l1.238281.011719c12.054687.082031 24.511719.164062 34.195313 6.851562 21.011718 14.503907 17.300781 46.863281 14.320312 72.863281l-.058594.511719c-.664062 5.835938-1.292968 11.351563-1.59375 16.320313-.507812 8.378906-.738281 16.757812-.96875 26.0625l-.011718.503906c-.253907 9.957031-.519532 20.253906-1.28125 30.304688-2.039063 26.789062-6.0625 56.464843-28.140626 69.617187-11.507812 6.859375-25.941406 7.429687-38.566406 7.429687zm0 0" fill="#939baa"/><path d="m186.546875 357.773438c-45.0625-.542969-90.589844-2.296876-135.316406-5.222657-13.84375-.902343-29.265625-2.761719-37.039063-13.515625-5.3125-7.335937-5.769531-17.074218-5.800781-28.117187l-.390625-130.058594c-.050781-16.582031.835938-33.605469 12.039062-43.589844 8.972657-7.988281 22.148438-9.074219 36.003907-9.546875 68.484375-2.355468 138.132812-3.550781 207.007812-3.550781h4.070313c4.953125 0 9.90625.019531 14.847656.039063 1.488281.011718 2.570312.085937 3.828125.1875l.648437.046874c.371094.027344.753907.054688 1.15625.082032l1.359376.082031.421874 1.296875c1.074219 3.308594 2.234376 6.691406 3.449219 10.058594l.976563 2.710937-7.21875-.085937c-2.183594-.03125-4.363282-.058594-6.546875-.078125-9.027344-.089844-18.484375-.132813-28.109375-.132813-48.667969 0-97.804688 1.140625-145.320313 2.242188l-1.296875.03125c-11.589844.28125-23.183594.550781-34.773437.800781-12.660157.28125-25.792969 1.371094-34.976563 11.148437-5.613281 5.976563-8.933594 14.605469-10.148437 26.386719l-.316407 3.101563c-1.613281 15.683594-3.28125 31.902344-4.164062 48.082031-1.476562 27.292969-.746094 53.738281.160156 76.011719.414063 10.027344 2.800782 17.519531 7.304688 22.894531 4.316406 5.160156 11.09375 8.792969 19.59375 10.515625 15.355468 3.097656 31.640625 3.292969 47.390625 3.480469 6.441406.074219 12.234375.15625 17.925781.378906l66.449219 2.660156h.121093c.417969 0 .824219-.09375 1.242188-.28125l1.613281-.730469.921875 1.511719c1.753906 2.878907 3.285156 5.570313 4.683594 8.230469l1.558594 2.96875zm0 0" fill="#939baa"/><path d="m356.035156 234.566406c-23.683594-22.730468-39.628906-56.488281-50.871094-83.359375-4.019531-9.621093-7.636718-19.4375-10.75-29.175781-3.871093-12.125-8.3125-28.152344-8.3125-44.609375 0-7.824219 1.027344-15.203125 3.054688-21.925781 5.867188-19.429688 21.460938-35.980469 40.691406-43.195313 7.613282-2.859375 15.695313-4.308593 24.023438-4.308593 12.480468 0 24.703125 3.273437 35.347656 9.460937 17.667969 10.265625 30.585938 28.527344 34.554688 48.855469 4.609374 23.628906-2.71875 48.167968-9.613282 66.90625-10.855468 29.5-25.308594 57.664062-42.953125 83.699218-.847656 1.253907-1.695312 2.53125-2.550781 3.820313l-.265625.40625c-2.960937 4.46875-6.023437 9.09375-9.417969 13.246094l-1.371094 1.679687zm1.289063-192.429687c-.34375 0-.679688.003906-1.019531.015625-15.816407.511718-29.003907 10.878906-33.597657 26.40625-4.714843 15.945312.789063 32.230468 14.019531 41.496094 6.0625 4.25 13.695313 6.589843 21.492188 6.589843 8.292969 0 16.3125-2.609375 22.585938-7.347656 11.164062-8.4375 16.742187-23.53125 13.886718-37.554687-3.257812-16.046876-20.371094-29.605469-37.367187-29.605469zm0 0" fill="#d34242"/><path d="m375.996094 220.542969 1.511718-2.261719c6.082032-9.097656 11.828126-18.511719 17.074219-27.976562l1.050781-1.894532 1.804688 1.195313c21.136719 14.015625 46.75 22.039062 72.117188 22.597656l2.144531.046875-3.300781 35.570312zm0 0" fill="#5bd0fc"/><path d="m275.019531 268.246094c-.859375-6.050782-3.242187-11.210938-6.886719-14.917969-3.496093-3.566406-8.695312-5.695313-13.898437-5.695313-.398437 0-.796875.011719-1.191406.039063-1.304688.078125-2.585938.296875-3.804688.652344l-2.414062.703125-.140625-2.511719c-.132813-2.347656-.316406-4.730469-.496094-6.960937l-.117188-1.457032 79.535157-32.488281.894531 1.417969c5.601562 8.863281 11.496094 16.828125 17.523438 23.664062l1.46875 1.667969-52.0625 36.933594-.976563-.335938c-1.953125-.679687-4.027344-1.023437-6.164063-1.023437-2.886718 0-5.808593.640625-8.457031 1.851562l-2.433593 1.113282zm0 0" fill="#5bd0fc"/><path d="m151.128906 338.964844v-2.097656l.011719-.074219.46875-60.855469c.011719-1.640625-1.265625-2.96875-2.90625-3.023438l-122.582031-3.859374-.011719-1.929688c-.03125-6.398438.019531-12.628906.152344-18.515625l.046875-2.121094 73.894531 6.113281c1.300781.113282 2.683594.222657 4.15625.222657 3.652344 0 6.542969-.738281 8.835937-2.257813 5.679688-3.765625 6.511719-11.421875 6.957032-15.535156l9.667968-88.9375 19.066407-.425781-.164063 2.195312c-2.09375 28.066407-2.695312 56.394531-1.792968 84.207031.0625 1.882813.160156 4.714844 1.890624 7.011719 2.285157 3.019531 6.195313 3.546875 8.296876 3.832031 9.855468 1.335938 20.003906 2.171876 30.164062 2.480469l1.824219.058594.109375 1.820313c.269531 4.457031.460937 8.0625.59375 11.351562.257812 7.023438.269531 14.398438-2.589844 20.699219-1.804688 3.96875-4.695312 7.433593-7.761719 11.101562l-1.601562-1.203125 1.535156 1.28125c-4.136719 4.953125-8.414063 10.078125-10.050781 16.71875-2.441406 9.964844 1.476562 19.066406 8.113281 29.671875l2.007813 3.210938zm0 0" fill="#5bd0fc"/><g fill="#f9d889"><path d="m470.398438 206.222656c-24.824219-.402344-49.835938-8.269531-70.425782-22.148437l-1.484375-1 .828125-1.585938c5.402344-10.355469 10.382813-21.03125 14.804688-31.730469l.539062-1.300781 1.40625.070313c6.164063.300781 12.328125.621094 18.492188.949218 11.226562.609376 21.113281 1.59375 28.355468 7.496094 11.363282 9.25 11.445313 26.527344 9.847657 43.816406l-.515625 5.464844zm0 0"/><path d="m378.53125 337.742188c-18.09375 0-36.390625-.644532-54.382812-1.914063l-2.972657-.210937 1.320313-2.667969c5.113281-10.355469 6.265625-20.570313 3.238281-28.773438-2.074219-5.636719-6.660156-10.460937-12.265625-12.910156-2.144531-.941406-4.363281-1.488281-6.59375-1.628906l-1.902344-.117188.023438-1.902343c.066406-4.730469-1.648438-9.539063-4.703125-13.191407l-1.386719-1.660156 50.769531-36.023437 1.195313 1.171874c1.65625 1.628907 3.316406 3.171876 4.925781 4.585938.554687.488281 1.253906.753906 1.980469.753906.808594 0 1.597656-.335937 2.164062-.921875 4.574219-4.746093 8.464844-10.402343 11.753906-15.328125l.816407-1.226562 95.320312 28.121094-3.53125 38.148437c-1.34375 14.390625-3.511719 29.109375-13.753906 37.085937-7.339844 5.71875-17.257813 6.730469-27.636719 7.328126-14.648437.851562-29.578125 1.28125-44.378906 1.28125zm0 0"/><path d="m186.535156 239.34375c-9.664062-.316406-19.289062-1.117188-28.613281-2.378906-2.921875-.398438-3.605469-.824219-4.023437-1.191406l-.238282-.207032-.160156-.273437c-.367188-.621094-.507812-1.441407-.574219-3.378907-.910156-27.960937-.285156-56.390624 1.859375-84.550781l.140625-1.808593 1.8125-.039063c38.25-.785156 67.605469-1.136719 95.175781-1.136719 9.609376 0 19.054688.046875 28.066407.136719 4.921875.039063 9.835937.109375 14.757812.179687l1.34375.019532.492188 1.25c1.066406 2.726562 2.070312 5.199218 3.0625 7.554687 4.769531 11.410157 12.210937 28.472657 21.6875 44.90625l1.144531 1.984375-77.015625 31.46875-.316406-2.601562c-2.371094-19.46875-6.871094-38.722656-13.371094-57.230469-1.980469-5.632813-4.53125-11.238281-9.773437-14.0625-2.015626-1.089844-4.386719-1.664063-6.855469-1.664063-4.085938 0-8.195313 1.507813-11.5625 4.246094-5.179688 4.207032-7.929688 10.445313-9.550781 14.769532-7.300782 19.519531-6.734376 40.414062-5.425782 61.886718l.132813 2.191406zm0 0"/><path d="m113.550781 337.460938c-5.535156-.222657-11.28125-.296876-16.839843-.371094l-1.363282-.015625c-15.441406-.191407-31.414062-.390625-46.164062-3.371094-4.980469-1-11.832032-3.285156-16.175782-8.476563-3.632812-4.328124-5.570312-10.636718-5.917968-19.28125-.308594-7.753906-.6875-18.03125-.871094-28.789062l-.035156-2.097656 119.398437 3.757812-.457031 59.90625zm0 0"/><path d="m104.390625 246.816406c-1.195313 0-2.476563-.089844-3.683594-.1875l-74.226562-6.148437.082031-1.917969c.105469-2.679688.21875-5.371094.371094-8.070312.867187-16.035157 2.527344-32.179688 4.136718-47.792969l.320313-3.101563c1.0625-10.414062 3.859375-17.90625 8.550781-22.894531 7.59375-8.085937 18.871094-8.988281 30.734375-9.25 11.367188-.253906 22.722657-.519531 34.089844-.78125l18.996094-.441406-9.574219 88.140625c-.46875 4.34375-1.222656 9.152344-4.304688 11.191406-1.289062.855469-3.035156 1.253906-5.492187 1.253906zm0 0"/></g><path d="m335.578125 111.691406c6.625 4.640625 14.636719 6.949219 22.644531 6.949219 8.488282 0 16.96875-2.59375 23.789063-7.75 11.761719-8.886719 17.644531-24.777344 14.640625-39.542969-3.554688-17.496094-22.054688-31.777344-40.410156-31.1875-16.699219.53125-30.617188 11.460938-35.457032 27.835938-4.960937 16.78125.847656 33.933594 14.792969 43.695312zm-5.203125-40.859375c2.863281-9.683593 11.246094-20.199219 26.191406-20.679687 13.515625-.414063 27.691406 10.402344 30.289063 23.1875 2.253906 11.074218-2.117188 22.960937-10.871094 29.578125-9.734375 7.355469-24.640625 7.609375-34.671875.585937-12.59375-8.820312-13.761719-23.113281-10.9375-32.671875zm0 0" fill="#231f20"/><path d="m485.886719 127.289062c-11.71875-8.089843-26.050781-8.1875-38.695313-8.277343-2.011718-.011719-4.007812-.027344-5.96875-.070313l-13.800781-.316406c4.746094-16.457031 7.832031-35.242188 4.203125-53.847656-4.402344-22.554688-18.753906-42.832032-38.390625-54.238282-20.015625-11.632812-44.761719-13.773437-66.199219-5.730468-21.519531 8.074218-38.96875 26.609375-45.539062 48.378906-6.542969 21.679688-2.558594 44.34375 2.8125 63.09375-.6875-.039062-1.433594-.0625-2.304688-.066406-4.957031-.023438-9.914062-.039063-14.871094-.039063-70.214843-.058593-141.304687 1.144531-211.367187 3.554688-11.617187.398437-29.175781 1-41.042969 11.566406-13.683594 12.1875-14.7734372 31.984375-14.722656 49.585937l.394531 130.058594c.027344 9.605469.066407 22.761719 7.3125 32.78125 9.339844 12.914063 26.1875 15.710938 43 16.8125 46.613281 3.046875 93.917969 4.828125 140.648438 5.304688 5.304687 12.308594 8.90625 25.359375 10.632812 38.632812-5.375 1.429688-10.246093 3.851563-13.550781 8.507813-4.511719 6.359375-4.035156 14.535156-3.71875 19.941406l2.386719 40.828125c.078125 1.332031.042969 3.121094.007812 5.015625-.15625 8.007813-.371093 18.972656 7.035157 24.019531 6.988281 4.765625 17.941406 5.78125 26.742187 6.601563 2.105469.195312 4.09375.382812 5.804687.601562 10.578126 1.34375 21.195313 2.011719 31.796876 2.011719 12.863281 0 25.707031-.988281 38.417968-2.960938 4.65625-.726562 9.953125-1.828124 13.839844-5.78125 4.550781-4.621093 5.160156-11.214843 5.5625-15.578124 2.003906-21.777344 4.078125-44.296876-.960938-66.460938-1.460937-6.429688-4.316406-15.511719-12.21875-20.113281-1.027343-.597657-2.089843-1.085938-3.160156-1.480469-.835937-11.800781 1.25-23.832031 5.953125-34.699219l114.972657.542969c1.285156.003906 2.601562.011719 3.941406.011719 13.582031 0 29.570312-.640625 42.859375-8.558594 27.507812-16.386719 30.441406-55.085937 32.015625-75.878906.792968-10.425781 1.058594-20.992188 1.316406-31.210938.214844-8.46875.4375-17.226562.957031-25.78125.296875-4.90625.9375-10.492187 1.613281-16.40625 3.222657-28.125 7.234376-63.132812-17.714843-80.355469zm-158.277344 176.191407c-2.257813-6.132813-7.246094-11.382813-13.34375-14.046875-2.390625-1.046875-4.84375-1.640625-7.265625-1.789063.066406-5.238281-1.808594-10.484375-5.171875-14.503906l47.640625-33.796875c1.636719 1.601562 3.304688 3.160156 5.011719 4.660156.949219.835938 2.125 1.25 3.300781 1.25 1.3125 0 2.625-.515625 3.601562-1.53125 4.523438-4.691406 8.34375-10.167968 11.976563-15.613281l92.332031 27.25-3.382812 36.503906c-1.296875 13.953125-3.363282 28.207031-12.984375 35.695313-6.890625 5.363281-16.476563 6.332031-26.523438 6.910156-32.695312 1.894531-65.800781 1.675781-98.511719-.636719 5.359376-10.847656 6.546876-21.601562 3.320313-30.351562zm-139.800781-44.777344c.257812 6.765625.28125 13.867187-2.410156 19.792969-1.699219 3.742187-4.527344 7.121094-7.519532 10.703125-4.292968 5.132812-8.734375 10.445312-10.476562 17.546875-2.804688 11.429687 2.488281 21.832031 8.359375 31.207031l-22.628907-.90625c0-.03125.007813-.058594.007813-.089844l.46875-61.003906c.019531-2.714844-2.128906-4.949219-4.84375-5.035156l-120.65625-3.804688c-.03125-6.039062.011719-12.207031.148437-18.460937l71.785157 5.945312c1.261719.105469 2.734375.226563 4.316406.226563 3.167969 0 6.765625-.492188 9.941406-2.59375 6.460938-4.277344 7.359375-12.546875 7.84375-16.992188l9.46875-87.1875c5.03125-.113281 10.070313-.226562 15.121094-.332031-2.097656 28.003906-2.71875 56.375-1.804687 84.414062.066406 2 .175781 5.34375 2.292968 8.144532 2.785156 3.683594 7.40625 4.3125 9.628906 4.613281 10.03125 1.359375 20.238282 2.191406 30.371094 2.496094.226563 3.777343.441406 7.585937.585938 11.316406zm-44.664063 77.941406-29.519531-1.179687c-5.976562-.238282-12.160156-.316406-18.144531-.386719-15.386719-.191406-31.296875-.386719-45.902344-3.332031-4.667969-.941406-11.0625-3.058594-15.042969-7.804688-3.328125-3.96875-5.109375-9.886718-5.445312-18.082031-.363282-8.972656-.699219-18.632813-.871094-28.738281l115.355469 3.636718zm-114.582031-98c.101562-2.671875.222656-5.351562.367188-8.039062.859374-15.886719 2.523437-32.058594 4.128906-47.699219l.320312-3.097656c1.023438-9.96875 3.644532-17.078125 8.015625-21.730469 7.070313-7.523437 17.90625-8.371094 29.328125-8.625 11.59375-.253906 23.1875-.527344 34.785156-.796875 5.320313-.125 10.671876-.246094 16.023438-.371094l-9.328125 85.875c-.457031 4.179688-1.183594 8.253906-3.425781 9.738282-1.722656 1.144531-4.726563 1-7.910156.734374zm163.585938-64.007812c-7.535157 20.152343-6.828126 41.683593-5.550782 62.710937-9.480468-.316406-19.023437-1.09375-28.40625-2.367187-2.117187-.285157-2.808594-.570313-2.976562-.707031-.222656-.394532-.273438-1.898438-.289063-2.464844-.914062-28-.277343-56.339844 1.847657-84.296875 40.875-.835938 82.273437-1.40625 123.1875-1 4.914062.046875 9.832031.113281 14.746093.183593 1 2.546876 2.023438 5.082032 3.078125 7.597657 5.898438 14.097656 13.019532 29.898437 21.800782 45.132812l-72.46875 29.605469c-2.386719-19.613281-6.886719-38.917969-13.46875-57.640625-2.113282-6.019531-4.875-12.023437-10.707032-15.167969-6.183594-3.332031-14.480468-2.210937-20.636718 2.796875-5.554688 4.515625-8.457032 11.074219-10.15625 15.617188zm132.664062 33.457031c5.320312 8.421875 11.195312 16.53125 17.710938 23.914062l-49.417969 35.058594c-5.242188-1.820312-11.09375-1.390625-16.105469.894532-.914062-6.410157-3.457031-11.984376-7.4375-16.039063-4.222656-4.296875-10.464844-6.632813-16.644531-6.246094-1.476563.089844-2.894531.335938-4.234375.726563-.132813-2.339844-.308594-4.671875-.503906-7.003906zm71.515625-16.820312c21.597656 14.324218 47.273437 22.359374 73.179687 22.929687l-2.875 31.007813-87.46875-25.8125c6.109376-9.140626 11.839844-18.523438 17.164063-28.125zm74.441406 9.332031-.335937 3.617187c-24.609375-.402344-48.960938-8.066406-69.347656-21.808594 5.433593-10.40625 10.398437-21.046874 14.882812-31.886718 6.160156.300781 12.320312.613281 18.480469.949218 10.875.589844 20.425781 1.527344 27.199219 7.042969 10.644531 8.664063 10.671874 25.347657 9.121093 42.085938zm-179.699219-144.527344c5.6875-18.847656 20.816407-34.90625 39.476563-41.910156 7.460937-2.796875 15.386719-4.175781 23.324219-4.175781 11.914062 0 23.867187 3.105468 34.339844 9.191406 17.183593 9.980468 29.742187 27.742187 33.597656 47.507812 4.511718 23.132813-2.722656 47.332032-9.527344 65.832032-10.789062 29.320312-25.167969 57.335937-42.730469 83.269531-.9375 1.386719-1.882812 2.808593-2.832031 4.242187-2.960938 4.46875-6 9.050782-9.304688 13.085938-23.3125-22.382813-39.121093-55.726563-50.40625-82.691406-3.972656-9.492188-7.566406-19.25-10.6875-29.003907-5.980468-18.703125-11.984374-43.039062-5.25-65.347656zm-239.710937 294.480469c-13.390625-.875-28.289063-2.652344-35.550781-12.695313-4.957032-6.855469-5.382813-16.261719-5.417969-26.949219l-.390625-130.0625c-.046875-16.128906.792969-32.664062 11.375-42.085937 8.464844-7.542969 21.261719-8.582031 34.734375-9.042969 68.589844-2.355468 138.191406-3.550781 206.941406-3.550781h4.074219c4.945312.003906 9.890625.019531 14.835938.039063 1.457031.007812 2.535156.089843 3.675781.179687.589843.046875 1.1875.09375 1.84375.128906 1.101562 3.382813 2.265625 6.757813 3.472656 10.125-3.628906-.046875-7.261719-.097656-10.890625-.132812-58.304688-.574219-117.523438.804687-174.789062 2.144531-11.589844.273438-23.179688.542969-34.769532.796875-13.089844.289063-26.683594 1.4375-36.394531 11.777344-5.929687 6.308593-9.421875 15.324219-10.675781 27.554687l-.320313 3.097656c-1.621093 15.757813-3.292969 32.050782-4.167969 48.179688-1.484374 27.375-.753906 53.882812.152344 76.203125.429688 10.488281 2.972656 18.371094 7.773438 24.101563 4.621094 5.511718 11.789062 9.378906 20.730468 11.183593 15.523438 3.128907 31.910157 3.328125 47.757813 3.523438 5.914063.074219 12.027344.148437 17.867187.382812l66.449219 2.660157c.070313 0 .136719.003906.207031.003906.734376 0 1.429688-.175782 2.0625-.464844 1.625 2.65625 3.171876 5.363281 4.621094 8.121094-44.957031-.546875-90.402344-2.289063-135.207031-5.21875zm254.242187 72.878906c4.683594 20.613281 2.683594 42.328125.753907 63.324219-.359375 3.902343-.839844 7.5625-2.730469 9.484375-1.746094 1.773437-5.035156 2.410156-8.25 2.910156-22.253906 3.457031-44.9375 3.765625-67.417969.910156-1.878906-.238281-3.949219-.429687-6.140625-.632812-7.65625-.714844-17.179687-1.597656-22.035156-4.910156-2.933594-2-2.769531-10.488282-2.671875-15.558594.042969-2.097656.078125-4.074219-.019531-5.796875l-2.386719-40.828125c-.320313-5.515625-.402344-10.339844 1.890625-13.574219 2.5625-3.613281 7.800781-4.980469 14.878906-5.917969 23.019532-3.054687 47.515625-4.664062 74.882813-4.914062 4.648437-.042969 8.75.066406 11.746093 1.8125 3.453126 2.011718 5.835938 6.359375 7.5 13.691406zm-19.335937-25.5c-27.121094.246094-51.484375 1.816406-74.421875 4.78125-2.96875-22.292969-10.878906-43.980469-23.003906-62.917969-.570313-.890625-1.15625-1.789062-1.742188-2.699219-6.011718-9.261718-12.226562-18.839843-9.984375-27.972656 1.191407-4.851562 4.710938-9.058594 8.4375-13.515625 3.289063-3.933593 6.6875-8.003906 8.953125-12.980469 3.59375-7.910156 3.585938-16.699218 3.296875-24.3125-.210937-5.519531-.566406-11.144531-.910156-16.585937-1.359375-21.554687-2.765625-43.839844 4.625-63.597656 2.050781-5.480469 4.304687-9.089844 7.097656-11.359375 2.542969-2.066406 6.648438-3.335938 9.585938-1.753906 2.980469 1.605468 4.667969 5.839843 6.019531 9.679687 9.132812 25.988281 14.125 53.132813 14.832031 80.671875.050781 2.121094 1.4375 3.972656 3.457031 4.628906 2.019532.652344 4.226563-.039062 5.515626-1.726562 1.585937-2.082032 4.136718-2.535156 5.515624-2.621094 3.246094-.210938 6.734376 1.082031 8.890626 3.273438 5.71875 5.820312 5.152343 15.296874 4.644531 19.097656-.3125 2.355468 1.070312 4.605468 3.3125 5.386718 2.242187.777344 4.722656-.125 5.9375-2.164062 2.832031-4.75 9.871093-6.753906 14.777343-4.199219 4.902344 2.554688 7.300782 9.472657 5.03125 14.511719-.84375 1.871094-.457031 4.066406.972657 5.535156 1.425781 1.472656 3.609375 1.921875 5.503906 1.136719 2.898437-1.199219 5.757813-.46875 7.652344.359375 3.59375 1.570312 6.648437 4.769531 7.964843 8.34375 3.125 8.472656-.640624 18.046875-3.164062 23-2.1875 4.292969-4.871094 8.308594-7.710938 12.558594-2.367187 3.539062-4.8125 7.195312-6.964843 11.058594-7.492188 13.429687-11.152344 29.023437-10.515625 44.394531-1.277344-.03125-2.492188-.023438-3.605469-.011719zm207.402344-191.429688c-.691407 6.050782-1.347657 11.765626-1.660157 16.941407-.53125 8.726562-.753906 17.574219-.972656 26.128906-.253906 10.097656-.519531 20.535156-1.289062 30.710937-1.992188 26.277344-5.898438 55.375-27.164063 68.042969-12.210937 7.277344-27.835937 7.207031-41.636719 7.136719l-109.765624-.519531c1.414062-2.285157 2.914062-4.546875 4.484374-6.898438 1.011719-1.511719 2.027344-3.054687 3.039063-4.613281 19.847656 1.53125 39.847656 2.304688 59.832031 2.304688 14.980469 0 29.953125-.429688 44.839844-1.292969 11.21875-.648438 22.9375-1.875 32.089844-9 12.773437-9.945313 15.367187-27.238281 16.796875-42.664063l8.464843-91.257812c1.722657-18.5625 1.550782-39.109375-12.761718-50.761719-9.09375-7.402344-20.785156-8.613281-32.972656-9.273437-5.035157-.277344-10.074219-.527344-15.109376-.777344.601563-1.578125 1.199219-3.15625 1.78125-4.738282.878907-2.386718 1.765626-4.867187 2.632813-7.425781l16.695313.386719c2.015624.042969 4.0625.058594 6.128906.074219 11.75.082031 23.898437.164062 33.082031 6.503906 20.015625 13.820313 16.386719 45.519531 13.464844 70.992187zm0 0" fill="#231f20"/></svg>