<svg id="uuid-27c16bba-23f4-49b3-bb4c-8745f493a09d" height="512" viewBox="0 0 64 64" width="512" xmlns="http://www.w3.org/2000/svg"><path d="m27 8c0-2.761-2.239-7-5-7s-5 4.239-5 7 2.239 5 5 5 5-2.239 5-5z" fill="#bdf16a"/><path d="m23 1.185c-2.282.844-4 4.396-4 6.815s1.718 4.436 4 4.899c2.282-.463 4-2.48 4-4.899s-1.718-5.971-4-6.815z" fill="#9eea4c"/><path d="m41 8c0-2.761-2.239-7-5-7s-5 4.239-5 7 2.239 5 5 5 5-2.239 5-5z" fill="#bdf16a"/><path d="m37 1.286c-2.282.844-4 4.396-4 6.815s1.718 4.436 4 4.899c2.282-.463 4-2.48 4-4.899s-1.718-5.971-4-6.815z" fill="#9eea4c"/><g fill="#f5821e"><path d="m23 18h-2v-11c0-.552.448-1 1-1 .552 0 1 .448 1 1z"/><path d="m37 18h-2v-11c0-.552.448-1 1-1 .552 0 1 .448 1 1z"/></g><g fill="#f5821e"><path d="m22 8.586-1.293-1.293c-.39-.39-1.024-.39-1.414 0-.39.39-.39 1.024 0 1.414l2.707 2.707 2.707-2.707c.39-.39.39-1.024 0-1.414-.39-.39-1.024-.39-1.414 0z"/><path d="m37.293 7.293-1.293 1.293-1.293-1.293c-.39-.39-1.024-.39-1.414 0-.39.39-.39 1.024 0 1.414l2.707 2.707 2.707-2.707c.39-.39.39-1.024 0-1.414-.39-.39-1.024-.39-1.414 0z"/></g><path d="m55 17v10h-40c-2.209 0-4 1.791-4 4 0 2.209 1.791 4 4 4h34c7.732 0 14 6.268 14 14 0 7.732-6.268 14-14 14h-40v-10h40c2.209 0 4-1.791 4-4 0-2.209-1.791-4-4-4h-34c-7.732 0-14-6.268-14-14 0-7.732 6.268-14 14-14z" fill="#5b6578"/><path d="m55 17v10h-40c-2.209 0-4 1.791-4 4 0 2.209 1.791 4 4 4h34c7.732 0 14 6.268 14 14 0 7.732-6.268 14-14 14h-40v-10h40c2.209 0 4-1.791 4-4 0-2.209-1.791-4-4-4h-34c-7.732 0-14-6.268-14-14 0-7.732 6.268-14 14-14z" fill="#5b6578"/><g fill="#677185"><path d="m49 53h-40v2h40c2.209 0 4-1.791 4-4 0-.347-.058-.679-.141-1-.446 1.722-1.997 3-3.859 3z"/><path d="m15 35c-1.862 0-3.412-1.278-3.859-3-.083.321-.141.653-.141 1 0 2.209 1.791 4 4 4h34c7.394 0 13.435 5.737 13.95 13 .023-.332.05-.662.05-1 0-7.732-6.268-14-14-14z"/><path d="m15 19h40v-2h-40c-7.732 0-14 6.268-14 14 0 .338.027.668.05 1 .515-7.263 6.555-13 13.95-13z"/></g><g fill="#ffdc28"><path d="m11 57h-2v2h2c.552 0 1-.447 1-1s-.448-1-1-1z"/><path d="m49 59h-1.884c-.552 0-1-.447-1-1s.448-1 1-1h1.884c.634 0 1.265-.074 1.876-.221.536-.127 1.077.203 1.206.739.128.537-.203 1.077-.74 1.206-.763.183-1.551.275-2.342.275zm-7.903 0h-4.013c-.552 0-1-.447-1-1s.448-1 1-1h4.013c.552 0 1 .447 1 1s-.448 1-1 1zm-10.032 0h-4.013c-.552 0-1-.447-1-1s.448-1 1-1h4.013c.552 0 1 .447 1 1s-.448 1-1 1zm-10.032 0h-4.013c-.552 0-1-.447-1-1s.448-1 1-1h4.013c.552 0 1 .447 1 1s-.448 1-1 1zm35.046-3.44c-.216 0-.435-.07-.618-.214-.434-.342-.509-.97-.168-1.404.735-.935 1.259-2.038 1.517-3.193.121-.539.658-.878 1.194-.758.539.12.878.654.758 1.193-.322 1.445-.978 2.826-1.896 3.994-.197.251-.491.382-.787.382zm1.034-9.463c-.372 0-.729-.208-.901-.565-.514-1.067-1.276-2.025-2.202-2.77-.43-.346-.499-.975-.153-1.405.347-.43.976-.498 1.406-.153 1.157.93 2.108 2.126 2.751 3.459.24.498.031 1.096-.467 1.335-.14.068-.288.1-.434.1zm-8.04-5.097h-4.013c-.552 0-1-.447-1-1s.448-1 1-1h3.94c.552 0 1.036.447 1.036 1s-.411 1-.963 1zm-10.032 0h-4.013c-.552 0-1-.447-1-1s.448-1 1-1h4.013c.552 0 1 .447 1 1s-.448 1-1 1zm-10.032 0h-4.013c-.552 0-1-.447-1-1s.448-1 1-1h4.013c.552 0 1 .447 1 1s-.448 1-1 1zm-10.032 0h-3.976c-.552 0-1.018-.447-1.018-1s.429-1 .981-1h4.013c.552 0 1 .447 1 1s-.448 1-1 1zm-9.584-1.96c-.219 0-.438-.071-.623-.218-1.161-.925-2.117-2.117-2.765-3.448-.242-.496-.036-1.095.461-1.337.496-.24 1.096-.035 1.337.462.519 1.064 1.284 2.019 2.213 2.759.432.345.503.974.159 1.405-.198.248-.489.377-.783.377zm-3.184-8.971c-.071 0-.143-.007-.214-.023-.54-.117-.881-.65-.764-1.189.316-1.447.966-2.831 1.881-4.003.34-.436.969-.512 1.403-.173.436.34.513.968.173 1.403-.731.937-1.25 2.043-1.503 3.198-.102.468-.516.787-.976.787zm6.647-6.812c-.45 0-.859-.306-.97-.763-.131-.536.197-1.077.734-1.209.774-.189 1.576-.285 2.381-.285h1.848c.552 0 1 .447 1 1s-.448 1-1 1h-1.848c-.646 0-1.287.077-1.907.229-.08.02-.16.028-.238.028zm34.089-.257h-4.013c-.552 0-1-.447-1-1s.448-1 1-1h4.013c.552 0 1 .447 1 1s-.448 1-1 1zm-10.032 0h-4.013c-.552 0-1-.447-1-1s.448-1 1-1h4.013c.552 0 1 .447 1 1s-.448 1-1 1zm-10.032 0h-4.013c-.552 0-1-.447-1-1s.448-1 1-1h4.013c.552 0 1 .447 1 1s-.448 1-1 1z"/><path d="m53 21c-.552 0-1 .447-1 1s.448 1 1 1h2v-2z"/></g><g><path d="m9 63s-8-6-8-12c0-4.418 3.582-8 8-8s8 3.582 8 8c0 6-8 12-8 12" fill="#ff5a83"/><path d="m3 51c0 4.683 4.861 9.353 7 11.183 2.139-1.83 7-6.5 7-11.183 0-2.729-1.369-5.135-3.454-6.579-.8-.269-1.655-.421-2.546-.421-4.418 0-8 2.582-8 7z" fill="#f6406e"/><circle cx="9" cy="51" fill="#fff" r="4"/></g><g><path d="m55 27s-8-6-8-12c0-4.418 3.582-8 8-8s8 3.582 8 8c0 6-8 12-8 12" fill="#ff5a83"/><path d="m49 15c0 4.683 4.861 9.353 7 11.183 2.139-1.83 7-6.5 7-11.183 0-2.729-1.369-5.135-3.454-6.579-.8-.269-1.655-.421-2.546-.421-4.418 0-8 2.582-8 7z" fill="#f6406e"/><circle cx="55" cy="15" fill="#fff" r="4"/></g></svg>