<svg id="Layer_1" enable-background="new 0 0 53 53" height="512" viewBox="0 0 53 53" width="512" xmlns="http://www.w3.org/2000/svg"><g id="_x31_79"><g><g><path d="m41.9028473 6.7011027c-.0337715.2705269-.1465111.5409851-.3493538.7551088l-25.7058258 25.8523365c-.4733019.4733009-1.2509031.4733009-1.7354851-.0112801-.4733019-.4733696-.4845819-1.2509041 0-1.7242737l25.6945458-25.8523364c.4733009-.4733014 1.2621841-.4733014 1.7355537 0 .2704582.2704582.3831253.6310921.3605652.9804449z" fill="#c2c2ef"/></g></g><g><g><path d="m36.8982086 47.0451851v2.5581398c0 .4057579-.3267899.7325478-.7324791.7325478h-18.7750969c-.4056873 0-.7324791-.3267899-.7324791-.7325478v-2.5581398c0-.4057541.3267918-.7325478.7324791-.7325478h18.7750969c.4056893 0 .7324791.3267937.7324791.7325478z" fill="#f4b37d"/></g></g><g><g><path d="m36.8982086 47.0451851v2.5581398c0 .4057579-.3267899.7325478-.7324791.7325478h-18.7750969c-.4056873 0-.7324791-.3267899-.7324791-.7325478v-.3380737h18.4369583c.4056854 0 .7325478-.3267899.7325478-.7324791v-2.2201347h.3380699c.4056893-.0000001.7324791.3267936.7324791.7325477z" fill="#f2a764"/></g></g><g><g><g><path d="m26.9043941 39.6194649c-5.9500771 0-11.6019068-2.5791168-15.506628-7.0764809-.5101004-.5871391-.4473696-1.4769268.1403189-1.9870281.5865889-.5106506 1.4769268-.4473686 1.9870281.1403198 3.3693075 3.8805103 8.2458067 6.1058025 13.379281 6.1058025 9.7755604 0 17.7286205-7.9530621 17.7286205-17.7286205 0-5.0382786-2.1576118-9.8547974-5.9187088-13.2147503-.5805358-.5183553-.6306113-1.4086933-.1122588-1.9886784.5167046-.5805357 1.4081459-.6311605 1.9886818-.1122553 4.3592415 3.8937156 6.8596725 9.4762115 6.8596725 15.3156843 0 11.3289735-9.2170334 20.5460069-20.5460072 20.5460069z" fill="#474646"/></g></g></g><g><g><g><path d="m47.4475136 19.0751095c0 11.3258762-9.2184792 20.5443554-20.544426 20.5443554-5.6798248 0-11.0779123-2.3553658-14.9546375-6.4799881 3.7865496 3.5160942 8.7563877 5.4882622 13.9629116 5.4882622 11.3371582 0 20.555706-9.2184772 20.555706-20.5443554 0-5.1051369-1.9158363-10.0186415-5.3079796-13.7826996 4.0006752 3.8429537 6.2884255 9.1959867 6.2884255 14.7744255z" fill="#2d2c2c"/></g></g></g><g><g><path d="m42.7870598 18.9736519c0 2.138279-.4161415 4.1724339-1.1789436 6.0333309-.7397308 1.8261185-1.8146172 3.4904785-3.1553192 4.9005947-2.9126472 3.1206856-7.0620136 5.0739937-11.6736584 5.0739937-.9130592 0-1.814621-.0809135-2.6930428-.2311745-5.2473221-.8784218-9.6162233-4.3226929-11.8007088-8.9806156-.9709053-2.0572929-1.5140991-4.3689003-1.5140991-6.7961292 0-2.6351948.6356773-5.1317711 1.768342-7.3162565 2.6583347-5.1664076 8.0328493-8.6915941 14.2395086-8.6915941.7397308 0 1.4678917.0462067 2.1729164.1502602 7.813242 1.0633189 13.8350049 7.7553966 13.8350049 15.8575904z" fill="#e4e3ff"/></g></g><g opacity=".5"><g><g><path d="m17.2025719 9.9395151c-.220108 0-.4402161-.0858431-.6058483-.2558765-.3257599-.3351145-.3180561-.869978.0165081-1.1951876 1.8753223-1.8230472 4.2112217-3.107379 6.7556744-3.7143273.4545231-.1078529.9101467.1722345 1.0179996.6262078.1084042.4539738-.1716843.9095979-.6262074 1.0180011-2.2478561.5365138-4.3124714 1.6711717-5.9687862 3.2818141-.1645317.1595783-.376936.2393684-.5893402.2393684z" fill="#fff"/></g></g></g><g><g><path d="m42.7870598 18.9736519c0 2.138279-.4161415 4.1724339-1.1789436 6.0333309-.7397308 1.8261185-1.8146172 3.4904785-3.1553192 4.9005947-2.9126472 3.1206856-7.0620136 5.0739937-11.6736584 5.0739937-.9130592 0-1.814621-.0809135-2.6930428-.2311745-3.895052-.6472473-7.316185-2.7161789-9.7087069-5.6518955 2.10357 1.7452755 4.6694212 2.9472866 7.4780149 3.4212055.7859383.1386909 1.5834446.2080345 2.3925209.231102h.3005219c4.1493645 0 7.9287949-1.5834446 10.7720947-4.1840019.3120918-.2773819.6125412-.5779018.9014931-.8899212 1.2020798-1.2714252 2.1960526-2.7392483 2.9242172-4.3458328.0809135-.184967.1502571-.3698654.2311745-.5548325.7627983-1.8608265 1.1788712-3.895052 1.1788712-6.0332603 0-3.8372765-1.352272-7.362463-3.617672-10.1248512.0347099.011569.0578461.034708.0809135.0693455.1965408.15026.3814354.3120894.5664063.4854174.0114975.0115695.0346375.034708.0462036.0462775.1964684.1733284.3814354.3582964.5663338.5431938.8090782.8206463 1.5256691 1.7337055 2.1497765 2.7161808.1502609.2426729.3005219.4969864.4392128.7512293.01157.023139.02314.034708.0347061.057847.127121.2311039.2542458.4738483.3698654.7165928.0693474.1386909.1271248.2658119.1848984.3929338.0577774.13869.127121.2773809.1734009.4045734.231102.5316238.416069 1.0864582.5893974 1.641221.0462799.1964664.1040535.3814344.1502609.5779018.1271935.4969873.2311745.9939737.3120918 1.5025301.0231361.1386909.0462036.2658119.0577736.4045029.0809174.6703859.1271935 1.3523412.1271935 2.045796z" fill="#d0d0f7"/></g></g><g><g><path d="m28.5047531 37.8236389v4.2300186h-3.4531422v-4.2300186c0-.9535599.7730122-1.7265701 1.7265701-1.7265701h.0000019c.9535581 0 1.7265702.7730102 1.7265702 1.7265701z" fill="#474646"/></g></g><g><g><path d="m28.5034122 37.8275757v4.2260818h-3.4484768v-.9691658h1.2613335c.6726341 0 1.2179108-.5452766 1.2179108-1.2179108v-3.0081673c0-.2254066-.0450535-.4395294-.1239491-.6423721.6423722.2479668 1.0931816.8790551 1.0931816 1.6115342z" fill="#2d2c2c"/></g></g><g><g><path d="m27.6177578 38.0755424c0 .4733009-.3831272.8452148-.8452168.8452148-.4620209 0-.8339348-.3719139-.8339348-.8452148 0-.4620895.3719139-.8339348.8339348-.8339348.4620896.0000001.8452168.3718453.8452168.8339348z" fill="#e4e3ff"/></g></g><g><g><path d="m27.5116863 37.6811371c-.1240158-.0676842-.2704582-.1127357-.4169674-.1127357-.4620895 0-.8340034.3719139-.8340034.8339348 0 .1577873.0451221.2930183.1127357.4169655-.2591763-.1465073-.4395275-.4169655-.4395275-.7437592 0-.4620895.3719139-.8339348.8339348-.8339348.3155804 0 .5973187.1802826.7438278.4395294z" fill="#d0d0f7"/></g></g><g><g><path d="m23.4966965 16.8354435-1.4794636 1.5140991s-1.0864582 2.5312138-3.0282001 2.2075539c-1.94174-.3120193-2.5774193.6356773-2.5774193 2.7970257 0 1.8608971-3.2131672 2.3231754-4.1262264 2.415659-.9709053-2.0572929-1.5140991-4.3689003-1.5140991-6.7961292 0-2.6351948.6356773-5.1317711 1.768342-7.3162565.8668528.335228 2.2422619.9015608 2.8895092 1.3407717.9709063.6588163 2.5774889.7627993 4.0106745-.3236589 1.4331856-1.0748882 1.4331856-.9014902 3.5251865 1.2944946 2.1035709 2.2076233.5316963 2.8664406.5316963 2.8664406z" fill="#a2a2f9"/></g></g><g><g><path d="m23.4966965 16.8354435-1.4794636 1.5140991s-1.0864582 2.5312138-3.0282001 2.2075539c-1.94174-.3120193-2.5774193.6356773-2.5774193 2.7970257 0 1.8608971-3.2131672 2.3231754-4.1262264 2.415659-.173399-.3698654-.335228-.7512989-.4739189-1.1326637 1.2598572-.2889519 2.8779402-.9015617 2.8779402-2.2191944 0-2.1613464.6357479-3.1091137 2.5774889-2.7970238 1.9417419.323658 3.0282001-2.2075539 3.0282001-2.2075539l1.4793911-1.5141001s1.5719471-.6588163-.5316238-2.8664408c-.3467274-.3698654-.6356773-.6818848-.8899918-.9361982.6703854-.2542429 1.0864582.2658834 2.6121273 1.8723965 2.1035709 2.2076234.5316963 2.8664407.5316963 2.8664407z" fill="#7979f7"/></g></g><g><g><path d="m38.4527855 29.9075642c-2.9126663 3.1207104-7.0620193 5.074007-11.6736469 5.074007-.9130592 0-1.814621-.0809135-2.6930428-.2311745.3120899-1.2944946.3582973-3.4905472-1.1788712-6.2529354-2.5427818-4.5538692 4.2995548-6.0101929 4.9468021-4.1724339.394062 1.1392403 2.5114841 2.5183144 4.064188 3.4020805.9175282.5222378 1.9464207.8137932 3.0021152.8235931 1.1792068.0109463 2.8312531.2385445 3.5342674 1.3361015-.0006483.0074522-.0011595.0133097-.0018118.0207617z" fill="#f9b938"/></g></g><g><g><path d="m42.7870598 18.9736519c0 2.138279-.4161415 4.1724339-1.1789436 6.0333309-.3930016-.3698654-2.2191238-2.3231773-4.230278-1.6990681-2.2075539.6935253-2.3693848-1.3638401-3.4558411-3.582962-1.0980301-2.2191944 1.2714233-5.0624256 1.2714233-5.0624256s1.8297653-3.4146214-.6935234-3.2940826c-1.9270477.0920563-3.0050602-.9592657-3.0050602-.9592657-4.1146584-2.4502978-2.8201637-6.5534573-2.5427818-7.2931175 7.8132419 1.0633191 13.8350048 7.7553968 13.8350048 15.8575906z" fill="#00d67f"/></g></g><g><g><path d="m38.4527969 29.8844395v.023138c-2.9126472 3.1206856-7.0620136 5.0739937-11.6736584 5.0739937-.9130592 0-1.814621-.0809135-2.6930428-.2311745.1271915-.5201225.208107-1.2020798.161829-1.999588h.3005219c4.1493645 0 7.9287949-1.5834446 10.7720947-4.1840019 1.1210976.0578461 2.5080758.335228 3.1322556 1.3176327z" fill="#ecb021"/></g></g><g><g><path d="m42.7870598 18.9736519c0 2.138279-.4161415 4.1724339-1.1789436 6.0333309-.2658119-.2543144-1.2251472-1.2829952-2.4618645-1.67593.0809135-.184967.1502571-.3698654.2311745-.5548325.7627983-1.8608265 1.1788712-3.895052 1.1788712-6.0332603 0-3.8372765-1.352272-7.362463-3.617672-10.1248512.0347099.011569.0578461.034708.0809135.0693455.1965408.15026.3814354.3236585.5664063.4854174.0114975.0115695.0346375.034708.0462036.0462775.1964684.1733284.3814354.3582964.5663338.5431938.8090782.8206463 1.5256691 1.7337055 2.1497765 2.7161808.1502609.2426729.3005219.4969864.4392128.7512293.01157.023139.02314.034708.0347061.057847.127121.2311039.2542458.4738483.3698654.7165928.0693474.1386909.1271248.2658119.1848984.3929338.0577774.13869.127121.2773809.1734009.4045734.231102.5316238.416069 1.0864582.5893974 1.641221.0462799.1964664.1040535.3814344.1502609.5779018.1271935.4969873.2311745.9939737.3120918 1.5025301.0231361.1386909.0462036.2658119.0577736.4045029.0809173.6703859.1271934 1.3523412.1271934 2.045796z" fill="#00c179"/></g></g><g opacity=".3"><g><g><g><path d="m18.670084 47.2247238h.3171158c.3634911 0 .6572189.2946472.6572189.6581383 0 .3634872-.2937279.6581345-.6572189.6581345h-.3171158c-.3634892 0-.6572189-.2946472-.6572189-.6581345 0-.3634911.2937297-.6581383.6572189-.6581383z" fill="#fff"/></g></g></g><g><g><g><path d="m20.7129364 47.2247238h5.4089851c.3634911 0 .6572189.2946472.6572189.6581383 0 .3634872-.2937279.6581345-.6572189.6581345h-5.4089851c-.3634911 0-.6572189-.2946472-.6572189-.6581345 0-.3634911.2937278-.6581383.6572189-.6581383z" fill="#fff"/></g></g></g></g><g><g><g><path d="m12.4834843 9.9629459c-1.2879601 0-2.3337679-1.0458088-2.3337679-2.3337684 0-1.2879934 1.0458078-2.3337679 2.3337679-2.3337679 1.2935028 0 2.3392773 1.0457745 2.3392773 2.3337679-.0000001 1.2879596-1.0457745 2.3337684-2.3392773 2.3337684z" fill="#e4e3ff"/></g></g><g><g><path d="m14.4776421 6.4189005c-.349453-.2150307-.7615776-.3404293-1.2095766-.3404293-1.2902412 0-2.3386002 1.0483041-2.3386002 2.3295765 0 .447999.125453.8690929.3584213 1.2275143-.6809673-.412179-1.1379356-1.1558189-1.1379356-2.0070295 0-1.2902412 1.048358-2.3296309 2.3296309-2.3296309.8512096 0 1.5948495.4479994 1.9980602 1.1199989z" fill="#d0d0f7"/></g></g><g><g><path d="m12.4891901 2.6641266c-3.0073051 0-5.4485488 2.4353416-5.4485488 5.4426832 0 2.5083828 3.7906508 7.6546583 5.0484128 9.2931843.2017765.2628613.598381.2627316.8000183-.0002346 1.2565813-1.6387835 5.0427647-6.7846861 5.0427647-9.2929497 0-3.0073416-2.4353419-5.4426832-5.442647-5.4426832zm-.0057058 7.2988193c-1.2879601 0-2.3337679-1.0458088-2.3337679-2.3337684 0-1.2879934 1.0458078-2.3337679 2.3337679-2.3337679 1.2935028 0 2.3392773 1.0457745 2.3392773 2.3337679-.0000001 1.2879596-1.0457745 2.3337684-2.3392773 2.3337684z" fill="#fc6559"/></g></g><g opacity=".3"><g><g><path d="m8.5826082 7.4878216c-.0804996 0-.1627502-.0144377-.2423744-.0450625-.3460627-.133875-.5184374-.522812-.3845625-.8693119.6234369-1.613061 1.9998112-2.8118098 3.6819963-3.205997.3613749-.0853124.7227497.1391249.8076248.5004995s-.1395626.7231867-.5004997.8076246c-1.2494993.2931247-2.2719354 1.1834364-2.7352476 2.3826227-.1032495.2664371-.3574371.4296246-.6269369.4296246z" fill="#fff"/></g></g></g><g><g><path d="m15.5080633 3.5785985c.582366.8601789.9138823 1.8995137.9138823 3.0195131 0 2.5087867-3.7810907 7.6518683-5.0444803 9.2915077-.071641.0986013-.170187.161273-.2687893.1971483.3942423.5375786.734726.9945469.9766636 1.3170929.2060623.2598743.6003046.2598743.8063669 0 1.2544203-1.6396399 5.0444794-6.7916346 5.0444794-9.3004761-.0000001-1.8905462-.96764-3.5481228-2.4281226-4.5247859z" fill="#f05543"/></g></g></g><g><g><path d="m34.4358177 46.0881729v.2276649h-15.3152714v-.2276649c0-2.2314186 1.8143806-4.0345154 4.0457268-4.0345154h7.2238159c2.2426281 0 4.0457287 1.8030968 4.0457287 4.0345154z" fill="#f4b37d"/></g></g><g><g><path d="m34.438179 46.0825882v.2305107h-15.3163166v-.2305107c0-.3111916.0344677-.6108475.1036835-.8989639h11.99403c1.2483959 0 2.1102123-1.3936081 1.4223576-2.4354095-.0043411-.0065765-.0087013-.013031-.0130806-.019371 1.0949363.7145995 1.8093261 1.9592246 1.8093261 3.3537444z" fill="#f2a764"/></g></g></g></svg>