<svg height="512" viewBox="0 0 512 512" width="512" xmlns="http://www.w3.org/2000/svg"><g id="flat"><path d="m480 104v320l-104 48-112-48-39.54 14.12-16.46 5.88-1.26.45-54.74 19.55-104-40v-320l68.12 31.44 35.88 16.56 2.32-1 109.68-47 43.08 18.46 68.92 29.54 48.95-22.59z" fill="#6aa0b0"/><path d="m236.75 269.27c-.02.33-.05.65-.08.98a64.963 64.963 0 0 1 -18.81 39.89l-25.74 25.74a56.726 56.726 0 0 0 0 80.24l23.88 23.88-64 32-104-48v-320l68.12 31.44 35.88 16.56 65.86 65.86a64.963 64.963 0 0 1 18.81 39.89c.03.33.06.65.08.98a63.954 63.954 0 0 1 0 10.54z" fill="#9fd1be"/><path d="m236.75 269.27c-.02.33-.05.65-.08.98a72.89 72.89 0 0 1 -21.15 45.54l-25.75 25.75a48.771 48.771 0 0 0 -.3 68.62l34.99 27.96 4.54 3.63a8 8 0 0 1 -10 12.5l-12.12-9.69-.14-.11-27.62-22.08q-.345-.285-.66-.6a64.6 64.6 0 0 1 -1.19-90.31c.39-.42.78-.83 1.19-1.23l25.74-25.75a57.3 57.3 0 0 0 0-80.96l-88.08-88.08 35.88 16.56 2.32-1 61.2 61.21a72.89 72.89 0 0 1 21.15 45.54c.03.33.06.65.08.98a74.155 74.155 0 0 1 0 10.54z" fill="#75998b"/><path d="m290.706 387.3a29.651 29.651 0 0 1 -27.115-41.324l1.965-4.585a13.639 13.639 0 0 0 -17.1-18.227l-124.2 44.088a35.116 35.116 0 0 1 -39.386-7.072 35.039 35.039 0 0 1 9.107-56.115l12-6a16.639 16.639 0 0 0 2.95-27.875l-.413-.329a33.05 33.05 0 0 1 -12.514-25.908v-19.953a8 8 0 0 1 16 0v19.953a17.125 17.125 0 0 0 6.512 13.412l.412.329a32.64 32.64 0 0 1 -5.786 54.681l-12.006 6a19.039 19.039 0 0 0 -4.948 30.492 19.08 19.08 0 0 0 21.612 3.743 7.757 7.757 0 0 1 .749-.309l124.555-44.213a29.64 29.64 0 0 1 37.163 39.612l-1.965 4.585a13.639 13.639 0 0 0 14.294 18.9l85.559-11.114a8.075 8.075 0 0 1 1.031-.066 32 32 0 0 0 .028-63.995l-11.21-.01a7.994 7.994 0 0 1 -3.574-.845 43.777 43.777 0 0 1 0-78.31 8 8 0 1 1 7.156 14.31 27.781 27.781 0 0 0 -1.573 48.845h9.208a48 48 0 0 1 .5 95.992l-85.07 11.049a30.442 30.442 0 0 1 -3.941.259z" fill="#660014"/><circle cx="104" cy="200" fill="#004da5" r="24"/><path d="m363.665 221.484-59.665-104.413a64 64 0 0 1 64-64 64 64 0 0 1 64 64l-59.665 104.413a4.992 4.992 0 0 1 -8.67 0z" fill="#bf0026"/><circle cx="368" cy="112" fill="#660014" r="32"/></g></svg>