<svg height="512" viewBox="0 0 52 58" width="512" xmlns="http://www.w3.org/2000/svg"><g id="001---Global-Location" fill="none" transform="translate(-1)"><path id="Path" d="m38.54 8.7c10.8217789 5.3601036 16.5281628 17.4660245 13.7756634 29.2246535-2.7524993 11.758629-13.2391735 20.0740246-25.3156634 20.0740246s-22.56316409-8.3153956-25.31566343-20.0740246 2.95388454-23.8645499 13.77566343-29.2246535z" fill="#2783ec"/><path id="Path" d="m50.9 21.76-.53 1.32c-.2258947.557701-.7682899.9219372-1.37.92h-2c-1.1045695 0-2 .8954305-2 2s.8954305 2 2 2h1c.4679444-.0004742.90804.2223216 1.1846798.5997373s.3566289.864164.2153202 1.3102627l-3.12 9.99c-.8208801 2.8031077-2.2866657 5.3750819-4.28 7.51-.4532177.4540094-1.096713.6630604-1.7302244.5620945-.6335115-.1009659-1.1801421-.4996932-1.4697756-1.0720945-1.1729978-2.4478539-1.7877951-5.1256375-1.8-7.84v-.06c.0013291-1.0612728-.4196715-2.0794609-1.1701053-2.8298947s-1.7686219-1.1714344-2.8298947-1.1701053c-.07 0-5.94 0-6-.01l7-13.99h6c1.1045695 0 2-.8954305 2-2s-.8954305-2-2-2h-1.93v-8.3h.47c5.5363062 2.7526593 9.9161919 7.3805967 12.36 13.06z" fill="#90cf4a"/><path id="Path" d="m29.9 32.5c1.85.68 3.1 1.99 3.1 3.5 0 2.21-2.69 4-6 4s-6-1.79-6-4c0-1.51 1.25-2.82 3.1-3.5z" fill="#0c70dc"/><path id="Path" d="m39 12.236c0 6.863-8.495 19.5-11.19 23.338-.1833888.2667132-.4863221.4260539-.81.4260539s-.6266112-.1593407-.81-.4260539c-2.69-3.837-11.19-16.474-11.19-23.338 0-6.627417 5.372583-12 12-12s12 5.372583 12 12z" fill="#d92936"/><circle id="Oval" cx="27" cy="12" fill="#f0f2f5" r="8"/><path id="Path" d="m21 45.6v3.6c.0007781 1.1257191-.5623994 2.1769838-1.5 2.8s-1.5007781 1.6742809-1.5 2.8v1.6c-6.4677338-2.3949285-11.7217718-7.2569815-14.61-13.52l1.62-3.65c.50321057-1.1307189 1.53088778-1.9411783 2.74775469-2.1669681 1.21686691-.2257897 2.46688731.1620427 3.34224531 1.0369681l.27.27c.4114282.4149539.9151257.7267667 1.47.91l4.74 1.58c2.0409682.6797777 3.4183666 2.5888035 3.42 4.74z" fill="#90cf4a"/><path id="Path" d="m12 17.19c-.002088.5243283-.1898617 1.030963-.53 1.43l-4.77 5.56c-.45163607.5300662-.69978743 1.2036199-.7 1.9-.0016536 1.611986-1.30801397 2.9183464-2.92 2.92l-1.91-.0000057c.59302061-5.1833819 2.74440332-10.0649634 6.17-13.9999943h2.47c.5812313-.0013316 1.1390404.2289723 1.5500341.6399659.4109936.4109937.6412975.9688028.6399659 1.5500341z" fill="#90cf4a"/><path id="Path" d="m23 13c-.5522847 0-1-.4477153-1-1 .0033061-2.76005315 2.2399468-4.99669388 5-5 .5522847 0 1 .44771525 1 1s-.4477153 1-1 1c-1.6568542 0-3 1.3431458-3 3 0 .5522847-.4477153 1-1 1z" fill="#fff"/><path id="Path" d="m32.81 35c-.69 0-3.11 0-4.6-.01.47-.67 1.05-1.52 1.69-2.49 1.2826236.3793142 2.3417195 1.2891904 2.91 2.5z" fill="#7dbd29"/></g></svg>