<svg height="512" viewBox="0 0 48 58" width="512" xmlns="http://www.w3.org/2000/svg"><g id="Page-1" fill="none" fill-rule="evenodd"><g id="005---Location"><path id="Path" d="m34.25 34h9.75c2.209139 0 4 1.790861 4 4v16c0 2.209139-1.790861 4-4 4h-40c-2.209139 0-4-1.790861-4-4v-16c0-2.209139 1.790861-4 4-4z" fill="#4fba6f"/><path id="Path" d="m40.993 17.531c-.327 12.283-11.893 22.462-15.752 25.525-.7245195.5779753-1.7524805.5779753-2.477 0-3.912-3.099-15.764-13.532-15.764-26.056.01632592-6.1259769 3.3273159-11.7693982 8.666863-14.77224619 5.3395472-3.00284799 11.8817498-2.90065314 17.1249004.26750572 5.2431507 3.16815887 8.376258 8.91224257 8.2012366 15.03574047z" fill="#e64c3c"/><circle id="Oval" cx="24" cy="17" fill="#ecf0f1" r="8"/><path id="Path" d="m28.46 50.99 12.54 7.01h-9l-32-17.92v-2.08c-.00063972-.8827177.29123784-1.7407674.83-2.44l23.46 13.1 17.71-14.66h2c1.2289108.0006475 2.3897417.5644797 3.15 1.53z" fill="#f3d55b"/></g></g></svg>