<svg height="512pt" viewBox="-9 0 512 512.02074" width="512pt" xmlns="http://www.w3.org/2000/svg"><path d="m119.585938 425.1875c-66.371094.925781-119.90625 21.101562-119.5742192 45.070312.3320312 23.96875 54.4101562 42.652344 120.7812502 41.730469 66.375-.921875 119.910156-21.101562 119.578125-45.070312-.335938-23.96875-54.410156-42.652344-120.785156-41.730469zm0 0" fill="#96ceb4"/><path d="m119.707031 434.746094c-36.875.515625-66.621093 11.398437-66.441406 24.304687.179687 12.902344 30.21875 22.945313 67.09375 22.429688s66.621094-11.394531 66.441406-24.300781c-.179687-12.90625-30.21875-22.949219-67.09375-22.433594zm0 0" fill="#71a58a"/><path d="m271.933594 224.386719c-98.175782 1.363281-177.457032 24.515625-177.082032 51.710937.378907 27.195313 80.273438 48.136719 178.453126 46.769532 98.175781-1.363282 177.460937-24.515626 177.082031-51.710938-.378907-27.195312-80.273438-48.132812-178.453125-46.769531zm0 0" fill="#96ceb4"/><path d="m270.429688 236.09375c-49.320313.6875-89.1875 9.460938-89.046876 19.601562.140626 10.140626 40.238282 17.804688 89.554688 17.117188 49.320312-.683594 89.1875-9.460938 89.046875-19.601562-.140625-10.136719-40.234375-17.800782-89.554687-17.117188zm0 0" fill="#71a58a"/><path d="m267.121094.0078125c-52.820313.7421875-95.042969 44.3789065-94.300782 97.4804685.738282 53.101563 67.464844 150.351563 97.757813 149.925781 28.207031-.394531 94.273437-99.496093 93.535156-152.59375-.746093-53.097656-44.167969-95.546874-96.992187-94.8124995zm0 0" fill="#ff6f69"/><path d="m267.804688 47.71875c-27.480469.382812-49.449219 23.085938-49.0625 50.710938.382812 27.625 22.972656 49.710937 50.453124 49.328124 27.476563-.378906 49.445313-23.085937 49.058594-50.710937-.382812-27.625-22.972656-49.707031-50.449218-49.328125zm0 0" fill="#ffeead"/><path d="m177.703125 302.804688c1.371094-.015626 2.734375-.511719 3.835937-1.496094.835938-.746094 1.710938-1.472656 2.589844-2.171875 7.484375-5.96875 16.097656-11.339844 25.609375-15.941407 2.914063-1.417968 4.136719-4.929687 2.722657-7.84375-1.414063-2.917968-4.910157-4.140624-7.847657-2.726562-10.285156 4.988281-19.644531 10.820312-27.8125 17.335938-1.050781.84375-2.09375 1.707031-3.089843 2.601562-2.417969 2.164062-2.628907 5.875-.460938 8.292969 1.175781 1.3125 2.816406 1.972656 4.453125 1.949219zm62.613281-31.058594c.457032-.003906.921875-.0625 1.382813-.183594 10.992187-2.828125 22.324219-4.664062 33.695312-5.449219 3.230469-.230469 5.675781-3.035156 5.449219-6.265625-.226562-3.238281-2.871094-5.667968-6.265625-5.453125-12.074219.839844-24.121094 2.785157-35.800781 5.789063-3.140625.808594-5.03125 4.007812-4.222656 7.152344.679687 2.679687 3.117187 4.449218 5.761718 4.410156zm-124.347656 166.78125c-8.527344 2.101562-17.046875 4.464844-25.316406 7.035156-3.097656.960938-4.828125 4.246094-3.871094 7.34375.789062 2.546875 3.152344 4.171875 5.691406 4.136719.542969-.007813 1.101563-.097657 1.660156-.265625 8.050782-2.5 16.339844-4.800782 24.640626-6.847656 3.152343-.777344 5.074218-3.960938 4.300781-7.105469-.773438-3.152344-3.949219-5.054688-7.105469-4.296875zm348.175781-78.277344c-2.980469-1.292969-6.429687.078125-7.726562 3.042969-1.292969 2.972656.066406 6.433593 3.046875 7.730469 13.632812 5.925781 21.035156 11.957031 22.003906 17.933593.46875 2.910157 3.003906 4.972657 5.871094 4.933594.285156-.007813.574218-.027344.863281-.078125 3.199219-.515625 5.378906-3.535156 4.855469-6.734375-2.222656-13.75-17.570313-21.898437-28.914063-26.828125zm-216.195312-26.371094c-.25 3.230469 2.179687 6.050782 5.410156 6.300782 11.726563.886718 23.5 1.554687 35.289063 2.222656.140624.011718.28125.011718.417968.011718 3.058594-.046874 5.601563-2.445312 5.773438-5.542968.183594-3.242188-2.292969-6.015625-5.527344-6.199219-11.707031-.660156-23.410156-1.328125-35.058594-2.207031-3.335937-.214844-6.058594 2.175781-6.304687 5.414062zm75.777343 10.679688c2.589844.191406 5.171876.390625 7.761719.601562 9.632813.789063 18.605469 1.558594 27.167969 2.429688.234375.027344.460938.035156.683594.03125 2.941406-.039063 5.453125-2.285156 5.75-5.273438.332031-3.230468-2.015625-6.109375-5.242188-6.441406-8.632812-.878906-17.683594-1.65625-27.402344-2.453125-2.621093-.210937-5.238281-.417969-7.863281-.605469-3.136719-.269531-6.054687 2.195313-6.289062 5.429688-.234375 3.230468 2.195312 6.046875 5.433593 6.28125zm-137.574218 81.898437c-12.152344 1.296875-24.011719 2.921875-35.273438 4.835938-3.191406.542969-5.347656 3.578125-4.804687 6.773437.496093 2.894532 3.023437 4.929688 5.871093 4.890625.296876-.003906.597657-.03125.910157-.082031 11.011719-1.875 22.636719-3.46875 34.539062-4.734375 3.226563-.34375 5.566407-3.238281 5.222657-6.464844-.355469-3.226562-3.203126-5.605469-6.464844-5.21875zm211.835937-4.308593c-11.820312.140624-23.535156.160156-35.148437.117187-3.121094-.019531-5.882813 2.609375-5.894532 5.855469-.015624 3.246094 2.613282 5.882812 5.851563 5.894531 11.6875.035156 23.457031.023437 35.335937-.125h.011719c3.242188-.042969 5.832031-2.703125 5.792969-5.941406-.046875-3.242188-2.703125-5.84375-5.949219-5.800781zm36.148438-66.335938c.886719-3.121094-.929688-6.371094-4.050781-7.25-11.53125-3.261719-22.953126-5.859375-34.921876-7.945312-3.171874-.550782-6.238281 1.585937-6.792968 4.777343-.554688 3.199219 1.582031 6.238281 4.777344 6.796875 11.570312 2.015625 22.609374 4.527344 33.742187 7.679688.558594.160156 1.128906.230468 1.679687.222656 2.535157-.035156 4.84375-1.71875 5.566407-4.28125zm29.550781 51.722656c-1.96875.917969-3.964844 1.800782-5.941406 2.679688-2.300782 1.023437-4.574219 2.03125-6.726563 3.054687-4.738281 2.238281-11.320312 4.226563-19.03125 5.734375-3.1875.617188-5.257812 3.707032-4.640625 6.890625.554688 2.832031 3.050782 4.785157 5.839844 4.746094.34375-.003906.699219-.039063 1.046875-.105469 8.789063-1.71875 16.121094-3.949218 21.800781-6.644531 2.074219-.976563 4.257813-1.949219 6.472656-2.933594 2.035157-.90625 4.101563-1.824219 6.128907-2.769531 2.941406-1.367188 4.214843-4.859375 2.84375-7.804688-1.359375-2.945312-4.855469-4.226562-7.792969-2.847656zm-206.664062 14.703125c-.015626 0-.027344 0-.042969 0-12.683594.28125-24.273438.722657-35.421875 1.359375-3.238282.183594-5.714844 2.960938-5.53125 6.199219.183594 3.152344 2.816406 5.582031 5.941406 5.539063.082031 0 .171875-.007813.257812-.011719 11.007813-.625 22.460938-1.0625 35.007813-1.339844 3.246094-.070313 5.816406-2.753906 5.742187-6-.070312-3.222656-2.730468-5.789063-5.953124-5.746094zm-38.179688-85.601562c2.867188-.039063 5.339844-2.171875 5.734375-5.097657.425781-3.214843-1.832031-6.167968-5.050781-6.59375-5.21875-.691406-10.410156-1.480468-15.582032-2.371093-6.367187-1.105469-12.457031-2.824219-17.164062-4.847657-3-1.292968-6.433594.097657-7.71875 3.070313-1.28125 2.980469.09375 6.433594 3.070312 7.714844 7.078126 3.050781 14.683594 4.75 19.804688 5.636719 5.320312.921874 10.671875 1.726562 16.035156 2.445312.296875.03125.589844.042969.871094.042969zm108.78125 85.40625c-11.847656-.085938-23.597656-.164063-35.285156-.160157-.027344 0-.058594 0-.082032 0-3.203124.046876-5.792968 2.660157-5.792968 5.878907 0 3.246093 2.636718 5.875 5.878906 5.871093 11.652344-.003906 23.382812.070313 35.195312.164063h.121094c3.191406-.042969 5.773438-2.625 5.792969-5.828125.027344-3.253906-2.585937-5.898438-5.828125-5.925781zm0 0" fill="#71a58a"/></svg>