<?xml version="1.0" encoding="UTF-8"?>
<svg xmlns="http://www.w3.org/2000/svg" viewBox="0 0 64 64" width="512" height="512"><g id="Location_Color_Line_Create_Outline" data-name="Location_Color Line Create Outline"><g id="_01_Location" data-name="01_Location"><circle cx="30" cy="34" r="29" style="fill:#39b54a"/><path d="M2.431,43A29.008,29.008,0,0,0,37,62.144V43Z" style="fill:#4285f4"/><path d="M39,56A28.991,28.991,0,0,1,17.06,8.048a29,29,0,1,0,34.88,44.9A28.861,28.861,0,0,1,39,56Z" style="fill:#2da538"/><path d="M32.163,62.911c.434-.033.867-.069,1.3-.121.146-.017.29-.041.435-.06.426-.058.85-.121,1.27-.2.139-.026.276-.055.414-.082.418-.082.834-.17,1.245-.269L37,62.138V55.924A28.974,28.974,0,0,1,14.815,43H2.431a28.8,28.8,0,0,0,1.726,4.153l.04.078a28.92,28.92,0,0,0,2.31,3.762l.032.046q.642.882,1.346,1.711c.023.028.047.054.071.082a29.165,29.165,0,0,0,3.016,3.042l.174.151c.534.458,1.083.9,1.649,1.318l.051.036c.55.405,1.118.788,1.7,1.154l.189.121c.577.358,1.17.7,1.773,1.014.094.05.19.1.284.145.613.315,1.236.614,1.873.886h0c.63.268,1.275.507,1.927.731.125.043.25.086.377.127.64.21,1.289.4,1.948.567.093.023.187.042.281.065q.915.219,1.851.38c.112.02.222.042.334.06.671.107,1.351.189,2.036.25.147.013.295.022.443.033C28.569,62.965,29.28,63,30,63c.582,0,1.159-.019,1.732-.054C31.876,62.938,32.019,62.921,32.163,62.911Z" style="fill:#2b69b2"/><path d="M30,64a29.954,29.954,0,0,1-19.967-7.609A1,1,0,0,1,11.365,54.9,28,28,0,0,0,58,34c0-.886-.042-1.776-.124-2.646a1,1,0,0,1,1.992-.187C59.956,32.1,60,33.052,60,34A30.034,30.034,0,0,1,30,64Z" style="fill:#252526"/><path d="M40.532,6.981A10.951,10.951,0,0,0,38,14c0,2.56,1.954,6.87,4.214,11C45.318,30.669,49,36,49,36a135.985,135.985,0,0,0,7.839-12.989A29.085,29.085,0,0,0,40.532,6.981Z" style="fill:#2da538"/><path d="M7.019,52.689a1,1,0,0,1-.793-.389A29.718,29.718,0,0,1,0,34,30,30,0,0,1,55.2,17.721a1,1,0,0,1-1.679,1.087A28,28,0,0,0,2,34,27.735,27.735,0,0,0,7.81,51.079a1,1,0,0,1-.182,1.4A.987.987,0,0,1,7.019,52.689Z" style="fill:#252526"/><path d="M63,12c0,6.075-11,22-11,22s-3.682-5.33-6.786-11C42.954,18.87,41,14.56,41,12a11,11,0,0,1,22,0Z" style="fill:#db4437"/><path d="M48.214,24C45.954,19.87,44,15.56,44,13A10.955,10.955,0,0,1,56.939,2.181,10.984,10.984,0,0,0,41,12c0,2.56,1.954,6.87,4.214,11C48.318,28.669,52,34,52,34s.455-.66,1.173-1.75C51.824,30.166,49.932,27.137,48.214,24Z" style="fill:#c62e26"/><path d="M52,35a1,1,0,0,1-.823-.432c-.037-.053-3.747-5.438-6.84-11.088C41.459,18.223,40,14.36,40,12a12,12,0,0,1,24,0c0,6.314-10.721,21.908-11.177,22.568A1,1,0,0,1,52,35ZM52,2A10.011,10.011,0,0,0,42,12c0,1.389.71,4.342,4.091,10.52,2.173,3.969,4.656,7.805,5.911,9.694C55.41,27.11,62,16.341,62,12A10.011,10.011,0,0,0,52,2Z" style="fill:#252526"/><circle cx="52" cy="12" r="5" style="fill:#f4b400"/><path d="M49,13a4.958,4.958,0,0,1,6.149-4.855,4.986,4.986,0,1,0-4.3,8.71A4.969,4.969,0,0,1,49,13Z" style="fill:#ea990a"/><path d="M52,18a6,6,0,1,1,6-6A6.006,6.006,0,0,1,52,18ZM52,8a4,4,0,1,0,4,4A4,4,0,0,0,52,8Z" style="fill:#252526"/><path d="M58.97,35a28.2,28.2,0,0,1-1.4,8H45V58.83a28.96,28.96,0,0,1-8,3.32V43H2.43a28.2,28.2,0,0,1-1.4-8H12V11.27a28.5,28.5,0,0,1,8-4.5v7.57l9.32-9.32C29.54,5,29.77,5,30,5a28.659,28.659,0,0,1,9.17,1.49L20,25.66V35Z" style="fill:#f4b400"/><path d="M45,55.363A28.929,28.929,0,0,1,39,56c-.673,0-1.338-.031-2-.076v6.214l.354-.09q.689-.18,1.361-.394c.185-.058.371-.111.554-.173.571-.192,1.134-.4,1.689-.629.232-.095.459-.2.688-.3q.507-.222,1-.463c.275-.133.549-.268.819-.41s.528-.29.789-.438.5-.277.742-.424Z" style="fill:#ea990a"/><path d="M14.815,43a28.857,28.857,0,0,1-3.688-8H1.03a28.048,28.048,0,0,0,.394,3.918c.021.125.044.251.067.376.107.583.228,1.161.371,1.732,0,.021.009.042.014.063q.241.957.547,1.888L2.431,43Z" style="fill:#ea990a"/><path d="M37,63.15a1,1,0,0,1-1-1V44H2.43a1,1,0,0,1-.95-.688A29.255,29.255,0,0,1,.031,35.028,1,1,0,0,1,1.03,34H11V11.27a1,1,0,0,1,.375-.781,29.5,29.5,0,0,1,8.281-4.658A1,1,0,0,1,21,6.77v5.156l7.613-7.613a.994.994,0,0,1,.616-.289C29.479,4,29.739,4,30,4a29.674,29.674,0,0,1,9.489,1.542A1,1,0,0,1,39.877,7.2L21,26.074V34H47.235a1,1,0,0,1,0,2H20a1,1,0,0,1-1-1V25.66a1,1,0,0,1,.293-.707L37.284,6.962A28.055,28.055,0,0,0,29.915,6h-.162l-9.046,9.047A1,1,0,0,1,19,14.34v-6.1a27.448,27.448,0,0,0-6,3.515V35a1,1,0,0,1-1,1H2.079a27.19,27.19,0,0,0,1.086,6H37a1,1,0,0,1,1,1V60.841a27.912,27.912,0,0,0,6-2.582V43a1,1,0,0,1,1-1H56.835a27.19,27.19,0,0,0,1.086-6H55.409a1,1,0,1,1,0-2H58.97a1,1,0,0,1,1,1.028,29.255,29.255,0,0,1-1.449,8.284,1,1,0,0,1-.95.688H46V58.83a1,1,0,0,1-.483.856,29.957,29.957,0,0,1-8.276,3.435A1.038,1.038,0,0,1,37,63.15Z" style="fill:#252526"/><path d="M37,63.144a1,1,0,0,1-1-1V44H2.431a1,1,0,1,1,0-2H37a1,1,0,0,1,1,1V62.144A1,1,0,0,1,37,63.144Z" style="fill:#252526"/><path d="M29.32,5.02C29.54,5,29.77,5,30,5A28.943,28.943,0,0,0,20,6.771V14.34Z" style="fill:#4285f4"/><path d="M20,15.34a1,1,0,0,1-1-1V6.771a1,1,0,0,1,.655-.938A29.884,29.884,0,0,1,29.779,4c.074,0,.151,0,.221,0a1,1,0,0,1,0,2h-.247l-9.046,9.046A1,1,0,0,1,20,15.34Zm1-7.862v4.448l5.738-5.738A27.853,27.853,0,0,0,21,7.478Z" style="fill:#252526"/></g></g></svg>
