<svg id="Layer_1" enable-background="new 0 0 512 512" height="512" viewBox="0 0 512 512" width="512" xmlns="http://www.w3.org/2000/svg"><path d="m454.09 502.24-38.43-170.67c-.82-3.65-4.06-6.24-7.8-6.24h-65.78c41.07-53.41 77.78-111.29 77.78-161.65 0-90.25-73.5-163.68-163.85-163.68-90.36 0-163.87 73.43-163.87 163.68 0 50.32 36.73 108.22 77.8 161.65h-65.8c-3.74 0-6.98 2.59-7.8 6.24l-38.43 170.67c-.53 2.37.04 4.86 1.56 6.75 1.52 1.9 3.82 3 6.25 3h380.58c2.43 0 4.73-1.1 6.25-3 1.5-1.89 2.08-4.38 1.54-6.75zm-52.63-160.91 7.61 33.78h-106.92c8.96-10.89 18.21-22.2 27.41-33.78zm-145.45-325.33c81.52 0 147.85 66.25 147.85 147.68 0 62.61-68.4 145.76-118.34 206.46-10.62 12.91-20.75 25.22-29.52 36.44-8.76-11.21-18.87-23.5-29.48-36.4-49.96-60.75-118.38-143.94-118.38-206.51 0-81.42 66.34-147.67 147.87-147.67zm-145.47 325.33h46.51l-6.97 33.78h-47.14zm-21.83 96.94h48.35l-11.91 57.73h-49.44zm52.78 57.73 13.23-64.11c.49-2.36-.11-4.81-1.63-6.67s-3.8-2.95-6.2-2.95h-54.58l7.02-31.17h57.26c3.79 0 7.07-2.67 7.83-6.38l8.96-43.39h9.07c10.68 13.45 21.43 26.52 31.71 39.02 12.21 14.84 23.75 28.87 33.22 41.24 1.7 3.11 4.96 5.09 8.62 5.09 3.65 0 6.92-1.99 8.62-5.09 7.15-9.33 15.48-19.62 24.39-30.48h123.66l7.02 31.17h-133.45c-2.93 0-5.63 1.61-7.03 4.19s-1.27 5.72.33 8.18l39.94 61.35h-37.25l-72.05-110.77c-1.77-2.72-5.01-4.1-8.19-3.5-3.19.6-5.7 3.07-6.35 6.24l-22.29 108.03zm121.66 0h-73.46l17.7-85.73zm75.42 0-37.58-57.73h122.29l13 57.73zm38.26-332.32c0-66.54-54.2-120.68-120.82-120.68-66.64 0-120.85 54.13-120.85 120.68s54.21 120.68 120.85 120.68c66.62-.01 120.82-54.14 120.82-120.68zm-225.66 0c0-57.72 47.03-104.68 104.84-104.68 57.8 0 104.82 46.96 104.82 104.68s-47.02 104.68-104.82 104.68c-57.81-.01-104.84-46.96-104.84-104.68zm176.76 52.04v-55.52c7.52-4.82 12.52-13.24 12.52-22.8v-1.56c0-1.37-.35-2.71-1.02-3.91l-20.75-37.05c-1.41-2.53-4.08-4.09-6.98-4.09h-111.4c-2.9 0-5.57 1.56-6.98 4.09l-20.75 37.05c-.67 1.19-1.02 2.54-1.02 3.91v1.56c0 9.57 5 17.99 12.52 22.8v55.52c0 11.49 9.36 20.84 20.86 20.84h102.15c11.49 0 20.85-9.35 20.85-20.84zm-129.28-67.24c-3.72 0-7.01-1.83-9.03-4.64h18.06c-2.01 2.8-5.3 4.64-9.03 4.64zm49.36-20.64h-19.88l5.07-21.05h14.82v21.05zm16-21.05h14.79l5.07 21.05h-19.86zm-18.09 37.05c-2.02 2.8-5.31 4.64-9.04 4.64-3.71 0-7-1.83-9.01-4.64zm38.21 0c-2.02 2.8-5.3 4.64-9.01 4.64s-7-1.83-9.01-4.64zm29.22 4.64c-3.72 0-7.02-1.83-9.04-4.64h18.06c-2.01 2.81-5.31 4.64-9.02 4.64zm5.45-20.64h-18.47l-5.07-21.05h11.75zm-113.81-21.05h11.75l-5.07 21.05h-18.47zm-4.92 108.93v-51.28c6.89-.36 13.11-3.29 17.71-7.86 4.9 4.87 11.66 7.89 19.1 7.89 7.46 0 14.22-3.02 19.13-7.89 4.9 4.88 11.66 7.89 19.11 7.89s14.2-3.02 19.11-7.89c4.6 4.56 10.82 7.5 17.71 7.86v51.28c0 2.67-2.18 4.84-4.86 4.84h-27.48v-38.91c0-4.42-3.58-8-8-8h-31.2c-4.42 0-8 3.58-8 8v38.91h-27.48c-2.67 0-4.85-2.17-4.85-4.84zm63.53 4.84h-15.2v-30.91h15.19v30.91z"/><path d="m360.83 163.68c0-57.72-47.02-104.68-104.82-104.68-57.81 0-104.85 46.96-104.85 104.68s47.03 104.68 104.85 104.68c57.8-.01 104.82-46.96 104.82-104.68zm-176.76 52.04v-55.52c-7.52-4.82-12.52-13.24-12.52-22.8v-1.56c0-1.37.35-2.71 1.02-3.91l20.75-37.05c1.41-2.53 4.08-4.09 6.98-4.09h111.4c2.9 0 5.57 1.56 6.98 4.09l20.75 37.05c.67 1.19 1.02 2.54 1.02 3.91v1.56c0 9.57-5 17.99-12.52 22.8v55.52c0 11.49-9.36 20.84-20.86 20.84h-102.14c-11.5 0-20.86-9.35-20.86-20.84z" fill="#f4f8f8"/><path d="m189.69 496h73.46l-55.77-85.73z" fill="#ffc347"/><path d="m338.57 496h97.72l-13-57.73h-122.3z" fill="#b2caec"/><path d="m302.15 375.1h106.91l-7.61-33.78h-71.9c-9.19 11.59-18.44 22.89-27.4 33.78z" fill="#b2caec"/><path d="m236.88 148.48c3.72 0 7.02-1.83 9.04-4.64h-18.05c2.02 2.8 5.3 4.64 9.01 4.64z" fill="#fb4f3b"/><path d="m153.09 425.22c1.52 1.86 2.12 4.31 1.63 6.67l-13.23 64.11h31.86l22.3-108.02c.66-3.18 3.16-5.64 6.35-6.24 3.18-.6 6.42.78 8.19 3.5l72.05 110.76h37.25l-39.95-61.36c-1.6-2.46-1.73-5.6-.33-8.18s4.1-4.19 7.03-4.19h133.44l-7.02-31.17h-123.66c-8.9 10.86-17.24 21.15-24.39 30.48-1.7 3.11-4.96 5.09-8.62 5.09-3.65 0-6.92-1.98-8.62-5.09-9.47-12.36-21.01-26.4-33.22-41.24-10.28-12.5-21.03-25.57-31.71-39.02h-9.07l-8.96 43.39c-.77 3.72-4.04 6.38-7.83 6.38h-57.25l-7.02 31.17h54.57c2.41.01 4.69 1.09 6.21 2.96z" fill="#f4f8f8"/><path d="m137.07 438.27h-48.36l-13 57.73h49.44z" fill="#afe593"/><g fill="#fb4f3b"><path d="m256 406.58c8.78-11.22 18.9-23.53 29.52-36.44 49.94-60.71 118.34-143.85 118.34-206.46 0-81.43-66.32-147.68-147.85-147.68-81.54 0-147.87 66.25-147.87 147.68 0 62.56 68.42 145.76 118.38 206.51 10.61 12.89 20.72 25.18 29.48 36.39zm-120.83-242.9c0-66.54 54.21-120.68 120.84-120.68 66.62 0 120.82 54.13 120.82 120.68s-54.2 120.68-120.82 120.68c-66.63-.01-120.84-54.14-120.84-120.68z"/><path d="m216.74 106.79h-11.75l-11.79 21.05h18.47z"/><path d="m278.8 106.79h-14.79v21.05h19.86z"/><path d="m248.01 106.79h-14.81l-5.07 21.05h19.88z"/><path d="m275.12 148.48c3.71 0 7-1.83 9.01-4.64h-18.03c2.02 2.8 5.3 4.64 9.02 4.64z"/><path d="m318.8 127.84-11.79-21.05h-11.75l5.07 21.05z"/><path d="m313.35 148.48c3.72 0 7.01-1.83 9.03-4.64h-18.06c2.01 2.8 5.3 4.64 9.03 4.64z"/><path d="m207.69 143.84h-18.06c2.02 2.81 5.31 4.64 9.03 4.64s7.01-1.84 9.03-4.64z"/></g><path d="m248.4 189.65h15.19v30.91h-15.19z" fill="#40ade6"/><path d="m307.07 220.56c2.68 0 4.86-2.17 4.86-4.84v-51.28c-6.89-.36-13.11-3.29-17.71-7.86-4.9 4.88-11.66 7.89-19.11 7.89s-14.2-3.02-19.11-7.89c-4.91 4.88-11.67 7.89-19.13 7.89-7.45 0-14.2-3.02-19.1-7.89-4.6 4.56-10.82 7.5-17.71 7.86v51.28c0 2.67 2.18 4.84 4.86 4.84h27.48v-38.91c0-4.42 3.58-8 8-8h31.19c4.42 0 8 3.58 8 8v38.91z" fill="#ffc347"/><path d="m157.05 341.33h-46.51l-7.6 33.77h47.13z" fill="#afe593"/></svg>