<?xml version="1.0" encoding="iso-8859-1"?>
<!-- Generator: Adobe Illustrator 19.0.0, SVG Export Plug-In . SVG Version: 6.00 Build 0)  -->
<svg version="1.1" id="Capa_1" xmlns="http://www.w3.org/2000/svg" xmlns:xlink="http://www.w3.org/1999/xlink" x="0px" y="0px"
	 viewBox="0 0 512 512" style="enable-background:new 0 0 512 512;" xml:space="preserve">
<rect x="10" y="164.01" style="fill:#7D9BFF;" width="75.852" height="193.99"/>
<rect x="134.17" y="164.01" style="fill:#C9F3FF;" width="367.83" height="193.99"/>
<rect x="10" y="10" style="fill:#ADE5FF;" width="172.48" height="82.01"/>
<g>
	<rect x="10" y="429.98" style="fill:#7D9BFF;" width="224.33" height="72.04"/>
	<rect x="230.8" y="10" style="fill:#7D9BFF;" width="169.2" height="82.01"/>
</g>
<rect x="448" y="10" style="fill:#ADE5FF;" width="54" height="82.01"/>
<path style="fill:#FF5D5D;" d="M501.998,293.95c0-70.692-57.307-128-128-128c-70.692,0-128,57.308-128,128
	c0,30.953,10.987,59.339,29.273,81.472h-0.074L373.998,502l99.274-127.245h-0.009C491.223,352.719,501.998,324.594,501.998,293.95z
	 M373.998,367.992c-39.764,0-72-32.236-72-72c0-39.765,32.236-72,72-72c39.765,0,72,32.235,72,72S413.762,367.992,373.998,367.992z"
	/>
<path d="M373.998,155.95c-76.093,0-138,61.907-138,138c0,18.674,3.818,37.07,11.039,54.05h-102.87v-52.008c0-5.523-4.477-10-10-10
	s-10,4.477-10,10V358c0,5.523,4.477,10,10,10h123.389c2.831,4.456,5.919,8.763,9.267,12.887c0.153,0.235,0.317,0.464,0.492,0.688
	L353.507,492h-46.872c-5.523,0-10,4.477-10,10s4.477,10,10,10H441.68c5.523,0,10-4.477,10-10s-4.477-10-10-10h-47.197
	l86.673-111.093c0.036-0.045,0.07-0.091,0.105-0.137c19.823-24.465,30.737-55.283,30.737-86.82
	C511.998,217.856,450.091,155.95,373.998,155.95z M465.512,368.438c-0.124,0.152-0.243,0.308-0.357,0.465l-91.158,116.843
	l-90.219-115.582c-0.238-0.385-0.503-0.756-0.796-1.111c-17.4-21.061-26.983-47.733-26.983-75.103c0-65.065,52.935-118,118-118
	s118,52.935,118,118C491.998,321.028,482.592,347.482,465.512,368.438z"/>
<path d="M439.469,264.356c-5.257,1.691-8.147,7.325-6.456,12.583c7.166,22.268,1.351,46.368-15.175,62.894
	c-24.173,24.174-63.507,24.174-87.681,0c-11.71-11.71-18.16-27.28-18.16-43.84s6.449-32.13,18.16-43.841
	c15.801-15.802,39.007-21.885,60.56-15.875c5.318,1.484,10.835-1.626,12.318-6.946s-1.626-10.835-6.946-12.318
	c-28.495-7.946-59.178,0.101-80.074,20.998c-15.488,15.488-24.018,36.08-24.018,57.983s8.53,42.495,24.018,57.983
	c15.986,15.986,36.984,23.979,57.983,23.979s41.997-7.993,57.983-23.979c21.854-21.855,29.545-53.721,20.071-83.164
	C450.36,265.554,444.726,262.664,439.469,264.356z"/>
<path d="M417.928,252.242c1.953,1.953,4.512,2.929,7.071,2.929s5.119-0.976,7.071-2.929c3.905-3.905,3.905-10.237,0-14.143
	l-0.09-0.09c-3.905-3.905-10.237-3.905-14.143,0c-3.905,3.905-3.905,10.237,0,14.143L417.928,252.242z"/>
<path d="M234.333,420H10c-5.523,0-10,4.477-10,10s4.477,10,10,10h214.333v62c0,5.523,4.477,10,10,10s10-4.477,10-10v-72
	C244.333,424.477,239.856,420,234.333,420z"/>
<path d="M10,102.006h172.481c5.523,0,10-4.477,10-10V10c0-5.523-4.477-10-10-10s-10,4.477-10,10v72.006H10c-5.523,0-10,4.477-10,10
	S4.477,102.006,10,102.006z"/>
<path d="M10,348c-5.523,0-10,4.477-10,10s4.477,10,10,10h75.852c5.523,0,10-4.477,10-10V164.006c0-5.523-4.477-10-10-10H10
	c-5.523,0-10,4.477-10,10s4.477,10,10,10h65.852V348H10z"/>
<path d="M134.17,251c-2.64,0-5.21,1.07-7.07,2.93c-1.87,1.86-2.93,4.44-2.93,7.07c0,2.64,1.06,5.21,2.93,7.07
	c1.86,1.87,4.43,2.93,7.07,2.93c2.63,0,5.2-1.06,7.07-2.93c1.86-1.86,2.93-4.44,2.93-7.07s-1.07-5.21-2.93-7.07
	C139.38,252.07,136.8,251,134.17,251z"/>
<path d="M266,164.006c0-5.523-4.477-10-10-10H134.167c-5.523,0-10,4.477-10,10V219.5c0,5.523,4.477,10,10,10s10-4.477,10-10v-45.494
	H256C261.523,174.006,266,169.529,266,164.006z"/>
<path d="M230.797,102.006L400,101.994c5.523,0,10-4.478,10-10V10c0-5.523-4.477-10-10-10s-10,4.477-10,10v71.995l-149.204,0.011V10
	c0-5.523-4.477-10-10-10s-10,4.477-10,10v82.006c0,2.652,1.054,5.196,2.929,7.071S228.145,102.006,230.797,102.006z"/>
<path d="M448,102.006h54c5.523,0,10-4.477,10-10s-4.477-10-10-10h-44V10c0-5.523-4.477-10-10-10s-10,4.477-10,10v82.006
	C438,97.529,442.477,102.006,448,102.006z"/>
<path d="M502,154.006h-31.577c-5.523,0-10,4.477-10,10s4.477,10,10,10H502c5.523,0,10-4.477,10-10S507.523,154.006,502,154.006z"/>
<g>
</g>
<g>
</g>
<g>
</g>
<g>
</g>
<g>
</g>
<g>
</g>
<g>
</g>
<g>
</g>
<g>
</g>
<g>
</g>
<g>
</g>
<g>
</g>
<g>
</g>
<g>
</g>
<g>
</g>
</svg>
