<svg id="Capa_1" enable-background="new 0 0 512 512" height="512" viewBox="0 0 512 512" width="512" xmlns="http://www.w3.org/2000/svg"><g><g><g><path d="m328.152 34.178v400.893c0 16.594-12.685 30.049-28.331 30.049h-181.874c-15.646 0-28.331-13.455-28.331-30.049v-400.893c0-16.604 12.685-30.059 28.331-30.059h181.873c15.647 0 28.332 13.455 28.332 30.059z" fill="#a8d1ef"/><path d="m328.15 33.172v31.34h-238.535v-31.34c0-16.596 12.685-30.051 28.332-30.051h181.872c15.646.001 28.331 13.456 28.331 30.051z" fill="#1777c1"/><g><g><path d="m328.149 435.066v-31.34h-238.535v31.34c0 16.596 12.685 30.051 28.332 30.051h181.872c15.646 0 28.331-13.455 28.331-30.051z" fill="#1777c1"/><path d="m331.605 34.077v-.905c0-18.475-14.259-33.505-31.787-33.505h-181.871c-17.527 0-31.787 15.03-31.787 33.505v31.34c0 .005.001.009.001.014v339.177c0 .008-.002.016-.002.024v31.34c0 6.352 1.686 12.296 4.61 17.363 5.581 9.672 15.676 16.146 27.179 16.146h181.874c17.527 0 31.787-15.03 31.787-33.504v-400.894c-.002-.034-.004-.067-.004-.101zm-6.91-.001v26.981h-231.624v-26.879c0-14.669 11.159-26.604 24.876-26.604h181.874c13.685 0 24.822 11.879 24.874 26.502zm-231.624 33.891h231.626v332.305h-231.626zm0 367.104v-27.889h231.623v27.885c0 14.665-11.159 26.595-24.876 26.595h-181.872c-9.001 0-16.901-5.137-21.269-12.813-2.288-4.021-3.606-8.738-3.606-13.778z" fill="#070108"/></g></g><g><path d="m253.062 38.804h-88.359c-2.226 0-4.047-1.821-4.047-4.047v-1.881c0-2.226 1.821-4.047 4.047-4.047h88.359c2.226 0 4.047 1.821 4.047 4.047v1.881c0 2.226-1.821 4.047-4.047 4.047z" fill="#070108"/></g><g><g><circle cx="208.882" cy="433.421" fill="#115072" r="17.943"/><path d="m208.883 454.819c-11.799 0-21.398-9.599-21.398-21.398s9.599-21.398 21.398-21.398 21.398 9.599 21.398 21.398-9.6 21.398-21.398 21.398zm0-35.886c-7.989 0-14.488 6.499-14.488 14.488s6.499 14.488 14.488 14.488c7.988 0 14.488-6.499 14.488-14.488-.001-7.989-6.5-14.488-14.488-14.488z" fill="#070108"/></g></g></g><g><g><path d="m162.489 334.271-3.682-2.126c-12.381-7.149-28.361-2.867-35.509 9.514l-16.58 28.718c-8.373-25.587-15.716-63.236-17.022-117.771-.041-1.693-55.871 66.963-59.979 116.672v114.618c0 13.613 11.036 24.649 24.649 24.649h85.54c14.567 0 26.022-12.565 24.536-27.056-1.569-15.296-7.541-35.367-24.83-55.602l32.393-56.106c7.147-12.382 2.866-28.361-9.516-35.51z" fill="#ffae9a"/><path d="m139.905 512h-85.54c-15.497 0-28.104-12.607-28.104-28.104v-114.617c0-.095.004-.19.012-.284 2.175-26.321 18.336-57.121 31.509-78.325 7.788-12.536 15.052-22.616 19.773-28.866 9.64-12.758 10.451-12.728 12.216-12.682 1.836.054 3.334 1.566 3.378 3.402 1.031 43.019 5.915 79.726 14.532 109.273l12.624-21.865c8.12-14.064 26.167-18.898 40.229-10.779l3.683 2.126c14.063 8.12 18.899 26.166 10.779 40.229l-31.185 54.013c13.739 16.743 22.047 35.922 24.067 55.615.804 7.842-1.772 15.705-7.069 21.572-5.33 5.905-12.949 9.292-20.904 9.292zm-106.734-142.577v114.473c0 11.686 9.508 21.194 21.194 21.194h85.54c6.003 0 11.753-2.556 15.775-7.011 4.047-4.483 5.937-10.25 5.323-16.237-1.98-19.302-10.061-37.373-24.02-53.71-.951-1.113-1.097-2.704-.365-3.972l32.393-56.106c6.215-10.763 2.514-24.575-8.25-30.789l-3.683-2.126c-10.764-6.214-24.575-2.513-30.789 8.25l-16.58 28.718c-.682 1.181-1.999 1.841-3.35 1.709-1.356-.141-2.502-1.067-2.926-2.362-9.625-29.413-15.31-66.35-16.922-109.894-13.869 17.73-50.063 69.123-53.34 107.863z" fill="#070108"/></g></g></g><g><g><g><path d="m482.284 127.932v161.648c0 21.757-17.635 39.392-39.392 39.392h-100.185c-1.298 4.717-3.852 11.035-8.926 17.797-2.045 2.737-4.522 5.561-7.476 8.374-13.005 12.345-35.552 24.624-74.641 30.337-2.932.433-5.128-1.374-5.864-3.646-.649-2.001-.173-4.382 1.926-5.929 12.767-9.423 27.264-24.667 31.3-46.933h-86.412c-10.267 0-19.626-3.938-26.637-10.375-7.833-7.195-12.745-17.538-12.745-29.017v-161.648c0-21.757 17.624-39.392 39.381-39.392h250.278c10.971 0 20.892 4.479 28.032 11.717 7.033 7.108 11.361 16.878 11.361 27.675z" fill="#135e91"/><path d="m250.81 388.999c-3.783 0-7.088-2.368-8.297-6.101-1.183-3.648.058-7.486 3.163-9.774 10.762-7.944 24.181-21.293 29.069-40.697h-82.132c-10.757 0-21.047-4.008-28.973-11.286-8.81-8.092-13.863-19.596-13.863-31.561v-161.648c0-23.626 19.216-42.847 42.836-42.847h250.278c11.555 0 22.384 4.527 30.492 12.745 7.966 8.052 12.355 18.744 12.355 30.102v161.648c0 23.626-19.221 42.847-42.847 42.847h-97.623c-1.891 5.7-4.819 11.212-8.724 16.416-2.265 3.032-4.91 5.996-7.857 8.802-16.584 15.742-42.329 26.256-76.523 31.253-.456.068-.909.101-1.354.101zm-58.197-297.004c-19.81 0-35.926 16.121-35.926 35.937v161.648c0 10.036 4.238 19.685 11.627 26.472 6.647 6.104 15.277 9.465 24.299 9.465h90.55l-.738 4.071c-4.323 23.852-20.14 39.864-32.647 49.097-.96.708-.845 1.608-.691 2.083.117.359.607 1.51 2.073 1.294 32.761-4.788 57.241-14.687 72.767-29.425 2.663-2.536 5.049-5.207 7.086-7.936 3.965-5.283 6.777-10.881 8.363-16.646l.698-2.538h102.817c19.816 0 35.937-16.121 35.937-35.937v-161.648c0-9.526-3.68-18.492-10.361-25.246-6.803-6.896-15.885-10.691-25.576-10.691z" fill="#070108"/></g></g><g><g><g><g><path d="m317.758 118.464c-33.146 0-60.011 26.866-60.011 60.011 0 29.111 46.291 94.516 57.56 110.007 1.212 1.666 3.69 1.666 4.902 0 11.269-15.491 57.56-80.896 57.56-110.007 0-33.145-26.865-60.011-60.011-60.011zm2.388 93.491c-22.174 1.402-40.459-16.882-39.057-39.056 1.156-18.287 15.995-33.125 34.282-34.281 22.174-1.402 40.458 16.882 39.056 39.056-1.156 18.286-15.995 33.125-34.281 34.281z" fill="#a8d1ef"/><path d="m317.758 293.187c-2.067 0-4.028-.999-5.245-2.672-13.658-18.775-58.221-82.342-58.221-112.04 0-34.995 28.471-63.466 63.467-63.466s63.467 28.471 63.467 63.466c0 29.698-44.564 93.264-58.222 112.04-1.218 1.673-3.179 2.672-5.246 2.672zm0-171.268c-31.186 0-56.557 25.371-56.557 56.556 0 27.997 46.311 93.383 56.557 107.502 10.245-14.119 56.557-79.505 56.557-107.502-.001-31.185-25.372-56.556-56.557-56.556zm.052 93.565c-10.657 0-20.918-4.214-28.477-11.773-8.161-8.161-12.423-19.471-11.692-31.03 1.272-20.113 17.399-36.24 37.512-37.512 11.561-.725 22.868 3.531 31.03 11.693s12.423 19.471 11.693 31.03c-1.272 20.113-17.398 36.24-37.511 37.512-.854.053-1.706.08-2.555.08zm2.118-6.977.218 3.448-.218-3.448c16.65-1.053 29.998-14.402 31.051-31.051.606-9.579-2.923-18.949-9.682-25.708-6.759-6.758-16.125-10.288-25.708-9.682-16.649 1.053-29.998 14.402-31.051 31.051-.606 9.579 2.923 18.949 9.682 25.708 6.758 6.759 16.126 10.293 25.708 9.682z" fill="#070108"/></g></g></g><path d="m370.795 246.621 13.159-6.591c1.87-.937 2.627-3.212 1.69-5.081-.937-1.87-3.211-2.628-5.081-1.69l-23.741 11.892c-.01.005-.017.012-.027.017-.112.057-.214.132-.32.201-.092.06-.191.11-.278.178-.014.011-.028.022-.042.033-.073.058-.135.132-.204.196-.011.01-.022.021-.033.032-.085.081-.177.155-.254.244-.018.02-.034.041-.051.061-.007.008-.015.013-.022.022-.052.064-.086.135-.134.201-.007.01-.014.021-.022.031-.067.095-.141.184-.199.286-.014.025-.026.05-.04.076-.056.102-.094.209-.14.315-.041.094-.09.182-.123.28-.009.025-.014.051-.022.077-.038.12-.058.242-.084.364-.025.118-.054.233-.068.353-.013.118-.01.235-.012.354-.002.11-.015.218-.007.329.001.021.006.042.008.063.01.118.039.232.06.349.019.106.027.213.056.319.005.019.012.036.018.055.034.118.087.229.132.344.04.101.069.207.118.304v.001c.006.011.013.021.019.032.023.046.053.087.078.132.078.137.16.27.252.394.021.029.042.058.064.086.029.037.061.071.092.107.096.113.198.219.305.318.038.035.074.072.113.106.019.017.036.036.056.052.001.001.002.002.003.003l.002.002c.008.007.016.013.024.02l20.499 16.824c.704.578 1.555.86 2.4.86 1.095 0 2.181-.472 2.929-1.385 1.327-1.617 1.092-4.002-.525-5.329l-9.693-7.955c24.91 4.822 37.867 12.308 37.867 18.042 0 9.496-34.947 22.742-91.861 22.742s-91.861-13.245-91.861-22.742c0-6.467 16.906-15.388 49.217-19.929 2.071-.291 3.514-2.206 3.223-4.276-.291-2.072-2.208-3.521-4.276-3.223-16.758 2.355-55.737 9.741-55.737 27.428 0 9.073 10.647 16.821 30.789 22.407 18.386 5.099 42.764 7.908 68.645 7.908s50.259-2.808 68.645-7.908c20.142-5.587 30.789-13.335 30.789-22.407.002-14.799-26.932-22.38-46.395-25.924z" fill="#070108"/></g></g></g></svg>