<svg id="Capa_1" enable-background="new 0 0 504.5 504.5" height="512" viewBox="0 0 504.5 504.5" width="512" xmlns="http://www.w3.org/2000/svg"><g><path d="m250.847 121c-36.607 0-66.389-29.782-66.389-66.389 0-30.112 24.499-54.611 54.611-54.611 24.917 0 45.189 20.271 45.189 45.189 0 20.761-16.89 37.651-37.651 37.651-17.436 0-31.621-14.185-31.621-31.621 0-4.142 3.358-7.5 7.5-7.5s7.5 3.358 7.5 7.5c0 9.165 7.456 16.621 16.621 16.621 12.49 0 22.651-10.161 22.651-22.651 0-16.646-13.542-30.189-30.189-30.189-21.841 0-39.611 17.77-39.611 39.611 0 28.336 23.053 51.389 51.389 51.389 4.142 0 7.5 3.358 7.5 7.5s-3.358 7.5-7.5 7.5z" fill="#ce857a"/><g><g><path d="m323.089 329h-141.678l-14.099 72.434c-10.399 53.422 30.514 103.066 84.938 103.066 14.539 0 28.115-3.543 40.005-9.755 32.617-17.04 52.554-54.161 44.934-93.311z" fill="#88c5fd"/><path d="m247.312 401.434 14.099-72.434h-80l-14.099 72.434c-10.399 53.422 30.514 103.066 84.938 103.066 14.539 0 28.115-3.543 40.005-9.755-32.619-17.039-52.564-54.159-44.943-93.311z" fill="#64b3fb"/></g><g><path d="m252.25 474.5c-16.947 0-32.849-7.501-43.626-20.579-10.778-13.078-15.103-30.119-11.865-46.755l15.215-78.166h80.553l15.215 78.166c3.238 16.636-1.086 33.677-11.865 46.755-7.919 9.609-18.604 16.207-30.438 19.032-4.272 1.019-8.694 1.547-13.189 1.547z" fill="#add8ff"/><path d="m247.312 401.434 14.099-72.434h-49.437l-15.215 78.166c-3.238 16.636 1.086 33.677 11.865 46.755 10.778 13.078 26.679 20.579 43.626 20.579 4.495 0 8.917-.528 13.189-1.547-15.701-19.083-23.322-44.833-18.127-71.519z" fill="#88c5fd"/></g></g><g><g fill="#ffbd86"><circle cx="107.122" cy="251.129" r="36.081"/><circle cx="397.378" cy="251.129" r="36.081"/></g><g><path d="m292.934 390.466c60.347-17.591 104.444-73.311 104.444-139.337 0-71.958-52.369-131.684-121.074-143.145-7.824-1.305-15.86-1.984-24.055-1.984-80.15 0-145.127 64.976-145.127 145.129 0 66.026 44.097 121.746 104.442 139.337 12.91 3.763 26.56 5.789 40.684 5.789 8.195 0 16.231-.682 24.055-1.99 5.662-.945 11.212-2.219 16.631-3.799z" fill="#fed2a4"/><path d="m155.231 251.129c0-71.957 52.372-131.683 121.073-143.145-7.824-1.305-15.86-1.984-24.055-1.984-80.15 0-145.127 64.976-145.127 145.129 0 66.026 44.097 121.746 104.442 139.337 12.91 3.763 26.56 5.789 40.684 5.789 8.195 0 16.231-.682 24.055-1.99-68.7-11.461-121.072-71.181-121.072-143.136z" fill="#ffbd86"/></g></g><g fill="#ff8e9e"><ellipse cx="178.994" cy="293.537" rx="27.03" ry="21.525"/><ellipse cx="325.506" cy="293.537" rx="27.03" ry="21.525"/></g><g fill="#313d40"><path d="m213.621 259.779c-3.123-2.721-7.86-2.396-10.582.727-4.388 5.037-12.193 5.041-16.584 0-2.722-3.123-7.459-3.448-10.582-.727-3.123 2.722-3.448 7.459-.727 10.582 10.362 11.889 28.83 11.9 39.202 0 2.721-3.123 2.396-7.86-.727-10.582z"/><path d="m328.627 259.779c-3.123-2.721-7.861-2.396-10.582.727-4.388 5.037-12.193 5.041-16.584 0-2.721-3.123-7.459-3.448-10.582-.727-3.123 2.722-3.448 7.459-.727 10.582 10.362 11.888 28.829 11.901 39.202 0 2.721-3.123 2.396-7.86-.727-10.582z"/></g><g><path d="m312.162 316.26c-1.102-14.668-12.831-26.576-27.482-27.882-5.513-.491-10.759.503-15.383 2.626-5.432 2.495-11.24 3.743-17.047 3.743s-11.615-1.248-17.047-3.743c-4.624-2.124-9.87-3.118-15.383-2.626-14.651 1.305-26.38 13.214-27.482 27.882-1.336 17.777 12.75 32.669 30.249 32.669 4.558 0 8.883-1.01 12.765-2.819 5.367-2.501 11.132-3.751 16.898-3.751 5.765 0 11.531 1.25 16.898 3.751 3.882 1.808 8.207 2.819 12.765 2.819 17.499 0 31.585-14.892 30.249-32.669z" fill="#55dafe"/><circle cx="252.25" cy="318.553" fill="#b9f0ff" r="23.806"/></g></g></svg>