<svg height="512pt" viewBox="-76 0 512 512.00301" width="512pt" xmlns="http://www.w3.org/2000/svg"><path d="m243.894531 348.554688c0 65.269531-52.914062 118.183593-118.183593 118.183593-65.269532 0-118.179688-52.914062-118.179688-118.183593 0-65.269532 52.910156-118.179688 118.179688-118.179688 65.269531 0 118.183593 52.910156 118.183593 118.179688zm0 0" fill="#f8d6c9"/><path d="m353.132812 348.554688c0 65.269531-52.910156 118.183593-118.179687 118.183593s-118.183594-52.914062-118.183594-118.183593c0-65.269532 52.914063-118.179688 118.183594-118.179688s118.179687 52.910156 118.179687 118.179688zm0 0" fill="#f8d6c9"/><path d="m234.953125 230.375c-5.101563 0-10.128906.324219-15.0625.949219 58.160156 7.398437 103.121094 57.0625 103.121094 117.230469 0 60.167968-44.960938 109.835937-103.121094 117.230468 4.933594.628906 9.960937.953125 15.0625.953125 65.269531 0 118.179687-52.914062 118.179687-118.183593 0-65.269532-52.910156-118.179688-118.179687-118.179688zm0 0" fill="#f9b599"/><path d="m304.394531 359.800781c0-79.898437-55.65625-144.667969-124.3125-144.667969-68.660156 0-124.316406 64.769532-124.316406 144.667969 0 79.898438 55.65625 144.667969 124.316406 144.667969 68.65625 0 124.3125-64.769531 124.3125-144.667969zm0 0" fill="#f8d6c9"/><path d="m304.203125 351.660156c-3.628906-76.109375-57.8125-136.527344-124.121094-136.527344-5.097656 0-10.125.367188-15.0625 1.058594 61.554688 8.652344 109.253907 69.644532 109.253907 143.609375 0 73.964844-47.699219 134.957031-109.253907 143.609375 4.9375.695313 9.964844 1.058594 15.0625 1.058594 68.65625 0 124.3125-64.769531 124.3125-144.667969 0-2.730469-.0625-5.445312-.191406-8.140625" fill="#f9b599"/><path d="m45.566406 133.898438c1.84375-70.101563 59.25-126.367188 129.796875-126.367188 71.707031 0 129.839844 58.128906 129.839844 129.839844 0 71.710937-58.128906 129.839844-129.839844 129.839844-71.710937 0-129.839843-58.128907-129.839843-129.839844 0-1.160156.015624-2.320313.042968-3.472656" fill="#f8d6c9"/><path d="m175.363281 7.53125c-5.097656 0-10.117187.300781-15.0625.875 64.613281 7.464844 114.78125 62.351562 114.78125 128.964844 0 66.613281-50.167969 121.503906-114.78125 128.96875 4.945313.570312 9.964844.871094 15.0625.871094 71.707031 0 129.839844-58.128907 129.839844-129.839844 0-71.710938-58.132813-129.839844-129.839844-129.839844zm0 0" fill="#f9b599"/><path d="m237.15625 309.652344c0 4.789062-3.878906 8.667968-8.667969 8.667968-4.785156 0-8.667969-3.878906-8.667969-8.667968 0-4.785156 3.882813-8.667969 8.667969-8.667969 4.789063 0 8.667969 3.882813 8.667969 8.667969zm0 0" fill="#f9b599"/><path d="m135.316406 309.652344c0 4.789062-3.882812 8.667968-8.667968 8.667968-4.789063 0-8.667969-3.878906-8.667969-8.667968 0-4.785156 3.878906-8.667969 8.667969-8.667969 4.785156 0 8.667968 3.882813 8.667968 8.667969zm0 0" fill="#f9b599"/><path d="m125.917969 148.3125c0-8.941406-11.828125-16.191406-26.414063-16.191406-14.589844 0-26.414062 7.25-26.414062 16.191406 0 8.945312 11.824218 16.195312 26.414062 16.195312 14.585938 0 26.414063-7.25 26.414063-16.195312zm0 0" fill="#e58cb6"/><path d="m282.707031 148.3125c0-8.941406-11.824219-16.191406-26.414062-16.191406-14.585938 0-26.414063 7.25-26.414063 16.191406 0 8.945312 11.828125 16.195312 26.414063 16.195312 14.589843 0 26.414062-7.25 26.414062-16.195312zm0 0" fill="#e58cb6"/><path d="m215.4375 41.503906c2.859375 5.96875-.390625 13.0625-6.773438 14.804688-2.507812.6875-5.105468 1.128906-7.75 1.296875-3.507812.316406-7.109374.046875-10.707031-.554688-1.765625-.40625-3.601562-.734375-5.332031-1.371093-.875-.292969-1.761719-.585938-2.636719-.910157l-2.5625-1.136719c-6.84375-3.132812-12.898437-8.269531-17.605469-14.710937-4.636718-6.480469-8.648437-17.527344-8.648437-29.238281h39.8125c-.867187 1.742187-1.394531 10.300781-1.179687 12.65625.125.542968.121093 1.203125.328124 1.761718l.242188.914063c.117188.28125.234375.574219.347656.878906.097656.324219.242188.609375.402344.890625l.457031.898438.5625.835937.28125.445313.328125.386718.667969.824219.761719.742188c.492187.566406 1.101562.914062 1.679687 1.425781 1.226563.8125 2.585938 1.636719 4.125 2.132812 1.402344.539063 2.90625.890626 4.46875 1.050782 3.761719.382812 7.097657 2.570312 8.730469 5.976562zm0 0" fill="#eeb682"/><path d="m218.34375 462.660156c0-26.246094 21.277344-47.523437 47.523438-47.523437 9.636718 0 18.59375 2.875 26.082031 7.804687 7.832031-18.757812 12.285156-39.78125 12.433593-61.996094h-248.605468c.152344 23.03125 4.9375 44.777344 13.316406 64.054688 8.019531-6.179688 18.058594-9.859375 28.964844-9.859375 26.246094 0 47.523437 21.273437 47.523437 47.523437 0 12.039063-4.484375 23.023438-11.867187 31.398438 14.328125 6.707031 29.972656 10.40625 46.367187 10.40625 17.410157 0 33.980469-4.171875 49.023438-11.691406-6.722657-8.203125-10.761719-18.6875-10.761719-30.117188zm0 0" fill="#f8ce5e"/><path d="m231.433594 423.894531c14.726562-13.066406 23.1875-25.417969 30.496094-43.699219 5.304687-13.269531 13-26.265624 23.171874-28.132812 21.664063-3.980469 79.359376 18.535156 65.898438 61.90625-13.457031 43.367188-67.03125 113.890625-122.222656 75.824219-33.734375-23.261719-16.132813-49.226563 2.65625-65.898438zm0 0" fill="#f8d6c9"/><path d="m285.101562 352.0625c-2.1875.402344-4.257812 1.320312-6.214843 2.644531 24.175781 7.390625 51.738281 27.855469 41.992187 59.261719-9.449218 30.449219-38.671875 74.277344-74.34375 84.519531 48.527344 14.464844 92.457032-45.832031 104.464844-84.519531 13.460938-43.371094-44.234375-65.882812-65.898438-61.90625zm0 0" fill="#f9b599"/><path d="m139.71875 423.894531c-14.726562-13.066406-23.1875-25.417969-30.496094-43.699219-5.304687-13.269531-13-26.265624-23.171875-28.132812-21.664062-3.980469-79.355469 18.535156-65.898437 61.90625 13.457031 43.367188 67.03125 113.890625 122.222656 75.824219 33.734375-23.261719 16.132812-49.226563-2.65625-65.898438zm0 0" fill="#f8d6c9"/><path d="m139.71875 423.894531c-14.726562-13.066406-23.1875-25.417969-30.496094-43.699219-5.304687-13.265624-13-26.265624-23.171875-28.132812-5.976562-1.097656-14.695312-.171875-23.90625 2.644531 7.152344 4.828125 12.789063 15.074219 16.957031 25.488281 7.308594 18.28125 15.769532 30.632813 30.496094 43.699219 18.789063 16.671875 36.390625 42.636719 2.65625 65.898438-5.953125 4.109375-11.890625 6.945312-17.757812 8.695312 15.136718 4.347657 31.4375 2.648438 47.882812-8.695312 33.730469-23.261719 16.128906-49.226563-2.660156-65.898438zm0 0" fill="#f9b599"/><path d="m306.203125 173.523438c7.253906 8.117187 19.71875 8.816406 27.835937 1.5625 8.117188-7.253907 8.820313-19.714844 1.566407-27.835938-7.253907-8.117188-43.925781-19.570312-43.925781-19.570312s7.269531 37.722656 14.523437 45.84375zm0 0" fill="#c5ebe6"/><path d="m47.824219 173.523438c-7.253907 8.117187-19.71875 8.816406-27.835938 1.5625-8.117187-7.253907-8.820312-19.714844-1.566406-27.835938 7.253906-8.117188 43.929687-19.570312 43.929687-19.570312s-7.273437 37.722656-14.527343 45.84375zm0 0" fill="#c5ebe6"/><g fill="#18191b"><path d="m360.667969 348.550781c-.003907-53.378906-34.121094-100.984375-83.894531-118.546875 12.523437-13.734375 22.207031-29.921875 28.328124-47.425781 4.691407 3.34375 10.246094 5.039063 15.816407 5.039063 6.464843 0 12.949219-2.28125 18.140625-6.914063 11.199218-10.011719 12.171875-27.269531 2.160156-38.46875-4.789062-5.359375-17.492188-11.0625-28.882812-15.390625-5.398438-71.40625-64.914063-126.84375-136.972657-126.84375-31.011719 0-60.277343 10.085938-84.636719 29.164062-3.273437 2.5625-3.851562 7.296876-1.285156 10.570313s7.300782 3.847656 10.570313 1.285156c13.949219-10.925781 29.714843-18.515625 46.53125-22.554687 1.34375 9.242187 4.703125 18.269531 9.449219 24.902344 5.539062 7.578124 12.644531 13.496093 20.632812 17.152343l2.5625 1.132813c.140625.0625.28125.121094.425781.171875.898438.335937 1.804688.640625 2.703125.941406l.078125.027344c1.792969.644531 3.511719 1.019531 5.027344 1.351562.371094.082031.734375.160157 1.097656.242188.148438.035156.292969.066406.441407.089843 3.164062.53125 6.105468.792969 8.890624.792969 1.238282 0 2.449219-.050781 3.640626-.15625 3.070312-.199219 6.148437-.71875 9.15625-1.539062 5.207031-1.421875 9.480468-5.050781 11.722656-9.960938 2.238281-4.902343 2.1875-10.503906-.140625-15.363281-2.75-5.738281-8.269531-9.558594-14.761719-10.214844-.898438-.089844-1.753906-.289062-2.535156-.589844-.125-.046874-.25-.089843-.375-.128906-.59375-.191406-1.292969-.605468-1.945313-1.027344-.199219-.160156-.398437-.316406-.601562-.46875-.042969-.03125-.082031-.0625-.125-.09375-.066407-.070312-.132813-.136718-.199219-.203124l-.4375-.425782-.386719-.476562c-.035156-.046875-.074219-.09375-.113281-.136719-.035156-.054687-.070312-.109375-.105469-.167969l-.300781-.445312-.246094-.484375c-.023437-.050781-.050781-.101563-.082031-.15625-.074219-.207031-.152344-.410157-.230469-.605469l-.113281-.429688c-.011719-.046874-.023437-.097656-.039063-.144531-.023437-.171875-.050781-.394531-.09375-.648437-.03125-.839844.023438-2.355469.125-3.929688 50.65625 10.195313 90.167969 51.644532 96.96875 103.875-1.03125-.332031-1.949218-.621094-2.707031-.859375-2.53125-.789062-5.289062-.191406-7.261719 1.574219-1.976562 1.765625-2.878906 4.4375-2.378906 7.039062 1.289063 6.675782 4.980469 24.523438 9.910156 37.417969-.023437.085938-.050781.167969-.074218.253907-13.496094 54.703124-62.328125 92.90625-118.753906 92.90625-54.304688 0-102.527344-36.308594-117.535157-88.378907 5.925781-12.804687 10.457031-34.644531 11.914063-42.199219.5-2.601562-.402344-5.273437-2.378906-7.039062-1.972657-1.765625-4.726563-2.359375-7.261719-1.570312-1.519531.472656-3.644531 1.152343-6.152344 1.988281 2.6875-22.273438 11.378906-43.171875 25.4375-60.9375 2.582031-3.261719 2.03125-8-1.230469-10.578125-3.265625-2.582032-8-2.027344-10.578125 1.234375-17.359375 21.9375-27.421875 48.132812-29.261719 75.953125-10.425781 4.132812-21.191406 9.246094-25.511718 14.082031-10.007813 11.203125-9.039063 28.460937 2.164062 38.46875 5.1875 4.636719 11.675782 6.914063 18.136719 6.914063 4.539063 0 9.0625-1.128907 13.125-3.355469 6.582031 18.0625 17.015625 34.679687 30.394531 48.558593-22.8125 9.695313-42.472656 26.042969-56.175781 46.984376-2.277344 3.480468-1.300781 8.148437 2.175781 10.425781 1.273438.832031 2.703125 1.230469 4.117188 1.230469 2.457031 0 4.863281-1.203126 6.308594-3.410157 13.347656-20.394531 33.101562-35.855469 55.933593-43.890625.921875.746094 1.835938 1.5 2.777344 2.226563.074219.054687.148437.109375.21875.164062-26.101563 27.058594-41.757813 64.851563-43.5625 105.324219-9.507813 4.378906-18.566406 10.5-25.339844 18.132812-1.714843 1.933594-3.230469 3.925782-4.59375 5.960938-2.269531-8.902344-3.425781-18.074219-3.425781-27.410156 0-10.941406 1.59375-21.746094 4.730469-32.113282 1.207031-3.980468-1.046875-8.183593-5.027344-9.390624-3.980469-1.207032-8.183594 1.046874-9.386719 5.027343-3.566406 11.78125-5.378906 24.054688-5.378906 36.476563 0 16.113281 3.011719 31.808594 8.945312 46.652344.410157 1.03125 1.035157 1.910156 1.789063 2.628906-.453125 5.941406.28125 12.089844 2.226563 18.363281 10.472656 33.746094 40.632812 76.199219 75.898437 88.402344 6.914063 2.390625 13.859375 3.582031 20.738281 3.582031 8.515625 0 16.929688-1.832031 25.074219-5.449219.207031.089844.414063.167969.617187.253907.507813.210937 1.011719.417968 1.519532.621093.417968.167969.839844.335938 1.261718.496094.507813.199219 1.015626.390625 1.523438.582031.421875.15625.84375.308594 1.265625.460938.515625.183594 1.027344.367187 1.539063.542968.421874.144532.847656.285157 1.269531.425782.515625.171875 1.035156.339844 1.550781.503906.421875.132812.847656.261719 1.269531.390625.523438.15625 1.046875.316406 1.570313.464844.421875.125.847656.238281 1.269531.355469.527344.144531 1.050781.292968 1.582031.429687.421875.109375.847656.214844 1.273438.320313.527344.128906 1.058594.261718 1.589844.386718.425781.097656.855468.191406 1.28125.289063.53125.117187 1.0625.234375 1.59375.34375.433593.089843.863281.171875 1.296874.257812.53125.101563 1.0625.207031 1.59375.304688.4375.078125.878907.148437 1.316407.222656.527343.089844 1.054687.179687 1.582031.261719.453125.070312.90625.128906 1.355469.195312.519531.074219 1.035156.148438 1.558593.214844.46875.0625.941407.113281 1.410157.167969.503906.058593 1.003906.121093 1.511719.171875.496093.050781.996093.089844 1.496093.136718.480469.039063.957031.085938 1.4375.125.539063.039063 1.082031.070313 1.621094.105469.441406.027344.882813.058594 1.324219.082031.628906.03125 1.257812.050782 1.886718.074219.355469.011719.710938.03125 1.070313.039063.988281.023437 1.976563.039062 2.96875.039062 1.125 0 2.25-.019531 3.371094-.050781.425781-.011719.847656-.035156 1.269531-.050781.695312-.027344 1.394531-.050782 2.085938-.09375.535156-.03125 1.066406-.074219 1.601562-.113282.578125-.039062 1.15625-.074218 1.734375-.125.59375-.050781 1.1875-.117187 1.78125-.179687.511719-.050781 1.027344-.097656 1.539063-.15625.628906-.070313 1.253906-.160156 1.878906-.242187.476562-.0625.953125-.121094 1.425781-.1875.648437-.097657 1.296875-.207032 1.941406-.308594.449219-.074219.898438-.140625 1.34375-.21875.667969-.117188 1.328125-.25 1.992188-.375.425781-.082032.851562-.160156 1.277343-.246094.671876-.136719 1.339844-.289062 2.007813-.441406.414063-.089844.832031-.179688 1.246094-.277344.671875-.15625 1.339843-.328125 2.003906-.496094.414063-.105468.824219-.207031 1.234375-.316406.667969-.175781 1.328125-.367188 1.992188-.554688.410156-.117187.820312-.230468 1.226562-.351562.660156-.195312 1.3125-.402344 1.96875-.609375.410156-.132813.824219-.257813 1.238281-.394531.640625-.210938 1.285157-.433594 1.925781-.660156.417969-.144532.839844-.285157 1.257813-.4375.628906-.226563 1.253906-.464844 1.878906-.703126.429688-.164062.859375-.324218 1.289063-.492187.609375-.238281 1.214844-.492187 1.824218-.742187.441407-.179688.882813-.359376 1.320313-.546876.589844-.25 1.175781-.511718 1.765625-.773437.453125-.203125.910156-.40625 1.367188-.613281.566406-.261719 1.128906-.53125 1.6875-.800782.21875-.101562.433593-.203124.652343-.304687 9.761719 5.347656 19.980469 8.046875 30.347657 8.046875 6.878906 0 13.824218-1.191406 20.734374-3.582031 35.265626-12.199219 65.425782-54.652344 75.902344-88.402344 3.738282-12.054687 2.992188-23.648437-2.054687-34.164063 2.996093-10.863281 4.53125-22.117187 4.53125-33.488281zm-176.113281-325.527343c.023437.277343.066406.554687.121093.832031l.015625.113281c.066406.519531.171875 1.335938.472656 2.285156l.175782.671875c.09375.351563.210937.699219.351562 1.03125.058594.140625.117188.285157.175782.433594.21875.652344.507812 1.296875.871093 1.953125l.375.742188c.140625.277343.296875.542968.46875.800781l.726563 1.101562c.195312.304688.410156.59375.644531.867188l.863281 1.054687c.191406.234375.390625.457032.605469.667969l.597656.578125c.71875.769531 1.402344 1.292969 1.875 1.648438.082031.0625.167969.125.234375.179687.257813.230469.53125.441406.820313.632813 1.546875 1.027343 3.4375 2.179687 5.777343 2.964843 1.972657.738281 4.066407 1.21875 6.226563 1.4375 1.226563.125 2.234375.777344 2.695313 1.742188.539062 1.125.246093 2.105469.023437 2.59375s-.78125 1.359375-1.988281 1.691406c-2.058594.5625-4.160156.914063-6.246094 1.046875-.066406.003906-.136719.007812-.203125.015625-2.523437.226563-5.332031.082031-8.570313-.449219-.339843-.078125-.683593-.152344-1.027343-.230468-1.183594-.257813-2.300781-.5-3.167969-.820313-.066406-.023437-.132812-.046875-.203125-.070313l-.171875-.054687c-.671875-.226563-1.351562-.453125-2.023438-.695313l-2.257812-1.003906c-5.570312-2.546875-10.636719-6.800781-14.617188-12.242187-2.6875-3.757813-5.734374-10.519531-6.824218-18.679688 4.613281-.519531 9.277344-.800781 13.992187-.800781 3.148438 0 6.261719.121094 9.347657.355469-.261719 3.550781-.226563 6.816406-.15625 7.605469zm144.46875 146.449218c-5.011719 4.476563-12.730469 4.042969-17.207032-.964844-2.242187-2.515624-6.300781-13.84375-10.007812-29.492187 15.128906 5.433594 25.929687 10.738281 28.179687 13.253906 4.476563 5.007813 4.042969 12.726563-.964843 17.203125zm16.582031 179.082032c0 5.886718-.476563 11.734374-1.390625 17.5-9.125-8.578126-21.109375-14.886719-32.714844-18.488282-2.835938-41.15625-19.957031-78.964844-47.542969-105.214844.1875-.160156.371094-.316406.558594-.472656.128906.042969.253906.089844.386719.128906 47.515625 13.324219 80.699218 57.136719 80.703125 106.546876zm-320.601563-179.082032c-5.007812-4.476562-5.441406-12.195312-.964844-17.203125 2.242188-2.511719 13.046876-7.816406 28.179688-13.253906-3.703125 15.644531-7.761719 26.972656-10.011719 29.492187-4.476562 5.007813-12.191406 5.441407-17.203125.964844zm79.621094 85.6875c21.28125 12.851563 45.449219 19.582032 70.738281 19.582032 27.613281 0 53.804688-7.984376 76.402344-23.183594 24.976563 22.832031 40.867187 56.148437 44.367187 92.804687-4.566406-.453125-8.789062-.371093-12.394531.292969-5.875 1.078125-11.320312 4.625-16.308593 10.542969h-163.707032c-4.984375-5.917969-10.429687-9.464844-16.308594-10.542969-6.414062-1.179688-14.753906-.539062-23.554687 1.714844 2.9375-35.394532 17.457031-68.019532 40.765625-91.210938zm97.625 207.488282c.609375 9.960937 5.523438 19.121093 14.609375 27.328124-.679687.269532-1.363281.535157-2.050781.785157-.035156.011719-.070313.027343-.105469.039062-.871094.320313-1.746094.625-2.621094.917969-.066406.019531-.132812.042969-.199219.066406-.84375.28125-1.691406.546875-2.539062.808594-.097656.027344-.195312.058594-.292969.089844-.816406.246094-1.636719.476562-2.457031.703125-.132812.035156-.261719.074219-.390625.109375-.789063.210937-1.582031.410156-2.375.601562-.160156.039063-.324219.082032-.488281.121094-.757813.183594-1.519532.347656-2.28125.511719-.199219.042969-.394532.089843-.59375.128906-.726563.152344-1.457032.289063-2.1875.421875-.230469.042969-.464844.089844-.699219.132812-.703125.121094-1.410156.234376-2.117187.339844-.257813.042969-.515626.085938-.773438.125-.675781.097656-1.359375.183594-2.039062.269532-.289063.035156-.578126.078124-.867188.113281-.65625.078125-1.3125.136719-1.972656.203125-.3125.027344-.625.066406-.941406.09375-.65625.054687-1.3125.097656-1.972657.144531-.316406.019531-.632812.046875-.949219.066406-.691406.039063-1.382812.0625-2.078124.089844-.285157.011719-.566407.027344-.851563.035156-.976563.03125-1.957031.042969-2.9375.042969-.863281 0-1.726563-.011719-2.585937-.03125-.25-.007812-.503907-.019531-.753907-.027344-.609375-.023437-1.222656-.042968-1.832031-.074218-.273438-.011719-.546875-.035157-.820312-.050782-.585938-.035156-1.175782-.070312-1.761719-.113281-.265625-.023437-.535157-.046875-.804688-.070313-.589843-.050781-1.183593-.101562-1.773437-.164062-.25-.023438-.496094-.054688-.742188-.082031-.613281-.070313-1.222656-.136719-1.832031-.214844-.226563-.03125-.449219-.066406-.671875-.09375-.636719-.085937-1.269531-.175781-1.902344-.273437-.195312-.03125-.382812-.0625-.578125-.097657-.664062-.105469-1.328125-.214843-1.992187-.335937-.160156-.03125-.324219-.066406-.488282-.09375-.691406-.132813-1.386718-.265625-2.078124-.410156-.128907-.027344-.257813-.058594-.382813-.085938-.726563-.152344-1.453125-.316406-2.175781-.488281-.09375-.019531-.191406-.046875-.285156-.066407-.757813-.183593-1.511719-.371093-2.265626-.570312-.0625-.019531-.125-.035156-.191406-.050781-.785156-.210938-1.570312-.429688-2.351562-.660157-.035156-.007812-.066406-.019531-.097656-.027343-.199219-.058594-.398438-.125-.597657-.183594 11.125-8.878906 17.109375-18.957031 17.785157-30.023437.882812-14.429688-7.253907-29.363282-24.1875-44.386719-13.566407-12.039063-21.558594-23.496094-28.5-40.859375-1.011719-2.527344-2.050782-4.902344-3.117188-7.140625h144.957031c-1.066406 2.238281-2.105469 4.613281-3.117187 7.136719-6.941406 17.367187-14.933594 28.824218-28.5 40.863281-16.925782 15.023437-25.066406 29.957031-24.183594 44.386719zm-108.464844 27.722656c-32.484375-11.238282-58.40625-52.75-66.441406-78.632813-3.636719-11.722656-1.28125-22.398437 7.003906-31.734375 12.148438-13.691406 33.808594-20.867187 46.191406-20.867187 1.539063 0 2.9375.109375 4.15625.332031 5.578126 1.027344 11.96875 9.601562 17.535157 23.523438 7.894531 19.746093 17.003906 32.792968 32.488281 46.535156 9.140625 8.109375 19.878906 20.28125 19.152344 32.203125-.464844 7.613281-5.769532 14.972656-15.769532 21.867187-14.164062 9.765625-29.078124 12.042969-44.316406 6.773438zm250.023438-78.636719c-8.03125 25.886719-33.957032 67.398437-66.441406 78.636719-15.242188 5.273437-30.152344 2.992187-44.316407-6.777344-9.996093-6.894531-15.300781-14.25-15.769531-21.863281-.726562-11.925781 10.015625-24.09375 19.152344-32.203125 15.484375-13.742188 24.59375-26.789063 32.488281-46.539063 5.566406-13.921875 11.960937-22.496093 17.539063-23.519531 11-2.019531 36.6875 5.140625 50.34375 20.535156 8.285156 9.335938 10.640624 20.011719 7.003906 31.730469zm0 0"/><path d="m175.507812 140.785156c-12.285156 0-23.59375 6.695313-29.511718 17.472656-2 3.648438-.667969 8.226563 2.976562 10.226563 1.152344.632813 2.394532.929687 3.617188.929687 2.660156 0 5.238281-1.410156 6.609375-3.90625 3.269531-5.960937 9.519531-9.664062 16.308593-9.664062 6.617188 0 12.785157 3.5625 16.105469 9.296875 2.082031 3.601563 6.6875 4.832031 10.289063 2.75 3.597656-2.082031 4.828125-6.691406 2.746094-10.289063-6-10.375-17.167969-16.816406-29.140626-16.816406zm0 0"/><path d="m90.382812 114.257812c1.148438.632813 2.390626.929688 3.617188.929688 2.65625 0 5.238281-1.410156 6.605469-3.910156 3.273437-5.960938 9.519531-9.660156 16.308593-9.660156 6.617188 0 12.785157 3.5625 16.105469 9.296874 2.082031 3.601563 6.6875 4.832032 10.289063 2.746094 3.597656-2.082031 4.828125-6.6875 2.746094-10.289062-6-10.371094-17.167969-16.816406-29.140626-16.816406-12.285156 0-23.59375 6.699218-29.511718 17.476562-2 3.648438-.664063 8.226562 2.980468 10.226562zm0 0"/><path d="m208.5625 114.257812c1.152344.632813 2.390625.929688 3.617188.929688 2.660156 0 5.238281-1.410156 6.609374-3.910156 3.269532-5.960938 9.515626-9.660156 16.308594-9.660156 6.613282 0 12.785156 3.5625 16.101563 9.296874 2.082031 3.601563 6.6875 4.832032 10.289062 2.746094 3.601563-2.082031 4.832031-6.6875 2.746094-10.289062-6-10.371094-17.167969-16.816406-29.136719-16.816406-12.289062 0-23.597656 6.699218-29.515625 17.476562-2 3.648438-.664062 8.226562 2.980469 10.226562zm0 0"/></g></svg>