<svg id="Capa_1" enable-background="new 0 0 512.018 512.018" height="512" viewBox="0 0 512.018 512.018" width="512" xmlns="http://www.w3.org/2000/svg"><g><g><path d="m277.024 123.95c-.944 0-1.905-.18-2.834-.56-34.691-14.174-51.384-53.93-37.209-88.621 5.645-13.815 16.331-24.605 30.092-30.383 13.76-5.777 28.947-5.851 42.762-.205 11.423 4.666 20.345 13.503 25.121 24.881 4.777 11.377 4.838 23.934.171 35.357-3.886 9.509-11.242 16.937-20.714 20.913s-19.925 4.026-29.434.141c-16.47-6.729-24.395-25.604-17.664-42.073 2.759-6.754 7.983-12.028 14.71-14.852 3.819-1.604 8.215.192 9.818 4.012s-.192 8.216-4.012 9.818c-3.032 1.273-5.388 3.651-6.632 6.695-3.601 8.813.64 18.913 9.453 22.515 11.973 4.89 25.695-.87 30.588-12.843 6.506-15.925-1.156-34.174-17.08-40.679-20.86-8.526-44.77 1.513-53.295 22.376-11.045 27.034 1.963 58.016 28.998 69.063 3.834 1.566 5.673 5.944 4.105 9.779-1.185 2.906-3.988 4.666-6.944 4.666z" fill="#c4715a"/></g><g><circle cx="403.328" cy="254.825" fill="#ffcebf" r="36.625"/></g><g><circle cx="108.69" cy="254.825" fill="#f9bcaf" r="36.625"/></g><g><g><path d="m297.323 396.269c-2.576-.924-5.188-1.755-7.837-2.504-10.643-3.023-21.872-4.65-33.476-4.65-67.753 0-122.902 55.16-122.902 122.902h245.804c.001-52.808-33.681-98.596-81.589-115.748z" fill="#ffcebf"/></g></g><g><path d="m281.381 391.76c-8.187-1.731-16.674-2.645-25.371-2.645-67.753 0-122.902 55.16-122.902 122.902h50.755c0-59.043 41.898-108.522 97.518-120.257z" fill="#f9bcaf"/></g><g><circle cx="256.01" cy="254.822" fill="#ffdfcf" r="147.188"/></g><g><path d="m159.577 254.823c0-72.635 52.616-132.975 121.811-145.002-8.245-1.433-16.723-2.187-25.377-2.187-81.29 0-147.188 65.898-147.188 147.188s65.898 147.188 147.188 147.188c8.655 0 17.132-.754 25.377-2.187-69.195-12.026-121.811-72.366-121.811-145z" fill="#ffcebf"/></g><g><g><g><ellipse cx="175.253" cy="304.555" fill="#fda0c1" rx="29.798" ry="23.73"/></g><g><ellipse cx="336.768" cy="304.555" fill="#fda0c1" rx="29.798" ry="23.73"/></g></g><g><path d="m192.62 289.213c-4.143 0-7.5-3.357-7.5-7.5v-12.182c0-4.143 3.357-7.5 7.5-7.5s7.5 3.357 7.5 7.5v12.182c0 4.142-3.358 7.5-7.5 7.5z" fill="#6e6e6e"/></g><g><path d="m319.401 289.213c-4.143 0-7.5-3.357-7.5-7.5v-12.182c0-4.143 3.357-7.5 7.5-7.5s7.5 3.357 7.5 7.5v12.182c0 4.142-3.357 7.5-7.5 7.5z" fill="#6e6e6e"/></g><g><path d="m256.01 296.464c-8.573 0-16.726-3.713-22.367-10.187-2.722-3.123-2.396-7.86.727-10.582s7.859-2.396 10.582.727c2.792 3.204 6.822 5.042 11.059 5.042s8.267-1.838 11.059-5.042c2.72-3.122 7.457-3.448 10.582-.727 3.122 2.722 3.448 7.459.727 10.582-5.643 6.474-13.795 10.187-22.369 10.187z" fill="#6e6e6e"/></g></g></g></svg>