<?xml version="1.0" encoding="iso-8859-1"?>
<!-- Generator: Adobe Illustrator 19.0.0, SVG Export Plug-In . SVG Version: 6.00 Build 0)  -->
<svg version="1.1" id="Capa_1" xmlns="http://www.w3.org/2000/svg" xmlns:xlink="http://www.w3.org/1999/xlink" x="0px" y="0px"
	 viewBox="0 0 512 512" style="enable-background:new 0 0 512 512;" xml:space="preserve">
<path style="fill:#FFDBBD;" d="M512,262.891c0-30.244-23.704-54.948-53.546-56.557c-2.551-6.956-5.168-13.099-7.634-17.831
	C418.877,113.478,344.493,60.657,258.553,60.082c-0.096-0.003-0.189-0.014-0.286-0.016c-0.759-0.012-1.51,0.012-2.268,0.008
	c-0.757,0.004-1.509-0.02-2.268-0.008c-0.096,0.002-0.19,0.013-0.286,0.016c-85.94,0.576-160.324,53.397-192.266,128.422
	c-2.467,4.732-5.083,10.875-7.634,17.831C23.704,207.943,0,232.647,0,262.891c0,29.12,21.978,53.097,50.249,56.275
	c12.679,52.627,45.572,94.758,90.123,123.712c8.977,5.834,22.442,12.626,30.21,19.994c18.394,17.449,46.39,29.095,84.238,29.095
	c0.392,0,0.786-0.061,1.181-0.151c0.395,0.089,0.789,0.151,1.181,0.151c37.848,0,65.844-11.646,84.238-29.095
	c7.767-7.368,21.233-14.16,30.21-19.994c44.551-28.954,77.444-71.085,90.123-123.712C490.022,315.988,512,292.011,512,262.891z"/>
<path style="fill:#F4CAAE;" d="M458.454,206.334c-2.551-6.956-5.168-13.099-7.634-17.831
	C418.877,113.478,344.493,60.657,258.553,60.082c-0.096-0.003-0.189-0.014-0.286-0.016c-0.759-0.012-1.51,0.012-2.268,0.008
	c-0.757,0.004-1.509-0.02-2.268-0.008c-0.096,0.002-0.19,0.013-0.286,0.016c-8.46,0.057-16.818,0.558-25.045,1.476
	c75.827,9.049,139.784,58.85,168.777,126.946c2.467,4.732,5.083,10.875,7.634,17.831c0,0,17.785,50.597,3.298,112.832
	c-12.679,52.627-45.572,94.758-90.123,123.712c-8.977,5.834-22.442,12.626-30.21,19.995c-14.496,13.752-34.963,23.894-61.51,27.576
	c8.802,1.038,18.313,1.518,28.552,1.518c0.392,0,0.786-0.061,1.181-0.151c0.395,0.089,0.789,0.151,1.181,0.151
	c37.848,0,65.844-11.646,84.238-29.095c7.767-7.368,21.233-14.16,30.21-19.995c44.551-28.954,77.444-71.085,90.123-123.712
	C490.022,315.988,512,292.011,512,262.891C512,232.647,488.296,207.943,458.454,206.334z"/>
<g>
	<path style="fill:#F77FA4;" d="M240.126,79.244c0,32.702-56.036,59.212-81.467,59.212s-46.047-26.51-46.047-59.212
		s20.616-59.212,46.047-59.212S240.126,46.542,240.126,79.244z"/>
	<path style="fill:#F77FA4;" d="M271.874,79.244c0,32.702,56.036,59.212,81.467,59.212s46.047-26.51,46.047-59.212
		s-20.616-59.212-46.047-59.212C327.91,20.032,271.874,46.542,271.874,79.244z"/>
</g>
<path style="fill:#DD6FA1;" d="M399.326,76.177c-0.005-0.12-0.016-0.237-0.021-0.357c-0.04-0.898-0.09-1.793-0.16-2.679
	c-0.003-0.032-0.007-0.064-0.009-0.096c-0.16-1.975-0.394-3.922-0.702-5.835c0,0,0,0,0-0.001l0,0
	c-4.324-26.93-22.869-47.176-45.093-47.176c-8.074,0-19.233,2.675-30.704,7.369c14.187,10.09,23.797,29.52,23.797,51.842
	c0,0.122,0,0.245-0.001,0.367c-0.088,18.639-20.233,30.194-36.633,21.336c-15.608-8.43-29.84-20.245-35.425-33.738
	c-1.608,3.886-2.502,7.911-2.502,12.035c0,22.319,26.103,41.751,50.763,51.842l0,0c0.003,0.001,0.005,0.002,0.008,0.003
	c2.125,0.87,4.239,1.669,6.325,2.396c0.046,0.016,0.092,0.032,0.138,0.048c2.067,0.717,4.105,1.362,6.098,1.93
	c0.057,0.016,0.113,0.032,0.17,0.048c0.585,0.166,1.166,0.325,1.742,0.477c0.098,0.026,0.197,0.052,0.295,0.078
	c0.599,0.156,1.194,0.306,1.782,0.448c0.029,0.007,0.059,0.015,0.088,0.022c0.642,0.154,1.279,0.299,1.908,0.435
	c0.023,0.005,0.046,0.01,0.07,0.015c0.564,0.121,1.122,0.234,1.674,0.342c0.138,0.027,0.275,0.052,0.413,0.078
	c0.45,0.084,0.895,0.164,1.337,0.239c0.144,0.024,0.289,0.049,0.432,0.073c0.505,0.082,1.005,0.158,1.498,0.227
	c0.055,0.008,0.111,0.017,0.165,0.024c0.547,0.075,1.084,0.14,1.614,0.198c0.129,0.014,0.255,0.025,0.383,0.038
	c0.392,0.04,0.78,0.076,1.162,0.106c0.167,0.013,0.332,0.025,0.496,0.037c0.355,0.024,0.704,0.044,1.049,0.06
	c0.149,0.007,0.299,0.015,0.447,0.02c0.479,0.017,0.952,0.028,1.412,0.028c25.431,0,46.047-26.51,46.047-59.211
	C399.387,78.215,399.367,77.193,399.326,76.177z"/>
<path style="fill:#73E7E6;" d="M270.006,117.429h-28.011c-7.998,0-14.482-6.484-14.482-14.482V55.541
	c0-7.998,6.484-14.482,14.482-14.482h28.011c7.998,0,14.482,6.484,14.482,14.482v47.407
	C284.488,110.945,278.004,117.429,270.006,117.429z"/>
<g>
	<path style="fill:#D3AA8C;" d="M51.158,290.099c-12.85-2.55-22.274-13.857-22.274-27.209c0-13.4,9.508-24.672,22.274-27.217
		C51.158,235.674,48.878,287.819,51.158,290.099z"/>
	<path style="fill:#D3AA8C;" d="M460.842,290.099c12.85-2.55,22.274-13.857,22.274-27.209c0-13.4-9.508-24.672-22.274-27.217
		V290.099z"/>
</g>
<g>
	<path style="fill:#BC8E82;" d="M187.185,267.957c0,4.273,3.464,7.737,7.737,7.737s7.737-3.463,7.737-7.737
		c0-17.456-14.201-31.657-31.657-31.657s-31.657,14.201-31.657,31.657c0,4.273,3.464,7.737,7.737,7.737s7.737-3.463,7.737-7.737
		c0-8.923,7.26-16.184,16.184-16.184C179.925,251.773,187.185,259.033,187.185,267.957z"/>
	<path style="fill:#BC8E82;" d="M340.998,236.3c-17.456,0-31.657,14.201-31.657,31.657c0,4.273,3.464,7.737,7.737,7.737
		s7.737-3.463,7.737-7.737c0-8.923,7.26-16.184,16.183-16.184c8.924,0,16.184,7.26,16.184,16.184c0,4.273,3.464,7.737,7.737,7.737
		s7.737-3.463,7.737-7.737C372.655,250.501,358.454,236.3,340.998,236.3z"/>
</g>
<path style="fill:#DD6FA1;" d="M160.601,138.403c0.399-0.019,0.805-0.044,1.216-0.075c0.136-0.01,0.27-0.019,0.407-0.03
	c0.536-0.045,1.081-0.097,1.637-0.16c0.087-0.01,0.177-0.022,0.265-0.033c0.478-0.057,0.963-0.12,1.455-0.19
	c0.161-0.023,0.323-0.047,0.486-0.071c0.486-0.073,0.977-0.152,1.475-0.238c0.104-0.018,0.206-0.034,0.311-0.052
	c0.601-0.106,1.211-0.222,1.828-0.347c0.13-0.026,0.262-0.055,0.392-0.082c0.502-0.104,1.009-0.214,1.52-0.329
	c0.163-0.037,0.325-0.073,0.489-0.111c0.623-0.145,1.251-0.295,1.886-0.456c0.008-0.002,0.016-0.004,0.024-0.006
	c0.001,0,0.001,0,0.002-0.001c1.103-0.281,2.224-0.587,3.358-0.917c0.02-0.006,0.04-0.012,0.06-0.018
	c0.016-0.005,0.031-0.009,0.046-0.014c1.099-0.321,2.211-0.665,3.333-1.031c0.032-0.01,0.063-0.021,0.095-0.031
	c0.042-0.014,0.085-0.028,0.127-0.042c1.094-0.36,2.198-0.74,3.309-1.141c0.075-0.027,0.15-0.055,0.226-0.082
	c1.124-0.408,2.254-0.836,3.388-1.285c0.056-0.022,0.112-0.044,0.168-0.066c1.17-0.465,2.344-0.951,3.521-1.457
	c0.014-0.006,0.029-0.012,0.043-0.018c1.654-0.714,3.311-1.469,4.962-2.263c0.015-0.007,0.03-0.014,0.045-0.021
	c1.654-0.796,3.303-1.631,4.937-2.503c0.003-0.002,0.005-0.003,0.008-0.004c9.85-5.258,19.188-11.867,26.203-19.399
	c-0.201-0.962-0.31-1.958-0.31-2.98V78.386V55.541c0-0.001,0-0.001,0-0.002c0-0.508,0.028-1.011,0.079-1.506
	c0.001-0.011,0.004-0.021,0.005-0.032c0.051-0.485,0.126-0.964,0.224-1.433l0,0c-2.617-2.811-6.544-6.261-11.115-9.885
	c-12.959-9.704-29.141-16.965-42.715-20.417c16.99,31.442,16.119,54.23,11.469,68.773c-3.725,11.65-14.569,19.541-26.8,19.564
	c-21.699,0-39.881-19.306-44.754-45.285c-0.199,1.06-0.372,2.132-0.527,3.212c-0.018,0.126-0.035,0.252-0.052,0.378
	c-0.13,0.942-0.239,1.893-0.334,2.85c-0.022,0.221-0.046,0.44-0.065,0.662c-0.08,0.882-0.139,1.772-0.188,2.665
	c-0.014,0.26-0.035,0.517-0.046,0.777c-0.05,1.12-0.08,2.246-0.08,3.382c0,4.088,0.322,8.079,0.935,11.933
	c0.613,3.855,1.518,7.573,2.683,11.115c0.291,0.885,0.599,1.76,0.922,2.623c0.97,2.588,2.082,5.072,3.323,7.435
	c0.414,0.788,0.842,1.561,1.284,2.322c1.768,3.04,3.757,5.853,5.938,8.402s4.552,4.832,7.084,6.81
	c1.266,0.989,2.572,1.902,3.914,2.733c6.039,3.742,12.811,5.839,19.963,5.839c0.489,0,0.992-0.013,1.503-0.032
	C160.307,138.417,160.454,138.41,160.601,138.403z"/>
<path style="fill:#65D1CB;" d="M270.006,41.059h-13.834v76.371h13.834c7.998,0,14.482-6.484,14.482-14.482V55.541
	C284.488,47.542,278.004,41.059,270.006,41.059z"/>
<path style="fill:#48E5FF;" d="M292.46,346.505c-6.979,0-15.174,1.404-23.543,3.94c-8.427,2.554-17.407,2.554-25.834,0
	c-8.369-2.537-16.564-3.94-23.543-3.94c-27.944,0-50.598,22.476-50.598,50.203c0,27.726,22.654,50.203,50.598,50.203
	c6.979,0,15.174-1.404,23.543-3.941c8.427-2.554,17.407-2.554,25.834,0c8.369,2.537,16.564,3.941,23.543,3.941
	c27.945,0,50.598-22.477,50.598-50.203C343.058,368.982,320.405,346.505,292.46,346.505z"/>
<path style="fill:#1AD8E2;" d="M292.46,346.505c-6.979,0-15.174,1.404-23.543,3.941c-2.255,0.683-4.55,1.178-6.863,1.495
	c16.437,8.291,27.706,25.218,27.706,44.767s-11.269,36.475-27.706,44.767c2.313,0.318,4.608,0.812,6.862,1.496
	c8.369,2.537,16.564,3.94,23.543,3.94c27.944,0,50.598-22.477,50.598-50.203C343.058,368.981,320.405,346.505,292.46,346.505z"/>
<path style="fill:#FF9F40;" d="M268.976,480.763h-25.952c-23.046,0-41.796-18.749-41.796-41.796v-11.438
	c0-20.111,16.362-36.473,36.473-36.473h36.598c20.111,0,36.472,16.362,36.472,36.473v11.438
	C310.772,462.014,292.022,480.763,268.976,480.763z M237.701,406.529c-11.579,0-21,9.42-21,21v11.438
	c0,14.514,11.809,26.323,26.323,26.323h25.952c14.514,0,26.322-11.809,26.322-26.323v-11.438c0-11.58-9.42-21-20.999-21H237.701z"/>
<circle style="fill:#F77FA4;" cx="256" cy="397.36" r="20.11"/>
<path style="fill:#DD6FA1;" d="M256.043,377.253v40.215c11.086-0.023,20.067-9.016,20.067-20.107
	C276.11,386.269,267.129,377.277,256.043,377.253z"/>
<g>
</g>
<g>
</g>
<g>
</g>
<g>
</g>
<g>
</g>
<g>
</g>
<g>
</g>
<g>
</g>
<g>
</g>
<g>
</g>
<g>
</g>
<g>
</g>
<g>
</g>
<g>
</g>
<g>
</g>
</svg>
