<svg height="512" viewBox="0 0 96 96" width="512" xmlns="http://www.w3.org/2000/svg"><g id="Fetus"><path d="m48 95.52a47.51 47.51 0 1 1 47.5-47.52 47.56 47.56 0 0 1 -47.5 47.52z" fill="#f7527b"/><path d="m89.25 48a41.26 41.26 0 1 1 -81.52-9.06 14.59 14.59 0 0 1 7.7-9.77c10.51-5.31 8-3.57 14.21-9.43l6.2-5.86a15.81 15.81 0 0 1 6.45-3.7l5.51-1.59a21.93 21.93 0 0 1 12.86.14 41.27 41.27 0 0 1 28.59 39.27z" fill="#d42553"/><path d="m48 78.27a30.27 30.27 0 0 1 -29.54-36.92 3.61 3.61 0 0 1 1.93-2.35c12.57-6.35 8.71-3.61 23-17.12a4.84 4.84 0 0 1 2-1.13l5.49-1.58a10.94 10.94 0 0 1 6.44 0 30.27 30.27 0 0 1 -9.32 59.1z" fill="#a22a53"/><path d="m39.38 49.87a1 1 0 0 1 -1.34.47 1 1 0 0 1 -.47-1.34 17.77 17.77 0 0 0 1.3-6.9 19.42 19.42 0 0 0 -1.33-7.1c-1.86-4.85-6.93-7.31-9.41-13.86l1.51-1.43a1 1 0 0 1 .23.36c2.26 6.43 7.4 8.67 9.54 14.21a20.72 20.72 0 0 1 -.03 15.59z" fill="#f7527b"/><path d="m65.07 48 .63-.81a2.29 2.29 0 0 1 4.08 1.2l.15 1.61a4.06 4.06 0 0 1 -2.73 4.23" fill="#fff" stroke="#302d3d" stroke-linecap="round" stroke-linejoin="round" stroke-width="2"/><path d="m40.39 81.65c-5.47-.31-10.22-4.72-10.07-10.2a12.63 12.63 0 0 1 11.27-12.71c1.11-.13 2.45-.1 4-.18 4.38 0 9.58-1.35 13-4.39a30.2 30.2 0 0 1 -2.27-4.17l-1.15-.48a1.94 1.94 0 0 1 -1.17-2.15 7.16 7.16 0 0 0 .2-3c-.76-3.18-.67-7.42 1.41-10.22 5.13-6.96 14.39-7.41 19.49-3.45 18.19 14.06-.61 52.7-34.71 50.95z" fill="#fbc4ab"/><path d="m75.65 50.47c1.25-5.65.43-11.43-4.21-15-2.69-2.06-8-1.77-11 2.24-2.59 3.48 1.45 10.47 4.27 14.74a6.06 6.06 0 0 0 10.94-1.98z" fill="#fbddc9"/><path d="m32 76.84c-4.1-6.41-.18-17.62-.18-17.62a32.12 32.12 0 0 1 -6 7.87 4.85 4.85 0 0 1 -6.82-.09l-3.91-3.91a4.32 4.32 0 0 1 -.84-4.89l1.13-2.38a1 1 0 0 1 1.67-.28l3.16 3.15c.44-.63.95-1.37 1.51-2.23 3.52-5.36 9.09-10.8 14.87-8.32 7.29 3.14 4.54 18.68 4.54 18.68z" fill="#fbc4ab"/><path d="m60.82 57.91s-9.73.34-10-8a19.8 19.8 0 0 0 -1.48-6.91 2.05 2.05 0 0 0 -3.89 1.3 14.41 14.41 0 0 1 .21 7c-1.1 6.23-.39 14.09 9.24 13.39z" fill="#fbc4ab"/><g fill="#fb9c88"><path d="m43.09 66.6a1 1 0 1 1 -2-.35 39.89 39.89 0 0 0 .47-7.51 16.76 16.76 0 0 1 2-.11 40.39 40.39 0 0 1 -.47 7.97z"/><path d="m54.86 64.58a1 1 0 0 1 -.93 1.07c-6.11.44-9.43-2.35-10.38-7l2-.07c0 .07 0 .13.05.2.23.34.72 5.44 8.16 4.9a1 1 0 0 1 1.1.9z"/><path d="m62.38 57a1 1 0 0 1 -1 1 13.46 13.46 0 0 1 -6.54-1.5 16.18 16.18 0 0 0 2.18-1.21 13.09 13.09 0 0 0 4.29.71 1 1 0 0 1 1.07 1z"/></g></g></svg>