<svg height="400pt" viewBox="0 0 400 400" width="400pt" xmlns="http://www.w3.org/2000/svg"><path d="m296 192c-39.054688-40.175781-104-56-104-56s.175781-.375.425781-.929688c18.410157-3.964843 31.558594-20.238281 31.574219-39.070312 0-32-35.039062-49.015625-56-56-16.152344-6.566406-30.046875-17.683594-40-32h-120c0 120 16 120 40 224 24.464844 106.023438-24 104-24 160h216s-11.769531-19.878906 14.640625-41.3125c42.320313-7.140625 73.316406-43.769531 73.359375-86.6875-.933594-27.238281-12.40625-53.054688-32-72zm0 0" fill="#ef6270"/><path d="m240 400h-216c-4.417969 0-8-3.582031-8-8 .234375-18.207031 5.492188-35.996094 15.199219-51.398438 11.59375-21.539062 23.570312-43.800781 9.023437-106.800781-7.335937-31.800781-13.816406-53.464843-19.535156-72.585937-12.910156-43.046875-20.6875-69.03125-20.6875-153.214844 0-4.417969 3.582031-8 8-8h120c2.667969 0 5.164062 1.332031 6.648438 3.550781 8.972656 12.832031 21.421874 22.84375 35.878906 28.855469 18.480468 6.160156 61.472656 24.691406 61.472656 63.59375-.054688 14.929688-7.023438 28.988281-18.871094 38.070312 22.910156 7.921876 61.40625 24.378907 88.605469 52.355469 21.089844 20.40625 33.386719 48.238281 34.265625 77.574219.113281 46.046875-32.609375 85.632812-77.855469 94.183594-18.128906 15.648437-12 28.425781-11.199219 29.855468 1.371094 2.503907 1.324219 5.542969-.121093 8-1.421875 2.429688-4.011719 3.933594-6.824219 3.960938zm-207.617188-16h197.128907c-.9375-10.832031 2.953125-25.601562 20.089843-39.527344 1.074219-.871094 2.355469-1.453125 3.71875-1.679687 38.535157-6.367188 66.773438-39.734375 66.679688-78.792969-.902344-25.15625-11.566406-48.976562-29.734375-66.398438-37.027344-38.089843-99.53125-53.648437-100.152344-53.800781-2.339843-.570312-4.296875-2.160156-5.332031-4.332031s-1.035156-4.695312-.003906-6.867188l.382812-.800781c1.046875-2.304687 3.125-3.972656 5.601563-4.496093 14.707031-3.230469 25.199219-16.246094 25.238281-31.304688 0-28.496094-35.335938-43.34375-50.527344-48.40625-16.53125-6.433594-30.921875-17.378906-41.535156-31.59375h-107.9375c.480469 75.542969 7.910156 100.367188 19.960938 140.632812 5.800781 19.34375 12.359374 41.261719 19.816406 73.597657 15.886718 68.875 1.855468 94.960937-10.53125 117.976562-6.804688 10.871094-11.195313 23.078125-12.863282 35.792969zm0 0" fill="#002969"/><path d="m144 120-16-48" fill="#ef6270"/><path d="m144 128c-3.441406-.003906-6.496094-2.207031-7.585938-5.472656l-16-48c-1.394531-4.195313.875-8.730469 5.074219-10.128906 4.195313-1.394532 8.730469.875 10.128907 5.074218l16 48c.8125 2.441406.398437 5.128906-1.109376 7.214844-1.511718 2.089844-3.933593 3.320312-6.507812 3.3125zm0 0" fill="#002969"/><path d="m78.398438 128 43.898437 92.527344c6.527344 13.019531 19.613281 21.46875 34.164063 22.0625 14.554687.59375 28.28125-6.761719 35.851562-19.207032 9.839844-16 27.910156-48.511718 43.121094-78.285156 5.597656-11.019531.933594-25.097656-11.433594-25.097656-8 0-16 0-32 16l-32 32-16-48-65.601562 8-30.398438-64" fill="#ffbba6"/><path d="m158.070312 250.625c-.734374 0-1.460937 0-2.207031-.050781-17.421875-.644531-33.078125-10.808594-40.75-26.460938l-44-92.679687-30.351562-64c-1.773438-3.96875-.054688-8.625 3.871093-10.488282 3.921876-1.867187 8.617188-.257812 10.574219 3.621094l27.90625 58.792969 59.902344-7.304687c3.777344-.457032 7.351563 1.808593 8.550781 5.417968l11.921875 35.71875 22.839844-22.847656c17.007813-16.992188 26.726563-18.34375 37.671875-18.34375 7.414062-.125 14.339844 3.703125 18.167969 10.054688 4.648437 8.253906 4.785156 18.304687.359375 26.679687-16.246094 31.792969-34.152344 63.730469-43.4375 78.832031-8.660156 14.375-24.238282 23.132813-41.019532 23.058594zm-67.71875-116 39.144532 82.503906c5.125 10.359375 15.519531 17.074219 27.070312 17.488282 11.726563.527343 22.808594-5.382813 28.898438-15.417969 9.109375-14.839844 26.75-46.3125 42.816406-77.734375 1.878906-3.421875 1.96875-7.546875.238281-11.050782-.921875-1.601562-2.675781-2.539062-4.519531-2.414062-7.089844 0-12.6875 0-26.34375 13.65625l-32 32c-1.960938 1.957031-4.796875 2.761719-7.492188 2.125-2.695312-.636719-4.871093-2.625-5.75-5.253906l-13.933593-41.800782zm0 0" fill="#002969"/><path d="m264 248.054688-2.832031-2.824219c-7.808594-7.804688-20.46875-7.804688-28.28125 0-7.804688 7.8125-7.804688 20.472656 0 28.28125l31.113281 31.113281 31.113281-31.113281c7.804688-7.808594 7.804688-20.46875 0-28.28125-7.8125-7.804688-20.472656-7.804688-28.28125 0zm0 0" fill="#f35cb5"/><path d="m264 312.632812c-2.121094 0-4.15625-.84375-5.65625-2.34375l-31.144531-31.089843c-10.933594-10.933594-10.933594-28.664063 0-39.597657 10.039062-9.65625 25.5625-10.699218 36.800781-2.472656 11.238281-8.230468 26.765625-7.183594 36.800781 2.480469 10.929688 10.933594 10.929688 28.65625 0 39.589844l-31.113281 31.121093c-1.511719 1.496094-3.558594 2.328126-5.6875 2.3125zm-16.96875-65.257812c-4.851562.003906-9.226562 2.925781-11.082031 7.40625-1.859375 4.480469-.832031 9.640625 2.59375 13.074219l25.457031 25.464843 25.457031-25.464843c4.683594-4.683594 4.683594-12.28125 0-16.96875-4.746093-4.539063-12.222656-4.539063-16.96875 0l-2.832031 2.824219c-3.125 3.125-8.1875 3.125-11.3125 0l-2.832031-2.824219c-2.246094-2.253907-5.296875-3.519531-8.480469-3.511719zm0 0" fill="#002969"/><path d="m296 16h80c8.835938 0 16 7.164062 16 16v16h-112v-16c0-8.835938 7.164062-16 16-16zm0 0" fill="#ef6270"/><path d="m392 56h-112c-4.417969 0-8-3.582031-8-8v-16c0-13.253906 10.746094-24 24-24h80c13.253906 0 24 10.746094 24 24v16c0 4.417969-3.582031 8-8 8zm-104-16h96v-8c0-4.417969-3.582031-8-8-8h-80c-4.417969 0-8 3.582031-8 8zm0 0" fill="#002969"/><path d="m280 48h112v64c0 8.835938-7.164062 16-16 16h-80c-8.835938 0-16-7.164062-16-16zm0 0" fill="#50f8cc"/><g fill="#002969"><path d="m376 136h-80c-13.253906 0-24-10.746094-24-24v-64c0-4.417969 3.582031-8 8-8h112c4.417969 0 8 3.582031 8 8v64c0 13.253906-10.746094 24-24 24zm-88-80v56c0 4.417969 3.582031 8 8 8h80c4.417969 0 8-3.582031 8-8v-56zm0 0"/><path d="m312 32c-4.417969 0-8-3.582031-8-8v-16c0-4.417969 3.582031-8 8-8s8 3.582031 8 8v16c0 4.417969-3.582031 8-8 8zm0 0"/><path d="m360 32c-4.417969 0-8-3.582031-8-8v-16c0-4.417969 3.582031-8 8-8s8 3.582031 8 8v16c0 4.417969-3.582031 8-8 8zm0 0"/><path d="m336 112c-4.417969 0-8-3.582031-8-8v-16c-3.234375 0-6.152344-1.949219-7.390625-4.9375s-.550781-6.429688 1.734375-8.71875l8-8c2.289062-2.285156 5.730469-2.972656 8.71875-1.734375s4.9375 4.15625 4.9375 7.390625v32c0 4.417969-3.582031 8-8 8zm0 0"/></g><path d="m245.367188 360h-214.902344c-4.371094 10.097656-6.574219 21-6.464844 32h216c-4.921875-10.761719-2.796875-23.433594 5.367188-32zm0 0" fill="#50f8cc"/><path d="m240 400h-216c-4.417969 0-8-3.582031-8-8-.097656-12.074219 2.324219-24.039062 7.105469-35.128906 1.253906-2.953125 4.15625-4.875 7.367187-4.871094h214.894532c3.066406 0 5.859374 1.753906 7.195312 4.507812 1.335938 2.757813.980469 6.039063-.914062 8.445313-6.011719 6.046875-7.871094 15.074219-4.746094 23.007813 1.449218 2.472656 1.460937 5.53125.035156 8.019531-1.425781 2.484375-4.070312 4.019531-6.9375 4.019531zm-207.617188-16h197.21875c-.503906-5.425781.21875-10.890625 2.109376-16h-195.765626c-1.828124 5.171875-3.023437 10.542969-3.5625 16zm0 0" fill="#002969"/></svg>