<svg id="Capa_1" enable-background="new 0 0 512 512" height="512" viewBox="0 0 512 512" width="512" xmlns="http://www.w3.org/2000/svg"><g><path d="m409.613 501.851s24.001-27.559 24.001-80.882c0-84.868-66.544-121.831-66.544-207.395 0-71.615 42.826-133.654 52.522-205.962h-271.659c-11.892 0-23.437 4.515-31.841 12.929-25.051 25.078-25.478 67.969 4.998 91.703-66.12 34.728-101.098 105.809-101.098 184.883 0 41.579 11.107 80.095 32.192 114.269 36.866 45.792 75.758 69.842 126.051 90.455z" fill="#ffcdbe"/><path d="m439.387 7.611h-19.796c-9.695 72.308-67.745 124.199-67.745 195.813 0 85.565 66.544 122.528 66.544 207.395 0 22.884-5.355 41.023-11.469 54.275-7.476 16.205-23.659 26.607-41.506 26.607h-147.67c-69.717 0-134.843-50.403-165.561-80.307 20.568 33.337 50.631 62.541 89.168 86.413v6.579c0 4.204 3.408 7.612 7.611 7.612h260.031c10.422 0 20.179-5.292 25.705-14.128 8.257-13.203 18.198-35.574 18.198-66.754 0-84.868-66.544-121.831-66.544-207.395 0-72.73 59.882-125.113 68.171-199.203 1.009-9.016-6.064-16.907-15.137-16.907z" fill="#ebae9d"/><path d="m307.686 471.238c67.249-38.826 62.718-109.918 35.543-156.986l-65.268-113.047c-4.614-7.991-10.156-15.761-16.503-22.969-30.812-24-83.177-44.155-129.104-17.639-67.248 38.825-93.414 148.772-42.756 236.515 7.668 13.281 26.812 35.432 36.778 46.118 55.225 45.899 130.146 57.547 181.31 28.008z" fill="#df646e"/><path d="m142.503 170.745c45.926-26.516 88.143-16.51 118.955 7.491-31.039-35.243-81.391-56.978-137.223-24.743-67.249 38.826-93.415 148.773-42.756 236.516 12.117 20.987 27.536 38.793 44.897 53.222-9.967-10.687-18.962-22.689-26.63-35.97-50.658-87.743-24.492-197.69 42.757-236.516z" fill="#ca4646"/><path d="m242.464 444.062c44.758-4.068 77.743-43.649 73.676-88.406-1.377-15.152-10.199-32.862-23.032-44.401-.001-.001-.002-.001-.003-.002 3.617-14.05-7.884-23.416-22.251-16.74l-31.391-36.741v-20.297c-4.132-6.183-10.79-10.476-18.467-11.492l-1.267-23.54-6.15-7.511-30.571 9.409-21.17-7.066c-23.848-8.111-43.674 1.753-54.432 20.169-13.761 23.554-15.799 68.591 8.803 105.351 23.116 25.102 56.72 44.42 56.72 44.42s.787 8.658 1.604 17.65c1.322 14.546 6.564 27.789 14.575 38.8 12.661 13.632 35.195 22.047 53.356 20.397z" fill="#f6c4c8"/><g><path d="m250.844 323.886c-3.273 0-6.296-2.128-7.286-5.423-3.427-11.407-1.886-26.188 3.585-34.381 2.336-3.496 21.721-2.103 21.721-2.103s-6.726 7.061-9.06 10.557c-2.294 3.436-4.208 13.086-1.666 21.546 1.21 4.026-1.073 8.27-5.099 9.48-.732.219-1.469.324-2.195.324z" fill="#e09380"/></g><g fill="#e6989e"><path d="m162.164 346.753c-20.19-7.042-35.19-15.02-45.958-23.96 11.996 17.925 30.325 33.882 56.72 44.42l-.681-7.488c-.538-5.921-4.467-11.014-10.081-12.972z"/><path d="m191.835 246.224-13.601 59.261c-.94 4.097-5.024 6.656-9.121 5.716s-6.656-5.024-5.716-9.121l15.056-65.599z"/><path d="m148.028 236.169c-4.097-.94-6.656-5.024-5.716-9.121s5.024-6.656 9.121-5.716l34.524 7.924c15.998 3.722 29.873-10.654 33.77-26.814 16.054 20.43-2.585 49.669-27.892 43.782z"/><path d="m330.024 370.731c-2.318-25.505-16.657-47.023-36.917-59.476 8.001 11.006 13.227 24.248 14.549 38.784 3.902 42.939-27.743 80.911-70.681 84.813-17.423 1.583-34.027-2.687-47.87-11.188 15.635 21.492 41.846 34.461 70.238 31.881 42.938-3.904 74.583-41.876 70.681-84.814z"/></g><path d="m205.966 197.273c5.142-7.811 3.132-17.571-.285-20.687-3.448-2.55-7.921-4.425-13.394-5.117-19.195-2.426-28.339 3.247-30.312 12.761-1.095 5.279.312 10.349 4.95 14.742 16.078 8.501 31.645 9.535 39.041-1.699z" fill="#f6c4c8"/><path d="m205.68 176.586c.06 1.695-.078 3.384-.421 5.04-2.731 13.169-18.182 23.212-38.335 17.346 3.721 3.524 9.519 6.613 17.789 9.02 15.174 4.416 26.808-3.145 28.865-13.061 1.338-6.455-1.468-13.591-7.898-18.345z" fill="#e6989e"/><path d="m481.859 181.109c0-24.602-12.799-56.103-32.262-75.567-18.144-13.869-40.817-22.114-65.419-22.114-59.553 0-107.83 48.277-107.83 107.83 0 24.602 8.245 47.274 22.114 65.419 19.387 19.387 50.966 32.262 75.567 32.262 59.553-.001 107.83-48.278 107.83-107.83z" fill="#ffe07d"/><path d="m391.79 93.952v-67.965l23.59 23.59c1.487 1.487 3.434 2.229 5.383 2.229 1.947 0 3.896-.743 5.383-2.229 2.972-2.972 2.972-7.792 0-10.764l-36.585-36.584c-1.428-1.427-3.364-2.229-5.383-2.229s-3.954.802-5.383 2.229l-36.585 36.584c-2.972 2.972-2.972 7.792 0 10.764s7.791 2.973 10.765 0l23.591-23.591v67.964h15.224z" fill="#e69824"/><path d="m449.597 105.541c13.869 18.144 22.114 40.817 22.114 65.419 0 59.553-48.277 107.83-107.83 107.83-24.602 0-47.274-8.245-65.418-22.114 19.703 25.778 50.765 42.411 85.716 42.411 59.553 0 107.83-48.277 107.83-107.83-.001-34.951-16.635-66.012-42.412-85.716z" fill="#ffc250"/><path d="m428.885 278.424c-2.63 0-5.189-1.365-6.599-3.807l-5.86-10.151h-45.863l-5.86 10.151c-2.102 3.64-6.756 4.888-10.397 2.786-3.64-2.102-4.888-6.757-2.786-10.397l4.394-7.612-12.332-42.258h-20.854c-4.204 0-7.612-3.408-7.612-7.611 0-4.204 3.407-7.611 7.612-7.611l7.801-6.788 22.932-39.719-.753-1.303h-10.453c-4.204 0-7.612-3.408-7.612-7.611 0-4.204 3.407-7.611 7.612-7.611l10.928-6.788c2.72 0 13.461 15.703 13.461 15.703h50.258l31.721 47.33 6.851 6.788h8.789c4.204 0 7.612 3.408 7.612 7.611 0 4.204-3.407 7.611-7.612 7.611h-11.721l-22.932 39.719 5.86 10.151c2.102 3.641.854 8.296-2.786 10.397-1.198.691-2.507 1.02-3.799 1.02zm-62.241-35.969h45.863l22.932-39.719-14.606-32.93h-50.27l-25.135 43.535z" fill="#ffc250"/><path d="m270.789 360.552c1.232 0 2.482-.3 3.639-.932 3.69-2.014 5.049-6.638 3.035-10.328-.712-1.304-.873-2.807-.454-4.233.419-1.425 1.368-2.603 2.672-3.314 3.69-2.014 5.049-6.638 3.035-10.328-2.014-3.689-6.636-5.049-10.327-3.035-4.874 2.66-8.419 7.058-9.985 12.385-1.565 5.327-.962 10.945 1.698 15.818 1.381 2.532 3.991 3.967 6.687 3.967z" fill="#e09380"/><path d="m243.547 413.341c2.712 0 5.47-.416 8.187-1.291 11.865-3.822 18.409-16.585 14.588-28.451-1.288-4.001-5.58-6.2-9.578-4.911-4.002 1.288-6.201 5.577-4.912 9.578 1.248 3.876-.89 8.046-4.765 9.294-6.061 1.95-12.573-1.389-14.524-7.447-1.248-3.876.89-8.046 4.766-9.294 4.001-1.289 6.2-5.577 4.911-9.578-1.288-4.001-5.573-6.201-9.579-4.911-11.865 3.822-18.409 16.585-14.588 28.451 3.65 11.329 14.184 18.56 25.494 18.56z" fill="#e6989e"/><path d="m245.483 256.624-2.174-10.067c-.715-3.311-2.04-6.378-3.847-9.082-13.655 6.558-21.524 17.135-23.292 31.607l-5.516 45.129c-.514 4.205-2.178 8.182-4.813 11.502-2.407 3.034-7.715 7.469-9.56 8.924-3.302 2.601-3.871 7.387-1.27 10.689 1.501 1.907 3.731 2.902 5.984 2.902 1.648 0 3.309-.533 4.705-1.632.82-.646 8.122-6.451 12.065-11.421 4.379-5.517 7.144-12.128 7.998-19.118l3.338-27.315c15.932-5.418 31.164-1.573 41.751 5.771 7.146-19.793-7.07-36.956-25.369-37.889z" fill="#e6989e"/><path d="m455.473 201.913c4.204 0 7.611-3.408 7.611-7.611 0-4.204-3.407-7.611-7.611-7.611h-11.721l-25.129-43.524c-1.36-2.355-3.872-3.806-6.592-3.806h-50.258l-6.869-11.897c-1.36-2.355-3.872-3.806-6.592-3.806h-14.847c-4.204 0-7.612 3.408-7.612 7.611 0 4.204 3.407 7.611 7.612 7.611h10.453l4.672 8.091-22.932 39.718h-11.72c-4.204 0-7.612 3.408-7.612 7.611 0 4.204 3.407 7.611 7.612 7.611h11.72l22.932 39.719-5.86 10.151c-2.102 3.641-.854 8.296 2.786 10.397 1.199.692 2.507 1.021 3.799 1.021 2.63 0 5.189-1.366 6.599-3.807l5.86-10.151h45.863l5.86 10.151c1.409 2.442 3.968 3.807 6.599 3.807 1.291 0 2.601-.329 3.799-1.021 3.64-2.102 4.888-6.757 2.786-10.397l-5.86-10.151 22.932-39.719h11.72zm-47.836 32.107h-45.863l-22.932-39.719 22.932-39.719h45.863l22.932 39.719z" fill="#eef9fa"/></g></svg>