<svg id="Layer_1" enable-background="new 0 0 512 512" height="512" viewBox="0 0 512 512" width="512" xmlns="http://www.w3.org/2000/svg"><g><path d="m347.81 82.526c2.551-.19 4.245 2.569 2.831 4.703-6.664 10.052-15.843 18.161-26.259 24.506-38.043 23.137-58.687-6.145-68.377-15.469-9.689 9.324-30.334 38.607-68.376 15.469-10.424-6.345-19.605-14.453-26.269-24.505-1.415-2.135.28-4.894 2.831-4.705 6.899.513 14.21-2.738 19.241-7.761 6.708-6.697 10.23-15.878 13.355-24.824 3.135-8.946 6.187-18.199 12.242-25.489 11.058-13.291 31.916-16.89 46.976-8.65 15.06-8.241 35.909-4.642 46.966 8.65 6.065 7.29 9.108 16.543 12.242 25.489 3.135 8.946 6.657 18.128 13.365 24.824 5.031 5.023 12.336 8.274 19.232 7.762z" fill="#dc8758"/><path d="m211.124 129.214c-16.184-10.936-41.561-8.126-49.507-1.001-9.847 8.831-18.134 20.53-18.03 40.883.259 50.573-.694 77.1-23.981 93.447-19.379 13.604-28.933 39.708-44.752 47.23-.666.317-1.392-.391-1.078-1.059 4.716-10.018-1.774-23.799-12.592-27.129-11.544-3.554-24.791 3.948-29.302 15.167s-1.03 24.704 7.043 33.698c8.073 8.995 54.208 27.54 93.303-14.634 12.569-13.559 64.003-37.121 79.211-144.233z" fill="#ffb09e"/><path d="m300.876 129.214c16.184-10.936 41.561-8.126 49.507-1.001 9.847 8.831 18.134 20.53 18.03 40.883-.259 50.573.694 77.1 23.981 93.447 19.379 13.604 28.933 39.708 44.752 47.23.666.317 1.392-.391 1.078-1.059-4.716-10.018 1.774-23.799 12.592-27.129 11.544-3.554 24.791 3.948 29.302 15.167s1.03 24.704-7.043 33.698c-8.073 8.995-54.208 27.54-93.303-14.634-12.569-13.559-64.004-37.121-79.211-144.233z" fill="#ffb09e"/><path d="m369.138 414.851c-25.676 34.844-101.128 44.374-113.134 43.26-12.017 1.114-87.469-8.416-113.134-43.26-18.45-25.038-20.234-59.806-12.238-89.874 7.86-29.513 26.098-55.657 49.152-75.679.739-.642.859-1.722.306-2.53-8.352-12.204-10.788-28.318-6.324-42.428 3.481-10.997 11.081-20.571 20.818-26.704 14.98-9.442 13.488-30.962 16.539-48.422 12.744-1.335 77.019-1.335 89.752 0 3.062 17.461 1.555 38.981 16.536 48.422 9.737 6.133 17.337 15.707 20.818 26.704 4.464 14.11 2.028 30.224-6.324 42.428-.553.808-.432 1.888.306 2.53 23.054 20.022 41.303 46.166 49.152 75.679 7.998 30.068 6.224 64.835-12.225 89.874z" fill="#ffcebf"/><path d="m381.364 324.977c-7.849-29.513-26.097-55.657-49.152-75.679-.739-.641-.859-1.722-.306-2.53 8.352-12.204 10.788-28.318 6.324-42.428-3.481-10.997-11.081-20.571-20.818-26.704-14.98-9.442-13.473-30.962-16.536-48.422-8.099-.849-37.046-1.158-60.325-.927 13.321.132 24.785.441 29.42.927 3.062 17.461 1.555 38.981 16.536 48.422 9.737 6.133 17.337 15.707 20.818 26.704 4.464 14.11 2.028 30.224-6.324 42.428-.553.808-.432 1.888.306 2.53 23.054 20.022 41.303 46.166 49.152 75.679 7.997 30.068 6.224 64.835-12.226 89.874-20.148 27.343-70.944 39.096-97.684 42.352 7.337.893 12.869 1.148 15.455.908 12.006 1.114 87.458-8.416 113.134-43.26 18.45-25.039 20.223-59.806 12.226-89.874z" fill="#ffb09e"/><path d="m379.774 394.935c-2.611 7.081-6.124 13.788-10.64 19.92-25.676 34.844-101.127 44.374-113.134 43.26-12.017 1.114-87.469-8.416-113.134-43.26-4.516-6.122-8.03-12.828-10.651-19.909 81.873 12.585 165.686 12.574 247.559-.011z" fill="#fe93bb"/><path d="m375.302 307.366c-24.872-5.173-74.538-14.163-119.302-14.163-42.638 0-91.776 8.151-118.972 13.402 9.451-22.005 24.618-41.551 42.76-57.302.738-.651.859-1.732.297-2.537-8.349-12.199-10.784-28.314-6.323-42.422 3.481-10.997 11.081-20.571 20.818-26.704 14.98-9.442 13.493-30.962 16.544-48.422 8.941-1.339 72.701-1.339 89.749 0 3.062 17.461 1.553 38.981 16.533 48.422 9.737 6.133 17.337 15.707 20.818 26.704 4.472 14.108 2.027 30.223-6.323 42.422-.551.805-.429 1.886.308 2.537 18.354 15.939 33.664 35.749 43.093 58.063z" fill="#a2aee6"/><g><path d="m269.969 129.218c3.062 17.461 1.553 38.981 16.533 48.422 9.737 6.133 17.337 15.707 20.818 26.704 4.472 14.108 2.936 37.748-52.523 46.161 9.272 8.241 51.954 5.869 55.973 8.241 12.895 7.613 22.263 23.001 30.914 42.39 13.363 2.179 24.985 4.434 33.616 6.229-9.429-22.314-24.739-42.124-43.09-58.063-.738-.651-.859-1.732-.308-2.537 8.349-12.199 10.795-28.314 6.323-42.422-3.481-10.997-11.081-20.571-20.818-26.704-14.98-9.442-13.471-30.962-16.533-48.422-10.85-.852-40.619-1.162-63.137-.929 13.665.134 26.035.443 32.232.93z" fill="#8795de"/></g><path d="m95.029 370.343c-14.824-11.122-30.914-21.983-49.304-24.198-18.391-2.215-39.46 7.095-44.565 24.925-3.86 13.482 2.342 28.279 12.291 38.15s23.11 15.718 36.123 20.903c38.164 15.204 75.823 24.984 114.604 38.533 17.511 6.117 30.336-.78 32.024-6.682 1.688-5.901-68.414-67.052-101.173-91.631z" fill="#fea3c6"/><path d="m95.029 370.343c-14.824-11.122-30.914-21.983-49.304-24.198-6.831-.823-14.03-.052-20.645 2.151 14.21 4.213 27.043 13.042 39.044 22.047 32.759 24.579 102.861 85.73 101.173 91.631-.532 1.862-2.175 3.821-4.722 5.441 1.201.413 2.4.82 3.603 1.24 17.511 6.117 30.336-.78 32.024-6.682 1.688-5.9-68.414-67.051-101.173-91.63z" fill="#fe93bb"/><path d="m416.971 370.343c14.824-11.122 30.914-21.983 49.304-24.198 18.391-2.215 39.46 7.095 44.565 24.925 3.86 13.482-2.342 28.279-12.291 38.15s-23.11 15.718-36.123 20.903c-38.164 15.204-75.823 24.984-114.604 38.533-17.511 6.117-30.336-.78-32.024-6.682-1.688-5.901 68.414-67.052 101.173-91.631z" fill="#fea3c6"/><path d="m510.84 371.071c-5.105-17.83-26.174-27.14-44.565-24.925-3.502.422-6.919 1.16-10.26 2.151 11.194 3.729 20.711 11.567 23.919 22.774 3.86 13.482-2.342 28.279-12.291 38.15s-23.11 15.718-36.123 20.903c-36.98 14.732-73.489 24.382-111.001 37.292 5.526 3.516 15.315 5.428 27.302 1.24 38.781-13.548 76.44-23.328 114.604-38.533 13.013-5.184 26.175-11.031 36.123-20.903 9.95-9.87 16.152-24.668 12.292-38.149z" fill="#fe93bb"/><g fill="#ffcebf"><path d="m196.008 426.651c7.398-3.084 18.618 4.455 18.967 22.257 16.594 21.36 42.878 50.312 41.578 54.221-10.293 30.948-80.39-28.555-92.375-34.474-8.582-4.238-3.758-31.616 5.462-35.433 4.998-2.068 7.957 1.105 26.368-6.571z"/><path d="m315.992 426.651c-7.398-3.084-18.618 4.455-18.967 22.257-16.594 21.36-42.878 50.312-41.578 54.221 10.293 30.948 80.39-28.555 92.375-34.474 8.582-4.238 3.758-31.616-5.462-35.433-4.998-2.068-7.957 1.105-26.368-6.571z"/><path d="m302.327 80.394c0 30.681-17.048 58.644-46.327 58.644s-46.327-27.963-46.327-58.644 20.741-52.46 46.327-52.46 46.327 21.78 46.327 52.46z"/></g><path d="m256 27.934c-5.42 0-10.619.987-15.453 2.819 17.985 6.817 30.874 25.46 30.874 49.641 0 24.799-11.142 47.814-30.874 55.731 4.68 1.878 9.839 2.913 15.453 2.913 29.279 0 46.326-27.963 46.326-58.644s-20.74-52.46-46.326-52.46z" fill="#ffb09e"/><path d="m319.926 60.223c.185 1.651-.469 3.272-1.726 4.356-16.949 14.609-39.44 22.98-62.081 23.029-22.767.049-45.461-8.317-62.583-23.002-1.123-.963-1.714-2.403-1.676-3.883.546-20.884 11.006-40.591 29.281-51.545 18.972-11.372 44.094-12.247 63.901-2.226 19.015 9.62 32.528 32.261 34.884 53.271z" fill="#e19974"/><path d="m319.926 60.223c-2.356-21.011-15.869-43.651-34.884-53.272-13.818-6.991-30.222-8.672-45.321-5.193 4.993 1.157 9.847 2.881 14.415 5.193 19.015 9.621 32.528 32.261 34.884 53.272.185 1.651-.469 3.272-1.726 4.356-13.125 11.312-29.575 18.862-46.842 21.726 5.175.858 10.417 1.314 15.667 1.302 22.641-.049 45.132-8.42 62.081-23.029 1.258-1.083 1.911-2.704 1.726-4.355z" fill="#dc8758"/></g></svg>