<svg id="Capa_1" enable-background="new 0 0 497 497" height="512" viewBox="0 0 497 497" width="512" xmlns="http://www.w3.org/2000/svg"><g><path d="m171.787 364.751 27.89 70.72-27.89 61.529h-71.367c0-86.83 71.367-132.249 71.367-132.249z" fill="#ed9b83"/><path d="m396.58 497h-71.367l-26.061-66.125 26.061-66.125c0 .001 71.367 45.42 71.367 132.25z" fill="#ed9b83"/><path d="m171.787 364.751h153.426v132.249h-153.426z" fill="#50e1cd"/><path d="m284.483 324.353h-71.965c-21.856 0-34.451 24.828-21.542 42.464l35.983 49.159c10.666 14.571 32.419 14.571 43.085 0l35.983-49.159c12.907-17.636.312-42.464-21.544-42.464z" fill="#fff"/><path d="m39.913 208.587c0-115.015 93.571-208.587 208.587-208.587 115.015 0 208.587 93.572 208.587 208.587z" fill="#c7c5cb"/><path d="m110.104 196.339c0-86.762 48.146-161.489 117.412-195.287-105.199 10.556-187.603 99.602-187.603 207.535h70.524c-.214-4.055-.333-8.136-.333-12.248z" fill="#b2b0bc"/><circle cx="423.363" cy="208.587" fill="#ffcabd" r="47.627"/><path d="m331.964 79.399c-75.963 53.816-104.868 6.658-204.108 27.277-16.801 3.491-30.871 14.871-37.928 30.513-9.871 21.88-15.348 46.167-15.299 71.742.186 96.15 77.72 173.527 173.871 173.527 96.026 0 173.87-77.845 173.87-173.871 0-50.143-21.228-95.325-55.186-127.057-9.672-9.038-24.417-9.784-35.22-2.131z" fill="#ffdcce"/><path d="m200.884 375.902c-54.665-38.32-90.78-104.424-90.78-179.563 0-32.059 6.584-62.469 18.367-89.785-.207.042-.408.08-.615.123-16.802 3.491-30.871 14.871-37.928 30.513-3.531 7.827-6.489 15.967-8.843 24.358-2.427-.382-4.913-.588-7.448-.588-26.304 0-47.628 21.323-47.628 47.627s21.324 47.627 47.628 47.627c2.514 0 4.982-.197 7.39-.573 16.215 58.164 61.788 103.86 119.857 120.261z" fill="#ffcabd"/><g><g><g><ellipse cx="140.332" cy="236.162" fill="#ff8997" rx="39.912" ry="31.784"/></g><g><ellipse cx="356.668" cy="236.162" fill="#ff8997" rx="39.912" ry="31.784"/></g></g></g><g><path d="m163.593 213.066c-4.143 0-7.5-3.358-7.5-7.5v-16.316c0-4.142 3.357-7.5 7.5-7.5s7.5 3.358 7.5 7.5v16.316c0 4.143-3.358 7.5-7.5 7.5z" fill="#423e4f"/></g><g><path d="m333.407 213.066c-4.143 0-7.5-3.358-7.5-7.5v-16.316c0-4.142 3.357-7.5 7.5-7.5s7.5 3.358 7.5 7.5v16.316c0 4.143-3.357 7.5-7.5 7.5z" fill="#423e4f"/></g><path d="m248.5 280.393c26.913 33.642 66.568 19.7 87.483 8.652 5.072-2.68 5.434-9.724.734-13.013-11.988-8.388-18.969-26.757-28.872-35.986-15.385-14.339-41.89-23.049-59.345-7.223-17.455-15.826-43.96-7.115-59.345 7.223-9.903 9.229-16.883 27.598-28.872 35.986-4.7 3.289-4.339 10.333.734 13.013 20.915 11.048 60.57 24.989 87.483-8.652z" fill="#b2b0bc"/></g></svg>