<svg id="Capa_1" enable-background="new 0 0 512 512" height="512" viewBox="0 0 512 512" width="512" xmlns="http://www.w3.org/2000/svg"><g><path d="m512 256c0 49.29-13.94 95.34-38.08 134.4-45.1 72.97-125.83 42.926-217.92 42.926-92.04 0-172.75 30.094-217.86-42.826-.02-.04-.04-.07-.06-.1-24.14-39.06-38.08-85.11-38.08-134.4 0-141.38 114.62-256 256-256s256 114.62 256 256z" fill="#a9d9f7"/><path d="m473.92 139.37v251.03c-18.95 30.66-44.19 57.02-73.93 77.28-30.82 21.01-50.458-.18-88.928 5.71-12.24 1.87-32.562 28.342-45.302 28.412-.51.01.51 0 0 0-1.18 0-11.589 4.474-12.769 4.464-41.92-.57-78.153-9.284-112.893-27.694-11.14-5.9-19.009-16.252-35.658-16.252-26.43-19.43-48.98-43.83-66.3-71.82-.02-.04-.04-.07-.06-.1v-251.03l48.06-21.36 161.62-71.82 190.42 78.46z" fill="#a274bf"/><path d="m473.92 143.88v71.73c-.57-.23-1.14-.5-1.69-.8l-216.23-116.39-216.23 116.39c-.55.3-1.12.57-1.69.8v-71.73l48.06-25.87 154.87-83.36c9.36-5.04 20.62-5.04 29.98 0l167.19 90z" fill="#925cb4"/><path d="m468.312 183.981-212.312-114.285-212.313 114.284c-8.885 4.783-19.964 1.457-24.747-7.428l-12.121-22.518c-4.783-8.885-1.457-19.964 7.428-24.747l227.032-122.208c9.19-4.947 20.25-4.946 29.441 0l227.033 122.208c8.885 4.783 12.21 15.862 7.428 24.747l-12.122 22.519c-4.783 8.885-15.862 12.21-24.747 7.428z" fill="#fe9738"/><path d="m37.871 166.226 8.709 16.192-2.897 1.561c-8.876 4.782-19.962 1.453-24.744-7.423l-12.116-22.525c-4.782-8.886-1.463-19.962 7.423-24.744l227.036-122.208c9.191-4.949 20.247-4.949 29.437 0l15.769 8.493c-4.87.079-9.731 1.316-14.159 3.702l-227.035 122.208c-8.876 4.782-12.205 15.868-7.423 24.744z" fill="#fe860a"/><g><g><path d="m203.444 167.111h-67.503c-37.894 0-68.612 30.719-68.612 68.612v92.458h204.727v-92.458c0-37.893-30.718-68.612-68.612-68.612z" fill="#fcf8f2"/><path d="m192.496 167.108c-37.898 0-68.615 30.717-68.615 68.615v92.454h-56.552v-92.454c0-37.898 30.717-68.615 68.615-68.615z" fill="#f9f7f8"/><path d="m208.521 373.224h-113.448c-23.815 0-43.121-19.306-43.121-43.121 0-14.892 12.073-26.965 26.965-26.965h145.76c14.892 0 26.965 12.073 26.965 26.965h-18.564c0 23.815-.742 43.121-24.557 43.121z" fill="#ffcebf"/><path d="m95.073 358.686c-15.761 0-28.584-12.823-28.584-28.584 0-6.853 5.575-12.428 12.428-12.428h141.733c6.853 0 12.428 5.575 12.428 12.428 0 15.761 26.999 28.584 11.238 28.584z" fill="#ffb09e"/><path d="m84.166 348.496h10.978v-21.957h-10.978c-6.063 0-10.978 4.915-10.978 10.978 0 6.064 4.915 10.979 10.978 10.979z" fill="#fcf8f2"/><path d="m252.125 290.269v60.637c0 22.759-9.226 43.364-24.141 58.279-14.916 14.916-35.532 24.141-58.291 24.141-45.529 0-82.432-36.903-82.432-82.421v-60.637c0-12.558 2.811-24.459 7.843-35.101 3.853 1.575 8.081 2.437 12.501 2.437 9.475 0 18.01-3.956 24.073-10.303 7.798 7.888 18.021 13.363 29.468 15.21 2.777.453 5.633.68 8.546.68s5.769-.238 8.546-.68c11.447-1.847 21.671-7.322 29.468-15.21 6.052 6.347 14.598 10.303 24.073 10.303 4.432 0 8.648-.861 12.513-2.437 5.023 10.654 7.833 22.544 7.833 35.102z" fill="#ffdfcf"/><path d="m186.49 431.603c-5.429 1.133-11.039 1.723-16.797 1.723-45.529 0-82.432-36.903-82.432-82.421v-60.637c0-12.558 2.811-24.459 7.843-35.101 3.854 1.575 8.081 2.437 12.501 2.437 7.979 0 15.29-2.799 21.013-7.48-3.99 11.878-7.753 27.485-7.753 40.145v60.637c.002 39.759 28.155 72.945 65.625 80.697z" fill="#ffcebf"/><path d="m257.54 511.99c-.51.01-1.03.01-1.54.01-56.72 0-109.13-18.45-151.56-49.68 16.17-17.66 39.41-28.74 65.25-28.74 45.44 0 82.89 34.29 87.85 78.41z" fill="#5a565e"/><path d="m192.53 436.57c-24.61 6.56-44.99 23.46-56.21 45.78-11.14-5.9-21.79-12.61-31.88-20.03 16.16-17.66 39.41-28.74 65.25-28.74 7.9 0 15.55 1.04 22.84 2.99z" fill="#413d44"/><path d="m198.31 435.214-28.612-28.612-42.732 42.732c-7.901 7.901-7.901 20.711 0 28.612 7.901 7.901 20.711 7.901 28.612 0z" fill="#fcf8f2"/><path d="m169.698 406.602-28.612 28.612 42.732 42.732c7.901 7.901 20.711 7.901 28.612 0 7.901-7.901 7.901-20.711 0-28.612z" fill="#fcf8f2"/><path d="m198.363 389.719v51.386c0 15.832-12.844 28.676-28.665 28.676-3.89 0-7.595-.772-10.975-2.173-10.388-4.314-17.701-14.55-17.701-26.502v-51.386h57.341z" fill="#ffdfcf"/><path d="m239.816 302.408h-23.537v-12.342h23.537c3.408 0 6.171 2.763 6.171 6.171 0 3.408-2.763 6.171-6.171 6.171z" fill="#ffcebf"/><path d="m234.816 317.326h-23.537v-12.342h23.537c3.408 0 6.171 2.763 6.171 6.171 0 3.409-2.763 6.171-6.171 6.171z" fill="#ffcebf"/><circle cx="134.072" cy="302.408" fill="#fff" r="24.766"/><path d="m140.289 326.384c-1.993.513-4.069.786-6.22.786-13.68 0-24.762-11.083-24.762-24.762s11.083-24.762 24.762-24.762c2.15 0 4.226.273 6.22.786-10.677 2.754-18.559 12.439-18.559 23.977-.001 11.536 7.881 21.221 18.559 23.975z" fill="#f9f7f8"/><circle cx="205.316" cy="302.408" fill="#fff" r="24.766"/><path d="m211.532 326.384c-1.993.513-4.069.786-6.22.786-13.68 0-24.762-11.083-24.762-24.762s11.083-24.762 24.762-24.762c2.15 0 4.226.273 6.22.786-10.677 2.754-18.559 12.439-18.559 23.977 0 11.536 7.882 21.221 18.559 23.975z" fill="#f9f7f8"/><path d="m169.694 347.546c-4.786 0-8.666-3.88-8.666-8.666v-73.388h17.333v73.388c-.001 4.786-3.881 8.666-8.667 8.666z" fill="#ffcebf"/><circle cx="137.347" cy="302.451" fill="#413d44" r="9.888"/><circle cx="202.891" cy="302.451" fill="#413d44" r="9.888"/><path d="m158.722 422.901v44.702c-10.386-4.31-17.696-14.55-17.696-26.493v-31.953z" fill="#ffcebf"/><g><path d="m187.169 350.945h-17.475-17.475c-21.414 0-38.774 17.36-38.774 38.774h33.512c12.557 0 22.736-10.179 22.736-22.736 0 12.557 10.179 22.736 22.736 22.736h33.512c.002-21.414-17.358-38.774-38.772-38.774z" fill="#fcf8f2"/><g fill="#f9f7f8"><path d="m169.695 350.941c-21.379.052-38.681 17.393-38.681 38.778h-17.569c0-21.418 17.36-38.778 38.778-38.778z"/><path d="m210.058 389.719h-17.628c-12.559 0-22.736-10.184-22.736-22.736v-16.042h17.628v16.042c0 12.552 10.177 22.736 22.736 22.736z"/></g></g></g><g><path d="m399.99 467.68c-40.62 27.7-89.64 44-142.45 44.31-.51.01-1.03.01-1.54.01-1.18 0-2.36-.01-3.54-.02 2.48-43.06 38.18-77.2 81.86-77.2 26.87 0 50.72 12.93 65.67 32.9z" fill="#ffd15b"/><path d="m355.51 437.54c-32.61 8.71-57.23 37-60.46 71.5-12.24 1.87-24.77 2.88-37.51 2.95-.51.01-1.03.01-1.54.01-1.18 0-2.36-.01-3.54-.02 2.48-43.06 38.18-77.2 81.86-77.2 7.33 0 14.43.97 21.19 2.76z" fill="#ffc344"/><path d="m334.022 171.566c-59.972 0-108.588 48.617-108.588 108.588v82.198c0 35.394 28.693 64.087 64.087 64.087h89.004c35.394 0 64.087-28.693 64.087-64.087v-82.198c-.002-59.972-48.619-108.588-108.59-108.588z" fill="#fcf8f2"/><path d="m365.685 176.256c-44.525 13.546-76.93 54.933-76.93 103.897v100.414l45.557 45.869h-44.791c-35.394 0-64.087-28.693-64.087-64.087v-81.014c0-60.437 46.622-110.062 109.886-109.761 10.554.123 20.743 1.754 30.365 4.682z" fill="#f9f7f8"/><path d="m300.184 429.765c-6.704 0-12.881 4.088-15.077 10.422-.583 1.682-.9 3.489-.9 5.37 0 7.526 5.071 13.854 11.978 15.792-3.514 6.254-2.625 14.315 2.697 19.637 5.322 5.322 13.382 6.211 19.637 2.697 1.938 6.907 8.266 11.979 15.792 11.979s13.854-5.071 15.792-11.979c6.254 3.514 14.315 2.625 19.637-2.697 5.322-5.322 6.211-13.382 2.697-19.637 6.907-1.938 11.979-8.266 11.979-15.792 0-1.882-.317-3.688-.9-5.37-2.197-6.334-8.373-10.422-15.077-10.422z" fill="#fcf8f2"/><path d="m362.434 391.524v50.405c0 15.53-12.599 28.128-28.118 28.128-3.816 0-7.45-.757-10.765-2.132-10.19-4.232-17.363-14.272-17.363-25.996v-50.405z" fill="#ffdfcf"/><path d="m407.509 375.343h-146.393c-23.36 0-42.298-18.937-42.298-42.298 0-14.608 11.842-26.45 26.45-26.45h178.088c14.608 0 26.45 11.842 26.45 26.45 0 23.361-18.937 42.298-42.297 42.298z" fill="#ffcebf"/><path d="m261.116 361.084c-15.46 0-28.038-12.578-28.038-28.038 0-6.722 5.469-12.19 12.19-12.19h178.088c6.722 0 12.19 5.469 12.19 12.19 0 15.46-12.578 28.038-28.038 28.038z" fill="#ffb09e"/><path d="m416.321 292.453v60.323c0 22.642-9.18 43.148-24.019 57.986-14.847 14.839-35.344 24.019-57.986 24.019-45.292 0-82.013-36.713-82.013-82.005v-60.323c0-1.929.064-3.842.2-5.739 10.445 6.235 22.658 9.82 35.712 9.82.184 0 .352 0 .536-.008 29.461-.224 54.561-18.721 64.565-44.708 7.371 16.143 23.643 27.364 42.539 27.364 6.635 0 12.95-1.385 18.664-3.882 1.186 5.531 1.802 11.27 1.802 17.153z" fill="#ffdfcf"/><g fill="#ffcebf"><path d="m406.288 321.708h-20.152v-9.746h20.152c2.691 0 4.873 2.182 4.873 4.873 0 2.692-2.182 4.873-4.873 4.873z"/><path d="m403.706 335.541h-32.738l12.586-9.746h20.152c2.691 0 4.873 2.182 4.873 4.873 0 2.691-2.182 4.873-4.873 4.873z"/><path d="m355.501 432.012c-6.755 1.809-13.862 2.769-21.186 2.769-45.3 0-82.013-36.713-82.013-82.005v-60.323c0-1.929.064-3.842.2-5.739 10.445 6.235 22.658 9.82 35.712 9.82.184 0 .352 0 .536-.008 1.993-.016 3.97-.112 5.923-.296v56.546c.001 37.961 25.805 69.903 60.828 79.236z"/><path d="m342.816 270.162v78.484c0 4.698-3.81 8.5-8.5 8.5-4.698 0-8.508-3.802-8.508-8.5v-63.124c6.483-4.155 12.23-9.349 17.008-15.36z"/><path d="m323.55 418.029v49.892c-10.188-4.228-17.358-14.272-17.358-25.987v-23.904h17.358z"/><path d="m355.255 378.227c-11.548 11.548-30.337 11.548-41.885 0-2.569-2.569-2.569-6.734 0-9.302s6.733-2.569 9.302 0c6.419 6.419 16.862 6.418 23.281 0 2.569-2.569 6.733-2.569 9.302 0 2.568 2.569 2.568 6.734 0 9.302z"/></g><g fill="#f9f7f8"><path d="m285.071 310.46c-10.649 0-19.312-8.663-19.312-19.312 0-2.369 1.92-4.289 4.289-4.289s4.289 1.92 4.289 4.289c0 5.919 4.815 10.734 10.734 10.734 2.368 0 4.289 1.92 4.289 4.289s-1.92 4.289-4.289 4.289z"/><path d="m300.283 307.993c-10.649 0-19.312-8.663-19.312-19.312 0-2.369 1.92-4.289 4.289-4.289s4.289 1.92 4.289 4.289c0 5.919 4.815 10.734 10.734 10.734 2.369 0 4.289 1.92 4.289 4.289s-1.92 4.289-4.289 4.289z"/><path d="m383.553 310.46c10.648 0 19.312-8.663 19.312-19.312 0-2.369-1.92-4.289-4.289-4.289-2.368 0-4.289 1.92-4.289 4.289 0 5.919-4.815 10.734-10.734 10.734-2.369 0-4.289 1.92-4.289 4.289s1.921 4.289 4.289 4.289z"/><path d="m368.341 307.993c10.649 0 19.312-8.663 19.312-19.312 0-2.369-1.92-4.289-4.289-4.289s-4.289 1.92-4.289 4.289c0 5.919-4.815 10.734-10.734 10.734-2.368 0-4.289 1.92-4.289 4.289s1.921 4.289 4.289 4.289z"/></g><g><circle cx="299.371" cy="320.855" fill="#fff" r="24.293"/><path d="m305.468 344.374c-1.955.503-3.991.771-6.101.771-13.418 0-24.289-10.871-24.289-24.289s10.871-24.289 24.289-24.289c2.109 0 4.146.268 6.101.771-10.473 2.702-18.205 12.202-18.205 23.519 0 11.316 7.732 20.816 18.205 23.517z" fill="#f9f7f8"/><circle cx="369.254" cy="320.855" fill="#fff" r="24.293"/><path d="m375.351 344.374c-1.955.503-3.991.771-6.101.771-13.418 0-24.289-10.871-24.289-24.289s10.871-24.289 24.289-24.289c2.109 0 4.146.268 6.101.771-10.473 2.702-18.205 12.202-18.205 23.519 0 11.316 7.732 20.816 18.205 23.517z" fill="#f9f7f8"/><g fill="#413d44"><circle cx="301.362" cy="320.855" r="9.7"/><circle cx="369.087" cy="320.855" r="9.7"/></g></g></g></g></g></svg>