<svg id="Capa_1" enable-background="new 0 0 512 512" height="512" viewBox="0 0 512 512" width="512" xmlns="http://www.w3.org/2000/svg"><g><path d="m411.027 347.026c-4.268 0-7.726-3.459-7.726-7.726v-36.215c0-4.267 3.459-7.726 7.726-7.726s7.726 3.459 7.726 7.726v36.215c.001 4.266-3.458 7.726-7.726 7.726z" fill="#ffe07d"/><path d="m100.998 347.024c-4.268 0-7.726-3.459-7.726-7.726v-43.103c0-4.267 3.459-7.726 7.726-7.726 4.268 0 7.726 3.459 7.726 7.726v43.103c0 4.267-3.458 7.726-7.726 7.726z" fill="#ffe07d"/><path d="m409.291 296.196c36.516 0 66.117-29.602 66.117-66.117 0-19.553-8.494-37.117-21.986-49.222 5.815-9.842 9.164-21.315 9.164-33.575 0-29.53-19.363-54.53-46.082-63.018-2.86-33.877-31.245-60.485-65.861-60.485-13.336 0-25.741 3.962-36.127 10.754-11.393-20.586-33.322-34.529-58.516-34.529s-47.123 13.944-58.515 34.53c-10.386-6.792-22.791-10.754-36.127-10.754-34.616 0-63.001 26.608-65.861 60.485-26.719 8.488-46.082 33.488-46.082 63.018 0 12.26 3.349 23.732 9.164 33.575-13.492 12.105-21.986 29.669-21.986 49.222 0 36.515 29.602 66.117 66.117 66.117" fill="#efecef"/><path d="m309.003 26.136c-2.05 2.648-3.894 5.45-5.522 8.396-10.384-6.789-22.788-10.755-36.128-10.755-34.614 0-62.995 26.609-65.859 60.482-26.713 8.489-46.08 33.491-46.08 63.016 0 12.269 3.348 23.735 9.168 33.584-13.495 12.105-21.994 29.669-21.994 49.222 0 36.509 29.607 66.117 66.117 66.117h-105.994c-36.52 0-66.116-29.607-66.116-66.117 0-19.553 8.489-37.117 21.984-49.222-5.81-9.848-9.158-21.314-9.158-33.584 0-29.525 19.357-54.527 46.08-63.016 2.864-33.872 31.245-60.482 65.859-60.482 13.341 0 25.744 3.966 36.128 10.755 11.392-20.583 33.325-34.532 58.512-34.532 21.593 0 40.785 10.25 53.003 26.136z" fill="#dddaec"/><path d="m258.152 388.091h-4.284c-61.253 0-110.908 49.655-110.908 110.908v13.001h226.1v-13.001c0-61.253-49.655-110.908-110.908-110.908z" fill="#dd636e"/><path d="m248.289 450.046h15.453v61.954h-15.453z" fill="#da4a54"/><path d="m283.239 390.944c-49.17 11.373-85.813 55.434-85.813 108.055v13.001h-54.465v-13.001c0-61.254 49.654-110.909 110.909-110.909h4.275c8.632.001 17.038.99 25.094 2.854z" fill="#da4a54"/><path d="m256.01 467.226c-21.758 0-39.396-17.638-39.396-39.396v-39.396h78.792v39.396c0 21.758-17.638 39.396-39.396 39.396z" fill="#eaac9d"/><path d="m389.402 254.487h5.347c18.172 0 32.893 14.721 32.893 32.883 0 9.076-3.678 17.307-9.632 23.261-5.954 5.944-14.175 9.632-23.261 9.632h-7.222-263.034-7.222c-18.172 0-32.893-14.732-32.893-32.893 0-9.076 3.678-17.297 9.632-23.251s14.175-9.632 23.261-9.632h5.347" fill="#eaac9d"/><path d="m389.392 222.418v75.45c0 36.839-14.927 70.175-39.064 94.323-24.147 24.137-57.484 39.064-94.323 39.064-73.668 0-133.397-59.719-133.397-133.387v-75.45c0-7.015.546-13.907 1.587-20.634.597.01 1.195.021 1.803.021 31.678 0 58.689-19.944 69.156-47.965 13.3 19.347 35.592 32.028 60.852 32.028s47.553-12.681 60.852-32.028c10.467 28.021 37.478 47.965 69.156 47.965.598 0 1.195-.01 1.793-.021 1.039 6.727 1.585 13.619 1.585 20.634z" fill="#ffddce"/><path d="m287.652 427.484c-10.147 2.462-20.748 3.77-31.647 3.77-73.668 0-133.397-59.719-133.397-133.387v-75.45c0-7.015.546-13.907 1.587-20.634.597.01 1.195.021 1.803.021 24.631 0 46.451-12.063 59.853-30.606v126.67c-.001 62.779 43.38 115.431 101.801 129.616z" fill="#ffcbbe"/><path d="m256.01 369.463c-14.003 0-28.006-5.33-38.667-15.991-3.017-3.017-3.017-7.909 0-10.927 3.018-3.018 7.909-3.018 10.928 0 15.297 15.297 40.185 15.295 55.48 0 3.018-3.018 7.909-3.018 10.928 0 3.017 3.017 3.017 7.909 0 10.927-10.662 10.661-24.665 15.991-38.669 15.991z" fill="#eaac9d"/><path d="m268 331.451h-23.98c-4.268 0-7.726-3.459-7.726-7.726s3.459-7.726 7.726-7.726h23.98c4.268 0 7.726 3.459 7.726 7.726s-3.458 7.726-7.726 7.726z" fill="#ffcbbe"/><g fill="#efecef"><path d="m311.514 219.074c-.138 0-.275-.004-.413-.011l-19.526-1.028c-4.261-.224-7.533-3.861-7.309-8.122.224-4.262 3.868-7.529 8.122-7.31l19.526 1.028c4.261.224 7.533 3.861 7.309 8.122-.217 4.124-3.628 7.321-7.709 7.321z"/><path d="m200.506 219.074c-4.08 0-7.492-3.197-7.708-7.321-.224-4.261 3.048-7.897 7.309-8.122l19.527-1.028c4.277-.219 7.898 3.048 8.122 7.31.224 4.261-3.048 7.897-7.309 8.122l-19.527 1.028c-.139.007-.277.011-.414.011z"/></g><g><circle cx="307.416" cy="277.915" fill="#d3effb" r="36.151"/><path d="m240.756 277.914c0 19.965-16.184 36.149-36.149 36.149-5.656 0-11.002-1.298-15.762-3.616-12.074-5.851-20.387-18.224-20.387-32.533 0-19.965 16.184-36.149 36.149-36.149 6.923 0 13.392 1.947 18.883 5.326 10.364 6.356 17.266 17.781 17.266 30.823z" fill="#d3effb"/><path d="m223.49 247.091-34.645 63.356c-12.074-5.851-20.387-18.224-20.387-32.533 0-19.965 16.184-36.149 36.149-36.149 6.923 0 13.392 1.947 18.883 5.326z" fill="#b1e4f9"/><path d="m326.297 247.092-34.645 63.356c-12.074-5.851-20.387-18.224-20.387-32.533 0-19.965 16.184-36.149 36.149-36.149 6.922 0 13.392 1.947 18.883 5.326z" fill="#b1e4f9"/><g fill="#454045"><circle cx="209.684" cy="277.918" r="13.617"/><circle cx="302.193" cy="277.918" r="13.617"/></g></g><path d="m396.282 250.971c-1.942-3.799-6.596-5.306-10.395-3.363l-36.216 18.511c-5.167-18.481-22.146-32.081-42.254-32.081-20.168 0-37.191 13.682-42.302 32.249-5.945-1.73-12.263-1.73-18.209 0-5.11-18.567-22.133-32.249-42.301-32.249-20.106 0-37.085 13.599-42.253 32.078l-36.213-18.509c-3.796-1.941-8.453-.437-10.396 3.363-1.942 3.8-.436 8.454 3.364 10.396l41.897 21.414c2.429 21.912 21.052 39.012 43.601 39.012 22.721 0 41.462-17.361 43.659-39.513 4.865-2.468 10.627-2.468 15.492 0 2.198 22.153 20.939 39.513 43.66 39.513 22.548 0 41.17-17.098 43.601-39.008l41.901-21.417c3.8-1.942 5.306-6.596 3.364-10.396zm-191.677 55.369c-15.673 0-28.425-12.751-28.425-28.425s12.752-28.425 28.425-28.425 28.425 12.751 28.425 28.425c-.001 15.673-12.752 28.425-28.425 28.425zm102.812 0c-15.674 0-28.426-12.751-28.426-28.425s12.752-28.425 28.426-28.425c15.673 0 28.425 12.751 28.425 28.425-.001 15.673-12.752 28.425-28.425 28.425z" fill="#dd636e"/><g fill="#ffe07d"><path d="m388.201 369.851c-16.847 0-30.552-13.706-30.552-30.552v-77.682c0-4.267 3.459-7.726 7.726-7.726s7.726 3.459 7.726 7.726v77.682c0 8.326 6.774 15.099 15.1 15.099 4.032 0 7.827-1.571 10.685-4.424 2.843-2.848 4.414-6.643 4.414-10.675v-12.006c0-4.267 3.459-7.726 7.726-7.726s7.726 3.459 7.726 7.726v12.006c0 8.154-3.175 15.826-8.94 21.602-5.785 5.775-13.456 8.95-21.611 8.95z"/><path d="m123.824 369.85c-8.155 0-15.827-3.175-21.602-8.941-5.775-5.784-8.951-13.456-8.951-21.611v-12.462c0-4.267 3.459-7.726 7.726-7.726 4.268 0 7.726 3.459 7.726 7.726v12.462c0 4.032 1.571 7.827 4.425 10.684 2.848 2.844 6.643 4.415 10.675 4.415 8.326 0 15.1-6.774 15.1-15.099v-77.682c0-4.267 3.459-7.726 7.726-7.726s7.726 3.459 7.726 7.726v77.682c.001 16.846-13.704 30.552-30.551 30.552z"/></g></g></svg>