<svg id="Capa_1" enable-background="new 0 0 502 502" height="512" viewBox="0 0 502 502" width="512" xmlns="http://www.w3.org/2000/svg" xmlns:xlink="http://www.w3.org/1999/xlink"><linearGradient id="lg1"><stop offset="0" stop-color="#ccd3d3"/><stop offset="1" stop-color="#ebebeb"/></linearGradient><linearGradient id="SVGID_1_" gradientUnits="userSpaceOnUse" x1="380.066" x2="380.066" xlink:href="#lg1" y1="432.594" y2="295.175"/><linearGradient id="SVGID_00000024722601743354414760000016124209767928196524_" gradientUnits="userSpaceOnUse" x1="154.788" x2="154.788" xlink:href="#lg1" y1="432.594" y2="295.175"/><linearGradient id="lg2"><stop offset="0" stop-color="#fd7380"/><stop offset=".9783" stop-color="#fd9ba6"/></linearGradient><linearGradient id="SVGID_00000113338048659513788220000004592087646177467314_" gradientUnits="userSpaceOnUse" x1="267.427" x2="267.427" xlink:href="#lg2" y1="245.327" y2="0"/><linearGradient id="lg3"><stop offset=".0212" stop-color="#f5c0b3"/><stop offset="1" stop-color="#f5d2c4"/></linearGradient><linearGradient id="SVGID_00000183941315721739451870000006891488100676275584_" gradientUnits="userSpaceOnUse" x1="79.955" x2="-4.894" xlink:href="#lg3" y1="279.674" y2="279.674"/><linearGradient id="SVGID_00000010282529488777837760000008190384639335825798_" gradientUnits="userSpaceOnUse" x1="370.049" x2="285.2" xlink:href="#lg3" y1="279.674" y2="279.674"/><linearGradient id="lg4"><stop offset="0" stop-color="#04c07e"/><stop offset=".9794" stop-color="#7dd9af"/></linearGradient><linearGradient id="SVGID_00000127025374280214084990000014779841535782583968_" gradientUnits="userSpaceOnUse" x1="166.301" x2="166.301" xlink:href="#lg4" y1="502" y2="393.715"/><linearGradient id="SVGID_00000111190241272550978330000004588143357303897990_" gradientUnits="userSpaceOnUse" x1="367.96" x2="367.96" xlink:href="#lg4" y1="502" y2="393.715"/><linearGradient id="SVGID_00000065031996215104348170000008785916549907702929_" gradientUnits="userSpaceOnUse" x1="267.427" x2="267.427" xlink:href="#lg2" y1="502" y2="389.194"/><linearGradient id="SVGID_00000089560494581460444770000017274897040566783144_" gradientUnits="userSpaceOnUse" x1="267.427" x2="267.427" y1="456.487" y2="352.945"><stop offset="0" stop-color="#f5d2c4"/><stop offset=".9788" stop-color="#f5c0b3"/></linearGradient><linearGradient id="SVGID_00000065757012229850606090000005029347915298344611_" gradientUnits="userSpaceOnUse" x1="267.427" x2="267.427" xlink:href="#lg3" y1="414.718" y2="134.626"/><linearGradient id="SVGID_00000163055490856815808140000010648400831445295273_" gradientUnits="userSpaceOnUse" x1="67.557" x2="67.557" xlink:href="#lg4" y1="146.882" y2="77.562"/><linearGradient id="SVGID_00000099623860442903198750000015246735981384714895_" gradientUnits="userSpaceOnUse" x1="144.853" x2="144.853" xlink:href="#lg4" y1="69.586" y2=".267"/><linearGradient id="SVGID_00000076573127805920052950000013752480252784414084_" gradientUnits="userSpaceOnUse" x1="106.205" x2="106.205" xlink:href="#lg2" y1="94.6" y2="35.13"/><linearGradient id="SVGID_00000051353398325308720580000014321623899531524531_" gradientUnits="userSpaceOnUse" x1="267.355" x2="267.355" xlink:href="#lg1" y1="297.07" y2="176.346"/><g><circle cx="380.065" cy="363.884" fill="url(#SVGID_1_)" r="68.709"/><circle cx="154.788" cy="363.884" fill="url(#SVGID_00000024722601743354414760000016124209767928196524_)" r="68.709"/><path d="m437.365 245.327c55.593-63.607 59.923-245.327-169.938-245.327s-225.532 181.72-169.939 245.327z" fill="url(#SVGID_00000113338048659513788220000004592087646177467314_)"/><circle cx="122.379" cy="279.674" fill="url(#SVGID_00000183941315721739451870000006891488100676275584_)" r="42.424"/><circle cx="412.474" cy="279.674" fill="url(#SVGID_00000010282529488777837760000008190384639335825798_)" r="42.424"/><path d="m187.348 393.715 11.96 56.325-11.96 51.96h-27.436c-17.184 0-29.877-16.064-25.876-32.788 10.312-43.1 39.279-66.435 53.312-75.497z" fill="url(#SVGID_00000127025374280214084990000014779841535782583968_)"/><path d="m374.941 502h-27.436l-13.144-49.412 13.144-58.873c14.033 9.062 43 32.397 53.312 75.497 4.001 16.724-8.692 32.788-25.876 32.788z" fill="url(#SVGID_00000111190241272550978330000004588143357303897990_)"/><path d="m195.258 430.964-7.91-37.249c-6.094 3.935-15.003 10.566-23.979 20.333 9.937 6.695 20.623 12.351 31.889 16.916z" fill="#02ba72"/><path d="m347.505 393.715v108.285h-160.157v-108.285c4.771-3.091 7.822-4.521 7.822-4.521h144.513s3.051 1.43 7.822 4.521z" fill="url(#SVGID_00000065031996215104348170000008785916549907702929_)"/><circle cx="267.427" cy="404.716" fill="url(#SVGID_00000089560494581460444770000017274897040566783144_)" r="51.771"/><path d="m412.474 279.674c0 80.107-64.94 135.045-145.047 135.045s-145.047-54.938-145.047-135.045 64.94-145.047 145.047-145.047 145.047 64.939 145.047 145.047z" fill="url(#SVGID_00000065757012229850606090000005029347915298344611_)"/><g><ellipse cx="176.709" cy="309.211" fill="#fd5d71" rx="15.418" ry="12.39"/><ellipse cx="358.144" cy="309.211" fill="#fd5d71" rx="15.418" ry="12.39"/><circle cx="203.141" cy="278.638" fill="#fff" r="30.572"/><circle cx="331.712" cy="278.638" fill="#fff" r="30.572"/><g fill="#383842"><circle cx="203.141" cy="278.638" r="18.221"/><circle cx="331.712" cy="278.638" r="18.221"/></g><g><path d="m267.426 310.021c-5.378 0-10.755-2.034-15.142-6.101-2.025-1.877-2.145-5.041-.267-7.066 1.877-2.025 5.041-2.144 7.066-.267 4.913 4.555 11.775 4.555 16.687 0 2.025-1.878 5.189-1.758 7.066.267s1.758 5.188-.267 7.066c-4.387 4.067-9.765 6.101-15.143 6.101z" fill="#383842"/></g></g><path d="m100.415 79.363c-17.393-4.811-37.351.035-51.628 14.312-9.129 9.129-14.402 20.582-15.76 32.201-1.408 12.053 8.821 22.283 20.875 20.875 11.62-1.358 23.072-6.631 32.202-15.76 14.276-14.277 19.122-34.235 14.311-51.628z" fill="url(#SVGID_00000163055490856815808140000010648400831445295273_)"/><path d="m102.359 87.205c-.986-4.024-5.047-6.487-9.071-5.502-19.574 4.795-31.091 17.941-37.308 28.124-2.158 3.537-1.042 8.153 2.495 10.312 3.536 2.159 8.145 1.04 10.312-2.495 4.742-7.774 13.466-17.79 28.07-21.368 4.005-.98 6.492-5.027 5.502-9.071z" fill="#02ba72"/><path d="m158.508.397c-11.619 1.358-23.072 6.631-32.201 15.76-14.277 14.277-19.124 34.235-14.312 51.628 17.393 4.811 37.351-.035 51.628-14.312 9.129-9.129 14.403-20.582 15.761-32.201 1.407-12.054-8.823-22.284-20.876-20.875z" fill="url(#SVGID_00000099623860442903198750000015246735981384714895_)"/><path d="m152.77 25.844c-2.159-3.537-6.776-4.653-10.312-2.495-10.183 6.217-23.329 17.734-28.125 37.308-.985 4.024 1.478 8.085 5.502 9.072 4.044.989 8.09-1.497 9.072-5.502 3.578-14.604 13.593-23.328 21.368-28.07 3.535-2.169 4.655-6.777 2.495-10.313z" fill="#02ba72"/><circle cx="106.205" cy="73.574" fill="url(#SVGID_00000076573127805920052950000013752480252784414084_)" r="29.735"/><path d="m230.846 441.357c-15.25-2.86-29.85-7.51-43.5-13.82v-33.82c.01-.01.01-.01.01-.01 8.82 5.19 18.31 9.49 28.34 12.82.46 13.59 6.16 25.85 15.15 34.83z" fill="#fd5d71"/><path d="m289.167 429.627c0 8.01-6.29 14.66-14.29 14.96-14.715.537-29.592-.527-44.02-3.23-.01 0-.01 0-.01 0-8.99-8.98-14.69-21.24-15.15-34.83 17.852 5.932 37.218 8.778 58.03 8.08 8.459-.31 15.44 6.56 15.44 15.02z" fill="#f6b4a3"/><path d="m241.068 210.506c-3.877-7.095-12.716-9.907-19.903-6.202-28.695 14.792-55.869 13.126-76.529 4.298-.99-.423-1.936-.897-2.861-1.394-4.986 8.628-9.119 17.81-12.262 27.443 1.094.543 2.206 1.056 3.335 1.539 14.211 6.072 29.306 9.151 44.866 9.151 15.161 0 35.174-3.045 57.153-14.357 7.457-3.838 10.223-13.12 6.201-20.478z" fill="#f6b4a3"/><path d="m401.456 152.202c-33.726-35.456-81.339-57.586-134.029-57.586-52.907 0-100.695 22.313-134.445 58.025-16.603 17.569-10.573 46.463 11.655 55.961 28.752 12.285 70.124 10.71 110.65-29.814 6.722-6.721 17.557-6.721 24.279 0 40.139 40.136 81.107 42.066 109.822 30.162 22.926-9.503 29.172-38.766 12.068-56.748z" fill="url(#SVGID_00000051353398325308720580000014321623899531524531_)"/></g></svg>