<svg id="Capa_1" enable-background="new 0 0 512 512" height="512" viewBox="0 0 512 512" width="512" xmlns="http://www.w3.org/2000/svg"><g><ellipse cx="138.483" cy="72.88" fill="#d3d3ff" rx="69.279" ry="72.88"/><path d="m105.051 67.361c10.642 0 20.618-2.788 29.248-7.682 5.08-2.881 11.631-.857 13.784 4.571 4.538 11.441 12.527 21.14 22.684 27.806 5.695 3.738 5.695 12.218 0 15.956-10.156 6.666-18.145 16.365-22.684 27.806-2.153 5.428-8.704 7.452-13.784 4.572-8.63-4.894-18.606-7.682-29.248-7.682-10.63 0-20.603 2.788-29.231 7.682-5.079 2.881-11.629.858-13.784-4.569-4.541-11.441-12.535-21.141-22.696-27.807-5.696-3.738-5.696-12.22 0-15.958 10.16-6.667 18.155-16.366 22.696-27.807 2.154-5.428 8.704-7.45 13.784-4.569 8.628 4.893 18.601 7.681 29.231 7.681z" fill="#72d98b"/><path d="m368.094 512c21.448 0 36.934-20.546 31.015-41.161-17.857-62.2-75.168-107.712-143.109-107.712s-125.252 45.512-143.109 107.712c-5.919 20.615 9.567 41.161 31.015 41.161z" fill="#ff6e80"/><path d="m154.902 362.298c-21.243 0-39.123 16.729-39.62 37.967-.599 25.601 22.804 43.937 46.514 39.159 3.452-.695 6.995.728 8.97 3.643 9.62 14.193 27.411 20.256 43.498 15.362 3.729-1.134 7.71.208 9.963 3.387 7.05 9.949 18.651 16.444 31.773 16.444s24.722-6.495 31.773-16.444c2.254-3.18 6.235-4.521 9.964-3.387 16.077 4.889 33.871-1.156 43.498-15.362 1.975-2.914 5.517-4.339 8.968-3.643 23.185 4.677 46.02-12.755 46.519-37.376.443-21.858-17.893-39.75-39.755-39.75z" fill="#eeecff"/><ellipse cx="77.765" cy="263.426" fill="#ffbe9c" rx="50.195" ry="44.95"/><ellipse cx="79.702" cy="318.259" fill="#ff6e80" rx="30.418" ry="29.324"/><ellipse cx="434.235" cy="263.426" fill="#ffbe9c" rx="50.195" ry="44.95"/><ellipse cx="432.298" cy="318.259" fill="#ff6e80" rx="30.418" ry="29.324"/><path d="m256 433.299c53.093 0 102.345-14.412 139.709-40.714-4.1-17.329-20.14-30.287-38.743-30.287h-202.064c-18.595 0-34.612 12.818-38.65 30.258 37.367 26.321 86.636 40.743 139.748 40.743z" fill="#d3d3ff"/><path d="m437.786 258.2c0 89.81-81.389 146.254-181.786 146.254-100.398 0-181.786-56.444-181.786-146.254s81.388-162.616 181.786-162.616c100.398.001 181.786 72.806 181.786 162.616z" fill="#ffd3bc"/><path d="m158.596 169.698c54.247 48.802 195.495 67.054 265.752 57.481 13.393-1.825 22.641-14.381 20.301-27.695-16.419-93.408-165.359-199.464-306.566-89.887-4.006 3.109-8.859 4.889-13.924 5.135-53.915 2.618-84.02 67.907-62.962 116.905 3.82 8.889 13.85 13.461 23.02 10.374 24.594-8.281 50.182-33.462 59.354-67.904 1.772-6.659 9.902-9.018 15.025-4.409z" fill="#eeecff"/><g><g fill="#ffa1ac"><ellipse cx="174.042" cy="296.156" rx="30.241" ry="24.082"/><ellipse cx="337.958" cy="296.156" rx="30.241" ry="24.082"/></g><g fill="#495560"><path d="m191.666 280.474c-4.142 0-7.5-3.358-7.5-7.5v-12.362c0-4.142 3.358-7.5 7.5-7.5s7.5 3.358 7.5 7.5v12.362c0 4.142-3.357 7.5-7.5 7.5z"/><path d="m320.333 280.474c-4.143 0-7.5-3.358-7.5-7.5v-12.362c0-4.142 3.357-7.5 7.5-7.5s7.5 3.358 7.5 7.5v12.362c0 4.142-3.357 7.5-7.5 7.5z"/><path d="m256 287.833c-8.668 0-16.911-3.754-22.615-10.299-2.722-3.123-2.396-7.86.726-10.582s7.86-2.397 10.582.726c2.855 3.276 6.977 5.154 11.308 5.154s8.452-1.878 11.307-5.154c2.723-3.122 7.459-3.448 10.582-.726 3.123 2.721 3.448 7.459.727 10.582-5.706 6.545-13.949 10.299-22.617 10.299z"/></g></g><path d="m361.213 168.892c-.197 0-.395-.008-.595-.023-46.464-3.648-88.584-18.033-115.561-39.466-3.243-2.577-3.783-7.294-1.206-10.538 2.576-3.243 7.294-3.784 10.538-1.206 24.333 19.333 64.484 32.887 107.403 36.256 4.13.324 7.214 3.934 6.89 8.064-.308 3.929-3.593 6.913-7.469 6.913z" fill="#d3d3ff"/></g></svg>