<svg id="Capa_1" enable-background="new 0 0 512 512" height="512" viewBox="0 0 512 512" width="512" xmlns="http://www.w3.org/2000/svg"><g><g><path d="m335.792 499.912 38.693-21.924c0-69.482-44.595-125.808-114.077-125.808-69.482 0-125.809 56.326-125.809 125.808v13.012l10.95 10.5z" fill="#ff8cc0"/><path d="m219.033 491h-84.433v11.297c0 5.358 4.344 9.702 9.702 9.702h63.811l16.882-8.94z" fill="#ff68c1"/><path d="m260.409 352.18c-4.475 0-8.894.238-13.248.694 50.51 6.115 89.777 52.393 89.777 108.584v4.272c0 13.957-11.314 25.271-25.271 25.271h-9.877l-7.113 13.612 18.027 7.387h63.811c5.359 0 9.703-4.344 9.703-9.702v-24.31c-.001-69.482-56.327-125.808-125.809-125.808z" fill="#ff68c1"/><path d="m301.789 491-41.37-79.592-41.386 79.592 40.416 11.088z" fill="#00ebc4"/><path d="m312.704 512-10.915-21h-82.756l-10.919 21z" fill="#45b1c6"/><ellipse cx="442.229" cy="315.312" fill="#ffc8b7" rx="41.663" ry="41.663" transform="matrix(.96 -.281 .281 .96 -70.804 137.028)"/><ellipse cx="76.668" cy="315.312" fill="#ffc8b7" rx="41.663" ry="41.663" transform="matrix(.96 -.281 .281 .96 -85.545 34.266)"/><path d="m289.156 412.59h-67.55c-86.243 0-156.158-69.914-156.158-156.158v-1.524c0-86.243 69.914-156.158 156.158-156.158h67.55c86.243 0 156.158 69.914 156.158 156.158v1.524c0 86.244-69.915 156.158-156.158 156.158z" fill="#ffc8b7"/><path d="m294.952 99.891h-20.487c71.532 0 129.521 57.988 129.521 129.521v10.999c0 71.532-57.988 129.521-129.521 129.521h-80.76c-68.454 0-124.498-53.108-129.195-120.368-.208 3.337-.326 6.699-.326 10.088 0 88.234 71.528 159.762 159.762 159.762h71.006c88.234 0 159.762-71.528 159.762-159.762-.001-88.233-71.528-159.761-159.762-159.761z" fill="#ff96b9"/><path d="m162.438 72.441c0-33.774 40.954-61.154 91.474-61.154s91.474 27.38 91.474 61.154-47.03 76.314-97.55 76.314-85.398-42.54-85.398-76.314z" fill="#d3b5f2"/><path d="m64.944 275.324c41.924 13.533 96.357-3.716 140.542-39.402 25.658-20.722 43.971-46.464 53.96-72.992 9.989 26.528 28.302 52.27 53.96 72.992 44.161 35.666 98.633 52.901 140.548 39.401 6.271 2.294 12.418 5.958 18.419 11.233 6.46-10.766 8.252-30.662 8.252-30.662-2.097-98.146-82.306-177.065-180.955-177.065h-80.447c-98.649 0-178.858 78.919-180.955 177.065 0 0 2.395 22.802 5.854 33.412 6.251-5.875 13.104-10.692 20.822-13.982z" fill="#d3b5f2"/><path d="m320.028 468.037c-3.363 0-6.089-2.726-6.089-6.089v-11.498c0-3.362 2.726-6.089 6.089-6.089 3.362 0 6.089 2.726 6.089 6.089v11.498c-.001 3.363-2.727 6.089-6.089 6.089z" fill="#d2499a"/><path d="m353.922 485.143c-3.363 0-6.089-2.726-6.089-6.089v-11.498c0-3.363 2.726-6.089 6.089-6.089 3.362 0 6.089 2.726 6.089 6.089v11.498c0 3.363-2.726 6.089-6.089 6.089z" fill="#d2499a"/><path d="m190.208 478.147c-3.363 0-6.089-2.726-6.089-6.089v-11.498c0-3.363 2.726-6.089 6.089-6.089s6.089 2.726 6.089 6.089v11.498c0 3.362-2.727 6.089-6.089 6.089z" fill="#d2499a"/><g fill="#ea739a"><path d="m294.952 424.363h-71.006c-22.249 0-43.846-4.334-64.191-12.881-3.1-1.303-4.558-4.872-3.256-7.972s4.873-4.558 7.972-3.256c18.844 7.916 38.854 11.931 59.475 11.931h71.006c20.476 0 40.355-3.96 59.087-11.769 3.105-1.294 6.669.174 7.963 3.277 1.294 3.104-.173 6.669-3.277 7.963-20.225 8.432-41.681 12.707-63.773 12.707z"/><ellipse cx="164.134" cy="324.478" rx="17.835" ry="17.835" transform="matrix(.185 -.983 .983 .185 -185.151 425.601)"/><ellipse cx="354.763" cy="324.478" rx="17.835" ry="17.835" transform="matrix(.336 -.942 .942 .336 -70.113 549.474)"/><path d="m259.448 348.402c-13.192 0-23.924-10.732-23.924-23.924 0-3.363 2.726-6.089 6.089-6.089s6.089 2.726 6.089 6.089c0 6.477 5.269 11.746 11.746 11.746s11.747-5.269 11.747-11.746c0-3.363 2.726-6.089 6.089-6.089 3.362 0 6.089 2.726 6.089 6.089 0 13.192-10.732 23.924-23.925 23.924z"/></g><path d="m164.654 93.29c-2.586 0-4.985-1.66-5.805-4.257-1.012-3.207.766-6.627 3.973-7.64 18.18-5.742 37.156-8.653 56.4-8.653h80.447c15.357 0 30.63 1.866 45.392 5.546 3.263.813 5.249 4.118 4.435 7.381s-4.12 5.247-7.381 4.435c-13.801-3.44-28.082-5.185-42.447-5.185h-80.447c-17.998 0-35.74 2.721-52.733 8.088-.609.194-1.227.285-1.834.285z" fill="#b366d9"/><path d="m427.357 244.017c-3.363 0-6.089-2.726-6.089-6.089v-11.498c0-3.362 2.726-6.089 6.089-6.089s6.089 2.726 6.089 6.089v11.498c0 3.363-2.727 6.089-6.089 6.089z" fill="#b366d9"/><path d="m389.394 231.291c-3.362 0-6.089-2.726-6.089-6.089v-11.498c0-3.363 2.726-6.089 6.089-6.089s6.089 2.726 6.089 6.089v11.498c0 3.363-2.726 6.089-6.089 6.089z" fill="#b366d9"/><path d="m354.764 258.89c-23.706 0-44.513 12.643-56.037 31.539-10.638-9.819-24.528-15.326-39.277-15.326s-28.64 5.507-39.278 15.326c-11.524-18.896-32.332-31.539-56.037-31.539-36.165 0-65.587 29.423-65.587 65.588s29.422 65.587 65.587 65.587 65.588-29.422 65.588-65.587c0-7.876-1.398-15.432-3.955-22.435 8.675-9.414 20.763-14.762 33.682-14.762 12.92 0 25.006 5.347 33.682 14.762-2.557 7.003-3.955 14.558-3.955 22.434 0 36.165 29.423 65.587 65.588 65.587s65.588-29.422 65.588-65.587c-.002-36.164-29.425-65.587-65.589-65.587zm-190.63 118.998c-29.45 0-53.409-23.96-53.409-53.409 0-29.45 23.96-53.41 53.409-53.41 29.45 0 53.41 23.96 53.41 53.41 0 29.449-23.96 53.409-53.41 53.409zm190.63 0c-29.45 0-53.41-23.96-53.41-53.409 0-29.45 23.96-53.41 53.41-53.41s53.41 23.96 53.41 53.41c-.001 29.449-23.96 53.409-53.41 53.409z" fill="#8842c6"/></g><g fill="#fff"><path d="m118.492 245.282c-4.79 0-9.052-3.407-9.964-8.286-1.029-5.509 2.602-10.81 8.111-11.84 3.247-.606 6.501-1.349 9.673-2.207 5.409-1.465 10.982 1.735 12.446 7.146 1.464 5.41-1.736 10.983-7.146 12.446-3.689.998-7.472 1.862-11.245 2.567-.629.117-1.256.174-1.875.174z"/><path d="m159.993 230.021c-3.497 0-6.9-1.81-8.784-5.051-2.816-4.846-1.169-11.057 3.676-13.873 11.126-6.464 20.72-14.541 28.515-24.006 3.562-4.327 9.958-4.946 14.285-1.383s4.945 9.958 1.382 14.285c-9.333 11.332-20.767 20.972-33.985 28.652-1.604.933-3.358 1.376-5.089 1.376z"/></g><g><path d="m464.289 22.359-8.336 23.44c-.357 1.004-1.064 1.799-1.955 2.201l-20.825 9.382c-2.942 1.326-2.942 6.013 0 7.339l20.825 9.382c.892.402 1.598 1.197 1.955 2.201l8.336 23.44c1.178 3.312 5.342 3.312 6.52 0l8.336-23.44c.357-1.004 1.063-1.799 1.955-2.201l20.825-9.382c2.942-1.326 2.942-6.013 0-7.339l-20.825-9.383c-.892-.402-1.598-1.197-1.955-2.201l-8.336-23.44c-1.178-3.311-5.343-3.311-6.52.001z" fill="#d3b5f2"/><path d="m32.587 73.526-6.184 17.387c-.265.744-.789 1.334-1.45 1.632l-15.448 6.96c-2.182.983-2.182 4.461 0 5.444l15.448 6.96c.661.298 1.186.888 1.45 1.632l6.184 17.387c.874 2.456 3.963 2.456 4.837 0l6.184-17.387c.265-.744.789-1.334 1.45-1.632l15.448-6.96c2.182-.983 2.182-4.46 0-5.444l-15.448-6.96c-.662-.298-1.186-.888-1.45-1.632l-6.184-17.387c-.874-2.457-3.964-2.457-4.837 0z" fill="#d3b5f2"/><g fill="#ad84e6"><path d="m103.424 18.202c0 10.053 8.149 18.202 18.202 18.202s18.202-8.149 18.202-18.202-8.149-18.202-18.202-18.202-18.202 8.149-18.202 18.202z"/><path d="m400.863 36.405c0 4.203 3.408 7.611 7.611 7.611 4.204 0 7.611-3.408 7.611-7.611 0-4.204-3.408-7.611-7.611-7.611s-7.611 3.407-7.611 7.611z"/></g></g></g></svg>