<svg height="512" viewBox="0 0 60 60" width="512" xmlns="http://www.w3.org/2000/svg"><g id="Page-1" fill="none" fill-rule="evenodd"><g id="026---Refresh-Website"><g id="Icons" transform="translate(1 1)"><path id="Path" d="m58 14v34c0 2.209139-1.790861 4-4 4h-50c-2.209139 0-4-1.790861-4-4v-34z" fill="#f5f5f5"/><path id="Path" d="m55 14v34c0 2.209139-1.790861 4-4 4h3c2.209139 0 4-1.790861 4-4v-34z" fill="#cfd8dc"/><rect id="Rectangle" fill="#e91e63" height="40" rx="4" width="40" x="9" y="18"/><path id="Path" d="m45 18h-3c2.209139 0 4 1.790861 4 4v32c0 2.209139-1.790861 4-4 4h3c2.209139 0 4-1.790861 4-4v-32c0-2.209139-1.790861-4-4-4z" fill="#ad1457"/><path id="Path" d="m58 4v6h-29c-1.1032019-.0032948-1.9967052-.89679813-2-2v-2c-.0032948-1.10320187-.8967981-1.9967052-2-2h-25c0-2.209139 1.790861-4 4-4h50c2.209139 0 4 1.790861 4 4z" fill="#3f51b5"/><path id="Path" d="m54 0h-3c2.209139 0 4 1.790861 4 4v6h3v-6c0-2.209139-1.790861-4-4-4z" fill="#283593"/><path id="Path" d="m58 10v4h-58v-10h25c1.1032019.0032948 1.9967052.89679813 2 2v2c.0032948 1.10320187.8967981 1.9967052 2 2z" fill="#02a9f4"/><path id="Rectangle" d="m55 10h3v4h-3z" fill="#0377bc"/><g fill="#f5f5f5"><path id="Path" d="m31 51c-.0032948 1.1032019-.8967981 1.9967052-2 2-5.3633232.0004242-10.3187761-2.8627605-12.9970436-7.5094927-2.6782674-4.6467321-2.6717691-10.3698692.0170436-15.0105073l-.81.07c-1.0736295.0591342-2.0018721-.7412015-2.101404-1.8118418s.6652725-2.0283699 1.731404-2.1681582l5.97-.56c.528174-.0523189 1.0553877.1083084 1.4646627.4462418.409275.3379335.6667647.8252265.7153373 1.3537582l.56 5.98c.0522494.5271093-.1086661 1.0532012-.4468422 1.4608913-.3381761.40769-.8254713.6630522-1.3531578.7091087-.0629727.0083152-.1265024.0116589-.19.01-1.0306033-.0004919-1.8920928-.7840577-1.99-1.81l-.15-1.57c-1.9239083 3.4060205-1.8942094 7.5775383.0779993 10.9558206 1.9722088 3.3782824 5.5901727 5.4550055 9.5020007 5.4541794 1.1032019.0032948 1.9967052.8967981 2 2z"/><path id="Path" d="m27 25c.0032948-1.1032019.8967981-1.9967052 2-2 5.3633232-.0004242 10.3187761 2.8627605 12.9970436 7.5094927 2.6782674 4.6467321 2.6717691 10.3698692-.0170436 15.0105073l.81-.07c1.0736295-.0591342 2.0018721.7412015 2.101404 1.8118418s-.6652725 2.0283699-1.731404 2.1681582l-5.97.56c-.528174.0523189-1.0553877-.1083084-1.4646627-.4462418-.409275-.3379335-.6667647-.8252265-.7153373-1.3537582l-.56-5.98c-.0522494-.5271093.1086661-1.0532012.4468422-1.4608913.3381761-.40769.8254713-.6630522 1.3531578-.7091087.0629727-.0083152.1265024-.0116589.19-.01 1.0306033.0004919 1.8920928.7840577 1.99 1.81l.15 1.57c1.9239083-3.4060205 1.8942094-7.5775383-.0779993-10.9558206-1.9722088-3.3782824-5.5901727-5.4550055-9.5020007-5.4541794-1.1032019-.0032948-1.9967052-.8967981-2-2z"/></g></g><g id="Icons_copy" fill="#000"><path id="Path" d="m17 9h-11c-.55228475 0-1 .44771525-1 1 0 .5522847.44771525 1 1 1h11c.5522847 0 1-.4477153 1-1 0-.55228475-.4477153-1-1-1z"/><path id="Path" d="m24.707 8.293c-.3904999-.39038194-1.0235001-.39038194-1.414 0l-.293.293-.293-.293c-.3923789-.37897221-1.0160848-.37355237-1.4018186.01218142-.3857338.3857338-.3911536 1.00943969-.0121814 1.40181858l.293.293-.293.293c-.2599566.2510745-.3642126.6228779-.2726972.9725073.0915155.3496295.3645604.6226744.7141899.7141899.3496294.0915154.7214328-.0127406.9725073-.2726972l.293-.293.293.293c.3923789.3789722 1.0160848.3735524 1.4018186-.0121814s.3911536-1.0094397.0121814-1.4018186l-.293-.293.293-.293c.3903819-.39049985.3903819-1.02350015 0-1.414z"/><circle id="Oval" cx="53" cy="6" r="1"/><circle id="Oval" cx="49" cy="6" r="1"/><circle id="Oval" cx="45" cy="6" r="1"/><g fill-rule="nonzero"><path id="Shape" d="m55 0h-50c-2.76005315.00330612-4.99669388 2.23994685-5 5v44c.00330612 2.7600532 2.23994685 4.9966939 5 5h4v1c.00330612 2.7600532 2.2399468 4.9966939 5 5h32c2.7600532-.0033061 4.9966939-2.2399468 5-5v-1h4c2.7600532-.0033061 4.9966939-2.2399468 5-5v-44c-.0033061-2.76005315-2.2399468-4.99669388-5-5zm-53 6h24c.5522847 0 1 .44771525 1 1v2c0 1.6568542 1.3431458 3 3 3h28v2h-56zm3-4h50c1.6568542 0 3 1.34314575 3 3v5h-28c-.5522847 0-1-.44771525-1-1v-2c0-1.65685425-1.3431458-3-3-3h-23.816c.42225455-1.19435087 1.54921457-1.99474861 2.816-2zm44 53c0 1.6568542-1.3431458 3-3 3h-32c-1.6568542 0-3-1.3431458-3-3v-32c0-1.6568542 1.3431458-3 3-3h32c1.6568542 0 3 1.3431458 3 3zm6-3h-4v-29c-.0033061-2.7600532-2.2399468-4.9966939-5-5h-32c-2.7600532.0033061-4.99669388 2.2399468-5 5v29h-4c-1.65685425 0-3-1.3431458-3-3v-33h56v33c0 1.6568542-1.3431458 3-3 3z"/><path id="Shape" d="m30 49c-3.0265317-.0002625-5.8901121-1.3711962-7.7881785-3.7285757-1.8980665-2.3573795-2.6263807-5.4475429-1.9808215-8.4044243.570698.6991612 1.4264972 1.1033601 2.329 1.1.0938785.0018862.1877739-.0027918.281-.014.791335-.0713966 1.5214548-.4556495 2.0283565-1.0674986.5069016-.6118491.748664-1.400694.6716435-2.1915014l-.56-5.978c-.0729073-.7931653-.4589631-1.5245544-1.0727004-2.0322485-.6137374-.507694-1.404527-.7498116-2.1972996-.6727515l-5.967.56c-1.4717365.1379118-2.6236823 1.327315-2.7144451 2.8027099-.0907629 1.4753949.90671 2.7970253 2.3504451 3.1142901-2.2058217 4.9505144-1.755594 10.6811495 1.1962671 15.2264502s8.0040245 7.2872942 13.4237329 7.2855498c1.6568542 0 3-1.3431458 3-3s-1.3431458-3-3-3zm0 4c-5.0063726.0006412-9.6320553-2.6720779-12.1317618-7.009731-2.4997065-4.3376532-2.4929341-9.6799675.0177618-14.011269.1786305-.3093971.1786329-.6905896.0000064-.999989-.1786266-.3093994-.5087453-.5000019-.8660064-.500011-.0286472-.0014952-.0573528-.0014952-.086 0l-.815.07c-.2636052.0240066-.5260997-.0564295-.731-.224-.311075-.258324-.4359687-.6785629-.3164708-1.0648519s.459868-.6625992.8624708-.7001481l5.975-.56c.2635547-.0261247.5266006.0543331.7304456.2234211s.3315261.4127357.3545544.6765789l.561 5.987c.0268239.2589091-.0517539.5177111-.218.718-.1956313.22581-.478267.3574884-.777.362-.5153017-.0002459-.9460464-.3920288-.995-.905l-.15-1.57c-.042008-.4348425-.3614281-.7920852-.7888803-.8822921-.4274521-.0902068-.8639861.1075042-1.0781197.4882921-2.098997 3.7158403-2.0665424 8.2668846.0852355 11.9524116s6.0990654 5.9509142 10.3667645 5.9495884c.5522847 0 1 .4477153 1 1s-.4477153 1-1 1z"/><path id="Shape" d="m45.888 46.13c-.3684598-.3065768-.8055199-.5196179-1.274-.621 2.2040387-4.9492457 1.7537589-10.6776566-1.1965005-15.2217505-2.9502593-4.5440938-7.9996753-7.286509-13.4174995-7.2872495-1.6568542 0-3 1.3431458-3 3s1.3431458 3 3 3c3.0265317.0002625 5.8901121 1.3711962 7.7881785 3.7285757 1.8980665 2.3573795 2.6263807 5.4475429 1.9808215 8.4044243-.570698-.6991612-1.4264972-1.1033601-2.329-1.1-.0938785-.0018862-.1877739.0027918-.281.014-.791335.0713966-1.5214548.4556495-2.0283565 1.0674986-.5069016.6118491-.748664 1.400694-.6716435 2.1915014l.56 5.978c.1456562 1.5320943 1.4270335 2.7054662 2.966 2.716.1 0 .2 0 .3-.015l5.967-.56c1.210104-.1110101 2.2337155-.9410564 2.592331-2.1021205.3586154-1.1610641-.018608-2.4237834-.955331-3.1978795zm-1.145 2.948c-.1684644.2052134-.412502.3339008-.677.357l-5.975.565c-.2635547.0261247-.5266006-.0543331-.7304456-.2234211s-.3315261-.4127357-.3545544-.6765789l-.561-5.987c-.0268239-.2589091.0517539-.5177111.218-.718.1956313-.22581.478267-.3574884.777-.362.5172165-.0023387.9508692.390117 1 .905l.15 1.57c.042008.4348425.3614281.7920852.7888803.8822921.4274521.0902068.8639861-.1075042 1.0781197-.4882921 2.0994373-3.7166176 2.0665017-8.2687222-.0864944-11.9545724s-6.101914-5.9505328-10.3705056-5.9474276c-.5522847 0-1-.4477153-1-1s.4477153-1 1-1c5.0058839-.0000763 9.6308911 2.6726472 12.1302879 7.0099147s2.4928053 9.6789993-.0172879 14.0100853c-.186218.3229339-.1773528.72264.023 1.037.1966776.3177725.5571086.4958541.929.459l.816-.07c.2637179-.0251055.526622.0554561.731.224.4192246.3556519.4774173.9811129.131 1.408z"/></g></g></g></g></svg>