<svg id="Layer_1" enable-background="new 0 0 53 53" height="512" viewBox="0 0 53 53" width="512" xmlns="http://www.w3.org/2000/svg"><g id="_x37_3"><g><g><g><g><g><path d="m36.8772087 21.8313065v7.8499298c0 1.9425087-4.9819431 3.5175819-11.1282883 3.5175819-6.1402092 0-11.122304-1.5750732-11.122304-3.5175819v-7.8499298c0 1.9425087 4.9820948 3.5175819 11.122304 3.5175819 6.1463452 0 11.1282883-1.5750732 11.1282883-3.5175819z" fill="#5b5e8b"/></g></g><g><g><path d="m36.8772087 21.8313065v5.478344c0 1.9425106-4.9819431 3.5175819-11.1282883 3.5175819-6.1402092 0-11.122304-1.5750713-11.122304-3.5175819v-5.478344c0 1.9425087 4.9820948 3.5175819 11.122304 3.5175819 6.1463452 0 11.1282883-1.5750732 11.1282883-3.5175819z" fill="#deddff"/></g></g></g><g><g><g><path d="m36.8772087 29.6827316v7.8499298c0 1.9425087-4.9819431 3.5175819-11.1282883 3.5175819-6.1402092 0-11.122304-1.5750732-11.122304-3.5175819v-7.8499298c0 1.9425106 4.9820948 3.5175819 11.122304 3.5175819 6.1463452.0000001 11.1282883-1.5750713 11.1282883-3.5175819z" fill="#5b5e8b"/></g></g><g><g><path d="m36.8772087 29.6827316v5.478344c0 1.9425087-4.9819431 3.5175819-11.1282883 3.5175819-6.1402092 0-11.122304-1.5750732-11.122304-3.5175819v-5.478344c0 1.9425106 4.9820948 3.5175819 11.122304 3.5175819 6.1463452.0000001 11.1282883-1.5750713 11.1282883-3.5175819z" fill="#deddff"/></g></g></g><g><g><path d="m36.8772087 13.9782457c0 1.9425097-4.9819431 3.5175829-11.1282883 3.5175829-6.1402092 0-11.122304-1.5750732-11.122304-3.5175829s4.9820948-3.5172834 11.122304-3.5172834c6.1463452 0 11.1282883 1.5747738 11.1282883 3.5172834z" fill="#5b5e8b"/></g></g><g><g><path d="m36.8772087 13.9783955v7.8499298c0 1.9425087-4.9819431 3.5175819-11.1282883 3.5175819-6.1402092 0-11.122304-1.5750732-11.122304-3.5175819v-7.8499298c0 1.9425097 4.9820948 3.5175819 11.122304 3.5175819 6.1463452 0 11.1282883-1.5750723 11.1282883-3.5175819z" fill="#5b5e8b"/></g></g><g><g><path d="m36.8772087 13.9783955v5.478344c0 1.9425106-4.9819431 3.5175819-11.1282883 3.5175819-6.1402092 0-11.122304-1.5750713-11.122304-3.5175819v-5.478344c0 1.9425097 4.9820948 3.5175819 11.122304 3.5175819 6.1463452 0 11.1282883-1.5750723 11.1282883-3.5175819z" fill="#deddff"/></g></g><g><g><g><path d="m27.7040539 20.2637672c-.0238533-.3067436.205471-.5745678.5122147-.5984211 3.4494991-.2682438 5.3652821-1.0219193 5.8967457-1.3826466.2540169-.1732483.6009331-.1067104.7737617.1477222.1728325.2544346.1067123.6009331-.1477203.7737637-.8214684.5582466-3.0000553 1.30439-6.4365826 1.5717964-.2997113.0256883-.5743428-.2010077-.5984192-.5122146z" fill="#b5b5ea"/></g></g></g><g><g><g><path d="m27.5676308 28.0114346c-.0238533-.3067436.205471-.5745678.5122147-.5984211 3.4482422-.2682438 5.3652802-1.0215015 5.8971634-1.3826447.2548523-.1719952.6013527-.1067123.7737656.1485577.1724091.2544346.1062927.6009331-.1485596.7737637-.821888.557827-3.0008926 1.3039703-6.4361649 1.5709591-.2997113.02569-.5743447-.2010079-.5984192-.5122147z" fill="#b5b5ea"/></g></g></g><g><g><g><path d="m27.7040539 35.8771133c-.0238533-.3067436.205471-.5745697.5122147-.598423 3.4499168-.2686615 5.3657017-1.0219193 5.8967457-1.3826447.2540169-.1736679.6009331-.1071281.7737617.1477203.1728325.2544365.1067123.6009331-.1477203.7737656-.8210487.557827-2.999218 1.3039703-6.4365826 1.5717964-.2997113.0256883-.5743428-.2010077-.5984192-.5122146z" fill="#b5b5ea"/></g></g></g><g><g><g><circle cx="16.665" cy="18.953" fill="#e83d62" r=".911"/></g></g><g><g><circle cx="19.254" cy="19.625" fill="#fcb73e" r=".911"/></g></g><g><g><circle cx="21.832" cy="20.011" fill="#65b9ff" r=".911"/></g></g></g><g><g><g><circle cx="16.665" cy="26.557" fill="#e83d62" r=".911"/></g></g><g><g><circle cx="19.254" cy="27.229" fill="#fcb73e" r=".911"/></g></g><g><g><circle cx="21.832" cy="27.615" fill="#65b9ff" r=".911"/></g></g></g><g><g><g><circle cx="16.67" cy="34.446" fill="#e83d62" r=".911"/></g></g><g><g><circle cx="19.259" cy="35.118" fill="#fcb73e" r=".911"/></g></g><g><g><circle cx="21.838" cy="35.504" fill="#65b9ff" r=".911"/></g></g></g></g></g><g><g><g><g><g><path d="m42.2603683 10.5630684c-.5876389.6483564-1.5380325.6773815-2.1265259.1341991-5.9871597-5.1856951-14.3327388-6.4400525-21.3884887-3.5819902l.0413303.0516639c.7282829 1.1701846-.0488186 2.6699719-1.4039898 2.7354627l-3.3961906.1651974c-1.3507233.0857296-2.2941189-1.359066-1.6721373-2.5806608l1.5587292-3.0245271c.6349792-1.225996 2.3382177-1.2831831 3.076129-.1548648l.1547375.2580662c8.140913-3.5171571 17.9679527-2.2017279 25.001667 3.8916569 0 0 0 .0103331.0100822.0103331.6091232.5573996.6711197 1.4761303.1446571 2.0954636z" fill="#65b9ff"/></g></g><g><g><path d="m10.2498379 13.4017954c-4.9714522 6.1593237-5.8026967 14.1015482-3.1794553 20.7588234l.0619965-.0412674c1.1470351-.7500153 2.6601014.0400658 2.7250667 1.414196l.1446581 3.3961296c.063426 1.3095016-1.2943897 2.2999611-2.5909934 1.6516609l-3.0143833-1.5690651c-1.1768639-.5992737-1.3080637-2.3208885-.1340737-3.0657921l.2580662-.1651993c-3.4635854-8.158226-2.0308192-17.5192604 3.4065232-24.258213.5615153-.6737909 1.4922404-.7178631 2.1058593-.2270679.6137188.5113478.750141 1.4390383.2167357 2.1057949z" fill="#fcb73e"/></g></g><g><g><path d="m44.4486389 42.1916656c-.5973969.6613274-1.5415878.6449509-2.1056099.123867-.5814667-.4983253-.7012253-1.429409-.1239929-2.0955276 5.0385056-5.7270088 6.4810104-13.7627811 3.922657-20.7897568l-.0516663.0309353c-1.1850319.7022076-2.6505661-.1226711-2.6940689-1.4864635l-.0413284-3.4064608c-.0220604-1.3662434 1.4324799-2.2392693 2.6424026-1.5793943l2.9627228 1.661993c1.1894722.6607447 1.2209053 2.3768387.0413284 3.076128l-.2477303.1548653c3.1005937 7.888586 1.7314035 17.4397583-4.3047141 24.3098144z" fill="#e83d62"/></g></g><g><g><path d="m39.9171066 46.0626564-1.67239 2.9522629c-.6496162 1.1700287-2.360611 1.2157478-3.0761261.0309982l-.1444054-.2683983c-7.6976891 2.9851494-16.8223019 1.747448-23.5976772-3.788456-.6215811-.4928703-.7372761-1.4318733-.2064018-2.0954666.5102329-.6165085 1.4454746-.7475395 2.0851936-.1961327 5.5393028 4.5053673 13.2064114 5.9727325 20.1704884 3.4787254l-.0309982-.0619316c-.6828804-1.1892548.1423302-2.6515541 1.5070648-2.6735916l3.4065247-.0309372h.0206642c1.3455391.0000001 2.2169304 1.448742 1.538063 2.6529275z" fill="#46cc6b"/></g></g></g></g></g></g></svg>