<svg id="Icons" height="512" viewBox="0 0 60 60" width="512" xmlns="http://www.w3.org/2000/svg"><path d="m59 9v47a3 3 0 0 1 -3 3h-52a3 3 0 0 1 -3-3v-47l1-1h56z" fill="#bfdbf0"/><path d="m59 4v5h-58v-5a3 3 0 0 1 3-3h52a3 3 0 0 1 3 3z" fill="#4184a9"/><circle cx="30" cy="34" fill="#55b76e" r="13"/><path d="m6 6h-1a1 1 0 0 1 0-2h1a1 1 0 0 1 0 2z" fill="#86fdaa"/><path d="m11 6h-1a1 1 0 0 1 0-2h1a1 1 0 0 1 0 2z" fill="#fde05e"/><path d="m16 6h-1a1 1 0 0 1 0-2h1a1 1 0 0 1 0 2z" fill="#aea8fb"/><g fill="#35718a"><path d="m55 6h-6a1 1 0 0 1 0-2h6a1 1 0 0 1 0 2z"/><path d="m10.707 35.707 3-3a1 1 0 0 0 -1.414-1.414l-1.218 1.217a18.993 18.993 0 0 1 37.055-4.21 1 1 0 1 0 1.908-.6 20.988 20.988 0 0 0 -40.97 4.954l-1.361-1.361a1 1 0 0 0 -1.414 1.414l3 3a1 1 0 0 0 1.414 0z"/><path d="m53.707 35.293-3-3a1 1 0 0 0 -1.414 0l-3 3a1 1 0 0 0 1.414 1.414l1.218-1.217a18.993 18.993 0 0 1 -37.055 4.21 1 1 0 0 0 -1.908.6 20.988 20.988 0 0 0 40.97-4.954l1.361 1.361a1 1 0 0 0 1.414-1.414z"/></g><path d="m27 41a1 1 0 0 1 -.707-.293l-3-3a1 1 0 0 1 1.414-1.414l2.185 2.185 8.308-11.078a1 1 0 0 1 1.6 1.2l-9 12a1 1 0 0 1 -.729.4z" fill="#fff"/></svg>