<svg height="512" viewBox="0 0 512 512" width="512" xmlns="http://www.w3.org/2000/svg"><g id="Flat"><circle cx="192" cy="224" fill="#fdbf92" r="16"/><circle cx="320" cy="224" fill="#fdbf92" r="16"/><path d="m336 352v80h-160v-80a48 48 0 0 1 48-48h64a48 48 0 0 1 48 48z" fill="#f1ddc1"/><path d="m336 387.75v44.25h-160v-44.24a168.186 168.186 0 0 0 160-.01z" fill="#e9d6bb"/><path d="m280 408-24 24-24-24 16-72-16-32h48l-16 32z" fill="#426887"/><rect fill="#fdc8a2" height="168" rx="64" width="128" x="192" y="144"/><path d="m192 208v-24a32 32 0 0 1 32-32z" fill="#3c6180"/><g fill="#426887"><path d="m320 208-32-32h-72a24 24 0 0 1 -24-24 24 24 0 0 1 24-24h56a48 48 0 0 1 48 48z"/><circle cx="228" cy="220" r="12"/><circle cx="284" cy="220" r="12"/></g><path d="m256 271.787a50.205 50.205 0 0 1 -28.525-9.19l9.05-13.194c12.377 8.491 26.573 8.491 38.95 0l9.05 13.194a50.205 50.205 0 0 1 -28.525 9.19z" fill="#fcb079"/><path d="m368 424v-42.792a168 168 0 0 1 -249.106-222.314l25.106 25.106v-96h-96l25.172 25.172a230.993 230.993 0 0 0 -49.172 142.828c0 128.13 103.87 232 232 232a231.212 231.212 0 0 0 160-64z" fill="#7a9e44"/><path d="m488 256c0-128.13-103.87-232-232-232a231.21 231.21 0 0 0 -160 64h48v42.792a168 168 0 0 1 249.106 222.314l-25.106-25.106v96h96l-25.172-25.172a230.993 230.993 0 0 0 49.172-142.828z" fill="#348ed8"/></g></svg>