<svg height="512" viewBox="0 0 512 512" width="512" xmlns="http://www.w3.org/2000/svg"><g id="_OUTLINE" data-name="/ OUTLINE"><path d="m456 208h-8v-121.37305a23.84385 23.84385 0 0 0 -7.02979-16.9707l-46.627-46.62695a23.84254 23.84254 0 0 0 -16.97065-7.0293h-249.37256a24.02718 24.02718 0 0 0 -24 24v96h-48a40.04552 40.04552 0 0 0 -40 40v280a40.04552 40.04552 0 0 0 40 40h400a40.04552 40.04552 0 0 0 40-40v-208a40.04552 40.04552 0 0 0 -40-40zm-72-172.686 36.686 36.686h-28.686a8.00917 8.00917 0 0 1 -8-8zm-264 4.686a8.00917 8.00917 0 0 1 8-8h240v32a24.02718 24.02718 0 0 0 24 24h40v120h-312zm-40 416a24 24 0 0 1 -48 0v-280a24.0275 24.0275 0 0 1 24-24h48v59.3501a40.05181 40.05181 0 0 0 -24 36.6499zm400 0a24.0275 24.0275 0 0 1 -24 24h-368.019a39.79461 39.79461 0 0 0 8.019-24v-208a24.0275 24.0275 0 0 1 24-24h336a24.0275 24.0275 0 0 1 24 24z"/><path d="m136 96h232v16h-232z"/><path d="m136 136h280v16h-280z"/><path d="m136 176h280v16h-280z"/><path d="m136 56h216v16h-216z"/><path d="m254.85986 316.11621-13.71972-8.23242-15.61335 26.02246a64.01224 64.01224 0 0 1 96.59089-68.06445l8.543-13.5293a79.98448 79.98448 0 0 0 -121.45536 81.4815l-21.08911-12.6543-8.23242 13.7207 46.86035 28.11524z"/><path d="m334.85986 332.11621 15.61768-26.02978a64.01647 64.01647 0 0 1 -96.93311 67.85791l-8.62643 13.47466a80.01236 80.01236 0 0 0 123.082-67.419 80.76338 80.76338 0 0 0 -1.17114-13.77344l21.05493 12.63379 8.23242-13.7207-46.86035-28.11524-28.11572 46.85938z"/><path d="m400 416h-224a24 24 0 0 0 0 48h224a24 24 0 0 0 0-48zm-219.314 32h-4.686a8 8 0 0 1 0-16h20.686zm48 0h-25.372l16-16h25.372zm48 0h-25.372l16-16h25.372zm48 0h-25.372l16-16h25.372zm75.314 0h-52.686l16-16h36.686a8 8 0 0 1 0 16z"/></g></svg>