<svg id="Layer_1" enable-background="new 0 0 64 64" height="512" viewBox="0 0 64 64" width="512" xmlns="http://www.w3.org/2000/svg"><g><g><path d="m55.375 21.116c-.937-5.837-6.022-10.318-12.119-10.318-1.183 0-2.362.172-3.491.506-3.707-4.773-10.109-7.278-16.612-6.32-8.779 1.288-15.173 8.415-15.141 16.397-4.342 1.946-7.226 6.287-7.226 11.188 0 6.157 4.562 11.255 10.48 12.127-.087-.774-.142-1.557-.142-2.354 0-.923.081-1.826.198-2.719-3.173-.782-5.536-3.644-5.536-7.055 0-3.333 2.248-6.228 5.467-7.041 1.241-.313 2.045-1.515 1.862-2.782-.878-6.065 3.951-11.814 10.765-12.815.684-.101 1.365-.149 2.039-.149 4.508 0 8.657 2.196 10.719 5.82.661 1.161 2.118 1.597 3.312.989 1.026-.525 2.139-.792 3.307-.792 3.995 0 7.258 3.244 7.273 7.23.005 1.172.822 2.184 1.968 2.433 3.366.733 5.717 3.656 5.717 7.107 0 3.411-2.363 6.273-5.536 7.055.117.892.198 1.795.198 2.719 0 .797-.055 1.58-.142 2.354 5.918-.873 10.48-5.97 10.48-12.127-.001-5.181-3.143-9.656-7.84-11.453z" fill="#3c4652"/></g><path d="m32 25.478c-1.097 0-2.189.109-3.26.32.727-.996.519-2.392-.472-3.13-.999-.742-2.407-.535-3.148.461l-3.88 5.211c-.377.507-.524 1.149-.405 1.769.12.62.494 1.162 1.032 1.492l5.572 3.42c.367.226.773.333 1.175.333.756 0 1.495-.382 1.919-1.073.65-1.059.319-2.445-.74-3.095l-.597-.367c.908-.221 1.843-.343 2.803-.343 6.545 0 11.87 5.325 11.87 11.87 0 2.06-.511 4.013-1.521 5.808-1.067 1.903-2.639 3.475-4.545 4.544-1.792 1.008-3.745 1.519-5.805 1.519-6.545 0-11.87-5.325-11.87-11.87 0-1.819.398-3.55 1.183-5.146.609-1.239.099-2.737-1.14-3.347-1.239-.611-2.737-.099-3.347 1.14-1.126 2.289-1.697 4.763-1.697 7.354 0 9.302 7.568 16.87 16.87 16.87 2.888 0 5.742-.747 8.253-2.159 2.707-1.519 4.939-3.751 6.456-6.455 1.414-2.514 2.161-5.368 2.161-8.256.003-9.302-7.565-16.87-16.867-16.87z" fill="#2d7abe"/></g></svg>