<svg height="512" viewBox="0 0 48 48" width="512" xmlns="http://www.w3.org/2000/svg"><g id="Processing_information_data" data-name="Processing information data"><path d="m42.42 37.77 1.72 1.72-7 .77c.46-4.2.28-2.6.77-7l1.34 1.34a18.62 18.62 0 0 0 -28.03-24.14l.39-3.46-3.46.38a23 23 0 0 1 34.27 30.39z" fill="#b5e08c"/><path d="m40.63 39.88c-7.37 8.59-23.06 10.22-32.89.38a23 23 0 0 1 -1.47-30.9l-1.63-1.62 3.5-.39 3.47-.35c-.47 4.21-.29 2.6-.78 7l-1.45-1.52a18.62 18.62 0 0 0 1.45 24.69c7.87 7.83 20.57 6.77 26.72-.41l-.38 3.5z" fill="#9dcc6b"/><path d="m33 33a2 2 0 0 1 -2 2h-14a2 2 0 0 1 -2-2v-18a2 2 0 0 1 2-2c10.05 0 9.46-.07 10 .18s.18 0 5.41 5.23c.82.82.59.59.59 14.59z" fill="#dad7e5"/><path d="m33 19.83c0 13.87-.1 13.17 0 13.17a16 16 0 0 1 -16-16v-4c10.05 0 9.46-.07 10 .18s.18 0 5.41 5.23a2 2 0 0 1 .59 1.42z" fill="#edebf2"/><path d="m32.82 19h-5.82v-5.82c.45.21.18 0 5.41 5.23a2 2 0 0 1 .41.59z" fill="#c6c3d8"/><path d="m43.73 37.66a24.1 24.1 0 0 0 -2.73-30.66 23.83 23.83 0 0 0 -33.28-.61c-3.2.35-3.75.22-4 1s.18 1 1.23 2c-12.19 15.89-.67 38.61 19.05 38.61a23.86 23.86 0 0 0 17.1-7.16c3.15-.35 3.7-.22 4-1s-.21-1.01-1.37-2.18zm-6.12-5.31c-.78.27-.66.79-1 4a17.62 17.62 0 0 1 -27.12-22.35c.7.7 1 1.12 1.68.88s.65-.77 1-3.91a17.6 17.6 0 0 1 26.94 22.08c-.52-.52-.84-.93-1.5-.7zm.1 8.86a22 22 0 0 1 -30.71-31.21 1 1 0 0 0 0-1.34c-.21-.22-.72-.11 3.51-.57l-.41 3.66a1 1 0 0 0 -1.48.11c-10.22 12.9-.88 31.76 15.38 31.76a19.5 19.5 0 0 0 12.26-4.3l-.09.83a1 1 0 0 0 .64 1 1.69 1.69 0 0 0 .9.06zm.59-2.08.41-3.68a1 1 0 0 0 1.39-.24 19.62 19.62 0 0 0 -27.61-27.1l.11-1a1 1 0 0 0 -1.24-1.11 21.85 21.85 0 0 1 28.2 2.46 22.1 22.1 0 0 1 2.06 28.73 1 1 0 0 0 .09 1.31c.36.33.81.17-3.41.63z"/><path d="m33.72 18.57c-.32-.68-.1-.37-5.43-5.69-1.13-1.13-1.71-.88-11.29-.88a3 3 0 0 0 -3 3v18a3 3 0 0 0 3 3h14a3 3 0 0 0 3-3c0-14.19.12-13.59-.28-14.43zm-3.13-.57h-2.59v-2.59zm.41 16h-14a1 1 0 0 1 -1-1v-18a1 1 0 0 1 1-1h9v5a1 1 0 0 0 1 1h5v13a1 1 0 0 1 -1 1z"/><path d="m25 21h-6a1 1 0 0 0 0 2h6a1 1 0 0 0 0-2z"/><path d="m25 25h-6a1 1 0 0 0 0 2h6a1 1 0 0 0 0-2z"/><path d="m25 29h-6a1 1 0 0 0 0 2h6a1 1 0 0 0 0-2z"/></g></svg>