<svg clip-rule="evenodd" fill-rule="evenodd" height="512" image-rendering="optimizeQuality" shape-rendering="geometricPrecision" text-rendering="geometricPrecision" viewBox="0 0 1.70666 1.70666" width="512" xmlns="http://www.w3.org/2000/svg"><g id="Layer_x0020_1" fill-rule="nonzero"><path d="m.602457 1.70666c.0220906 0 .04-.0179094.04-.04s-.0179094-.04-.04-.04h-.284831c-.117173 0-.213173-.096-.213173-.213173v-1.12031c0-.117173.096-.213173.213173-.213173h.284831c.0220906 0 .04-.0179094.04-.04s-.0179094-.04-.04-.04h-.284831c-.161327 0-.293173.131846-.293173.293173v1.12031c0 .161327.131846.293173.293173.293173z"/><path d="m1.63672.962862-.517835.517839c-.14439.14439-.362551-.0738858-.218217-.21822l.254839-.254843h-.666602c-.204102 0-.204098-.308618 0-.308618h.666602l-.254839-.254843c-.144409-.144409.0738898-.362543.218217-.218217l.51826.51826c.0594134.0594134.059685.159492-.0004252.218642zm-.574394.46128.517965-.517969c.0288189-.0296063.029878-.075811.00029528-.105394l-.51826-.51826c-.0694882-.0694882-.174594.0356024-.105098.105098l.32278.322783c.00744094.00726378.0120591.0174016.0120591.0286181 0 .0220906-.0179094.04-.04.04h-.763161c-.0982795 0-.0982874.148618 0 .148618h.763161c.0351339 0 .0536654.0429016.0282835.0682835l-.323122.323118c-.0699803.0699803.0355276.174673.105098.105102z"/></g></svg>