<svg id="Layer_1" enable-background="new 0 0 512 512" height="512" viewBox="0 0 512 512" width="512" xmlns="http://www.w3.org/2000/svg"><g><g fill="#ff5b5b"><path d="m256 287.065c25.99 0 47.133-21.144 47.133-47.133v-192.8c0-25.988-21.143-47.132-47.133-47.132s-47.135 21.144-47.135 47.133v192.8c0 25.989 21.145 47.132 47.135 47.132z"/><path d="m414.658 130.2c-.123-.131-.244-.259-.359-.372-8.902-8.901-20.738-13.803-33.326-13.803-12.59 0-24.426 4.901-33.328 13.803-8.904 8.902-13.807 20.739-13.805 33.33.002 12.387 4.748 24.045 13.383 32.897.137.147.275.293.42.436 24.477 24.478 37.957 57.023 37.957 91.642 0 71.462-58.137 129.6-129.6 129.6-71.461 0-129.6-58.138-129.6-129.6 0-34.62 13.48-67.165 37.959-91.642 18.373-18.374 18.375-48.275-.004-66.659-8.904-8.9-20.74-13.802-33.328-13.802s-24.424 4.902-33.324 13.805c-42.283 42.283-65.568 98.501-65.568 158.298s23.285 116.014 65.568 158.298 98.5 65.569 158.297 65.569 116.016-23.286 158.297-65.569c42.283-42.283 65.568-98.501 65.568-158.298 0-59.619-23.152-115.693-65.207-157.933z"/></g><g fill="#ff0059"><path d="m303.133 239.933v-192.8c0-25.989-21.143-47.133-47.133-47.133v287.065c25.99 0 47.133-21.143 47.133-47.132z"/><path d="m414.658 130.2c-.123-.131-.244-.259-.359-.372-8.902-8.901-20.738-13.803-33.326-13.803-12.59 0-24.426 4.901-33.328 13.803-8.904 8.902-13.807 20.739-13.805 33.33.002 12.387 4.748 24.045 13.383 32.897.137.147.275.293.42.436 24.477 24.478 37.957 57.023 37.957 91.642 0 71.462-58.137 129.6-129.6 129.6v94.267c59.797 0 116.016-23.286 158.297-65.569 42.283-42.283 65.568-98.501 65.568-158.298 0-59.619-23.152-115.693-65.207-157.933z"/></g></g></svg>