<svg height="512" viewBox="0 0 64 64" width="512" xmlns="http://www.w3.org/2000/svg"><g id="doctor-hospital-call-covid19-mobilephone"><path d="m29 9h32v38h-32z" fill="#ffdaaa"/><path d="m29 47h32v-32a32 32 0 0 1 -32 32z" fill="#ffc477"/><path d="m29 47h32a0 0 0 0 1 0 0v2a4 4 0 0 1 -4 4h-24a4 4 0 0 1 -4-4v-2a0 0 0 0 1 0 0z" fill="#004fac"/><path d="m45 47.81v13.19h-42v-13.19a9.992 9.992 0 0 1 7.57-9.7l1.46-.36 2.97-.75 4 6 2.86-2.28 2.14-1.72 2.14 1.72 2.86 2.28 4-6 2.97.75 1.46.36a9.992 9.992 0 0 1 7.57 9.7z" fill="#d1e7f8"/><path d="m33 3h24a4 4 0 0 1 4 4v2a0 0 0 0 1 0 0h-32a0 0 0 0 1 0 0v-2a4 4 0 0 1 4-4z" fill="#004fac"/><path d="m13 21v-8a4 4 0 0 1 4-4h2a2 2 0 0 1 2 2 4 4 0 0 1 4-4h4a6 6 0 0 1 6 6v8z" fill="#58595b"/><path d="m14 20a2.006 2.006 0 0 0 -2 2v1a2.006 2.006 0 0 0 2 2h2v-5z" fill="#ffac96"/><path d="m34 25a2.006 2.006 0 0 0 2-2v-1a2.006 2.006 0 0 0 -2-2h-2v5z" fill="#ffac96"/><circle cx="12" cy="50" fill="none" r="3"/><path d="m24 39-2.145 1.716-.115 2.534 2.26.75 2.26-.75-.115-2.534z" fill="#005ece"/><path d="m24 39 5-3v-3.76a7.982 7.982 0 0 1 -10 0v3.76z" fill="#ffac96"/><path d="m24 44-2.26-.75-1.74 17.75h8l-1.74-17.75z" fill="#006df0"/><path d="m15 37 4 6 5-4-5-3z" fill="#57a4ff"/><path d="m24 39 5 4 4-6-4-1z" fill="#57a4ff"/><path d="m30 16h-12a2 2 0 0 0 -2 2v8a8 8 0 0 0 16 0v-8a2 2 0 0 0 -2-2z" fill="#ffbcab"/><circle cx="12" cy="50" fill="#ed1c24" r="3"/><path d="m44 28.757-4.243-4.242-1.414 1.414a4 4 0 0 0 0 5.657l7.071 7.071a4 4 0 0 0 5.657 0l1.414-1.414-4.242-4.243-1.415 1.414a1 1 0 0 1 -1.414 0l-2.828-2.828a1 1 0 0 1 0-1.414z" fill="#ed1c24"/><g fill="#231f20"><path d="m21.707 27.293a1 1 0 0 0 -1.407 1.416 5.246 5.246 0 0 0 7.412 0 1 1 0 0 0 -1.421-1.409 3.244 3.244 0 0 1 -4.582 0z"/><path d="m21 24a1 1 0 0 0 1-1v-1a1 1 0 0 0 -2 0v1a1 1 0 0 0 1 1z"/><path d="m27 24a1 1 0 0 0 1-1v-1a1 1 0 0 0 -2 0v1a1 1 0 0 0 1 1z"/><path d="m57 2h-24a5.017 5.017 0 0 0 -4.9 4h-3.1a4.989 4.989 0 0 0 -4.33 2.51 2.994 2.994 0 0 0 -1.67-.51h-2a5 5 0 0 0 -5 5v6.78a2.986 2.986 0 0 0 -1 2.22v1a3.009 3.009 0 0 0 3 3h1a8.955 8.955 0 0 0 3 6.69v.31h-2a5.006 5.006 0 0 0 -4.88 3.94l-.79.2a10.968 10.968 0 0 0 -8.33 10.67v13.19a1 1 0 0 0 1 1h42a1 1 0 0 0 1-1v-7h11a5 5 0 0 0 5-5v-42a5 5 0 0 0 -5-5zm-42 22h-1a1 1 0 0 1 -1-1v-1a1 1 0 0 1 1-1h1zm0-6v1h-1v-6a3.009 3.009 0 0 1 3-3h2a1 1 0 0 1 1 1 1 1 0 0 0 2 0 3.009 3.009 0 0 1 3-3h4a5 5 0 0 1 5 5v6h-1v-1a3.009 3.009 0 0 0 -3-3h-12a3.009 3.009 0 0 0 -3 3zm20 4v1a1 1 0 0 1 -1 1h-1v-3h1a1 1 0 0 1 1 1zm-18 4v-8a1 1 0 0 1 1-1h12a1 1 0 0 1 1 1v8a7 7 0 0 1 -14 0zm7 11.83-4-2.4v-1.38a8.9 8.9 0 0 0 8 0v1.38zm1.23 4.71-1.23.41-1.2-.4.11-1.4 1.09-.87 1.09.88zm3.93-5.47 2.22.56-2.61 3.91-2.06-1.66a.035.035 0 0 1 -.02-.01l-.94-.75zm.84-1.85v-.22h2a3.025 3.025 0 0 1 2.5 1.34l-1.26-.31zm-11.16 1.85 3.41 2.05-.94.75-.01.01-2.07 1.66-2.61-3.91zm-2.84-2.07h2v.22l-3.24.81-1.26.31a3.025 3.025 0 0 1 2.5-1.34zm-4 13a2 2 0 1 1 -2 2 2.006 2.006 0 0 1 2-2zm7.09 12h-6.09v-4a1 1 0 0 0 -2 0v4h-7v-12.19a8.978 8.978 0 0 1 6.81-8.73l.19-.05v7.11a4 4 0 1 0 2 0v-7.61l1.56-.39 3.61 5.41a.961.961 0 0 0 .68.44.757.757 0 0 0 .15.01.977.977 0 0 0 .62-.22l1.11-.88zm2.01 0 1.51-15.41 1.08.36a.986.986 0 0 0 .62 0l1.11-.37 1.48 15.42zm22.9 0h-7v-4a1 1 0 0 0 -2 0v4h-6.09l-1.68-17.13 1.15.91a.977.977 0 0 0 .62.22.757.757 0 0 0 .15-.01.961.961 0 0 0 .68-.44l3.61-5.41 1.56.39v2.47a2.006 2.006 0 0 0 -2 2v1.81a6 6 0 0 0 -3 5.19v2a2.006 2.006 0 0 0 2 2h1a1 1 0 0 0 0-2h-1v-2a4 4 0 0 1 8 0v2h-1a1 1 0 0 0 0 2h1a2.006 2.006 0 0 0 2-2v-2a6 6 0 0 0 -3-5.19v-1.81a2.006 2.006 0 0 0 -2-2v-1.97l.19.05a8.978 8.978 0 0 1 6.81 8.73zm-7-17v1.09a5.6 5.6 0 0 0 -2 0v-1.09zm23 6a3.009 3.009 0 0 1 -3 3h-11v-1h1a1 1 0 0 0 0-2h-1v-1h14zm0-3h-14.15a10.968 10.968 0 0 0 -8.18-8.86l-.79-.2a5.006 5.006 0 0 0 -4.88-3.94h-2v-.31a8.955 8.955 0 0 0 3-6.69h1a3.009 3.009 0 0 0 3-3v-1a2.986 2.986 0 0 0 -1-2.22v-6.78a7.02 7.02 0 0 0 -.68-3h24.68zm0-38h-26.11a6.989 6.989 0 0 0 -3.74-1.9 3 3 0 0 1 2.85-2.1h24a3.009 3.009 0 0 1 3 3z"/><path d="m43 7h4a1 1 0 0 0 0-2h-4a1 1 0 0 0 0 2z"/><path d="m53.19 36.54-4.24-4.25a1 1 0 0 0 -1.41 0l-1.42 1.42-2.83-2.83 1.42-1.42a1 1 0 0 0 0-1.41l-4.25-4.24a1 1 0 0 0 -1.41 0l-1.41 1.41a5 5 0 0 0 0 7.07l7.07 7.07a4.985 4.985 0 0 0 7.07 0l1.41-1.41a1 1 0 0 0 0-1.41zm-2.83 1.41a3 3 0 0 1 -4.24 0l-7.07-7.07a3 3 0 0 1 0-4.24l.71-.71 2.83 2.83-.71.7a2 2 0 0 0 0 2.83l2.83 2.83a2 2 0 0 0 2.83 0l.7-.71 2.83 2.83z"/><path d="m47 18a1 1 0 0 0 0 2 10.011 10.011 0 0 1 10 10 1 1 0 0 0 2 0 12.013 12.013 0 0 0 -12-12z"/><path d="m47 22a1 1 0 0 0 0 2 6.006 6.006 0 0 1 6 6 1 1 0 0 0 2 0 8.009 8.009 0 0 0 -8-8z"/><path d="m47 28a2 2 0 0 1 2 2 1 1 0 0 0 2 0 4 4 0 0 0 -4-4 1 1 0 0 0 0 2z"/><circle cx="12" cy="50" r="1"/></g></g></svg>