<svg id="Capa_1" enable-background="new 0 0 512 512" height="512" viewBox="0 0 512 512" width="512" xmlns="http://www.w3.org/2000/svg"><g><path d="m144.801 511.381c-29.564 0-56.315-17.598-68.185-44.309h-20.737c-14.925 0-28.958-5.812-39.512-16.366-10.554-10.555-16.367-24.587-16.367-39.513 0-30.812 25.067-55.879 55.879-55.879h14.32v-80.204h15.223v80.205h59.379c41.142 0 74.613 33.467 74.613 74.603v6.85c0 5.105-.511 10.148-1.526 15.081h92.56v15.223h-97.454c-3.707 8.317-8.976 16.003-15.427 22.452-14.094 14.095-32.833 21.857-52.766 21.857zm-51.076-44.309c10.554 17.755 29.909 29.086 51.076 29.086 15.866 0 30.783-6.179 42.001-17.398 3.494-3.493 6.55-7.438 9.077-11.688zm-6.371-15.223h114.905c1.284-4.895 1.933-9.946 1.933-15.081v-6.85c0-32.742-26.642-59.38-59.39-59.38h-59.38v66.23c0 5.138.648 10.19 1.932 15.081zm-31.475-81.311c-22.417 0-40.655 18.238-40.655 40.656 0 10.859 4.229 21.069 11.908 28.748s17.888 11.908 28.748 11.908h15.846c-1.014-4.93-1.525-9.974-1.525-15.081v-66.23h-14.322z" fill="#7a6d79"/><g><g><path d="m421.389 424.996c-28.686 0-51.941 23.255-51.941 51.941v28.07h103.882v-28.07c0-28.686-23.255-51.941-51.941-51.941z" fill="#9be69d"/><path d="m435.059 426.812c-22.053 5.998-38.271 26.163-38.271 50.124v28.071h-27.34v-28.071c0-28.69 23.261-51.941 51.941-51.941 4.729 0 9.316.63 13.67 1.817z" fill="#6fd7a3"/></g><path d="m511.976 311.273c-.599 14.919-12.584 27.188-27.493 28.102-9.408.578-17.943-3.278-23.697-9.692-2.771-3.095-4.912-6.779-6.181-10.849-2.04.223-4.12.355-6.221.355-12.757 0-24.519-4.242-33.978-11.387-8.18 1.908-16.634 2.314-24.935 1.228.01.345.02.69.02 1.045 0 16.837-14.178 30.375-31.258 29.299-15.02-.944-27.056-13.467-27.452-28.518-.284-11.082 5.572-20.825 14.411-26.062-18.481-21.911-21.332-52.509-8.525-77.089 5.034-9.672 18.044-11.62 25.747-3.917l34.942 34.942c9.428-19.973 30.233-33.531 54.062-32.283 28.467 1.492 51.596 24.479 53.27 52.946.568 9.601-1.289 18.704-4.983 26.792 7.744 5.541 12.687 14.746 12.271 25.088z" fill="#7a6d79"/><path d="m460.786 329.682c-2.771-3.095-4.912-6.779-6.181-10.849-2.04.223-4.12.355-6.221.355-12.757 0-24.519-4.242-33.978-11.387-8.18 1.908-16.634 2.314-24.935 1.228.01.345.02.69.02 1.045 0 16.837-14.178 30.375-31.258 29.299-15.02-.944-27.056-13.467-27.452-28.518-.284-11.082 5.572-20.825 14.411-26.062-18.481-21.911-21.332-52.509-8.525-77.089 5.034-9.672 18.044-11.62 25.747-3.917l2.405 2.405c-1.461 32.8 6.049 88.446 70.848 101.101 21.445 4.183 27.899 12.332 25.119 22.389z" fill="#685e68"/><path d="m485.859 339.013h-1.224v-11.419c0-26.052-15.751-48.429-38.25-58.111-10.433 19.343-30.872 32.486-54.397 32.486-9.144 0-17.831-1.989-25.635-5.561-5.227 9.205-8.21 19.841-8.21 31.187v11.419h-1.224c-9.399 0-17.018 7.619-17.018 17.018 0 9.399 7.619 17.018 17.018 17.018h4.487c3.139 9.397 8.407 17.82 15.258 24.672 7.053 7.053 15.761 12.442 25.493 15.538v15.193c0 5.318 2.151 10.118 5.633 13.599 3.481 3.481 8.291 5.633 13.599 5.633 10.626 0 19.242-8.606 19.242-19.232v-15.193c19.184-6.118 34.388-21.14 40.757-40.209h4.471c9.399 0 17.018-7.619 17.018-17.018 0-9.4-7.619-17.02-17.018-17.02z" fill="#ffdfcf" stroke="#ffdfcf" stroke-miterlimit="10"/><path d="m440.626 414.874v13.579c0 10.626-8.616 19.232-19.242 19.232-5.308 0-10.118-2.151-13.599-5.632s-5.633-8.281-5.633-13.599v-15.194c-9.733-3.095-18.44-8.484-25.493-15.538-6.85-6.85-12.117-15.274-15.253-24.671h-4.486c-4.699 0-8.951-1.908-12.036-4.983-3.075-3.085-4.983-7.337-4.983-12.036 0-9.398 7.622-17.019 17.019-17.019h1.218v-11.417c0-11.346 2.984-21.982 8.21-31.187 7.804 3.572 16.492 5.561 25.635 5.561 1.34 0 2.659-.041 3.978-.132-3.511 7.865-5.46 16.583-5.46 25.757v25.402c0 17.466 7.074 33.277 18.521 44.725 8.495 8.495 19.405 14.584 31.604 17.152z" fill="#ffcebf"/><g><path d="m404.61 351.017c-4.204 0-7.612-3.408-7.612-7.612v-12.15c0-4.204 3.407-7.612 7.612-7.612s7.612 3.408 7.612 7.612v12.15c-.001 4.205-3.408 7.612-7.612 7.612z" fill="#685e68"/><path d="m438.168 351.017c-4.204 0-7.612-3.408-7.612-7.612v-12.15c0-4.204 3.407-7.612 7.612-7.612s7.612 3.408 7.612 7.612v12.15c0 4.205-3.408 7.612-7.612 7.612z" fill="#685e68"/><path d="m421.774 384.74c-5.604 0-11.207-1.404-16.316-4.212-3.684-2.025-5.028-6.653-3.003-10.337s6.652-5.029 10.337-3.003c5.622 3.091 12.339 3.093 17.963 0 3.683-2.024 8.313-.681 10.337 3.003 2.025 3.684.681 8.312-3.003 10.337-5.107 2.808-10.711 4.212-16.315 4.212z" fill="#fe646f"/></g></g><g><g><path d="m361.438 325.951 6.848 34.011c1.285 6.38-2.846 12.593-9.226 13.878l-10.39 2.092c-.334.067-.667.142-.995.24l-22.512-25.672 11.005-31.48 11.393-2.294c6.379-1.286 12.592 2.845 13.877 9.225z" fill="#f9f7f8"/><path d="m382.773 431.917 6.848 34.011c1.284 6.38-2.846 12.593-9.226 13.878l-11.393 2.294-19.151-28.558 7.644-28.594c.333-.035.676-.097 1.01-.164l10.39-2.092c6.38-1.286 12.593 2.845 13.878 9.225z" fill="#f9f7f8"/><path d="m336.675 394.002 3.78 18.775c1.604 7.967 9.106 13.238 17.039 12.17l11.507 57.153-9.106 1.833c-29.59 5.958-58.405-13.198-64.362-42.789l-11.261-55.93c-5.958-29.59 13.198-58.405 42.789-64.362l9.106-1.833 11.507 57.153c-7.728 2.085-12.606 9.847-10.999 17.83z" fill="#8ac9fe"/></g></g><g><path d="m261.49 154.44c7.247-8.205 11.654-18.979 11.654-30.788 0-21.822-15.022-40.128-35.288-45.161 7.535-8.269 12.131-19.265 12.131-31.334 0-25.702-20.836-46.538-46.538-46.538h-95.293c-25.702 0-46.538 20.836-46.538 46.538 0 12.069 4.596 23.065 12.131 31.334-20.265 5.033-35.288 23.339-35.288 45.161 0 11.808 4.406 22.582 11.654 30.788-16.452 8.961-27.617 26.406-27.617 46.459 0 29.199 23.67 52.87 52.869 52.87h160.871c29.199 0 52.869-23.671 52.869-52.87 0-20.053-11.165-37.497-27.617-46.459z" fill="#fea95c"/><path d="m82.532 238.282c9.57 9.57 22.794 15.487 37.388 15.487h-44.553c-14.594 0-27.817-5.917-37.377-15.487-9.57-9.57-15.487-22.794-15.487-37.388 0-20.054 11.164-37.489 27.614-46.461-3.623-4.1-6.536-8.85-8.545-14.036-2.009-5.196-3.105-10.849-3.105-16.745 0-21.82 15.02-40.128 35.287-45.162-3.765-4.131-6.81-8.951-8.9-14.239-2.091-5.298-3.237-11.062-3.237-17.1 0-25.696 20.835-46.532 46.542-46.532h44.553c-25.707 0-46.542 20.835-46.542 46.532 0 6.038 1.147 11.803 3.237 17.1 2.091 5.287 5.125 10.108 8.89 14.239-20.267 5.034-35.287 23.342-35.287 45.162 0 5.896 1.106 11.549 3.105 16.745 2.009 5.186 4.922 9.936 8.545 14.036-16.451 8.971-27.614 26.407-27.614 46.461-.001 14.594 5.916 27.818 15.486 37.388z" fill="#fe9738"/><path d="m155.802 222.307c-28.686 0-51.941 23.255-51.941 51.941v28.07h103.882v-28.07c0-28.686-23.255-51.941-51.941-51.941z" fill="#8ac9fe"/><path d="m169.472 224.123c-22.053 5.998-38.271 26.163-38.271 50.124v28.071h-27.34v-28.071c0-28.69 23.261-51.941 51.941-51.941 4.729 0 9.317.629 13.67 1.817z" fill="#60b7ff"/><path d="m155.8 87.058v-4.78c-6.018 5.693-14.137 9.174-23.058 9.174-9.996 0-18.978-4.364-25.128-11.295-9.388 11.032-15.061 25.331-15.061 40.96v15.207h-1.221c-9.399 0-17.018 7.619-17.018 17.018 0 9.399 7.619 17.018 17.018 17.018h4.471c6.373 19.066 21.579 34.085 40.763 40.203v15.194c0 10.624 8.613 19.237 19.237 19.237 10.624 0 19.237-8.612 19.237-19.237v-15.197c25.517-8.143 44.007-32.036 44.007-60.256-34.933.001-63.247-28.324-63.247-63.246z" fill="#ffdfcf" stroke="#ffdfcf" stroke-miterlimit="10"/><path d="m175.039 212.184v13.579c0 5.318-2.152 10.118-5.632 13.599s-8.281 5.632-13.599 5.632c-10.626 0-19.242-8.606-19.242-19.232v-15.193c-19.181-6.12-34.384-21.14-40.757-40.209h-4.476c-4.699 0-8.951-1.908-12.036-4.983-3.075-3.085-4.983-7.337-4.983-12.036 0-9.398 7.622-17.019 17.019-17.019h1.228v-15.202c0-15.629 5.673-29.928 15.061-40.96 6.15 6.931 15.132 11.295 25.128 11.295.589 0 1.177-.02 1.766-.051-6.089 9.712-9.601 21.201-9.601 33.501v25.402c0 17.466 7.084 33.277 18.531 44.725 8.495 8.495 19.394 14.585 31.593 17.152z" fill="#ffcebf"/><path d="m155.802 181.282c-5.605 0-11.207-1.404-16.315-4.212-3.684-2.025-5.028-6.653-3.003-10.337s6.652-5.029 10.337-3.003c5.625 3.092 12.34 3.092 17.963 0 3.687-2.024 8.312-.68 10.337 3.004s.681 8.312-3.003 10.337c-5.108 2.807-10.712 4.211-16.316 4.211z" fill="#fe646f"/><path d="m136.789 145.961c-4.204 0-7.612-3.408-7.612-7.612v-12.149c0-4.204 3.407-7.612 7.612-7.612s7.612 3.408 7.612 7.612v12.149c0 4.204-3.408 7.612-7.612 7.612z" fill="#685e68"/></g><g><g><path d="m91.727 123.669 6.848 34.011c1.285 6.38-2.846 12.593-9.226 13.878l-10.39 2.092c-.334.067-.667.142-.995.24l-22.512-25.672 11.005-31.48 11.393-2.294c6.379-1.286 12.592 2.845 13.877 9.225z" fill="#f9f7f8"/><path d="m113.062 229.635 6.848 34.011c1.285 6.38-2.846 12.593-9.226 13.878l-11.393 2.294-19.151-28.559 7.644-28.594c.333-.035.676-.097 1.01-.164l10.39-2.092c6.379-1.285 12.593 2.846 13.878 9.226z" fill="#f9f7f8"/><path d="m66.964 191.72 3.78 18.775c1.604 7.967 9.106 13.237 17.039 12.17l11.507 57.153-9.106 1.833c-29.59 5.958-58.405-13.198-64.362-42.789l-11.261-55.93c-5.958-29.59 13.198-58.405 42.789-64.362l9.106-1.833 11.507 57.153c-7.728 2.084-12.606 9.847-10.999 17.83z" fill="#fe646f"/></g></g><path d="m482.54 14.979h-131.786c-15.139 0-27.411 12.272-27.411 27.411v23.914l-31.049 26.239c-5.649 4.773-2.273 13.997 5.122 13.997h25.927v16.697c0 15.139 12.272 27.411 27.411 27.411h131.786c15.139 0 27.411-12.272 27.411-27.411v-80.848c0-15.138-12.272-27.41-27.411-27.41z" fill="#f9f7f8"/><path d="m373.571 150.646h-22.814c-15.142 0-27.412-12.27-27.412-27.411v-16.695h-25.93c-7.388 0-10.768-9.225-5.115-13.995l31.046-26.245v-23.91c0-15.142 12.27-27.412 27.412-27.412h22.814c-15.132 0-27.412 12.27-27.412 27.412v80.844c0 15.142 12.28 27.412 27.411 27.412z" fill="#dedbee"/><g fill="#cb97e7"><path d="m456.284 51.331h-97.509c-4.204 0-7.612-3.408-7.612-7.612s3.407-7.612 7.612-7.612h97.509c4.204 0 7.612 3.408 7.612 7.612s-3.408 7.612-7.612 7.612z"/><path d="m456.284 83.778h-97.509c-4.204 0-7.612-3.408-7.612-7.612s3.407-7.612 7.612-7.612h97.509c4.204 0 7.612 3.408 7.612 7.612s-3.408 7.612-7.612 7.612z"/><path d="m417.498 116.225h-58.723c-4.204 0-7.612-3.408-7.612-7.612s3.407-7.612 7.612-7.612h58.723c4.204 0 7.612 3.408 7.612 7.612-.001 4.204-3.408 7.612-7.612 7.612z"/></g></g></svg>