<?xml version="1.0" encoding="iso-8859-1"?>
<!-- Generator: Adobe Illustrator 19.0.0, SVG Export Plug-In . SVG Version: 6.00 Build 0)  -->
<svg version="1.1" id="Capa_1" xmlns="http://www.w3.org/2000/svg" xmlns:xlink="http://www.w3.org/1999/xlink" x="0px" y="0px"
	 viewBox="0 0 512 512" style="enable-background:new 0 0 512 512;" xml:space="preserve">
<path style="fill:#87F8F4;" d="M431.643,319.377h-78.058v151.414h78.058c17.068,0,30.905-13.837,30.905-30.905v-89.603
	C462.549,333.213,448.712,319.377,431.643,319.377z"/>
<path style="fill:#00E7EC;" d="M431.643,319.376L431.643,319.376v120.509h-78.057v30.905h78.058
	c17.068,0,30.905-13.837,30.905-30.905v-89.603C462.549,333.213,448.712,319.376,431.643,319.376z"/>
<path style="fill:#60F375;" d="M431.643,226.654h-78.058v151.414h78.058c17.068,0,30.905-13.837,30.905-30.905V257.56
	C462.549,240.491,448.712,226.654,431.643,226.654z"/>
<path style="fill:#28D05B;" d="M431.643,226.654L431.643,226.654v120.509h-78.057v30.905h78.058
	c17.068,0,30.905-13.837,30.905-30.905V257.56C462.549,240.491,448.712,226.654,431.643,226.654z"/>
<path style="fill:#FFCF5D;" d="M431.643,133.932h-78.058v151.414h78.058c17.068,0,30.905-13.837,30.905-30.905v-89.603
	C462.549,147.769,448.712,133.932,431.643,133.932z"/>
<path style="fill:#FF983B;" d="M431.643,133.932L431.643,133.932V254.44h-78.057v30.905h78.058
	c17.068,0,30.905-13.837,30.905-30.905v-89.603C462.549,147.769,448.712,133.932,431.643,133.932z"/>
<path style="fill:#FF7C8B;" d="M431.643,41.21h-78.058v151.413h78.058c17.068,0,30.905-13.837,30.905-30.905V72.116
	C462.549,55.047,448.712,41.21,431.643,41.21z"/>
<path style="fill:#FF5368;" d="M431.643,41.209L431.643,41.209v120.509h-78.057v30.905h78.058c17.068,0,30.905-13.837,30.905-30.905
	V72.115C462.549,55.047,448.712,41.209,431.643,41.209z"/>
<g>
	<path style="fill:#B6B0A2;" d="M131.771,127.05L62.749,67.3c-3.227-2.793-8.105-2.442-10.899,0.785
		c-2.794,3.227-2.44,8.105,0.785,10.898l69.022,59.751c3.227,2.793,8.105,2.442,10.899-0.785c1.265-1.461,1.884-3.262,1.884-5.053
		C134.439,130.73,133.535,128.578,131.771,127.05z"/>
	<path style="fill:#B6B0A2;" d="M131.748,187.812l-69.537-59.751c-3.237-2.781-8.115-2.412-10.895,0.825
		c-2.779,3.236-2.412,8.114,0.825,10.895l69.537,59.751c3.237,2.781,8.115,2.412,10.895-0.825c1.253-1.458,1.867-3.249,1.867-5.031
		C134.439,191.501,133.527,189.34,131.748,187.812z"/>
	<path style="fill:#B6B0A2;" d="M131.748,248.786l-69.537-59.751c-3.237-2.781-8.115-2.412-10.895,0.825
		c-2.779,3.236-2.412,8.114,0.825,10.895l69.537,59.75c3.237,2.781,8.115,2.412,10.895-0.825c1.253-1.458,1.867-3.249,1.867-5.031
		C134.439,252.476,133.527,250.314,131.748,248.786z"/>
	<path style="fill:#B6B0A2;" d="M131.771,310.468l-69.022-59.751c-3.227-2.793-8.105-2.442-10.899,0.785
		c-2.794,3.227-2.44,8.105,0.785,10.898l69.022,59.751c3.227,2.793,8.105,2.441,10.899-0.785c1.265-1.461,1.884-3.262,1.884-5.053
		C134.439,314.148,133.535,311.996,131.771,310.468z"/>
	<path style="fill:#B6B0A2;" d="M131.748,371.23l-69.537-59.75l-10.895,0.825c-2.779,3.236-2.412,8.114,0.825,10.895l69.537,59.751
		c3.237,2.781,8.115,2.412,10.895-0.825c1.253-1.458,1.867-3.249,1.867-5.031C134.439,374.92,133.527,372.758,131.748,371.23z"/>
	<path style="fill:#B6B0A2;" d="M131.748,433.382l-69.537-59.75c-3.237-2.782-8.115-2.412-10.895,0.825
		c-2.779,3.236-2.412,8.114,0.825,10.895l69.537,59.75c3.237,2.782,8.115,2.412,10.895-0.825c1.253-1.458,1.867-3.249,1.867-5.031
		C134.439,437.071,133.527,434.909,131.748,433.382z"/>
</g>
<path style="fill:#5C87BD;" d="M117.442,512h252.387c17.068,0,30.905-13.836,30.905-30.905V30.905
	C400.735,13.836,386.897,0,369.829,0H117.442c-17.068,0-30.905,13.836-30.905,30.905v450.189
	C86.537,498.164,100.373,512,117.442,512z M127.802,95.083c-12.517,0-22.664-10.147-22.664-22.664s10.147-22.664,22.664-22.664
	c12.517,0,22.664,10.147,22.664,22.664S140.319,95.083,127.802,95.083z M127.802,156.475c-12.517,0-22.664-10.147-22.664-22.664
	s10.147-22.664,22.664-22.664c12.517,0,22.664,10.147,22.664,22.664C150.466,146.328,140.319,156.475,127.802,156.475z
	 M127.802,217.867c-12.517,0-22.664-10.147-22.664-22.664s10.147-22.664,22.664-22.664c12.517,0,22.664,10.147,22.664,22.664
	S140.319,217.867,127.802,217.867z M127.802,279.259c-12.517,0-22.664-10.147-22.664-22.664c0-12.517,10.147-22.664,22.664-22.664
	c12.517,0,22.664,10.147,22.664,22.664C150.466,269.112,140.319,279.259,127.802,279.259z M127.802,340.652
	c-12.517,0-22.664-10.147-22.664-22.664s10.147-22.664,22.664-22.664c12.517,0,22.664,10.147,22.664,22.664
	S140.319,340.652,127.802,340.652z M127.802,402.045c-12.517,0-22.664-10.147-22.664-22.664s10.147-22.664,22.664-22.664
	c12.517,0,22.664,10.147,22.664,22.664S140.319,402.045,127.802,402.045z M127.802,461.601c-12.517,0-22.664-10.147-22.664-22.664
	c0-12.517,10.147-22.664,22.664-22.664c12.517,0,22.664,10.147,22.664,22.664C150.466,451.454,140.319,461.601,127.802,461.601z"/>
<path style="fill:#3F5F94;" d="M369.829,0v450.189c0,17.069-13.836,30.905-30.905,30.905H86.536
	c0,17.068,13.837,30.905,30.905,30.905h252.387c17.069,0,30.905-13.836,30.905-30.905V30.905C400.735,13.837,386.897,0,369.829,0z"
	/>
<path style="fill:#D3CDBF;" d="M80.356,72.111c0-4.267,3.246-7.726,7.25-7.726c8.562,0,32.914,0,40.1,0
	c4.004,0,7.25,3.459,7.25,7.726c0,4.267-3.245,7.726-7.25,7.726c-8.502,0-32.064,0-40.1,0
	C83.601,79.837,80.356,76.378,80.356,72.111z"/>
<path style="fill:#E9E3D5;" d="M49.45,72.111c0-4.267,3.246-7.726,7.25-7.726c3.717,0,16.235,0,29.798,0
	c4.004,0,7.25,3.459,7.25,7.726c0,4.267-3.245,7.726-7.25,7.726c-13.68,0-26.254,0-29.798,0
	C52.695,79.837,49.45,76.379,49.45,72.111z"/>
<path style="fill:#D3CDBF;" d="M80.356,133.921c0-4.267,3.246-7.726,7.25-7.726c8.562,0,32.914,0,40.1,0
	c4.004,0,7.25,3.459,7.25,7.726s-3.245,7.726-7.25,7.726c-8.502,0-32.064,0-40.1,0C83.601,141.648,80.356,138.188,80.356,133.921z"
	/>
<path style="fill:#E9E3D5;" d="M49.45,133.921c0-4.267,3.246-7.726,7.25-7.726c3.717,0,16.235,0,29.798,0
	c4.004,0,7.25,3.459,7.25,7.726s-3.245,7.726-7.25,7.726c-13.68,0-26.254,0-29.798,0C52.695,141.648,49.45,138.19,49.45,133.921z"/>
<path style="fill:#D3CDBF;" d="M80.356,194.896c0-4.267,3.246-7.726,7.25-7.726c7.282,0,31.593,0,40.1,0
	c4.004,0,7.25,3.459,7.25,7.726c0,4.267-3.245,7.726-7.25,7.726c-8.502,0-32.064,0-40.1,0
	C83.601,202.622,80.356,199.163,80.356,194.896z"/>
<path style="fill:#E9E3D5;" d="M49.45,194.896c0-4.267,3.246-7.726,7.25-7.726c3.236,0,15.937,0,29.798,0
	c4.004,0,7.25,3.459,7.25,7.726c0,4.267-3.245,7.726-7.25,7.726c-13.68,0-26.254,0-29.798,0
	C52.695,202.622,49.45,199.163,49.45,194.896z"/>
<path style="fill:#D3CDBF;" d="M80.356,256.707c0-4.267,3.246-7.726,7.25-7.726c7.282,0,31.593,0,40.1,0
	c4.004,0,7.25,3.459,7.25,7.726s-3.245,7.726-7.25,7.726c-8.502,0-32.064,0-40.1,0C83.601,264.433,80.356,260.974,80.356,256.707z"
	/>
<path style="fill:#E9E3D5;" d="M49.45,256.707c0-4.267,3.246-7.726,7.25-7.726c3.236,0,15.937,0,29.798,0
	c4.004,0,7.25,3.459,7.25,7.726s-3.245,7.726-7.25,7.726c-13.68,0-26.254,0-29.798,0C52.695,264.433,49.45,260.974,49.45,256.707z"
	/>
<path style="fill:#D3CDBF;" d="M80.356,317.68c0-4.267,3.246-7.726,7.25-7.726c8.562,0,32.914,0,40.1,0
	c4.004,0,7.25,3.459,7.25,7.726c0,4.267-3.245,7.726-7.25,7.726c-8.502,0-32.064,0-40.1,0
	C83.601,325.406,80.356,321.948,80.356,317.68z"/>
<path style="fill:#E9E3D5;" d="M49.45,317.68c0-4.267,3.246-7.726,7.25-7.726c3.717,0,16.235,0,29.798,0
	c4.004,0,7.25,3.459,7.25,7.726c0,4.267-3.245,7.726-7.25,7.726c-13.68,0-26.254,0-29.798,0
	C52.695,325.406,49.45,321.948,49.45,317.68z"/>
<path style="fill:#D3CDBF;" d="M80.356,379.491c0-4.267,3.246-7.726,7.25-7.726c8.562,0,32.914,0,40.1,0
	c4.004,0,7.25,3.459,7.25,7.726c0,4.267-3.245,7.726-7.25,7.726c-8.502,0-32.064,0-40.1,0
	C83.601,387.217,80.356,383.759,80.356,379.491z"/>
<path style="fill:#E9E3D5;" d="M49.45,379.491c0-4.267,3.246-7.726,7.25-7.726c3.717,0,16.235,0,29.798,0
	c4.004,0,7.25,3.459,7.25,7.726c0,4.267-3.245,7.726-7.25,7.726c-13.68,0-26.254,0-29.798,0
	C52.695,387.217,49.45,383.759,49.45,379.491z"/>
<path style="fill:#D3CDBF;" d="M80.356,440.465c0-4.267,3.246-7.726,7.25-7.726c7.282,0,31.593,0,40.1,0
	c4.004,0,7.25,3.459,7.25,7.726s-3.245,7.726-7.25,7.726c-8.502,0-32.064,0-40.1,0C83.601,448.192,80.356,444.732,80.356,440.465z"
	/>
<g>
	<path style="fill:#E9E3D5;" d="M49.45,440.465c0-4.267,3.246-7.726,7.25-7.726c3.236,0,15.937,0,29.798,0
		c4.004,0,7.25,3.459,7.25,7.726s-3.245,7.726-7.25,7.726c-13.68,0-26.254,0-29.798,0C52.695,448.192,49.45,444.732,49.45,440.465z"
		/>
	<path style="fill:#E9E3D5;" d="M190.815,279.695c1.428-10.485,10.488-18.394,21.073-18.394h14.385
		c6.864,0,13.088,3.327,17.005,8.526c22.548-7.799,39.992-26.058,46.748-48.925c-5.816-3.838-9.553-10.419-9.553-17.756v-10.89
		c0-23.257,31.395-28.855,48.248-11.096c6.34,6.68,9.7,15.798,9.217,25.013c-3.482,66.549-60.227,112.617-113.931,112.617
		C204.411,318.791,187.78,301.928,190.815,279.695z"/>
</g>
<g>
</g>
<g>
</g>
<g>
</g>
<g>
</g>
<g>
</g>
<g>
</g>
<g>
</g>
<g>
</g>
<g>
</g>
<g>
</g>
<g>
</g>
<g>
</g>
<g>
</g>
<g>
</g>
<g>
</g>
</svg>
