<svg enable-background="new 0 0 512 512" height="512" viewBox="0 0 512 512" width="512" xmlns="http://www.w3.org/2000/svg"><g id="_x32_96_x2C__Chat_x2C__Email_x2C__Message_x2C__Phone"><g><path d="m390.71 416-130.02 13-130.02-13c0-.118 0-297.23 0-335l130.02-15 129.98 15c.002 16.026.038 319.583.04 335z" fill="#e4f0fd"/><path d="m390.71 416-.04 29.67c0 22.271-18.06 40.33-40.34 40.33h-179.33c-22.28 0-40.33-18.06-40.33-40.33v-29.67h260z" fill="#4e5f7f"/><path d="m446 76c11.05 0 20 8.95 20 20s-8.95 20-20 20-20-8.95-20-20 8.95-20 20-20z" fill="#fd5959"/><path d="m71 366c13.81 0 25 11.19 25 25s-11.19 25-25 25-25-11.19-25-25 11.19-25 25-25z" fill="#fd5959"/><path d="m166 301h80v80h-80z" fill="#65e4fd"/><path d="m260.67 436c8.28 0 15 6.72 15 15s-6.72 15-15 15c-8.29 0-15-6.72-15-15s6.71-15 15-15z" fill="#3d4665"/><path d="m390.67 66.33v14.67h-260v-14.67c0-22.27 18.05-40.33 40.33-40.33h179.33c22.28 0 40.34 18.06 40.34 40.33z" fill="#4e5f7f"/><path d="m461 259.33v58.34c0 12.88-10.45 23.33-23.33 23.33h-46.86-38.14l-41.67 35v-35-81.67c0-12.88 10.45-23.33 23.33-23.33h56.67 46.67c12.88 0 23.33 10.45 23.33 23.33z" fill="#fddd41"/><path d="m206 231v35l-41.67-35h-33.66-51.34c-12.88 0-23.33-10.45-23.33-23.33v-61.67c0-12.89 10.45-23.33 23.33-23.33h51.34 52c12.88 0 23.33 10.44 23.33 23.33z" fill="#28d481"/><g fill="#cadbfd"><circle cx="448.5" cy="173.5" r="7.5"/><circle cx="448.5" cy="383.5" r="7.5"/><circle cx="93.5" cy="268.5" r="7.5"/><circle cx="93.5" cy="458.5" r="7.5"/><circle cx="68.5" cy="58.5" r="7.5"/><circle cx="53.5" cy="333.5" r="7.5"/></g><path d="m275.67 61h-30.34c-2.761 0-5-2.239-5-5s2.239-5 5-5h30.34c2.762 0 5 2.239 5 5s-2.238 5-5 5z" fill="#3d4665"/><path d="m121 156h-40c-2.761 0-5-2.239-5-5s2.239-5 5-5h40c2.761 0 5 2.239 5 5s-2.239 5-5 5z" fill="#e4f0fd"/><path d="m181 181h-100c-2.761 0-5-2.239-5-5s2.239-5 5-5h100c2.761 0 5 2.239 5 5s-2.239 5-5 5z" fill="#e4f0fd"/><path d="m181 206h-100c-2.761 0-5-2.239-5-5s2.239-5 5-5h100c2.761 0 5 2.239 5 5s-2.239 5-5 5z" fill="#e4f0fd"/><path d="m356 126h-105c-2.761 0-5-2.239-5-5s2.239-5 5-5h105c2.762 0 5 2.239 5 5s-2.238 5-5 5z" fill="#65e4fd"/><path d="m356 151h-105c-2.761 0-5-2.239-5-5s2.239-5 5-5h105c2.762 0 5 2.239 5 5s-2.238 5-5 5z" fill="#65e4fd"/><path d="m356 176h-105c-2.761 0-5-2.239-5-5s2.239-5 5-5h105c2.762 0 5 2.239 5 5s-2.238 5-5 5z" fill="#65e4fd"/><path d="m356 201h-105c-2.761 0-5-2.239-5-5s2.239-5 5-5h105c2.762 0 5 2.239 5 5s-2.238 5-5 5z" fill="#65e4fd"/></g></g></svg>