<svg height="512" viewBox="0 0 60 60" width="512" xmlns="http://www.w3.org/2000/svg"><g id="Page-1" fill="none" fill-rule="evenodd"><g id="029---Landline-Phone" fill-rule="nonzero" transform="translate(0 -1)"><path id="Shape" d="m55.73 5.8-.043 9.564c.0267695 1.0313314-.731613 1.9154627-1.755 2.046l-7.109.882-2.748.343c-.9246745.1145583-1.805959-.4245804-2.125-1.3l-1.533-4.2c-.222119-.5990495-.7134228-1.0584889-1.326-1.24-3.8571225-1.0074825-7.9351815-.7569832-11.64.715-3.7820067 1.2615695-7.062563 3.6974632-9.364 6.953-.3507672.5327952-.4304107 1.199578-.215 1.8l1.533 4.2c.3199634.8748288-.00639 1.8547185-.787 2.363l-2.324 1.508-6 3.906c-.8665807.5597643-2.01628409.3721812-2.66-.434l-6.199-7.286c-.51859843-.6539739-.57832652-1.5606463-.15-2.277 2.458-4.027 9.256-13.077 23.422-18.249 14.166-5.172 25.2-2.63 29.67-1.134.7898525.27215789 1.3286775 1.00492794 1.353 1.84z" fill="#f44335"/><path id="Shape" d="m54.377 3.96c-4.5540023-1.45701163-9.32704-2.10943395-14.105-1.928 3.7741821.11460952 7.5130542.76373561 11.105 1.928.7898525.27215789 1.3286775 1.00492794 1.353 1.84l-.043 9.564c.0267695 1.0313314-.731613 1.9154627-1.755 2.046l-7.109.882-.934.116c.3621897.1969311.7766882.276266 1.186.227l2.748-.343 7.109-.882c1.023387-.1305373 1.7817695-1.0146686 1.755-2.046l.043-9.564c-.0243225-.83507206-.5631475-1.56784211-1.353-1.84z" fill="#c81e1e"/><path id="Shape" d="m59 51.58v6.42c-.0032948 1.1032019-.8967981 1.9967052-2 2h-50c-1.10320187-.0032948-1.9967052-.8967981-2-2v-6.42c.00099825-.378673.10841686-.7494404.31-1.07l10.44-16.53 2.7-.62c.9077944-.2096287 1.5505974-1.0183163 1.55-1.95v-4.47c.0026712-.6390722.306571-1.2394595.82-1.62 3.2782262-2.2685849 7.1949315-3.4316853 11.18-3.32 3.9850685-.1116853 7.9017738 1.0514151 11.18 3.32.513429.3805405.8173288.9809278.82 1.62v4.47c-.0005974.9316837.6422056 1.7403713 1.55 1.95l2.7.62 10.44 16.53c.2015831.3205596.3090017.691327.31 1.07z" fill="#f44335"/><path id="Shape" d="m58.69 50.51-10.44-16.53-2.7-.62c-.9077944-.2096287-1.5505974-1.0183163-1.55-1.95v-4.47c-.0026712-.6390722-.306571-1.2394595-.82-1.62-3.2782262-2.2685849-7.1949315-3.4316853-11.18-3.32-.524 0-1.01.036-1.5.068 3.4692261.1470327 6.8256754 1.2746332 9.68 3.252.513429.3805405.8173288.9809278.82 1.62v4.47c-.0005974.9316837.6422056 1.7403713 1.55 1.95l2.7.62 10.44 16.53c.2015831.3205596.3090017.691327.31 1.07v6.42c-.0032948 1.1032019-.8967981 1.9967052-2 2h3c1.1032019-.0032948 1.9967052-.8967981 2-2v-6.42c-.0009983-.378673-.1084169-.7494404-.31-1.07z" fill="#c81e1e"/><rect id="Rectangle-path" fill="#02a9f4" height="7" rx="1" width="16" x="24" y="28"/><path id="Shape" d="m39 28h-3c.5522847 0 1 .4477153 1 1v5c0 .5522847-.4477153 1-1 1h3c.5522847 0 1-.4477153 1-1v-5c0-.5522847-.4477153-1-1-1z" fill="#0377bc"/><path id="Shape" d="m47.429 53h-30.858c-.7317093-.0000165-1.4050017-.399612-1.7555282-1.0418967-.3505266-.6422847-.3223265-1.4247193.0735282-2.0401033l6.429-10c.368046-.5721534 1.0016932-.9179846 1.682-.918h18c.6803068.0000154 1.313954.3458466 1.682.918l6.429 10c.3958547.615384.4240548 1.3978186.0735282 2.0401033-.3505265.6422847-1.0238189 1.0418802-1.7555282 1.0418967z" fill="#c81e1e"/><g fill="#000"><path id="Shape" d="m49.1 33.446c-.1409559-.2233762-.3645621-.3819137-.622-.441l-2.7-.62c-.4550893-.1036154-.7779782-.508264-.778-.975v-3.176c4.8641891 1.9426946 10.4225187.1534498 13.24-4.262.210433-.2999856.239939-.6910401.0769013-1.019205-.1630377-.3281648-.4925044-.5408758-.8586885-.5543885-.3661842-.0135126-.710432.1743375-.8972128.4895935-2.5220036 3.9273754-7.6384732 5.2576401-11.754 3.056-.196715-.5681557-.5567582-1.0656067-1.035-1.43-3.4487138-2.3970378-7.5736262-3.6283445-11.772-3.514-4.200708-.1145896-8.3277805 1.118591-11.777 3.519-.037.027-.065.065-.1.094l-1.311-3.59c-.1078428-.3029168-.0678883-.638831.108-.908 2.1812314-3.079649 5.2904156-5.3807887 8.873-6.567 3.5018847-1.4026206 7.3606988-1.6479139 11.012-.7.3100228.0911075.5592434.3225531.673.625l1.533 4.2c.4766895 1.3144233 1.7996643 2.1238995 3.187 1.95l9.859-1.223c1.5261035-.1846752 2.6637193-1.4961115 2.631-3.033l.041-9.567v-.034c-.0400627-1.25171237-.8502373-2.34813531-2.035-2.754-5.302-1.774-16.294-3.984-30.33 1.143s-21.02 13.895-23.933 18.668c-.64758304 1.0856248-.55103751 2.4596034.242 3.444l6.176 7.265c.96263022 1.2117981 2.68908499 1.4924661 3.986.648l8.165-5.309v2.539c.0005141.4652475-.3198976.869389-.773.975l-2.7.62c-.2574379.0590863-.4810441.2176238-.622.441l-10.442 16.534c-.30161436.4792309-.46207999 1.0337557-.463 1.6v6.42c0 1.6568542 1.34314575 3 3 3h50c1.6568542 0 3-1.3431458 3-3v-6.42c-.0019503-.566378-.1630795-1.1208009-.465-1.6zm-31.026-6.358-8.329 5.412c-.4466198.2777588-1.03094636.1728133-1.353-.243l-6.172-7.257c-.2610532-.3248034-.2933277-.7774432-.081-1.136 2.235-3.664 8.942-12.731 22.911-17.83 5.3026272-1.97075133 10.9110462-2.99169482 16.568-3.016 4.2206925-.03419381 8.4199153.60379101 12.44 1.89.3888153.13511762.6551158.49468285.671.906l-.041 9.573c.010012.5158036-.3670484.9577115-.878 1.029l-9.859 1.225c-.4620805.0564042-.9019667-.2134977-1.061-.651l-1.534-4.2c-.332534-.8969057-1.0679503-1.5848997-1.985-1.857-4.0617379-1.06952543-8.3590732-.8119797-12.264.735-3.984987 1.3343064-7.4388615 3.9079808-9.857 7.345-.5223576.7985754-.6397217 1.7959851-.317 2.694l1.533 4.2c.1600059.4369233-.0024868.9264742-.392 1.181zm39.926 30.912c0 .5522847-.4477153 1-1 1h-50c-.55228475 0-1-.4477153-1-1v-6.42c.00109249-.1897047.05512007-.3753379.156-.536l10.219-16.182 2.3-.528c1.3642764-.309676 2.3306573-1.5250299 2.325-2.924v-4.47c.0025876-.3213169.1554155-.6229023.413-.815 3.1050084-2.1449411 6.8149153-3.2400067 10.587-3.125 3.7699386-.1150333 7.4778676.978564 10.582 3.121.2600973.192311.4148605.4955433.418.819v4.47c-.0059289 1.3994.9611141 2.6150635 2.326 2.924l2.3.528 10.216 16.178c.1019075.1617825.1566279.3488015.158.54z"/><path id="Shape" d="m25 36h14c1.1045695 0 2-.8954305 2-2v-5c0-1.1045695-.8954305-2-2-2h-14c-1.1045695 0-2 .8954305-2 2v5c0 1.1045695.8954305 2 2 2zm0-7h14v5h-14z"/><path id="Shape" d="m43.523 39.377c-.5504941-.8599209-1.5019698-1.3792161-2.523-1.377h-18c-1.0213203-.0023737-1.9730069.5174139-2.523 1.378l-6.429 10c-.5932388.9230351-.6352389 2.0963036-.1095187 3.0593946.5257202.9630911 1.535283 1.5623455 2.6325187 1.5626054h30.858c1.0972357-.0002599 2.1067985-.5995143 2.6325187-1.5626054.5257202-.963091.4837201-2.1363595-.1095187-3.0593946zm-16.911 4.623h4.388v3h-5.245zm-2.938 3h-5.721l1.929-3h4.649zm7.326-5h-3.817l.572-2h3.245zm2-2h3.245l.572 2h-3.817zm-2 9v3h-6.674l.857-3zm2 0h5.817l.857 3h-6.674zm0-2v-3h4.388l.857 3zm6.469-3h4.649l1.929 3h-5.721zm2.373-3.541.991 1.541h-3.933l-.572-2.0000005 2.672.0000005c.3405084-.0003327.657785.1726245.842.459zm-18.842-.459 2.674-.0000005-.574 2.0000005h-3.932l.99-1.541c.184215-.2863755.5014916-.4593327.842-.459zm-7.307 11.479c-.1795071-.3200237-.1656223-.7134279.036-1.02l.938-1.459h6.433l-.857 3h-5.672c-.3670988.0043035-.7058774-.1967257-.878-.521zm32.614 0c-.1721226.3242743-.5109012.5253035-.878.521h-5.674l-.855-3h6.435l.938 1.459c.2009931.3069504.2141063.7003463.034 1.02z"/><path id="Shape" d="m53.2 20.716c-.7200394 1.1145425-1.8535719 1.8971686-3.1509486 2.1755128-1.2973767.2783443-2.6521883.0295772-3.7660514-.6915128-.2994874-.2203127-.6964773-.2562856-1.0306884-.0933951-.334211.1628905-.5504618.4977497-.5614427.8693809-.010981.3716312.1851209.7186746.5091311.9010142 1.1266039.732302 2.4413102 1.1223721 3.785 1.123.4981358-.0002734.9948638-.0528957 1.482-.157 1.817309-.3848872 3.405216-1.480579 4.41-3.043.1939952-.3001031.2131511-.680905.0502518-.9989614-.1628993-.3180563-.4831055-.5250467-.84-.543-.3568945-.0179532-.6962566.1558583-.8902518.4559614z"/></g></g></g></svg>