<svg enable-background="new 0 0 512 512" height="512" viewBox="0 0 512 512" width="512" xmlns="http://www.w3.org/2000/svg"><g id="_x32_96_x2C__Chat_x2C__Email_x2C__Message_x2C__Phone"><g><path d="m390.71 416-.04 29.67c0 22.271-18.06 40.33-40.34 40.33h-179.33c-22.28 0-40.33-18.06-40.33-40.33v-29.67h260z" fill="#4e5f7f"/><path d="m390.71 416c-15.322 0-244.723 0-260.04 0 0-.118 0-297.23 0-335h260c.002 16.026.038 319.583.04 335z" fill="#e4f0fd"/><path d="m446 76c11.05 0 20 8.95 20 20s-8.95 20-20 20c-11.049 0-20-8.95-20-20s8.95-20 20-20z" fill="#fd5959"/><circle cx="71" cy="391" fill="#fd5959" r="25"/><path d="m166 301h80v80h-80z" fill="#65e4fd"/><circle cx="260.67" cy="451" fill="#fd5959" r="15"/><path d="m390.67 66.33v14.67h-260v-14.67c0-22.27 18.05-40.33 40.33-40.33h179.33c22.281 0 40.34 18.06 40.34 40.33z" fill="#4e5f7f"/><path d="m461 259.33v58.34c0 12.88-10.45 23.33-23.329 23.33h-46.86-38.14l-41.671 35v-35-81.67c0-12.88 10.45-23.33 23.33-23.33h56.67 46.67c12.88 0 23.33 10.45 23.33 23.33z" fill="#fddd41"/><path d="m206 231v35l-41.67-35h-33.66-51.34c-12.88 0-23.33-10.45-23.33-23.33v-61.67c0-12.89 10.45-23.33 23.33-23.33h51.34 52c12.88 0 23.33 10.44 23.33 23.33z" fill="#28d481"/><circle cx="448.5" cy="173.5" r="7.5"/><circle cx="448.5" cy="383.5" r="7.5"/><circle cx="93.5" cy="268.5" r="7.5"/><circle cx="93.5" cy="458.5" r="7.5"/><circle cx="68.5" cy="58.5" r="7.5"/><circle cx="53.5" cy="333.5" r="7.5"/><path d="m260.67 471c-11.027 0-20-8.972-20-20s8.973-20 20-20c11.028 0 20 8.972 20 20s-8.971 20-20 20zm0-30c-5.515 0-10 4.486-10 10s4.485 10 10 10c5.514 0 10-4.486 10-10s-4.486-10-10-10z"/><path d="m275.67 61h-30.34c-2.762 0-5-2.239-5-5s2.238-5 5-5h30.34c2.762 0 5 2.239 5 5s-2.238 5-5 5z"/><path d="m390.67 86h-260c-2.761 0-5-2.239-5-5s2.239-5 5-5h260c2.762 0 5 2.239 5 5s-2.238 5-5 5z"/><path d="m390.67 421h-260c-2.761 0-5-2.238-5-5s2.239-5 5-5h260c2.762 0 5 2.238 5 5s-2.238 5-5 5z"/><path d="m350.33 491h-179.33c-24.995 0-45.33-20.335-45.33-45.33v-214.67c0-2.761 2.239-5 5-5s5 2.239 5 5v214.67c0 19.482 15.849 35.33 35.33 35.33h179.33c19.486 0 35.34-15.849 35.34-35.33l.14-104.677c.004-2.759 2.241-4.993 5-4.993h.007c2.762.004 4.997 2.245 4.993 5.007l-.14 104.67c0 24.988-20.34 45.323-45.34 45.323z"/><path d="m391 241c-2.757 0-4.994-2.231-5-4.989l-.33-149.87v-19.811c0-19.481-15.854-35.33-35.34-35.33h-179.33c-19.481 0-35.33 15.849-35.33 35.33v56.34c0 2.761-2.239 5-5 5s-5-2.239-5-5v-56.34c0-24.995 20.335-45.33 45.33-45.33h179.33c25 0 45.34 20.335 45.34 45.33v19.8l.33 149.859c.006 2.762-2.228 5.005-4.989 5.011-.004 0-.007 0-.011 0z"/><path d="m206.001 271c-1.154 0-2.299-.399-3.217-1.171l-40.275-33.829h-83.179c-15.621 0-28.33-12.709-28.33-28.33v-61.67c0-15.621 12.709-28.33 28.33-28.33h103.34c15.621 0 28.33 12.709 28.33 28.33v120c0 1.943-1.127 3.711-2.889 4.532-.673.315-1.394.468-2.11.468zm-126.671-143.33c-10.107 0-18.33 8.223-18.33 18.33v61.67c0 10.107 8.223 18.33 18.33 18.33h85c1.176 0 2.314.415 3.216 1.171l33.454 28.099v-109.27c0-10.107-8.223-18.33-18.33-18.33z"/><path d="m310.999 381c-.716 0-1.437-.153-2.111-.468-1.762-.821-2.888-2.589-2.888-4.532v-116.67c0-15.621 12.709-28.33 28.33-28.33h103.34c15.621 0 28.33 12.709 28.33 28.33v58.34c0 15.621-12.709 28.33-28.33 28.33h-83.178l-40.275 33.829c-.92.772-2.062 1.171-3.218 1.171zm23.331-140c-10.107 0-18.33 8.223-18.33 18.33v105.94l33.454-28.1c.9-.756 2.039-1.171 3.216-1.171h84.999c10.107 0 18.33-8.223 18.33-18.33v-58.34c0-10.107-8.223-18.33-18.33-18.33h-103.339z"/><path d="m121 156h-40c-2.762 0-5-2.239-5-5s2.238-5 5-5h40c2.761 0 5 2.239 5 5s-2.239 5-5 5z"/><path d="m181 181h-100c-2.762 0-5-2.239-5-5s2.238-5 5-5h100c2.761 0 5 2.239 5 5s-2.239 5-5 5z"/><path d="m181 206h-100c-2.762 0-5-2.239-5-5s2.238-5 5-5h100c2.761 0 5 2.239 5 5s-2.239 5-5 5z"/><path d="m356 126h-105c-2.762 0-5-2.239-5-5s2.238-5 5-5h105c2.762 0 5 2.239 5 5s-2.238 5-5 5z"/><path d="m356 151h-105c-2.762 0-5-2.239-5-5s2.238-5 5-5h105c2.762 0 5 2.239 5 5s-2.238 5-5 5z"/><path d="m356 176h-105c-2.762 0-5-2.239-5-5s2.238-5 5-5h105c2.762 0 5 2.239 5 5s-2.238 5-5 5z"/><path d="m356 201h-105c-2.762 0-5-2.239-5-5s2.238-5 5-5h105c2.762 0 5 2.239 5 5s-2.238 5-5 5z"/><path d="m246 386h-80c-2.762 0-5-2.238-5-5v-80c0-2.762 2.238-5 5-5h80c2.761 0 5 2.238 5 5v80c0 2.762-2.239 5-5 5zm-75-10h70v-70h-70z"/><path d="m446 121c-13.785 0-25-11.215-25-25s11.215-25 25-25 25 11.215 25 25-11.215 25-25 25zm0-40c-8.271 0-15 6.729-15 15s6.728 15 15 15c8.271 0 15-6.729 15-15s-6.729-15-15-15z"/><path d="m71 421c-16.542 0-30-13.458-30-30s13.458-30 30-30 30 13.458 30 30-13.458 30-30 30zm0-50c-11.028 0-20 8.972-20 20s8.972 20 20 20c11.027 0 20-8.972 20-20s-8.972-20-20-20z"/></g></g></svg>