<?xml version="1.0" encoding="iso-8859-1"?>
<!-- Generator: Adobe Illustrator 19.0.0, SVG Export Plug-In . SVG Version: 6.00 Build 0)  -->
<svg version="1.1" id="Capa_1" xmlns="http://www.w3.org/2000/svg" xmlns:xlink="http://www.w3.org/1999/xlink" x="0px" y="0px"
	 viewBox="0 0 511.999 511.999" style="enable-background:new 0 0 511.999 511.999;" xml:space="preserve">
<path style="fill:#FCD2BE;" d="M271.578,81.012l33.328,90.244c15.274,41.356,61.201,62.51,102.57,47.233
	c11.08-4.093,20.701-10.38,28.569-18.187l-0.004-0.012c19.034-18.89,27.764-46.689,21.762-73.828
	c2.893-2.395,5.311-5.455,6.994-9.109c5.956-12.91,0.306-28.208-12.611-34.148c-12.914-5.968-28.225-0.314-34.172,12.62
	l-19.611-33.744l-13.358-22.972L271.578,81.012z"/>
<path style="fill:#FAB998;" d="M436.04,200.289c19.034-18.89,27.764-46.689,21.762-73.828c2.893-2.395,5.311-5.455,6.994-9.109
	c5.956-12.91,0.306-28.208-12.611-34.148c-12.914-5.968-28.225-0.314-34.172,12.62L398.402,62.08l-18.24,11.286
	C393.748,84.637,448.088,124.023,436.04,200.289z"/>
<path style="fill:#50515B;" d="M430.082,50.462l11.217,30.371c-9.696,0.034-18.95,5.59-23.278,14.987l-6.693-18.123
	c-4.968,1.835-9.505,2.712-13.664,2.853c-24.721,0.925-35.261-23.766-35.261-23.766c-15.071,32.7-81.721,48.852-81.721,48.852
	c-6.231-16.872-5.033-34.673,1.941-49.813c6.966-15.124,19.716-27.604,36.586-33.836l27.225-10.055
	C380.165-0.523,417.62,16.719,430.082,50.462z"/>
<path style="fill:#393A42;" d="M430.082,50.462l11.217,30.371c-9.696,0.034-18.95,5.59-23.278,14.987l-6.693-18.123
	c-4.968,1.835-9.505,2.712-13.664,2.853c-6.493-37.599-37.801-73.576-67.589-62.575l16.359-6.042
	C380.165-0.523,417.62,16.719,430.082,50.462z"/>
<path style="fill:#FCD2BE;" d="M156.32,237.707l28.688,91.824c13.147,42.081-10.318,86.871-52.412,100.023
	c-11.274,3.522-22.733,4.415-33.73,3.034l-0.004-0.013c-26.607-3.344-50.492-20.034-62.304-45.193
	c-3.754-0.131-7.536-1.079-11.1-2.945c-12.598-6.59-17.461-22.157-10.856-34.746c6.586-12.61,22.165-17.477,34.77-10.863
	l-5.065-38.698l-3.443-26.35L156.32,237.707z"/>
<path style="fill:#FAB998;" d="M98.863,432.575c-26.607-3.344-50.492-20.034-62.304-45.193c-3.754-0.131-7.536-1.079-11.1-2.945
	c-12.598-6.59-17.461-22.157-10.856-34.746c6.586-12.61,22.165-17.477,34.77-10.863l-5.065-38.698l21.337-2.196
	C61.765,315.154,42.766,379.52,98.863,432.575z"/>
<path style="fill:#F9CE55;" d="M180.342,189.417c11.428,36.577-8.965,75.484-45.531,86.908l-69.165,21.609l1.92,6.147
	c4.568,14.622-3.588,30.17-18.209,34.739c-9.293-4.869-20.214-3.492-27.938,2.62l-8.451-27.047
	c-11.423-36.564,8.965-75.484,45.531-86.908L180.342,189.417z"/>
<path style="fill:#E2A11E;" d="M112.545,210.598L58.5,227.484c-36.564,11.423-56.954,50.343-45.531,86.908l8.451,27.047
	c7.725-6.112,18.645-7.489,27.938-2.62c14.622-4.568,22.777-20.117,18.209-34.739l-1.92-6.147l1.368-0.428
	C55.591,260.941,75.981,222.022,112.545,210.598z"/>
<g>
	<path style="fill:#EF4A6E;" d="M55.327,424.792c7.204,9.85,17.183,19.818,29.271,28.656c12.092,8.841,24.612,15.324,36.191,19.201
		l11.956-16.353c3.38-4.623,9.868-5.631,14.491-2.25l21.841,15.969c4.623,3.381,5.631,9.868,2.25,14.491l-2.781,3.803
		c-17.601,24.072-63.798,20.245-103.184-8.552c-39.386-28.796-57.045-71.657-39.445-95.73l2.781-3.803
		c3.381-4.623,9.868-5.631,14.491-2.25l21.844,15.971c4.623,3.381,5.631,9.868,2.25,14.491L55.327,424.792z"/>
	<path style="fill:#EF4A6E;" d="M468.707,154.309c1.872,12.06,1.863,26.163-0.435,40.961c-2.298,14.802-6.568,28.24-12.014,39.168
		l-20.018-3.109c-5.659-0.879-10.959,2.996-11.839,8.655l-4.152,26.736c-0.879,5.659,2.996,10.959,8.655,11.839l4.655,0.722
		c29.467,4.576,59.428-30.797,66.915-79.009c7.487-48.212-10.333-91.006-39.8-95.583l-4.655-0.722
		c-5.659-0.879-10.959,2.996-11.839,8.655l-4.152,26.74c-0.879,5.659,2.996,10.959,8.655,11.839L468.707,154.309z"/>
</g>
<path style="fill:#00C7A9;" d="M214.964,114.725V52.507c0-13.541-10.978-24.519-24.519-24.519H53.884
	c-13.541,0-24.519,10.978-24.519,24.519v75.743c0,13.541,10.978,24.519,24.519,24.519h161.081h41.943L214.964,114.725z"/>
<path style="fill:#F9CE55;" d="M288.365,394.698v-62.217c0-13.541,10.978-24.519,24.52-24.519h136.561
	c13.541,0,24.519,10.978,24.519,24.519v75.743c0,13.541-10.978,24.52-24.519,24.52H288.365h-41.943L288.365,394.698z"/>
<path d="M362.377,138.008c0.904,0,1.825-0.157,2.724-0.489c4.074-1.505,6.157-6.027,4.653-10.102l-4.575-12.389
	c-1.505-4.075-6.023-6.159-10.102-4.654c-4.074,1.505-6.157,6.027-4.653,10.102l4.575,12.389
	C356.171,136.042,359.177,138.008,362.377,138.008z"/>
<path d="M330.167,149.903c0.905,0,1.826-0.157,2.724-0.49c4.075-1.505,6.157-6.028,4.653-10.102l-4.576-12.389
	c-1.505-4.075-6.03-6.159-10.102-4.653c-4.075,1.505-6.157,6.028-4.653,10.102l4.576,12.389
	C323.962,147.937,326.968,149.903,330.167,149.903z"/>
<path d="M379.642,195.225c1.038,0,2.095-0.208,3.11-0.645c16.279-7.019,26.265-19.001,28.877-34.651
	c0.716-4.283-2.178-8.337-6.461-9.051c-4.297-0.718-8.337,2.178-9.052,6.462c-1.713,10.26-8.305,17.93-19.592,22.797
	c-3.989,1.721-5.828,6.347-4.107,10.336C373.698,193.446,376.595,195.225,379.642,195.225z"/>
<path d="M298.18,130.315c-1.505-4.074-6.025-6.158-10.102-4.653c-4.075,1.505-6.157,6.028-4.653,10.102l14.111,38.206
	c8.115,21.976,24.305,39.477,45.585,49.279c11.692,5.384,24.148,8.091,36.647,8.091c10.249,0,20.529-1.821,30.431-5.478
	c20.776-7.673,37.744-22.764,47.777-42.492c1.969-3.871,0.427-8.606-3.444-10.575c-3.872-1.969-8.606-0.427-10.575,3.445
	c-8.235,16.188-22.158,28.571-39.209,34.867c-37.23,13.749-78.71-5.354-92.46-42.586L298.18,130.315z"/>
<path d="M280.68,113.502c0.613,0,1.236-0.072,1.856-0.222c2.551-0.619,56.176-13.905,79.698-41.892
	c8.67,10.67,23.537,20.508,44.263,15.925l4.147,11.228c1.102,2.984,3.892,5.01,7.071,5.134c3.201,0.131,6.118-1.679,7.449-4.568
	c2-4.344,5.571-7.647,10.055-9.304c4.48-1.656,9.337-1.465,13.675,0.536c3.943,1.819,8.615,0.098,10.436-3.846
	c1.818-3.944,0.098-8.616-3.847-10.436c-8.155-3.762-17.286-4.12-25.712-1.009c-3.347,1.236-6.424,2.961-9.152,5.102l-1.913-5.177
	c-1.505-4.074-6.023-6.158-10.102-4.653c-11.431,4.223-20.982,2.934-29.194-3.94c-6.58-5.507-9.76-12.65-9.777-12.688
	c-1.221-2.861-4.012-4.732-7.122-4.776c-0.037-0.001-0.073-0.001-0.111-0.001c-3.065,0-5.856,1.784-7.143,4.574
	c-9.755,21.178-48.356,36.381-69.258,42.555c-6.459-27.684,8.592-56.58,35.936-66.678l27.227-10.055
	c14.348-5.299,29.897-4.692,43.788,1.705c13.891,6.398,24.458,17.823,29.757,32.169c1.504,4.074,6.02,6.158,10.102,4.654
	c4.074-1.505,6.157-6.027,4.653-10.102c-6.753-18.287-20.224-32.85-37.931-41.005C381.822-1.423,362-2.196,343.712,4.559
	l-27.227,10.055c-37.75,13.942-57.121,55.998-43.179,93.748C274.467,111.507,277.454,113.502,280.68,113.502z"/>
<path d="M114.394,339.911c0.777,0,1.568-0.116,2.348-0.36c4.146-1.295,6.457-5.705,5.161-9.851l-3.938-12.606
	c-1.295-4.146-5.709-6.455-9.851-5.161c-4.146,1.295-6.457,5.705-5.161,9.851l3.938,12.606
	C107.942,337.755,111.046,339.911,114.394,339.911z"/>
<path d="M149.516,329.312c4.146-1.295,6.457-5.705,5.161-9.851l-3.938-12.606c-1.295-4.146-5.707-6.454-9.851-5.161
	c-4.146,1.295-6.457,5.705-5.161,9.851l3.938,12.606c1.051,3.365,4.156,5.522,7.504,5.522
	C147.946,329.672,148.736,329.555,149.516,329.312z"/>
<path d="M93.161,374.589c-2.957,3.181-2.775,8.158,0.407,11.115c8.327,7.74,18.503,11.676,29.924,11.676
	c4.518,0,9.232-0.616,14.101-1.857c4.209-1.073,6.752-5.354,5.68-9.563c-1.072-4.209-5.352-6.751-9.563-5.68
	c-11.91,3.037-21.815,0.984-29.434-6.098C101.095,371.225,96.118,371.409,93.161,374.589z"/>
<path d="M179.125,284.33c-1.295-4.147-5.709-6.455-9.851-5.161c-4.146,1.295-6.457,5.705-5.161,9.851l13.389,42.857
	c5.733,18.348,3.974,37.833-4.95,54.865c-8.925,17.033-23.947,29.572-42.299,35.306c-14.963,4.674-30.658,4.393-45.388-0.813
	c-4.094-1.448-8.588,0.699-10.035,4.794c-1.447,4.095,0.699,8.588,4.794,10.035c9.481,3.35,19.285,5.028,29.113,5.028
	c8.789,0,17.599-1.343,26.206-4.032c22.363-6.987,40.667-22.264,51.541-43.018c10.875-20.754,13.016-44.498,6.03-66.856
	L179.125,284.33z"/>
<path d="M15.175,376.819c4.146-1.295,6.457-5.705,5.161-9.851c-1.424-4.559-0.987-9.397,1.233-13.629
	c1.189-2.268,2.776-4.194,4.731-5.734c5.539-4.381,13.156-5.097,19.466-1.791c2.024,1.044,4.303,1.128,6.302,0.396
	c8.913-2.885,16.204-9.033,20.558-17.345c4.191-7.999,5.184-17.094,2.845-25.763l61.686-19.272
	c19.691-6.152,35.808-19.604,45.383-37.879c9.574-18.274,11.458-39.184,5.306-58.875c-1.295-4.146-5.71-6.454-9.851-5.161
	L56.157,219.982c-40.651,12.7-63.389,56.104-50.689,96.754c1.295,4.146,5.707,6.454,9.853,5.161
	c4.146-1.295,6.456-5.705,5.161-9.853c-10.114-32.372,7.994-66.936,40.366-77.05l113.852-35.57
	c5.313,29.995-12.405,60.076-42.234,69.394l-69.166,21.609c-4.145,1.295-6.456,5.705-5.161,9.851l1.919,6.144
	c1.582,5.066,1.098,10.444-1.365,15.145c-2.029,3.872-5.2,6.904-9.087,8.737c-11.024-4.292-23.647-2.488-33.053,4.957
	c-3.693,2.909-6.693,6.536-8.914,10.775c-4.172,7.95-4.994,17.05-2.316,25.622c1.051,3.365,4.155,5.522,7.505,5.522
	C13.604,377.179,14.394,377.063,15.175,376.819z"/>
<path d="M173.719,463.666l-21.841-15.969c-3.932-2.875-8.753-4.048-13.56-3.299c-4.813,0.748-9.046,3.324-11.921,7.256
	l-8.462,11.573c-9.573-3.815-19.392-9.325-28.695-16.127c-9.302-6.801-17.53-14.484-24.07-22.447l8.464-11.576
	c5.933-8.116,4.158-19.547-3.957-25.481l-21.845-15.971c-8.115-5.934-19.547-4.16-25.482,3.957l-2.78,3.802
	c-10.191,13.938-11.105,33.021-2.571,53.731c7.993,19.401,23.521,38.22,43.722,52.989s42.842,23.857,63.753,25.591
	c2.446,0.202,4.839,0.303,7.175,0.303c18.978,0,34.17-6.639,43.245-19.05l2.78-3.802c2.875-3.932,4.046-8.747,3.299-13.56
	C180.227,470.774,177.65,466.541,173.719,463.666z M164.979,479.864l-2.78,3.802c-6.835,9.347-19.773,13.732-36.425,12.354
	c-18.066-1.497-37.873-9.527-55.769-22.613s-31.556-29.522-38.463-46.285c-6.366-15.451-6.109-29.109,0.726-38.456l2.78-3.802
	c0.49-0.67,1.253-1.026,2.026-1.026c0.513,0,1.03,0.156,1.475,0.481l21.845,15.971c1.115,0.816,1.359,2.386,0.544,3.5
	l-11.959,16.357c-2.022,2.765-2.022,6.52,0,9.284c7.93,10.844,18.643,21.344,30.977,30.363c12.338,9.021,25.594,16.044,38.336,20.31
	c3.246,1.086,6.824-0.051,8.845-2.816l11.956-16.353c0.816-1.115,2.387-1.358,3.501-0.544l21.841,15.969
	c0.729,0.533,0.937,1.254,0.996,1.638C165.492,478.383,165.513,479.135,164.979,479.864z"/>
<path d="M501.695,133.094c-8.611-20.678-22.749-33.526-39.812-36.176l-4.654-0.722c-4.816-0.748-9.63,0.425-13.561,3.299
	c-3.932,2.875-6.509,7.108-7.256,11.921l-4.153,26.74c-0.748,4.812,0.424,9.628,3.299,13.56c2.874,3.932,7.108,6.509,11.92,7.255
	l14.171,2.201c1.007,10.255,0.622,21.504-1.147,32.892c-1.769,11.389-4.815,22.229-8.887,31.695l-14.168-2.2
	c-4.811-0.747-9.628,0.425-13.559,3.299c-3.932,2.874-6.509,7.108-7.256,11.921l-4.152,26.736
	c-1.542,9.935,5.285,19.273,15.219,20.815l4.655,0.722c2.152,0.335,4.304,0.5,6.46,0.5c14.933-0.001,29.797-7.96,42.448-22.897
	c13.561-16.013,23.144-38.449,26.984-63.176C512.088,176.751,509.761,152.465,501.695,133.094z M492.705,199.065
	c-6.694,43.106-33.237,76.277-57.937,72.445l-4.656-0.722c-1.364-0.212-2.302-1.495-2.09-2.861l4.152-26.736
	c0.138-0.892,0.684-1.408,0.996-1.638c0.265-0.194,0.778-0.483,1.47-0.483c0.125,0,0.256,0.009,0.392,0.03l20.018,3.109
	c3.381,0.526,6.718-1.199,8.246-4.263c5.994-12.025,10.401-26.365,12.747-41.468c2.345-15.1,2.495-30.098,0.434-43.374
	c-0.525-3.385-3.179-6.039-6.564-6.565l-20.023-3.11c-0.892-0.138-1.409-0.684-1.638-0.997c-0.23-0.312-0.591-0.971-0.454-1.862
	l4.153-26.74c0.138-0.892,0.684-1.408,0.996-1.638c0.314-0.229,0.975-0.59,1.863-0.453l4.654,0.722
	c11.442,1.777,21.281,11.251,27.706,26.679C494.143,155.876,496.108,177.158,492.705,199.065z"/>
<path d="M53.884,160.634h203.024c3.251,0,6.167-2,7.337-5.032s0.354-6.473-2.053-8.657l-39.364-35.704V52.507
	c0-17.856-14.527-32.384-32.384-32.384H53.884c-17.856,0-32.385,14.527-32.385,32.384v37.052c0,4.343,3.521,7.864,7.864,7.864
	s7.864-3.521,7.864-7.864V52.507c0-9.184,7.471-16.655,16.656-16.655h136.561c9.184,0,16.655,7.471,16.655,16.655v62.217
	c0,2.219,0.937,4.335,2.581,5.825l26.851,24.356H53.884c-9.184,0-16.656-7.471-16.656-16.656v-13.524
	c0-4.343-3.521-7.864-7.864-7.864s-7.864,3.521-7.864,7.864v13.525C21.5,146.106,36.028,160.634,53.884,160.634z"/>
<path d="M161.105,66.392H66.811c-4.343,0-7.864,3.521-7.864,7.864s3.521,7.864,7.864,7.864h94.294c4.343,0,7.864-3.521,7.864-7.864
	S165.449,66.392,161.105,66.392z"/>
<path d="M118.128,106.5c0,4.343,3.521,7.864,7.864,7.864h52.416c4.343,0,7.864-3.521,7.864-7.864s-3.521-7.864-7.864-7.864h-52.416
	C121.648,98.635,118.128,102.157,118.128,106.5z"/>
<path d="M66.811,114.364h34.014c4.343,0,7.864-3.521,7.864-7.864s-3.521-7.864-7.864-7.864H66.811c-4.343,0-7.864,3.521-7.864,7.864
	S62.468,114.364,66.811,114.364z"/>
<path d="M449.446,300.096h-19.433c-4.344,0-7.864,3.521-7.864,7.864c0,4.343,3.52,7.864,7.864,7.864h19.433
	c9.185,0,16.656,7.471,16.656,16.655v75.743c0,9.184-7.471,16.656-16.656,16.656H266.798l26.851-24.355
	c1.643-1.49,2.581-3.606,2.581-5.825v-62.217c0-9.184,7.471-16.655,16.655-16.655h91.961c4.344,0,7.864-3.521,7.864-7.864
	c0-4.343-3.52-7.864-7.864-7.864h-91.961c-17.856,0-32.384,14.527-32.384,32.384v58.733l-39.364,35.704
	c-2.408,2.184-3.223,5.625-2.053,8.657c1.17,3.033,4.086,5.032,7.337,5.032h203.025c17.856,0,32.385-14.527,32.385-32.385v-75.743
	C481.831,314.623,467.302,300.096,449.446,300.096z"/>
<path d="M420.107,346.365h-94.294c-4.344,0-7.864,3.521-7.864,7.864c0,4.343,3.52,7.864,7.864,7.864h94.294
	c4.344,0,7.864-3.521,7.864-7.864C427.971,349.886,424.451,346.365,420.107,346.365z"/>
<path d="M405.948,386.473c0,4.343,3.52,7.864,7.864,7.864h23.595c4.344,0,7.864-3.521,7.864-7.864c0-4.343-3.52-7.864-7.864-7.864
	h-23.595C409.47,378.608,405.948,382.129,405.948,386.473z"/>
<path d="M325.813,378.608c-4.344,0-7.864,3.521-7.864,7.864c0,4.343,3.52,7.864,7.864,7.864h62.835c4.344,0,7.864-3.521,7.864-7.864
	c0-4.343-3.52-7.864-7.864-7.864H325.813z"/>
<g>
</g>
<g>
</g>
<g>
</g>
<g>
</g>
<g>
</g>
<g>
</g>
<g>
</g>
<g>
</g>
<g>
</g>
<g>
</g>
<g>
</g>
<g>
</g>
<g>
</g>
<g>
</g>
<g>
</g>
</svg>
