<svg height="512pt" viewBox="-20 0 512 512.00013" width="512pt" xmlns="http://www.w3.org/2000/svg"><path d="m429.667969 43.238281c-47.589844-47.59375-124.753907-47.59375-172.34375 0-47.59375 47.589844-47.59375 124.753907 0 172.34375 47.589843 47.59375 124.753906 47.59375 172.34375 0 47.59375-47.589843 47.59375-124.753906 0-172.34375zm0 0" fill="#e4eaf8"/><path d="m287.324219 215.582031c-47.59375-47.59375-47.59375-124.753906 0-172.347656 19.976562-19.972656 45.15625-31.558594 71.175781-34.769531-35.980469-4.4375-73.554688 7.148437-101.175781 34.769531-47.59375 47.59375-47.59375 124.753906 0 172.347656 27.621093 27.617188 65.195312 39.207031 101.175781 34.769531-26.019531-3.207031-51.199219-14.796874-71.175781-34.769531zm0 0" fill="#d8dce5"/><path d="m387.652344 98.492188c0 24.386718-19.769532 44.15625-44.152344 44.15625-24.386719 0-44.152344-19.769532-44.152344-44.15625 0-24.382813 19.765625-44.152344 44.152344-44.152344 24.382812 0 44.152344 19.769531 44.152344 44.152344zm0 0" fill="#ffcdbf"/><path d="m329.34375 98.492188c0-19.117188 12.15625-35.394532 29.15625-41.535157-4.683594-1.691406-9.734375-2.617187-15-2.617187-24.386719 0-44.15625 19.769531-44.15625 44.152344 0 24.386718 19.769531 44.15625 44.15625 44.15625 5.265625 0 10.316406-.925782 15-2.621094-17-6.136719-29.15625-22.414063-29.15625-41.535156zm0 0" fill="#ffbeab"/><path d="m374.695312 67.273438.003907-.019532c-23.476563-23.464844-63.746094-13.386718-73.429688 18.324219 16.667969 16.652344 43.371094 17.238281 60.738281 1.566406.757813-.683593 1.917969-.707031 2.6875-.035156 6.324219 5.484375 14.222657 9.199219 22.929688 10.375-.261719-11.796875-5.15625-22.441406-12.929688-30.210937zm0 0" fill="#576574"/><path d="m343.117188 54.351562c-19.421876.164063-36.273438 12.960938-41.847657 31.226563 7.816407 7.8125 17.84375 12.085937 28.078125 12.808594.046875-19.058594 12.164063-35.273438 29.113282-41.414063-4.777344-1.722656-9.84375-2.660156-15.34375-2.621094zm0 0" fill="#3e4b5a"/><path d="m392.65625 142.648438h-98.316406c-17.96875 0-32.671875 14.703124-32.671875 32.671874v44.390626c46.359375 42.078124 117.300781 42.078124 163.660156 0v-44.390626c0-17.96875-14.699219-32.671874-32.671875-32.671874zm0 0" fill="#54a0ff"/><path d="m287.324219 215.582031c-11.175781-11.179687-19.730469-23.988281-25.65625-37.660156v41.78125c20.832031 18.875 47.839843 30.433594 77.5 31.484375 6.445312.226562 12.859375-.046875 19.296875-.839844-26.007813-3.214844-51.175782-14.800781-71.140625-34.765625zm0 0" fill="#338def"/><path d="m436.71875 428.636719-104.796875-104.800781c-4.960937-4.957032-13.074219-4.957032-18.03125 0l-44.832031 44.832031c-4.382813 4.386719-11.492188 4.386719-15.878906 0l-109.613282-109.613281c-4.382812-4.386719-4.382812-11.492188 0-15.878907l44.832032-44.832031c4.957031-4.957031 4.957031-13.070312 0-18.03125l-104.796876-104.796875c-4.960937-4.957031-13.074218-4.957031-18.03125 0l-25.65625 25.65625c-42.917968 42.917969-42.917968 113.148437 0 156.066406 5.914063 5.914063 211.527344 211.527344 215.082032 215.082031 42.917968 42.917969 113.148437 42.917969 156.070312 0l25.652344-25.652343c4.957031-4.960938 4.957031-13.074219 0-18.03125zm0 0" fill="#15ba8b"/><path d="m331.921875 323.835938c-4.957031-4.957032-13.074219-4.957032-18.03125 0l-44.832031 44.832031c-1.96875 1.96875-4.488282 3.046875-7.0625 3.246093l8.289062 8.289063c5.574219 5.574219 14.609375 5.574219 20.183594 0l48.910156-48.910156zm0 0" fill="#11aa7b"/><path d="m284.996094 472.320312c-3.554688-3.558593-209.167969-209.167968-215.082032-215.082031-42.917968-42.917969-42.917968-113.148437 0-156.066406l19.671876-19.671875-5.984376-5.984375c-4.960937-4.957031-13.074218-4.957031-18.03125 0l-25.65625 25.65625c-42.917968 42.917969-42.917968 113.148437 0 156.066406 5.910157 5.910157 211.523438 211.523438 215.082032 215.082031 25.261718 25.261719 59.984375 35.648438 93.035156 31.171876-23.097656-3.128907-45.378906-13.515626-63.035156-31.171876zm0 0" fill="#11aa7b"/><path d="m436.71875 428.636719-104.796875-104.800781c-4.960937-4.957032-13.074219-4.957032-18.03125 0l-19.214844 19.214843 122.828125 122.828125 19.214844-19.214844c4.957031-4.957031 4.957031-13.070312 0-18.027343zm0 0" fill="#1dd1a1"/><path d="m188.398438 180.3125-104.796876-104.796875c-4.960937-4.957031-13.074218-4.957031-18.03125 0l-19.214843 19.214844 122.828125 122.828125 19.214844-19.214844c4.957031-4.957031 4.957031-13.070312 0-18.03125zm0 0" fill="#1dd1a1"/><path d="m339.378906 331.292969c-2.699218-2.695313-4.761718-4.757813-7.457031-7.457031-4.949219-4.949219-13.0625-4.96875-18.03125 0l-19.214844 19.214843 16.472657 16.472657zm0 0" fill="#15ba8b"/><path d="m46.355469 94.730469 15.476562 15.472656c2.503907-3.121094 5.191407-6.140625 8.082031-9.03125l19.671876-19.667969c-2.90625-2.90625-3.074219-3.074218-5.984376-5.988281-4.960937-4.957031-13.074218-4.957031-18.03125 0zm0 0" fill="#15ba8b"/><path d="m337.078125 318.492188c-7.980469-7.972657-20.828125-7.804688-28.640625 0-4.351562 4.351562-39.75 39.75-44.832031 44.832031-1.449219 1.453125-3.8125 1.457031-5.269531 0l-43.976563-43.976563c-2.929687-2.925781-7.675781-2.929687-10.605469 0-2.929687 2.929688-2.929687 7.679688 0 10.605469l43.976563 43.976563c7.316406 7.316406 19.164062 7.320312 26.484375 0l20.3125-20.3125 112.222656 112.222656c-43.1875 43.1875-108.160156 39.574218-146.597656 1.136718-3.558594-3.558593-209.171875-209.167968-215.082032-215.082031-38.519531-38.519531-42.125-103.332031 1.136719-146.597656l112.222657 112.222656-20.316407 20.3125c-7.316406 7.320313-7.316406 19.164063 0 26.484375l40.890625 40.890625c2.929688 2.929688 7.679688 2.929688 10.609375 0 2.929688-2.929687 2.929688-7.679687 0-10.605469l-40.890625-40.890624c-1.453125-1.453126-1.457031-3.816407 0-5.273438 5.082032-5.078125 40.476563-40.476562 44.832032-44.828125 7.878906-7.886719 7.910156-20.726563 0-28.640625l-104.796876-104.796875c-7.972656-7.964844-20.839843-7.796875-28.640624 0-9 9.003906-16.25 16.253906-25.652344 25.65625-45.953125 45.949219-45.953125 120.722656 0 166.675781 5.910156 5.910156 211.523437 211.523438 215.082031 215.078125 45.890625 45.894531 120.785156 45.886719 166.675781 0 9.289063-9.289062 16.589844-16.59375 25.652344-25.652343 7.894531-7.898438 7.894531-20.742188 0-28.640626zm-168.042969-111.582032-112.21875-112.21875 13.910156-13.910156c2.046876-2.046875 5.375-2.046875 7.421876 0l104.796874 104.796875h.003907c2.035156 2.035156 2.027343 5.394531-.003907 7.421875zm262.234375 234.410156-13.914062 13.910157-112.21875-112.21875 13.910156-13.910157c1.992187-1.992187 5.332031-2.089843 7.421875 0l104.800781 104.796876c2.011719 2.011718 2.011719 5.410156 0 7.421874zm0 0"/><path d="m465.246094 136.386719c-4.089844-.5-7.84375 2.449219-8.332032 6.5625-2.550781 21.457031-10.878906 41.214843-24.230468 57.828125v-25.496094c0-22.152344-18.023438-40.171875-40.175782-40.171875h-12.800781c34.253907-33.980469 7.0625-93.132813-41.75-88.023437-43.265625 4.429687-61.761719 57.472656-30.960937 88.023437h-12.800782c-22.152343 0-40.175781 18.019531-40.175781 40.171875v25.5c-35.917969-44.863281-33.101562-110.71875 8.460938-152.28125 65.636719-65.640625 178.152343-29.332031 193.613281 61.59375.691406 4.082031 4.5625 6.832031 8.648438 6.136719 4.082031-.695313 6.832031-4.566407 6.136718-8.652344-10.277344-60.449219-62.757812-107.578125-127.527344-107.578125-34.554687 0-67.042968 13.457031-91.476562 37.890625-50.441406 50.441406-50.441406 132.515625 0 182.957031 24.433594 24.433594 56.921875 37.890625 91.476562 37.890625 66.78125 0 120.871094-50.171875 128.457032-114.015625.488281-4.117187-2.449219-7.847656-6.5625-8.335937zm-108.410156-54.851563c-13.285157 11.988282-33.039063 12.488282-46.867188 1.816406 5.296875-11.664062 16.609375-20.226562 30.144531-21.398437 17.199219-1.519531 32.824219 9.132813 38.058594 25.066406-3.128906-1.4375-6.058594-3.320312-8.703125-5.613281-3.625-3.148438-9.058594-3.09375-12.632812.128906zm-50.121094 17.625c17.8125 10.1875 40.097656 8.875 56.585937-3.527344 4.957031 3.578126 10.492188 6.210938 16.351563 7.832032-2.449219 17.847656-17.789063 31.640625-36.300782 31.640625-19.972656 0-36.257812-16.058594-36.636718-35.945313zm-37.695313 76.121094c0-13.882812 11.292969-25.175781 25.175781-25.175781h98.3125c13.882813 0 25.175782 11.292969 25.175782 25.175781v41.007812c-6.316406 5.417969-13.515625 10.332032-21.097656 14.316407v-42.695313c0-4.144531-3.355469-7.5-7.5-7.5-4.144532 0-7.5 3.355469-7.5 7.5v49.234375c-24.683594 8.714844-51.785157 8.714844-76.46875 0v-49.234375c0-4.144531-3.355469-7.5-7.5-7.5-4.144532 0-7.5 3.355469-7.5 7.5v42.695313c-7.359376-3.867188-14.5625-8.710938-21.097657-14.316407zm0 0"/></svg>