<svg height="512pt" viewBox="-47 0 512 512" width="512pt" xmlns="http://www.w3.org/2000/svg"><path d="m285.410156 62.363281v-14.488281c0-20.894531-16.941406-37.835938-37.839844-37.835938h-199.691406c-20.898437 0-37.839844 16.941407-37.839844 37.835938v37.488281h250.054688c6.710938-9.335937 15.339844-17.191406 25.316406-23zm0 0" fill="#6289fa"/><path d="m326.378906 51.320312c-45.0625 0-81.59375 36.53125-81.59375 81.59375 0 28.351563 14.464844 53.316407 36.410156 67.941407-3.996093 27.8125-24.113281 39.359375-24.113281 39.359375s40.09375 16.703125 69.144531-25.710938c.050782 0 .101563.003906.15625.003906 45.0625 0 81.59375-36.53125 81.59375-81.59375s-36.535156-81.59375-81.597656-81.59375zm0 0" fill="#36d28f"/><path d="m10.039062 350.179688v31.839843h275.371094v-139.335937c-15.96875 2.679687-28.328125-2.464844-28.328125-2.464844s20.117188-11.550781 24.113281-39.363281c-21.945312-14.625-36.410156-39.589844-36.410156-67.9375 0-17.75 5.6875-34.164063 15.308594-47.554688h-250.054688zm0 0" fill="#c8f5ff"/><path d="m127.398438 159.296875c29.773437-29.773437 49.988281-29.296875 63.007812-20.589844 27.308594 18.257813 20.988281 60.839844-10.5625 69.972657-3.746094 1.082031-7.703125 1.664062-11.796875 1.664062-9.355469 0-18-3.035156-25.007813-8.171875-10.890624-7.980469-25.53125-9.363281-36.992187-2.226563-1.503906.9375-3.09375 1.660157-4.765625 2.109376-16.085938 4.320312-25.496094-63.742188 26.117188-42.757813zm0 0" fill="#9b4c14"/><path d="m171.0625 299.886719c-1.34375 12.066406-11.574219 21.457031-24 21.457031-12.300781 0-22.449219-9.203125-23.953125-21.097656-35.15625 10.570312-60.777344 43.175781-60.777344 81.773437h170.78125c0-39.0625-26.242187-71.976562-62.050781-82.132812zm0 0" fill="#ff5d5d"/><path d="m194.167969 240.316406s-.019531-38.957031-.027344-39.308594c-3.953125 3.382813-8.722656 6.058594-14.296875 7.671876-3.742188 1.082031-7.703125 1.664062-11.792969 1.664062-9.355469 0-18.003906-3.035156-25.011719-8.171875-10.886718-7.980469-25.53125-9.363281-36.988281-2.226563-1.507812.9375-3.097656 1.664063-4.769531 2.109376v38.261718c0 16.523438 8.632812 31.019532 21.628906 39.253906v17.621094c0 13.339844 10.8125 24.152344 24.152344 24.152344s24.152344-10.8125 24.152344-24.152344v-16.8125c13.730468-8.070312 22.953125-22.984375 22.953125-40.0625zm0 0" fill="#fcc89d"/><path d="m10.039062 382.019531v82.105469c0 20.894531 16.941407 37.835938 37.839844 37.835938h199.691406c20.898438 0 37.839844-16.941407 37.839844-37.835938v-82.105469zm137.683594 80.207031c-11.222656 0-20.324218-9.101562-20.324218-20.328124 0-11.222657 9.101562-20.324219 20.324218-20.324219 11.226563 0 20.328125 9.101562 20.328125 20.324219 0 11.226562-9.101562 20.328124-20.328125 20.328124zm0 0" fill="#6289fa"/><path d="m168.050781 441.898438c0 11.226562-9.101562 20.328124-20.328125 20.328124-11.222656 0-20.324218-9.101562-20.324218-20.328124 0-11.222657 9.101562-20.324219 20.324218-20.324219 11.226563 0 20.328125 9.101562 20.328125 20.324219zm0 0" fill="#ff5d5d"/><path d="m326.378906 41.28125c-10.859375 0-21.285156 1.90625-30.960937 5.390625-.644531-25.84375-21.851563-46.671875-47.847657-46.671875h-199.695312c-26.398438 0-47.875 21.476562-47.875 47.875v221.609375c0 5.542969 4.496094 10.039063 10.039062 10.039063 5.542969 0 10.039063-4.496094 10.039063-10.039063v-174.082031h222.683594c-3.691407 8.191406-6.132813 16.871094-7.273438 25.828125-.496093 3.875-.742187 7.78125-.742187 11.683593 0 28.433594 13.09375 54.984376 35.347656 72.304688-4.433594 17.015625-15.921875 24.957031-17.773438 26.144531-.125.078125-.203124.128907-.238281.144531-3.316406 1.90625-5.261719 5.527344-5.019531 9.34375.058594.933594.25 1.839844.554688 2.699219.929687 2.644531 2.941406 4.824219 5.605468 5.933594 1.054688.441406 8.011719 3.179687 18.179688 3.859375 1.320312.089844 2.644531.144531 3.96875.15625v118.480469h-32.769532c-3.8125-35.6875-27.664062-66.644531-61.347656-79.300781v-6.941407c13.914063-10.300781 22.953125-26.824219 22.953125-45.421875v-35.035156c6.726563-7.058594 11.289063-16.171875 12.882813-26.425781 2.976562-19.21875-5.105469-37.796875-21.101563-48.492188-14.082031-9.417969-37.644531-13.675781-71.074219 17.382813-21.972656-6.78125-33.449218 1.753906-38.507812 7.839844-10.863281 13.066406-9.722656 35.023437-1.839844 47.332031 1.894532 2.957031 4.171875 5.25 6.675782 6.832031v30.566406c0 18 8.472656 34.046875 21.628906 44.398438v8.472656c-16.269532 6.414062-30.753906 17.363281-41.34375 31.382812-10.550782 13.96875-16.910156 30.199219-18.695313 47.410157h-32.753906v-21.800781c0-5.546876-4.496094-10.042969-10.039063-10.042969-5.542968 0-10.039062 4.496093-10.039062 10.042969v113.941406c0 26.402344 21.476562 47.878906 47.875 47.878906h199.695312c26.398438 0 47.875-21.476562 47.875-47.875v-213.542969c11.457032-3.546875 24.421876-11.050781 36-26.171875 48.179688-2.636718 86.566407-42.667968 86.566407-91.496094 0-50.523437-41.105469-91.632812-91.632813-91.632812zm-306.300781 34.042969v-27.449219c0-15.324219 12.46875-27.796875 27.796875-27.796875h199.695312c15.328126 0 27.796876 12.472656 27.796876 27.796875v8.347656c0 .828125-.359376.84375-1.097657 1.359375-1.351562.953125-2.6875 1.921875-3.996093 2.9375-2.550782 1.980469-4.996094 4.097657-7.328126 6.332031-2.769531 2.660157-5.390624 5.488282-7.808593 8.472657zm140.800781 224.746093c-1.261718 6.105469-6.566406 10.695313-12.765625 11.191407-6.101562.492187-12.082031-3.320313-14.226562-9.046875-.902344-2.410156-.9375-4.84375-.9375-7.378906 9.171875 2.5 19 2.601562 28.226562.339843 0 1.636719.035157 3.273438-.296875 4.894531zm-59.851562-130.507812c4.140625-6.707031 14.570312-4.226562 22.589844-.96875 3.742187 1.523438 8.027343.65625 10.878906-2.199219 21.074218-21.074219 38.007812-27.582031 50.332031-19.34375 11.269531 7.539063 13.804687 19.78125 12.417969 28.726563-1.097656 7.066406-4.410156 13.085937-9.355469 17.398437-5.132813 4.089844-10.953125 6.585938-17.550781 7.046875-6.027344.421875-12.128906-.84375-17.464844-3.691406-2.71875-1.453125-5.101562-3.414062-7.746094-4.988281-2.527344-1.507813-5.210937-2.765625-7.984375-3.75-5.46875-1.941407-11.320312-2.832031-17.121093-2.476563-6.71875.410156-13.328126 2.433594-19.066407 5.972656-2.273437-4.421874-3.898437-15.300781.070313-21.726562zm10.292968 38.925781c3.984376-2.234375 8.171876-3.425781 12.78125-3.105469 4.875.34375 9.34375 2.257813 13.277344 5.089844 8.164063 5.875 17.882813 9.324219 27.933594 9.839844 6.351562.324219 12.761719-.492188 18.816406-2.449219v22.453125c0 13.542969-7.441406 25.375-18.441406 31.644532-11.460938 6.519531-25.929688 6.25-37.128906-.710938-10.339844-6.429688-17.238282-17.890625-17.238282-30.933594zm5.570313 104.78125c6.640625 12.398438 20.511719 19.535157 34.445313 17.835938 3.667968-.449219 7.273437-1.519531 10.597656-3.132813 6.671875-3.21875 12.164062-8.53125 15.5625-15.164062 24.199218 10.433594 41.359375 33.058594 44.902344 59.171875h-149.34375c3.507812-25.644531 20.242187-48.070313 43.835937-58.710938zm158.480469 150.855469c0 15.328125-12.472656 27.796875-27.800782 27.796875h-199.695312c-15.328125 0-27.796875-12.472656-27.796875-27.796875v-72.0625h255.292969zm51.132812-259.652344c-.097656-.003906-.203125-.007812-.277344-.007812-3.3125 0-6.410156 1.636718-8.28125 4.367187-11.226562 16.390625-24.210937 22.371094-34.953124 24.054688-1.46875.21875-2.945313.382812-4.429688.460937 3.574219-4.847656 6.492188-10.175781 8.632812-15.808594 1.128907-2.964843 2.019532-5.992187 2.789063-9.070312.710937-2.835938 1.535156-5.859375 1.179687-8.808594-.351562-2.878906-1.988281-5.550781-4.402343-7.160156-19.996094-13.324219-31.9375-35.601562-31.9375-59.585938 0-19.449218 8.132812-38.273437 22.160156-51.722656 3.871094-3.710937 8.195313-6.980468 12.796875-9.730468 10.714844-6.40625 23.234375-10.101563 36.601562-10.101563 39.453126 0 71.550782 32.101563 71.550782 71.554687 0 39.417969-32.035156 71.917969-71.429688 71.558594zm0 0"/><path d="m335.371094 129.085938c-1.667969-4.003907-5.832032-6.554688-10.164063-6.160157-4.144531.375-7.71875 3.371094-8.796875 7.398438-1.066406 3.992187.488282 8.351562 3.851563 10.757812 3.40625 2.441407 8.105469 2.480469 11.550781.09375 3.839844-2.652343 5.355469-7.78125 3.558594-12.089843zm0 0"/><path d="m361.179688 129.085938c-1.644532-3.949219-5.714844-6.480469-9.988282-6.171876-4.226562.304688-7.871094 3.320313-8.976562 7.410157-1.042969 3.882812.394531 8.113281 3.582031 10.5625 3.46875 2.660156 8.40625 2.734375 11.957031.195312 3.738282-2.671875 5.195313-7.75 3.425782-11.996093zm0 0"/><path d="m309.570312 129.085938c-1.667968-4.003907-5.839843-6.550782-10.167968-6.160157-4.15625.375-7.710938 3.371094-8.796875 7.398438-1.078125 3.996093.484375 8.34375 3.847656 10.757812 3.40625 2.445313 8.105469 2.476563 11.546875.09375 3.835938-2.648437 5.367188-7.777343 3.570312-12.089843zm0 0"/><path d="m186.460938 37.527344h-77.472657c-5.542969 0-10.039062 4.496094-10.039062 10.039062 0 5.542969 4.496093 10.039063 10.039062 10.039063h77.472657c5.542968 0 10.039062-4.496094 10.039062-10.039063 0-5.542968-4.496094-10.039062-10.039062-10.039062zm0 0"/><path d="m147.722656 411.535156c-16.742187 0-30.363281 13.621094-30.363281 30.363282 0 16.746093 13.621094 30.367187 30.363281 30.367187 16.746094 0 30.367188-13.621094 30.367188-30.367187-.003906-16.742188-13.625-30.363282-30.367188-30.363282zm0 40.652344c-5.667968 0-10.285156-4.617188-10.285156-10.289062 0-5.667969 4.613281-10.285157 10.285156-10.285157s10.289063 4.617188 10.289063 10.285157c0 5.671874-4.617188 10.289062-10.289063 10.289062zm0 0"/><path d="m1.695312 315.410156c2.34375 3.542969 6.855469 5.226563 10.941407 4.128906 4.113281-1.109374 7.125-4.796874 7.417969-9.042968.28125-4.089844-2.09375-8.046875-5.808594-9.753906-3.671875-1.6875-8.109375-.996094-11.070313 1.773437-3.539062 3.3125-4.148437 8.859375-1.480469 12.894531zm0 0"/></svg>