<svg height="512" viewBox="0 0 512 512" width="512" xmlns="http://www.w3.org/2000/svg"><g id="Flat"><g id="Vaccination_01" data-name="Vaccination 01"><path d="m250.176 135.1954a37.1624 37.1624 0 0 1 -.7937-5.616c-1.9888-33.05-38.354-20.9-37.6328 7.1585a128.9247 128.9247 0 0 0 3.4413 24.2621l27.8373-.6951z" fill="#2bc79b"/><path d="m195.1829 434.6306-27.3695 37.6484-77.7367-77.7367s11.0334-9.9482 36.3511-29.2866l53.2375 23.8243z" fill="#f9b6a6"/><path d="m272.2009 160.4524-23.612-24.09-25.647 18.9187c9.4333 30.6208 45.1489 25.1613 49.259 5.1713z" fill="#b4e1e9"/><path d="m272.2009 160.4524c-25.4843 9.8091-46.7441-3.5791-49.259-5.1709l-8.4949 6.2664 9.5652 23.8305 19.6878 17.0352 34.72-25.6118z" fill="#8dc9d3"/><path d="m360.9536 95.2169-15.8243 11.6731-10.0515-13.6259 15.8243-11.6732c9.0079-6.6447 19.0716 6.9721 10.0515 13.626z" fill="#b4e1e9"/><path d="m351.8536 108.1523a15.4458 15.4458 0 0 0 -1.8675-3.3636l-11.4669-15.5447a15.4675 15.4675 0 0 0 -21.6292-3.2652l-46.7415 34.48c8.6977 56.3812 84.9342-2.3937 81.7051-12.3065z" fill="#fbd85c"/><path d="m284.8569 172.0527 61.8638-45.6348a15.4594 15.4594 0 0 0 5.1329-18.2656h-.0374a71.2862 71.2862 0 0 1 -11.5054 9.7254c-22.78 15.3469-50.7627 15.5544-70.1624 2.5809l-15.1044 11.1584 13.5491 22.7485z" fill="#f9b851"/><path d="m223.375 175.664 10.051 13.626-44.4 32.753-10.212-3.432.16-10.194z" fill="#8dc9d3"/><path d="m168.3834 194.06 31.2333 42.34c5.51 7.4692-5.7812 15.8141-11.2985 8.3346l-31.2333-42.34c-5.5098-7.4694 5.7811-15.8146 11.2985-8.3346z" fill="#b4e1e9"/><path d="m309.34 237.3643c-21.055-28.07-34.88-43.31-36.0093-62.0755-1.9889-33.05-38.354-20.9-37.6329 7.1586a97.137 97.137 0 0 0 .8559 10.0365l-.0554-.0125-12.937 6.5684c5.35 40.5958 5.4289 52.87-3.0215 60.0089-8.2321 6.9544-20.8905 3.4828-24.9233-6.5105-5.0582-12.5344-8.8153-25.4047-23.4068-32.4049-24.5667-11.786-12.8572 48.04-5.1082 79.9435a31.1237 31.1237 0 0 1 -10.7226 31.5963l-28.362 22.84a8 8 0 0 0 -.6573 11.8695l67.6504 68.0842a8.0052 8.0052 0 0 0 12.0547-.8125c7.1146-9.3462 22.6564-27.1957 53.5925-53.2786 16.1368-13.6049 34.2348-24.9746 48.8393-40.2129 46.2782-48.2854 11.9143-86.7053-.1565-102.7985z" fill="#2bc79b"/><path d="m248.3317 208.9166-40.0139-55.9291c-5.5143-7.7373-17.2265.5927-11.7047 8.341l40.0136 55.9288c5.5138 7.7371 17.2266-.5923 11.705-8.3407z" fill="#b4e1e9"/></g></g><g id="Outline"><g id="Vaccination_01-2" data-name="Vaccination 01"><path d="m419.5488 36.5024-56.5088 41.6843c-7.4377-5.4338-14.35.0656-14.5124.1854l-8.6359 6.3706c-9.2623-9.3916-20.883-5.2972-25.3763-1.9829l-61.25 45.1823c-1.5384-16.9563-11.8181-22.6117-20.3318-22.2395-12.5342.5381-25.645 13.1783-25.1831 31.1382a101.6927 101.6927 0 0 0 .95 10.9622c-9.6747-6.7151-22.7792 5.4145-15.34 15.8533l13.664 19.0988-27.2058 20.0686-8.2165-11.1386c-8.6311-11.7012-26.3739 1.3748-17.7359 13.0839l8.0243 10.8781a10.7554 10.7554 0 0 0 -2.8055 1.9589c-3.4151 3.2976-12.7318 13.9931 4.1289 83.4145a27.2432 27.2432 0 0 1 -9.3443 27.5376l-28.3619 22.8389a12.0545 12.0545 0 0 0 -4.0144 12.6c-23.3807 17.953-33.6553 27.178-34.0954 27.5748l-3.128 2.8208 84.0264 84.0254 27.9513-38.4489a12.0019 12.0019 0 0 0 14-3.892c33.7953-44.396 80.1608-70.2153 102.1367-93.1464 46.1015-48.1006 15.4155-88.0694 2.3125-105.1368-24.1136-31.3916-33.164-43.1391-36.3186-55.9909l9.0676-6.6887 61.6494-45.4771c10.9165-8.053 7.9811-20.2858 5.5874-24.8243l8.6455-6.3774c.1711-.1261 7.4654-5.0952 4.4629-13.8126l56.5068-41.6829c4.258-3.14-.4879-9.581-4.7491-6.4376zm-199.5578 125.9263 30.9721-22.8472 8.8079 11.94a18.0286 18.0286 0 0 0 -2.8892-.11c-11.6734.5012-23.8413 11.502-25.0849 27.5184zm13.2863-48.7334c7.0709-.3164 11.4771 5.5737 12.1124 16.1245.0708 1.18.21 2.3972.4025 3.6355l-27.9565 20.6227a113.0669 113.0669 0 0 1 -2.0876-17.4427c-.3355-13.0611 8.9687-22.5728 17.5292-22.94zm-28.2128 41.62 40.0122 55.9268c2.433 3.4193-2.7466 7.124-5.1968 3.688l-40.0093-55.9224c-2.4066-3.3777 2.711-7.1777 5.1939-3.6928zm-2.229 78.711-8.2165-11.1384 25.557-18.8526c4.6913 36.5857 4.167 46.5637-2.2185 51.9583-5.9663 5.0407-15.433 3.0447-18.9273-5.6975 5.6039-3.0072 8.3064-10.1688 3.8053-16.2702zm8.8442-44.7641 5.198 7.2654-27.0077 19.9224-5.3026-7.1884zm-46.5151 7.1723 31.2334 42.3408c2.3808 3.2291-2.4792 6.81-4.8609 3.5855l-31.2334-42.34c-2.3104-3.1334 2.4239-6.89 4.8609-3.5867zm2.1665 269.7055-71.3931-71.3929c4.6089-3.9388 14.3525-12.05 30.0247-24.095l63.9773 64.3873zm141.02-223.4736c13.8418 18.0288 39.6059 51.5874-1.7422 94.73-19.2266 20.06-70.0133 50.8623-102.7266 93.8359a4.0291 4.0291 0 0 1 -6.0346.4161l-67.6514-68.0854a4.0131 4.0131 0 0 1 .3291-5.9351l28.3618-22.8393a35.2753 35.2753 0 0 0 12.1011-35.6563c-11.88-48.9126-11.0684-71.2119-6.3462-75.7715a2.6666 2.6666 0 0 1 2.4177-.706l18.0393 24.4546a11.0093 11.0093 0 0 0 5.6908 4.1057c8.3205 21.1765 26.1455 16.1135 32.3307 10.8894 8.6256-7.2869 9.7371-18.2885 6.3466-47.98l3.9024 5.4546a10.871 10.871 0 0 0 6.3235 4.4259c1.9542 6.1347 4.1834 12.1714 6.6548 18.0143-3.1813 5.131-7.1558 11.5776-13.1931 21.3015-7.6221 12.2736 2.5633 24.8255 16.7454 26.4959-2.0617 5.7629-1.7011 10.88 1.8508 16.0954 9.5892 14.08 28.23 5.4417 41.331-.4643l-.17 1.7548c-.51 5.2675 7.4528 6.0407 7.9629.7706l.8306-8.58a4.0023 4.0023 0 0 0 -5.5547-4.063c-15.6076 6.6794-31.4483 15.3869-37.7876 6.0791-5.5341-8.1265 3.3784-17.73 24.5742-43.9077 4.0249-4.9712 9.8729-6.4 24.3877.001 4.8395 2.1316 8.0732-5.1831 3.2275-7.32-13.8962-6.1274-25.673-7.7934-33.833 2.2852-9.89 12.215-17.9707 21.61-22.8613 29.4722-7.643.5556-19.3367-5.6548-13.9072-14.399 19.9935-32.2007 20.1576-32.9025 22.1191-34.3 1.7675-1.2589 2.93-1.3711 24.8628-7.0752 5.12-1.3307 3.1134-9.0716-2.0127-7.7426-23.4008 6.0839-24.3142 6.0394-27.4907 8.3012-1.851 1.3184-2.5259 1.804-5.8411 6.9439q-2.0691-5.31-3.852-10.7766c5.1926-2.8106 8.3943-9.9226 3.8523-16.2957l-11.1923-15.644c-.3942-3.1844-.6355-6.0863-.7008-8.607-.3354-13.06 8.9688-22.5722 17.5293-22.9394 7.0781-.3179 11.478 5.5742 12.1123 16.1245 1.0827 17.9918 11.4101 31.185 39.0138 67.1359zm35.9951-119.4668-61.6492 45.4767-.2146.1576-25.0815-34.0013.2139-.1578 19.5712-14.4371 9.9683 13.5138c3.0911 4.1875 9.6327-.4175 6.4385-4.7491l-9.9685-13.514 10.1994-7.5238 9.9688 13.5139c3.0908 4.1916 9.6319-.4188 6.4375-4.749l-9.9685-13.5137 10.1994-7.5238 9.9688 13.5136c3.0908 4.1916 9.6319-.4189 6.4375-4.7491l-9.9686-13.5134 2.3661-1.7453a11.4609 11.4609 0 0 1 16.0353 2.4209l11.4673 15.5444c2.1956 2.9769 4.4333 10.9786-2.4211 16.0361zm14.2329-31.2016-8.4563 6.2378-5.3024-7.188 8.4565-6.2382c4.7608-3.5096 10.0757 3.6661 5.3022 7.1884z"/></g></g></svg>