<svg height="512" viewBox="0 0 64 64" width="512" xmlns="http://www.w3.org/2000/svg"><g id="_5-vaccination" data-name="5-vaccination"><path d="m29 63-13-36-15-1v37h9v-21l7 21z" fill="#ffc19e"/><path d="m1 26v37h9v-21l6-15z" fill="#407ad6"/><path d="m63 1h-3.028l-8.286 8.243c-1.686-1.243-3.686.757-3.686.757l-17.527 16.213a2 2 0 0 0 2.827 2.829l9.9-9.9 8.485 8.485 5.657-5.656s3.536-3.536 1.414-5.657l4.244-4.268z" fill="#ffc19e"/><path d="m48 10c-4.243 4.243-10.456-1.778-10.456-1.778l-.769 1.539a2 2 0 0 0 .374 2.309l2.759 2.758a4 4 0 0 0 2.829 1.172h4z" fill="#ffc19e"/><path d="m53.1 23.385a2.07 2.07 0 0 1 0 2.828l-2.829 2.829a2 2 0 0 1 -2.828-2.829l2.828-2.828a2.071 2.071 0 0 1 2.829 0z" fill="#ffc19e"/><path d="m49.565 21.263a2.071 2.071 0 0 1 0 2.829l-2.828 2.828a2 2 0 0 1 -2.829-2.828l2.829-2.829a2.07 2.07 0 0 1 2.828 0z" fill="#ffc19e"/><path d="m46.029 19.142a2.07 2.07 0 0 1 0 2.829l-2.829 2.829a2 2 0 0 1 -2.828-2.828l2.828-2.83a2.07 2.07 0 0 1 2.829 0z" fill="#ffc19e"/><path d="m53.1 23.385a2.076 2.076 0 0 0 -1.918-.493 1.931 1.931 0 0 1 .918.493 2.07 2.07 0 0 1 0 2.828l-2.829 2.829a1.9 1.9 0 0 1 -.911.492 2.031 2.031 0 0 0 1.911-.492l2.829-2.829a2.07 2.07 0 0 0 0-2.828z" fill="#f0a47d"/><path d="m49.565 21.263a2.077 2.077 0 0 0 -1.917-.492 1.93 1.93 0 0 1 .917.492 2.071 2.071 0 0 1 0 2.829l-2.828 2.828a1.89 1.89 0 0 1 -.912.493 2.033 2.033 0 0 0 1.912-.493l2.828-2.828a2.071 2.071 0 0 0 0-2.829z" fill="#f0a47d"/><path d="m46.029 19.142a2.073 2.073 0 0 0 -1.917-.492 1.921 1.921 0 0 1 .917.492 2.07 2.07 0 0 1 0 2.829l-2.829 2.829a1.881 1.881 0 0 1 -.911.492 2.028 2.028 0 0 0 1.911-.492l2.828-2.828a2.07 2.07 0 0 0 .001-2.83z" fill="#f0a47d"/><path d="m19 21-5-13 7-1z" fill="#e6294f"/><path d="m25 39 15 2-4 6z" fill="#e6294f"/><path d="m8 14-5 3 8 5z" fill="#e6294f"/><path d="m17.038 37.82a1 1 0 0 1 -.707-1.707l7.069-7.071a1 1 0 0 1 1.414 1.414l-7.071 7.071a1 1 0 0 1 -.705.293z" fill="#407ad6"/><path d="m26.766 16.092h6v16h-6z" fill="#71d6fc" transform="matrix(-.707 -.707 .707 -.707 33.778 62.175)"/><g fill="#407ad6"><path d="m42.494 18.021a1 1 0 0 1 -.707-.293l-5.657-5.657a1 1 0 0 1 1.414-1.414l5.656 5.657a1 1 0 0 1 -.707 1.707z"/><path d="m39.665 23.678a1 1 0 0 1 -.707-.293l-8.484-8.485a1 1 0 0 1 1.414-1.414l8.484 8.486a1 1 0 0 1 -.707 1.707z"/><path d="m35.423 19.435a1 1 0 0 1 -.707-1.707l4.242-4.243a1 1 0 0 1 1.414 1.415l-4.242 4.242a1 1 0 0 1 -.707.293z"/><path d="m26.998 26.481h2v3h-2z" transform="matrix(.707 -.707 .707 .707 -11.585 27.993)"/><path d="m29.827 23.652h2v3.001h-2z" transform="matrix(.707 -.707 .707 .707 -8.756 29.169)"/><path d="m32.655 20.824h2v3h-2z" transform="matrix(.707 -.707 .707 .707 -5.928 30.336)"/></g><path d="m55 47a1 1 0 0 1 -1-1v-6a1 1 0 0 1 2 0v6a1 1 0 0 1 -1 1z" fill="#32addb"/><path d="m58 44h-6a1 1 0 0 1 0-2h6a1 1 0 0 1 0 2z" fill="#32addb"/><path d="m30 10a1 1 0 0 1 -1-1v-6a1 1 0 0 1 2 0v6a1 1 0 0 1 -1 1z" fill="#32addb"/><path d="m33 7h-6a1 1 0 0 1 0-2h6a1 1 0 0 1 0 2z" fill="#32addb"/><path d="m45 60a1 1 0 0 1 -1-1v-6a1 1 0 0 1 2 0v6a1 1 0 0 1 -1 1z" fill="#32addb"/><path d="m48 57h-6a1 1 0 0 1 0-2h6a1 1 0 0 1 0 2z" fill="#32addb"/></g></svg>