<svg id="Layer_1" enable-background="new 0 0 256 256" height="512" viewBox="0 0 256 256" width="512" xmlns="http://www.w3.org/2000/svg"><g><g><path d="m133.198 128.998-15.642-15.642c-1.364-1.364-3.576-1.364-4.94 0l-69.153 69.154c-1.364 1.364-1.364 3.576 0 4.94l15.642 15.642c1.364 1.364 3.576 1.364 4.94 0l69.153-69.153c1.364-1.365 1.364-3.577 0-4.941z" fill="#e0ebfc"/><path d="m202.626 82.622-38.693-38.693c-1.819-1.819-4.767-1.819-6.586 0l-106.474 106.474c-4.092 4.092-4.092 10.727 0 14.819l30.46 30.46c4.092 4.092 10.727 4.092 14.819 0l106.474-106.474c1.819-1.819 1.819-4.768 0-6.586z" fill="#e0ebfc"/><path d="m137.2 77.568-77.935 77.935c-1.364 1.364-1.364 3.576 0 4.94l26.847 26.847c1.364 1.364 3.576 1.364 4.94 0l77.935-77.935z" fill="#a4c9ff"/><path d="m175.911 24.688h17.464v74.448h-17.464z" fill="#6bdddd" transform="matrix(-.707 -.707 .707 -.707 271.428 236.252)"/><g fill="#4671c6"><path d="m197.792 10.069 38.693 38.693c1.819 1.819 1.819 4.767 0 6.586l-5.763 5.763c-1.819 1.819-4.767 1.819-6.586 0l-38.693-38.693c-1.819-1.819-1.819-4.767 0-6.586l5.763-5.763c1.819-1.818 4.768-1.818 6.586 0z"/><path d="m146.805 67.963-9.605 9.605 31.787 31.787 9.605-9.605c.909-.909.909-2.384 0-3.293l-28.494-28.494c-.91-.909-2.384-.909-3.293 0z"/></g></g><circle cx="189.33" cy="191.295" fill="#f9a7a7" r="56"/><circle cx="189.33" cy="191.295" fill="#4671c6" r="42.56"/><g><path d="m177.011 218.575c-.179 0-.358-.008-.539-.024-1.771-.16-3.381-1.097-4.394-2.559l-13.854-19.999c-1.887-2.724-1.208-6.462 1.516-8.349s6.462-1.208 8.349 1.516l9.761 14.091 33.41-33.41c2.343-2.343 6.143-2.343 8.485 0 2.343 2.343 2.343 6.142 0 8.485l-38.492 38.492c-1.13 1.129-2.659 1.757-4.242 1.757z" fill="#6bdddd"/></g><g><path d="m189.33 249.295c-31.981 0-58-26.019-58-58s26.019-58 58-58 58 26.019 58 58-26.019 58-58 58zm0-112c-29.776 0-54 24.224-54 54s24.224 54 54 54 54-24.224 54-54-24.225-54-54-54z" fill="#3762cc"/></g><path d="m237.899 47.348-38.692-38.693c-1.257-1.258-2.929-1.95-4.707-1.95s-3.45.693-4.707 1.95l-5.763 5.763c-1.258 1.257-1.95 2.929-1.95 4.707s.693 3.45 1.95 4.707l11.758 11.758-18.683 18.683-11.758-11.758c-2.601-2.602-6.812-2.603-9.414 0-12.18 12.18-94.302 94.302-106.475 106.474-4.865 4.865-4.865 12.782 0 17.647l3.525 3.525-10.935 10.935c-2.141 2.142-2.141 5.626 0 7.768l6.407 6.407-39.2 39.2c-.781.781-.781 2.047 0 2.828.39.391.902.586 1.414.586s1.024-.195 1.414-.586l39.2-39.2 6.407 6.407c2.144 2.144 5.617 2.152 7.768 0l10.935-10.935 3.525 3.525c2.433 2.433 5.628 3.649 8.823 3.649 3.196 0 6.391-1.216 8.824-3.649l106.475-106.474c2.602-2.602 2.603-6.813 0-9.415l-11.758-11.757 18.683-18.682 11.758 11.758c1.298 1.298 3.002 1.947 4.707 1.947s3.409-.649 4.707-1.947l5.763-5.762c1.257-1.257 1.95-2.929 1.95-4.708s-.693-3.451-1.951-4.708zm-175.268 154.329c-.564.564-1.547.564-2.111 0l-15.642-15.642c-.582-.582-.582-1.529 0-2.111l10.935-10.934 17.753 17.753zm96.131-156.334c1.037-1.038 2.719-1.039 3.757 0l11.758 11.758-16.107 16.107-6.659-6.659c-1.688-1.688-4.434-1.688-6.121 0l-9.604 9.605-13.953 13.953-3.918-3.918zm-73.134 107.35-10.362-10.363 13.637-13.637 10.363 10.363c.78.781 2.048.781 2.828 0 .781-.781.781-2.047 0-2.828l-10.363-10.363 13.637-13.637 10.363 10.363c.78.781 2.048.781 2.828 0 .781-.781.781-2.047 0-2.828l-10.363-10.363 13.637-13.637 10.363 10.363c.78.781 2.048.781 2.828 0 .781-.781.781-2.047 0-2.828l-10.363-10.363 12.539-12.539 28.958 28.958-76.52 76.521c-.582.582-1.529.582-2.111 0l-26.848-26.848c-.582-.582-.582-1.529 0-2.111l11.758-11.758 10.363 10.363c.78.781 2.048.781 2.828 0 .782-.78.782-2.047 0-2.828zm-3.472-30.746 3.918 3.918-13.637 13.637-3.918-3.918zm16.466-16.465 3.918 3.918-13.637 13.637-3.918-3.918zm16.465-16.465 3.918 3.918-13.637 13.637-3.918-3.918zm53.9 17.509-28.958-28.958 8.19-8.191c.159-.158.306-.158.465 0 3.137 3.137 25.127 25.127 28.494 28.494.079.08.096.17.096.232s-.017.153-.096.232zm-7.988-30.49 16.106-16.106 9.52 9.52-16.107 16.106zm40.213 8c1.038 1.038 1.039 2.719 0 3.758l-106.474 106.474c-3.306 3.306-8.684 3.306-11.991 0l-30.46-30.46c-3.306-3.306-3.306-8.685 0-11.991l13.405-13.404 3.918 3.918-11.758 11.758c-2.141 2.142-2.141 5.626 0 7.768l26.848 26.848c1.071 1.071 2.477 1.606 3.883 1.606s2.813-.535 3.884-1.606l77.935-77.935 9.605-9.604c1.688-1.688 1.688-4.434 0-6.121l-6.659-6.659 16.107-16.107zm-11.758-17.415-9.52-9.52 18.682-18.682 9.521 9.52zm45.617-12.687-5.763 5.763c-1.036 1.036-2.722 1.036-3.758 0l-38.693-38.693c-1.038-1.037-1.039-2.719 0-3.757l5.763-5.763c1.037-1.038 2.719-1.039 3.757 0l38.693 38.693c1.04 1.038 1.04 2.718.001 3.757z" fill="#3762cc"/></g></svg>