<svg id="Layer_1" enable-background="new 0 0 256 256" height="512" viewBox="0 0 256 256" width="512" xmlns="http://www.w3.org/2000/svg"><g><g><g><g><g><g><path d="m195.082 212.756h23.26v25.234h-23.26z" fill="#a4c9ff"/></g></g></g></g><g><g><g><g><path d="m227.972 237.99h-42.52c-1.105 0-2 .895-2 2v5.304c0 1.105.895 2 2 2h42.52c1.105 0 2-.895 2-2v-5.304c0-1.105-.895-2-2-2z" fill="#4671c6"/></g></g></g></g><g><g><g><g><path d="m203.279 9.708v103.086h6.867v-98.633l-5.16-5.16c-.63-.63-1.707-.184-1.707.707z" fill="#4671c6"/></g></g></g></g><g><g><g><g><path d="m226.483 207.329h-39.542v-131.233c0-3.314 2.686-6 6-6h27.542c3.314 0 6 2.686 6 6z" fill="#e0ebfc"/></g></g></g></g><g><g><g><g><path d="m147.933 123.015h117.557v28h-117.557z" fill="#a4c9ff" transform="matrix(0 1 -1 0 343.727 -69.697)"/></g></g></g></g><g><g><g><g><path d="m218.342 239.99h-23.26c-1.104 0-2-.896-2-2v-25.234c0-1.104.896-2 2-2h23.26c1.104 0 2 .896 2 2v25.234c0 1.104-.896 2-2 2zm-21.26-4h19.26v-21.234h-19.26z" fill="#3762cc"/></g></g></g></g><g><g><g><g><path d="m227.973 249.294h-42.521c-2.206 0-4-1.794-4-4v-5.304c0-2.206 1.794-4 4-4h42.521c2.206 0 4 1.794 4 4v5.304c0 2.206-1.794 4-4 4zm-42.521-9.304v5.304h42.521v-5.304z" fill="#3762cc"/></g></g></g></g><g><g><g><g><path d="m226.483 209.329h-39.542c-1.104 0-2-.896-2-2v-131.233c0-4.411 3.589-8 8-8h27.542c4.411 0 8 3.589 8 8v131.233c0 1.104-.895 2-2 2zm-37.542-4h35.542v-129.233c0-2.206-1.794-4-4-4h-27.542c-2.206 0-4 1.794-4 4z" fill="#3762cc"/></g></g></g></g><g><g><g><g><path d="m232.787 203.452h-52.15c-1.657 0-3 1.343-3 3v3.304c0 1.657 1.343 3 3 3h52.15c1.657 0 3-1.343 3-3v-3.304c0-1.657-1.343-3-3-3z" fill="#4671c6"/></g></g></g></g><g><g><g><g><path d="m232.787 214.756h-52.149c-2.757 0-5-2.243-5-5v-3.304c0-2.757 2.243-5 5-5h52.149c2.757 0 5 2.243 5 5v3.304c0 2.757-2.243 5-5 5zm-52.149-9.304c-.552 0-1 .449-1 1v3.304c0 .551.448 1 1 1h52.149c.552 0 1-.449 1-1v-3.304c0-.551-.448-1-1-1z" fill="#3762cc"/></g></g></g></g><g><g><g><g><path d="m199.8 92.704h-12.858c-1.104 0-2-.896-2-2s.896-2 2-2h12.858c1.104 0 2 .896 2 2s-.896 2-2 2z" fill="#3762cc"/></g></g></g></g><g><g><g><g><path d="m199.8 112.704h-12.858c-1.104 0-2-.896-2-2s.896-2 2-2h12.858c1.104 0 2 .896 2 2s-.896 2-2 2z" fill="#3762cc"/></g></g></g></g><g><g><g><g><path d="m199.8 132.704h-12.858c-1.104 0-2-.896-2-2s.896-2 2-2h12.858c1.104 0 2 .896 2 2s-.896 2-2 2z" fill="#3762cc"/></g></g></g></g><g><g><g><g><path d="m199.8 152.704h-12.858c-1.104 0-2-.896-2-2s.896-2 2-2h12.858c1.104 0 2 .896 2 2s-.896 2-2 2z" fill="#3762cc"/></g></g></g></g><g><g><g><g><path d="m199.8 172.704h-12.858c-1.104 0-2-.896-2-2s.896-2 2-2h12.858c1.104 0 2 .896 2 2s-.896 2-2 2z" fill="#3762cc"/></g></g></g></g><g><g><g><g><path d="m199.8 192.704h-12.858c-1.104 0-2-.896-2-2s.896-2 2-2h12.858c1.104 0 2 .896 2 2s-.896 2-2 2z" fill="#3762cc"/></g></g></g></g></g><g><g><g><g><g><path d="m169.397 235.075h-8.914c-16.527 0-29.925-13.398-29.925-29.925v-27.225h8.914c16.527 0 29.925 13.398 29.925 29.925z" fill="#4671c6"/></g></g></g></g><g><g><g><g><path d="m20.213 235.075h8.914c16.527 0 29.925-13.398 29.925-29.925v-27.225h-8.914c-16.527 0-29.925 13.398-29.925 29.925z" fill="#4671c6"/></g></g></g></g><g><g><g><g><path d="m169.397 237.075h-8.914c-17.604 0-31.925-14.322-31.925-31.925v-27.225c0-1.104.896-2 2-2h8.914c17.604 0 31.925 14.322 31.925 31.925v27.225c0 1.105-.895 2-2 2zm-36.838-57.15v25.225c0 15.398 12.527 27.925 27.925 27.925h6.914v-25.225c0-15.398-12.527-27.925-27.925-27.925z" fill="#3762cc"/></g></g></g></g><g><g><g><g><path d="m29.127 237.075h-8.914c-1.104 0-2-.896-2-2v-27.225c0-17.604 14.321-31.925 31.925-31.925h8.914c1.104 0 2 .896 2 2v27.225c0 17.603-14.322 31.925-31.925 31.925zm-6.914-4h6.914c15.397 0 27.925-12.527 27.925-27.925v-25.225h-6.914c-15.397 0-27.925 12.527-27.925 27.925z" fill="#3762cc"/></g></g></g></g><g><g><g><g><path d="m144.162 198.237h-103.464v-29.715c0-22.38 18.142-40.522 40.521-40.522h22.422c22.379 0 40.521 18.142 40.521 40.521z" fill="#4671c6"/></g></g></g></g><g><g><g><g><path d="m144.162 200.236h-103.464c-1.104 0-2-.896-2-2v-29.715c0-23.446 19.075-42.521 42.522-42.521h22.421c23.446 0 42.521 19.075 42.521 42.521v29.715c0 1.105-.895 2-2 2zm-101.464-4h99.464v-27.715c0-21.241-17.28-38.521-38.521-38.521h-22.421c-21.241 0-38.521 17.28-38.521 38.521v27.715z" fill="#3762cc"/></g></g></g></g><g><g><g><g><path d="m147.945 193.22c0-5.563-3.835-10.218-9.002-11.5-4.519-21.483-23.574-37.613-46.4-37.613-22.838 0-41.901 16.146-46.408 37.646-5.103 1.326-8.876 5.95-8.876 11.468 0 5.841 4.225 10.684 9.784 11.669 5.771 19.683 23.951 34.062 45.5 34.062 21.543 0 39.718-14.37 45.495-34.043 5.619-.936 9.907-5.805 9.907-11.689z" fill="#f9cfcf"/></g></g></g></g><g><g><g><g><path d="m92.543 240.95c-21.396 0-40.583-14.072-47.073-34.366-5.986-1.623-10.211-7.057-10.211-13.365 0-5.884 3.715-11.078 9.176-13.034 5.202-22.136 25.245-38.079 48.108-38.079 22.842 0 42.877 15.922 48.097 38.032 5.537 1.918 9.305 7.129 9.305 13.081 0 6.374-4.278 11.821-10.339 13.397-6.502 20.277-25.681 34.334-47.063 34.334zm0-94.844c-21.377 0-40.071 15.164-44.451 36.056-.155.744-.719 1.334-1.454 1.525-4.345 1.129-7.379 5.049-7.379 9.532 0 4.786 3.42 8.865 8.132 9.7.748.132 1.356.677 1.57 1.407 5.632 19.208 23.554 32.624 43.582 32.624 20.02 0 37.938-13.408 43.576-32.606.216-.736.834-1.284 1.591-1.41 4.771-.793 8.234-4.878 8.234-9.714 0-4.535-3.077-8.466-7.482-9.559-.744-.185-1.317-.779-1.476-1.529-4.391-20.875-23.083-36.026-44.443-36.026z" fill="#3762cc"/></g></g></g></g><g><g><g><g><path d="m100.999 208.194c1.399 0 2.501 1.296 2.166 2.654-1.189 4.824-5.544 8.401-10.735 8.401s-9.546-3.578-10.735-8.401c-.335-1.359.767-2.654 2.166-2.654z" fill="#f9a7a7"/></g></g></g></g><g><g><g><g><path d="m124.977 212.795h-7.821c-2.592 0-4.693-2.101-4.693-4.693 0-2.592 2.101-4.693 4.693-4.693h7.821c2.592 0 4.693 2.101 4.693 4.693 0 2.592-2.101 4.693-4.693 4.693z" fill="#f9a7a7"/></g></g></g></g><g><g><g><g><path d="m67.929 212.795h-7.821c-2.592 0-4.693-2.101-4.693-4.693 0-2.592 2.101-4.693 4.693-4.693h7.821c2.592 0 4.693 2.101 4.693 4.693 0 2.592-2.101 4.693-4.693 4.693z" fill="#f9a7a7"/></g></g></g></g><g><g><g><g><path d="m74.14 199.294c-3.354 0-6.073-2.719-6.073-6.073v-5.854c0-3.354 2.719-6.073 6.073-6.073 3.354 0 6.073 2.719 6.073 6.073v5.854c0 3.354-2.719 6.073-6.073 6.073z" fill="#3762cc"/></g></g></g></g><g><g><g><g><path d="m110.945 199.294c-3.354 0-6.073-2.719-6.073-6.073v-5.854c0-3.354 2.719-6.073 6.073-6.073 3.354 0 6.073 2.719 6.073 6.073v5.854c0 3.354-2.719 6.073-6.073 6.073z" fill="#3762cc"/></g></g></g></g><g><g><g><g><path d="m65.717 173.333h-19.277v-12.448c0-14.848 12.036-26.885 26.885-26.885h19.277v12.448c0 14.849-12.037 26.885-26.885 26.885z" fill="#4671c6"/></g></g></g></g><g><g><g><g><path d="m119.487 173.333h19.277v-12.448c0-14.848-12.037-26.885-26.885-26.885h-19.277v12.448c0 14.849 12.036 26.885 26.885 26.885z" fill="#4671c6"/></g></g></g></g><g><g><g><g><path d="m65.717 175.333h-19.278c-1.104 0-2-.896-2-2s.896-2 2-2h19.277c13.722 0 24.885-11.164 24.885-24.885 0-1.104.896-2 2-2s2 .896 2 2c.001 15.927-12.957 28.885-28.884 28.885z" fill="#3762cc"/></g></g></g></g><g><g><g><g><path d="m138.764 175.333h-19.277c-15.927 0-28.885-12.958-28.885-28.885 0-1.104.896-2 2-2s2 .896 2 2c0 13.722 11.163 24.885 24.885 24.885h19.277c1.104 0 2 .896 2 2s-.896 2-2 2z" fill="#3762cc"/></g></g></g></g><g><g><g><g><path d="m143.057 78.237h-101.254v-29.081c0-21.902 17.754-39.656 39.656-39.656h21.943c21.901 0 39.656 17.754 39.656 39.656v29.081z" fill="#4671c6"/></g></g></g></g><g><g><g><g><path d="m143.058 80.236h-101.255c-1.104 0-2-.896-2-2v-29.08c0-22.969 18.686-41.656 41.656-41.656h21.942c22.97 0 41.656 18.687 41.656 41.656v29.081c.001 1.104-.895 1.999-1.999 1.999zm-99.255-4h97.255v-27.08c0-20.764-16.893-37.656-37.656-37.656h-21.943c-20.764 0-37.656 16.892-37.656 37.656z" fill="#3762cc"/></g></g></g></g><g><g><g><g><path d="m147.945 73.22c0-5.563-3.835-10.218-9.002-11.5-4.519-21.483-23.574-37.613-46.4-37.613-22.838 0-41.901 16.146-46.408 37.646-5.103 1.326-8.876 5.95-8.876 11.468 0 5.841 4.225 10.684 9.784 11.669 5.771 19.683 23.951 34.062 45.5 34.062 21.543 0 39.718-14.37 45.495-34.043 5.619-.936 9.907-5.805 9.907-11.689z" fill="#f9cfcf"/></g></g></g></g><g><g><g><g><path d="m92.543 120.95c-21.396 0-40.583-14.072-47.073-34.366-5.986-1.623-10.211-7.057-10.211-13.365 0-5.884 3.715-11.078 9.176-13.034 5.202-22.135 25.245-38.079 48.108-38.079 22.842 0 42.877 15.922 48.097 38.032 5.537 1.918 9.305 7.129 9.305 13.081 0 6.374-4.278 11.821-10.339 13.397-6.502 20.277-25.681 34.334-47.063 34.334zm0-94.844c-21.377 0-40.071 15.164-44.451 36.056-.155.744-.719 1.334-1.454 1.525-4.345 1.129-7.379 5.049-7.379 9.532 0 4.786 3.42 8.865 8.132 9.7.748.132 1.356.677 1.57 1.407 5.632 19.208 23.554 32.624 43.582 32.624 20.02 0 37.938-13.408 43.576-32.606.216-.736.834-1.284 1.591-1.41 4.771-.793 8.234-4.878 8.234-9.714 0-4.535-3.077-8.466-7.482-9.559-.744-.185-1.317-.779-1.476-1.529-4.391-20.875-23.083-36.026-44.443-36.026z" fill="#3762cc"/></g></g></g></g><g><g><g><g><path d="m100.999 88.194c1.399 0 2.501 1.296 2.166 2.654-1.189 4.824-5.544 8.401-10.735 8.401s-9.546-3.578-10.735-8.401c-.335-1.359.767-2.654 2.166-2.654z" fill="#f9a7a7"/></g></g></g></g><g><g><g><g><path d="m124.977 92.795h-7.821c-2.592 0-4.693-2.101-4.693-4.693 0-2.592 2.101-4.693 4.693-4.693h7.821c2.592 0 4.693 2.101 4.693 4.693 0 2.592-2.101 4.693-4.693 4.693z" fill="#f9a7a7"/></g></g></g></g><g><g><g><g><path d="m67.929 92.795h-7.821c-2.592 0-4.693-2.101-4.693-4.693 0-2.592 2.101-4.693 4.693-4.693h7.821c2.592 0 4.693 2.101 4.693 4.693 0 2.592-2.101 4.693-4.693 4.693z" fill="#f9a7a7"/></g></g></g></g><g><g><g><g><path d="m74.14 79.294c-3.354 0-6.073-2.719-6.073-6.073v-5.854c0-3.354 2.719-6.073 6.073-6.073 3.354 0 6.073 2.719 6.073 6.073v5.854c0 3.354-2.719 6.073-6.073 6.073z" fill="#3762cc"/></g></g></g></g><g><g><g><g><path d="m110.945 79.294c-3.354 0-6.073-2.719-6.073-6.073v-5.854c0-3.354 2.719-6.073 6.073-6.073 3.354 0 6.073 2.719 6.073 6.073v5.854c0 3.354-2.719 6.073-6.073 6.073z" fill="#3762cc"/></g></g></g></g><g><g><g><g><path d="m89.646 54.02h47.909v-11.747c0-14.153-11.474-25.627-25.627-25.627h-47.909v11.747c0 14.154 11.473 25.627 25.627 25.627z" fill="#4671c6"/></g></g></g></g><g><g><g><g><path d="m137.555 56.021h-47.909c-15.233 0-27.627-12.394-27.627-27.627 0-1.104.896-2 2-2s2 .896 2 2c0 13.028 10.599 23.627 23.627 23.627h47.909c1.104 0 2 .896 2 2s-.896 2-2 2z" fill="#3762cc"/></g></g></g></g></g></g></svg>