<svg id="virus-_color_lineal" enable-background="new 0 0 512 512" height="512" viewBox="0 0 512 512" width="512" xmlns="http://www.w3.org/2000/svg"><g id="_x34_8"><g><ellipse cx="244.502" cy="56.875" fill="#d19782" rx="36.262" ry="35.989"/><path d="m355.062 214.15c0-66.418-50.72-120.76-112.71-120.76-61.991 0-112.71 54.342-112.71 120.76v48.369c5.245-4.465 13.23-7.093 24.898-6.256l42.147-57.71c33.288 54.638 91.754 14.824 91.754 14.824s18.858 37.039 42.251 2.089v40.893c11.478-1.404 19.168.854 24.152 5.075 0-3.572.218-47.284.218-47.284z" fill="#d19782"/><path d="m330.693 256.36v-40.893s-.076.302-.135.386c-23.38 33.768-42.116-2.475-42.116-2.475s-58.467 39.814-91.755-14.824l-42.147 57.71c-25.594-1.837-33.512 12.973-33.512 27.359s13.732 30.309 37.915 24.231c7.242 20.504 21.982 37.583 40.908 47.977v18.032c0 24.139 18.877 43.889 41.949 43.889 23.072 0 41.949-19.75 41.949-43.889v-17.442c19.565-10.387 34.801-27.861 42.136-48.918 23.914 5.562 37.086-10.58 37.086-24.967.001-14.387-6.818-29.29-32.278-26.176z" fill="#fcddb6"/><path d="m241.91 269.723-47.72 13.015c-5.797 1.581-8.902 7.881-6.624 13.441l13.841 33.791c1.539 3.757 5.196 6.211 9.256 6.211h67.759c4.06 0 7.717-2.454 9.256-6.211l13.841-33.791c2.278-5.561-.827-11.86-6.624-13.441l-47.72-13.015c-1.724-.47-3.541-.47-5.265 0z" fill="#74cee2"/><path d="m19.629 465.758h65.832c6.942 0 12.621 5.68 12.621 12.621 0 6.942-5.68 12.621-12.621 12.621h-65.832c-6.942 0-12.621-5.68-12.621-12.621 0-6.942 5.679-12.621 12.621-12.621z" fill="#74cee2"/><path d="m38.573 404.424h27.827v61.327h-27.827z" fill="#938bba"/><path d="m75.716 404.427v-120.209c0-12.773-10.355-23.128-23.128-23.128-12.773 0-23.128 10.355-23.128 23.128v120.214z" fill="#e1e8f6"/><ellipse cx="52.552" cy="246.482" fill="#f27186" rx="14.067" ry="13.914"/><path d="m471.929 348.673h-45.239c-18.821 0-34.079 15.258-34.079 34.079v90.935c0 9.562 7.752 17.314 17.314 17.314h78.769c9.562 0 17.314-7.752 17.314-17.314v-90.935c0-18.822-15.258-34.079-34.079-34.079z" fill="#e1e8f6"/><path d="m419.346 316.639h60.201v32.959h-60.201z" fill="#938bba"/><path d="m410.414 291.404h78.043c6.942 0 12.621 5.68 12.621 12.621 0 6.942-5.68 12.621-12.621 12.621h-78.043c-6.942 0-12.621-5.68-12.621-12.621-.001-6.942 5.679-12.621 12.621-12.621z" fill="#74cee2"/><path d="m478.269 400.464h-17.24v-17.239h-23.959v17.239h-17.24v23.96h17.24v17.239h23.959v-17.239h17.24z" fill="#f27186"/></g><g><path d="m6 410.352h26.627v49.405h-12.944c-10.268 0-18.621 8.354-18.621 18.621s8.353 18.622 18.621 18.622h65.832c10.268 0 18.621-8.354 18.621-18.621s-8.354-18.621-18.621-18.621h-13.062v-49.405h26.752c3.313 0 6-2.687 6-6s-2.687-6-6-6h-17.434v-114.135c0-10.489-5.574-19.698-13.915-24.828 2.995-3.48 4.816-7.984 4.816-12.909 0-8.908-5.925-16.467-14.069-19.003v-64.933c0-3.313-2.687-6-6-6s-6 2.687-6 6v64.935c-8.141 2.538-14.063 10.095-14.063 19.001 0 4.939 1.832 9.455 4.844 12.939-8.314 5.135-13.868 14.328-13.868 24.798v63.213c0 3.313 2.687 6 6 6s6-2.687 6-6v-63.213c0-9.444 7.684-17.128 17.128-17.128s17.128 7.684 17.128 17.128v19.449h-7.328c-3.414 0-6.182 2.687-6.182 6s2.768 6 6.182 6h7.328v7.014h-15.824c-3.414 0-6.182 2.687-6.182 6s2.768 6 6.182 6h15.823v7.015h-7.328c-3.414 0-6.182 2.687-6.182 6s2.768 6 6.182 6h7.328v7.015h-15.823c-3.414 0-6.182 2.687-6.182 6s2.768 6 6.182 6h15.823v25.643h-63.771c-3.313 0-6 2.687-6 6s2.687 5.998 6 5.998zm46.605-171.784c4.448 0 8.066 3.55 8.066 7.913 0 4.364-3.618 7.914-8.066 7.914s-8.066-3.55-8.066-7.914c0-4.363 3.618-7.913 8.066-7.913zm39.531 239.811c0 3.651-2.97 6.621-6.621 6.621h-65.832c-3.651 0-6.621-2.97-6.621-6.621s2.97-6.621 6.621-6.621h65.832c3.651 0 6.621 2.969 6.621 6.621zm-31.683-18.621h-15.826v-49.405h15.826z"/><path d="m485.539 345.059v-22.412h2.91c10.268 0 18.621-8.354 18.621-18.621s-8.354-18.621-18.621-18.621h-78.043c-10.268 0-18.621 8.354-18.621 18.621s8.354 18.621 18.621 18.621h2.933v22.319c-15.558 5.51-26.735 20.364-26.735 37.786 0 3.313 2.687 6 6 6s6-2.687 6-6c0-15.482 12.597-28.079 28.079-28.079h45.238c15.482 0 28.079 12.597 28.079 28.079v90.935c0 6.238-5.075 11.313-11.313 11.313h-78.769c-6.239 0-11.314-5.075-11.314-11.313v-32.022c0-3.313-2.687-6-6-6s-6 2.687-6 6v32.022c0 12.855 10.459 23.313 23.314 23.313h78.769c12.855 0 23.313-10.458 23.313-23.314v-90.935c0-17.319-11.045-32.106-26.461-37.692zm-81.754-41.034c0-3.651 2.971-6.621 6.621-6.621h78.043c3.65 0 6.621 2.97 6.621 6.621s-2.971 6.621-6.621 6.621h-78.043c-3.65 0-6.621-2.969-6.621-6.621zm21.554 18.621h48.2v20.067c-.538-.021-47.753-.022-48.2-.007z"/><path d="m405.885 469.934c0 3.313 2.687 6 6 6h74.776c3.313 0 6-2.687 6-6s-2.687-6-6-6h-74.776c-3.314 0-6 2.687-6 6z"/><path d="m461.021 377.225h-23.959c-3.313 0-6 2.687-6 6v11.239h-11.24c-3.313 0-6 2.687-6 6v23.959c0 3.313 2.687 6 6 6h11.24v11.24c0 3.313 2.687 6 6 6h23.959c3.313 0 6-2.687 6-6v-11.24h11.239c3.313 0 6-2.687 6-6v-23.959c0-3.313-2.687-6-6-6h-11.239v-11.239c0-3.313-2.686-6-6-6zm11.24 29.24v11.959h-11.239c-3.313 0-6 2.687-6 6v11.24h-11.959v-11.24c0-3.313-2.687-6-6-6h-11.24v-11.959h11.24c3.313 0 6-2.687 6-6v-11.239h11.959v11.239c0 3.313 2.687 6 6 6z"/><ellipse cx="202.563" cy="255.272" rx="11.517" ry="11.43"/><path d="m283.606 266.702c6.361 0 11.517-5.117 11.517-11.43s-5.156-11.43-11.517-11.43-11.516 5.117-11.516 11.43 5.156 11.43 11.516 11.43z"/><path d="m180.237 132.314c-26.044 21.148-32.434 48.64-32.694 49.799-.721 3.227 1.314 6.387 4.532 7.151 3.552.843 6.536-1.741 7.173-4.519.056-.245 5.867-24.697 28.552-43.118 2.572-2.088 2.964-5.867.876-8.438-2.09-2.571-5.865-2.964-8.439-.875z"/><path d="m360.325 260.543c.084-.401.582-50.699-.841-62.577-.394-3.29-3.394-5.624-6.674-5.237-3.289.397-5.695 3.394-5.237 6.674 1.728 12.357.885 53.022.885 53.022-6.501-2.378-12.191-2.244-12.361-2.241v-34.707c0-3.025-2.252-5.574-5.253-5.95-2.659-.33-4.59.835-6.226 3.514-3.871 5.45-9.616 11.599-15.627 11.19-7.353-.454-13.639-10.126-15.791-13.597-2.895-4.67-7.278-3.169-8.698-2.208-.258.175-26.054 17.362-51.257 11.876-12.866-2.802-23.618-11.162-31.958-24.85-1.043-1.71-5.418-5.247-9.967-.417l-40.411 55.333c-6.534-.615-11.979.663-15.756 2.21v-38.416c0-63.245 47.845-114.699 106.653-114.699 32.031 0 62.13 15.431 82.579 42.338 2.004 2.636 5.768 3.151 8.406 1.146 2.637-2.005 3.151-5.768 1.146-8.406-9.083-11.951-19.901-21.858-31.896-29.457 1.008-.671 1.824-1.65 2.284-2.869 1.169-3.099-.395-6.56-3.494-7.729l-14.264-5.386 14.532-6.298c3.039-1.317 4.436-4.849 3.118-7.888-1.317-3.04-4.847-4.436-7.888-3.118l-16.372 7.095c3.953-6.385 6.239-13.893 6.239-21.923 0-23.141-18.95-41.968-42.241-41.968-8.982 0-17.56 2.765-24.806 7.995-2.686 1.939-3.292 5.689-1.353 8.375 1.941 2.687 5.691 3.292 8.375 1.353 5.189-3.746 11.339-5.726 17.784-5.726 16.677 0 30.244 13.445 30.244 29.971 0 16.527-13.568 29.972-30.244 29.972-16.677 0-30.244-13.445-30.244-29.972 0-3.313-2.686-5.998-5.998-5.998s-5.999 2.686-5.999 5.998c0 7.133 1.805 13.853 4.978 19.74l-15.452-6.695c-3.043-1.317-6.573.08-7.889 3.118-1.317 3.04.08 6.571 3.119 7.888l14.532 6.297-14.265 5.384c-3.1 1.17-4.664 4.631-3.494 7.729.383 1.016 1.022 1.854 1.804 2.498-36.846 21.524-61.891 63.312-61.891 111.232v46.962c-4.971 5.638-7.994 13.013-7.994 21.081 0 17.664 14.459 32.034 32.231 32.034 2.286 0 4.545-.239 6.755-.708 7.82 19.52 22.07 35.829 40.14 46.339-.011.158-.598 18.198 1.573 26.758 3.309 13.052 12.122 24.798 23.988 31.255 24.985 13.597 55.624 1.01 66.176-24.801 4.277-10.462 3.734-33.123 3.683-33.447 16.107-9.471 28.126-20.968 39.913-46.162 23.149 4.747 39.216-13.636 39.216-31.269 0-8.343-3.231-15.951-8.512-21.658zm-233.166 21.661c0-5.414 3.465-19.158 20.235-20.036.04-.002-1.2 27.442 2.997 39.841-13.808 1.718-23.232-8.756-23.232-19.805zm166.386 60.229c-14.142 11.387-32.145 18.369-51.739 18.227-48.806-.16-70.07-39.277-72.396-43.485l25.691 14.17c4.235 8.34 10.092 10.78 15.032 10.78h67.724c6.52 0 12.513-3.683 15.251-11.026-.974.711 21.712-14.741 21.712-14.741-5.373 9.956-12.561 18.871-21.275 26.075zm-48.497-66.942 47.696 13.008c3.081 1.094 3.242 3.924 2.648 5.374l-13.832 33.772c-.619 1.509-2.072 2.485-3.701 2.485h-67.724c-1.629 0-3.082-.975-3.7-2.484l-13.835-33.772c-.594-1.451-.36-4.663 2.649-5.373l47.696-13.009-.001.001c.688-.189 1.417-.188 2.104-.002zm77.037 21.436-20.75 14.089 5.158-12.594c1.737-4.239 2.012-9.88-2.132-15.81l19.741-13.522c0-.002.623 15.857-2.017 27.837zm-126.09-87.952c9.399 12.356 21.068 20.103 34.781 23.067 22.998 4.973 45.231-5.024 55.136-10.486 4.118 5.753 11.779 13.971 22.287 14.647 5.487.352 10.813-1.397 15.903-5.216v23.562l-31.398 21.507-44.499-12.137c-2.753-.751-5.664-.751-8.417 0 0 0 0 0-.001 0l-47.695 13.009c-.102.028-.198.069-.299.099l-30.326-20.772zm-36.484 60.48 22.628 15.5c-.059.113-3.718 6.193-.64 13.466l7.049 17.209-26.864-18.036c-3.122-13.368-2.173-28.139-2.173-28.139zm117.57 111.96c-2.21 10.787-8.716 20.335-18.361 25.784-20.115 11.364-44.775-.945-50.93-22.435-1.754-6.123-1.701-12.622-1.593-19.022 1.148.492 15.807 7.138 34.281 7.233 18.949-.027 36.753-7.189 37.389-7.452.124 5.323.262 10.78-.786 15.892zm56.152-79.455c3.988-14.527 2.865-39.768 2.865-39.768.17-.004 19.432-.11 20.742 20.012.719 11.025-10.785 22.002-23.607 19.756z"/></g></g></svg>