<svg id="_x3C_Layer_x3E_" height="512" viewBox="0 0 32 32" width="512" xmlns="http://www.w3.org/2000/svg"><g id="Baby_x2C__kid_x2C__vaccination_x2C__vaccine_x2C__child"><g><g><g><path d="m20.97 23.68c-.239-.518-.625-1.058-1.073-1.574-1.244-1.944-3.417-3.237-5.896-3.237h-5.133c-4.003 0-7.127 2.746-7.35 7.175-.063 1.225.467 3.659 3.309 4.286.104.022.211.04.317.058.632.38 1.365.612 2.156.612h8.568c1.41 0 2.688-.57 3.614-1.491.073-.032.147-.063.218-.099 2.13-1.08 2.22-3.68 1.27-5.73z" fill="#ffe0b2"/></g><g><path d="m6.743 20.263c-.211-.29-.379-.61-.521-.948-2.661.942-4.533 3.341-4.703 6.729-.049.963.288 2.666 1.811 3.657-.762-.955-.949-2.123-.912-2.857.162-3.226 1.867-5.551 4.325-6.581z" fill="#fff"/></g><g id="baby_x2C__care_x2C__mother_x2C__love_x2C__hug_x2C__Mother_x27_s_Day"><g id="XMLID_313_"><g id="XMLID_693_"><g id="XMLID_694_"><path d="m5.993 19.96c2.991 2.149 6.557 1.757 9.894.071 1.417-.716 1.989-2.41 2.434-4.476.876-4.069.102-9.581-3.762-11.891-3.949-2.359-9.07-1.012-11.405 2.953-1.488 2.529-1.368 5.774-.095 8.318-1.825.173-.965 2.662 1.21 2.643.195 1.013.662 1.619 1.724 2.382z" fill="#fff"/></g></g><g id="XMLID_692_"><path d="m6.6 19.94c2.46 2.086 5.819 2.164 8.994.56 1.411-.713 2.813-2.594 2.526-4.919 1.38-3.269 1.786-7.269-2.337-10.809-3.946-2.351-9.061-1.002-11.393 2.958-1.35 2.295-.984 5.118.585 7.795.254.435.328.955.194 1.441-.247.893.254 1.976 1.431 2.974z" fill="#ffe0b2"/></g><g id="XMLID_685_"><g id="XMLID_686_"><g id="XMLID_689_"><g id="XMLID_691_"><ellipse cx="15.267" cy="17.384" fill="#ffada9" rx=".865" ry="1.243" transform="matrix(.391 .921 -.921 .391 25.302 -3.462)"/></g><g id="XMLID_690_"><ellipse cx="8.804" cy="17.752" fill="#ffada9" rx=".864" ry="1.244" transform="matrix(.249 -.969 .969 .249 -10.582 21.855)"/></g></g><g id="XMLID_687_"><g id="XMLID_688_"><ellipse cx="3.786" cy="16.166" fill="#ffe0b2" rx=".509" ry=".709" transform="matrix(-.278 .961 -.961 -.278 20.367 17.024)"/></g></g></g></g></g></g><g><g><path d="m29.5 10.74v14.76h-6v-14.76c0-.46.3-.86.75-.97.52-.13 1.31-.27 2.25-.27s1.73.14 2.25.271c.45.109.75.509.75.969z" fill="#cfd8dc"/></g><g><path d="m23.5 15h6v10.5h-6z" fill="#eceff1"/></g><g><path d="m27.5 7.5v2h-2v-2c0-.55.45-1 1-1s1 .45 1 1z" fill="#80d8ff"/></g><g><path d="m25 25.5h3v5h-3z" fill="#fff"/></g></g><path d="m23.46 19.72c-.53.71-.39 1.71.32 2.24l.08.061c.399.3.64.779.64 1.279v6.2c0 .55-.45 1-1 1h-3c-.55 0-1-.45-1-1v-6.2c0-.5.24-.979.64-1.279l.08-.061c.42-.31.641-.79.641-1.28 0-.33-.101-.67-.32-.96-.21-.279-.32-.62-.32-.96 0-.21.04-.41.11-.6.439-1.09.669-2.27.669-3.45v-.21c0-.55.45-1 1-1s1 .45 1 1v.21c0 1.18.23 2.36.67 3.45.07.189.11.39.11.6 0 .34-.11.68-.32.96z" fill="#9fe6ff"/><g><path d="m19.5 24.5h5v4h-5z" fill="#fff"/></g></g></g><g><g><path d="m18.857 21.279c-.113 0-.228-.038-.321-.117-.575-.482-1.217-.82-1.906-1.005-.267-.072-.425-.346-.354-.613.073-.266.344-.416.613-.354.831.224 1.602.629 2.289 1.206.212.177.239.492.062.704-.098.119-.24.179-.383.179z" fill="#455a64"/></g><g><path d="m16.482 30.643c-.776 0-1.494-.124-2.038-.38-.612-.288-1.016-.735-1.167-1.292-.156-.579-.077-1.116.229-1.555.553-.792 1.795-1.247 3.907-1.434.264-.02.518.179.542.454s-.179.518-.454.542c-2.175.191-2.928.655-3.176 1.011-.086.123-.188.332-.084.721.073.268.284.486.628.647 1.031.484 2.976.351 4.425-.308.252-.112.548-.004.662.248s.003.548-.248.662c-.989.451-2.162.684-3.226.684z" fill="#455a64"/></g><g><path d="m6.468 30.916c-.639 0-1.244-.056-1.755-.168-2.74-.603-3.713-2.808-3.713-4.511 0-2.247.915-4.316 2.576-5.826.204-.185.52-.171.706.034.186.204.171.521-.034.706-1.449 1.319-2.248 3.124-2.248 5.086 0 1.333.767 3.058 2.928 3.534 1.63.356 4.645.012 5.707-.89.321-.273.311-.478.307-.544-.02-.344-.143-.594-.388-.785-.75-.586-2.505-.618-5.219-.092-.267.05-.521-.116-.581-.377-.058-.245-.529-2.417.586-3.348.211-.177.526-.149.704.063.177.212.148.527-.063.704-.416.348-.408 1.261-.333 1.882 2.801-.492 4.561-.37 5.521.378.477.372.735.884.771 1.52.02.35-.079.869-.657 1.36-.99.841-3.034 1.274-4.815 1.274z" fill="#455a64"/></g><g><g id="XMLID_299_"><path d="m11.23 22.001c-3.358 0-5.785-1.367-7.411-4.178-1.431-.176-2.312-1.258-2.319-2.236-.005-.605.313-1.069.846-1.293-1.047-2.791-.782-5.891.731-8.22 1.641-2.524 4.415-4.031 7.422-4.031 1.709 0 3.368.498 4.797 1.441 4.021 2.651 5.078 8.631 3.336 11.979.291 1.001.091 2.227-.555 3.33-.95 1.625-2.66 2.732-4.689 3.036-.753.114-1.479.172-2.158.172zm-.731-18.958c-2.667 0-5.128 1.337-6.584 3.576-1.411 2.172-1.578 5.244-.426 7.829.066.15.056.324-.031.465-.086.141-.235.229-.4.237-.562.028-.559.33-.558.429.004.494.591 1.23 1.643 1.267.177.007.336.105.421.26.915 1.672 2.601 3.896 6.667 3.896.629 0 1.305-.054 2.009-.159 1.729-.26 3.178-1.19 3.975-2.553.544-.93.696-1.938.407-2.696-.053-.14-.04-.296.034-.427 1.671-2.917.657-8.495-2.91-10.848-1.266-.835-2.734-1.276-4.247-1.276z" fill="#455a64"/></g><g id="XMLID_317_"><path d="m8.876 16.108c-.246 0-.486-.035-.714-.107-.264-.082-.41-.363-.327-.626.082-.264.363-.415.626-.327.287.088.605.082.944-.024.265-.081.544.064.627.328.082.264-.064.544-.328.627-.277.086-.557.129-.828.129z" fill="#455a64"/></g><g id="XMLID_300_"><path d="m14.507 15.934c-.085 0-.175-.005-.272-.016-.274-.03-.473-.277-.442-.552.03-.275.282-.473.552-.442.273.032.446-.019.66-.08 0 0 .506-.015.59.344.109.469-.313.618-.313.618-.204.057-.446.128-.775.128z" fill="#455a64"/></g><g id="XMLID_318_"><path d="m10.533 8.321c-.063 0-.127-.002-.191-.006-1.301-.085-2.292-1.213-2.208-2.516.073-1.098 1.025-1.941 2.12-1.859.276.018.484.256.467.531-.019.276-.282.495-.531.467-.564-.044-1.022.38-1.058.926-.049.752.523 1.404 1.275 1.453.497.035.961-.128 1.329-.45.368-.323.588-.771.62-1.259.088-1.33-.923-2.483-2.254-2.571-.275-.018-.484-.257-.465-.532.018-.274.229-.497.532-.466.91.061 1.743.472 2.346 1.158.602.687.9 1.565.84 2.477-.05.755-.39 1.445-.959 1.944-.521.457-1.176.703-1.863.703z" fill="#455a64"/></g><g><path d="m12.18 19.536c-.493 0-.962-.246-1.242-.658-.154-.229-.096-.54.133-.695.227-.152.539-.096.695.133.101.148.271.229.45.219.181-.013.335-.118.413-.28.121-.248.42-.352.669-.231.248.121.352.42.231.669-.233.479-.708.801-1.239.841-.037 0-.073.002-.11.002z" fill="#455a64"/></g></g><g><g><path d="m29.5 26c-.276 0-.5-.224-.5-.5v-14.76c0-.236-.147-.431-.368-.483-.467-.118-1.211-.257-2.132-.257s-1.665.139-2.128.255c-.225.055-.372.249-.372.485v1.76c0 .276-.224.5-.5.5s-.5-.224-.5-.5v-1.76c0-.695.466-1.294 1.132-1.456.514-.129 1.345-.284 2.368-.284s1.854.155 2.372.286c.662.16 1.128.759 1.128 1.454v14.76c0 .276-.224.5-.5.5z" fill="#455a64"/></g><g><path d="m29.5 31h-3c-.276 0-.5-.224-.5-.5s.224-.5.5-.5h3c.276 0 .5.224.5.5s-.224.5-.5.5z" fill="#455a64"/></g><g><path d="m30.5 26h-4c-.276 0-.5-.224-.5-.5s.224-.5.5-.5h4c.276 0 .5.224.5.5s-.224.5-.5.5z" fill="#455a64"/></g><g><path d="m27.5 10c-.276 0-.5-.224-.5-.5v-2c0-.275-.225-.5-.5-.5s-.5.225-.5.5v2c0 .276-.224.5-.5.5s-.5-.224-.5-.5v-2c0-.827.673-1.5 1.5-1.5s1.5.673 1.5 1.5v2c0 .276-.224.5-.5.5z" fill="#455a64"/></g><g><path d="m28 31h-1.5c-.276 0-.5-.224-.5-.5s.224-.5.5-.5h1v-4.5c0-.276.224-.5.5-.5s.5.224.5.5v5c0 .276-.224.5-.5.5z" fill="#455a64"/></g><g id="XMLID_319_"><path d="m29.5 23h-1.5c-.276 0-.5-.224-.5-.5s.224-.5.5-.5h1.5c.276 0 .5.224.5.5s-.224.5-.5.5z" fill="#455a64"/></g><g id="XMLID_315_"><path d="m29.5 21h-1.5c-.276 0-.5-.224-.5-.5s.224-.5.5-.5h1.5c.276 0 .5.224.5.5s-.224.5-.5.5z" fill="#455a64"/></g><g id="XMLID_305_"><path d="m29.5 19h-1.5c-.276 0-.5-.224-.5-.5s.224-.5.5-.5h1.5c.276 0 .5.224.5.5s-.224.5-.5.5z" fill="#455a64"/></g><g id="XMLID_304_"><path d="m29.5 17h-1.5c-.276 0-.5-.224-.5-.5s.224-.5.5-.5h1.5c.276 0 .5.224.5.5s-.224.5-.5.5z" fill="#455a64"/></g><g id="XMLID_303_"><path d="m29.5 15h-1.5c-.276 0-.5-.224-.5-.5s.224-.5.5-.5h1.5c.276 0 .5.224.5.5s-.224.5-.5.5z" fill="#455a64"/></g><g id="XMLID_302_"><path d="m29.5 13h-1.5c-.276 0-.5-.224-.5-.5s.224-.5.5-.5h1.5c.276 0 .5.224.5.5s-.224.5-.5.5z" fill="#455a64"/></g><g id="XMLID_301_"><path d="m26.5 6.959c-.276 0-.5-.224-.5-.5v-4.959c0-.276.224-.5.5-.5s.5.224.5.5v4.959c0 .276-.224.5-.5.5z" fill="#455a64"/></g></g><g><path d="m23.5 31h-3c-.827 0-1.5-.673-1.5-1.5v-6.2c0-.657.313-1.284.84-1.679l.078-.06c.283-.209.442-.529.442-.882 0-.168-.038-.419-.219-.658-.272-.362-.422-.81-.422-1.262 0-.26.048-.521.142-.773.42-1.041.639-2.17.639-3.276v-.21c0-.827.673-1.5 1.5-1.5s1.5.673 1.5 1.5v.21c0 1.106.219 2.235.634 3.264.099.266.146.526.146.786 0 .452-.149.899-.421 1.261-.176.235-.251.526-.209.816.041.29.193.547.429.723l.083.063c.525.393.838 1.02.838 1.677v6.2c0 .827-.673 1.5-1.5 1.5zm-1.5-17c-.275 0-.5.225-.5.5v.21c0 1.233-.244 2.491-.706 3.637-.048.129-.074.272-.074.413 0 .236.078.471.22.659.275.363.421.8.421 1.261 0 .664-.315 1.293-.844 1.683l-.075.057c-.278.207-.442.536-.442.88v6.2c0 .275.225.5.5.5h3c.275 0 .5-.225.5-.5v-6.2c0-.344-.164-.673-.439-.88l-.082-.062c-.924-.689-1.113-2.009-.419-2.938.143-.19.221-.425.221-.661 0-.141-.026-.284-.079-.426-.457-1.133-.701-2.391-.701-3.624v-.209c-.001-.275-.226-.5-.501-.5z" fill="#455a64"/></g><g><path d="m24.5 29h-3c-.276 0-.5-.224-.5-.5s.224-.5.5-.5h2.5v-3h-2.5c-.276 0-.5-.224-.5-.5s.224-.5.5-.5h3c.276 0 .5.224.5.5v4c0 .276-.224.5-.5.5z" fill="#455a64"/></g></g></g></svg>