<svg id="Layer_1" enable-background="new 0 0 512 512" height="512" viewBox="0 0 512 512" width="512" xmlns="http://www.w3.org/2000/svg"><g><g><g><g><g><g><path d="m223.837 432h224c17.673 0 32-14.327 32-32v-288c0-17.673-14.327-32-32-32h-224c-17.673 0-32 14.327-32 32v288c0 17.673 14.327 32 32 32z" fill="#faa019"/></g></g></g></g><g><g><g><g><path d="m223.837 432h208c17.673 0 32-14.327 32-32v-288c0-17.673-14.327-32-32-32h-208c-17.673 0-32 14.327-32 32v288c0 17.673 14.327 32 32 32z" fill="#ffd205"/></g></g></g></g><g><g><g><g><path d="m231.837 408h192c8.837 0 16-7.163 16-16v-269.333c0-8.837-7.163-16-16-16h-192c-8.837 0-16 7.163-16 16v269.333c0 8.837 7.163 16 16 16z" fill="#d7e6f0"/></g></g></g></g><g><g><g><g><g><path d="m383.837 64h-24c0-17.673-14.327-32-32-32-17.673 0-32 14.327-32 32h-24c-8.836 0-16 7.164-16 16v32c0 8.836 7.164 16 16 16h112c8.836 0 16-7.164 16-16v-32c0-8.836-7.164-16-16-16zm-56 16c-8.837 0-16-7.163-16-16s7.163-16 16-16 16 7.164 16 16-7.163 16-16 16z" fill="#23aae6"/></g></g></g></g></g></g><g><g><g><g><g><path d="m144.163 368h-64c-8.837 0-16-7.163-16-16v-240h96v240c0 8.837-7.163 16-16 16z" fill="#5ad7ff"/></g></g></g></g><g><g><g><g><path d="m64.163 112v16h32c8.837 0 16 7.163 16 16v208c0 8.837-7.163 16-16 16h48c8.837 0 16-7.163 16-16v-240z" fill="#23aae6"/></g></g></g></g><g><g><g><g><g><path d="m64.163 304v48c0 8.837 7.163 16 16 16h64c8.837 0 16-7.163 16-16v-48z" fill="#ffd205"/></g></g></g></g><g><g><g><g><path d="m112.163 304v48c0 8.837-7.163 16-16 16h48c8.837 0 16-7.163 16-16v-48z" fill="#faa019"/></g></g></g></g></g><g><g><g><g><path d="m176.163 80h-128c-8.837 0-16 7.163-16 16 0 8.837 7.163 16 16 16h128c8.837 0 16-7.163 16-16 0-8.837-7.163-16-16-16z" fill="#5ad7ff"/></g></g></g></g><g><g><g><g><path d="m160.163 32h-96c-8.837 0-16 7.163-16 16 0 8.837 7.163 16 16 16h96c8.837 0 16-7.163 16-16 0-8.837-7.163-16-16-16z" fill="#5ad7ff"/></g></g></g></g><g><g><g><g><path d="m80.163 64h64v16h-64z" fill="#23aae6"/></g></g></g></g><g><g><g><g><path d="m128.163 400h-32c-8.837 0-16-7.163-16-16v-16h64v16c0 8.837-7.163 16-16 16z" fill="#faa019"/></g></g></g></g><g><g><g><g><path d="m112.163 480c-6.955-10.433-10.667-22.691-10.667-35.23v-44.77h21.333v44.77c.001 12.539-3.711 24.797-10.666 35.23z" fill="#d7e6f0"/></g></g></g></g><g><g><g><g><path d="m101.496 400v13.333c5.891 0 10.667 4.776 10.667 10.667v56c6.955-10.433 10.667-22.691 10.667-35.229v-44.771z" fill="#a5c3dc"/></g></g></g></g><g><g><g><g><path d="m88.163 352c-4.418 0-8-3.582-8-8v-192c0-4.418 3.582-8 8-8s8 3.582 8 8v192c0 4.418-3.581 8-8 8z" fill="#a5ffff"/></g></g></g></g><g><g><g><g><path d="m88.163 352c-4.418 0-8-3.582-8-8v-40h16v40c0 4.418-3.582 8-8 8z" fill="#ffff50"/></g></g></g></g></g><g><g><g><g><g><g><circle cx="263.837" cy="224" fill="#a5c3dc" r="32"/></g></g></g></g><g><g><g><g><path d="m263.837 240c-4.095 0-8.189-1.562-11.313-4.686l-16-16c-6.249-6.249-6.249-16.379 0-22.627 6.248-6.249 16.379-6.249 22.627 0l4.687 4.686 36.687-36.686c6.248-6.249 16.379-6.249 22.627 0 6.249 6.249 6.249 16.379 0 22.627l-48 48c-3.126 3.124-7.22 4.686-11.315 4.686z" fill="#23aae6"/></g></g></g></g></g><g><g><g><g><path d="m343.837 240h64c8.837 0 16-7.163 16-16 0-8.837-7.163-16-16-16h-64c-8.837 0-16 7.163-16 16 0 8.837 7.163 16 16 16z" fill="#a5c3dc"/></g></g></g></g><g><g><g><g><g><circle cx="263.837" cy="320" fill="#a5c3dc" r="32"/></g></g></g></g><g><g><g><g><path d="m263.837 336c-4.095 0-8.189-1.562-11.313-4.686l-16-16c-6.249-6.249-6.249-16.379 0-22.627 6.248-6.249 16.379-6.249 22.627 0l4.687 4.686 36.687-36.686c6.248-6.249 16.379-6.249 22.627 0 6.249 6.249 6.249 16.379 0 22.627l-48 48c-3.126 3.124-7.22 4.686-11.315 4.686z" fill="#23aae6"/></g></g></g></g></g><g><g><g><g><path d="m343.837 336h64c8.837 0 16-7.163 16-16 0-8.837-7.163-16-16-16h-64c-8.837 0-16 7.163-16 16 0 8.837 7.163 16 16 16z" fill="#a5c3dc"/></g></g></g></g></g></g></svg>