<svg id="Capa_1" enable-background="new 0 0 512 512" height="512" viewBox="0 0 512 512" width="512" xmlns="http://www.w3.org/2000/svg"><g><g><path d="m374.493 145.181c-1.964 0-3.928-.749-5.427-2.247-2.997-2.998-2.997-7.856 0-10.854l129.832-129.833c2.998-2.996 7.856-2.996 10.854 0 2.997 2.998 2.997 7.856 0 10.854l-129.832 129.833c-1.499 1.497-3.463 2.247-5.427 2.247z" fill="#b4d0d5"/></g><g><path d="m344.076 113.836-10.233 10.233 54.087 54.088 10.233-10.233c8.073-8.073 8.073-21.163 0-29.236l-24.851-24.851c-8.073-8.075-21.162-8.075-29.236-.001z" fill="#86a0af"/><path d="m398.164 138.687-13.438-13.438c8.073 8.073 8.073 21.163 0 29.236l-10.233 10.233 13.438 13.438 10.233-10.233c8.073-8.073 8.073-21.163 0-29.236z" fill="#738b95"/><path d="m232.32 396.772-117.093-117.093c-3.996-3.996-10.475-3.996-14.471 0l-10.38 10.38c-3.996 3.996-3.996 10.475 0 14.471l117.093 117.093c3.996 3.996 10.475 3.996 14.471 0l10.38-10.38c3.996-3.996 3.996-10.474 0-14.471z" fill="#f1f4f6"/><path d="m192.777 406.932 24.851-24.851 14.692 14.692c3.996 3.996 3.996 10.475 0 14.471l-10.38 10.38c-3.996 3.996-10.475 3.996-14.471 0z" fill="#d0e2e7"/><path d="m390.124 180.349-58.473-58.473c-8.073-8.073-21.163-8.073-29.236 0l-172.496 172.495 87.709 87.71 172.495-172.495c8.074-8.074 8.074-21.164.001-29.237z" fill="#f1f4f6"/><path d="m129.919 294.371 14.618-14.618 65.782 65.782c4.037 4.037 10.582 4.037 14.618 0l165.186-165.186c8.073 8.073 8.073 21.163 0 29.236l-172.495 172.496z" fill="#d0e2e7"/><path d="m229.323 241.745-45.39 45.39c-3.996 3.996-3.996 10.475 0 14.471l26.46 26.46c3.996 3.996 10.475 3.996 14.471 0l45.39-45.39z" fill="#b4d0d5"/><path d="m37.754 376.822h130.242v64.604h-130.242z" fill="#b4d0d5" transform="matrix(.707 -.707 .707 .707 -259.163 192.574)"/><path d="m309.797 161.272-80.474 80.474 40.931 40.931 80.474-80.474c3.996-3.996 3.996-10.475 0-14.471l-26.46-26.46c-3.996-3.997-10.475-3.997-14.471 0z" fill="#f6e781"/><path d="m343.345 180.348-87.709 87.709 14.619 14.619 80.474-80.474c3.996-3.996 3.996-10.475 0-14.471z" fill="#f1cb86"/><path d="m85.807 484.152-57.959-57.959c-3.996-3.996-10.475-3.996-14.471 0l-10.38 10.38c-3.996 3.996-3.996 10.475 0 14.471l57.959 57.959c3.996 3.996 10.475 3.996 14.471 0l10.38-10.38c3.996-3.996 3.996-10.475 0-14.471z" fill="#f1f4f6"/><path d="m52.671 500.717 24.851-24.851 8.285 8.285c3.996 3.996 3.996 10.475 0 14.471l-10.38 10.38c-3.996 3.996-10.475 3.996-14.471 0z" fill="#d0e2e7"/></g><g><g><path d="m458.261 305.011c-29-29-75.83-29.263-105.177-.829-29.348-28.434-76.178-28.171-105.177.829-29.285 29.285-29.285 76.765 0 106.05l97.942 97.942c3.996 3.996 10.475 3.996 14.471 0l97.941-97.942c29.285-29.285 29.285-76.766 0-106.05z" fill="#dd636e"/><path d="m458.261 305.011c-13.967-13.967-32.07-21.268-50.364-21.908 2.054 9.092 3.174 18.558 3.174 28.27 0 70.536-57.18 127.715-127.715 127.715-2.578 0-5.126-.093-7.666-.244l70.158 70.158c3.996 3.996 10.475 3.996 14.471 0l97.941-97.942c29.286-29.284 29.286-76.765.001-106.049z" fill="#da4a54"/></g><g><path d="m400.695 374.664h-24.933c-3.391 0-6.14-2.749-6.14-6.14v-24.933c0-3.391-2.749-6.14-6.14-6.14h-20.798c-3.391 0-6.14 2.749-6.14 6.14v24.933c0 3.391-2.749 6.14-6.14 6.14h-24.933c-3.391 0-6.14 2.749-6.14 6.14v20.798c0 3.391 2.749 6.14 6.14 6.14h24.933c3.391 0 6.14 2.749 6.14 6.14v24.933c0 3.391 2.749 6.14 6.14 6.14h20.798c3.391 0 6.14-2.749 6.14-6.14v-24.933c0-3.391 2.749-6.14 6.14-6.14h24.933c3.391 0 6.14-2.749 6.14-6.14v-20.798c-.001-3.391-2.75-6.14-6.14-6.14z" fill="#f1f4f6"/></g></g><path d="m51.401 449.745 10.854 10.854 92.094-92.095h.001l-10.854-10.854z" fill="#86a0af"/></g></svg>