<svg height="512" viewBox="0 0 64 64" width="512" xmlns="http://www.w3.org/2000/svg"><g id="Flat_ok"><circle cx="35" cy="32" fill="#61e09a" r="25"/><path d="m29.5 42.328-6.914-6.914 2.828-2.828 4.086 4.086 15.086-15.086 2.828 2.828z" fill="#fff"/><path d="m12 12a1 1 0 0 1 -1-1v-9a1 1 0 0 1 2 0v9a1 1 0 0 1 -1 1z" fill="#e6e7e8"/><path d="m11 11h2a2 2 0 0 1 2 2v6a0 0 0 0 1 0 0h-6a0 0 0 0 1 0 0v-6a2 2 0 0 1 2-2z" fill="#89b4d3"/><path d="m9 49h6v13h-6z" fill="#e6e7e8"/><path d="m7 17h10v34h-10z" fill="#f1f2f2"/><path d="m19 63h-14a1 1 0 0 1 0-2h14a1 1 0 0 1 0 2z" fill="#e6e7e8"/><path d="m7 30h10v21h-10z" fill="#d0e1ed"/><g fill="#f1f2f2"><path d="m15 42h-3a1 1 0 0 1 0-2h3a1 1 0 0 1 0 2z"/><path d="m15 46h-4a1 1 0 0 1 0-2h4a1 1 0 0 1 0 2z"/><path d="m15 38h-4a1 1 0 0 1 0-2h4a1 1 0 0 1 0 2z"/><path d="m20 52h-16a1 1 0 0 1 0-2h16a1 1 0 0 1 0 2z"/></g></g></svg>