<svg id="Layer_1" enable-background="new 0 0 468 468" height="512" viewBox="0 0 468 468" width="512" xmlns="http://www.w3.org/2000/svg"><g><g><g><g><path d="m456.475 247.424c-4.333-8.608-4.341-18.794-.034-27.416 15.98-31.991 15.654-72.457-4.287-107.242-21.874-38.156-61.426-59.142-100.407-57.43-9.922.436-19.497-4.081-25.505-11.99-19.844-26.122-53.825-43.346-92.419-43.346-38.682 0-72.73 17.303-92.553 43.526-6.003 7.941-15.591 12.48-25.538 12.077-38.869-1.573-78.253 19.404-100.062 57.447-20 34.888-20.27 75.491-4.145 107.527 4.333 8.608 4.341 18.794.034 27.416-15.98 31.991-15.654 72.457 4.287 107.242 21.874 38.156 61.426 59.142 100.407 57.43 9.922-.436 19.497 4.081 25.505 11.99 19.843 26.121 53.825 43.345 92.419 43.345 38.682 0 72.73-17.303 92.553-43.526 6.003-7.941 15.591-12.48 25.538-12.077 38.87 1.573 78.253-19.404 100.062-57.447 20-34.888 20.27-75.491 4.145-107.526z" fill="#f0ebf8"/></g></g><g opacity=".5"><circle cx="422.445" cy="300.047" fill="#fff" r="7"/></g><g opacity=".5"><circle cx="141.743" cy="231.297" fill="#fff" r="7"/></g><g opacity=".6"><g><path d="m135.933 84.226 5.81 1.231-6.719 1.906c-3.539 1.004-6.241 3.869-7.035 7.461l-1.246 5.633-1.246-5.633c-.794-3.592-3.496-6.457-7.035-7.461l-6.719-1.906 5.81-1.231c3.762-.797 6.733-3.681 7.643-7.417l1.547-6.352 1.547 6.352c.91 3.737 3.881 6.62 7.643 7.417z" fill="#ad9cdb"/></g></g><g opacity=".6"><g><path d="m293.693 361.029 5.81 1.231-6.719 1.906c-3.539 1.004-6.241 3.869-7.035 7.461l-1.246 5.633-1.246-5.633c-.794-3.592-3.496-6.457-7.035-7.461l-6.719-1.906 5.81-1.231c3.762-.797 6.733-3.681 7.643-7.417l1.547-6.352 1.547 6.352c.91 3.736 3.882 6.619 7.643 7.417z" fill="#ff8a80"/></g></g></g><g><g><g><g><path d="m413.527 54.288c47.526 47.348 63.606 108.094 35.916 135.681s-88.665 11.566-136.191-35.782-63.606-108.095-35.916-135.681 88.665-11.566 136.191 35.782z" fill="#f9ed99"/></g><g><path d="m413.527 54.288c-43.551-43.389-98.391-60.463-128.568-41.788 31.257-7.009 76.502 10.861 113.568 47.788 47.526 47.348 63.606 108.094 35.916 135.681-2.316 2.307-4.869 4.302-7.623 6.006 8.821-1.978 16.529-5.935 22.623-12.006 27.69-27.587 11.61-88.333-35.916-135.681z" fill="#ffc480"/></g></g><g><g><path d="m205.924 54.288c-47.526 47.348-63.606 108.094-35.916 135.681s88.665 11.566 136.191-35.782 63.606-108.094 35.916-135.681-88.665-11.566-136.191 35.782z" fill="#f9ed99"/></g><g><path d="m186.008 192.968c-27.69-27.586-11.61-88.333 35.916-135.681 33.172-33.047 72.893-50.826 103.278-49.175-31.26-10.788-79.887 6.933-119.278 46.176-47.526 47.348-63.606 108.094-35.916 135.681 8.363 8.332 19.765 12.679 32.913 13.394-6.457-2.229-12.173-5.673-16.913-10.395z" fill="#ffc480"/></g></g><g><g><path d="m412.713 120.735c.086-1.704.135-3.418.147-5.142.415-60.437-45.74-110.24-102.522-110.591-57.242-.353-103.748 48.929-103.748 109.774 0 23.368-1.138 45.426-9.497 67.42-3.175 8.356-4.924 17.488-4.924 27.055 0 114.331 235.116 114.331 235.116 0 0-9.329-1.663-18.243-4.689-26.428-7.305-19.75-10.951-40.894-9.883-62.088z" fill="#f9ed99"/></g><g><path d="m210.168 209.251c0-9.568 1.749-18.7 4.924-27.056 8.359-21.994 9.497-44.052 9.497-67.42 0-57.397 41.388-104.497 94.131-109.355-2.765-.257-5.56-.402-8.382-.419-57.242-.353-103.749 48.93-103.749 109.774 0 23.368-1.138 45.426-9.497 67.42-3.175 8.356-4.924 17.488-4.924 27.055 0 60.086 64.937 88.59 126.558 85.521-55.631-2.77-108.558-31.274-108.558-85.52z" fill="#ffc480"/></g><g><path d="m393.341 72.374.149-.066c5.323-2.371 7.507-8.821 4.635-13.892-7.627-13.469-17.893-25.082-30.025-34.007-4.711-3.465-11.407-1.993-14.355 3.058l-.082.14c-2.576 4.413-1.338 10.005 2.766 13.048 9.727 7.213 18.034 16.642 24.213 27.483 2.543 4.462 8.008 6.325 12.699 4.236z" fill="#fff"/></g></g><g><ellipse cx="255.985" cy="140.444" fill="#333" rx="13.519" ry="15.467"/></g><g><ellipse cx="363.466" cy="140.444" fill="#333" rx="13.519" ry="15.467"/></g><path d="m342.194 226.297c-2.762 0-5 2.239-5 5v4.434c0 6.205-5.04 11.252-11.234 11.252s-11.234-5.047-11.234-11.252v-9.809c.58-.496 1.108-1.082 1.545-1.78l12.35-19.721c3.226-5.15-.473-11.841-6.545-11.841h-24.7c-6.072 0-9.771 6.691-6.545 11.841l12.35 19.721c.437.698.965 1.283 1.545 1.78v9.809c0 6.205-5.04 11.252-11.234 11.252s-11.233-5.047-11.233-11.252v-4.434c0-2.761-2.238-5-5-5s-5 2.239-5 5v4.434c0 11.718 9.525 21.252 21.233 21.252 6.509 0 12.336-2.952 16.234-7.582 3.898 4.63 9.726 7.582 16.234 7.582 11.709 0 21.234-9.534 21.234-21.252v-4.434c0-2.761-2.238-5-5-5z" fill="#333"/></g><g><g><g><path d="m154.334 334.133v-19.04h54.023v19.04c0 5.991 2.686 11.667 7.319 15.466l6.005 4.924c4.633 3.799 7.319 9.475 7.319 15.466v75.011c0 9.941-8.059 18-18 18h-59.31c-9.941 0-18-8.059-18-18v-75.011c0-5.991 2.686-11.667 7.319-15.466l6.005-4.924c4.634-3.798 7.32-9.474 7.32-15.466z" fill="#d7fb7d"/></g><g><path d="m149.69 374.989c0-5.992 2.686-11.667 7.319-15.466l6.005-4.924c4.633-3.799 7.319-9.475 7.319-15.466v-24.04h-16v19.04c0 5.991-2.686 11.667-7.319 15.466l-6.005 4.924c-4.633 3.799-7.319 9.474-7.319 15.466v75.011c0 9.941 8.059 18 18 18h59.31c9.941 0 18-8.059 18-18v-11h-20.299c-32.591 0-59.011-26.42-59.011-59.011z" fill="#76e0b6"/></g></g><g><path d="m147.345 285h68v30.094h-68z" fill="#fc7855"/></g><g><path d="m160.345 285h-13v30.094h68v-13h-37.906c-9.441 0-17.094-7.653-17.094-17.094z" fill="#ff3f61"/></g><g><g><path d="m133.69 374.405h95.31v60h-95.31z" fill="#ededed" transform="matrix(-1 0 0 -1 362.69 808.809)"/></g><g><path d="m149.69 374.405h-16v60h95.31v-16h-35.31c-24.3 0-44-19.7-44-44z" fill="#cecece"/></g></g></g><g><g><path d="m335.96 438.121h-7.03c-2.762 0-5-2.239-5-5s2.238-5 5-5h7.03c2.762 0 5 2.239 5 5s-2.238 5-5 5z" fill="#333"/></g><g><path d="m302.99 438.121h-7.03c-2.762 0-5-2.239-5-5s2.238-5 5-5h7.03c2.762 0 5 2.239 5 5s-2.238 5-5 5z" fill="#333"/></g><g><path d="m315.96 458.121c-2.762 0-5-2.239-5-5v-7.031c0-2.761 2.238-5 5-5s5 2.239 5 5v7.031c0 2.761-2.238 5-5 5z" fill="#333"/></g><g><path d="m315.96 425.151c-2.762 0-5-2.239-5-5v-7.031c0-2.761 2.238-5 5-5s5 2.239 5 5v7.031c0 2.762-2.238 5-5 5z" fill="#333"/></g></g><g><g><path d="m425.96 368.121h-7.03c-2.762 0-5-2.239-5-5s2.238-5 5-5h7.03c2.762 0 5 2.239 5 5s-2.238 5-5 5z" fill="#333"/></g><g><path d="m392.99 368.121h-7.03c-2.762 0-5-2.239-5-5s2.238-5 5-5h7.03c2.762 0 5 2.239 5 5s-2.238 5-5 5z" fill="#333"/></g><g><path d="m405.96 388.121c-2.762 0-5-2.239-5-5v-7.031c0-2.761 2.238-5 5-5s5 2.239 5 5v7.031c0 2.761-2.238 5-5 5z" fill="#333"/></g><g><path d="m405.96 355.151c-2.762 0-5-2.239-5-5v-7.031c0-2.761 2.238-5 5-5s5 2.239 5 5v7.031c0 2.762-2.238 5-5 5z" fill="#333"/></g></g></g><path d="m468 153.257c0-32.409-19.044-70.73-50.943-102.511-28.62-28.513-66.001-50.746-107.33-50.746-41.308 0-78.725 22.246-107.332 50.746-31.898 31.78-50.943 70.102-50.943 102.511 0 23.604 12.447 45.34 35.795 52.471-2.764 65.442 66.955 94.272 122.479 94.272 55.522 0 125.236-28.822 122.481-94.257 23.358-7.126 35.793-28.949 35.793-52.486zm-279.671 42.273c-18.347-6.46-26.878-23.719-26.878-42.274 0-29.364 18.394-65.929 48.002-95.427 4.794-4.776 9.764-9.238 14.846-13.396-14.577 19.996-22.71 44.813-22.71 70.342 0 25.628-1.534 45.549-9.171 65.645-1.861 4.897-3.215 9.95-4.089 15.11zm121.397 94.47c-54.211 0-112.558-25.269-112.558-80.749 0-8.745 1.547-17.25 4.598-25.279 9.064-23.852 9.823-48.224 9.823-69.197 0-54.142 42.043-104.775 98.14-104.775 58.758 0 99.977 54.654 97.99 110.483-1.074 21.334 2.354 42.892 10.187 64.074 2.905 7.857 4.378 16.165 4.378 24.694-.001 55.48-58.347 80.749-112.558 80.749zm121.4-94.475c-.834-4.924-2.109-9.75-3.842-14.436-7.361-19.906-10.584-40.128-9.577-60.103 1.371-27.265-6.586-54.832-22.867-76.813 5.192 4.23 10.265 8.782 15.158 13.657 29.609 29.498 48.002 66.064 48.002 95.427 0 18.552-8.528 35.81-26.874 42.268z" fill="#333"/><path d="m224.851 350.657c-5.495-3.818-11.494-9.302-11.494-16.523v-14.04h1.988c2.762 0 5-2.239 5-5v-30.094c0-2.761-2.238-5-5-5h-68c-2.762 0-5 2.239-5 5v30.094c0 2.761 2.238 5 5 5h1.989v14.04c0 7.221-5.98 12.674-11.495 16.523-5.814 4.767-9.148 11.813-9.148 19.333v75.01c0 12.682 10.317 23 23 23h59.309c12.683 0 23-10.318 23-23v-75.011c0-7.519-3.335-14.566-9.149-19.332zm-86.161 28.748h85.31v50h-85.31zm13.655-89.405h58v20.094h-58zm-8.166 68.39c8.041-6.008 15.155-13.417 15.155-24.256v-14.04h44.022v14.04c0 10.648 7.087 18.36 15.154 24.256 3.336 2.735 5.291 6.726 5.457 11.015h-85.245c.167-4.29 2.121-8.28 5.457-11.015zm66.821 99.61h-59.31c-7.168 0-13-5.832-13-13v-5.595h85.31v5.595c0 7.168-5.832 13-13 13z" fill="#333"/><g><g><g><path d="m79.801 410.818v-32.753h-42.86v32.753l-17.099 21.544c-4.161 5.243-.427 12.973 6.266 12.973h64.64c6.706 0 10.436-7.755 6.25-12.994z" fill="#ededed"/></g><g><path d="m96.941 432.341-2.402-3.006h-21.63c-11.039 0-19.991-8.944-20-19.984l-.026-31.287h-16v32.753l-17.099 21.544c-4.161 5.243-.427 12.973 6.266 12.973h64.64c6.707.001 10.438-7.754 6.251-12.993z" fill="#cecece"/></g></g><g><g><path d="m72.604 74.906h-28.465v-22.01c0-7.86 6.372-14.232 14.232-14.232 7.86 0 14.232 6.372 14.232 14.232v22.01z" fill="#8fafc0"/></g><g><path d="m65.371 40.512c-2.068-1.172-4.453-1.849-7-1.849-7.86 0-14.232 6.372-14.232 14.232v22.011h14v-22.01c0-5.314 2.917-9.939 7.232-12.384z" fill="#7195ae"/></g></g><g><g><path d="m88.022 102.364h-59.301v-10.808c0-16.398 13.275-29.692 29.651-29.692 16.376 0 29.651 13.293 29.651 29.692v10.808z" fill="#cddbe5"/></g><g><path d="m67.371 63.261c-2.839-.905-5.862-1.397-9-1.397-16.376 0-29.651 13.293-29.651 29.692v10.808h18v-10.808c.001-13.256 8.677-24.479 20.651-28.295z" fill="#acd2de"/></g></g><g><g><g><path d="m99.883 378.064h-83.023v-257.7c0-9.941 8.059-18 18-18h47.022c9.941 0 18 8.059 18 18v257.7z" fill="#89dcbd"/></g><g><path d="m99.883 360.064c-36.463 0-66.022-29.559-66.022-66.022v-173.678c0-9.941 8.059-18 18-18h-17c-9.941 0-18 8.059-18 18v257.7h83.022z" fill="#5ec2cd"/></g><g><path d="m81.882 337.064v32c0 4.971 4.029 9 9 9 4.971 0 9-4.029 9-9v-32c0-4.971-4.029-9-9-9-4.97 0-9 4.03-9 9z" fill="#fff"/></g></g></g></g><path d="m111.743 373.064h-6.86v-252.7c0-8.643-4.794-16.184-11.86-20.113v-8.695c0-12.01-6.13-22.612-15.419-28.841v-9.819c0-8.873-6.048-16.341-14.232-18.55v-29.346c0-2.761-2.238-5-5-5s-5 2.239-5 5v29.346c-8.184 2.209-14.232 9.677-14.232 18.55v9.819c-9.289 6.229-15.418 16.831-15.418 28.841v8.695c-7.066 3.929-11.86 11.471-11.86 20.113v252.7h-6.862c-2.762 0-5 2.239-5 5s2.238 5 5 5h26.941v26.01l-16.015 20.179c-6.646 8.372-.505 21.082 10.183 21.082h64.641c10.708 0 16.84-12.749 10.156-21.115l-16.104-20.155v-26h26.941c2.762 0 5-2.239 5-5s-2.238-5.001-5-5.001zm-62.604-320.168c0-5.091 4.142-9.232 9.232-9.232s9.232 4.142 9.232 9.232v5.228c-6.155-1.68-12.31-1.68-18.465 0v-5.228zm-15.418 38.66c0-13.615 11.059-24.692 24.65-24.692 13.593 0 24.651 11.077 24.651 24.692v5.808h-49.301zm59.373 343.906c1.261 2.607.479 4.231-2.344 4.873h-64.641c-2.818-.639-3.602-2.26-2.351-4.865l17.099-21.544c.702-.884 1.084-1.979 1.084-3.108v-27.753h32.86v27.753c0 1.134.386 2.235 1.094 3.121zm1.789-62.398h-73.023v-28.598h36.511c2.762 0 5-2.239 5-5s-2.238-5-5-5h-36.511v-23.084h24.65c2.762 0 5-2.239 5-5s-2.238-5-5-5h-24.65v-23.084h24.65c2.762 0 5-2.239 5-5s-2.238-5-5-5h-24.65v-23.084h36.511c2.762 0 5-2.239 5-5s-2.238-5-5-5h-36.511v-23.084h24.65c2.762 0 5-2.239 5-5s-2.238-5-5-5h-24.65v-23.084h24.65c2.762 0 5-2.239 5-5s-2.238-5-5-5h-24.65v-23.084h36.511c2.762 0 5-2.239 5-5s-2.238-5-5-5h-36.511v-15.598c0-7.168 5.832-13 13-13h47.022c7.168 0 13 5.832 13 13v252.7z" fill="#333"/></g></svg>