<svg id="Capa_1" enable-background="new 0 0 512 512" height="512" viewBox="0 0 512 512" width="512" xmlns="http://www.w3.org/2000/svg"><g><g clip-rule="evenodd" fill-rule="evenodd"><path d="m259.742 109.448h205.287v62.022h-205.287z" fill="#9dc6fb"/><path d="m259.742 164.837h205.287c21.714 0 39.487 17.773 39.487 39.487v252.116c0 21.714-17.773 39.488-39.487 39.488h-205.287c-21.714 0-39.488-17.774-39.488-39.488v-252.116c0-21.714 17.774-39.487 39.488-39.487z" fill="#cbe2ff"/><path d="m480.252 167.898c14.201 5.98 24.265 20.098 24.265 36.425v252.117c0 21.714-17.773 39.488-39.487 39.488h-205.288c-16.328 0-30.445-10.036-36.426-24.265h208.377c26.702 0 48.559-21.827 48.559-48.53z" fill="#bed8fb"/><path d="m246.561 35.831h231.622c14.484 0 26.334 11.849 26.334 26.306v27.638c0 14.485-11.85 26.335-26.334 26.335h-231.622c-14.458 0-26.306-11.849-26.306-26.335v-27.639c-.001-14.457 11.848-26.305 26.306-26.305z" fill="#faf8f9"/><path d="m480.252 35.916c13.52 1.049 24.265 12.444 24.265 26.221v27.638c0 14.485-11.85 26.335-26.334 26.335h-231.622c-13.777 0-25.172-10.744-26.221-24.265h230.77c16.016 0 29.142-13.125 29.142-29.141z" fill="#ede9fb"/><path d="m71.463 84.332h18.963c4.281 0 7.767 3.486 7.767 7.767v41.131c0 4.28-3.486 7.767-7.767 7.767h-18.963c-4.252 0-7.768-3.486-7.768-7.767v-41.131c0-4.281 3.516-7.767 7.768-7.767z" fill="#cbe2ff"/><path d="m50.486 119.199h60.946c9.496 0 17.235 7.767 17.235 17.234v225.64h-95.444v-225.64c0-9.468 7.767-17.234 17.263-17.234z" fill="#faf8f9"/><path d="m63.695 374.461h34.498v104.23h-34.498z" fill="#cbe2ff"/><path d="m42.01 495.928h77.897c9.496 0 17.263-7.768 17.263-17.236 0-9.496-7.767-17.263-17.263-17.263h-77.897c-9.496 0-17.263 7.767-17.263 17.263 0 9.468 7.767 17.236 17.263 17.236z" fill="#0c5e7f"/><path d="m24.747 391.724h112.423c9.468 0 17.235-7.767 17.235-17.263 0-9.468-7.767-17.235-17.235-17.235h-112.423c-9.468 0-17.235 7.767-17.235 17.235 0 9.496 7.767 17.263 17.235 17.263z" fill="#0c5e7f"/><path d="m63.695 391.724h34.498v24.265h-34.498z" fill="#bed8fb"/><path d="m104.401 119.199h7.03c9.496 0 17.235 7.767 17.235 17.234v220.793h-95.443v-24.265h42.067c16.016 0 29.112-13.097 29.112-29.113v-184.649z" fill="#ede9fb"/><path d="m220.254 233.208h284.262v194.346h-284.262z" fill="#ffd064"/><path d="m362.386 273.348c10.743 0 19.502 8.789 19.502 19.532v17.972h18.001c10.743 0 19.53 8.788 19.53 19.531s-8.787 19.531-19.53 19.531h-18.001v17.972c0 10.743-8.759 19.53-19.502 19.53-10.744 0-19.531-8.787-19.531-19.53v-17.972h-17.972c-10.743 0-19.53-8.788-19.53-19.531s8.787-19.531 19.53-19.531h17.972v-17.972c-.001-10.744 8.787-19.532 19.531-19.532z" fill="#95d6a4"/><path d="m259.742 116.109h205.287v24.265h-205.287z" fill="#80b4fb"/><path d="m504.517 427.555v-194.347h-24.265v189.924c0 1.474-.085 2.948-.198 4.422h24.463z" fill="#ffc250"/></g><path d="m362.386 265.864c7.426 0 14.201 3.033 19.076 7.938 4.905 4.875 7.938 11.651 7.938 19.078v10.488h10.488c7.427 0 14.201 3.033 19.077 7.936 4.903 4.876 7.937 11.651 7.937 19.078s-3.033 14.202-7.937 19.105c-4.876 4.876-11.65 7.909-19.077 7.909h-10.488v10.489c0 7.455-3.033 14.201-7.938 19.105-4.875 4.875-11.65 7.908-19.076 7.908-7.455 0-14.202-3.033-19.105-7.908-4.876-4.904-7.909-11.65-7.909-19.105v-10.489h-10.488c-7.455 0-14.201-3.033-19.105-7.938-4.876-4.875-7.938-11.622-7.938-19.077 0-7.427 3.062-14.202 7.938-19.078 4.904-4.903 11.65-7.936 19.105-7.936h10.488v-10.488c0-7.427 3.033-14.202 7.909-19.078 4.903-4.904 11.65-7.937 19.105-7.937zm-78.209-25.143c-4.139 0-7.483-3.345-7.483-7.512 0-4.139 3.345-7.483 7.483-7.483h212.828v-21.401c0-8.787-3.601-16.782-9.383-22.592-5.812-5.783-13.805-9.383-22.593-9.383h-205.287c-8.306-.17-16.753 3.543-22.593 9.383-5.811 5.811-9.412 13.805-9.412 22.592v21.401h22.479c4.139 0 7.484 3.345 7.484 7.483 0 4.168-3.346 7.512-7.484 7.512h-22.479v179.322h269.267v-179.322zm212.828 194.317h-269.267v21.402c0 8.788 3.601 16.781 9.412 22.593 5.812 5.811 13.805 9.41 22.593 9.41h205.287c8.788 0 16.781-3.6 22.593-9.41 5.782-5.812 9.383-13.805 9.383-22.593v-21.402zm-388.436-275.558c-4.167 0-7.512-3.373-7.512-7.512s3.345-7.512 7.512-7.512h12.614v-8.022c0-2.665-1.106-5.103-2.863-6.859-1.786-1.786-4.224-2.892-6.888-2.892-20.325 0-40.621 0-60.946 0-2.665 0-5.103 1.105-6.888 2.892-1.757 1.757-2.863 4.194-2.863 6.859v93.402c0 4.139-3.345 7.512-7.512 7.512-4.138 0-7.483-3.374-7.483-7.512v-93.402c0-6.803 2.778-12.982 7.257-17.462 4.479-4.507 10.686-7.284 17.49-7.284h5.726v-27.356c0-4.139 3.345-7.483 7.483-7.483h9.751v-60.777c0-4.139 3.373-7.512 7.512-7.512 4.138 0 7.512 3.373 7.512 7.512v60.776h9.723c4.167 0 7.512 3.345 7.512 7.483v27.355h5.727c6.803 0 13.011 2.777 17.49 7.284 4.479 4.479 7.257 10.659 7.257 17.462v213.281c7.2 0 13.294 2.126 18.454 7.285 4.507 4.479 7.285 10.659 7.285 17.462 0 6.831-2.778 13.011-7.256 17.489-4.507 4.479-10.688 7.285-17.49 7.285h-31.465v54.71h14.202c6.832 0 13.011 2.778 17.49 7.257s7.257 10.658 7.257 17.489c0 6.804-2.778 12.984-7.257 17.491-4.479 4.479-10.658 7.257-17.49 7.257h-77.9c-6.832 0-13.011-2.778-17.49-7.257-4.479-4.507-7.257-10.687-7.257-17.491 0-6.831 2.778-13.011 7.257-17.489 4.479-4.479 10.658-7.257 17.49-7.257h14.202v-54.71h-31.465c-6.804 0-13.011-2.806-17.49-7.285-4.479-4.477-7.257-10.656-7.257-17.488 0-6.804 2.778-12.983 7.257-17.462 5.159-5.188 11.282-7.285 18.483-7.285v-85.891c0-4.139 3.345-7.512 7.483-7.512 4.167 0 7.512 3.373 7.512 7.512v85.891h80.448v-17.772h-28.149c-4.139 0-7.512-3.346-7.512-7.483 0-4.139 3.373-7.513 7.512-7.513h28.149v-19.502h-12.614c-4.167 0-7.512-3.345-7.512-7.483 0-4.139 3.345-7.512 7.512-7.512h12.614v-19.504h-28.149c-4.139 0-7.512-3.345-7.512-7.483 0-4.139 3.373-7.512 7.512-7.512h28.149v-19.502h-12.614c-4.167 0-7.512-3.345-7.512-7.483 0-4.139 3.345-7.512 7.512-7.512h12.614v-19.475h-28.149c-4.139 0-7.512-3.374-7.512-7.512 0-4.139 3.373-7.512 7.512-7.512h28.149v-19.474zm-17.859-67.636h-19.503v19.843h19.503zm-19.503 307.392v54.71h19.503v-54.71zm-46.46-15.024h112.423c2.665 0 5.102-1.077 6.859-2.863 1.786-1.757 2.892-4.195 2.892-6.888 0-2.665-1.105-5.103-2.892-6.86-1.757-1.785-4.195-2.862-6.859-2.862-37.475 0-74.949 0-112.423 0-2.665 0-5.103 1.077-6.86 2.862-1.786 1.758-2.891 4.195-2.891 6.86 0 2.692 1.106 5.131 2.863 6.888 1.786 1.786 4.224 2.863 6.888 2.863zm17.263 104.231h77.897c2.665 0 5.103-1.105 6.888-2.891 1.757-1.758 2.863-4.195 2.863-6.86 0-2.692-1.106-5.103-2.863-6.888-1.786-1.758-4.224-2.863-6.888-2.863-25.966 0-51.931 0-77.897 0-2.693 0-5.131 1.105-6.888 2.863-1.757 1.785-2.863 4.195-2.863 6.888 0 2.665 1.105 5.103 2.863 6.86 1.757 1.785 4.195 2.891 6.888 2.891zm416.754-445.129c-4.138 0-7.482-3.345-7.482-7.483 0-4.139 3.345-7.512 7.482-7.512h19.419c9.326 0 17.773 3.798 23.896 9.921 6.122 6.151 9.921 14.598 9.921 23.896v27.638c0 9.326-3.799 17.774-9.922 23.896-6.122 6.123-14.569 9.922-23.896 9.922h-5.641v34.356c9.921 1.588 18.85 6.35 25.682 13.182 8.504 8.504 13.776 20.268 13.776 33.194v252.116c0 12.954-5.272 24.69-13.776 33.195-8.532 8.504-20.268 13.805-33.194 13.805h-205.287c-12.927 0-24.69-5.301-33.195-13.805-8.504-8.504-13.805-20.241-13.805-33.195 0-84.02 0-168.068 0-252.116 0-12.926 5.301-24.69 13.805-33.194 6.832-6.832 15.733-11.594 25.683-13.182v-34.356h-5.67c-9.298 0-17.746-3.799-23.868-9.922-6.151-6.122-9.95-14.57-9.95-23.896v-27.638c0-9.298 3.799-17.745 9.95-23.896 6.122-6.123 14.57-9.921 23.868-9.921h178.244c4.139 0 7.484 3.373 7.484 7.512s-3.346 7.483-7.484 7.483h-178.243c-5.159 0-9.864 2.126-13.266 5.556-3.431 3.402-5.557 8.108-5.557 13.267v27.638c0 5.159 2.126 9.864 5.557 13.294 3.402 3.402 8.107 5.529 13.266 5.529h231.622c5.188 0 9.864-2.126 13.294-5.529 3.402-3.43 5.528-8.135 5.528-13.294v-27.639c0-5.159-2.126-9.864-5.528-13.267-3.43-3.43-8.107-5.556-13.294-5.556h-19.419zm-1.247 114.011v-33.733h-190.291v33.733zm-86.657 127.079c-2.182-2.183-5.187-3.544-8.475-3.544-3.317 0-6.322 1.361-8.477 3.544-2.182 2.183-3.543 5.188-3.543 8.476v17.972c0 4.167-3.373 7.512-7.512 7.512h-17.972c-3.316 0-6.321 1.361-8.504 3.544s-3.515 5.188-3.515 8.475c0 3.288 1.332 6.293 3.515 8.476s5.188 3.544 8.504 3.544h17.972c4.139 0 7.512 3.373 7.512 7.512v17.972c0 3.316 1.361 6.293 3.543 8.475 2.154 2.183 5.159 3.543 8.477 3.543 3.288 0 6.293-1.36 8.475-3.543 2.184-2.183 3.544-5.159 3.544-8.475v-17.972c0-4.139 3.345-7.512 7.483-7.512h18.001c3.288 0 6.293-1.361 8.476-3.544s3.543-5.188 3.543-8.476-1.36-6.293-3.543-8.475c-2.183-2.183-5.188-3.544-8.476-3.544h-18.001c-4.139 0-7.483-3.345-7.483-7.512v-17.972c0-3.289-1.36-6.294-3.544-8.476z"/></g></svg>