<svg id="icons" height="512" viewBox="0 0 340 340" width="512" xmlns="http://www.w3.org/2000/svg"><path d="m202.7 141.019h105.888a14.153 14.153 0 0 1 14.153 14.153v158.19a0 0 0 0 1 0 0h-134.195a0 0 0 0 1 0 0v-158.191a14.153 14.153 0 0 1 14.154-14.152z" fill="#ffbe71"/><path d="m193.712 110.917h125.965a10.06 10.06 0 0 1 10.06 10.06v16.05a3.992 3.992 0 0 1 -3.992 3.992h-138.1a3.992 3.992 0 0 1 -3.992-3.992v-16.05a10.06 10.06 0 0 1 10.059-10.06z" fill="#ffbe71"/><path d="m183.652 120.976v16.051a3.993 3.993 0 0 0 3.992 3.992h32.029v-18.276c0-10.276 8.723-11.826 8.723-11.826h-34.684a10.06 10.06 0 0 0 -10.06 10.059z" fill="#ef8e4d"/><path d="m299.944 204.893h-16.938v-16.938h-22.723v16.938h-16.937v22.723h16.937v16.937h22.723v-16.937h16.938z" fill="#fff"/><path d="m322.74 313.361v-38.211h-78.9c-20.867 0-23.834-13.012-24.171-18.387v-75.7a25.1 25.1 0 0 1 25.1-25.1h77.971v-.791a14.152 14.152 0 0 0 -14.152-14.152h-105.888a14.153 14.153 0 0 0 -14.153 14.152v158.19h134.193z" fill="#ef8e4d"/><path d="m284.559 29.383 5.158-20 4.817 20.048a15.166 15.166 0 0 0 10.088 10.891l12.6 4.067-12.361 3.672a15.166 15.166 0 0 0 -10.461 11.109l-4.688 20.22-4.5-19.973a15.169 15.169 0 0 0 -10.367-11.174l-12.641-3.859 12.717-4.484a15.165 15.165 0 0 0 9.638-10.517z" fill="#ffbe71"/><path d="m41.375 95.692 5.754-22.317 5.371 22.365a16.915 16.915 0 0 0 11.254 12.149l14.055 4.537-13.79 4.1a16.917 16.917 0 0 0 -11.663 12.4l-5.23 22.557-5.014-22.283a16.915 16.915 0 0 0 -11.565-12.465l-14.1-4.306 14.177-5a16.917 16.917 0 0 0 10.751-11.737z" fill="#ffbe71"/><path d="m209.792 291.935s13.51 8.215 26.5 6.02c0 0 10.11 9.827 10.5 10.3s-4.984 7.671-6.747 8.195-24.573 4.582-24.573 4.582l-9.528-3.05-1.554-5.519z" fill="#a7bad6"/><path d="m44.234 186.734c-19.555 0-35.407 31.277-35.407 69.859s15.852 69.859 35.407 69.859c.088 0 .175-.012.262-.013v.013h129.255l1.986-139.718h-37.472c-25.43 1.8-49.182 2.239-69.619 0z" fill="#bddeff"/><ellipse cx="175.737" cy="256.593" fill="#7aaeed" rx="35.407" ry="69.859"/><path d="m141.349 273.3c11.529.5 21.649-1.543 29.694-7.34l38.428 11.914.774 33.87 21.635 2.421 15.15-9.468 41.663 11.962 22.99-11.866 9.63 21-21.854.1c-9.789-.853-18.853-1.074-26.293.117l-37.1.167a176.406 176.406 0 0 0 -27.6.123l-12.749.057a93.235 93.235 0 0 0 -21.963.1s-25.445-.836-32.405-53.157z" fill="#a7bad6"/><rect fill="#a7bad6" height="16.825" rx="4.896" transform="matrix(.806 .591 -.591 .806 213.257 -61.078)" width="36.086" x="181.854" y="286.697"/><path d="m146.087 186.734c-19.555 0-35.407 31.277-35.407 69.859v.073a7.081 7.081 0 0 1 -7.061 7.122h-63.319a7.045 7.045 0 0 1 -7.063-7v-.195c0-38.582 15.853-69.859 35.408-69.859z" fill="#fff"/><path d="m76.892 200.408h19.126a77.862 77.862 0 0 0 -5.678 10.243l12.543.247s-4.645 10.131-5.719 18.44l-14.159-.268c-1.253 4.7-2.875 15.066-2.875 15.066l-19.693-.111a98.627 98.627 0 0 1 2.756-14.186l-10.584-.315a75.038 75.038 0 0 1 7.222-18.184l11.2-.445c2.733-5.005 5.861-10.487 5.861-10.487z" fill="#f74f73"/><rect fill="#a7bad6" height="16.825" rx="4.896" transform="matrix(.996 .085 -.085 .996 24.338 -16.641)" width="36.086" x="188.799" y="267.975"/><rect fill="#a7bad6" height="16.825" rx="4.896" transform="matrix(-.632 .775 -.775 -.632 674.899 277.174)" width="36.086" x="253.602" y="290.405"/><g fill="#f7f7f7"><path d="m169.144 256.916 21 7.1a6.324 6.324 0 0 1 4.038 7.79l-3.68 12.4-17.852 2.274-15.109-15.68 3.633-10.042a6.323 6.323 0 0 1 7.97-3.842z"/><rect height="16.825" rx="4.896" width="46.06" x="193.986" y="309.566"/><path d="m195.173 310.128h-25.373a4.724 4.724 0 0 0 -4.724 4.724l.722 4.6a8.251 8.251 0 0 0 7.646 6.99c.2.011.3.011.3.011l21.422-.09a4.724 4.724 0 0 0 4.724-4.724v-6.786a4.724 4.724 0 0 0 -4.717-4.725z"/><rect height="16.825" rx="4.896" width="36.086" x="268.269" y="309.147"/><rect height="16.825" rx="4.896" transform="matrix(.751 .66 -.66 .751 283.292 -129.175)" width="36.086" x="294.838" y="302.533"/><rect height="16.952" rx="4.924" transform="matrix(.707 .707 -.707 .707 292.989 -87.081)" width="36.227" x="233.497" y="301.652"/><rect height="16.825" rx="4.896" transform="matrix(.632 -.775 .775 .632 -161.016 245.54)" width="36.086" x="160.006" y="283.909"/><path d="m168.068 275.293-24.182-10.325a5.129 5.129 0 0 0 -3.315-.167 107.537 107.537 0 0 0 2.369 18.168l18.522 7.8a4.9 4.9 0 0 0 6.425-2.58l2.762-6.468a4.9 4.9 0 0 0 -2.581-6.428z"/></g><path d="m333.2 141.007v-20.042a13.544 13.544 0 0 0 -13.528-13.528h-125.964a13.543 13.543 0 0 0 -13.527 13.528v20.042a3.468 3.468 0 0 0 3.468 3.468h5.067a17.509 17.509 0 0 0 -3.642 10.684v18.118a3.468 3.468 0 0 0 6.936 0v-18.118a10.7 10.7 0 0 1 10.69-10.684h105.884a10.7 10.7 0 0 1 10.684 10.684v131.177a3.468 3.468 0 1 0 6.936 0v-131.177a17.508 17.508 0 0 0 -3.641-10.684h7.17a3.468 3.468 0 0 0 3.467-3.468zm-6.936-3.468h-139.147v-16.574a6.6 6.6 0 0 1 6.591-6.592h125.965a6.6 6.6 0 0 1 6.592 6.592z" fill="#3c3c4f"/><path d="m331.808 310.7-19.744-17.365a8.364 8.364 0 0 0 -11.8.757l-4.645 5.281a8.311 8.311 0 0 0 -2.066 6.059c.016.243.046.482.081.719h-20.379a8.336 8.336 0 0 0 -5.933 2.476l-4.922-4.927 13.722-16.824a1.427 1.427 0 0 1 2.01-.2l5.45 4.444a1.43 1.43 0 0 1 .2 2.01l-3.151 3.863a3.468 3.468 0 1 0 5.375 4.384l3.151-3.863a8.375 8.375 0 0 0 -1.195-11.769l-5.45-4.444a8.365 8.365 0 0 0 -11.769 1.195l-13.276 16.278-6.85-6.849a8.374 8.374 0 0 0 -11.828 0l-4.974 4.973a8.374 8.374 0 0 0 -1.745 9.256h-12.608a8.347 8.347 0 0 0 -1.984-11.5l-6.485-4.607 7.93.679q.366.031.728.031a8.366 8.366 0 0 0 8.32-7.651l.6-7.007a8.366 8.366 0 0 0 -7.62-9.048l-23.1-1.978a8.293 8.293 0 0 0 -4.695-3.943l-24.945-8.312a8.373 8.373 0 0 0 -10.58 5.29l-2.223 6.673a14.794 14.794 0 0 0 -.6 2.458l-9.56-4.082a8.217 8.217 0 0 0 -1.3-.415c-.095-2.029-.149-4.079-.149-6.15 0-35.987 14.627-66.391 31.94-66.391s31.94 30.4 31.94 66.391a3.468 3.468 0 1 0 6.936 0c0-41.118-17.077-73.327-38.876-73.327h-131.508c-21.8 0-38.876 32.209-38.876 73.327s17.076 73.327 38.876 73.327h.136.125 152.239a8.373 8.373 0 0 0 8.363-8.364v-7.033a1.43 1.43 0 0 1 1.429-1.428h26.294a1.43 1.43 0 0 1 1.428 1.428v7.033a1.429 1.429 0 0 1 -1.428 1.428h-21.117a3.468 3.468 0 0 0 0 6.936h21.118a8.373 8.373 0 0 0 8.364-8.364v-5.458l11.227 11.227a8.376 8.376 0 0 0 11.829 0l1.71-1.711a8.367 8.367 0 0 0 7.308 4.306h26.294a8.373 8.373 0 0 0 8.364-8.364v-.221l8.2 7.216a8.3 8.3 0 0 0 5.512 2.083c.182 0 .364 0 .548-.018a8.3 8.3 0 0 0 5.744-2.823l4.646-5.28a8.374 8.374 0 0 0 -.756-11.812zm-117.823-9.5a1.419 1.419 0 0 1 -.26 1.061l-2.849 3.885h-4.353a8.285 8.285 0 0 0 -1.594.157l-9.182-6.736a3.468 3.468 0 0 0 -4.1 5.593l1.344.986h-10.9l13.472-16.518a8.36 8.36 0 0 0 .921-1.394l16.935 12.032a1.415 1.415 0 0 1 .566.934zm-65.6-10.876 11.71 5c.048.02.1.034.146.053a8.369 8.369 0 0 0 1.483 11.378l2.57 2.1a8.324 8.324 0 0 0 -2.223 5.659v1.841c-5.653-5.742-10.432-14.875-13.685-26.03zm34.138-11.324a1.418 1.418 0 0 1 .962-.518c.041 0 .09-.007.144-.007a1.41 1.41 0 0 1 .9.321l5.451 4.445a1.429 1.429 0 0 1 .2 2.009l-16.619 20.377a1.427 1.427 0 0 1 -2.009.2l-5.45-4.445a1.43 1.43 0 0 1 -.2-2.009zm-20.537-12.033 2.223-6.672a1.432 1.432 0 0 1 1.807-.9l24.946 8.312a1.429 1.429 0 0 1 .9 1.806 3.459 3.459 0 0 0 6.417 2.555l22.077 1.891a1.429 1.429 0 0 1 1.3 1.545l-.6 7.007a1.429 1.429 0 0 1 -1.545 1.3l-19.326-1.655c-.1-.009-.194 0-.292 0l-4.193-2.98c-.03-.021-.064-.033-.094-.053a8.4 8.4 0 0 0 -1.243-1.259l-5.451-4.445a8.373 8.373 0 0 0 -11.768 1.195l-3.115 3.82a8.333 8.333 0 0 0 -4.607-4.959l-6.919-2.955c-.717-.462-1.341-1.082-.517-3.558zm-2.475 9.818.019.008 7.173 3.062a1.43 1.43 0 0 1 .752 1.874l-2.762 6.469a1.428 1.428 0 0 1 -1.874.752l-16.519-7.057c-.758-3.691-1.354-7.542-1.776-11.511zm-90.869-86.595h60.666c-13.175 12.059-22.1 37.514-22.1 66.466a3.66 3.66 0 0 1 -1.057 2.593 3.542 3.542 0 0 1 -2.535 1.059h-63.316a3.574 3.574 0 0 1 -3.595-3.532v-.195c-.005-35.987 14.624-66.391 31.937-66.391zm-24.484 132.782c-17.281-.085-31.867-30.454-31.867-66.391 0-35.988 14.627-66.391 31.94-66.391h7.638c-13.178 11.612-22.1 36.67-22.1 66.391v.2a10.52 10.52 0 0 0 10.531 10.463h63.319a10.424 10.424 0 0 0 7.468-3.12 10.6 10.6 0 0 0 3.06-7.543c0-33.274 12.584-62.3 28.706-66.391h16.11c-13.178 11.612-22.1 36.67-22.1 66.391s8.925 54.779 22.1 66.391c-.003 0-114.705-.007-114.805 0zm152.573 0h-20.931a21.357 21.357 0 0 1 -4.994-.833 17.684 17.684 0 0 1 -1.8-.733v-6.9a1.43 1.43 0 0 1 1.429-1.428h26.294a1.429 1.429 0 0 1 1.427 1.428v7.033a1.429 1.429 0 0 1 -1.425 1.433zm67.574-5.537-4.973 4.973a1.43 1.43 0 0 1 -2.019 0l-18.593-18.593a1.429 1.429 0 0 1 0-2.019l4.973-4.973a1.428 1.428 0 0 1 2.019 0l18.593 18.593a1.429 1.429 0 0 1 0 2.019zm36.672 4.109a1.429 1.429 0 0 1 -1.428 1.428h-26.294a1.429 1.429 0 0 1 -1.428-1.428v-7.033a1.429 1.429 0 0 1 1.428-1.428h26.294a1.43 1.43 0 0 1 1.428 1.428zm26.38-3.624-4.645 5.281a1.427 1.427 0 0 1 -2.015.129l-13.257-11.659c-.015-.013-.032-.021-.047-.034a8.385 8.385 0 0 0 -6.1-5.3 3.4 3.4 0 0 0 -.343-.369 1.429 1.429 0 0 1 -.13-2.015l4.645-5.281a1.427 1.427 0 0 1 2.016-.13l19.747 17.358a1.427 1.427 0 0 1 .129 2.015z" fill="#3c3c4f"/><path d="m181.893 202.587a3.468 3.468 0 0 0 -4.77 5.036c.147.14 14.644 14.385 15.694 45.3a3.468 3.468 0 0 0 3.465 3.35h.12a3.469 3.469 0 0 0 3.348-3.584c-1.15-33.965-17.175-49.459-17.857-50.102z" fill="#3c3c4f"/></svg>