<?xml version="1.0" encoding="iso-8859-1"?>
<!-- Generator: Adobe Illustrator 19.0.0, SVG Export Plug-In . SVG Version: 6.00 Build 0)  -->
<svg version="1.1" id="Capa_1" xmlns="http://www.w3.org/2000/svg" xmlns:xlink="http://www.w3.org/1999/xlink" x="0px" y="0px"
	 viewBox="0 0 512 512" style="enable-background:new 0 0 512 512;" xml:space="preserve">
<path style="fill:#FFEBDC;" d="M512,191.287v256.735c0,18.863-15.309,34.172-34.182,34.172H262.373
	c-6.624,0-12.816-1.885-18.049-5.161c-9.684-6.027-16.133-16.772-16.133-29.01V191.287c0-11.765,6.14-22.561,15.999-28.938
	c16.493-10.683,25.271-25.157,29.886-38.663c0.062-0.175,0.113-0.34,0.175-0.515c4.389-13.135,4.852-25.302,4.667-32.018h182.365
	c-0.196,6.81,0.278,19.203,4.832,32.534c4.605,13.506,13.393,27.98,29.886,38.663C505.87,168.726,512,179.522,512,191.287z"/>
<g>
	<path style="fill:#FFDBB1;" d="M309.134,157.147v285.92c0,18.729-15.237,33.965-33.966,33.965h-30.844
		c-9.684-6.027-16.133-16.772-16.133-29.01V191.287c0-11.765,6.14-22.561,15.999-28.938c16.493-10.683,25.271-25.157,29.886-38.663
		c0.062-0.175,0.113-0.34,0.175-0.515h0.917C293.897,123.171,309.134,138.407,309.134,157.147z"/>
	<path style="fill:#FFDBB1;" d="M366.668,442.129c0,14.616-4.001,28.318-10.975,40.064h-93.315
		c-18.875,0-34.181-15.306-34.181-34.17V390.74c5.503-6.408,12.055-11.973,19.482-16.396c2.417-1.43,4.762-2.664,7.138-3.754
		c1.337-0.617,2.582-1.152,3.806-1.635c8.332-3.343,17.147-5.215,26.209-5.565l0.319-0.01c0.905-0.021,1.81-0.041,2.726-0.041
		c27.361,0,52.336,13.855,66.829,37.05C362.533,412.875,366.668,427.316,366.668,442.129z"/>
	<path style="fill:#FFDBB1;" d="M274.077,123.683c4.556-13.331,5.028-25.718,4.839-32.542h182.359
		c-0.189,6.823,0.283,19.21,4.839,32.542H274.077z"/>
	<path style="fill:#FFDBB1;" d="M511.997,191.286v256.732c0,17.898-13.751,32.583-31.271,34.053c7.6-6.267,12.45-15.756,12.45-26.38
		V198.959c0-11.757-6.13-22.548-15.998-28.941c-32.772-21.215-35.113-57.462-34.715-71.203l0.01-7.674h18.801
		c-0.388,13.741,1.953,49.988,34.725,71.203C505.867,168.727,511.997,179.529,511.997,191.286z"/>
</g>
<path style="fill:#B5F2D9;" d="M476.412,106.971H263.778c-4.552,0-8.242-3.69-8.242-8.242V19.338c0-4.552,3.69-8.242,8.242-8.242
	h212.634c4.552,0,8.242,3.69,8.242,8.242V98.73C484.653,103.281,480.964,106.971,476.412,106.971z"/>
<g>
	<path style="fill:#20CFA2;" d="M476.412,106.971H263.778c-4.552,0-8.242-3.69-8.242-8.242v-7.59h229.117v7.59
		C484.653,103.281,480.964,106.971,476.412,106.971z"/>
	<path style="fill:#20CFA2;" d="M290.637,112.839c-4.268,0-7.726-3.459-7.726-7.726V14.246c0-4.268,3.459-7.726,7.726-7.726
		c4.268,0,7.726,3.459,7.726,7.726v90.867C298.363,109.381,294.905,112.839,290.637,112.839z"/>
	<path style="fill:#20CFA2;" d="M343.608,112.839c-4.268,0-7.726-3.459-7.726-7.726V14.246c0-4.268,3.459-7.726,7.726-7.726
		s7.726,3.459,7.726,7.726v90.867C351.335,109.381,347.876,112.839,343.608,112.839z"/>
	<path style="fill:#20CFA2;" d="M396.581,112.839c-4.268,0-7.726-3.459-7.726-7.726V14.246c0-4.268,3.459-7.726,7.726-7.726
		s7.726,3.459,7.726,7.726v90.867C404.307,109.381,400.849,112.839,396.581,112.839z"/>
	<path style="fill:#20CFA2;" d="M449.553,112.839c-4.268,0-7.726-3.459-7.726-7.726V14.246c0-4.268,3.459-7.726,7.726-7.726
		s7.726,3.459,7.726,7.726v90.867C457.28,109.381,453.821,112.839,449.553,112.839z"/>
</g>
<g>
	<path style="fill:#FFDBB1;" d="M380.243,148.289h-77.246c-4.268,0-7.726-3.459-7.726-7.726c0-4.268,3.459-7.726,7.726-7.726h77.246
		c4.268,0,7.726,3.459,7.726,7.726C387.969,144.83,384.51,148.289,380.243,148.289z"/>
	<path style="fill:#FFDBB1;" d="M419.706,148.289H404.05c-4.268,0-7.726-3.459-7.726-7.726c0-4.268,3.459-7.726,7.726-7.726h15.656
		c4.268,0,7.726,3.459,7.726,7.726S423.974,148.289,419.706,148.289z"/>
</g>
<rect x="271" y="235.74" style="fill:#FF407E;" width="198.19" height="168.19"/>
<rect x="271" y="235.74" style="fill:#E2035A;" width="38.11" height="168.19"/>
<rect x="271" y="357.38" style="fill:#B5F2D9;" width="198.19" height="46.545"/>
<g>
	<rect x="271" y="357.39" style="fill:#20CFA2;" width="38.11" height="46.538"/>
	<path style="fill:#20CFA2;" d="M356.793,403.926h-85.796v-38.779c4.526-0.987,9.144-1.574,13.835-1.759l0.319-0.01
		c0.905-0.021,1.81-0.041,2.726-0.041c27.361,0,52.336,13.855,66.829,37.05C355.436,401.549,356.135,402.733,356.793,403.926z"/>
</g>
<path style="fill:#FF407E;" d="M409.032,380.658c0,4.265-3.451,7.726-7.726,7.726h-62.43c-4.265,0-7.726-3.461-7.726-7.726
	c0-1.37,0.361-2.658,0.989-3.77c1.319-2.359,3.843-3.956,6.737-3.956h62.43C405.581,372.931,409.032,376.393,409.032,380.658z"/>
<path style="fill:#E2035A;" d="M345.531,388.384h-6.655c-4.265,0-7.726-3.461-7.726-7.726c0-1.37,0.361-2.658,0.989-3.77
	C336.991,380.173,341.482,384.026,345.531,388.384z"/>
<g>
	<path style="fill:#B5F2D9;" d="M391.434,286.842h-9.171v-9.171c0-6.72-5.447-12.167-12.167-12.167l0,0
		c-6.72,0-12.167,5.447-12.167,12.167v9.171h-9.171c-6.719,0-12.167,5.447-12.167,12.167l0,0c0,6.72,5.447,12.167,12.167,12.167
		h9.171v9.171c0,6.72,5.447,12.167,12.167,12.167l0,0c6.72,0,12.167-5.447,12.167-12.167v-9.171h9.171
		c6.719,0,12.167-5.447,12.167-12.167l0,0C403.601,292.289,398.153,286.842,391.434,286.842z"/>
	<path style="fill:#B5F2D9;" d="M293.678,157.143v285.922c0,10.224-8.28,18.515-18.505,18.515H164.207
		c-7.488,0-13.917-4.464-16.828-10.862c-2.283,5.03-6.748,8.856-12.189,10.265c-1.481,0.391-3.045,0.597-4.649,0.597H18.494
		C8.28,461.579,0,453.289,0,443.065V157.143c0-10.224,8.28-18.515,18.494-18.515H130.54c7.488,0,13.927,4.464,16.838,10.852
		c2.911-6.388,9.34-10.852,16.828-10.852h110.966C285.398,138.628,293.678,146.918,293.678,157.143z"/>
</g>
<g>
	<path style="fill:#20CFA2;" d="M293.678,363.553v79.511c0,10.224-8.28,18.515-18.505,18.515H164.207
		c-7.488,0-13.917-4.464-16.828-10.862c-2.283,5.03-6.748,8.856-12.189,10.265c-6.46-25.962,0.442-54.588,20.696-74.841
		c14.884-14.874,34.664-23.072,55.709-23.072c13.66,0,26.785,3.477,38.388,9.967c1.615-0.895,3.219-1.707,4.834-2.448
		c1.337-0.617,2.582-1.152,3.806-1.635c8.332-3.343,17.147-5.215,26.209-5.565l0.319-0.01c0.905-0.021,1.81-0.041,2.726-0.041
		C289.821,363.338,291.754,363.41,293.678,363.553z"/>
	<path style="fill:#20CFA2;" d="M293.675,157.14v285.925c0,10.22-8.282,18.511-18.502,18.511H261.4
		c10.22,0,18.511-8.291,18.511-18.511V157.14c0-10.22-8.292-18.511-18.511-18.511h13.773
		C285.393,138.628,293.675,146.92,293.675,157.14z"/>
	<path style="fill:#20CFA2;" d="M147.377,375.991c-4.268,0-7.726-3.459-7.726-7.726v-197.92c0-4.268,3.459-7.726,7.726-7.726
		c4.268,0,7.726,3.459,7.726,7.726v197.919C155.104,372.532,151.645,375.991,147.377,375.991z"/>
	<path style="fill:#20CFA2;" d="M63.512,410.586H41.759c-4.268,0-7.726-3.459-7.726-7.726s3.459-7.726,7.726-7.726h21.753
		c4.268,0,7.726,3.459,7.726,7.726S67.78,410.586,63.512,410.586z"/>
	<path style="fill:#20CFA2;" d="M230.25,435.156H41.759c-4.268,0-7.726-3.459-7.726-7.726c0-4.268,3.459-7.726,7.726-7.726h188.49
		c4.268,0,7.726,3.459,7.726,7.726C237.976,431.697,234.517,435.156,230.25,435.156z"/>
	<path style="fill:#20CFA2;" d="M105.223,252.202c-8.459,8.459-19.704,13.117-31.666,13.117s-23.208-4.658-31.666-13.116
		s-13.116-19.704-13.116-31.666s4.658-23.208,13.116-31.666s19.704-13.116,31.666-13.116c24.693,0,44.782,20.089,44.782,44.782
		C118.34,232.498,113.681,243.744,105.223,252.202z"/>
</g>
<circle style="fill:#FEAD44;" cx="73.56" cy="220.54" r="32.09"/>
<path style="fill:#FFCD72;" d="M63.444,231.438c-4.268,0-7.726-3.459-7.726-7.726v-6.35c0-4.268,3.459-7.726,7.726-7.726
	s7.726,3.459,7.726,7.726v6.35C71.17,227.979,67.711,231.438,63.444,231.438z"/>
<path style="fill:#20CFA2;" d="M105.223,351.627c-8.458,8.458-19.704,13.116-31.666,13.116c-24.693,0-44.782-20.09-44.783-44.782
	c0-11.962,4.658-23.208,13.116-31.666s19.704-13.116,31.666-13.116s23.208,4.658,31.666,13.116s13.116,19.704,13.116,31.666
	C118.339,331.923,113.681,343.169,105.223,351.627z"/>
<circle style="fill:#FEAD44;" cx="73.56" cy="319.96" r="32.09"/>
<path style="fill:#FFCD72;" d="M63.444,330.862c-4.268,0-7.726-3.459-7.726-7.726v-6.35c0-4.268,3.459-7.726,7.726-7.726
	s7.726,3.459,7.726,7.726v6.35C71.17,327.404,67.711,330.862,63.444,330.862z"/>
<path style="fill:#20CFA2;" d="M251.78,252.202c-8.458,8.458-19.704,13.116-31.666,13.117c-24.693,0-44.783-20.09-44.782-44.782
	c0-11.962,4.658-23.208,13.116-31.666c8.458-8.458,19.704-13.116,31.666-13.117c24.693,0,44.782,20.089,44.782,44.782
	C264.896,232.498,260.238,243.744,251.78,252.202z"/>
<circle style="fill:#FEAD44;" cx="220.11" cy="220.54" r="32.09"/>
<path style="fill:#FFCD72;" d="M210,231.438c-4.268,0-7.726-3.459-7.726-7.726v-6.35c0-4.268,3.459-7.726,7.726-7.726
	c4.268,0,7.726,3.459,7.726,7.726v6.35C217.726,227.979,214.268,231.438,210,231.438z"/>
<path style="fill:#20CFA2;" d="M251.78,351.627c-8.458,8.458-19.704,13.116-31.666,13.117c-11.962,0-23.208-4.658-31.666-13.117
	c-8.458-8.458-13.117-19.704-13.116-31.666c0-11.962,4.658-23.208,13.116-31.666c8.458-8.458,19.704-13.116,31.666-13.117
	c11.962,0,23.208,4.658,31.666,13.116s13.116,19.705,13.116,31.666C264.896,331.923,260.238,343.169,251.78,351.627z"/>
<circle style="fill:#FEAD44;" cx="220.11" cy="319.96" r="32.09"/>
<path style="fill:#FFCD72;" d="M210,330.862c-4.268,0-7.726-3.459-7.726-7.726v-6.35c0-4.268,3.459-7.726,7.726-7.726
	c4.268,0,7.726,3.459,7.726,7.726v6.35C217.726,327.404,214.268,330.862,210,330.862z"/>
<path style="fill:#6CBEFF;" d="M351.239,442.129c0,34.993-28.369,63.352-63.362,63.352c-8.486,0-16.581-1.656-23.987-4.69
	c-1.018-0.422-2.026-0.864-3.024-1.337c-1.954-0.916-3.847-1.924-5.688-3.034c-18.371-11.099-30.663-31.259-30.663-54.29
	c0-23.195,12.446-43.469,31.043-54.516c1.852-1.101,3.744-2.109,5.709-3.004c0.998-0.463,2.016-0.905,3.045-1.306
	c6.563-2.644,13.67-4.207,21.117-4.495c0.813-0.021,1.625-0.041,2.448-0.041c22.66-0.01,42.554,11.891,53.745,29.799
	C347.711,418.286,351.239,429.796,351.239,442.129z"/>
<g>
	<path style="fill:#0095F2;" d="M267.315,497.571c-1.111,1.111-2.253,2.191-3.425,3.22c-1.018-0.422-2.026-0.864-3.024-1.337
		c-1.954-0.916-3.847-1.924-5.688-3.034c-18.371-11.099-30.663-31.259-30.663-54.29c0-23.195,12.446-43.469,31.043-54.516
		c1.852-1.101,3.744-2.109,5.709-3.004c0.998-0.463,2.016-0.905,3.045-1.306c1.018,0.915,2.026,1.862,3.004,2.839
		C298.029,416.866,298.029,466.857,267.315,497.571z"/>
	<path style="fill:#0095F2;" d="M308.721,468.359h-41.694c-4.268,0-7.726-3.459-7.726-7.726s3.459-7.726,7.726-7.726h41.694
		c4.268,0,7.726,3.459,7.726,7.726S312.988,468.359,308.721,468.359z"/>
</g>
<circle style="fill:#A3E9FB;" cx="211.6" cy="441.859" r="63.36"/>
<path style="fill:#6CBEFF;" d="M213.252,477.417c-1.978,0-3.955-0.755-5.464-2.264l-29.482-29.483
	c-3.017-3.017-3.017-7.91,0.001-10.927c3.016-3.017,7.909-3.016,11.325,0.399l29.482,29.483c2.619,2.619,2.619,7.512-0.399,10.529
	C217.206,476.661,215.228,477.417,213.252,477.417z"/>
<g>
</g>
<g>
</g>
<g>
</g>
<g>
</g>
<g>
</g>
<g>
</g>
<g>
</g>
<g>
</g>
<g>
</g>
<g>
</g>
<g>
</g>
<g>
</g>
<g>
</g>
<g>
</g>
<g>
</g>
</svg>
