<svg id="Capa_1" enable-background="new 0 0 512 512" height="512" viewBox="0 0 512 512" width="512" xmlns="http://www.w3.org/2000/svg"><g><g><path d="m193.939 442.387h-155.437c-17.121 0-31-13.879-31-31v-217.59c0-17.121 13.879-31 31-31h155.437c17.121 0 31 13.879 31 31v217.59c0 17.121-13.88 31-31 31z" fill="#6cf5c2"/><path d="m193.938 162.798h-31.062c17.121 0 31 13.879 31 31v45.567c-11.815 5.627-20 17.686-20 31.62v156.374c0 5.376 1.219 10.472 3.394 15.028h16.668c17.121 0 31-13.879 31-31v-217.59c.001-17.12-13.879-30.999-31-30.999z" fill="#5de1c4"/><path d="m489.5 442.359h-280.624c-8.284 0-15-6.716-15-15v-156.374c0-8.284 6.716-15 15-15h280.624c8.284 0 15 6.716 15 15v156.374c0 8.284-6.716 15-15 15z" fill="#f2fbff"/><path d="m489.5 255.985h-30c8.284 0 15 6.716 15 15v156.374c0 8.284-6.716 15-15 15h30c8.284 0 15-6.716 15-15v-156.374c0-8.285-6.716-15-15-15z" fill="#dff6fd"/><path d="m178.876 131.735h-125.312c-8.284 0-15-6.716-15-15v-32.125c0-8.284 6.716-15 15-15h125.312c8.284 0 15 6.716 15 15v32.125c0 8.284-6.716 15-15 15z" fill="#918291"/><path d="m178.876 69.61h-31.228c8.285 0 15 6.716 15 15v32.125c0 8.284-6.716 15-15 15h31.228c8.284 0 15-6.716 15-15v-32.124c0-8.285-6.716-15.001-15-15.001z" fill="#7a6d79"/><path d="m69.627 131.735h93.187v31.062h-93.187z" fill="#f2fbff"/><path d="m132.814 131.735h30v31.062h-30z" fill="#dff6fd"/><path d="m7.5 224.922h217.44v155.312h-217.44z" fill="#f2fbff"/><path d="m193.878 224.922v14.442c-11.816 5.627-20.002 17.686-20.002 31.621v109.249h51.064v-155.312z" fill="#dff6fd"/><path d="m162.814 287.105h-31.063v-31.063h-31.062v31.063h-31.062v31.062h31.062v31.069h31.062v-31.069h31.063z" fill="#fe76a8"/><path d="m255.059 132.123 54.913 54.913c9.098 9.098 23.849 9.098 32.947 0 9.098-9.098 9.098-23.849 0-32.947l-54.913-54.913c-9.098-9.098-23.849-9.098-32.947 0-9.098 9.098-9.098 23.849 0 32.947z" fill="#fe76a8"/><path d="m342.919 187.036c9.098-9.098 9.098-23.849 0-32.947l-27.457-27.457-32.947 32.947 27.457 27.457c9.098 9.098 23.849 9.098 32.947 0z" fill="#ffe588"/><path d="m474.934 175.111-54.913 54.913c-9.098 9.098-23.849 9.098-32.947 0-9.098-9.098-9.098-23.849 0-32.947l54.913-54.913c9.098-9.098 23.849-9.098 32.947 0 9.098 9.098 9.098 23.849 0 32.947z" fill="#fe76a8"/><g fill="#ffe588"><path d="m414.531 169.621-27.457 27.457c-9.098 9.098-9.098 23.849 0 32.947 9.098 9.098 23.849 9.098 32.947 0l27.457-27.457z"/><ellipse cx="248.235" cy="310.344" rx="23.297" ry="23.297" transform="matrix(1 -.009 .009 1 -2.899 2.341)"/><circle cx="248.235" cy="387.423" r="23.297"/><circle cx="325.891" cy="310.344" r="23.297"/><circle cx="325.891" cy="387.423" r="23.297"/><circle cx="403.547" cy="310.344" r="23.297"/><circle cx="403.547" cy="387.423" r="23.297"/></g></g><g><path d="m93.189 349.235c0 4.142 3.358 7.5 7.5 7.5h31.062c4.142 0 7.5-3.358 7.5-7.5v-23.568h23.563c4.142 0 7.5-3.358 7.5-7.5v-31.062c0-4.142-3.358-7.5-7.5-7.5h-23.563v-23.562c0-4.142-3.358-7.5-7.5-7.5h-31.062c-4.142 0-7.5 3.358-7.5 7.5v23.562h-23.563c-4.142 0-7.5 3.358-7.5 7.5v31.062c0 4.142 3.358 7.5 7.5 7.5h23.563zm-16.063-38.568v-16.062h23.563c4.142 0 7.5-3.358 7.5-7.5v-23.562h16.062v23.562c0 4.142 3.358 7.5 7.5 7.5h23.563v16.062h-23.563c-4.142 0-7.5 3.358-7.5 7.5v23.568h-16.062v-23.568c0-4.142-3.358-7.5-7.5-7.5z"/><path d="m425.324 235.328 54.914-54.913c11.947-11.464 11.946-32.09-.001-43.553-11.463-11.948-32.091-11.948-43.554 0l-54.912 54.913c-11.949 11.463-11.25 31.405-.001 43.553 9.911 10.702 27.318 13.152 43.554 0zm21.967-87.86c5.879-6.129 16.461-6.128 22.34 0 6.159 6.159 6.159 16.181 0 22.34l-22.153 22.153-22.34-22.339zm-54.913 54.913 22.153-22.153 22.34 22.339-22.154 22.154c-6.158 6.16-16.18 6.159-22.34 0-6.128-5.881-6.129-16.46.001-22.34z"/><path d="m304.669 192.34c12.008 12.008 31.546 12.008 43.554 0 12.007-12.008 12.007-31.545 0-43.553l-54.914-54.914c-12.008-12.006-31.546-12.006-43.553 0-11.948 11.464-11.947 32.09 0 43.553zm32.946-10.607c-6.158 6.158-16.181 6.16-22.339 0l-22.154-22.154 22.34-22.34 22.153 22.153c6.159 6.16 6.159 16.182 0 22.341zm-77.253-77.253c6.159-6.159 16.181-6.158 22.34 0l22.153 22.153-22.34 22.34-22.153-22.153c-6.128-5.881-6.128-16.46 0-22.34z"/><path d="m489.5 248.48h-147.27c-4.143 0-7.5 3.358-7.5 7.5s3.357 7.5 7.5 7.5h147.27c4.136 0 7.5 3.364 7.5 7.5v156.38c0 4.136-3.364 7.5-7.5 7.5h-69.61c-4.142 0-7.5 3.358-7.5 7.5s3.358 7.5 7.5 7.5h69.61c12.406 0 22.5-10.093 22.5-22.5v-156.38c0-12.407-10.094-22.5-22.5-22.5z"/><path d="m387.2 434.86h-178.32c-4.049.065-7.565-3.447-7.5-7.5v-156.38c0-4.136 3.364-7.5 7.5-7.5h100.67c4.143 0 7.5-3.358 7.5-7.5s-3.357-7.5-7.5-7.5h-77.109v-54.681c0-21.229-17.271-38.5-38.5-38.5h-23.627v-16.063h8.562c12.407 0 22.5-10.093 22.5-22.5v-32.126c0-12.407-10.093-22.5-22.5-22.5h-125.312c-12.407 0-22.5 10.093-22.5 22.5v32.125c0 12.407 10.093 22.5 22.5 22.5h8.562v16.063h-23.626c-21.229 0-38.5 17.271-38.5 38.5v217.592c0 21.229 17.271 38.5 38.5 38.5l348.7-.03c4.143 0 7.5-3.358 7.5-7.5s-3.357-7.5-7.5-7.5zm-341.136-318.125v-32.125c0-4.136 3.364-7.5 7.5-7.5h8.562v23.562c0 4.142 3.358 7.5 7.5 7.5s7.5-3.358 7.5-7.5v-23.562h16.063v23.562c0 4.142 3.358 7.5 7.5 7.5s7.5-3.358 7.5-7.5v-23.562h16.062v23.562c0 4.142 3.358 7.5 7.5 7.5s7.5-3.358 7.5-7.5v-23.562h16.063v23.562c0 4.142 3.358 7.5 7.5 7.5s7.5-3.358 7.5-7.5v-23.562h8.562c4.136 0 7.5 3.364 7.5 7.5v32.125c0 4.136-3.364 7.5-7.5 7.5h-125.312c-4.135 0-7.5-3.364-7.5-7.5zm109.25 22.5v16.062h-78.188v-16.062zm-116.814 31.063h155.441c12.958 0 23.5 10.542 23.5 23.5v23.621h-202.441v-23.621c0-12.957 10.542-23.5 23.5-23.5zm-23.5 241.092v-23.66h38.28c4.142 0 7.5-3.358 7.5-7.5s-3.358-7.5-7.5-7.5h-38.28v-140.31h202.44v16.06h-8.56c-12.407 0-22.5 10.093-22.5 22.5v101.75h-100.41c-4.142 0-7.5 3.358-7.5 7.5s3.358 7.5 7.5 7.5h100.41v39.63c0 2.613.453 5.153 1.297 7.53h-149.177c-12.958 0-23.5-10.542-23.5-23.5z"/><path d="m248.235 279.547c-16.982 0-30.797 13.815-30.797 30.797s13.815 30.797 30.797 30.797c16.981 0 30.797-13.815 30.797-30.797s-13.815-30.797-30.797-30.797zm0 46.594c-8.711 0-15.797-7.086-15.797-15.797 0-8.71 7.086-15.797 15.797-15.797 8.71 0 15.797 7.086 15.797 15.797 0 8.71-7.086 15.797-15.797 15.797z"/><path d="m248.235 356.626c-16.982 0-30.797 13.815-30.797 30.797 0 16.981 13.815 30.797 30.797 30.797 16.981 0 30.797-13.815 30.797-30.797s-13.815-30.797-30.797-30.797zm0 46.594c-8.711 0-15.797-7.086-15.797-15.797s7.086-15.797 15.797-15.797c8.71 0 15.797 7.086 15.797 15.797 0 8.71-7.086 15.797-15.797 15.797z"/><path d="m325.892 279.547c-16.981 0-30.797 13.815-30.797 30.797s13.816 30.797 30.797 30.797 30.797-13.815 30.797-30.797-13.816-30.797-30.797-30.797zm0 46.594c-8.71 0-15.797-7.086-15.797-15.797 0-8.71 7.087-15.797 15.797-15.797s15.797 7.086 15.797 15.797c0 8.71-7.087 15.797-15.797 15.797z"/><path d="m325.892 356.626c-16.981 0-30.797 13.815-30.797 30.797 0 16.981 13.816 30.797 30.797 30.797s30.797-13.815 30.797-30.797-13.816-30.797-30.797-30.797zm0 46.594c-8.71 0-15.797-7.086-15.797-15.797s7.087-15.797 15.797-15.797 15.797 7.086 15.797 15.797c0 8.71-7.087 15.797-15.797 15.797z"/><path d="m403.547 341.141c16.981 0 30.797-13.815 30.797-30.797 0-16.981-13.816-30.797-30.797-30.797-16.98 0-30.796 13.815-30.796 30.797 0 16.981 13.815 30.797 30.796 30.797zm0-46.594c8.71 0 15.797 7.086 15.797 15.797s-7.087 15.797-15.797 15.797-15.796-7.086-15.796-15.797 7.086-15.797 15.796-15.797z"/><path d="m434.344 387.423c0-16.982-13.816-30.797-30.797-30.797-16.98 0-30.796 13.815-30.796 30.797 0 16.981 13.815 30.797 30.796 30.797s30.797-13.816 30.797-30.797zm-30.797 15.797c-8.71 0-15.796-7.086-15.796-15.797s7.086-15.797 15.796-15.797 15.797 7.086 15.797 15.797c0 8.71-7.087 15.797-15.797 15.797z"/><path d="m480.938 380.234v-62.124c0-4.142-3.357-7.5-7.5-7.5s-7.5 3.358-7.5 7.5v62.124c0 4.142 3.357 7.5 7.5 7.5s7.5-3.358 7.5-7.5z"/></g></g></svg>