<svg id="Flat" height="512" viewBox="0 0 64 64" width="512" xmlns="http://www.w3.org/2000/svg"><g id="Color_copy" data-name="Color copy"><path d="m7 8h40v50h-40z" fill="#e9f1f2"/><path d="m31 33a17 17 0 0 1 -17-17v-8h-7v50h40v-25z" fill="#d0d8da"/><path d="m31 6a3 3 0 0 0 -3-3h-2a3 3 0 0 0 -3 3h-4a2 2 0 0 0 -2 2v1a2 2 0 0 0 2 2h16a2 2 0 0 0 2-2v-1a2 2 0 0 0 -2-2z" fill="#ff7373"/><path d="m42 18h-3v-3h-4v3h-3v4h3v3h4v-3h3z" fill="#ade8f4"/><path d="m39 20a2 2 0 0 1 -2-2v-3h-2v3h-3v4h3v3h4v-3h3v-2z" fill="#48cae4"/><path d="m12.5 46.5h5v5h-5z" fill="#ef5350"/><circle cx="19" cy="23" fill="#ade8f4" r="8"/><path d="m19 31a7.955 7.955 0 0 0 3.01-.591 16.961 16.961 0 0 1 -7.973-13.676 7.995 7.995 0 0 0 4.963 14.267z" fill="#48cae4"/><circle cx="19" cy="22" fill="#f9dbaf" r="3"/><path d="m20 25h-2a4 4 0 0 0 -4 4v.24a7.982 7.982 0 0 0 10 0v-.24a4 4 0 0 0 -4-4z" fill="#f9dbaf"/><path d="m22.005 30.406a17.051 17.051 0 0 1 -5.272-5.182 3.989 3.989 0 0 0 -2.733 3.776v.24a7.952 7.952 0 0 0 8 1.166z" fill="#edb88e"/><path d="m21 23a2.96 2.96 0 0 1 -2.86-3.86 2.992 2.992 0 1 0 3.72 3.72 2.983 2.983 0 0 1 -.86.14z" fill="#edb88e"/><path d="m19 7v-1a2 2 0 0 0 -2 2v1a2 2 0 0 0 2 2h16a2 2 0 0 0 2-2h-16a2 2 0 0 1 -2-2z" fill="#ef5350"/><path d="m17 43h-4a1 1 0 0 1 0-2h4a1 1 0 0 1 0 2z" fill="#00b4d8"/><path d="m27 43h-6a1 1 0 0 1 0-2h6a1 1 0 0 1 0 2z" fill="#00b4d8"/><path d="m28 52h-7a1 1 0 0 1 0-2h7a1 1 0 0 1 0 2z" fill="#00b4d8"/><path d="m15 41a1 1 0 0 1 -.707-.293l-2-2a1 1 0 0 1 1.414-1.414l1.293 1.293 3.293-3.293a1 1 0 0 1 1.414 1.414l-4 4a1 1 0 0 1 -.707.293z" fill="#ef5350"/><path d="m30 48h-8a1 1 0 0 1 0-2h8a1 1 0 0 1 0 2z" fill="#00b4d8"/><path d="m30 39h-8a1 1 0 0 1 0-2h8a1 1 0 0 1 0 2z" fill="#00b4d8"/><path d="m17 52h-4a1 1 0 0 1 -1-1v-4a1 1 0 0 1 1-1h4a1 1 0 0 1 1 1v4a1 1 0 0 1 -1 1zm-3-2h2v-2h-2z" fill="#00b4d8"/><path d="m29.732 29.856h4v32h-4z" fill="#ade8f4" transform="matrix(.866 .5 -.5 .866 27.179 -9.722)"/><path d="m26.964 54.115a2.993 2.993 0 0 1 -3.14 1.439l-1.824 3.159 3.464 2 16-27.713-1.732-1z" fill="#48cae4"/><g fill="#f9dbaf"><path d="m34.232 36.062h4v4h-4z" transform="matrix(.866 .5 -.5 .866 23.885 -13.017)"/><path d="m30.232 42.99h4v4h-4z" transform="matrix(.866 .5 -.5 .866 26.813 -10.088)"/><path d="m26.232 49.919h4v4h-4z" transform="matrix(.866 .5 -.5 .866 29.742 -7.16)"/></g><path d="m35.097 37.561h3.996v1.998h-3.996z" fill="#edb88e" transform="matrix(.5 -.866 .866 .5 -14.853 51.379)"/><path d="m31.097 44.491h3.996v1.998h-3.996z" fill="#edb88e" transform="matrix(.5 -.866 .866 .5 -22.851 51.377)"/><path d="m27.097 51.421h3.996v1.998h-3.996z" fill="#edb88e" transform="matrix(.5 -.866 .866 .5 -30.849 51.376)"/><path d="m60 41-2 20h-16l-.4-4-1.2-12-.4-4z" fill="#ade8f4"/><path d="m52 46v-3h7.8l.2-2h-20l.4 4 1.2 12 .4 4h16l.633-6.325a9 9 0 0 1 -6.633-8.675z" fill="#48cae4"/><path d="m40.9 50 .7 7 .4 4h16l1.1-11z" fill="#f9dbaf"/><path d="m41 37h18a2 2 0 0 1 2 2v2a0 0 0 0 1 0 0h-22a0 0 0 0 1 0 0v-2a2 2 0 0 1 2-2z" fill="#ff7373"/><path d="m52.947 50h-12.047l.7 7 .4 4h16l.633-6.325a9 9 0 0 1 -5.686-4.675z" fill="#edb88e"/><path d="m50 45v12h-8.4l-1.2-12z" fill="#ff7373"/><path d="m40.9 50 .7 7h8.4v-7z" fill="#ef5350"/><path d="m42 37h-1a2 2 0 0 0 -2 2v2h22v-2h-17a2 2 0 0 1 -2-2z" fill="#ef5350"/><path d="m47 49a1 1 0 0 1 -1 1h-5.1l-.2-2h5.3a1 1 0 0 1 1 1z" fill="#48cae4"/><path d="m47 53a1 1 0 0 1 -1 1h-4.7l-.2-2h4.9a1 1 0 0 1 1 1z" fill="#00b4d8"/></g></svg>