<svg id="Layer_5" enable-background="new 0 0 64 64" height="512" viewBox="0 0 64 64" width="512" xmlns="http://www.w3.org/2000/svg"><g><g><g><path d="m46 2h-27.17c-.29 0-.57.06-.83.18v7.82c0 1.1-.9 2-2 2h-7.82c-.12.26-.18.54-.18.83v13.17 4 16.15c0 1.02.83 1.85 1.85 1.85.71 0 1.35-.4 1.66-1.02.99-1.98 1.76-4.06 2.3-6.21l.75-2.99c.26-1.05 1.19-1.78 2.27-1.78.61 0 1.17.24 1.59.62.42.39.7.93.75 1.54l.78 10.18c.03.44.05.88.05 1.33 0 1.46-.19 2.92-.56 4.33h.01 17.55c0-1.1.9-2 2-2-.55 0-1.05-.22-1.41-.59-.37-.36-.59-.86-.59-1.41 0-1.1.9-2 2-2-.55 0-1.05-.22-1.41-.59-.37-.36-.59-.86-.59-1.41 0-1.1.9-2 2-2h-3c-.55 0-1.05-.22-1.41-.59-.37-.36-.59-.86-.59-1.41 0-1.1.9-2 2-2h4v-10h-2c-.55 0-1-.45-1-1v-3-1c0-.55.45-1 1-1h3 4 3v-20c0-1.1-.9-2-2-2z" fill="#e6e9ed"/></g><g><path d="m6 58h12v4h-12z" fill="#ff826e"/></g><g><path d="m24 38h6v12h-6z" fill="#b4dd7f"/></g><g><path d="m32 6h12v12h-12z" fill="#ff826e"/></g><g><path d="m18 2.18v7.82c0 1.1-.9 2-2 2h-7.82c.1-.22.24-.42.41-.59l8.82-8.82c.17-.17.37-.31.59-.41z" fill="#b4dd7f"/></g><g><path d="m52 24h-14c-.55 0-1 .45-1 1v4c0 .55.45 1 1 1h14c.55 0 1-.45 1-1v-4c0-.55-.45-1-1-1z" fill="#fcd770"/></g><g><path d="m49 30h1v6h-5c-.55 0-1 .45-1 1 0 1.66 1.34 3 3 3h3v16 1c0 1.38-.56 2.63-1.46 3.54-.91.9-2.16 1.46-3.54 1.46-2.76 0-5-2.24-5-5v-1h1c1.1 0 2-.9 2-2 0-.55-.22-1.05-.59-1.41-.36-.37-.86-.59-1.41-.59 1.1 0 2-.9 2-2 0-.55-.22-1.05-.59-1.41-.36-.37-.86-.59-1.41-.59 1.1 0 2-.9 2-2 0-.55-.22-1.05-.59-1.41-.36-.37-.86-.59-1.41-.59h-1v-4-10h1 4z" fill="#ffeaa7"/></g><g><path d="m62 40v12l-3.36 2.69c-1.06.85-2.38 1.31-3.74 1.31h-4.9v-16h-3c-1.66 0-3-1.34-3-3 0-.55.45-1 1-1h5 4.9c1.36 0 2.68.46 3.74 1.31z" fill="#f0d0b4"/></g><g><path d="m42.41 52.59c.37.36.59.86.59 1.41 0 1.1-.9 2-2 2h-1-1c-.55 0-1.05-.22-1.41-.59-.37-.36-.59-.86-.59-1.41 0-1.1.9-2 2-2h2c.55 0 1.05.22 1.41.59z" fill="#f0d0b4"/></g><g><path d="m39 52c-.55 0-1.05-.22-1.41-.59-.37-.36-.59-.86-.59-1.41 0-1.1.9-2 2-2h2c.55 0 1.05.22 1.41.59.37.36.59.86.59 1.41 0 1.1-.9 2-2 2z" fill="#f0d0b4"/></g><g><path d="m39 48c-.55 0-1.05-.22-1.41-.59-.37-.36-.59-.86-.59-1.41 0-1.1.9-2 2-2h1 1c.55 0 1.05.22 1.41.59.37.36.59.86.59 1.41 0 1.1-.9 2-2 2z" fill="#f0d0b4"/></g><g><path d="m40 40v4h-1-3c-.55 0-1.05-.22-1.41-.59-.37-.36-.59-.86-.59-1.41 0-1.1.9-2 2-2z" fill="#f0d0b4"/></g><g><path d="m19.95 48.34c.03.44.05.88.05 1.33 0 1.46-.19 2.92-.56 4.33-.18.71-.41 1.41-.68 2.1l-.76 1.9h-12l-1.3-3.26c-.47-1.16-.8-2.36-1.01-3.59l-1.55-9.33c-.09-.55-.14-1.1-.14-1.65 0-2.67 1.06-5.23 2.95-7.12l3.05-3.05v16.15c0 1.02.83 1.85 1.85 1.85.71 0 1.35-.4 1.66-1.02.99-1.98 1.76-4.06 2.3-6.21l.75-2.99c.26-1.05 1.19-1.78 2.27-1.78.61 0 1.17.24 1.59.62.42.39.7.93.75 1.54z" fill="#f0d0b4"/></g></g><g><path d="m59.268 36.533c-1.237-.988-2.789-1.533-4.372-1.533h-3.896v-4h1c1.103 0 2-.897 2-2v-4c0-1.103-.897-2-2-2h-3v-19c0-1.654-1.346-3-3-3h-27.171c-.801 0-1.555.313-2.122.879l-8.828 8.828c-.567.566-.879 1.32-.879 2.121v16.758l-2.76 2.761c-2.09 2.089-3.24 4.866-3.24 7.82 0 .606.051 1.218.15 1.818l1.556 9.332c.216 1.298.573 2.574 1.061 3.792l1.233 3.084v4.807h14v-4.807l.69-1.725c.193-.483.357-.974.508-1.468h15.986c.414 1.161 1.514 2 2.816 2 0 3.309 2.691 6 6 6s6-2.691 6-6h3.896c1.583 0 3.136-.545 4.373-1.533l3.731-2.987v-12.96zm-23.268 6.467c-.551 0-1-.448-1-1s.449-1 1-1h3v2zm2 7c0-.552.449-1 1-1h2c.551 0 1 .448 1 1s-.449 1-1 1h-2c-.551 0-1-.448-1-1zm3-3h-2c-.551 0-1-.448-1-1s.449-1 1-1h1 1c.551 0 1 .448 1 1s-.449 1-1 1zm-3-18v-4h2v4zm4-4h2v4h-2zm4 0h2v4h-2zm6.001 4h-2.001v-4h2zm-35.001-24.586v5.586c0 .552-.449 1-1 1h-5.586zm0 56.586h-10v-2h10zm.833-5.274-.51 1.274h-10.646l-1.054-2.634c-.434-1.085-.752-2.221-.945-3.377l-1.556-9.332c-.08-.492-.122-.993-.122-1.49 0-2.42.942-4.694 2.654-6.406l1.346-1.347v13.731c0 1.575 1.28 2.855 2.854 2.855 1.088 0 2.066-.604 2.553-1.578 1.02-2.039 1.816-4.194 2.37-6.406l.75-2.998c.149-.599.685-1.018 1.303-1.018.698 0 1.287.545 1.34 1.241l.783 10.172c.031.416.047.834.047 1.252 0 2.085-.393 4.124-1.167 6.061zm3.113-7.466-.783-10.172c-.132-1.732-1.597-3.088-3.333-3.088-1.537 0-2.871 1.042-3.244 2.533l-.75 2.998c-.518 2.07-1.264 4.088-2.218 5.996-.145.292-.438.473-.764.473-.471 0-.854-.384-.854-.854v-33.146h7c1.654 0 3-1.346 3-3v-7h27c.551 0 1 .448 1 1v19h-9c-1.103 0-2 .897-2 2v4c0 1.103.897 2 2 2h1v8h-3c-1.654 0-3 1.346-3 3s1.346 3 3 3h.184c-.112.314-.184.648-.184 1 0 .771.301 1.468.78 2-.48.532-.78 1.229-.78 2s.301 1.468.78 2c-.261.289-.463.626-.596 1h-15.495c.203-1.095.311-2.209.311-3.335 0-.469-.018-.937-.054-1.405zm17.054 5.74c0-.552.449-1 1-1h2c.551 0 1 .448 1 1s-.449 1-1 1h-2c-.551 0-1-.448-1-1zm7 7c-2.206 0-4-1.794-4-4 1.654 0 3-1.346 3-3 0-.771-.301-1.468-.78-2 .48-.532.78-1.229.78-2s-.301-1.468-.78-2c.48-.532.78-1.229.78-2 0-1.654-1.346-3-3-3v-12h8v4h-4c-1.103 0-2 .897-2 2 0 2.206 1.794 4 4 4h2v16c0 2.206-1.794 4-4 4zm16-9.48-2.981 2.385c-.884.706-1.993 1.095-3.123 1.095h-3.896v-14h.586l.949.949c1.322 1.322 3.08 2.051 4.95 2.051h1.515v-2h-1.515c-1.336 0-2.592-.521-3.536-1.465l-1.535-1.535h-5.414c-1.103 0-2-.897-2-2h9.896c1.13 0 2.24.389 3.124 1.096l2.98 2.384z"/><path d="m45 5h-14v14h14zm-2 12h-10v-10h10z"/><path d="m21 5h8v2h-8z"/><path d="m21 9h8v2h-8z"/><path d="m21 13h8v2h-8z"/><path d="m21 17h8v2h-8z"/><path d="m11 21h23v2h-23z"/><path d="m11 25h2v2h-2z"/><path d="m15 25h19v2h-19z"/><path d="m11 29h23v2h-23z"/><path d="m23 51h8v-14h-8zm2-12h4v10h-4z"/><path d="m23 33h11v2h-11z"/></g></g></svg>