<svg id="Layer_1" enable-background="new 0 0 74 74" height="512" viewBox="0 0 74 74" width="512" xmlns="http://www.w3.org/2000/svg"><g><path d="m51.82 8.16v52.5c0 1.47-1.19 2.66-2.66 2.66h-36.59c-1.47 0-2.66-1.19-2.66-2.66v-52.5c0-1.47 1.19-2.66 2.66-2.66h36.58c1.48 0 2.67 1.19 2.67 2.66z" fill="#e6e6e6"/><g><g><g><g><path d="m47.35 25.57h-17.7c-.28 0-.5-.22-.5-.5s.22-.5.5-.5h17.7c.28 0 .5.22.5.5s-.22.5-.5.5z" fill="#606060"/></g><g><path d="m47.35 28.76h-17.7c-.28 0-.5-.22-.5-.5s.22-.5.5-.5h17.7c.28 0 .5.22.5.5s-.22.5-.5.5z" fill="#606060"/></g></g><g><g><path d="m47.35 37.52h-17.7c-.28 0-.5-.22-.5-.5s.22-.5.5-.5h17.7c.28 0 .5.22.5.5s-.22.5-.5.5z" fill="#606060"/></g><g><path d="m47.35 40.71h-17.7c-.28 0-.5-.22-.5-.5s.22-.5.5-.5h17.7c.28 0 .5.22.5.5s-.22.5-.5.5z" fill="#606060"/></g></g><g><g><path d="m47.35 49.48h-17.7c-.28 0-.5-.22-.5-.5s.22-.5.5-.5h17.7c.28 0 .5.22.5.5s-.22.5-.5.5z" fill="#606060"/></g><g><path d="m47.35 52.67h-17.7c-.28 0-.5-.22-.5-.5s.22-.5.5-.5h17.7c.28 0 .5.22.5.5s-.22.5-.5.5z" fill="#606060"/></g></g><g><path d="m39.56 13.73h-16.85c-.28 0-.5-.22-.5-.5s.22-.5.5-.5h16.84c.28 0 .5.22.5.5s-.22.5-.49.5z" fill="#606060"/></g><g><path d="m43.89 17.95h-25.52c-.28 0-.5-.22-.5-.5s.22-.5.5-.5h25.52c.28 0 .5.22.5.5s-.22.5-.5.5z" fill="#606060"/></g></g><path d="m24.48 24.53v4.74c0 .55-.45 1-1 1h-4.74c-.55 0-1-.45-1-1v-4.74c0-.55.45-1 1-1h4.74c.55 0 1 .45 1 1z" fill="#7668f4"/><path d="m19.57 25.17v3.46c0 .4.32.73.72.73h3.46c.4 0 .73-.33.73-.73v.64c0 .56-.45 1-1 1h-4.75c-.55 0-1-.44-1-1v-4.74c0-.55.45-1 1-1h4.75c.55 0 1 .45 1 1v.64c0-.4-.33-.72-.73-.72h-3.46c-.4.01-.72.33-.72.72z" opacity=".2"/><path d="m24.48 36.49v4.74c0 .55-.45 1-1 1h-4.74c-.55 0-1-.45-1-1v-4.74c0-.55.45-1 1-1h4.74c.55 0 1 .44 1 1z" fill="#7668f4"/><path d="m24.48 48.44v4.74c0 .55-.45 1-1 1h-4.74c-.55 0-1-.45-1-1v-4.74c0-.55.45-1 1-1h4.74c.55 0 1 .44 1 1z" fill="#7668f4"/><path d="m19.57 37.13v3.46c0 .4.32.73.72.73h3.46c.4 0 .73-.33.73-.73v.64c0 .56-.45 1-1 1h-4.75c-.55 0-1-.44-1-1v-4.74c0-.55.45-1 1-1h4.75c.55 0 1 .45 1 1v.64c0-.4-.33-.72-.73-.72h-3.46c-.4 0-.72.32-.72.72z" opacity=".2"/><path d="m19.57 49.08v3.46c0 .4.32.73.72.73h3.46c.4 0 .73-.33.73-.73v.64c0 .56-.45 1-1 1h-4.75c-.55 0-1-.44-1-1v-4.74c0-.55.45-1 1-1h4.75c.55 0 1 .45 1 1v.64c0-.4-.33-.72-.73-.72h-3.46c-.4 0-.72.32-.72.72z" opacity=".2"/></g><path d="m14.36 10.95v46.93c0 1.31 1.07 2.38 2.38 2.38h32.7c1.31 0 2.38-1.07 2.38-2.38v2.79c0 1.47-1.19 2.66-2.67 2.66h-36.58c-1.47 0-2.66-1.19-2.66-2.66v-52.51c0-1.47 1.19-2.67 2.66-2.67h36.58c1.48 0 2.67 1.2 2.67 2.67v2.78c0-1.31-1.07-2.38-2.38-2.38h-32.7c-1.31.01-2.38 1.08-2.38 2.39z" opacity=".2"/><path d="m53.51 30.63 10.29 30.67c.96 2.86-.58 5.96-3.44 6.92-2.86.96-5.96-.58-6.92-3.44l-10.29-30.67z" fill="#5cc1e6"/><path d="m57.4 42.21h-11.53l7.57 22.57c.96 2.86 4.06 4.4 6.92 3.44s4.4-4.06 3.44-6.92z" fill="#ff003b"/><path d="m60.36 68.22c-.58.19-1.16.29-1.74.29-2.28 0-4.41-1.45-5.18-3.73l-10.29-30.68 10.36-3.47 1.6 4.76-3.15 1.05c-2.46.83-3.79 3.49-2.96 5.96l6.06 18.06c.56 1.68 2.13 2.74 3.81 2.74.42 0 .85-.07 1.27-.21 2.07-.7 3.2-2.92 2.55-5l1.11 3.3c.96 2.87-.58 5.97-3.44 6.93z" opacity=".2"/><path d="m55.23 29.15-1.09-3.26c-.15-.45-.64-.69-1.09-.54l-12.72 4.27c-.45.15-.69.64-.54 1.09l1.09 3.26c.15.45.64.69 1.09.54l12.72-4.27c.45-.15.69-.64.54-1.09z" fill="#5cc1e6"/><path d="m54.69 30.23-12.72 4.27c-.45.15-.93-.09-1.08-.54l-1.09-3.26c-.16-.45.09-.93.54-1.08l2.62-.88c-.35.13-.54.51-.42.86l.88 2.62c.12.37.52.56.88.44l10.23-3.43c.35-.13.54-.49.45-.84l.25.76c.15.45-.09.94-.54 1.08z" opacity=".25"/><path d="m54.09 25.73.05.16c-.15-.44-.62-.68-1.06-.55l.13-.04c.36-.13.76.08.88.43z" opacity=".2"/><path d="m54.98 28.4-.84-2.5.83 2.46s.01.03.01.04z" opacity=".2"/><path d="m42.65 54.14c0 2.95-2.38 5.36-5.34 5.36-2.95 0-5.34-2.41-5.34-5.36 0-2.2 3.01-6.98 4.51-9.23.39-.59 1.27-.59 1.66 0 1.5 2.25 4.51 7.03 4.51 9.23z" fill="#ff003b"/><path d="m64.09 20.64c0 2.57-2.08 4.67-4.65 4.67s-4.65-2.1-4.65-4.67c0-1.87 2.48-5.87 3.82-7.89.4-.6 1.27-.6 1.66 0 1.33 2.02 3.82 6.02 3.82 7.89z" fill="#ff003b"/><path d="m64.09 20.65c0 2.57-2.08 4.67-4.66 4.67-2.57 0-4.65-2.1-4.65-4.67 0-1.87 2.49-5.87 3.82-7.89.4-.6 1.27-.6 1.66 0 .37.56.82 1.26 1.29 2.03-.03-.05-.06-.09-.09-.13-.27-.41-.87-.41-1.14 0-.92 1.38-2.62 4.13-2.62 5.41 0 1.77 1.43 3.21 3.19 3.21 1.66 0 3.02-1.27 3.18-2.88.02.08.02.17.02.25z" opacity=".2"/><path d="m42.69 54.1c0 2.97-2.4 5.4-5.38 5.4-2.97 0-5.37-2.43-5.37-5.4 0-2.16 2.88-6.78 4.41-9.12.46-.69 1.47-.69 1.92 0 .43.65.95 1.46 1.49 2.35-.03-.06-.07-.1-.1-.15-.31-.47-1.01-.47-1.32 0-1.06 1.59-3.03 4.77-3.03 6.25 0 2.05 1.65 3.71 3.69 3.71 1.92 0 3.49-1.47 3.67-3.33.02.11.02.2.02.29z" opacity=".2"/></g></svg>