<svg height="512" viewBox="0 0 512 512" width="512" xmlns="http://www.w3.org/2000/svg"><g id="Filled_outline" data-name="Filled outline"><path d="m409.373 121.373a32 32 0 0 0 -22.628-9.373h-118.745a20 20 0 0 0 -20 20 20 20 0 0 0 20 20 20 20 0 0 0 -20 20 20 20 0 0 0 20 20 20 20 0 0 0 -20 20 20 20 0 0 0 20 20h60v9.353a82.389 82.389 0 0 0 40 70.647h64v-168z" fill="#3ba6d4"/><path d="m24 64h368v48h-368z" fill="#e0e0de"/><path d="m56 64h48v48h-48z" fill="#ffb531"/><path d="m136 64h48v48h-48z" fill="#d46c6c"/><path d="m216 64h48v48h-48z" fill="#60d1e0"/><path d="m368 312v48h120v-269.11a24 24 0 0 0 -8.2-18.061l-49.014-42.891a24 24 0 0 0 -15.804-5.938h-82.982a20 20 0 0 0 -20 20 20 20 0 0 0 20 20h60l40 32v88l-80-80a22.627 22.627 0 0 0 -32 0 22.627 22.627 0 0 0 0 32l56 56a137.37 137.37 0 0 0 -9.353 116.391l1.353 3.609v48" fill="#4db7e5"/><path d="m488 360v128h-120l16-128z" fill="#fec9a3"/><path d="m488 360v24h-107l3-24z" fill="#fec093"/><path d="m392 320h96v16h-96z" fill="#3ba6d4"/><rect fill="#2d97c4" height="16" rx="8" width="56" x="264" y="144"/><rect fill="#2d97c4" height="16" rx="8" width="72" x="264" y="184"/><path d="m216 488h-160a16 16 0 0 1 -16-16v-208h192v208a16 16 0 0 1 -16 16z" fill="#e0e0de"/><path d="m24 208h224v56h-224z" fill="#348fd9"/><g fill="#2d7dbf"><path d="m48 232h16v32h-16z"/><path d="m80 232h16v32h-16z"/><path d="m112 232h16v32h-16z"/><path d="m144 232h16v32h-16z"/><path d="m176 232h16v32h-16z"/><path d="m208 232h16v32h-16z"/></g><path d="m40 344h192a0 0 0 0 1 0 0v128a16 16 0 0 1 -16 16h-160a16 16 0 0 1 -16-16v-128a0 0 0 0 1 0 0z" fill="#ffb531"/><path d="m128 312h104v96h-104z" fill="#a0dde5"/><path d="m152 368h80v16h-80z" fill="#8fd0d9"/><path d="m152 336h16v16h-16z" fill="#8fd0d9"/><path d="m184 336h48v16h-48z" fill="#8fd0d9"/><path d="m64 344h16v40h-16z" fill="#ffc361"/><path d="m64 288h16v16h-16z" fill="#f2f2f2"/><path d="m64 320h16v24h-16z" fill="#f2f2f2"/><path d="m40 264h192v24h-192z" fill="#d9d9d7"/><path d="m485.068 66.81-49.011-42.892a32.015 32.015 0 0 0 -21.077-7.918h-82.98a28.022 28.022 0 0 0 -25.311 40h-282.689a8 8 0 0 0 -8 8v48a8 8 0 0 0 8 8h281.387a30.532 30.532 0 0 0 8.956 21.657l51.773 51.774a144.815 144.815 0 0 0 -13.508 94.7 74.709 74.709 0 0 1 -16.608-46.781v-9.35a8 8 0 0 0 -8-8h-60a12 12 0 0 1 0-24h68v-16h-68a12 12 0 0 1 0-24h36v-16h-36a12.011 12.011 0 0 1 -12-12h-16a27.816 27.816 0 0 0 8.2 19.8c.072.072.148.139.221.21a27.964 27.964 0 0 0 -.221 39.79c.072.072.148.139.221.21a27.989 27.989 0 0 0 19.579 47.99h52v1.35a90.888 90.888 0 0 0 40 75.041v43.609a8 8 0 0 0 8 8h6.938l-14.876 119.008a8 8 0 0 0 7.938 8.992h120a8 8 0 0 0 8-8v-72h-16v64h-102.938l14-112h88.938v32h16v-309.11a32 32 0 0 0 -10.932-24.08zm-277.068 5.19v32h-16v-32zm-80 0v32h-16v-32zm-96 0h16v32h-16zm32 32v-32h32v32zm80 0v-32h32v32zm80 0v-32h32v32zm48 0v-32h112v32h-20.686l-5.657-5.657a30.608 30.608 0 0 0 -47.767 5.657zm128-23.355 24 19.2v24.842l-8.973-8.974a39.831 39.831 0 0 0 -15.027-9.47zm-17.054 115.324a8 8 0 0 0 -1.289-9.626l-56-56a14.809 14.809 0 0 1 0-20.686 14.644 14.644 0 0 1 20.686 0l80 80 11.314-11.314-58.343-58.343h7.436a24.161 24.161 0 0 1 16.963 7.027l22.63 22.63a8.057 8.057 0 0 0 13.657-5.657v-48a8 8 0 0 0 -3-6.247l-40-32a7.962 7.962 0 0 0 -5-1.753h-60a12 12 0 0 1 0-24h82.98a16.007 16.007 0 0 1 10.541 3.961l49.01 42.89a16 16 0 0 1 5.469 12.039v229.11h-88v16h88v16h-104v-40a13.323 13.323 0 0 0 -1.863-6.417 129 129 0 0 1 8.809-109.614z"/><path d="m240 256h-16v-24h-16v24h-16v-24h-16v24h-16v-24h-16v24h-16v-24h-16v24h-16v-24h-16v24h-16v-24h-16v24h-16v-40h192v-16h-200a8 8 0 0 0 -8 8v56a8 8 0 0 0 8 8h200v32h-96a8 8 0 0 0 -8 8v24h-40v-16h-16v16h-16v-48h-16v184a24.028 24.028 0 0 0 24 24h160a24.028 24.028 0 0 0 24-24v-200h8a8 8 0 0 0 8-8v-16h-16zm-104 64h88v16h-40v16h40v16h-72v16h72v16h-88zm80 160h-160a8.009 8.009 0 0 1 -8-8v-120h16v32h16v-32h40v56a8 8 0 0 0 8 8h96v56a8.009 8.009 0 0 1 -8 8z"/><path d="m152 336h16v16h-16z"/><path d="m64 288h16v16h-16z"/></g></svg>