<?xml version="1.0" encoding="iso-8859-1"?>
<!-- Generator: Adobe Illustrator 19.0.0, SVG Export Plug-In . SVG Version: 6.00 Build 0)  -->
<svg version="1.1" id="Capa_1" xmlns="http://www.w3.org/2000/svg" xmlns:xlink="http://www.w3.org/1999/xlink" x="0px" y="0px"
	 viewBox="0 0 512 512" style="enable-background:new 0 0 512 512;" xml:space="preserve">
<polyline style="fill:#DAEDF7;" points="432.941,97.882 432.941,128 79.059,128 79.059,97.882 "/>
<path style="fill:#FFFFFF;" d="M425.412,129.882v346.948c0,15.265-12.374,27.64-27.64,27.64H114.228
	c-15.265,0-27.64-12.374-27.64-27.64V129.882"/>
<rect x="167.524" y="122.348" style="fill:#DAEDF7;" width="24.471" height="139.294"/>
<path style="fill:#FEC108;" d="M412.235,250.353l-12.294-4.843c-32.322-12.733-67.927-14.522-101.363-5.091l-21.872,6.169
	l67.765,22.588L412.235,250.353z"/>
<g>
	<rect x="205.171" y="122.348" style="fill:#DAEDF7;" width="13.171" height="139.294"/>
	<path style="fill:#DAEDF7;" d="M131.765,476.831V129.882H86.588v346.948c0,15.266,12.374,27.64,27.639,27.64h45.176
		C144.139,504.471,131.765,492.096,131.765,476.831z"/>
</g>
<path style="fill:#FEC108;" d="M425.412,242.824l-33.36,14.405c-31.408,13.563-67.163,12.786-97.954-2.127l0,0
	c-46.068-22.314-99.139-25.303-147.422-8.302l-58.205,20.495l1.739,219.128c0.079,9.975,8.217,18.003,18.192,17.947l297.269-1.68
	c9.9-0.056,17.916-8.059,17.988-17.959L425.412,242.824z"/>
<path style="fill:#FEDA6B;" d="M425.412,242.824l-33.36,14.405c-31.408,13.563-67.163,12.786-97.954-2.127l0,0
	c-46.068-22.314-99.139-25.303-147.422-8.302l-58.205,20.495l1.739,219.128c0.079,9.975,8.217,18.003,18.192,17.947l297.269-1.68
	c9.9-0.056,17.916-8.059,17.988-17.959L425.412,242.824z"/>
<rect id="SVGCleanerId_0" x="56.471" y="7.529" style="fill:#FF403D;" width="399.059" height="90.353"/>
<path style="fill:#FEC108;" d="M154.353,506.353h-39.757c-14.428,0-26.125-11.697-26.125-26.125V265.412l43.294-11.294
	l1.509,202.139C133.414,475.082,140.991,493.09,154.353,506.353L154.353,506.353z"/>
<g>
	<polyline style="fill:#FFFFFF;" points="425.412,286.118 372.706,286.118 372.706,436.706 425.412,436.706 	"/>
	<rect x="88.466" y="286.118" style="fill:#FFFFFF;" width="171.289" height="148.701"/>
</g>
<rect x="88.466" y="286.118" style="fill:#DAEDF7;" width="45.176" height="148.701"/>
<g>
	<rect id="SVGCleanerId_0_1_" x="56.471" y="7.529" style="fill:#FF403D;" width="399.059" height="90.353"/>
</g>
<g>
	<rect x="56.471" y="75.294" style="fill:#BF302E;" width="399.059" height="22.588"/>
	<rect x="71.529" y="7.529" style="fill:#BF302E;" width="15.059" height="37.647"/>
	<rect x="109.176" y="7.529" style="fill:#BF302E;" width="15.059" height="82.824"/>
	<rect x="146.824" y="7.529" style="fill:#BF302E;" width="15.059" height="37.647"/>
	<rect x="184.471" y="7.529" style="fill:#BF302E;" width="15.059" height="82.824"/>
	<rect x="222.118" y="7.529" style="fill:#BF302E;" width="15.059" height="37.647"/>
	<rect x="259.765" y="7.529" style="fill:#BF302E;" width="15.059" height="82.824"/>
	<rect x="297.412" y="7.529" style="fill:#BF302E;" width="15.059" height="37.647"/>
	<rect x="335.059" y="7.529" style="fill:#BF302E;" width="15.059" height="82.824"/>
	<rect x="372.706" y="7.529" style="fill:#BF302E;" width="15.059" height="37.647"/>
	<rect x="410.353" y="7.529" style="fill:#BF302E;" width="15.059" height="82.824"/>
</g>
<path d="M463.059,105.412H48.941V0h414.118V105.412z M64,90.353h384V15.059H64V90.353z"/>
<rect x="79.059" y="9.412" width="15.059" height="35.765"/>
<rect x="116.706" y="9.412" width="15.059" height="65.877"/>
<rect x="154.353" y="9.412" width="15.059" height="35.765"/>
<rect x="192" y="9.412" width="15.059" height="65.877"/>
<rect x="229.647" y="9.412" width="15.059" height="35.765"/>
<rect x="267.294" y="9.412" width="15.059" height="65.877"/>
<rect x="304.941" y="9.412" width="15.059" height="35.765"/>
<rect x="342.588" y="9.412" width="15.059" height="65.877"/>
<rect x="380.235" y="7.529" width="15.059" height="37.647"/>
<rect x="417.882" y="9.412" width="15.059" height="65.877"/>
<rect x="184.471" y="120.471" width="15.059" height="15.059"/>
<g>
	<rect x="109.176" y="466.824" style="fill:#FFFFFF;" width="15.059" height="15.059"/>
	<rect x="139.294" y="466.824" style="fill:#FFFFFF;" width="143.059" height="15.059"/>
</g>
<g>
	<rect x="86.588" y="308.706" style="fill:#FF403D;" width="67.765" height="15.059"/>
	<rect x="192" y="338.824" style="fill:#FF403D;" width="15.059" height="15.059"/>
	<rect x="192" y="368.941" style="fill:#FF403D;" width="15.059" height="15.059"/>
	<rect x="192" y="399.059" style="fill:#FF403D;" width="15.059" height="15.059"/>
</g>
<rect x="222.118" y="308.706" width="15.059" height="15.059"/>
<rect x="395.294" y="316.235" style="fill:#FF403D;" width="30.118" height="15.059"/>
<g>
	<rect x="146.824" y="167.524" style="fill:#FEC108;" width="15.059" height="35.765"/>
	<rect x="161.882" y="203.294" style="fill:#FEC108;" width="15.059" height="15.059"/>
</g>
<g>
	<rect x="282.353" y="286.118" style="fill:#FFFFFF;" width="15.059" height="15.059"/>
	<rect x="297.412" y="301.176" style="fill:#FFFFFF;" width="15.059" height="15.059"/>
	<rect x="335.059" y="355.76" style="fill:#FFFFFF;" width="15.059" height="13.171"/>
	<rect x="274.824" y="399.059" style="fill:#FFFFFF;" width="15.059" height="16.941"/>
	<rect x="297.412" y="414.118" style="fill:#FFFFFF;" width="15.059" height="15.059"/>
	<rect x="387.765" y="461.171" style="fill:#FFFFFF;" width="15.059" height="15.059"/>
	<rect x="327.529" y="451.765" style="fill:#FFFFFF;" width="15.059" height="15.059"/>
	<rect x="199.529" y="256" style="fill:#FFFFFF;" width="15.059" height="15.059"/>
</g>
<g>
	<rect x="340.701" y="150.588" style="fill:#FEC108;" width="15.059" height="30.118"/>
	<rect x="380.235" y="188.235" style="fill:#FEC108;" width="15.059" height="26.353"/>
</g>
<path d="M48.941,0v105.412h22.588v30.118h7.529v341.301c0,19.392,15.777,35.169,35.169,35.169h283.545
	c19.392,0,35.168-15.777,35.168-35.169V135.529h7.529v-30.118h22.588V0H48.941z M417.882,476.831
	c0,11.088-9.021,20.111-20.11,20.111H114.228c-11.088,0-20.111-9.021-20.111-20.111v-32.595h173.176V278.588H94.118v-5.3
	l55.061-19.388c46.062-16.219,97.689-13.312,141.638,7.976c17.23,8.346,35.891,12.534,54.579,12.533
	c16.875,0,33.772-3.416,49.641-10.269l22.845-9.865v24.312h-52.706v165.647h52.706L417.882,476.831L417.882,476.831z
	 M94.118,399.059V384h75.294v-15.059H94.118v-15.059h75.294v-15.059H94.118v-45.176h158.118v135.529H94.118v-15.059h75.294v-15.059
	H94.118z M297.722,248.484l2.9-0.818c29.211-8.239,60.658-7.403,89.387,2.244l-0.944,0.408
	C359.758,262.973,326.487,262.298,297.722,248.484z M380.235,429.176V293.647h37.647v105.412h-7.529v15.059h7.529v15.059H380.235z
	 M425.412,120.471H214.588v15.059h203.294v102.344l-8.006,3.458l-7.175-2.826c-33.653-13.257-71.358-15.15-106.167-5.332
	l-21.312,6.011c-17.241-5.935-35.179-9.458-53.58-10.494c-26.428-1.486-52.494,2.215-77.465,11.007l-50.06,17.626V135.529h75.294
	v-15.059H86.588v-15.059h338.824V120.471z M448,90.353H64V15.059h15.059v30.118h15.059V15.059h22.588v60.235h15.059V15.059h22.588
	v30.118h15.059V15.059H192v60.235h15.059V15.059h22.588v30.118h15.059V15.059h22.588v60.235h15.059V15.059h22.588v30.118H320V15.059
	h22.588v60.235h15.059V15.059h22.588v30.118h15.059V15.059h22.588v60.235h15.059V15.059H448V90.353z"/>
<g>
</g>
<g>
</g>
<g>
</g>
<g>
</g>
<g>
</g>
<g>
</g>
<g>
</g>
<g>
</g>
<g>
</g>
<g>
</g>
<g>
</g>
<g>
</g>
<g>
</g>
<g>
</g>
<g>
</g>
</svg>
