<svg id="color_outline" height="512" viewBox="0 0 64 64" width="512" xmlns="http://www.w3.org/2000/svg"><g><path d="m40.59 24.59c.78.78.78 2.04 0 2.82l-20.18 20.18c-.78.78-2.04.78-2.82 0l-5.59-5.59 23-23z" fill="#f2f2f2"/></g><path d="m49.5 24.5-36.43 36.43c-1.33 1.33-3.12 2.07-5 2.07-1.95 0-3.72-.79-5-2.07s-2.07-3.05-2.07-5c0-1.88.74-3.67 2.07-5l8.93-8.93 5.59 5.59c.78.78 2.04.78 2.82 0l20.18-20.18c.78-.78.78-2.04 0-2.82l-2.59-2.59 10 1z" fill="#ea2424"/><path d="m19 51c-5.521 4.015-12.049 4.754-17.688 2.852-.205.666-.312 1.365-.312 2.078 0 1.95.79 3.72 2.07 5s3.05 2.07 5 2.07c1.88 0 3.67-.74 5-2.07l28.006-28.006c-7.479 5.635-14.434 12.197-22.076 18.076z" fill="#b01b1b"/><circle cx="13.5" cy="54.5" fill="#f27979" r="1.5"/><circle cx="6" cy="56" fill="#f27979" r="2"/><path d="m48 23-10-1-3-3 4.5-4.5z" fill="#aed3f2"/><path d="m63 8v6l-9.5 9.5-3.5-3.5 12.5-12.5z" fill="#414af2"/><path d="m45.911 10.129h17.678v4.243h-17.678z" fill="#3d71d9" transform="matrix(.707 -.707 .707 .707 7.374 42.302)"/><path d="m42.911 7.129h17.678v4.243h-17.678z" fill="#414af2" transform="matrix(.707 -.707 .707 .707 8.617 39.302)"/><path d="m56.5 1.5-12.5 12.5-3.5-3.5 9.5-9.5h6z" fill="#3d71d9"/><path d="m43.982 9.058h3.536v18.385h-3.536z" fill="#f28d52" transform="matrix(.707 -.707 .707 .707 .495 37.695)"/><circle cx="44" cy="26" fill="#f27979" r="1"/><path d="m40.59 27.41-20.18 20.18c-.78.78-2.04.78-2.82 0l-5.59-5.59 2-2 2.59 2.59c.78.78 2.04.78 2.82 0l19.59-19.59 1.59 1.59c.78.78.78 2.04 0 2.82z" fill="#ccc"/><path d="m34 27s-.8 3.63-1.59 4.41c-.78.79-2.04.79-2.82 0-.79-.78-.79-2.04 0-2.82.78-.79 4.41-1.59 4.41-1.59z" fill="#ea2424"/><circle cx="14" cy="49" fill="#f27979" r="1"/><circle cx="9.5" cy="49.5" fill="#73020c" r="1.5"/><g fill="#333359"><circle cx="14" cy="49" r="1"/><circle cx="44" cy="26" r="1"/><path d="m6 53c-.553 0-1 .448-1 1s.447 1 1 1c.552 0 1 .449 1 1s-.448 1-1 1-1-.449-1-1c0-.552-.447-1-1-1s-1 .448-1 1c0 1.654 1.346 3 3 3s3-1.346 3-3-1.346-3-3-3z"/><path d="m13.5 52c-1.379 0-2.5 1.122-2.5 2.5s1.121 2.5 2.5 2.5 2.5-1.122 2.5-2.5-1.121-2.5-2.5-2.5zm0 3c-.275 0-.5-.224-.5-.5s.225-.5.5-.5.5.224.5.5-.225.5-.5.5z"/><circle cx="9.5" cy="49.5" r="1.5"/><path d="m56.707.293c-.187-.188-.441-.293-.707-.293h-6c-.266 0-.52.105-.707.293l-12 12c-.391.391-.391 1.023 0 1.414l.793.793-3.793 3.793s0 0 0 0l-11.999 12s0 0-.001 0 0 0 0 .001l-2.999 2.999h-.001s0 .001 0 .001l-2.999 2.999s-.001 0-.001.001 0 .001-.001.001l-13.929 13.928c-1.524 1.524-2.363 3.55-2.363 5.707 0 2.156.839 4.183 2.363 5.707 1.523 1.524 3.55 2.363 5.707 2.363 2.156 0 4.183-.839 5.707-2.363l35.723-35.723.793.793c.195.195.451.293.707.293s.512-.098.707-.293l12-12c.188-.187.293-.442.293-.707v-6c0-.265-.105-.52-.293-.707zm-8.293 16.707 11.086-11.086 1.586 1.586-11.086 11.086zm8.086-14.086 1.586 1.586-11.086 11.086-1.586-1.586zm-6.086-.914h4.172l-10.586 10.586-2.086-2.086zm-5.102 19.726-6.858-.686-2.04-2.04 3.086-3.086zm-32.949 38.497c-1.146 1.146-2.671 1.777-4.293 1.777-1.623 0-3.147-.631-4.293-1.777s-1.777-2.671-1.777-4.293c0-1.623.631-3.147 1.777-4.293l13.223-13.223 2.293 2.293c.195.195.451.293.707.293s.512-.098.707-.293c.391-.391.391-1.023 0-1.414l-2.293-2.293 1.586-1.586 3.293 3.293c.195.195.451.293.707.293s.512-.098.707-.293c.391-.391.391-1.023 0-1.414l-3.293-3.293 1.586-1.586 2.293 2.293c.195.195.451.293.707.293s.512-.098.707-.293c.391-.391.391-1.023 0-1.414l-2.293-2.293 10.586-10.586 4.879 4.879c.189.188.293.439.293.707s-.104.518-.293.707l-20.172 20.171c-.391.391-1.023.39-1.414 0l-3.586-3.586c-.391-.391-1.023-.391-1.414 0s-.391 1.023 0 1.414l3.586 3.586c.585.584 1.353.876 2.121.876s1.536-.292 2.121-.877l20.172-20.171c.566-.567.879-1.32.879-2.122s-.312-1.555-.879-2.121l-.605-.605 6.858.686.54.54zm38.637-35.637-11.586-11.586 1.086-1.086 11.586 11.586zm2.5-2.5-2.086-2.086 10.586-10.586v4.172z"/><path d="m31 32.999c.769 0 1.536-.292 2.121-.877.892-.891 1.595-3.727 1.855-4.905.073-.333-.028-.682-.27-.923-.242-.242-.593-.343-.923-.27-1.179.261-4.014.964-4.905 1.855-.566.566-.878 1.32-.878 2.121s.312 1.555.879 2.121c.585.585 1.352.878 2.121.878zm-.708-3.705c.226-.215 1.174-.576 2.322-.908-.332 1.147-.692 2.096-.907 2.321-.391.39-1.023.39-1.414 0-.189-.189-.293-.44-.293-.707s.104-.518.292-.706z"/><path d="m6.406 36.054.303-.129c.511-.209.756-.793.547-1.304-.211-.512-.797-.755-1.305-.546-.123.05-.242.101-.358.152-.641.286-2.593 1.155-2.593 2.773 0 1.6 1.827 2.814 5.751 3.821.084.021.167.031.25.031.445 0 .852-.3.968-.751.137-.535-.186-1.08-.72-1.217-3.858-.99-4.239-1.869-4.25-1.869 0 0 0 0-.001 0 .005-.014.155-.403 1.408-.961z"/><path d="m9.999 34.907c.073 0 .147-.008.222-.025 1.158-.262 2.479-.505 3.928-.723.546-.082.923-.591.841-1.137-.082-.545-.591-.922-1.138-.84-1.496.225-2.867.477-4.072.75-.539.122-.877.657-.755 1.196.105.464.517.779.974.779z"/><path d="m49.852 39.841c-.546.082-.923.591-.841 1.137.074.496.501.852.988.852.049 0 .099-.003.149-.011 10.852-1.628 10.852-4.029 10.852-4.819 0-.834 0-3.373-12.065-4.991-.548-.072-1.051.311-1.124.858s.311 1.05.858 1.124c8.061 1.081 10.214 2.583 10.333 2.993-.108.402-2.021 1.788-9.15 2.857z"/><path d="m39.046 42.841c2.098-.096 4.132-.236 6.048-.416.55-.052.953-.539.902-1.089-.052-.55-.534-.957-1.09-.902-1.884.177-3.886.314-5.952.409-.552.025-.979.493-.953 1.045.024.536.467.954.998.954.016 0 .031 0 .047-.001z"/></g></svg>