<svg id="flat" height="512" viewBox="0 0 64 64" width="512" xmlns="http://www.w3.org/2000/svg"><g><path d="m40.59 24.59c.78.78.78 2.04 0 2.82l-20.18 20.18c-.78.78-2.04.78-2.82 0l-5.59-5.59 23-23z" fill="#f2f2f2"/></g><path d="m49.5 24.5-36.43 36.43c-1.33 1.33-3.12 2.07-5 2.07-1.95 0-3.72-.79-5-2.07s-2.07-3.05-2.07-5c0-1.88.74-3.67 2.07-5l8.93-8.93 5.59 5.59c.78.78 2.04.78 2.82 0l20.18-20.18c.78-.78.78-2.04 0-2.82l-2.59-2.59 10 1z" fill="#ea2424"/><path d="m19 51c-5.521 4.015-12.049 4.754-17.688 2.852-.205.666-.312 1.365-.312 2.078 0 1.95.79 3.72 2.07 5s3.05 2.07 5 2.07c1.88 0 3.67-.74 5-2.07l28.006-28.006c-7.479 5.635-14.434 12.197-22.076 18.076z" fill="#b01b1b"/><circle cx="13.5" cy="54.5" fill="#f27979" r="1.5"/><circle cx="6" cy="56" fill="#f27979" r="2"/><path d="m48 23-10-1-3-3 4.5-4.5z" fill="#aed3f2"/><path d="m63 8v6l-9.5 9.5-3.5-3.5 12.5-12.5z" fill="#414af2"/><path d="m45.911 10.129h17.678v4.243h-17.678z" fill="#3d71d9" transform="matrix(.707 -.707 .707 .707 7.374 42.302)"/><path d="m42.911 7.129h17.678v4.243h-17.678z" fill="#414af2" transform="matrix(.707 -.707 .707 .707 8.617 39.302)"/><path d="m56.5 1.5-12.5 12.5-3.5-3.5 9.5-9.5h6z" fill="#3d71d9"/><path d="m43.982 9.058h3.536v18.385h-3.536z" fill="#f28d52" transform="matrix(.707 -.707 .707 .707 .495 37.695)"/><circle cx="44" cy="26" fill="#f27979" r="1"/><path d="m40.59 27.41-20.18 20.18c-.78.78-2.04.78-2.82 0l-5.59-5.59 2-2 2.59 2.59c.78.78 2.04.78 2.82 0l19.59-19.59 1.59 1.59c.78.78.78 2.04 0 2.82z" fill="#ccc"/><path d="m34 27s-.8 3.63-1.59 4.41c-.78.79-2.04.79-2.82 0-.79-.78-.79-2.04 0-2.82.78-.79 4.41-1.59 4.41-1.59z" fill="#ea2424"/><circle cx="14" cy="49" fill="#f27979" r="1"/><circle cx="9.5" cy="49.5" fill="#73020c" r="1.5"/></svg>