<svg clip-rule="evenodd" fill-rule="evenodd" height="512" image-rendering="optimizeQuality" shape-rendering="geometricPrecision" text-rendering="geometricPrecision" viewBox="0 0 1707 1707" width="512" xmlns="http://www.w3.org/2000/svg"><g id="Layer_x0020_1"><path d="m273 149c140 160 172 281 152 362-21 84-96 126-171 126s-149-42-171-126c-20-81 12-203 154-363 8-10 23-11 32-2 2 1 3 2 4 3zm-143 965 249-144v-146h-249zm249-92-249 144v261c0 68 55 124 124 124 69 0 125-56 125-124zm106-198h-61v159 444c0 93-76 169-170 169s-170-76-170-169v-274-1-328h-61c-13 0-23-10-23-23v-126c0-12 10-23 23-23h462c13 0 23 11 23 23v126c0 13-10 23-23 23zm-440-45h62 294 62v-81h-418zm903-213c-59 0-108-48-108-107s49-107 108-107 107 48 107 107-48 107-107 107zm0-168c-34 0-62 27-62 61s28 62 62 62 61-28 61-62-27-61-61-61zm64 533h-170c-13 0-23-10-23-23 0-12 10-22 23-22h170c13 0 23 10 23 22 0 13-10 23-23 23zm-64-135c-3 0-5 0-7 0-2 0-4 0-5-1h-4-2c-45-3-86-17-122-39l-1-1-2-1c-18-12-35-26-50-41 0-1-1-2-1-2-44-47-70-110-70-179 0-145 118-264 264-264 145 0 263 119 263 264 0 69-26 132-70 179 0 0-1 1-1 2-15 16-32 29-50 41l-1 1-3 1c-35 22-76 36-120 39h-3-3c-2 1-4 1-6 1-2 0-4 0-6 0zm-174-132c48-42 110-66 174-66s126 24 173 66c28-37 45-82 45-132 0-120-98-218-218-218-121 0-219 98-219 218 0 50 17 95 45 132zm316 33c-39-34-89-53-142-53-54 0-104 19-143 53 38 33 88 53 143 53 54 0 104-20 142-53zm342 99c-6 0-12-2-16-7l-55-55c-9-8-9-23 0-32s23-9 32 0l39 39 125-126c9-8 23-8 32 0 9 9 9 24 0 33l-141 141c-5 5-10 7-16 7zm-123 655h-602c-13 0-23-10-23-23 0-12 10-22 23-22h602c13 0 23 10 23 22 0 13-10 23-23 23zm264-104h-866c-13 0-23-10-23-23 0-12 10-22 23-22h866c13 0 23 10 23 22 0 13-10 23-23 23zm0-104h-487c-12 0-23-10-23-23 0-12 11-22 23-22h487c13 0 23 10 23 22 0 13-10 23-23 23zm0-104h-866c-13 0-23-10-23-23 0-12 10-22 23-22h866c13 0 23 10 23 22 0 13-10 23-23 23zm0-104h-866c-13 0-23-10-23-23 0-12 10-22 23-22h866c13 0 23 10 23 22 0 13-10 23-23 23zm-135-104h-322c-12 0-23-10-23-23 0-12 11-22 23-22h322c13 0 23 10 23 22 0 13-10 23-23 23zm246 665h-1088c-13 0-23-10-23-23v-1440c0-13 10-23 23-23h751c6 0 12 3 16 7l337 341c4 4 7 10 7 16v1099c0 13-10 23-23 23zm-1065-45h1042v-1068l-323-327h-719zm-377-1026c-13 0-24 11-24 24s11 23 24 23c11 0 23-2 34-5 12-2 23-7 32-13 21-12 36-28 44-48 10-20 13-44 11-68-3-28-12-57-25-85-12-27-28-54-45-78-7-10-22-13-32-5-11 7-13 22-6 32 15 22 30 46 41 70 11 23 18 47 20 70 2 17 0 32-6 45-5 11-13 20-25 27-6 4-13 7-20 9-8 1-15 2-23 2zm138-25c16-65-11-165-126-301-115 136-142 236-126 301 16 60 71 90 126 90s110-30 126-90z" fill-rule="nonzero"/><path d="m948 268c145 0 263 119 263 264 0 143-112 257-251 263l-12 1c-73 0-143-31-193-83-44-47-71-111-71-181 0-145 118-264 264-264zm-329-112v1395h1042v-1068l-323-327zm223 730h170c30 0 30 45 0 45h-170c-30 0-30-45 0-45zm551-184 39 39 125-126c21-21 53 11 32 33l-141 141c-5 5-10 7-16 7s-12-2-16-7l-55-55c-21-21 11-53 32-32zm-277 184h322c30 0 30 45 0 45h-322c-30 0-30-45 0-45zm-409 104h866c30 0 30 45 0 45h-866c-30 0-30-45 0-45zm0 104h866c30 0 30 45 0 45h-866c-30 0-30-45 0-45zm379 104h487c30 0 30 45 0 45h-487c-30 0-30-45 0-45zm-379 104h866c30 0 30 45 0 45h-866c-30 0-30-45 0-45zm0 104h602c30 0 30 45 0 45h-602c-30 0-30-45 0-45z" fill="#ffe4af"/><path d="m1009 459c0-34-27-61-61-61s-62 27-62 61 28 62 62 62 61-28 61-62z" fill="#ff9e5c"/><path d="m1090 697c-81-71-204-71-285 0 82 71 203 71 285 0z" fill="#ff3131"/><path d="m774 664c99-87 248-87 347 0 109-143 7-350-173-350-181 0-283 207-174 350zm281-205c0 59-48 107-107 107s-108-48-108-107 49-107 108-107 107 48 107 107z" fill="#ccc"/><path d="m379 970v-146h-249v290z" fill="#ccc"/><path d="m379 1022-249 144v261c0 68 55 124 124 124s125-56 125-124z" fill="#ff3131"/><path d="m45 779h418v-81h-418z" fill="#58535a"/><path d="m128 500c31 121 221 121 252 0 16-65-11-165-126-301-115 136-142 236-126 301zm114 72c-31 0-31-47 0-47 28 0 56-12 68-38 25-55-23-140-55-185-17-25 21-51 38-27 33 48 65 106 70 163 7 81-47 134-121 134z" fill="#ff3131"/></g></svg>