<svg id="Capa_1" enable-background="new 0 0 512 512" height="512" viewBox="0 0 512 512" width="512" xmlns="http://www.w3.org/2000/svg"><g><g><g><g><g><path d="m383.476 235.817h-71.94l-10.622-29.484v-87.374h93.185v87.374z" fill="#f6f9f9"/><path d="m347.506 118.959v116.858h35.97l10.623-29.484v-87.374z" fill="#d5e7ff"/></g><g><path d="m300.914 206.333v83.653l10 38.74-10 38.74v97.942c0 25.732 20.86 46.593 46.593 46.593 25.732 0 46.593-20.86 46.593-46.593v-259.075z" fill="#e17578"/><path d="m347.506 206.333v305.667c25.732 0 46.593-20.86 46.593-46.593v-259.074z" fill="#dd4d65"/></g></g><g><g><path d="m396.228 142.599h-97.443c-8.284 0-15-6.716-15-15v-112.599c0-8.284 6.716-15 15-15h97.443c8.284 0 15 6.716 15 15v112.599c0 8.284-6.716 15-15 15z" fill="#516b7d"/><path d="m396.228 0h-48.721v142.599h48.721c8.284 0 15-6.716 15-15v-112.599c0-8.284-6.716-15-15-15z" fill="#374963"/></g><g><path d="m347.506 143c-8.284 0-15-6.716-15-15v-113c0-8.284 6.716-15 15-15s15 6.716 15 15v113c0 8.284-6.716 15-15 15z" fill="#374963"/><path d="m347.506 0v143c8.284 0 15-6.716 15-15v-113c0-8.284-6.716-15-15-15z" fill="#242e4c"/></g></g></g><path d="m332.506 367.465h-31.593v-77.479h31.593c8.284 0 15 6.716 15 15v47.479c0 8.284-6.716 15-15 15z" fill="#f6f9f9"/></g><g><g><g><g><path d="m200.464 235.817h-71.94l-10.623-29.484v-87.374h93.186v87.374z" fill="#f6f9f9"/><path d="m164.494 118.959v116.858h35.97l10.623-29.484v-87.374z" fill="#d5e7ff"/></g><g><path d="m117.901 206.333v83.653l10 38.74-10 38.74v97.942c0 25.732 20.86 46.593 46.593 46.593 25.732 0 46.593-20.86 46.593-46.593v-259.075z" fill="#f4d844"/><path d="m164.494 206.333v305.667c25.732 0 46.593-20.86 46.593-46.593v-259.074z" fill="#edb92b"/></g></g><g><g><path d="m213.215 142.599h-97.443c-8.284 0-15-6.716-15-15v-112.599c0-8.284 6.716-15 15-15h97.443c8.284 0 15 6.716 15 15v112.599c0 8.284-6.716 15-15 15z" fill="#516b7d"/><path d="m213.215 0h-48.721v142.599h48.721c8.284 0 15-6.716 15-15v-112.599c0-8.284-6.716-15-15-15z" fill="#374963"/></g><g><path d="m164.494 143c-8.284 0-15-6.716-15-15v-113c0-8.284 6.716-15 15-15s15 6.716 15 15v113c0 8.284-6.716 15-15 15z" fill="#374963"/><path d="m164.494 0v143c8.284 0 15-6.716 15-15v-113c0-8.284-6.716-15-15-15z" fill="#242e4c"/></g></g></g><path d="m149.494 367.465h-31.593v-77.479h31.593c8.284 0 15 6.716 15 15v47.479c0 8.284-6.716 15-15 15z" fill="#f6f9f9"/></g></g></svg>