<svg height="512" viewBox="0 0 64 64" width="512" xmlns="http://www.w3.org/2000/svg"><g id="Layer_20" data-name="Layer 20"><path d="m42 10 7.293-7.293a2.414 2.414 0 0 1 1.707-.707 2.414 2.414 0 0 1 1.707.707l8.586 8.586a2.414 2.414 0 0 1 .707 1.707 2.414 2.414 0 0 1 -.707 1.707l-7.293 7.293z" fill="#383838"/><path d="m62 13a2.414 2.414 0 0 0 -.707-1.707l-5.586-5.586a2.414 2.414 0 0 0 -3.414 0l-7.293 7.293 9 9 7.293-7.293a2.414 2.414 0 0 0 .707-1.707z" fill="#4c4c4c"/><path d="m51 25-12-12-34.515 34.515a8.485 8.485 0 0 0 -2.485 6 8.485 8.485 0 0 0 8.485 8.485 8.485 8.485 0 0 0 6-2.485z" fill="#e73844"/><path d="m16.485 59.515 34.515-34.515-9-9-32.515 32.515a8.484 8.484 0 0 0 1.915 13.433 8.487 8.487 0 0 0 5.085-2.433z" fill="#ff4d55"/><path d="m39 13-19 19h24l7-7z" fill="#ccc"/><path d="m42 16-16 16h18l7-7z" fill="#e6e6e6"/><path d="m21.5 54.5-4.793-4.793a2.414 2.414 0 0 1 -.707-1.707 2.414 2.414 0 0 1 .707-1.707l18.586-18.586a2.414 2.414 0 0 1 1.707-.707 2.414 2.414 0 0 1 1.707.707l4.793 4.793z" fill="#f9cb5d"/><circle cx="46.021" cy="47" fill="#66c3e9" r="15.021"/><path d="m46.021 31.979a14.942 14.942 0 0 0 -6.72 1.6 15.007 15.007 0 0 0 16.44 24.86 15.013 15.013 0 0 0 -9.72-26.461z" fill="#8adef9"/><path d="m44.379 7.601h4.243v19.799h-4.243z" fill="#4c4c4c" transform="matrix(.707 -.707 .707 .707 1.245 38.006)"/><g fill="#636363"><path d="m43.136 7.5h12.728v2h-12.728z" transform="matrix(.707 -.707 .707 .707 8.488 37.491)"/><path d="m46.123 10.505h12.743v2h-12.743z" transform="matrix(.707 -.707 .707 .707 7.24 40.489)"/><path d="m49.136 13.5h12.728v2h-12.728z" transform="matrix(.707 -.707 .707 .707 6.003 43.491)"/></g><path d="m54 50c0-4.418-8-14-8-14s-8 9.582-8 14a8 8 0 0 0 16 0z" fill="#e73844"/><path d="m46.608 36.751c-2.289 2.97-6.608 9-6.608 12.249a7.987 7.987 0 0 0 10.546 7.579 7.989 7.989 0 0 0 3.454-6.579c0-3.681-5.538-10.926-7.392-13.249z" fill="#ff4d55"/><path d="m46 55a5.006 5.006 0 0 1 -5-5h2a3 3 0 0 0 3 3z" fill="#e73844"/><path d="m41.6 30.6-2.35-2.35-18.043 18.043a2.414 2.414 0 0 0 0 3.414l2.543 2.543 5.272-5.272a16.992 16.992 0 0 1 12.578-16.378z" fill="#ffd98c"/><path d="m42.5 13.5 11 11 1.5-1.5-12.5-12.5a2.122 2.122 0 0 0 0 3z" fill="#636363"/></g></svg>