<svg height="512" viewBox="0 0 64 64" width="512" xmlns="http://www.w3.org/2000/svg"><g id="_06-clipboard" data-name="06-clipboard"><path d="m63 12.138a13.454 13.454 0 0 1 -4.824 10.407l-15.176 12.455-15.176-12.455a13.454 13.454 0 0 1 -4.824-10.407 11.1 11.1 0 0 1 20-6.662 11.1 11.1 0 0 1 20 6.662z" fill="#e96565"/><path d="m53.741 1.167c.085.1.179.2.259.309.061-.082.132-.153.2-.233-.154-.031-.307-.05-.459-.076z" fill="#d34c4c"/><path d="m38.824 18.545a13.454 13.454 0 0 1 -4.824-10.407 11.1 11.1 0 0 1 2.389-6.886 11.043 11.043 0 0 0 -13.389 10.886 13.454 13.454 0 0 0 4.824 10.407l15.176 12.455 7.937-6.514z" fill="#d34c4c"/><path d="m26 19h11v44h-36v-44h11z" fill="#298279"/><path d="m26 22h8v38h-30v-38h8z" fill="#eaeaea"/><path d="m7 27h8v8h-8z" fill="#e9c3b0"/><path d="m7 38h8v8h-8z" fill="#e9c3b0"/><path d="m7 49h8v8h-8z" fill="#e9c3b0"/><path d="m7 27v-8h-6v44h36v-6a30 30 0 0 1 -30-30z" opacity=".2"/><path d="m9 52 2 2 6-5" fill="none"/><path d="m12 17h14v7h-14z" fill="#5fcfb1"/><path d="m18 28h14v2h-14z" fill="#606060"/><path d="m18 32h9v2h-9z" fill="#606060"/><path d="m29 32h3v2h-3z" fill="#606060"/><path d="m11 33a1 1 0 0 1 -.707-.293l-2-2 1.414-1.414 1.355 1.354 5.3-4.415 1.28 1.536-6 5a1 1 0 0 1 -.642.232z" fill="#2f5ca9"/><path d="m11 44a1 1 0 0 1 -.707-.293l-2-2 1.414-1.414 1.355 1.354 5.3-4.415 1.28 1.536-6 5a1 1 0 0 1 -.642.232z" fill="#2f5ca9"/><path d="m11 55a1 1 0 0 1 -.707-.293l-2-2 1.414-1.414 1.355 1.354 5.3-4.415 1.28 1.536-6 5a1 1 0 0 1 -.642.232z" fill="#2f5ca9"/><g fill="#606060"><path d="m18 39h5v2h-5z"/><path d="m25 39h7v2h-7z"/><path d="m18 43h8v2h-8z"/><path d="m28 43h4v2h-4z"/><path d="m18 54h14v2h-14z"/><path d="m18 50h10v2h-10z"/><path d="m30 50h2v2h-2z"/></g><path d="m43 25h-.055a1 1 0 0 1 -.923-.79l-2.402-11.21-1.72 3.447a1 1 0 0 1 -.9.553h-4v-2h3.382l2.718-5.447a1 1 0 0 1 1.873.238l2.237 10.417 1.841-5.524a1 1 0 0 1 1.878-.056l1.171 2.933 1-2.008a1 1 0 0 1 .9-.553h3v2h-2.382l-1.718 3.447a1.031 1.031 0 0 1 -.937.552 1 1 0 0 1 -.887-.627l-.986-2.466-2.136 6.41a1 1 0 0 1 -.954.684z" fill="#fff"/></g></svg>