<svg height="414pt" viewBox="0 0 414 414" width="414pt" xmlns="http://www.w3.org/2000/svg"><path d="m414 207c0 114.324219-92.675781 207-207 207s-207-92.675781-207-207 92.675781-207 207-207 207 92.675781 207 207zm0 0" fill="#f0c48a"/><path d="m249.878906 334.367188h-166.476562c-7.847656 0-14.210938-6.363282-14.210938-14.210938v-206.957031c0-7.847657 6.363282-14.210938 14.210938-14.210938h166.476562c7.851563 0 14.210938 6.363281 14.210938 14.210938v206.953125c0 7.851562-6.363282 14.214844-14.210938 14.214844zm0 0" fill="#fff"/><path d="m249.878906 98.988281h-14.445312v235.378907h14.445312c7.847656 0 14.210938-6.363282 14.210938-14.210938v-206.957031c0-7.847657-6.363282-14.210938-14.210938-14.210938zm0 0" fill="#d3e6f8"/><g fill="#4c4372"><path d="m249.878906 340.367188h-166.476562c-11.144532 0-20.210938-9.066407-20.210938-20.210938v-206.957031c0-11.140625 9.066406-20.210938 20.210938-20.210938h166.476562c11.144532 0 20.210938 9.070313 20.210938 20.210938v206.953125c0 11.148437-9.066406 20.214844-20.210938 20.214844zm-166.476562-235.378907c-4.527344 0-8.210938 3.683594-8.210938 8.210938v206.953125c0 4.53125 3.683594 8.210937 8.210938 8.210937h166.476562c4.527344 0 8.210938-3.679687 8.210938-8.210937v-206.953125c0-4.527344-3.683594-8.210938-8.210938-8.210938zm0 0"/><path d="m170.660156 227.496094c-.0625 0-.125-.003906-.1875-.003906-2.398437-.074219-4.523437-1.574219-5.402344-3.808594l-21.695312-55.394532-13.828125 27.285157c-1.023437 2.015625-3.09375 3.285156-5.351563 3.285156h-24.945312c-3.3125 0-6-2.683594-6-6 0-3.3125 2.6875-6 6-6h21.257812l18.21875-35.9375c1.070313-2.109375 3.273438-3.394531 5.640626-3.28125 2.363281.113281 4.4375 1.605469 5.300781 3.804687l21.464843 54.808594 19.796876-42.5625c1.003906-2.15625 3.160156-3.515625 5.558593-3.46875 2.375.046875 4.5 1.492188 5.417969 3.683594l9.609375 22.953125h22.519531c3.3125 0 6 2.6875 6 6 0 3.316406-2.6875 6-6 6h-26.515625c-2.417969 0-4.601562-1.449219-5.535156-3.683594l-5.902344-14.105469-19.980469 42.953126c-.988281 2.121093-3.113281 3.472656-5.441406 3.472656zm0 0"/><path d="m182.40625 259.320312h-84.558594c-3.3125 0-6-2.6875-6-6s2.6875-6 6-6h84.558594c3.316406 0 6 2.6875 6 6s-2.683594 6-6 6zm0 0"/><path d="m182.40625 285.085938h-84.558594c-3.3125 0-6-2.6875-6-6s2.6875-6 6-6h84.558594c3.316406 0 6 2.6875 6 6s-2.683594 6-6 6zm0 0"/><path d="m182.40625 310.851562h-84.558594c-3.3125 0-6-2.6875-6-6 0-3.316406 2.6875-6 6-6h84.558594c3.316406 0 6 2.683594 6 6 0 3.3125-2.683594 6-6 6zm0 0"/></g><path d="m201.078125 118.347656h-68.875c-3.523437 0-6.378906-2.859375-6.378906-6.378906v-25.957031c0-3.523438 2.855469-6.378907 6.378906-6.378907h68.875c3.523437 0 6.378906 2.855469 6.378906 6.378907v25.957031c0 3.519531-2.855469 6.378906-6.378906 6.378906zm0 0" fill="#fd919e"/><path d="m205.132812 253.320312h30.300782v51.53125h-30.300782zm0 0" fill="#7babf1"/><path d="m235.433594 310.851562h-30.300782c-3.3125 0-6-2.6875-6-6v-51.53125c0-3.3125 2.6875-6 6-6h30.300782c3.3125 0 6 2.6875 6 6v51.53125c0 3.3125-2.6875 6-6 6zm-24.300782-12h18.300782v-39.53125h-18.300782zm0 0" fill="#4c4372"/><path d="m182.40625 79.632812h18.671875c3.523437 0 6.378906 2.855469 6.378906 6.378907v25.957031c0 3.519531-2.855469 6.378906-6.378906 6.378906h-18.671875zm0 0" fill="#e8677d"/><path d="m201.078125 124.347656h-68.875c-6.824219 0-12.378906-5.554687-12.378906-12.378906v-25.957031c0-6.824219 5.554687-12.378907 12.378906-12.378907h68.875c6.824219 0 12.378906 5.554688 12.378906 12.378907v25.957031c0 6.824219-5.554687 12.378906-12.378906 12.378906zm-68.875-38.714844c-.210937 0-.378906.171876-.378906.378907v25.957031c0 .207031.167969.378906.378906.378906h68.875c.207031 0 .378906-.171875.378906-.378906v-25.957031c0-.207031-.171875-.378907-.378906-.378907zm0 0" fill="#4c4372"/><path d="m299.320312 334.367188c-7.148437 0-12.941406-5.796876-12.941406-12.945313v-107.484375h25.882813v107.484375c0 7.148437-5.792969 12.945313-12.941407 12.945313zm0 0" fill="#a4cff2"/><path d="m299.320312 340.367188c-10.445312 0-18.941406-8.5-18.941406-18.945313v-107.484375c0-3.3125 2.683594-6 6-6h25.882813c3.3125 0 6 2.6875 6 6v107.484375c0 10.445313-8.496094 18.945313-18.941407 18.945313zm-6.941406-120.429688v101.484375c0 3.828125 3.113282 6.945313 6.941406 6.945313 3.828126 0 6.941407-3.117188 6.941407-6.945313v-101.484375zm0 0" fill="#4c4372"/><path d="m312.261719 316.835938h-25.882813c-3.316406 0-6-2.6875-6-6 0-3.316407 2.683594-6 6-6h25.882813c3.3125 0 6 2.683593 6 6 0 3.3125-2.6875 6-6 6zm0 0" fill="#4c4372"/><path d="m364.808594 190.039062c0 36.167969-29.320313 65.488282-65.488282 65.488282-36.167968 0-65.488281-29.320313-65.488281-65.488282 0-36.167968 29.320313-65.488281 65.488281-65.488281 36.167969 0 65.488282 29.320313 65.488282 65.488281zm0 0" fill="#d3e6f8"/><path d="m341.8125 190.039062c0 23.46875-19.023438 42.492188-42.492188 42.492188s-42.492187-19.023438-42.492187-42.492188 19.023437-42.492187 42.492187-42.492187 42.492188 19.023437 42.492188 42.492187zm0 0" fill="#fff"/><path d="m299.320312 261.527344c-39.417968 0-71.488281-32.070313-71.488281-71.488282 0-39.421874 32.070313-71.488281 71.488281-71.488281 39.417969 0 71.488282 32.066407 71.488282 71.488281 0 39.417969-32.070313 71.488282-71.488282 71.488282zm0-130.976563c-32.804687 0-59.488281 26.683594-59.488281 59.488281 0 32.800782 26.6875 59.488282 59.488281 59.488282 32.800782 0 59.488282-26.6875 59.488282-59.488282 0-32.804687-26.6875-59.488281-59.488282-59.488281zm0 0" fill="#4c4372"/><path d="m299.320312 238.53125c-26.738281 0-48.492187-21.753906-48.492187-48.492188 0-26.738281 21.753906-48.492187 48.492187-48.492187 26.738282 0 48.492188 21.753906 48.492188 48.492187 0 26.738282-21.753906 48.492188-48.492188 48.492188zm0-84.984375c-20.121093 0-36.492187 16.367187-36.492187 36.492187 0 20.121094 16.371094 36.492188 36.492187 36.492188 20.121094 0 36.492188-16.371094 36.492188-36.492188 0-20.125-16.371094-36.492187-36.492188-36.492187zm0 0" fill="#4c4372"/></svg>