<?xml version="1.0" encoding="iso-8859-1"?>
<!-- Generator: Adobe Illustrator 19.0.0, SVG Export Plug-In . SVG Version: 6.00 Build 0)  -->
<svg xmlns="http://www.w3.org/2000/svg" xmlns:xlink="http://www.w3.org/1999/xlink" version="1.1" id="Layer_1" x="0px" y="0px" viewBox="0 0 512 512" style="enable-background:new 0 0 512 512;" xml:space="preserve" width="512" height="512">
<g>
	<g>
		<g>
			<g>
				<g>
					<path style="fill:#FC7F5E;" d="M373.349,512H69.297c-19.678,0-35.63-15.952-35.63-35.63V62.151       c0-19.678,15.952-35.63,35.63-35.63h304.052c19.678,0,35.63,15.952,35.63,35.63V476.37       C408.979,496.048,393.027,512,373.349,512z"/>
					<path style="fill:#E86C36;" d="M373.349,26.521H356.44V512h16.909c19.678,0,35.63-15.952,35.63-35.63V62.151       C408.979,42.473,393.027,26.521,373.349,26.521z"/>
					<path style="fill:#E6FDFF;" d="M373.312,26.521H69.281c0,0,0,0,0,0v437.091c0,8.943,7.282,16.177,16.225,16.117l271.795-1.739       c8.86-0.059,16.011-7.258,16.011-16.117V26.521z"/>
					<g>
						<path style="fill:#C7E9EA;" d="M320.944,26.521v451.702l36.357-0.233c8.86-0.059,16.011-7.258,16.011-16.117V26.521H320.944z"/>
					</g>
					<path style="fill:#4E6665;" d="M275.353,54.178h-108.06c-9.486,0-17.175-7.69-17.175-17.175V17.175       C150.117,7.69,157.807,0,167.293,0h108.06c9.486,0,17.175,7.69,17.175,17.175v19.827       C292.528,46.488,284.838,54.178,275.353,54.178z"/>
					<path style="fill:#3F4F4F;" d="M275.353,0h-35.192v54.178h35.192c9.486,0,17.175-7.69,17.175-17.175V17.175       C292.528,7.69,284.839,0,275.353,0z"/>
				</g>
			</g>
			<g>
				<g>
					<g>
						<circle style="fill:#89EAF7;" cx="227.587" cy="255.979" r="101.802"/>
					</g>
					<path style="fill:#36D9F6;" d="M299.572,183.994c-26.599-26.599-64.251-35.374-98.169-26.38       c16.777,4.449,32.644,13.223,45.801,26.38c39.756,39.756,39.756,104.214,0,143.97c-13.157,13.157-29.025,21.931-45.801,26.38       c33.918,8.994,71.569,0.22,98.169-26.38C339.328,288.208,339.328,223.75,299.572,183.994z"/>
					<path style="fill:#FFFFFF;" d="M282.777,238.639h-37.849V200.79c0-5.389-4.369-9.758-9.758-9.758h-15.166       c-5.389,0-9.758,4.369-9.758,9.758v37.849h-37.849c-5.389,0-9.758,4.369-9.758,9.758v15.166c0,5.389,4.369,9.758,9.758,9.758       h37.849v37.849c0,5.389,4.369,9.758,9.758,9.758h15.166c5.389,0,9.758-4.369,9.758-9.758V273.32h37.849       c5.389,0,9.758-4.369,9.758-9.758v-15.166C292.534,243.007,288.166,238.639,282.777,238.639z"/>
				</g>
			</g>
		</g>
		<g>
			<g>
				<path style="fill:#BCDB4D;" d="M332.76,460.307l-35.903,48.578c-4.88,6.603-15.31,1.838-13.515-6.173l13.211-58.943      c0.63-2.809,1.55-5.545,2.746-8.164l139.942-306.368c3.188-6.98,11.431-10.053,18.41-6.865l12.557,5.736      c6.98,3.188,10.053,11.431,6.865,18.41L337.133,452.886C335.937,455.505,334.471,457.992,332.76,460.307z"/>
				<path style="fill:#4E6665;" d="M296.554,443.769l-13.211,58.943c-1.796,8.011,8.635,12.776,13.515,6.173l35.903-48.578      L296.554,443.769z"/>
			</g>
			
				<rect x="421.978" y="158.579" transform="matrix(-0.9096 -0.4155 0.4155 -0.9096 774.2422 511.5712)" style="fill:#FFC648;" width="41.593" height="25.956"/>
			<path style="fill:#4E6665;" d="M470.209,128.108l-12.557-5.736c-6.98-3.188-15.222-0.114-18.411,6.865l-9.992,21.875     l37.833,17.281l9.992-21.875C480.263,139.539,477.189,131.296,470.209,128.108z"/>
		</g>
	</g>
</g>















</svg>
