<svg id="Layer_1" height="512" viewBox="0 0 256 256" width="512" xmlns="http://www.w3.org/2000/svg"><g><path d="m16.5 109.032v116.824c0 7.681 6.227 13.908 13.908 13.908h136.683c7.681 0 13.908-6.227 13.908-13.908v-181.433c0-7.681-6.227-13.908-13.908-13.908h-136.683c-7.681 0-13.908 6.227-13.908 13.908v50.569z" fill="#87796f"/><path d="m167.092 241.265h-136.684c-8.496 0-15.408-6.912-15.408-15.408v-116.825c0-.828.671-1.5 1.5-1.5s1.5.672 1.5 1.5v116.824c0 6.842 5.566 12.408 12.408 12.408h136.684c6.842 0 12.408-5.566 12.408-12.408v-181.433c0-6.842-5.566-12.408-12.408-12.408h-136.684c-6.842 0-12.408 5.566-12.408 12.408v50.568c0 .828-.671 1.5-1.5 1.5s-1.5-.672-1.5-1.5v-50.568c0-8.496 6.912-15.408 15.408-15.408h136.684c8.496 0 15.408 6.912 15.408 15.408v181.434c0 8.495-6.912 15.408-15.408 15.408z" fill="#3a312a"/><path d="m109.667 227.47h50.564c3.904 0 7.068-3.164 7.068-7.068v-169.07c0-3.903-3.164-7.068-7.068-7.068h-122.962c-3.903 0-7.068 3.164-7.068 7.068v169.07c0 3.904 3.164 7.068 7.068 7.068h59.694z" fill="#f3dec3"/><path d="m160.23 228.97h-50.563c-.829 0-1.5-.672-1.5-1.5s.671-1.5 1.5-1.5h50.563c3.07 0 5.568-2.497 5.568-5.567v-169.071c0-3.07-2.498-5.567-5.568-5.567h-122.961c-3.07 0-5.568 2.497-5.568 5.567v169.07c0 3.07 2.497 5.567 5.568 5.567h59.694c.829 0 1.5.672 1.5 1.5s-.671 1.5-1.5 1.5h-59.694c-4.724 0-8.568-3.844-8.568-8.567v-169.07c0-4.724 3.844-8.567 8.568-8.567h122.961c4.725 0 8.568 3.844 8.568 8.567v169.07c.001 4.724-3.843 8.568-8.568 8.568z" fill="#3a312a"/><circle cx="59.317" cy="139.201" fill="#d5dc57" r="8.27"/><path d="m59.317 148.971c-5.387 0-9.77-4.383-9.77-9.77s4.383-9.77 9.77-9.77 9.77 4.383 9.77 9.77-4.383 9.77-9.77 9.77zm0-16.539c-3.733 0-6.77 3.037-6.77 6.77 0 3.732 3.037 6.77 6.77 6.77s6.77-3.037 6.77-6.77-3.037-6.77-6.77-6.77z" fill="#3a312a"/><path d="m59.088 144.438c-.398 0-.779-.158-1.061-.439l-6.28-6.281c-.586-.586-.586-1.535 0-2.121s1.536-.586 2.121 0l5.22 5.221 10.877-10.877c.586-.586 1.535-.586 2.121 0s.586 1.535 0 2.121l-11.937 11.938c-.282.279-.663.438-1.061.438z" fill="#3a312a"/><circle cx="59.317" cy="170.535" fill="#d5dc57" r="8.27"/><path d="m59.317 180.305c-5.387 0-9.77-4.383-9.77-9.771 0-5.387 4.383-9.77 9.77-9.77s9.77 4.383 9.77 9.77c0 5.388-4.383 9.771-9.77 9.771zm0-16.54c-3.733 0-6.77 3.037-6.77 6.77s3.037 6.771 6.77 6.771 6.77-3.037 6.77-6.771c0-3.733-3.037-6.77-6.77-6.77z" fill="#3a312a"/><path d="m59.088 175.77c-.398 0-.779-.158-1.061-.439l-6.28-6.28c-.586-.586-.586-1.535 0-2.121s1.535-.586 2.121 0l5.22 5.22 10.877-10.877c.586-.586 1.535-.586 2.121 0s.586 1.535 0 2.121l-11.937 11.938c-.282.28-.663.438-1.061.438z" fill="#3a312a"/><circle cx="59.317" cy="201.868" fill="#d5dc57" r="8.27"/><g fill="#3a312a"><path d="m59.317 211.638c-5.387 0-9.77-4.383-9.77-9.77s4.383-9.77 9.77-9.77 9.77 4.383 9.77 9.77-4.383 9.77-9.77 9.77zm0-16.539c-3.733 0-6.77 3.037-6.77 6.77 0 3.732 3.037 6.77 6.77 6.77s6.77-3.037 6.77-6.77-3.037-6.77-6.77-6.77z"/><path d="m59.088 207.104c-.384 0-.768-.146-1.061-.439l-6.28-6.28c-.586-.586-.586-1.535 0-2.121s1.535-.586 2.121 0l5.22 5.22 10.877-10.876c.586-.586 1.535-.586 2.121 0s.586 1.535 0 2.121l-11.937 11.937c-.294.291-.677.438-1.061.438z"/><path d="m146.452 140.701h-63.127c-.829 0-1.5-.672-1.5-1.5s.671-1.5 1.5-1.5h63.127c.828 0 1.5.672 1.5 1.5s-.672 1.5-1.5 1.5z"/><path d="m146.452 172.035h-63.127c-.829 0-1.5-.672-1.5-1.5s.671-1.5 1.5-1.5h63.127c.828 0 1.5.672 1.5 1.5s-.672 1.5-1.5 1.5z"/><path d="m146.452 203.368h-63.127c-.829 0-1.5-.672-1.5-1.5s.671-1.5 1.5-1.5h63.127c.828 0 1.5.672 1.5 1.5s-.672 1.5-1.5 1.5z"/></g><path d="m108.165 48.509h24.375c2.325 0 4.21-1.885 4.21-4.21v-13.814c0-2.325-1.885-4.21-4.21-4.21h-10.18c-1.226 0-2.402-.545-3.145-1.52-3.813-5.004-11.544-8.428-20.465-8.428s-16.652 3.424-20.466 8.428c-.743.975-1.919 1.52-3.145 1.52h-10.179c-2.325 0-4.21 1.885-4.21 4.21v13.813c0 2.325 1.885 4.21 4.21 4.21h25.477 17.728z" fill="#8ac5dc"/><path d="m132.54 50.009h-24.375c-.829 0-1.5-.672-1.5-1.5s.671-1.5 1.5-1.5h24.375c1.494 0 2.71-1.216 2.71-2.71v-13.814c0-1.494-1.216-2.71-2.71-2.71h-10.18c-1.709 0-3.331-.789-4.338-2.111-3.684-4.834-11.068-7.837-19.272-7.837s-15.588 3.003-19.273 7.837c-1.007 1.322-2.629 2.111-4.338 2.111h-10.179c-1.495 0-2.71 1.216-2.71 2.71v13.813c0 1.494 1.216 2.71 2.71 2.71h25.477c.829 0 1.5.672 1.5 1.5s-.671 1.5-1.5 1.5h-25.477c-3.149 0-5.71-2.562-5.71-5.71v-13.813c0-3.148 2.561-5.71 5.71-5.71h10.179c.779 0 1.509-.348 1.952-.93 4.24-5.563 12.539-9.019 21.659-9.019s17.419 3.456 21.658 9.019c.444.582 1.173.93 1.952.93h10.18c3.148 0 5.71 2.562 5.71 5.71v13.813c0 3.149-2.562 5.711-5.71 5.711z" fill="#3a312a"/><path clip-rule="evenodd" d="m120.253 61.239c-6.789-2.339-17.081-.086-21.491 6.14-.003.002-.024-.004-.03-.009-4.414-6.219-14.698-8.469-21.484-6.13-8.643 2.977-13.249 12.09-12.398 20.904 1.331 13.784 14.706 27.501 24.903 35.201 2.327 1.757 5.792 4.732 8.929 4.798h.135c3.137-.066 6.602-3.041 8.929-4.798 10.197-7.7 23.572-21.417 24.903-35.201.852-8.814-3.754-17.927-12.396-20.905z" fill="#ed6e7a" fill-rule="evenodd"/><path d="m98.682 123.643c-3.307-.069-6.604-2.614-9.013-4.473-.286-.221-.56-.432-.82-.628-5.564-4.202-23.849-19.236-25.492-36.254-.981-10.172 4.529-19.41 13.401-22.467 6.632-2.284 16.581-.656 21.991 5.197 5.41-5.855 15.358-7.483 21.992-5.197 8.873 3.057 14.383 12.296 13.401 22.467-1.643 17.018-19.927 32.052-25.492 36.254-.26.196-.534.407-.82.628-2.408 1.858-5.706 4.403-8.981 4.473zm-15.685-61.788c-1.896 0-3.704.266-5.261.802-7.436 2.563-12.227 10.697-11.393 19.342 1.212 12.556 13.354 25.873 24.314 34.148.268.202.55.42.845.647 2.078 1.604 4.924 3.8 7.212 3.848h.104c2.256-.048 5.102-2.244 7.18-3.848.295-.228.578-.445.845-.647 10.959-8.275 23.103-21.593 24.313-34.148.835-8.646-3.956-16.779-11.392-19.342-6.002-2.069-15.736-.117-19.778 5.589-.143.201-.333.364-.553.475-.54.269-1.22.181-1.678-.213-.093-.079-.176-.171-.247-.271-2.995-4.218-9.107-6.382-14.511-6.382z" fill="#3a312a"/><path d="m114.495 85.462h-10.347v-10.347h-10.796v10.347h-10.347v10.796h10.347v10.347h10.796v-10.347h10.347z" fill="#f3dec3"/><path d="m104.148 108.104h-10.796c-.829 0-1.5-.672-1.5-1.5v-8.847h-8.846c-.829 0-1.5-.672-1.5-1.5v-10.795c0-.828.671-1.5 1.5-1.5h8.846v-8.847c0-.828.671-1.5 1.5-1.5h10.796c.829 0 1.5.672 1.5 1.5v8.847h8.847c.829 0 1.5.672 1.5 1.5v10.796c0 .828-.671 1.5-1.5 1.5h-8.847v8.847c0 .828-.671 1.499-1.5 1.499zm-9.296-3h7.796v-8.847c0-.828.671-1.5 1.5-1.5h8.847v-7.796h-8.847c-.829 0-1.5-.672-1.5-1.5v-8.847h-7.796v8.847c0 .828-.671 1.5-1.5 1.5h-8.846v7.796h8.846c.829 0 1.5.672 1.5 1.5z" fill="#3a312a"/><path d="m210.883 215.159 15.333 15.333c3.026 3.026 7.928 3.031 10.954.005s3.026-7.934 0-10.96l-38.279-38.279-10.954 10.954 10.766 10.766z" fill="#87796f"/><path d="m231.698 234.265c-.002 0-.004 0-.006 0-2.469-.002-4.79-.965-6.537-2.712l-15.333-15.333c-.586-.586-.586-1.535 0-2.121s1.535-.586 2.121 0l15.333 15.333c1.181 1.181 2.75 1.832 4.418 1.833h.004c1.666 0 3.232-.649 4.411-1.828 1.181-1.18 1.83-2.749 1.83-4.419s-.649-3.239-1.83-4.419l-37.219-37.219-8.833 8.833 9.706 9.706c.586.586.586 1.535 0 2.121s-1.535.586-2.121 0l-10.767-10.767c-.586-.586-.586-1.535 0-2.121l10.954-10.954c.586-.586 1.535-.586 2.121 0l38.279 38.279c1.747 1.746 2.709 4.069 2.709 6.54s-.962 4.794-2.709 6.54c-1.744 1.747-4.063 2.708-6.531 2.708z" fill="#3a312a"/><path d="m195.675 165.219 5.089 5.089c2.504 2.504 2.504 6.572 0 9.076l-14.702 14.702c-2.504 2.504-6.572 2.504-9.076 0l-5.089-5.089z" fill="#f6e2c6"/><path d="m181.524 197.465c-2.116 0-4.105-.823-5.599-2.318l-5.089-5.089c-.586-.586-.586-1.535 0-2.121l23.777-23.777c.586-.586 1.535-.586 2.121 0l5.089 5.089c1.495 1.494 2.318 3.482 2.318 5.599 0 2.115-.823 4.104-2.318 5.599l-14.701 14.701c-1.493 1.494-3.481 2.317-5.598 2.317zm-7.505-8.468 4.028 4.028c.928.928 2.163 1.439 3.478 1.439 1.314 0 2.55-.512 3.478-1.439l14.701-14.701c.928-.929 1.439-2.163 1.439-3.478 0-1.314-.512-2.55-1.439-3.478l-4.028-4.028z" fill="#3a312a"/><ellipse cx="156.011" cy="149.333" fill="#d7e057" rx="44.765" ry="44.765" transform="matrix(.974 -.227 .227 .974 -29.79 39.251)"/><path d="m156.011 195.598c-12.358 0-23.977-4.813-32.715-13.551s-13.551-20.357-13.551-32.714c0-12.358 4.813-23.977 13.551-32.715 18.039-18.038 47.39-18.039 65.429 0 8.738 8.738 13.551 20.356 13.551 32.715 0 12.357-4.813 23.976-13.551 32.714-8.739 8.738-20.357 13.551-32.714 13.551zm0-89.51c-11.081 0-22.158 4.216-30.594 12.651-8.171 8.172-12.672 19.037-12.672 30.594s4.5 22.421 12.672 30.593 19.037 12.672 30.594 12.672 22.421-4.5 30.593-12.672 12.672-19.036 12.672-30.593-4.5-22.422-12.672-30.594c-8.434-8.433-19.515-12.651-30.593-12.651z" fill="#3a312a"/><circle cx="156.01" cy="149.333" fill="#8ac5dc" r="33.336"/><path d="m156.011 184.152c-8.921 0-17.842-3.396-24.633-10.188-13.583-13.582-13.583-35.683 0-49.265 13.582-13.582 35.684-13.582 49.266 0s13.582 35.683 0 49.265c-6.792 6.792-15.712 10.188-24.633 10.188zm0-66.64c-8.152 0-16.305 3.103-22.512 9.31-12.413 12.413-12.413 32.609 0 45.022 12.414 12.412 32.609 12.412 45.023 0 12.412-12.413 12.412-32.609 0-45.022-6.207-6.207-14.359-9.31-22.511-9.31z" fill="#3a312a"/><path d="m226.211 25.913s3.41 12.659 13.229 13.246c0 0-13.107 4.525-13.328 14.202 0 0-2.58-13.572-12.932-14.059 0 0 12.057-1.826 13.031-13.389z" fill="#d6df58"/><path d="m226.11 54.86c-.713 0-1.335-.506-1.473-1.217-.023-.125-2.495-12.418-11.528-12.844-.77-.036-1.388-.65-1.428-1.421-.04-.769.511-1.445 1.273-1.56.441-.068 10.901-1.816 11.761-12.031.062-.726.635-1.301 1.359-1.367.73-.06 1.393.399 1.584 1.102.031.116 3.261 11.626 11.87 12.141.714.042 1.298.583 1.395 1.292.098.708-.318 1.388-.994 1.622-.121.043-12.125 4.312-12.319 12.819-.018.767-.61 1.396-1.375 1.46-.041.002-.083.004-.125.004zm-7.745-15.729c3.881 1.97 6.234 5.747 7.591 8.878 2.027-4.021 5.945-6.788 8.954-8.428-4.137-1.843-6.787-5.652-8.339-8.724-1.793 4.36-5.273 6.87-8.206 8.274z" fill="#3a312a"/><path d="m204.501 42.893s2.412 8.954 9.357 9.37c0 0-9.271 3.201-9.427 10.045 0 0-1.825-9.6-9.147-9.944 0 0 8.528-1.292 9.217-9.471z" fill="#d6df58"/><path d="m204.43 63.808c-.714 0-1.337-.507-1.473-1.22-.016-.082-1.704-8.442-7.743-8.727-.771-.036-1.388-.65-1.428-1.421-.04-.77.511-1.444 1.273-1.56.296-.047 7.367-1.242 7.946-8.113.062-.726.636-1.303 1.361-1.368.714-.063 1.391.4 1.582 1.103.037.137 2.25 7.921 7.999 8.265.714.042 1.299.584 1.396 1.293s-.32 1.389-.997 1.622c-.081.028-8.287 2.953-8.417 8.661-.018.768-.611 1.397-1.376 1.461-.04.002-.082.004-.123.004zm-4.522-11.528c2.108 1.333 3.525 3.395 4.45 5.281 1.376-2.232 3.517-3.873 5.368-4.974-2.289-1.269-3.888-3.352-4.945-5.226-1.174 2.288-3.016 3.877-4.873 4.919z" fill="#3a312a"/><path d="m204.501 16.236s2.412 8.954 9.357 9.37c0 0-9.271 3.201-9.427 10.045 0 0-1.825-9.6-9.147-9.944 0-.001 8.528-1.292 9.217-9.471z" fill="#d6df58"/><path d="m204.43 37.15c-.714 0-1.337-.507-1.473-1.22-.016-.082-1.704-8.442-7.743-8.727-.771-.036-1.388-.65-1.428-1.421-.04-.769.511-1.444 1.273-1.56.296-.047 7.367-1.242 7.946-8.113.062-.726.636-1.303 1.361-1.368.715-.06 1.392.399 1.581 1.102.023.079 2.229 7.92 8 8.266.714.043 1.299.584 1.396 1.293s-.32 1.389-.997 1.622c-.081.028-8.287 2.952-8.417 8.661-.018.767-.611 1.397-1.376 1.461-.04.002-.082.004-.123.004zm-4.522-11.527c2.108 1.333 3.525 3.395 4.449 5.28 1.377-2.232 3.518-3.872 5.369-4.973-2.289-1.271-3.888-3.352-4.945-5.226-1.174 2.288-3.016 3.877-4.873 4.919z" fill="#3a312a"/><path d="m150.8 195.31v25.09c0 3.07-2.5 5.57-5.57 5.57h15c3.07 0 5.57-2.5 5.57-5.57v-25.85c-3.18.69-6.46 1.05-9.79 1.05-1.75 0-3.49-.1-5.21-.29z" fill="#decaad"/><path d="m160.23 45.76h-15c3.07 0 5.57 2.5 5.57 5.57v52.06c5-.56 10.07-.31 15 .75v-52.81c0-3.07-2.5-5.57-5.57-5.57z" fill="#decaad"/></g></svg>