<?xml version="1.0" encoding="iso-8859-1"?>
<!-- Generator: Adobe Illustrator 19.0.0, SVG Export Plug-In . SVG Version: 6.00 Build 0)  -->
<svg version="1.1" id="Capa_1" xmlns="http://www.w3.org/2000/svg" xmlns:xlink="http://www.w3.org/1999/xlink" x="0px" y="0px"
	 viewBox="0 0 498.608 498.608" style="enable-background:new 0 0 498.608 498.608;" xml:space="preserve">
<polygon style="fill:#92E0C0;" points="320,89.304 320,41.304 256,41.304 72,41.304 8,41.304 8,489.304 320,489.304 320,385.304 "/>
<g>
	<rect x="72" y="9.304" style="fill:#D3A06C;" width="184" height="64"/>
	<path style="fill:#D3A06C;" d="M288,193.304v-36.848c0-45.92,37.232-83.152,83.152-83.152l0,0c18.024,0,34.848,9.008,44.848,24l0,0
		l0,0c18.808,4.704,32,21.6,32,40.984v55.016H288z"/>
</g>
<path style="fill:#B27946;" d="M416,97.304c-10-14.992-26.824-24-44.848-24c-3.008,0-5.984,0.176-8.912,0.488
	c15.272,2.032,29.088,10.504,37.76,23.512c18.808,4.704,32,21.6,32,40.984v55.016h16v-55.016
	C448,118.904,434.808,102.008,416,97.304z"/>
<path style="fill:#F9E0A6;" d="M416,169.304h8c13.256,0,24,10.744,24,24l0,0c0,13.256-10.744,24-24,24h-8V169.304z"/>
<polygon style="fill:#ECECEC;" points="256,73.304 288,73.304 288,97.304 288,241.304 288,281.304 288,345.304 288,457.304 
	40,457.304 40,73.304 72,73.304 "/>
<rect x="40" y="441.304" style="fill:#B6C1CE;" width="248" height="16"/>
<path style="fill:#F9E0A6;" d="M320,169.304h-8c-13.256,0-24,10.744-24,24l0,0c0,13.256,10.744,24,24,24h8V169.304z"/>
<path style="fill:#B6C1CE;" d="M344,273.304l-51.304,10.264c-17.624,3.528-31.8,16.6-36.736,33.88L248,345.304h40h56h128h16
	l-7.96-27.856c-4.936-17.28-19.112-30.36-36.736-33.88L392,273.304H344z"/>
<g>
	<polygon style="fill:#F9E0A6;" points="344,257.304 344,281.304 368,297.304 392,281.304 392,257.304 	"/>
	<path style="fill:#F9E0A6;" d="M312,169.304v40c0,30.928,25.072,56,56,56l0,0c30.928,0,56-25.072,56-56v-40l0,0
		c-20.768,0-40.984-6.736-57.6-19.2l-6.4-4.8l-7.032,7.032C342.104,163.2,327.368,169.304,312,169.304L312,169.304z"/>
</g>
<path style="fill:#EABD8C;" d="M408,169.304v40c0,28.208-20.872,51.472-48,55.36c2.616,0.376,5.28,0.64,8,0.64
	c30.928,0,56-25.072,56-56v-40c-5.392,0-10.736-0.472-16-1.368C408,168.152,408,169.304,408,169.304z"/>
<path style="fill:#FB5968;" d="M368,425.304l-54.056-54.056c-6.368-6.368-9.944-15-9.944-24l0,0
	c0-18.752,15.192-33.944,33.944-33.944l0,0c9,0,17.632,3.576,24,9.944l6.056,6.056l6.056-6.056c6.368-6.368,15-9.944,24-9.944l0,0
	c18.752,0,33.944,15.192,33.944,33.944l0,0c0,9-3.576,17.632-9.944,24L368,425.304z"/>
<polygon style="fill:#FFC729;" points="160,129.304 136,129.304 136,105.304 104,105.304 104,129.304 80,129.304 80,161.304 
	104,161.304 104,185.304 136,185.304 136,161.304 160,161.304 "/>
<path d="M498.608,353.304l-10.872-38.056c-5.792-20.256-22.208-35.408-42.856-39.528L400,266.744v-2.096
	c14.8-8.592,25.824-22.928,30.048-39.952C444.808,221.848,456,208.88,456,193.304v-55.016c0-22.064-14.28-41.336-35.088-47.904
	c-11.648-15.76-30.032-25.08-49.752-25.08c-15.608,0-30.304,3.952-43.16,10.896V33.304h-64v-32H64v32H0v464h328V396.616l40,40
	l59.72-59.72c6.464-6.464,10.4-14.704,11.688-23.592H498.608z M368,257.304c-26.472,0-48-21.528-48-48v-32.536
	c14.576-1.752,28.072-8.232,38.624-18.776l2.128-2.128l0.848,0.64c15.744,11.808,34.808,18.936,54.4,20.472v32.328
	C416,235.776,394.472,257.304,368,257.304z M304,207.08c-4.76-2.776-8-7.88-8-13.776s3.24-11,8-13.776V207.08z M432,207.08v-27.544
	c4.76,2.776,8,7.88,8,13.776S436.76,204.304,432,207.08z M409.344,101.744l1.712,2.576l3.008,0.752
	C429.336,108.888,440,122.544,440,138.288v27.464c-4.728-2.752-10.144-4.448-16-4.448c-18.912,0-37.664-6.248-52.8-17.6
	l-11.952-8.968l-11.936,11.936c-9.44,9.44-21.976,14.632-35.312,14.632c-5.856,0-11.272,1.696-16,4.448v-9.296
	c0-41.44,33.72-75.152,75.16-75.152C386.536,81.304,400.816,88.944,409.344,101.744z M80,17.304h168v48h-16v16h24h8h16v16h16v-32
	h-32v-16h48V87.24c-19.552,16.728-32,41.528-32,69.216v36.848c0,15.576,11.192,28.544,25.952,31.392
	c4.224,17.024,15.248,31.36,30.048,39.952v2.096l-40,8v-33.44h-16v38c-15.272,6.552-27.04,19.504-31.736,35.944l-10.872,38.056H280
	v96H48v-368h16h8h144v-16H80V17.304z M312,481.304H16v-432h48v16H32v400h264v-112h0.592c1.288,8.888,5.224,17.128,11.688,23.592
	l3.72,3.72V481.304z M416.408,365.584L368,413.992l-48.408-48.408c-4.896-4.896-7.592-11.416-7.592-18.344
	c0-14.304,11.632-25.936,25.936-25.936c6.928,0,13.448,2.696,18.344,7.592l11.72,11.72l11.72-11.72
	c4.896-4.896,11.416-7.592,18.344-7.592c14.304,0,25.936,11.632,25.936,25.936C424,354.168,421.304,360.688,416.408,365.584z
	 M398.064,305.304c-11.2,0-21.736,4.36-29.656,12.28L368,317.992l-0.408-0.408c-7.92-7.92-18.448-12.28-29.656-12.28
	c-19.688,0-36.128,13.68-40.616,32h-38.712l5.048-17.664c4.136-14.464,15.856-25.28,30.608-28.232L352,279.864v-8.672
	c5.128,1.336,10.464,2.112,16,2.112s10.872-0.776,16-2.104v8.672l57.736,11.536c14.752,2.952,26.48,13.776,30.608,28.232
	l5.048,17.664H438.68C434.192,318.984,417.744,305.304,398.064,305.304z"/>
<path d="M96,193.304h48v-24h24v-48h-24v-24H96v24H72v48h24V193.304z M88,153.304v-16h24v-24h16v24h24v16h-24v24h-16v-24H88z"/>
<rect x="192" y="121.304" width="64" height="16"/>
<rect x="192" y="153.304" width="64" height="16"/>
<polygon points="144,233.304 136,233.304 88,233.304 80,233.304 80,249.304 88,249.304 136,249.304 144,249.304 "/>
<polygon points="88,265.304 80,265.304 80,281.304 88,281.304 136,281.304 144,281.304 144,265.304 136,265.304 "/>
<rect x="176" y="233.304" width="48" height="16"/>
<rect x="176" y="265.304" width="48" height="16"/>
<polygon points="136,377.304 144,377.304 144,361.304 136,361.304 88,361.304 80,361.304 80,377.304 88,377.304 "/>
<rect x="176" y="361.304" width="48" height="16"/>
<rect x="80" y="297.304" width="144" height="16"/>
<rect x="80" y="329.304" width="144" height="16"/>
<rect x="80" y="393.304" width="144" height="16"/>
<rect x="200" y="33.304" width="16" height="16"/>
<rect x="112" y="33.304" width="16" height="16"/>
<g>
</g>
<g>
</g>
<g>
</g>
<g>
</g>
<g>
</g>
<g>
</g>
<g>
</g>
<g>
</g>
<g>
</g>
<g>
</g>
<g>
</g>
<g>
</g>
<g>
</g>
<g>
</g>
<g>
</g>
</svg>
