<svg id="Layer_1" enable-background="new 0 0 512 512" height="512" viewBox="0 0 512 512" width="512" xmlns="http://www.w3.org/2000/svg"><g><path d="m426.5 498h-341c-14.35941 0-26-11.64059-26-26v-446c0-14.3594 11.64059-26 26-26h341c14.35941 0 26 11.6406 26 26v446c0 14.35941-11.64059 26-26 26z" fill="#ffb456"/><path d="m414.84637 471h-317.69275c-9.02786 0-16.34639-7.31851-16.34639-16.34637v-411.30724c0-9.02786 7.31853-16.34639 16.34639-16.34639h317.69275c9.02786 0 16.34641 7.31853 16.34641 16.34639v411.30725c0 9.02785-7.31854 16.34636-16.34641 16.34636z" fill="#ffebc2"/><g><g><g><path d="m241 197h-90c-3.86621 0-7-3.13379-7-7s3.13379-7 7-7h90c3.86621 0 7 3.13379 7 7s-3.13379 7-7 7z" fill="#48b8ac"/></g><g><path d="m361 197h-90c-3.86621 0-7-3.13379-7-7s3.13379-7 7-7h90c3.86621 0 7 3.13379 7 7s-3.13379 7-7 7z" fill="#48b8ac"/></g></g><g><path d="m358 247h-203c-3.86621 0-7-3.13379-7-7s3.13379-7 7-7h203c3.86621 0 7 3.13379 7 7s-3.13379 7-7 7z" fill="#48b8ac"/></g><g><g><path d="m241 298h-90c-3.86621 0-7-3.13379-7-7s3.13379-7 7-7h90c3.86621 0 7 3.13379 7 7s-3.13379 7-7 7z" fill="#48b8ac"/></g><g><path d="m361 298h-90c-3.86621 0-7-3.13379-7-7s3.13379-7 7-7h90c3.86621 0 7 3.13379 7 7s-3.13379 7-7 7z" fill="#48b8ac"/></g></g><g><path d="m358 348h-203c-3.86621 0-7-3.13379-7-7s3.13379-7 7-7h203c3.86621 0 7 3.13379 7 7s-3.13379 7-7 7z" fill="#48b8ac"/></g></g><g><path d="m230.00002 442h-97.00003c-9.38884 0-16.99999-7.61115-16.99999-16.99997v-.00006c0-9.38882 7.61115-16.99997 16.99998-16.99997h97.00003c9.38884 0 16.99999 7.61115 16.99999 16.99997v.00006c0 9.38882-7.61115 16.99997-16.99998 16.99997z" fill="#ffd54f"/></g><circle cx="421" cy="421" fill="#36b990" r="91"/><g><path d="m406.32422 465c-.33008 0-.66211-.0166-.99414-.0498-2.78516-.27832-5.32617-1.71094-7.00586-3.9502l-38.31055-51.08105c-3.31348-4.41797-2.41797-10.68652 2-14 4.41895-3.31348 10.68652-2.41699 14 2l31.78027 42.37402 62.53711-55.75684c4.12598-3.67676 10.44531-3.31152 14.11914.80859 3.67578 4.12305 3.31348 10.44434-.80859 14.11914l-70.66309 63c-1.83984 1.64063-4.21191 2.53614-6.65429 2.53614z" fill="#fff"/></g><g><g><path d="m250.83862 102.39745c.00159-2.97382-2.40775-5.38625-5.3821-5.38784l-102.77921-.05488c-2.97435-.00159-5.38625 2.40826-5.38783 5.3821-.00159 2.97382 2.40773 5.38625 5.38208 5.38784l102.77921.05488c2.97436.00159 5.38627-2.40827 5.38785-5.3821z" fill="#7587b3"/></g><path d="m211.87119 113.81023.01146-21.45361c.00175-3.28488-3.46512-5.41916-7.46106-4.80733l-5.66545.85849-10.10303 1.54554c-2.64957.39693-4.68646 2.68998-4.68776 5.13478l-.00853 15.96098c-.0013 2.44466 2.03314 4.73988 4.68228 5.15043l15.7659 2.42087c3.99528.60531 7.46443-1.52526 7.46619-4.81015z" fill="#47c0dd"/><g fill="#4fdbff"><path d="m198.74689 105.72578.00925-17.31799-10.10303 1.54554c-2.64957.39693-4.68646 2.68998-4.68776 5.13478l-.00766 14.32392 7.3338 1.1239c3.9845.60531 7.45364-1.52527 7.4554-4.81015z"/><path d="m321.461 90.213h22.466v25.869h-22.466z"/><path d="m332.769 90.216h11.158v25.869h-11.158z"/></g><path d="m209.74022 131.01942 106.60075.05693c4.55579.00243 8.29474-3.40956 8.29697-7.56674l.02173-40.73181c.00223-4.16809-3.73309-7.57329-8.28888-7.57572l-106.60072-.05692c-4.56645-.00244-8.29475 3.39877-8.29698 7.56686l-.02174 40.73181c-.00222 4.15719 3.72243 7.57317 8.28887 7.57559z" fill="#c4f3ff"/><path d="m247.202 75.172h26.925v55.874h-26.925z" fill="#636da4"/><path d="m264.176 75.179h18.212v55.874h-18.212z" fill="#7587b3"/><path d="m209.74022 131.01942 39.28868.02098.02985-55.87427-39.28868-.02097c-4.56645-.00244-8.29475 3.39877-8.29698 7.56686l-.02174 40.73181c-.00222 4.15719 3.72243 7.57317 8.28887 7.57559z" fill="#fdb64e"/><path d="m344.06268 131.48976c1.9277.00104 3.66208-.78423 4.92288-2.04369 1.2608-1.25945 2.03714-3.00376 2.03815-4.92071l.02246-42.03506c.00174-3.24176-2.20471-5.96777-5.19836-6.73399-.55997-.16187-1.15219-.23753-1.75525-.23785-1.92786-.00103-3.67313.77345-4.93381 2.04355-1.26068 1.25945-2.03714 2.99299-2.03815 4.92085l-.02246 42.03506c-.00204 3.84481 3.1088 6.96978 6.96454 6.97184z" fill="#a1d6e2"/><path d="m344.06268 131.48976c1.9277.00104 3.66208-.78423 4.92288-2.04369 1.2608-1.25945 2.03714-3.00376 2.03815-4.92071l.02246-42.03506c.00174-3.24176-2.20471-5.96777-5.19836-6.73399l-.02206 41.31343c-.00104 1.92773-.77737 3.67217-2.04883 4.93149-1.2608 1.25946-2.99515 2.03394-4.923 2.03291-.60318-.00032-1.1954-.07597-1.75537-.23785l-.0004.72163c-.00205 3.84481 3.10879 6.96978 6.96453 6.97184z" fill="#a0c7d0"/><path d="m319.1012 145.30499c1.91705.00102 3.66235-.78423 4.923-2.04369 1.2608-1.25932 2.04791-3.00375 2.04895-4.92084l.0376-70.39211c.0018-3.4249-2.48444-6.28028-5.74747-6.86364-.39856-.07555-.79691-.10797-1.21707-.10819-1.91696-.00103-3.66208.78423-4.92288 2.04355-1.2608 1.25946-2.04791 3.00376-2.04895 4.92084l-.0376 70.43523c.0195 3.8234 3.13037 6.92681 6.96442 6.92885z" fill="#a1d6e2"/><path d="m319.1012 145.30499c1.91705.00102 3.66235-.78423 4.923-2.04369 1.2608-1.25932 2.04791-3.00375 2.04895-4.92084l.0376-70.39211c.0018-3.4249-2.48444-6.28028-5.74747-6.86364l-.0376 70.4355c-.00104 1.92772-.77737 3.66125-2.03815 4.9207-1.26083 1.27025-2.99518 2.04472-4.92291 2.04369-.42017-.00021-.82928-.03278-1.22784-.10846.0195 3.8234 3.13037 6.92681 6.96442 6.92885z" fill="#a0c7d0"/></g></g></svg>