<svg id="Capa_1" enable-background="new 0 0 512 512" height="512" viewBox="0 0 512 512" width="512" xmlns="http://www.w3.org/2000/svg"><g><g><g clip-rule="evenodd" fill-rule="evenodd"><path d="m106 82.5v392h240v-60h60v-332h-60.001c0 8.245-6.754 15-15 15h-149.998c-8.245 0-15-6.75-15-15zm97.5 127.499v-45h30v-30h45v30h30v45h-30v30h-45v-30zm-52.501 67.5h30v30h-30zm0 67.499h30v30h-30zm0 67.499h30v30h-30z" fill="#f8fafc"/><path d="m233.5 209.999v30h45v-30h30v-45h-30v-30h-45v30h-30v45z" fill="#d15573"/><path d="m180.999 277.499h-30v30h30zm0 134.998h-30v30h30zm0-67.499h-30v30h30z" fill="#d6e1ef"/><path d="m406 414.5h-60v60z" fill="#d6e1ef"/><path d="m406 414.5-60 60h-240v-392h60.001v-30h-75.001c-8.25 0-14.999 6.75-14.999 15v422c0 8.25 6.751 15 14.999 15h330c8.248 0 15-6.752 15-15v-422c0-8.248-6.75-15-15-15h-75.001v30h60.001z" fill="#faef93"/><path d="m181.001 97.5h149.999c8.245 0 15-6.754 15-15v-30c0-8.246-6.75-15-15-15h-45c0-16.568-13.431-30-30-30s-30 13.431-30 30h-44.999c-8.25 0-15 6.75-15 15v30c0 8.25 6.754 15 15 15z" fill="#b0c5e0"/><path d="m181.001 97.5h22.5c-8.245 0-15-6.75-15-15v-30c0-8.25 6.75-15 15-15h-22.5c-8.25 0-15 6.75-15 15v30c0 8.25 6.754 15 15 15z" fill="#7094c6"/><path d="m113.499 52.5h-22.499c-8.25 0-14.999 6.75-14.999 15v422c0 8.25 6.751 15 14.999 15h22.5c-8.248 0-15-6.75-15-15v-422c0-8.25 6.749-15 14.999-15z" fill="#efc17a"/><path d="m106 82.5h22.5v392h-22.5z" fill="#d6e1ef"/></g><g><path d="m383.5 155.112h-15v-15h15zm0-30h-15v-15h15z" fill="#fff"/></g></g><g><path d="m361 497h15v15h-15z"/><path d="m421 45h-68.791c-3.096-8.729-11.432-15-21.209-15h-38.253c-3.485-17.095-18.638-30-36.747-30s-33.262 12.905-36.747 30h-38.253c-9.777 0-18.113 6.271-21.209 15h-68.791c-12.406 0-22.5 10.093-22.5 22.5v422c0 12.407 10.093 22.5 22.5 22.5h255v-15h-255c-4.135 0-7.5-3.364-7.5-7.5v-422c0-4.136 3.364-7.5 7.5-7.5h67.501v15h-60.001v45h15v-30h46.291c3.096 8.73 11.432 15 21.21 15h149.999c9.777 0 18.114-6.271 21.209-15h46.291v317h-60v60h-225v-332.001h-15v347.001h250.607l64.393-64.394v-342.606h-60.001v-15h67.501c4.136 0 7.5 3.364 7.5 7.5v422c0 4.136-3.364 7.5-7.5 7.5h-30v15h30c12.407 0 22.5-10.093 22.5-22.5v-422c0-12.407-10.093-22.5-22.5-22.5zm-33.106 377-34.394 34.393v-34.393zm-49.395-339.5c0 4.135-3.364 7.5-7.5 7.5h-149.999c-4.135 0-7.5-3.365-7.5-7.5v-30c0-4.135 3.364-7.5 7.5-7.5h52.5v-7.5c0-12.407 10.093-22.5 22.5-22.5s22.5 10.093 22.5 22.5v7.5h52.5c4.135 0 7.5 3.365 7.5 7.5v30z"/><path d="m226 127.5v30h-30v60h30v30h60v-30h30v-60h-30v-30zm75 44.999v30h-30v30h-30v-30h-30v-30h30v-30h30v30z"/><path d="m188.5 269.999h-45v45h45zm-15 30h-15v-15h15z"/><path d="m218.499 284.999h150.001v15h-150.001z"/><path d="m218.499 419.997h105.002v15h-105.002z"/><path d="m218.499 352.498h150.001v15h-150.001z"/><path d="m143.5 382.498h45v-45h-45zm15-30h15v15h-15z"/><path d="m143.5 449.997h45v-45h-45zm15-30h15v15h-15z"/></g></g></svg>