<svg id="Capa_1" enable-background="new 0 0 512 512" height="512" viewBox="0 0 512 512" width="512" xmlns="http://www.w3.org/2000/svg"><g><g><g><g><path d="m310.774 504.5h-248.419c-5.562 0-10.071-4.509-10.071-10.071v-476.858c0-5.562 4.509-10.071 10.071-10.071h248.419c5.562 0 10.071 4.509 10.071 10.071v476.858c0 5.562-4.509 10.071-10.071 10.071z" fill="#f5f7f8"/><path d="m320.844 17.57v476.86c0 5.56-4.51 10.07-10.07 10.07h-36.34c5.56 0 10.07-4.51 10.07-10.07v-476.86c0-5.56-4.51-10.07-10.07-10.07h36.34c5.56 0 10.07 4.51 10.07 10.07z" fill="#d9e7eb"/></g><g><path d="m226.799 78.901h-19.456v-19.456c0-3.866-3.134-7-7-7h-27.557c-3.866 0-7 3.134-7 7v19.456h-19.456c-3.866 0-7 3.134-7 7v27.557c0 3.866 3.134 7 7 7h19.456v19.456c0 3.866 3.134 7 7 7h27.557c3.866 0 7-3.134 7-7v-19.456h19.456c3.866 0 7-3.134 7-7v-27.557c0-3.866-3.134-7-7-7z" fill="#27e19d"/><path d="m233.794 85.902v27.56c0 3.866-3.134 7-7 7h-19.45v19.45c0 3.87-3.14 7-7 7h-22.55c3.86 0 7-3.13 7-7v-12.45c0-3.866 3.134-7 7-7h12.45c3.866 0 7-3.134 7-7v-27.56c0-3.866-3.134-7-7-7h-12.45c-3.866 0-7-3.134-7-7v-12.46c0-3.86-3.14-7-7-7h22.55c3.866 0 7 3.134 7 7v19.46h19.45c3.866 0 7 3.134 7 7z" fill="#26d192"/></g><g><path d="m271.388 406.472h-169.647c-3.314 0-6-2.686-6-6v-30.046c0-3.314 2.686-6 6-6h169.647c3.314 0 6 2.686 6 6v30.046c0 3.313-2.686 6-6 6z" fill="#64b9fc"/><path d="m277.384 370.43v30.038c0 3.32-2.68 6-6 6h-23.92c3.32 0 6-2.68 6-6v-30.038c0-3.32-2.68-6-6-6h23.92c3.32 0 6 2.68 6 6z" fill="#31a7fb"/><path d="m152.784 364.426h-51.043c-3.314 0-6 2.686-6 6v30.046c0 3.314 2.686 6 6 6h51.043z" fill="#27e19d"/></g></g><g><g><path d="m396.424 391.251 53.083 53.083c13.612 13.611 13.612 35.68 0 49.291-13.611 13.611-35.68 13.611-49.291 0l-53.083-53.083c-13.611-13.611-13.612-35.68 0-49.291 13.611-13.612 35.679-13.612 49.291 0z" fill="#fb4a59"/><path d="m347.136 391.246c6.807-6.807 15.723-10.21 24.638-10.201 8.926 0 17.841 3.403 24.648 10.21l53.083 53.083c13.614 13.614 13.614 35.682.01 49.287-3.913 3.913-8.523 6.699-13.437 8.356 4.119-12.162 1.334-26.149-8.367-35.849l-53.083-53.082c-6.807-6.807-15.723-10.211-24.648-10.211-3.786 0-7.582.618-11.201 1.844 1.658-4.913 4.444-9.523 8.357-13.437z" fill="#f82f40"/><path d="m396.424 391.251 26.542 26.542-49.291 49.291-26.542-26.542c-13.611-13.611-13.612-35.68 0-49.291 13.611-13.612 35.679-13.612 49.291 0z" fill="#fcb44d"/><path d="m347.136 391.246c6.807-6.807 15.723-10.21 24.638-10.201 8.926 0 17.841 3.403 24.648 10.21l26.541 26.541-21.794 21.794-26.541-26.541c-6.807-6.807-15.723-10.211-24.648-10.211-3.786 0-7.582.618-11.201 1.844 1.658-4.912 4.444-9.522 8.357-13.436z" fill="#fb9927"/></g><g><g><g><g><circle cx="310.771" cy="448.448" fill="#23f1a8" r="56.051"/><path d="m366.828 448.447c0 30.952-25.106 56.059-56.058 56.047-5.907 0-11.593-.911-16.934-2.609 22.657-7.175 39.087-28.405 39.087-53.437 0-25.045-16.43-46.25-39.099-53.437 5.341-1.698 11.039-2.609 16.947-2.609 30.951-.001 56.057 25.093 56.057 56.045z" fill="#26d192"/></g></g></g></g></g></g><g><path d="m52.284 279.848c4.143 0 7.5-3.357 7.5-7.5v-254.777c0-1.418 1.153-2.571 2.571-2.571h172.839c4.143 0 7.5-3.357 7.5-7.5s-3.357-7.5-7.5-7.5h-172.839c-9.688 0-17.571 7.883-17.571 17.571v254.776c0 4.143 3.357 7.501 7.5 7.501z"/><path d="m241.299 113.458v-27.557c0-7.995-6.505-14.5-14.5-14.5h-11.957v-11.956c0-7.995-6.505-14.5-14.5-14.5h-27.557c-7.995 0-14.5 6.505-14.5 14.5v11.956h-11.955c-7.995 0-14.5 6.505-14.5 14.5v27.557c0 7.995 6.505 14.5 14.5 14.5h11.956v11.957c0 7.995 6.505 14.5 14.5 14.5h27.557c7.995 0 14.5-6.505 14.5-14.5v-11.957h11.957c7.994 0 14.499-6.505 14.499-14.5zm-15-.5h-18.957c-4.143 0-7.5 3.357-7.5 7.5v18.957h-26.557v-18.957c0-4.143-3.357-7.5-7.5-7.5h-18.955v-26.557h18.956c4.143 0 7.5-3.357 7.5-7.5v-18.956h26.557v18.956c0 4.143 3.357 7.5 7.5 7.5h18.957v26.557z"/><path d="m218.588 202.06h-119.98c-4.143 0-7.5 3.357-7.5 7.5s3.357 7.5 7.5 7.5h119.98c4.143 0 7.5-3.357 7.5-7.5s-3.357-7.5-7.5-7.5z"/><path d="m257.849 217.06h16.671c4.143 0 7.5-3.357 7.5-7.5s-3.357-7.5-7.5-7.5h-16.671c-4.143 0-7.5 3.357-7.5 7.5s3.358 7.5 7.5 7.5z"/><path d="m98.608 188.472c4.143 0 7.5-3.357 7.5-7.5v-.104c0-4.143-3.357-7.5-7.5-7.5s-7.5 3.357-7.5 7.5v.104c0 4.142 3.357 7.5 7.5 7.5z"/><path d="m218.588 261.776h-119.98c-4.143 0-7.5 3.357-7.5 7.5s3.357 7.5 7.5 7.5h119.98c4.143 0 7.5-3.357 7.5-7.5s-3.357-7.5-7.5-7.5z"/><path d="m257.849 276.776h16.671c4.143 0 7.5-3.357 7.5-7.5s-3.357-7.5-7.5-7.5h-16.671c-4.143 0-7.5 3.357-7.5 7.5s3.358 7.5 7.5 7.5z"/><path d="m98.608 248.188c4.143 0 7.5-3.357 7.5-7.5v-.104c0-4.143-3.357-7.5-7.5-7.5s-7.5 3.357-7.5 7.5v.104c0 4.143 3.357 7.5 7.5 7.5z"/><path d="m98.608 336.493h119.98c4.143 0 7.5-3.357 7.5-7.5s-3.357-7.5-7.5-7.5h-119.98c-4.143 0-7.5 3.357-7.5 7.5s3.357 7.5 7.5 7.5z"/><path d="m257.849 336.493h16.671c4.143 0 7.5-3.357 7.5-7.5s-3.357-7.5-7.5-7.5h-16.671c-4.143 0-7.5 3.357-7.5 7.5s3.358 7.5 7.5 7.5z"/><path d="m98.608 307.905c4.143 0 7.5-3.357 7.5-7.5v-.104c0-4.143-3.357-7.5-7.5-7.5s-7.5 3.357-7.5 7.5v.104c0 4.143 3.357 7.5 7.5 7.5z"/><path d="m127.517 426.374h-31.776c-4.143 0-7.5 3.357-7.5 7.5s3.357 7.5 7.5 7.5h31.776c4.143 0 7.5-3.357 7.5-7.5s-3.357-7.5-7.5-7.5z"/><path d="m88.241 460.068c0 4.143 3.357 7.5 7.5 7.5h76.535c4.143 0 7.5-3.357 7.5-7.5s-3.357-7.5-7.5-7.5h-76.535c-4.143 0-7.5 3.358-7.5 7.5z"/><path d="m454.811 439.03-53.084-53.083c-16.516-16.514-43.384-16.514-59.899 0-1.536 1.537-2.943 3.179-4.217 4.914-2.971-1.39-6.067-2.552-9.265-3.474v-369.816c-.001-9.688-7.884-17.571-17.572-17.571h-38.554c-4.143 0-7.5 3.357-7.5 7.5s3.357 7.5 7.5 7.5h38.554c1.418 0 2.571 1.153 2.571 2.571v367.391c-.855-.034-1.711-.065-2.574-.065-9.216 0-17.971 1.988-25.883 5.532v-20.002c0-7.444-6.056-13.5-13.5-13.5h-35.893c-4.143 0-7.5 3.357-7.5 7.5s3.357 7.5 7.5 7.5h34.393v27.046h-109.604v-27.046h38.186c4.143 0 7.5-3.357 7.5-7.5s-3.357-7.5-7.5-7.5h-96.729c-7.444 0-13.5 6.056-13.5 13.5v30.046c0 7.444 6.056 13.5 13.5 13.5h155.686c-6.446 9.939-10.207 21.773-10.207 34.477 0 19.454 8.795 36.885 22.608 48.552h-207.473c-1.418 0-2.571-1.153-2.571-2.571v-185.056c0-4.143-3.357-7.5-7.5-7.5s-7.5 3.357-7.5 7.5v185.054c0 9.688 7.883 17.571 17.571 17.571h248.419.003c26.232-.002 48.8-15.982 58.489-38.718l25.647 25.647c8.257 8.257 19.104 12.385 29.949 12.385s21.691-4.128 29.949-12.385c7.999-8 12.405-18.636 12.405-29.949s-4.406-21.95-12.405-29.95zm-102.375-42.476c5.166-5.167 12.035-8.012 19.342-8.012s14.176 2.846 19.342 8.013l21.24 21.24-38.546 38.546c.322-2.588.508-5.218.508-7.892 0-20.055-9.347-37.958-23.903-49.614.632-.791 1.295-1.559 2.017-2.281zm-249.195-24.628h42.043v27.046h-42.043zm158.979 76.522c0-26.771 21.779-48.552 48.551-48.552 10.686 0 20.57 3.478 28.598 9.35l-67.799 67.8c-5.872-8.027-9.35-17.912-9.35-28.598zm48.551 48.552c-10.684 0-20.566-3.477-28.593-9.347l67.797-67.798c5.87 8.027 9.346 17.91 9.346 28.593.001 26.772-21.779 48.552-48.55 48.552zm133.433-8.679c-10.664 10.666-28.02 10.666-38.684 0l-21.236-21.236 38.683-38.683 21.236 21.236c10.667 10.665 10.667 28.018.001 38.683z"/></g></g></svg>