<svg id="Flat" height="512" viewBox="0 0 64 64" width="512" xmlns="http://www.w3.org/2000/svg"><path d="m58.342 37.829-4.342 2.171v-13h3a3 3 0 0 1 3 3v5.146a3 3 0 0 1 -1.658 2.683z" fill="#ffd73c"/><path d="m56 27h-2v13l2-1z" fill="#ffa42c"/><path d="m58.342 27.829-4.342 2.171v-13h3a3 3 0 0 1 3 3v5.146a3 3 0 0 1 -1.658 2.683z" fill="#61afe8"/><path d="m56 17h-2v13l2-1z" fill="#5098dd"/><path d="m16 2h33a5 5 0 0 1 5 5v44a5 5 0 0 1 -5 5h-33a0 0 0 0 1 0 0v-54a0 0 0 0 1 0 0z" fill="#78f5cf"/><path d="m51 5h-35v51h33a5 5 0 0 0 5-5v-43a3 3 0 0 0 -3-3z" fill="#5fe1c8"/><path d="m16 56h-5l-3 3v-54a3 3 0 0 1 3-3h5z" fill="#ff6e8c"/><path d="m14 5a3 3 0 0 0 -3 3v48h5v-51z" fill="#fa5378"/><g fill="#5a646e"><path d="m8 14c-2.757 0-5-1.794-5-4s2.243-4 5-4 5 1.794 5 4a1 1 0 0 1 -2 0c0-1.084-1.374-2-3-2s-3 .916-3 2 1.374 2 3 2z"/><path d="m8 24c-2.757 0-5-1.794-5-4s2.243-4 5-4 5 1.794 5 4a1 1 0 0 1 -2 0c0-1.084-1.374-2-3-2s-3 .916-3 2 1.374 2 3 2z"/><path d="m8 42c-2.757 0-5-1.794-5-4s2.243-4 5-4 5 1.794 5 4a1 1 0 0 1 -2 0c0-1.084-1.374-2-3-2s-3 .916-3 2 1.374 2 3 2z"/><path d="m8 52c-2.757 0-5-1.794-5-4s2.243-4 5-4 5 1.794 5 4a1 1 0 0 1 -2 0c0-1.084-1.374-2-3-2s-3 .916-3 2 1.374 2 3 2z"/></g><path d="m23 9h24v12h-24z" fill="#fafcff"/><path d="m43 14h-16a1 1 0 0 1 0-2h16a1 1 0 0 1 0 2z" fill="#5a646e"/><path d="m43 18h-16a1 1 0 0 1 0-2h16a1 1 0 0 1 0 2z" fill="#5a646e"/><path d="m58.342 17.829-4.342 2.171v-11h6v6.146a3 3 0 0 1 -1.658 2.683z" fill="#fa5378"/><path d="m56 9h-2v11l2-1z" fill="#e63764"/><path d="m49 56h-38a3 3 0 0 0 -3 3 3 3 0 0 0 3 3h38a5 5 0 0 0 5-5v-6a5 5 0 0 1 -5 5z" fill="#d3e9ee"/><path d="m18 58h-7a2.99 2.99 0 0 0 -2.816 2 2.99 2.99 0 0 0 2.816 2h38a5 5 0 0 0 5-5v-1.111a6.973 6.973 0 0 1 -5 2.111z" fill="#e6f3f7"/></svg>