<svg id="Layer_1" enable-background="new 0 0 511 511" height="512" viewBox="0 0 511 511" width="512" xmlns="http://www.w3.org/2000/svg"><g><path d="m407.5 379.25h-352v-288h112l32 48h208z" fill="#fff"/><path d="m407.5 379.25h-352v-288h112l32 48h208z" fill="#ffc277"/><path d="m199.5 139.25h-144v-48h112z" fill="#fee95d"/><path d="m119.5 91.25h16v48h-16z" fill="#ffc277"/><path d="m407.5 379.25h-352l48-192h352z" fill="#fee95d"/><g fill="#ffc277"><path d="m255.5 243.25c-53.019 0-96 42.981-96 96 0 14.276 3.121 27.823 8.71 40h174.58c5.589-12.177 8.71-25.724 8.71-40 0-53.019-42.981-96-96-96z"/><path d="m411.5 363.25-4 16h-352l4-16z"/><path d="m431.5 187.25-48 192h24l48-192z"/></g><path d="m375.5 187.25h-240v-144h176l64 64z" fill="#fff"/><path d="m375.5 107.25v80h-24v-104z" fill="#c6fff6"/><path d="m135.5 171.25h240v16h-240z" fill="#c6fff6"/><path d="m375.5 107.25h-64v-64" fill="#fee95d"/><path d="m351.5 107.25h24l-64-64v24z" fill="#ffc277"/><circle cx="487.5" cy="147.25" fill="#fee95d" r="16"/><circle cx="23.5" cy="419.25" fill="#fee95d" r="16"/><g><circle cx="255.5" cy="339.25" fill="#d8fc7e" r="80"/><path d="m255.5 259.25c-2.7 0-5.368.138-8 .399 40.426 4.014 72 38.118 72 79.601s-31.574 75.586-72 79.601c2.632.261 5.3.399 8 .399 44.183 0 80-35.817 80-80s-35.817-80-80-80z" fill="#54e072"/><path d="m303.5 323.25h-32v-32h-32v32h-32v32h32v32h32v-32h32z" fill="#fff"/></g><g><path d="m415 131.75h-32v-27.606l-68.394-68.394h-186.606v48h-80v303h111.5v-15h-94.394l44.25-177h336.538l-44.25 177h-50.144v15h61.856l51.75-207h-50.106zm-15 15v33h-17v-33zm-81-85.394 38.394 38.394h-38.394zm-15-10.606v64h64v65h-225v-129zm-176 48v33h-65v-33zm-30.356 81-34.644 138.577v-171.577h65v33z"/><path d="m487.5 123.75c-12.958 0-23.5 10.542-23.5 23.5s10.542 23.5 23.5 23.5 23.5-10.542 23.5-23.5-10.542-23.5-23.5-23.5zm0 32c-4.687 0-8.5-3.813-8.5-8.5s3.813-8.5 8.5-8.5 8.5 3.813 8.5 8.5-3.813 8.5-8.5 8.5z"/><path d="m416 115.25h15v-16.5h16.5v-15h-16.5v-16.5h-15v16.5h-16.5v15h16.5z"/><path d="m23.5 395.75c-12.958 0-23.5 10.542-23.5 23.5s10.542 23.5 23.5 23.5 23.5-10.542 23.5-23.5-10.542-23.5-23.5-23.5zm0 32c-4.687 0-8.5-3.813-8.5-8.5s3.813-8.5 8.5-8.5 8.5 3.813 8.5 8.5-3.813 8.5-8.5 8.5z"/><path d="m119 427.25h-15v16.5h-16.5v15h16.5v16.5h15v-16.5h16.5v-15h-16.5z"/><path d="m255.5 251.75c-48.248 0-87.5 39.252-87.5 87.5s39.252 87.5 87.5 87.5 87.5-39.252 87.5-87.5-39.252-87.5-87.5-87.5zm0 160c-39.977 0-72.5-32.523-72.5-72.5s32.523-72.5 72.5-72.5 72.5 32.523 72.5 72.5-32.523 72.5-72.5 72.5z"/><path d="m279 283.75h-47v32h-32v47h32v32h47v-32h32v-47h-32zm17 47v17h-32v32h-17v-32h-32v-17h32v-32h17v32z"/><path d="m207.5 147.75h16v15h-16z"/><path d="m239.5 147.75h16v15h-16z"/><path d="m271.5 147.75h16v15h-16z"/></g></g></svg>