<svg id="Capa_1" enable-background="new 0 0 512 512" height="512" viewBox="0 0 512 512" width="512" xmlns="http://www.w3.org/2000/svg"><g><path d="m458.303 156.452h-30.106v66.365h30.106c6.975 0 12.629-5.654 12.629-12.629v-41.107c.001-6.975-5.654-12.629-12.629-12.629z" fill="#fee55a"/><path d="m458.303 90.087h-30.106v66.365h30.106c6.975 0 12.629-5.654 12.629-12.629v-41.107c.001-6.975-5.654-12.629-12.629-12.629z" fill="#ffd301"/><path d="m458.303 23.722h-30.106v66.365h30.106c6.975 0 12.629-5.654 12.629-12.629v-41.107c.001-6.975-5.654-12.629-12.629-12.629z" fill="#ffc20c"/><path d="m458.303 222.817h-30.106v66.365h30.106c6.975 0 12.629-5.654 12.629-12.629v-41.107c.001-6.974-5.654-12.629-12.629-12.629z" fill="#ff656f"/><path d="m458.303 289.183h-30.106v66.365h30.106c6.975 0 12.629-5.654 12.629-12.629v-41.107c.001-6.975-5.654-12.629-12.629-12.629z" fill="#43cb8e"/><path d="m458.303 355.548h-30.106v66.365h30.106c6.975 0 12.629-5.654 12.629-12.629v-41.107c.001-6.975-5.654-12.629-12.629-12.629z" fill="#60b8fe"/><path d="m458.303 421.913h-30.106v66.365h30.106c6.975 0 12.629-5.654 12.629-12.629v-41.107c.001-6.975-5.654-12.629-12.629-12.629z" fill="#7b6c79"/><path d="m458.303 189.635h-30.106v33.183h30.106c6.975 0 12.629-5.654 12.629-12.629v-33.183c.001 6.974-5.654 12.629-12.629 12.629z" fill="#ffd301"/><path d="m458.303 123.27h-30.106v33.183h30.106c6.975 0 12.629-5.654 12.629-12.629v-33.184c.001 6.975-5.654 12.63-12.629 12.63z" fill="#ffc20c"/><path d="m458.303 56.904h-30.106v33.183h30.106c6.975 0 12.629-5.654 12.629-12.629v-33.183c.001 6.975-5.654 12.629-12.629 12.629z" fill="#ffa90f"/><path d="m458.303 256h-30.106v33.183h30.106c6.975 0 12.629-5.654 12.629-12.629v-33.183c.001 6.975-5.654 12.629-12.629 12.629z" fill="#ff4756"/><path d="m458.303 322.365h-30.106v33.183h30.106c6.975 0 12.629-5.654 12.629-12.629v-33.183c.001 6.975-5.654 12.629-12.629 12.629z" fill="#00ba66"/><path d="m458.303 388.73h-30.106v33.183h30.106c6.975 0 12.629-5.654 12.629-12.629v-33.183c.001 6.975-5.654 12.629-12.629 12.629z" fill="#23a8fe"/><path d="m458.303 455.096h-30.106v33.183h30.106c6.975 0 12.629-5.654 12.629-12.629v-33.183c.001 6.974-5.654 12.629-12.629 12.629z" fill="#695d67"/><path d="m421.577 0h-296.618v512h296.618c7.04 0 12.801-5.76 12.801-12.801v-486.398c0-7.041-5.76-12.801-12.801-12.801z" fill="#dfebfa"/><path d="m127.02 0h-28.364c-14.908 0-27.106 12.198-27.106 27.105v457.789c0 14.909 12.198 27.106 27.106 27.106h28.364z" fill="#60b8fe"/><path d="m104.815 496.395v-480.79c0-5.751 1.734-11.115 4.697-15.605h-10.856c-14.908 0-27.106 12.198-27.106 27.105v457.789c0 14.909 12.198 27.106 27.106 27.106h10.856c-2.963-4.489-4.697-9.853-4.697-15.605z" fill="#23a8fe"/><g><path d="m88.618 64.631h-39.824c-4.267 0-7.726-3.459-7.726-7.726s3.459-7.726 7.726-7.726h39.824c4.267 0 7.726 3.459 7.726 7.726s-3.459 7.726-7.726 7.726z" fill="#fee55a"/></g><g><path d="m88.618 108.874h-39.824c-4.267 0-7.726-3.459-7.726-7.726 0-4.268 3.459-7.726 7.726-7.726h39.824c4.267 0 7.726 3.459 7.726 7.726s-3.459 7.726-7.726 7.726z" fill="#fee55a"/></g><g><path d="m88.618 153.117h-39.824c-4.267 0-7.726-3.459-7.726-7.726 0-4.268 3.459-7.726 7.726-7.726h39.824c4.267 0 7.726 3.459 7.726 7.726s-3.459 7.726-7.726 7.726z" fill="#fee55a"/></g><g><path d="m88.618 197.361h-39.824c-4.267 0-7.726-3.459-7.726-7.726 0-4.268 3.459-7.726 7.726-7.726h39.824c4.267 0 7.726 3.459 7.726 7.726 0 4.268-3.459 7.726-7.726 7.726z" fill="#fee55a"/></g><g><path d="m88.618 241.605h-39.824c-4.267 0-7.726-3.459-7.726-7.726s3.459-7.726 7.726-7.726h39.824c4.267 0 7.726 3.459 7.726 7.726s-3.459 7.726-7.726 7.726z" fill="#fee55a"/></g><g><path d="m88.618 285.848h-39.824c-4.267 0-7.726-3.459-7.726-7.726 0-4.268 3.459-7.726 7.726-7.726h39.824c4.267 0 7.726 3.459 7.726 7.726s-3.459 7.726-7.726 7.726z" fill="#fee55a"/></g><g><path d="m88.618 330.091h-39.824c-4.267 0-7.726-3.459-7.726-7.726 0-4.268 3.459-7.726 7.726-7.726h39.824c4.267 0 7.726 3.459 7.726 7.726 0 4.268-3.459 7.726-7.726 7.726z" fill="#fee55a"/></g><g><path d="m88.618 374.335h-39.824c-4.267 0-7.726-3.459-7.726-7.726 0-4.268 3.459-7.726 7.726-7.726h39.824c4.267 0 7.726 3.459 7.726 7.726s-3.459 7.726-7.726 7.726z" fill="#fee55a"/></g><g><path d="m88.618 418.579h-39.824c-4.267 0-7.726-3.459-7.726-7.726 0-4.268 3.459-7.726 7.726-7.726h39.824c4.267 0 7.726 3.459 7.726 7.726s-3.459 7.726-7.726 7.726z" fill="#fee55a"/></g><g><path d="m88.618 462.822h-39.824c-4.267 0-7.726-3.459-7.726-7.726 0-4.268 3.459-7.726 7.726-7.726h39.824c4.267 0 7.726 3.459 7.726 7.726s-3.459 7.726-7.726 7.726z" fill="#fee55a"/></g><g><path d="m361.707 372.697h-162.746c-4.267 0-7.726-3.459-7.726-7.726 0-4.268 3.459-7.726 7.726-7.726h162.746c4.267 0 7.726 3.459 7.726 7.726s-3.459 7.726-7.726 7.726z" fill="#b1dbfc"/></g><g><path d="m361.707 405.749h-162.746c-4.267 0-7.726-3.459-7.726-7.726 0-4.268 3.459-7.726 7.726-7.726h162.746c4.267 0 7.726 3.459 7.726 7.726s-3.459 7.726-7.726 7.726z" fill="#b1dbfc"/></g><g><path d="m361.707 438.801h-162.746c-4.267 0-7.726-3.459-7.726-7.726s3.459-7.726 7.726-7.726h162.746c4.267 0 7.726 3.459 7.726 7.726s-3.459 7.726-7.726 7.726z" fill="#b1dbfc"/></g><path d="m204.683 283.368 151.854.158c1.657-1.476 3.285-3.001 4.873-4.59 44.575-44.575 44.575-116.846 0-161.422-44.575-44.575-116.846-44.575-161.422 0-44.575 44.575-44.575 116.846 0 161.422 1.532 1.531 3.099 3.005 4.695 4.432z" fill="#ff656f"/><path d="m227.123 117.514c18.831-18.831 42.604-29.705 67.143-32.626-33.55-3.993-68.534 6.881-94.278 32.626-44.575 44.575-44.575 116.846 0 161.422 1.532 1.532 3.099 3.006 4.694 4.432h27.135c-1.595-1.427-3.163-2.901-4.694-4.432-44.575-44.576-44.575-116.847 0-161.422z" fill="#ff4756"/><path d="m239.69 268.707c18.716 30.747 63.275 30.662 82.049.253l-16.059-6.219c-.678-.262-1.301-.724-1.774-1.346-.528-.694-.841-1.549-.844-2.464l-.012-16.052c-6.346 4.153-13.921 6.578-22.055 6.578-8.969 0-16.841-2.487-23.26-6.638v16.087c0 1.086-.339 1.881-.827 2.483-.922 1.136-2.381 1.567-3.162 1.869z" fill="#ffbd86"/><path d="m257.734 242.818v16.087c0 1.086-.339 1.881-.827 2.483-.922 1.136-2.381 1.567-3.162 1.869l-14.056 5.449c5.319 8.738 12.727 14.978 21.035 18.747l11.116-4.896c5.208-2.293 8.569-7.447 8.569-13.137v-19.976c-8.725-.104-16.396-2.565-22.675-6.626z" fill="#f6a96c"/><path d="m357.387 282.766-38.082-14.749c-17.266 29.372-59.984 29.456-77.19-.25l-38.276 14.839c43.432 39.622 110.054 39.676 153.548.16z" fill="#60b8fe"/><path d="m242.115 267.767-38.276 14.839c8.17 7.453 17.158 13.506 26.661 18.159l32.56-14.339c-8.353-3.567-15.796-9.768-20.945-18.659z" fill="#23a8fe"/><path d="m329.42 179.972c-1.348 1.144-3.087 1.84-4.983 1.84-1.043 0-2.924-.112-3.907-.32v30.155c0 .375-.018.745-.028 1.118 10.096.811 19.875-6.628 19.875-15.691.001-6.903-4.444-14.887-10.957-17.102z" fill="#ffbd86"/><path d="m332.824 181.763c-1.053-.767-2.192-1.38-3.403-1.792-1.348 1.144-3.087 1.84-4.983 1.84-1.043 0-2.924-.112-3.907-.32v30.155c0 .375-.018.745-.028 1.118 4.436.356 8.81-.881 12.321-3.148z" fill="#f6a96c"/><path d="m240.289 211.646v-29.835h-5.911c-1.589 0-3.103-.316-4.492-.877-5.379 2.711-9.444 9.893-9.444 16.138 0 9.051 9.763 16.503 19.874 15.69-.01-.371-.027-.742-.027-1.116z" fill="#ffbd86"/><path d="m240.289 209.617c-4.482-2.894-7.554-7.467-7.554-12.544 0-5.489 3.141-11.7 7.554-14.964v-.298h-5.911c-1.589 0-3.103-.316-4.492-.877-5.379 2.711-9.444 9.893-9.444 16.138 0 9.051 9.763 16.503 19.874 15.69-.01-.372-.027-.744-.027-1.117z" fill="#f6a96c"/><path d="m309.705 167.941c0-.79-1.057-1.061-1.429-.365-4.803 8.984-14.269 15.098-25.168 15.098h-43.68v28.972c0 21.114 16.544 40.398 41.568 40.398 22.276 0 40.399-18.123 40.399-40.398v-29.293c-6.657-1.412-11.69-7.352-11.69-14.412z" fill="#fed2a4"/><g><path d="m260.913 211.646v-28.972h-21.486v28.972c0 21.114 16.544 40.398 41.568 40.398 3.585 0 7.06-.475 10.372-1.356-18.691-4.737-30.454-21.238-30.454-39.042z" fill="#ffbd86"/></g><path d="m318.769 129.496c-3.86.297-7.402-2.13-8.145-5.93-1.251-6.399-4.419-12.749-16.794-12.749h-42.934c-15.757 0-28.531 12.774-28.531 28.531v32.175c0 6.635 5.378 12.013 12.013 12.013h48.729c10.899 0 20.365-6.115 25.168-15.098.372-.696 1.429-.424 1.429.365 0 8.103 6.63 14.733 14.733 14.733 4.247 0 7.723-3.475 7.723-7.723v-33.538c0-7.697-6.716-13.293-13.391-12.779z" fill="#665e68"/><g><path d="m247.768 171.524v-32.175c0-15.757 12.774-28.531 28.531-28.531h-25.403c-15.757 0-28.531 12.774-28.531 28.531v32.175c0 6.635 5.379 12.013 12.013 12.013h25.403c-6.634 0-12.013-5.379-12.013-12.013z" fill="#544e55"/></g></g></svg>