<svg id="Capa_1" enable-background="new 0 0 512 512" height="512" viewBox="0 0 512 512" width="512" xmlns="http://www.w3.org/2000/svg"><g><path d="m295.976 510.97c-5.113 0-9.272-4.159-9.272-9.271v-211.798l-1.03-3.426-50.501-22.816h-1.134l-40.074 75.047c-.734 1.375-2.103 2.195-3.661 2.195-1.56 0-2.928-.82-3.662-2.195l-40.075-75.047h-1.133l-107.258 48.825c-18.375 8.364-30.169 26.692-30.169 46.88v137.183c0 8.534 6.918 15.453 15.453 15.453h272.516l.22-1.03z" fill="#26a6fe"/><g><g><path d="m295.976 510.97c-5.121 0-9.272-4.151-9.272-9.272v-211.797l-1.03-3.426-50.501-22.816-12.53 23.465 21.067 10.728c3.453 1.758 5.627 5.305 5.627 9.18v204.968h46.639l.22-1.03z" fill="#0593fc"/></g></g><g><path d="m202.135 241.463h-23.661c-12.069 0-23.37-3.341-33.039-9.135v31.331l40.325 75.518c1.94 3.633 7.148 3.633 9.087 0l40.325-75.518v-31.331c-9.668 5.794-20.968 9.135-33.037 9.135z" fill="#ffa78f"/></g><g><g><path d="m202.543 241.456v22.203l-28.554 53.474 11.771 22.044c1.94 3.633 7.148 3.633 9.087 0l40.325-75.518v-31.331c-9.559 5.728-20.714 9.053-32.629 9.128z" fill="#f89580"/></g></g><g><g><path d="m103.214 119.733h174.181c4.653 0 9.026 1.214 12.827 3.335v-37.706c0-46.949-38.413-85.362-85.362-85.362h-29.112c-46.949 0-85.362 38.413-85.362 85.362v37.706c3.801-2.121 8.174-3.335 12.828-3.335z" fill="#26a6fe"/></g><g><g><path d="m204.86 0h-29.112c-2.252 0-4.476.115-6.686.289 43.852 3.442 78.677 40.376 78.677 85.073v34.371h29.655c4.653 0 9.026 1.214 12.827 3.335v-37.706c.001-46.949-38.412-85.362-85.361-85.362z" fill="#0593fc"/></g></g><g><g><path d="m277.395 118.901h-10.586v56.814h10.586c14.986 0 27.247-12.261 27.247-27.247v-2.32c0-14.986-12.261-27.247-27.247-27.247z" fill="#f89580"/></g><g><path d="m113.799 118.901h-10.586c-14.986 0-27.247 12.261-27.247 27.247v2.32c0 14.986 12.261 27.247 27.247 27.247h10.586z" fill="#ffb09e"/></g></g><g><path d="m113.568 184.236.604-.187.091-.626c1.989-13.722 13.959-24.068 27.843-24.068h96.396c13.884 0 25.854 10.347 27.843 24.068l.095.657.643.167c.049.013.096.026.145.039.266-2.398.415-4.831.415-7.301v-58.085h-154.676v58.085c0 2.472.149 4.908.416 7.309.062-.019.122-.038.185-.058z" fill="#ffcebf"/></g><path d="m169.011 159.355h14.858c.057-.425.085-.859.067-1.303-.005-.121-.012-.241-.022-.396.064-3.469 2.906-6.271 6.39-6.271 4.143 0 7.5-3.357 7.5-7.5s-3.357-7.5-7.5-7.5c-11.795 0-21.391 9.596-21.391 21.391 0 .291.014.578.035.882.01.236.032.468.063.697z" fill="#f89580"/><g><path d="m238.502 159.355c13.884 0 25.854 10.347 27.843 24.068l.095.657.643.167c.049.013.096.026.145.039.266-2.398.415-4.831.415-7.3v-58.085h-32.098v40.454z" fill="#ffb09e"/></g><g><path d="m267.334 183.28c-2.043-14.095-14.171-24.924-28.832-24.924h-96.395c-14.661 0-26.789 10.829-28.832 24.924 3.169 33.224 31.145 59.213 65.199 59.213h23.661c34.054 0 62.03-25.988 65.199-59.213z" fill="#f9f3f1"/></g><g><path d="m267.334 183.28c-2.043-14.095-14.171-24.924-28.832-24.924h-2.958v18.63c0 34.759-27.076 63.179-61.285 65.357.008.001.016.001.024.002.583.037 1.169.066 1.755.09.804.029 1.609.057 2.421.058h.015 23.66c34.055 0 62.031-25.988 65.2-59.213z" fill="#f3eae6"/></g><g><g><path d="m149.759 144.628c-4.143 0-7.5-3.357-7.5-7.5v-10.512c0-4.143 3.357-7.5 7.5-7.5s7.5 3.357 7.5 7.5v10.512c0 4.143-3.358 7.5-7.5 7.5z" fill="#f89580"/></g><g><path d="m230.85 144.628c-4.143 0-7.5-3.357-7.5-7.5v-10.512c0-4.143 3.357-7.5 7.5-7.5s7.5 3.357 7.5 7.5v10.512c0 4.143-3.358 7.5-7.5 7.5z" fill="#f89580"/></g></g><g><path d="m238.502 193.746h-96.396c-4.143 0-7.5-3.357-7.5-7.5s3.357-7.5 7.5-7.5h96.396c4.143 0 7.5 3.357 7.5 7.5s-3.357 7.5-7.5 7.5z" fill="#efe2dd"/></g><g><path d="m221.918 221.311h-63.228c-4.143 0-7.5-3.357-7.5-7.5s3.357-7.5 7.5-7.5h63.228c4.143 0 7.5 3.357 7.5 7.5s-3.357 7.5-7.5 7.5z" fill="#efe2dd"/></g></g><g><g><path d="m493.691 512h-197.715c-5.69 0-10.302-4.612-10.302-10.302v-278.577c0-5.69 4.612-10.302 10.302-10.302h197.715c5.69 0 10.302 4.612 10.302 10.302v278.578c0 5.689-4.612 10.301-10.302 10.301z" fill="#ffd15b"/></g><g><path d="m493.691 212.819h-43.067c5.69 0 10.302 4.612 10.302 10.302v16.193h13.481c1.707 0 3.091 1.384 3.091 3.091v240.01c0 1.707-1.384 3.091-3.091 3.091h-13.481v16.193c0 5.69-4.612 10.302-10.302 10.302h43.067c5.69 0 10.302-4.612 10.302-10.302v-278.578c0-5.69-4.612-10.302-10.302-10.302z" fill="#ffc344"/></g><g><path d="m312.169 482.414v-240.01c0-1.707 1.384-3.091 3.091-3.091h159.148c1.707 0 3.091 1.384 3.091 3.091v240.01c0 1.707-1.384 3.091-3.091 3.091h-159.148c-1.707 0-3.091-1.384-3.091-3.091z" fill="#fff"/></g><path d="m474.407 239.314h-27.562v8.01c0 2.935-.454 5.765-1.292 8.427v226.663c0 1.707-1.384 3.091-3.091 3.091h31.945c1.707 0 3.091-1.384 3.091-3.091v-240.01c0-1.707-1.384-3.09-3.091-3.09z" fill="#f9f3f1"/><g><path d="m337.334 455.073v-42.571c0-1.95 1.58-3.53 3.53-3.53h107.94c1.95 0 3.53 1.58 3.53 3.53v42.571c0 1.95-1.58 3.53-3.53 3.53h-107.94c-1.95 0-3.53-1.581-3.53-3.53z" fill="#6bd9e7"/></g><g><path d="m448.803 408.971h-37.221c1.95 0 3.53 1.58 3.53 3.53v42.571c0 1.95-1.58 3.53-3.53 3.53h37.221c1.95 0 3.53-1.58 3.53-3.53v-42.571c.001-1.949-1.58-3.53-3.53-3.53z" fill="#2ed1e2"/></g><g><path d="m418.741 275.429h-47.815c-15.496 0-28.104-12.607-28.104-28.104v-34.506c0-4.143 3.357-7.5 7.5-7.5h89.023c4.143 0 7.5 3.357 7.5 7.5v34.506c.001 15.496-12.607 28.104-28.104 28.104zm-60.919-55.111v27.006c0 7.226 5.878 13.104 13.104 13.104h47.815c7.226 0 13.104-5.879 13.104-13.104v-27.006z" fill="#b9acac"/></g><g><g><g><path d="m445.174 311.462h-16.956c-4.143 0-7.5-3.357-7.5-7.5s3.357-7.5 7.5-7.5h16.956c4.143 0 7.5 3.357 7.5 7.5s-3.358 7.5-7.5 7.5z" fill="#b9acac"/></g><g><path d="m445.174 336.896h-16.956c-4.143 0-7.5-3.357-7.5-7.5s3.357-7.5 7.5-7.5h16.956c4.143 0 7.5 3.357 7.5 7.5s-3.358 7.5-7.5 7.5z" fill="#b9acac"/></g><g><path d="m445.174 362.332h-16.956c-4.143 0-7.5-3.357-7.5-7.5s3.357-7.5 7.5-7.5h16.956c4.143 0 7.5 3.357 7.5 7.5s-3.358 7.5-7.5 7.5z" fill="#b9acac"/></g><g><path d="m445.174 387.767h-16.956c-4.143 0-7.5-3.357-7.5-7.5s3.357-7.5 7.5-7.5h16.956c4.143 0 7.5 3.357 7.5 7.5s-3.358 7.5-7.5 7.5z" fill="#b9acac"/></g></g><g><g><path d="m402.782 311.462h-58.289c-4.143 0-7.5-3.357-7.5-7.5s3.357-7.5 7.5-7.5h58.289c4.143 0 7.5 3.357 7.5 7.5s-3.357 7.5-7.5 7.5z" fill="#b9acac"/></g><g><path d="m402.782 336.896h-58.289c-4.143 0-7.5-3.357-7.5-7.5s3.357-7.5 7.5-7.5h58.289c4.143 0 7.5 3.357 7.5 7.5s-3.357 7.5-7.5 7.5z" fill="#b9acac"/></g><g><path d="m402.782 362.332h-58.289c-4.143 0-7.5-3.357-7.5-7.5s3.357-7.5 7.5-7.5h58.289c4.143 0 7.5 3.357 7.5 7.5s-3.357 7.5-7.5 7.5z" fill="#b9acac"/></g><g><path d="m402.782 387.767h-58.289c-4.143 0-7.5-3.357-7.5-7.5s3.357-7.5 7.5-7.5h58.289c4.143 0 7.5 3.357 7.5 7.5s-3.357 7.5-7.5 7.5z" fill="#b9acac"/></g></g></g></g><g><path d="m130.568 399.215h-19.843c-1.707 0-3.091-1.384-3.091-3.091v-19.843c0-1.707-1.384-3.091-3.091-3.091h-24.435c-1.707 0-3.091 1.384-3.091 3.091v19.843c0 1.707-1.384 3.091-3.091 3.091h-19.842c-1.707 0-3.091 1.384-3.091 3.091v24.435c0 1.707 1.384 3.091 3.091 3.091h19.843c1.707 0 3.091 1.384 3.091 3.091v19.843c0 1.707 1.384 3.091 3.091 3.091h24.435c1.707 0 3.091-1.384 3.091-3.091v-19.843c0-1.707 1.384-3.091 3.091-3.091h19.843c1.707 0 3.091-1.384 3.091-3.091v-24.435c-.002-1.708-1.385-3.091-3.092-3.091z" fill="#fff"/></g><g><g><path d="m130.568 399.215h-12.362v15.414c0 1.707-1.384 3.091-3.091 3.091h-19.843c-1.707 0-3.091 1.384-3.091 3.091v19.843c0 1.707-1.384 3.091-3.091 3.091h-12.072v9.022c0 1.707 1.384 3.091 3.091 3.091h24.435c1.707 0 3.091-1.384 3.091-3.091v-19.843c0-1.707 1.384-3.091 3.091-3.091h19.843c1.707 0 3.091-1.384 3.091-3.091v-24.435c-.002-1.709-1.385-3.092-3.092-3.092z" fill="#f9f3f1"/></g></g></g></svg>