<svg id="Layer_1" enable-background="new 0 0 66 66" height="512" viewBox="0 0 66 66" width="512" xmlns="http://www.w3.org/2000/svg"><g><path d="m49.58 2h-37.11c-1.09 0-1.97.88-1.97 1.97v54.11c0 1.09.88 1.97 1.97 1.97h37.11c1.09 0 1.97-.88 1.97-1.97v-54.11c.01-1.09-.88-1.97-1.97-1.97z" fill="#e6e9ee"/><circle cx="31.03" cy="17.21" fill="#fec200" r="11"/><path d="m53.53 5.95h-1.97v52.14c0 1.09-.88 1.97-1.97 1.97h-35.15v1.97c0 1.09.88 1.97 1.97 1.97h37.11c1.09 0 1.97-.88 1.97-1.97v-54.11c.01-1.09-.87-1.97-1.96-1.97z" fill="#aab2bd"/><path d="m36.54 15.21h-3.51v-3.51c0-.28-.22-.5-.5-.5h-3c-.28 0-.5.22-.5.5v3.51h-3.51c-.28 0-.5.22-.5.5v3c0 .28.22.5.5.5h3.51v3.51c0 .28.22.5.5.5h3c.28 0 .5-.22.5-.5v-3.51h3.51c.28 0 .5-.22.5-.5v-3c0-.28-.22-.5-.5-.5z" fill="#ff4823"/><path d="m21.29 33.36h-5.73c-.63 0-1.14.51-1.14 1.14v5.73c0 .63.51 1.14 1.14 1.14h5.73c.63 0 1.14-.51 1.14-1.14v-5.73c-.01-.63-.51-1.14-1.14-1.14z" fill="#ff4823"/><path d="m21.29 46.37h-5.73c-.63 0-1.14.51-1.14 1.14v5.73c0 .63.51 1.14 1.14 1.14h5.73c.63 0 1.14-.51 1.14-1.14v-5.73c-.01-.63-.51-1.14-1.14-1.14z" fill="#009aff"/><path d="m17.56 52.37c-.63 0-1.14-.51-1.14-1.14v-4.86h-.87c-.63 0-1.14.51-1.14 1.14v5.73c0 .63.51 1.14 1.14 1.14h5.73c.63 0 1.14-.51 1.14-1.14v-.87z" opacity=".15"/><g><g><path d="m47.63 36.24h-20c-.55 0-1-.45-1-1s.45-1 1-1h20c.55 0 1 .45 1 1s-.45 1-1 1z" fill="#aab2bd"/></g><g><path d="m42.91 40.48h-15.28c-.55 0-1-.45-1-1s.45-1 1-1h15.28c.55 0 1 .45 1 1s-.45 1-1 1z" fill="#aab2bd"/></g></g><g><g><path d="m47.63 49.25h-20c-.55 0-1-.45-1-1s.45-1 1-1h20c.55 0 1 .45 1 1s-.45 1-1 1z" fill="#aab2bd"/></g><g><path d="m42.91 53.49h-15.28c-.55 0-1-.45-1-1s.45-1 1-1h15.28c.55 0 1 .45 1 1s-.45 1-1 1z" fill="#aab2bd"/></g></g><path d="m17.56 39.36c-.63 0-1.14-.51-1.14-1.14v-4.86h-.87c-.63 0-1.14.51-1.14 1.14v5.73c0 .63.51 1.14 1.14 1.14h5.73c.63 0 1.14-.51 1.14-1.14v-.87z" opacity=".15"/><path d="m35.03 24.21c-6.08 0-11-4.92-11-11 0-2.01.55-3.89 1.49-5.51-3.28 1.9-5.49 5.45-5.49 9.51 0 6.08 4.92 11 11 11 4.07 0 7.61-2.21 9.51-5.49-1.62.94-3.5 1.49-5.51 1.49z" opacity=".15"/><path d="m14.5 16.97v-14.97h-2.03c-1.09 0-1.97.88-1.97 1.97v54.11c0 1.09.88 1.97 1.97 1.97h37.11c1.09 0 1.97-.88 1.97-1.97v-2.08c-20.64-1.06-37.05-18.13-37.05-39.03z" opacity=".07"/><g fill="#fff"><path d="m49.58 2h-31.1c0 2.21 1.79 4 4 4h25.08v12.82c0 2.21 1.79 4 4 4v-18.85c0-1.09-.89-1.97-1.98-1.97z" opacity=".5"/><path d="m31.03 6.21c-1.03 0-2.02.15-2.96.41.2 1.46 1.44 2.59 2.96 2.59 4.41 0 8 3.59 8 8 0 1.52 1.13 2.76 2.59 2.96.26-.94.41-1.93.41-2.96 0-6.08-4.93-11-11-11z" opacity=".4"/></g></g></svg>