<svg id="Layer_1" height="512" viewBox="0 0 48 48" width="512" xmlns="http://www.w3.org/2000/svg" data-name="Layer 1"><g fill="#5fd2ed"><path d="m34 35h-10a1 1 0 0 1 0-2h10a1 1 0 0 1 0 2z"/><path d="m34 31h-10a1 1 0 0 1 0-2h10a1 1 0 0 1 0 2z"/><path d="m34 39h-20a1 1 0 0 1 0-2h20a1 1 0 0 1 0 2z"/></g><path d="m35 6.1v-.1a2 2 0 0 0 -2-2h-18a2 2 0 0 0 -2 2v.1a5.009 5.009 0 0 0 -4 4.9v28a5.006 5.006 0 0 0 5 5h20a5.006 5.006 0 0 0 5-5v-28a5.009 5.009 0 0 0 -4-4.9zm-20-.1h18v1a3 3 0 0 1 -3 3h-12a3 3 0 0 1 -3-3zm22 33a3 3 0 0 1 -3 3h-20a3 3 0 0 1 -3-3v-28a2.993 2.993 0 0 1 2.143-2.86 5 5 0 0 0 4.857 3.86h12a5 5 0 0 0 4.857-3.86 2.993 2.993 0 0 1 2.143 2.86z" fill="#131414"/><path d="m19 35h-4a2 2 0 0 1 -2-2v-4a2 2 0 0 1 2-2h4a2 2 0 0 1 2 2v4a2 2 0 0 1 -2 2zm-4-6v4h4v-4z" fill="#5fd2ed"/><path d="m24.238 25h-.476a2.432 2.432 0 0 1 -2.429-2.429v-.9h-.9a2.432 2.432 0 0 1 -2.433-2.433v-.476a2.432 2.432 0 0 1 2.429-2.429h.9v-.9a2.432 2.432 0 0 1 2.433-2.433h.476a2.432 2.432 0 0 1 2.429 2.429v.9h.9a2.432 2.432 0 0 1 2.433 2.433v.476a2.432 2.432 0 0 1 -2.429 2.429h-.9v.9a2.432 2.432 0 0 1 -2.433 2.433zm-3.809-6.667a.429.429 0 0 0 -.429.429v.476a.429.429 0 0 0 .429.429h1.9a1 1 0 0 1 1 1v1.9a.429.429 0 0 0 .429.429h.476a.429.429 0 0 0 .429-.429v-1.9a1 1 0 0 1 1-1h1.9a.429.429 0 0 0 .437-.429v-.476a.429.429 0 0 0 -.429-.429h-1.9a1 1 0 0 1 -1-1v-1.9a.429.429 0 0 0 -.433-.433h-.476a.429.429 0 0 0 -.429.429v1.9a1 1 0 0 1 -1 1z" fill="#ec5361"/></svg>