<svg id="Capa_1" enable-background="new 0 0 512 512" height="512" viewBox="0 0 512 512" width="512" xmlns="http://www.w3.org/2000/svg"><g><path d="m187.083 61.847-73.027-13.428v-10.302c0-11.379 9.225-20.604 20.604-20.604h25.755z" fill="#7de8f9"/><path d="m244.889 48.419-32.294 9.649 9.631-40.554h2.06c11.379 0 20.604 9.225 20.604 20.604v10.301z" fill="#7de8f9"/><path d="m268.579 38.117v10.302h-30.905v-10.302c0-9.601-6.562-17.668-15.453-19.955v-.649h25.755c11.383 0 20.603 9.22 20.603 20.604z" fill="#00ddf9"/><path d="m305.67 512h-256.515c-14.224 0-25.755-11.531-25.755-25.755v-412.072c0-14.224 11.531-25.755 25.755-25.755h256.515c14.224 0 25.755 11.531 25.755 25.755v412.072c0 14.224-11.531 25.755-25.755 25.755z" fill="#e29a6c"/><path d="m359.235 74.173v412.072c0 14.227-11.528 25.755-25.755 25.755h-30.905c14.227 0 25.755-11.528 25.755-25.755v-10.302l-36.837-113.625 36.837-277.844v-10.301c0-14.227-11.528-25.755-25.755-25.755h30.905c14.227.001 25.755 11.528 25.755 25.755z" fill="#ce845c"/><path d="m323.183 481.095h-263.726c-2.845 0-5.151-2.306-5.151-5.151v-391.469c0-2.845 2.306-5.151 5.151-5.151h263.726c2.845 0 5.151 2.306 5.151 5.151v391.469c0 2.844-2.306 5.151-5.151 5.151z" fill="#fff"/><path d="m184.109 110.229h-13.392c-5.69 0-10.302-4.612-10.302-10.302v-89.625c0-5.69 4.612-10.302 10.302-10.302h13.392c5.69 0 10.302 4.612 10.302 10.302v89.626c0 5.689-4.613 10.301-10.302 10.301z" fill="#bcf1f8"/><path d="m222.221 10.302v89.626c0 5.687-4.605 10.302-10.302 10.302h-30.905c5.697 0 10.302-4.615 10.302-10.302v-89.626c-.001-5.687-4.606-10.302-10.302-10.302h30.905c5.697 0 10.302 4.615 10.302 10.302z" fill="#8ef0f0"/><path d="m292.278 265.787h-201.916c-2.845 0-5.151-2.306-5.151-5.151v-114.35c0-2.845 2.306-5.151 5.151-5.151h201.915c2.845 0 5.151 2.306 5.151 5.151v114.35c.001 2.845-2.305 5.151-5.15 5.151z" fill="#baf39a"/><path d="m233.891 246.055c-.223 0-.447-.009-.672-.029-3.069-.267-5.686-2.331-6.66-5.254l-16.968-50.9-7.644 17.099c-1.243 2.783-4.006 4.573-7.053 4.573h-14.634l-10.799 22.855c-1.344 2.843-4.29 4.595-7.415 4.413-3.14-.175-5.86-2.234-6.88-5.209l-11.212-32.707-1.055 4.637c-.8 3.516-3.927 6.011-7.534 6.011h-19.248c-4.267 0-7.726-3.459-7.726-7.726 0-4.268 3.459-7.726 7.726-7.726h13.083l5.718-25.121c.767-3.367 3.675-5.817 7.123-6 3.448-.173 6.6 1.943 7.72 5.21l13.855 40.419 4.764-10.082c1.277-2.702 3.997-4.426 6.986-4.426h14.518l13.703-30.652c1.3-2.909 4.246-4.717 7.435-4.564 3.182.157 5.942 2.252 6.949 5.274l17.603 52.804 10.159-18.807c1.349-2.498 3.959-4.054 6.798-4.054h13.993c4.267 0 7.726 3.459 7.726 7.726 0 4.268-3.459 7.726-7.726 7.726h-9.385l-16.452 30.457c-1.357 2.511-3.977 4.053-6.796 4.053z" fill="#80cf80"/><path d="m241.638 442.463h-62.68c-4.267 0-7.726-3.459-7.726-7.726s3.459-7.726 7.726-7.726h62.68c4.267 0 7.726 3.459 7.726 7.726s-3.459 7.726-7.726 7.726z" fill="#d3c6c3"/><path d="m297.429 411.557h-118.471c-4.267 0-7.726-3.459-7.726-7.726s3.459-7.726 7.726-7.726h118.471c4.267 0 7.726 3.459 7.726 7.726s-3.459 7.726-7.726 7.726z" fill="#d3c6c3"/><path d="m102.743 442.851c-1.978 0-3.956-.756-5.464-2.263l-17.37-17.37c-3.018-3.018-3.018-7.909 0-10.928 3.017-3.016 7.909-3.016 10.927 0l11.964 11.964 40.861-40.015c3.049-2.985 7.94-2.937 10.926.115 2.986 3.048 2.935 7.94-.114 10.926l-46.324 45.365c-1.503 1.472-3.455 2.206-5.406 2.206z" fill="#baf39a"/><path d="m241.638 365.199h-62.68c-4.267 0-7.726-3.459-7.726-7.726s3.459-7.726 7.726-7.726h62.68c4.267 0 7.726 3.459 7.726 7.726s-3.459 7.726-7.726 7.726z" fill="#d3c6c3"/><path d="m297.429 334.294h-118.471c-4.267 0-7.726-3.459-7.726-7.726s3.459-7.726 7.726-7.726h118.471c4.267 0 7.726 3.459 7.726 7.726s-3.459 7.726-7.726 7.726z" fill="#d3c6c3"/><path d="m102.743 365.588c-1.978 0-3.956-.756-5.464-2.263l-17.37-17.37c-3.018-3.018-3.018-7.909 0-10.928 3.017-3.016 7.909-3.016 10.927 0l11.964 11.964 40.861-40.015c3.049-2.985 7.94-2.937 10.926.115 2.986 3.048 2.935 7.94-.114 10.926l-46.324 45.365c-1.503 1.471-3.455 2.206-5.406 2.206z" fill="#baf39a"/><path d="m287.413 341.523 49.726-12.128c7.152-1.744 14.66-1.605 21.685.592 4.657 1.457 9.461 2.582 14.383 3.348 5.04.784 16.017-1.252 21.277-1.252l11.811-3.937c17.708-1.578 64.252-38.364 64.252-93.553v.005c0-55.188-42.677-93.463-73.386-96.53 0 0-18.906-2.991-23.943-2.209-47.85 7.429-84.474 48.807-84.474 98.74 0 10.052 1.487 19.756 4.249 28.907 2.094 6.936 2.212 14.318.495 21.357l-12.301 50.436c-.914 3.751 2.474 7.139 6.226 6.224z" fill="#fcf1f2"/><path d="m488.599 234.593c0 27.599-11.188 52.58-29.267 70.66-18.09 18.08-43.062 29.267-70.66 29.267-5.254 0-10.425-.402-15.463-1.195 21.417-3.317 40.569-13.434 55.218-28.072 18.08-18.08 29.267-43.062 29.267-70.66 0-27.588-11.188-52.58-29.267-70.66-14.639-14.639-33.8-24.755-55.207-28.072 5.038-.793 10.199-1.195 15.453-1.195 27.599 0 52.57 11.188 70.66 29.267 18.079 18.079 29.266 43.072 29.266 70.66z" fill="#f4e5e0"/><path d="m432.939 221.395c0-16.781-12.614-25.375-19.281-26.005l-16.25-.16c-2.014 1.193-3.878 2.611-5.558 4.22-1.705 1.633-4.375 1.633-6.08 0-5.456-5.226-12.854-8.44-21.006-8.44-16.781 0-30.385 13.604-30.385 30.385v.951c0 20.592 22.732 42.615 38.976 54.448 13.452 1.372 59.584-24.386 59.584-54.448z" fill="#ff8d95"/><path d="m443.236 221.396v.948c0 15.03-12.105 30.823-24.972 42.866-12.857 12.033-26.465 20.315-29.453 20.315-1.885 0-7.984-3.286-15.453-8.736 4.389-3.194 9.241-7.129 14-11.579 12.867-12.043 24.972-27.835 24.972-42.866v-.948c0-11.136-5.985-20.871-14.917-26.156 1.257-.762 2.575-1.411 3.935-1.978 3.544-1.453 7.428-2.256 11.507-2.256 16.782 0 30.381 13.609 30.381 30.39z" fill="#ff738a"/></g></svg>