<svg id="Capa_1" enable-background="new 0 0 425.2 425.2" height="512" viewBox="0 0 425.2 425.2" width="512" xmlns="http://www.w3.org/2000/svg"><g><g><ellipse cx="212.6" cy="212.6" fill="#4fbdeb" rx="210.08" ry="212.598"/><path d="m279.73 168.863c0 101.89-81.617 184.485-182.287 184.485-16.478 0-32.449-2.208-47.633-6.367-29.556-36.625-47.29-83.404-47.29-134.381 0-105.24 75.566-192.624 174.79-209.607 60.648 29.962 102.42 92.98 102.42 165.87z" fill="#a2d8f4"/></g><g fill="#fff"><path d="m109.08 133.565 16.719 9.144-16.719 9.144-9.144 16.719-9.144-16.719-16.72-9.144 16.72-9.144 9.144-16.72z"/><path d="m380.145 154.825 8.708 4.763-8.708 4.762-4.762 8.708-4.763-8.708-8.707-4.762 8.707-4.763 4.763-8.707z"/><path d="m215.016 382.612 7.911 4.326-7.911 4.326-4.326 7.91-4.326-7.91-7.91-4.326 7.91-4.326 4.326-7.91z"/></g><g><g><g><path d="m134.923 67.463v259.336c0 17.087-13.852 30.939-30.939 30.939h211.339c17.087 0 30.939-13.852 30.939-30.939v-259.336z" fill="#fff"/><path d="m71.781 287.395v39.404c0 17.087 13.852 30.939 30.939 30.939h1.266c17.086-.001 30.936-13.853 30.936-30.939v-39.404z" fill="#394796"/></g><g><g fill="#394796"><path d="m316.533 211.48h-144.38c-2.186 0-3.974-1.788-3.974-3.974 0-2.186 1.788-3.974 3.974-3.974h144.38c2.186 0 3.974 1.788 3.974 3.974 0 2.186-1.789 3.974-3.974 3.974z"/><path d="m316.533 248.569h-144.38c-2.186 0-3.974-1.788-3.974-3.974 0-2.186 1.788-3.974 3.974-3.974h144.38c2.186 0 3.974 1.788 3.974 3.974 0 2.185-1.789 3.974-3.974 3.974z"/><path d="m316.533 285.657h-144.38c-2.186 0-3.974-1.788-3.974-3.974 0-2.186 1.788-3.974 3.974-3.974h144.38c2.186 0 3.974 1.788 3.974 3.974 0 2.186-1.789 3.974-3.974 3.974z"/><path d="m217.2 322.746h-45.048c-2.186 0-3.974-1.788-3.974-3.974 0-2.186 1.788-3.974 3.974-3.974h45.048c2.186 0 3.974 1.788 3.974 3.974 0 2.186-1.788 3.974-3.974 3.974z"/></g><g><circle cx="244.342" cy="133.151" fill="#a2d8f4" r="36.15"/><path d="m261.906 135.272c0 2.265-1.843 4.107-4.107 4.107h-7.942v7.942c0 2.265-1.843 4.107-4.107 4.107h-2.814c-2.265 0-4.107-1.843-4.107-4.107v-7.942h-7.942c-2.265 0-4.107-1.843-4.107-4.107v-2.814c0-2.265 1.843-4.107 4.107-4.107h7.942v-7.942c0-2.265 1.843-4.107 4.107-4.107h2.814c2.265 0 4.107 1.843 4.107 4.107v7.942h7.942c2.265 0 4.107 1.843 4.107 4.107z" fill="#394796"/></g></g></g><g><path d="m347.817 173.433c-6.821-5.972-17.192-5.284-23.164 1.537l-100.597 114.9-.225 1.024c2.406 4.722 5.723 9.079 9.954 12.784s8.988 6.416 13.987 8.177l.985-.358 100.597-114.899c5.972-6.822 5.284-17.193-1.537-23.165z" fill="#2662a9"/><g><path d="m348.385 173.984-113.993 130.199c4.079 3.441 8.617 5.993 13.381 7.672l.985-.358 100.597-114.899c5.796-6.621 5.3-16.573-.97-22.614z" fill="#394796"/></g><path d="m233.785 303.677c-4.231-3.705-7.548-8.062-9.954-12.784l-7.085 32.246 31.027-11.284c-5-1.762-9.757-4.473-13.988-8.178z" fill="#a2d8f4"/></g></g></g></svg>