<svg height="512" viewBox="0 0 60 60" width="512" xmlns="http://www.w3.org/2000/svg"><g id="Page-1" fill="none" fill-rule="evenodd"><g id="023---Home-Worker" fill-rule="nonzero"><path id="Shape" d="m59 16c-.0029127 4.981993-2.4777248 9.6378592-6.6056495 12.4272141-4.1279246 2.7893549-9.3709198 3.3486284-13.9943505 1.4927859v-.01h-.01c-6.9979162-2.8220182-10.8102961-10.4030843-8.9027626-17.7034908 1.9075336-7.30040644 8.941157-12.04750501 16.4250893-11.08554057 7.4839323.96196445 13.0883929 7.3335282 13.0876733 14.87903137z" fill="#02a9f4"/><path id="Shape" d="m44 1c-.506 0-1.006.027-1.5.076 7.6612948.77416504 13.491947 7.22369028 13.491947 14.924 0 7.7003097-5.8306522 14.149835-13.491947 14.924.495.049 1 .076 1.5.076 8.2842712-.0000001 14.9999998-6.7157288 14.9999998-15 0-8.28427116-6.7157286-14.99999988-14.9999998-15z" fill="#0377bc"/><path id="Rectangle-path" d="m5 30h32v29h-32z" fill="#f5f5f5"/><path id="Rectangle-path" d="m34 30h3v29h-3z" fill="#cfd8dc"/><path id="Rectangle-path" d="m10 45h10v14h-10z" fill="#f44335"/><path id="Rectangle-path" d="m17 45h3v14h-3z" fill="#c81e1e"/><rect id="Rectangle-path" fill="#02a9f4" height="10" rx="1" width="8" x="25" y="45"/><path id="Shape" d="m32 45h-3c.5522847 0 1 .4477153 1 1v8c0 .5522847-.4477153 1-1 1h3c.5522847 0 1-.4477153 1-1v-8c0-.5522847-.4477153-1-1-1z" fill="#0377bc"/><rect id="Rectangle-path" fill="#02a9f4" height="7" rx="1" width="8" x="25" y="34"/><path id="Shape" d="m32 34h-3c.5522847 0 1 .4477153 1 1v5c0 .5522847-.4477153 1-1 1h3c.5522847 0 1-.4477153 1-1v-5c0-.5522847-.4477153-1-1-1z" fill="#0377bc"/><rect id="Rectangle-path" fill="#02a9f4" height="7" rx="1" width="8" x="11" y="34"/><path id="Shape" d="m18 34h-3c.5522847 0 1 .4477153 1 1v5c0 .5522847-.4477153 1-1 1h3c.5522847 0 1-.4477153 1-1v-5c0-.5522847-.4477153-1-1-1z" fill="#0377bc"/><path id="Shape" d="m47.97 39.56c.6128831-.3684219 1.3149084-.562084 2.03-.56 2.152699-.0030815 3.921756 1.698077 4.0028843 3.8492489s-1.5547724 3.9807435-3.7015885 4.1398119c-2.1468162.1590684-4.0344965-1.4094233-4.2712958-3.5490608" fill="#60a917"/><path id="Shape" d="m50 39c-.5147897.0011226-1.0243778.1030402-1.5.3 1.5108318.6089403 2.5003055 2.0745675 2.5003055 3.7035s-.9894737 3.0945597-2.5003055 3.7035c1.4962422.6065338 3.2104238.2541031 4.3460148-.8935279 1.1355911-1.147631 1.4699241-2.8654341.8476444-4.3551965-.6222798-1.4897623-2.0791553-2.4593703-3.6936592-2.4582756z" fill="#549414"/><path id="Shape" d="m38.39 29.91c-.1207118.061365-.2546047.0922634-.39.09h-34c-.43043041 0-.81256925-.2754301-.9486833-.6837722-.13611404-.4083422.00433897-.8579696.3486833-1.1162278l17-12.75c.3544214-.2700476.8455786-.2700476 1.2 0l8.61 6.45.01.01c1.5602408 3.6407865 4.4972153 6.5166489 8.17 8z" fill="#f44335"/><path id="Shape" d="m30.22 21.91-.01-.01-8.61-6.45c-.3544214-.2700476-.8455786-.2700476-1.2 0l-.9.675 7.71 5.775.01.01c1.5602408 3.6407865 4.4972153 6.5166489 8.17 8-.1207118.061365-.2546047.0922634-.39.09h3c.1353953.0022634.2692882-.028635.39-.09-3.6727847-1.4833511-6.6097592-4.3592135-8.17-8z" fill="#c81e1e"/><path id="Shape" d="m47.58 30.57c-1.1719164.2855815-2.3737891.4299405-3.58.43-1.1923272-.0017036-2.3803756-.1426585-3.54-.42 1.2383593-1.3336688 1.5610632-3.2777631.82-4.94v-.02c.01.01.01.01.02.01.8748026.3337878 1.8036865.5032921 2.74.5.9321.0025978 1.8569855-.1634073 2.73-.49-.7392424 1.65757-.4207418 3.5960989.81 4.93z" fill="#ffe0b2"/><path id="Shape" d="m46.77 25.64c-.8730145.3265927-1.7979.4925978-2.73.49-.141 0-.28-.011-.419-.019-.5459509 1.5483055-.1752238 3.2720508.959 4.459-.6845344.1615935-1.3795805.2748726-2.08.339.4981423.0556461.998784.0860184 1.5.091 1.2062109-.0000595 2.4080836-.1444185 3.58-.43-1.2307418-1.3339011-1.5492424-3.27243-.81-4.93z" fill="#dfc49c"/><path id="Shape" d="m54.56 18.31c-.0084207.6328191-.2683285 1.2362729-.7223571 1.6771685-.4540286.4408955-1.0648493.6829838-1.6976429.6728315-.1546184-.0012627-.3087212-.018013-.46-.05-.7842645 2.3318329-2.5878208 4.1795579-4.9 5.02h-.01v.01c-.8730145.3265927-1.7979.4925978-2.73.49-.9363135.0032921-1.8651974-.1662122-2.74-.5-.01 0-.01 0-.02-.01-2.3021943-.8436377-4.0971661-2.6864264-4.88-5.01-.1479905.0314263-.2987206.048174-.45.05-.8559213.0249724-1.6577322-.4173931-2.0930646-1.1547604-.4353323-.7373673-.4353323-1.6531119 0-2.3904792.4353324-.7373673 1.2371433-1.1797328 2.0930646-1.1547604v-3.25l.03-.03c.4713707.3981166 1.0052094.7157168 1.58.94 1.4060852.6371161 2.9902206.7644127 4.48.36 2.6-.89 3.58-1.41 5.3-1.27s4.01 1 4.8 3.25c.6327936-.0101523 1.2436143.231936 1.6976429.6728315.4540286.4408956.7139364 1.0443494.7223571 1.6771685z" fill="#ffe0b2"/><path id="Shape" d="m48.962 19.921c-.0512076.5475118-.196683 1.0820496-.43 1.58-.9068082 1.920977-2.5356416 3.4060475-4.532 4.132-.4371867.1644249-.8883614.2889331-1.348.372.4599864.0834353.926508.125603 1.394.126.9366819.0001444 1.8656558-.1692527 2.742-.5 2.311584-.8419156 4.1147122-2.68957 4.9-5.021.1499477.029169.3022483.0445664.455.046.8559213.0249724 1.6577322-.4173931 2.0930646-1.1547604.4353323-.7373673.4353323-1.6531119 0-2.3904792-.4353324-.7373673-1.2371433-1.1797328-2.0930646-1.1547604-.79-2.248-3.067-3.1-4.8-3.243-.6367241-.0579949-1.2786531-.0106949-1.9.14l.047.01c2.3442004.5483388 3.913803 2.7557264 3.662 5.15z" fill="#dfc49c"/><path id="Shape" d="m52.138 15.958c-.79-2.248-3.067-3.1-4.8-3.243s-2.7.378-5.3 1.262c-1.4892976.4086433-3.0747818.2815922-4.48-.359-.5770143-.2197067-1.1115901-.5377455-1.58-.94-3.248-2.718-2.458-8.45-2.458-8.45 2.426 4.69 12.948.783 17 3.133s1.618 8.597 1.618 8.597z" fill="#a0522d"/><path id="Shape" d="m50.521 7.361c-1.475-.855-3.808-.88-6.293-.793 1.2120525-.00766479 2.4096154.26366875 3.5.793 2.38 1.378 2.515 4.1 2.227 6.122 1.014143.5185289 1.793131 1.4033362 2.179 2.475 0 0 2.43-6.258-1.613-8.597z" fill="#783e22"/><circle id="Oval" cx="44" cy="40" fill="#60a917" r="4"/><path id="Shape" d="m44 36c-.5146843.0021695-1.0240724.1040471-1.5.3 1.5110147.6085107 2.5007405 2.0740584 2.5007405 3.703s-.9897258 3.0944893-2.5007405 3.703c1.496414.6077595 3.211506.2559465 4.3478056-.8918556s1.4708211-2.8663504.8480212-4.3565675c-.6227999-1.490217-2.0807039-2.4596648-3.6958268-2.4575769z" fill="#549414"/><g fill="#000"><path id="Shape" d="m59 58h-2c-.5522847 0-1 .4477153-1 1s.4477153 1 1 1h2c.5522847 0 1-.4477153 1-1s-.4477153-1-1-1z"/><path id="Shape" d="m26 56h6c1.1045695 0 2-.8954305 2-2v-8c0-1.1045695-.8954305-2-2-2h-6c-1.1045695 0-2 .8954305-2 2v8c0 1.1045695.8954305 2 2 2zm0-2v-3h6v3zm6-8v3h-6v-3z"/><path id="Shape" d="m26 42h6c1.1045695 0 2-.8954305 2-2v-5c0-1.1045695-.8954305-2-2-2h-6c-1.1045695 0-2 .8954305-2 2v5c0 1.1045695.8954305 2 2 2zm0-7h6v5h-6z"/><path id="Shape" d="m12 42h6c1.1045695 0 2-.8954305 2-2v-5c0-1.1045695-.8954305-2-2-2h-6c-1.1045695 0-2 .8954305-2 2v5c0 1.1045695.8954305 2 2 2zm0-7h6v5h-6z"/><path id="Shape" d="m44 0c-3.5864107.00369339-7.0667136 1.21711342-9.878 3.444-.2791753-.22095791-.6556418-.27462066-.9854358-.14046718-.329794.13415349-.5619021.43537201-.6075642.78846718-.007.054-.047.377-.073.864-3.6491937 3.79057898-5.1924103 9.1379515-4.124 14.29l-6.132-4.596c-.7091891-.5390686-1.6908109-.5390686-2.4 0l-17 12.75c-.68868865.5165165-.96959469 1.4157713-.6973666 2.2324555.2722281.8166843 1.03650578 1.3675445 1.8973666 1.3675445v27h-3c-.55228475 0-1 .4477153-1 1s.44771525 1 1 1h51c.5522847 0 1-.4477153 1-1s-.4477153-1-1-1h-1v-10.1c1.8061578-.3521458 3.2729142-1.6679231 3.81842-3.4253746.5455059-1.7574515.0815857-3.672503-1.2077275-4.9854706-1.2893133-1.3129676-3.1956151-1.8116233-4.9626925-1.2981548-.8692489-2.2302728-3.1984955-3.5303698-5.5530822-3.0995196s-4.0725294 2.4715155-4.0956921 4.8650847c-.0231628 2.3935693 1.6549666 4.4670986 4.0007743 4.9434349v13.1h-5v-27c.1282811.0000865.2562499-.0126434.382-.038 5.9952625 2.2528173 12.7563523.7114968 17.1828502-3.9171613 4.4264978-4.628658 5.6645445-11.4517984 3.1464115-17.3405474-2.5181329-5.88874899-8.3067047-9.70718334-14.7112617-9.7042913zm.03 25.13c-3.055234-.0305307-5.7532531-1.9995944-6.714-4.9-.1636708-.4802214-.6610171-.7617788-1.157-.655-.0784854.0175652-.1585799.0269486-.239.028-.3713274.0080423-.7306325-.1317982-.9988284-.3887411-.2681959-.256943-.4232998-.6099279-.4311716-.9812589.0041126-.3725586.1580483-.7277724.4270868-.9855226.2690384-.2577501.6305204-.3963281 1.0029132-.3844774.5522847 0 1-.4477153 1-1v-1.447c.069.03.136.074.2.1 1.6435388.7540737 3.5019503.8980102 5.242.406.488-.166.92-.32 1.311-.459 1.1156159-.533602 2.3429488-.7918254 3.579-.753 1.177.1 3.253.557 3.93 2.48.1381263.3940364.5065363.6607749.924.669h.019.017.01c.4981632-.0088494.9619138.2532591 1.2112806.6846071s.2450914.9640272-.0111671 1.3913169-.7241565.6819205-1.2221135.665076c-.0800257-.0011908-.1597412-.0102342-.238-.027-.4969291-.1078054-.9956393.1744672-1.159.656-.9518065 2.902307-3.6487238 4.8741989-6.703 4.901zm7.7-11.672c-1.1959392-1.0485778-2.711393-1.661808-4.3-1.74-.225-.019-.44-.028-.647-.028-1.301365.0644692-2.5800121.3660849-3.773.89-.383.136-.807.287-1.283.45-1.2684596.3266831-2.6108276.2051635-3.8-.344-.475407-.1805953-.9154186-.4432484-1.3-.776-1.6-1.333-2.059-3.6-2.162-5.3 2.174 1.272 5.45 1.138 8.643 1 2.686-.11 5.462-.224 6.914.617 1.946 1.127 1.987 3.502 1.705 5.231zm-19.141-5.538c.2064171 1.91375334 1.0237766 3.7101211 2.331 5.123v1.963c-1.5817607.4563477-2.6001584 1.991255-2.405833 3.6260204.1943254 1.6347653 1.5441697 2.8881586 3.188833 2.9609796.9262871 2.1320309 2.6234864 3.8356589 4.752 4.77.3783294 1.0216452.2530819 2.161842-.338 3.077-.428-.123-.847-.268-1.257-.43-.0683286-.0346553-.140489-.0611701-.215-.079-5.2279377-2.1698119-8.6381065-7.2706671-8.645-12.931-.0027413-2.8977347.9026844-5.7234743 2.589-8.08zm-11.589 8.33 8.424 6.313c1.1656202 2.572382 2.9880527 4.79248 5.284 6.437h-30.708zm-10 41.75v-12h8v12zm42-15c-.0053269 1.4836163-1.0943236 2.7405223-2.5620575 2.9570937-1.4677338.2165714-2.8733423-.6722432-3.3069425-2.0910937 1.1150629-.8967845 1.7886947-2.23129 1.848-3.661.3252259-.1292111.6711041-.1986577 1.021-.205 1.6568542 0 3 1.3431458 3 3zm-12-3c0-1.6568542 1.3431458-3 3-3s3 1.3431458 3 3-1.3431458 3-3 3-3-1.3431458-3-3zm4 4.9c.122-.025.234-.075.352-.108.601291 1.593927 1.9787988 2.7675274 3.648 3.108v10.1h-4zm-9 13.1h-15v-12c.5522847 0 1-.4477153 1-1s-.4477153-1-1-1h-12c-.55228475 0-1 .4477153-1 1s.44771525 1 1 1v12h-3v-27h30zm6.168-28.134c.414742-.8903069.5716761-1.8790265.453-2.854.4657274.0771744.9369237.1166358 1.409.118.4672628-.0015305.9336883-.039647 1.395-.114-.1171658.9712703.0393867 1.9559577.452 2.843-1.2291932.1856221-2.4791149.1879811-3.709.007zm5.759-.437c-.5727299-.9148689-.6978629-2.0406981-.34-3.059 2.1356064-.9309471 3.8377739-2.6384763 4.762-4.777 1.7893805-.0995442 3.1942639-1.5709309 3.211-3.363-.0002668-1.3814346-.8544282-2.6188939-2.146-3.109.562-2.074 1.249-6.517-2.392-8.625-1.954-1.133-4.892-1.012-8-.884-2.867.119-5.808.235-7.5-.731 4.4644597-3.41123638 10.5366319-3.82043298 15.4184065-1.03902842 4.8817745 2.78140457 7.6257747 8.21363992 6.9675413 13.79348422-.6582335 5.5798443-4.5909612 10.2244509-9.9859478 11.7935442z"/></g></g></g></svg>