<svg id="Layer_1" enable-background="new 0 0 512 512" height="512" viewBox="0 0 512 512" width="512" xmlns="http://www.w3.org/2000/svg"><g><path d="m509.506 195.516-24.403-13.347c-.805-.44-1.466-1.102-1.906-1.906l-13.347-24.403c-1.819-3.326-6.596-3.326-8.415 0l-13.347 24.403c-.44.805-1.102 1.466-1.906 1.906l-24.403 13.347c-3.326 1.819-3.326 6.596 0 8.415l24.403 13.347c.805.44 1.466 1.102 1.906 1.906l13.347 24.403c1.819 3.326 6.596 3.326 8.415 0l13.347-24.403c.44-.805 1.102-1.466 1.906-1.906l24.403-13.347c3.325-1.819 3.325-6.596 0-8.415z" fill="#fff0ad"/><path d="m509.506 195.516-24.403-13.347c-.805-.44-1.466-1.102-1.906-1.906l-13.347-24.403c-1.819-3.326-6.596-3.326-8.415 0l-4.039 7.386c9.568 9.903 15.465 23.376 15.465 38.233 0 14.221-5.394 27.182-14.246 36.95l2.821 5.158c1.819 3.326 6.596 3.326 8.415 0l13.347-24.403c.44-.805 1.102-1.466 1.906-1.906l24.403-13.347c3.324-1.819 3.324-6.596-.001-8.415z" fill="#ffe177"/><path d="m90.222 104.956-24.403-13.347c-.805-.44-1.466-1.102-1.906-1.906l-13.347-24.404c-1.819-3.326-6.596-3.326-8.415 0l-13.347 24.404c-.44.805-1.102 1.466-1.906 1.906l-24.404 13.347c-3.326 1.819-3.326 6.596 0 8.415l24.403 13.347c.805.44 1.466 1.102 1.906 1.906l13.347 24.403c1.819 3.326 6.596 3.326 8.415 0l13.347-24.403c.44-.805 1.102-1.466 1.906-1.906l24.403-13.347c3.327-1.819 3.327-6.596.001-8.415z" fill="#fff0ad"/><path d="m90.222 104.956-24.403-13.347c-.805-.44-1.466-1.102-1.906-1.906l-13.347-24.404c-1.819-3.326-6.596-3.326-8.415 0l-4.039 7.386c9.568 9.903 15.465 23.376 15.465 38.233 0 14.221-5.394 27.182-14.246 36.95l2.821 5.158c1.819 3.326 6.596 3.326 8.415 0l13.347-24.403c.44-.805 1.102-1.466 1.906-1.906l24.403-13.347c3.325-1.818 3.325-6.595-.001-8.414z" fill="#ffe177"/><path d="m330.769 53.483-24.403-13.347c-.805-.44-1.466-1.102-1.906-1.906l-13.347-24.403c-1.819-3.326-6.596-3.326-8.415 0l-13.347 24.403c-.44.805-1.102 1.466-1.906 1.906l-24.403 13.347c-3.326 1.819-3.326 6.596 0 8.415l24.403 13.347c.805.44 1.466 1.102 1.906 1.906l13.347 24.403c1.819 3.326 6.596 3.326 8.415 0l13.347-24.403c.44-.805 1.102-1.466 1.906-1.906l24.403-13.347c3.326-1.819 3.326-6.596 0-8.415z" fill="#fff0ad"/><path d="m330.769 53.483-24.403-13.347c-.805-.44-1.466-1.102-1.906-1.906l-13.347-24.403c-1.819-3.326-6.596-3.326-8.415 0l-4.039 7.386c9.568 9.903 15.465 23.376 15.465 38.233 0 14.221-5.394 27.182-14.246 36.95l2.821 5.158c1.819 3.326 6.596 3.326 8.415 0l13.347-24.403c.44-.805 1.102-1.466 1.906-1.906l24.403-13.347c3.325-1.819 3.325-6.596-.001-8.415z" fill="#ffe177"/><path d="m121.046 167.404h61.811v122.592h-61.811z" fill="#7a6d79"/><path d="m151.952 167.404h30.905v122.592h-30.905z" fill="#685e68"/><path d="m189.038 182.857h-74.173c-2.276 0-4.121-1.845-4.121-4.121v-22.664c0-2.276 1.845-4.121 4.121-4.121h74.173c2.276 0 4.121 1.845 4.121 4.121v22.664c0 2.276-1.845 4.121-4.121 4.121z" fill="#f3f0f3"/><path d="m189.038 151.952h-30.905c2.276 0 4.121 1.845 4.121 4.121v22.664c0 2.276-1.845 4.121-4.121 4.121h30.905c2.276 0 4.121-1.845 4.121-4.121v-22.664c0-2.276-1.845-4.121-4.121-4.121z" fill="#e2dee2"/><path d="m410.53 303.51v171.4h-309.06v-171.39l154.53-118.6z" fill="#f3f0f3"/><path d="m379.622 279.79v195.123h30.905v-171.405z" fill="#e2dee2"/><path d="m442.598 307.611-177.19-135.984c-5.549-4.258-13.267-4.258-18.816 0l-177.19 135.984c-6.77 5.196-8.047 14.897-2.851 21.667s14.897 8.046 21.667 2.851l167.782-128.763 167.782 128.764c2.806 2.153 6.114 3.195 9.397 3.195 4.639 0 9.227-2.081 12.27-6.046 5.196-6.771 3.919-16.472-2.851-21.668z" fill="#d6694b"/><path d="m209.642 349.311h92.716v125.603h-92.716z" fill="#dd7f66"/><path d="m271.453 349.311h30.905v125.603h-30.905z" fill="#d6694b"/><path d="m309.86 349.31v125.6h-15v-118.1h-77.72v118.1h-15v-125.6c0-4.14 3.36-7.5 7.5-7.5h92.72c4.14 0 7.5 3.36 7.5 7.5z" fill="#685e68"/><path d="m276.604 407.147c-4.143 0-7.5 3.357-7.5 7.5v8.242c0 4.143 3.357 7.5 7.5 7.5s7.5-3.357 7.5-7.5v-8.242c0-4.142-3.358-7.5-7.5-7.5z" fill="#f3f0f3"/><path d="m338.387 349.311h41.207v67.992h-41.207z" fill="#a6e7f0"/><path d="m132.378 349.311h41.207v67.992h-41.207z" fill="#a6e7f0"/><g fill="#685e68"><path d="m379.595 341.811h-41.208c-4.143 0-7.5 3.357-7.5 7.5v67.992c0 4.143 3.357 7.5 7.5 7.5h41.208c4.143 0 7.5-3.357 7.5-7.5v-67.992c0-4.143-3.358-7.5-7.5-7.5zm-7.5 67.992h-26.208v-52.992h26.208z"/><path d="m173.585 341.811h-41.207c-4.142 0-7.5 3.357-7.5 7.5v67.992c0 4.143 3.358 7.5 7.5 7.5h41.207c4.142 0 7.5-3.357 7.5-7.5v-67.992c0-4.143-3.357-7.5-7.5-7.5zm-7.5 67.992h-26.207v-52.992h26.207z"/></g><circle cx="256" cy="283.679" fill="#7a6d79" r="30.905"/><path d="m256 245.273c-21.177 0-38.405 17.229-38.405 38.405s17.229 38.405 38.405 38.405 38.405-17.229 38.405-38.405-17.228-38.405-38.405-38.405zm0 61.811c-12.906 0-23.405-10.5-23.405-23.405s10.5-23.405 23.405-23.405 23.405 10.5 23.405 23.405-10.5 23.405-23.405 23.405z" fill="#685e68"/><path d="m496.547 500.668h-481.094c-8.535 0-15.453-6.918-15.453-15.453 0-8.534 6.918-15.453 15.453-15.453h481.095c8.534 0 15.453 6.918 15.453 15.453-.001 8.535-6.919 15.453-15.454 15.453z" fill="#57be92"/><path d="m496.547 469.763h-30.905c8.534 0 15.453 6.918 15.453 15.453 0 8.534-6.918 15.453-15.453 15.453h30.905c8.534 0 15.453-6.918 15.453-15.453s-6.918-15.453-15.453-15.453z" fill="#22b37f"/></g></svg>