<svg height="512pt" viewBox="0 -20 512.00022 512" width="512pt" xmlns="http://www.w3.org/2000/svg"><path d="m456.820312 189.070312v-135.667968h-75.664062v61.898437zm0 0" fill="#ffc850"/><path d="m411.15625 53.402344h-30v61.898437l30 29.25zm0 0" fill="#feb644"/><path d="m452.6875 23.203125h-67.398438c-9.109374 0-16.5625 7.453125-16.5625 16.566406 0 9.109375 7.453126 16.5625 16.5625 16.5625h67.398438c9.109375 0 16.5625-7.453125 16.5625-16.5625 0-9.113281-7.453125-16.566406-16.5625-16.566406zm0 0" fill="#feb644"/><path d="m452.6875 36.082031h-67.398438c-5.300781 0-10.027343-2.53125-13.066406-6.4375-2.183594 2.804688-3.496094 6.316407-3.496094 10.125 0 9.109375 7.453126 16.5625 16.5625 16.5625h67.398438c9.109375 0 16.5625-7.453125 16.5625-16.5625 0-3.808593-1.316406-7.320312-3.496094-10.125-3.039062 3.902344-7.765625 6.4375-13.066406 6.4375zm0 0" fill="#fda537"/><path d="m255.992188 48.332031-200.828126 182.296875v234.753906h401.65625v-234.753906zm0 0" fill="#e4eaf8"/><path d="m255.992188 48.332031-200.828126 182.296875v234.753906h30v-212.683593c0-6.199219 2.617188-12.113281 7.210938-16.28125l185.410156-168.304688zm0 0" fill="#d8dce5"/><path d="m12.890625 249.011719c-7.695313-8.476563-7.0625-21.585938 1.414063-29.277344l227.757812-206.742187c7.898438-7.175782 19.957031-7.175782 27.859375 0l227.753906 206.742187c8.476563 7.691406 9.113281 20.800781 1.417969 29.277344-7.695312 8.476562-20.800781 9.109375-29.277344 1.417969l-213.824218-194.097657-213.824219 194.09375c-8.476563 7.695313-21.585938 7.0625-29.277344-1.414062zm0 0" fill="#f77c7c"/><path d="m42.890625 249.011719c-7.695313-8.476563-7.0625-21.585938 1.414063-29.277344l226.6875-205.773437-1.070313-.96875c-7.902344-7.175782-19.960937-7.175782-27.859375 0l-227.757812 206.742187c-8.476563 7.691406-9.109376 20.800781-1.414063 29.277344 7.691406 8.476562 20.800781 9.109375 29.277344 1.417969l1.121093-1.019532c-.132812-.136718-.273437-.257812-.398437-.398437zm0 0" fill="#f25c5c"/><path d="m282.257812 139.976562h-52.53125c-6.597656 0-12 5.398438-12 12v52.527344c0 6.601563 5.402344 12 12 12h52.53125c6.597657 0 12-5.398437 12-12v-52.527344c0-6.601562-5.402343-12-12-12zm0 0" fill="#ffc850"/><path d="m245.0625 204.503906v-52.527344c0-6.601562 5.402344-12 12-12h-27.335938c-6.597656 0-12 5.398438-12 12v52.527344c0 6.601563 5.402344 12 12 12h27.335938c-6.597656 0-12-5.398437-12-12zm0 0" fill="#feb644"/><path d="m370.234375 355.773438-15.820313-6.128907c-3.855468 4.265625-8.023437 8.824219-12.019531 13.167969-9.984375 10.859375-27.121093 10.859375-37.109375 0-3.921875-4.261719-8.007812-8.734375-11.804687-12.929688l-16.042969 6.21875c-12.707031 4.925782-21.082031 17.152344-21.082031 30.78125v14.167969c0 3.214844 2.605469 5.824219 5.820312 5.824219h123.328125c3.214844 0 5.820313-2.609375 5.820313-5.824219v-14.492187c0-13.632813-8.378907-25.863282-21.089844-30.785156zm0 0" fill="#f25c5c"/><path d="m333.160156 369.171875c-9.378906 3.71875-20.546875 1.605469-27.875-6.359375-3.921875-4.265625-8.007812-8.734375-11.804687-12.929688l-16.042969 6.21875c-12.707031 4.925782-21.082031 17.152344-21.082031 30.78125v14.167969c0 3.214844 2.609375 5.820313 5.824219 5.820313h91.546874c-2.015624-14.703125-9.46875-28.148438-20.566406-37.699219zm0 0" fill="#e54a4a"/><path d="m345.984375 346.378906c-1.53125-.59375-2.542969-2.066406-2.542969-3.707031v-14.839844c-5.4375 3.75-12.023437 5.953125-19.113281 5.953125-7.421875 0-13.941406-2.039062-19.277344-5.445312v14.332031c0 1.640625-1.011719 3.113281-2.539062 3.707031l-10.011719 3.882813c4.0625 4.496093 8.53125 9.382812 12.785156 14.011719 9.984375 10.859374 27.125 10.859374 37.109375 0 4.332031-4.710938 8.878907-9.6875 13-14.25zm0 0" fill="#f0a479"/><path d="m332.980469 369.03125c-2.066407-1.761719-3.222657-4.371094-3.222657-7.085938v-28.601562c-1.765624.289062-3.582031.441406-5.429687.441406-7.421875 0-13.941406-2.039062-19.277344-5.445312v14.332031c0 1.640625-1.007812 3.117187-2.539062 3.707031l-3.90625 1.515625-6.105469 2.367188c12.03125 13.320312 19.859375 25.636719 37.261719 21.449219v-.019532c1.535156-.371094 3.050781-.867187 4.507812-1.53125-.425781-.382812-.851562-.757812-1.289062-1.128906zm0 0" fill="#e5966e"/><path d="m323.839844 240.351562c-.136719 0-.273438 0-.410156 0-18.78125.164063-33.828126 15.671876-33.828126 34.457032v15.226562c0-1.820312 1.554688-3.253906 3.355469-3.121094 17.761719 1.277344 35.839844-4.367187 49.503907-13.296874 1.277343-.832032 2.96875-.621094 4.007812.492187 11.679688 12.558594 11.609375 12.070313 11.609375 13.710937v-13.011718c0-18.785156-15.046875-34.292969-33.828125-34.457032-.136719 0-.273438 0-.410156 0zm0 0" fill="#5e6377"/><path d="m315.167969 274.808594c0-14.410156 8.851562-26.878906 21.453125-31.988282-3.828125-1.550781-7.996094-2.429687-12.371094-2.46875-.136719 0-.273438 0-.410156 0-.136719 0-.273438 0-.410156 0-18.78125.164063-33.828126 15.671876-33.828126 34.457032v15.226562c0-1.820312 1.554688-3.253906 3.355469-3.121094 7.464844.539063 14.984375-.160156 22.207031-1.800781v-10.304687zm0 0" fill="#52586d"/><path d="m346.464844 273.378906c-1.035156-1.117187-2.726563-1.324218-4-.488281-13.667969 8.925781-31.746094 14.570313-49.507813 13.292969-1.800781-.132813-3.355469 1.304687-3.355469 3.121094v12.191406c0 17.640625 13.820313 33.75 34.726563 33.75 18.609375 0 33.75-15.140625 33.75-33.75v-14.40625c0-1.640625.070313-1.152344-11.613281-13.710938zm0 0" fill="#f7b594"/><path d="m315.167969 301.496094v-17.113282c-7.226563 1.640626-14.746094 2.339844-22.210938 1.800782-1.800781-.132813-3.355469 1.304687-3.355469 3.121094v12.195312c0 17.636719 13.820313 33.75 34.726563 33.75 4.378906 0 8.558594-.847656 12.398437-2.371094-13.339843-5.101562-21.558593-17.785156-21.558593-31.382812zm0 0" fill="#f0a479"/><path d="m229.683594 355.773438-15.820313-6.128907c-3.859375 4.265625-8.023437 8.824219-12.019531 13.167969-9.984375 10.859375-27.125 10.859375-37.109375 0-3.921875-4.261719-8.007813-8.734375-11.804687-12.929688l-16.046876 6.21875c-12.707031 4.925782-17.644531 17.152344-17.644531 30.78125v14.167969c0 3.214844 2.605469 5.824219 5.820313 5.824219h119.890625c3.214843 0 5.824219-2.609375 5.824219-5.824219v-14.492187c0-13.632813-8.378907-25.863282-21.089844-30.785156zm0 0" fill="#ffc850"/><path d="m136.4375 401.050781v-25.210937c0-8.914063 3.585938-17.230469 9.621094-23.296875l-9.175782 3.558593c-12.707031 4.925782-17.648437 17.152344-17.648437 30.78125v14.167969c0 3.214844 2.605469 5.820313 5.824219 5.820313h17.199218c-3.214843 0-5.820312-2.605469-5.820312-5.820313zm0 0" fill="#feb644"/><path d="m205.429688 346.378906c-1.53125-.59375-2.539063-2.066406-2.539063-3.707031v-14.839844c-5.4375 3.75-12.023437 5.953125-19.113281 5.953125-7.421875 0-13.945313-2.039062-19.28125-5.445312v14.332031c0 1.640625-1.007813 3.113281-2.539063 3.707031l-10.007812 3.882813c4.0625 4.496093 8.527343 9.382812 12.785156 14.011719 9.984375 10.859374 27.121094 10.859374 37.109375 0 4.328125-4.710938 8.878906-9.6875 12.996094-14.25zm0 0" fill="#f0a479"/><path d="m189.207031 333.34375c-1.769531.289062-3.582031.441406-5.429687.441406-7.421875 0-13.945313-2.039062-19.28125-5.445312v14.332031c0 1.640625-1.007813 3.117187-2.539063 3.707031l-10.007812 3.882813c4.0625 4.496093 8.527343 9.382812 12.785156 14.011719 6.457031 7.023437 15.902344 9.496093 24.472656 7.4375zm0 0" fill="#e5966e"/><path d="m183.289062 240.351562c-.136718 0-.273437 0-.410156 0-18.785156.164063-33.828125 15.671876-33.828125 34.457032v15.226562c0-1.820312 1.554688-3.253906 3.355469-3.121094 17.761719 1.277344 35.835938-4.367187 49.503906-13.296874 1.277344-.832032 2.96875-.621094 4.003906.492187 11.683594 12.558594 11.613282 12.070313 11.613282 13.710937v-13.011718c0-18.785156-15.046875-34.292969-33.832032-34.457032-.132812 0-.273437 0-.40625 0zm0 0" fill="#5e6377"/><path d="m174.613281 274.808594c0-14.410156 8.855469-26.878906 21.457031-31.988282-3.828124-1.550781-7.996093-2.429687-12.375-2.46875-.132812 0-.273437 0-.410156 0-.132812 0-.269531 0-.40625 0-18.785156.164063-33.828125 15.671876-33.828125 34.457032v15.226562c0-1.820312 1.554688-3.253906 3.355469-3.121094 7.464844.539063 14.980469-.160156 22.207031-1.800781zm0 0" fill="#52586d"/><path d="m205.914062 273.378906c-1.039062-1.117187-2.726562-1.324218-4.003906-.488281-13.667968 8.925781-31.742187 14.570313-49.503906 13.292969-1.800781-.132813-3.355469 1.304687-3.355469 3.121094v12.191406c0 17.640625 13.820313 33.75 34.726563 33.75 18.609375 0 33.75-15.140625 33.75-33.75v-14.40625c0-1.640625.070312-1.152344-11.613282-13.710938zm0 0" fill="#f7b594"/><path d="m174.613281 301.496094v-17.113282c-7.226562 1.640626-14.742187 2.339844-22.207031 1.800782-1.800781-.132813-3.355469 1.304687-3.355469 3.121094v12.195312c0 17.636719 13.820313 33.75 34.726563 33.75 4.375 0 8.554687-.847656 12.398437-2.371094-13.34375-5.101562-21.5625-17.785156-21.5625-31.382812zm0 0" fill="#f0a479"/><path d="m308.0625 378.753906-18.582031-7.199218c-4.53125 5.011718-9.425781 10.363281-14.121094 15.46875-11.730469 12.757812-31.859375 12.757812-43.589844 0-4.605469-5.007813-9.40625-10.257813-13.871093-15.1875l-18.84375 7.304687c-14.929688 5.785156-24.765626 20.148437-24.765626 36.15625v16.644531c0 3.777344 3.0625 6.839844 6.839844 6.839844h144.871094c3.777344 0 6.835938-3.0625 6.835938-6.839844v-17.027344c.003906-16.011718-9.839844-30.378906-24.773438-36.160156zm0 0" fill="#00aaf0"/><path d="m198.527344 431.941406v-29.613281c0-10.472656 4.210937-20.242187 11.304687-27.367187l-10.777343 4.179687c-14.929688 5.785156-24.765626 20.148437-24.765626 36.15625v16.644531c0 3.777344 3.0625 6.839844 6.839844 6.839844h24.238282c-3.777344 0-6.839844-3.0625-6.839844-6.839844zm0 0" fill="#059adb"/><path d="m279.574219 367.722656c-1.796875-.699218-2.984375-2.429687-2.984375-4.359375v-17.429687c-6.386719 4.40625-14.121094 6.992187-22.453125 6.992187-8.71875 0-16.378907-2.394531-22.644531-6.394531v16.835938c0 1.925781-1.1875 3.65625-2.984376 4.355468l-11.757812 4.558594c4.769531 5.285156 10.019531 11.023438 15.019531 16.460938 11.730469 12.757812 31.859375 12.753906 43.589844 0 5.089844-5.535157 10.433594-11.378907 15.269531-16.738282zm0 0" fill="#f0a479"/><path d="m260.515625 352.410156c-2.074219.335938-4.207031.515625-6.378906.515625-8.71875 0-16.378907-2.390625-22.644531-6.394531v16.835938c0 1.929687-1.1875 3.65625-2.984376 4.355468l-11.757812 4.558594c4.769531 5.285156 10.019531 11.023438 15.019531 16.460938 7.585938 8.246093 18.679688 11.15625 28.746094 8.734374zm0 0" fill="#e5966e"/><path d="m253.5625 243.167969c-.160156 0-.320312.003906-.476562.003906-22.070313.191406-39.742188 18.40625-39.742188 40.472656v17.890625c0-2.136718 1.828125-3.828125 3.941406-3.667968 20.867188 1.5 42.101563-5.128907 58.15625-15.617188 1.5-.980469 3.484375-.734375 4.703125.578125 13.722657 14.746094 13.640625 14.175781 13.640625 16.105469v-15.289063c0-22.066406-17.671875-40.28125-39.738281-40.472656-.164063-.003906-.324219-.003906-.484375-.003906zm0 0" fill="#5e6377"/><path d="m243.375 283.644531c0-16.925781 10.402344-31.574219 25.203125-37.574219-4.496094-1.820312-9.390625-2.855468-14.53125-2.898437-.160156 0-.320313-.003906-.480469-.003906s-.320312.003906-.480468.003906c-22.066407.191406-39.738282 18.40625-39.738282 40.472656v17.890625c0-2.136718 1.824219-3.828125 3.941406-3.667968 8.769532.632812 17.597657-.1875 26.085938-2.113282zm0 0" fill="#52586d"/><path d="m280.140625 281.964844c-1.21875-1.308594-3.203125-1.554688-4.699219-.574219-16.054687 10.488281-37.289062 17.117187-58.15625 15.621094-2.113281-.160157-3.941406 1.527343-3.941406 3.664062v14.324219c0 20.71875 16.238281 39.644531 40.792969 39.644531 21.863281 0 39.648437-17.785156 39.648437-39.644531v-16.925781c0-1.925781.082032-1.355469-13.644531-16.109375zm0 0" fill="#f7b594"/><path d="m243.375 315v-20.105469c-8.488281 1.925781-17.320312 2.746094-26.089844 2.117188-2.113281-.160157-3.941406 1.527343-3.941406 3.664062v14.324219c0 20.71875 16.238281 39.644531 40.792969 39.644531 5.140625 0 10.050781-.996093 14.566406-2.785156-15.675781-5.992187-25.328125-20.886719-25.328125-36.859375zm0 0" fill="#f0a479"/><path d="m502.738281 214.113281-38.402343-34.855469v-118.503906c7.40625-4.109375 12.433593-12.007812 12.433593-21.058594 0-13.269531-10.796875-24.0625-24.0625-24.0625h-67.402343c-13.269532 0-24.066407 10.792969-24.066407 24.0625 0 9.050782 5.027344 16.949219 12.433594 21.058594v36.203125l-98.695313-89.59375c-10.816406-9.816406-27.128906-9.820312-37.945312 0l-227.765625 206.75c-11.554687 10.484375-12.421875 28.320313-1.933594 39.875 10.402344 11.460938 28.265625 12.46875 39.875 1.929688l.457031-.414063v202.324219h-11.898437c-4.144531 0-7.5 3.355469-7.5 7.5s3.355469 7.5 7.5 7.5h440.46875c4.144531 0 7.5-3.355469 7.5-7.5s-3.355469-7.5-7.5-7.5h-11.898437v-104.417969c0-4.140625-3.355469-7.5-7.5-7.5-4.144532 0-7.5 3.359375-7.5 7.5v104.417969h-386.671876v-215.941406l193.335938-175.496094 193.335938 175.496094v76.523437c0 4.140625 3.355468 7.5 7.5 7.5 4.144531 0 7.5-3.359375 7.5-7.5v-62.90625l.457031.414063c11.464843 10.410156 29.3125 9.707031 39.875-1.929688 10.484375-11.554687 9.621093-29.386719-1.929688-39.875zm-117.4375-183.480469h67.402344c5 0 9.066406 4.0625 9.066406 9.0625 0 4.996094-4.066406 9.0625-9.066406 9.0625h-67.402344c-4.996093 0-9.0625-4.066406-9.0625-9.0625 0-5 4.066407-9.0625 9.0625-9.0625zm3.371094 79.9375v-46.8125h60.664063v101.882813l-46.351563-42.074219zm104.886719 133.335938c-4.941406 5.449219-13.3125 5.78125-18.683594.902344l-213.832031-194.101563c-2.859375-2.597656-7.222657-2.597656-10.082031 0l-213.835938 194.101563c-5.449219 4.949218-13.820312 4.460937-18.683594-.902344-4.914062-5.414062-4.511718-13.769531.902344-18.683594l227.765625-206.753906c5.070313-4.601562 12.714844-4.597656 17.78125 0l227.765625 206.753906c5.414062 4.914063 5.816406 13.269532.902344 18.683594zm0 0"/><path d="m229.734375 223.929688h52.53125c10.75 0 19.5-8.746094 19.5-19.5v-52.527344c0-10.753906-8.75-19.5-19.5-19.5h-52.53125c-10.75 0-19.5 8.746094-19.5 19.5v52.527344c0 10.753906 8.75 19.5 19.5 19.5zm-4.5-19.5v-18.761719h23.265625v23.261719h-18.765625c-2.4375 0-4.5-2.058594-4.5-4.5zm57.03125 4.5h-18.765625v-23.261719h23.265625v18.761719c0 2.441406-2.0625 4.5-4.5 4.5zm4.5-57.027344v18.761718h-23.265625v-23.261718h18.765625c2.4375 0 4.5 2.0625 4.5 4.5zm-57.03125-4.5h18.765625v23.261718h-23.265625v-18.761718c0-2.4375 2.0625-4.5 4.5-4.5zm0 0"/><path d="m398.808594 400.886719c0-.78125.007812-1.578125.011718-2.390625.066407-9.417969.160157-22.3125-8.675781-36.992188-1.007812-1.675781-7.105469-8.957031-17.207031-12.867187l-21.984375-8.511719v-7.273438c8.9375-7.570312 14.628906-18.863281 14.628906-31.464843 0-9.851563 0-16.800781 0-26.675781 0-41.5-53.589843-57.703126-76.496093-23.082032-18.9375-21.308594-52.050782-21.464844-71.121094-.003906-22.867188-34.550781-76.496094-18.535156-76.496094 23.085938v26.675781c0 13.109375 5.964844 24.601562 15.441406 32.101562v6.636719c-14.382812 5.574219-.160156.0625-22.820312 8.847656-6.417969 2.496094-11.660156 7.257813-14.769532 13.398438-4.023437 7.960937-6.152343 16.878906-6.152343 25.792968v10.277344c0 8.691406 7.070312 15.761719 15.761719 15.761719h37.839843c-.007812.339844-.019531.679687-.019531 1.019531v16.644532c0 7.90625 6.433594 14.339843 14.339844 14.339843h57.410156c4.144531 0 7.5-3.355469 7.5-7.5s-3.355469-7.5-7.5-7.5h-56.75v-15.980469c0-11.164062 6.09375-21.492187 15.5625-27.03125 2.835938-1.648437 3.765625-1.882812 17.300781-7.132812 3.488281 3.84375 7.375 8.089844 11.597657 12.679688 14.703124 15.996093 39.941406 15.972656 54.632812 0 4.359375-4.746094 8.328125-9.085938 11.847656-12.957032l12.625 4.886719c12.007813 4.652344 19.980469 16.433594 19.980469 29.167969v16.367187h-51.796875c-4.144531 0-7.5 3.355469-7.5 7.5s3.355469 7.5 7.5 7.5h52.460938c7.90625 0 14.339843-6.433593 14.339843-14.339843v-17.027344c0-.210938-.011719-.421875-.015625-.636719h45.207032c7.339843.003906 13.316406-5.972656 13.316406-13.316406zm-56.292969-47.976563c-5.96875 6.53125-9.691406 11.859375-18.652344 11.859375-8.929687 0-12.695312-5.335937-18.421875-11.605469 0 0-6.113281-1.4375 30.511719-12.207031v1.582031c0 4.265626 2.429687 8.355469 6.5625 10.371094zm-65.742187-62.734375c5.355468 5.734375 7.984374 8.492188 9.472656 10.171875v14.574219c0 17.710937-14.445313 32.148437-32.148438 32.148437-19.742187 0-33.292968-14.761718-33.292968-32.148437v-9.449219c18.675781.488282 38.882812-4.894531 55.96875-15.296875zm66.667968-8.417969c3.558594 3.808594 5.996094 6.382813 7.140625 7.652344v11.976563c0 14.535156-11.871093 26.230469-26.230469 26.230469-9.507812 0-18.125-4.320313-23.109374-12.160157.007812-.359375.003906-20.683593.003906-21.042969 14.4375-.578124 29.4375-5.070312 42.195312-12.65625zm-59.253906 79.648438c1.050781-.410156 5.773438-2.238281 6.253906-2.425781 2.132813 2.34375 4.421875 4.847656 6.851563 7.5-1.425781-.554688-11.636719-4.507813-13.105469-5.074219zm-73.90625-21.28125v-5.066406c1.078125 2.28125 2.328125 4.460937 3.75 6.515625zm87.300781 0-4.957031 1.921875c1.894531-2.683594 3.523438-5.566406 4.832031-8.617187.042969.035156.082031.070312.125.105468zm-80.757812 18.617188 6.933593 2.6875-14.539062 5.636718c2.726562-2.972656 5.265625-5.75 7.605469-8.324218zm81.457031-91.800782c7.652344-25.527344 43.449219-25.570312 51.148438-.042968-11.226563-6.410157-16.160157 11.046874-48.363282 12.5-.363281-4.242188-1.402344-8.707032-2.785156-12.457032zm-44.339844-16.34375c15.769532.136719 29.054688 11.78125 31.789063 27.1875-4.042969-4.347656-10.0625-4.746094-14.433594-1.890625-14.984375 9.789063-33.347656 15.117188-50.492187 14.566407v-6.890626c0-17.53125 13.964843-33.0625 33.136718-32.972656zm-70.410156-2.820312c11.59375.101562 21.875 8.015625 25.222656 19.117187-11.507812-6.542969-18.289062 13.078125-52.28125 12.582031v-4.765624c0-14.382813 11.453125-27.023438 27.058594-26.933594zm-27.058594 46.710937c15.523438.160157 32.140625-4.304687 46.296875-12.730469 1.066407 1.140626 2.003907 2.140626 3.035157 3.242188 0 .382812 0 30.0625.003906 30.449219-13.851563 21.75-49.335938 12.699219-49.335938-14.0625zm38.808594 46.46875c0 5.460938 1.574219 9.5625 6.5625 11.953125-5.960938 6.527344-9.695312 11.855469-18.65625 11.859375-8.9375 0-12.695312-5.34375-18.421875-11.605469 4.273437-1.742187 7.144531-5.855468 7.144531-10.625v-1.464843c7.617188 2.0625 15.921875 2.074219 23.371094-.117188zm-67.113281 57.488281v-10.277343c0-6.574219 1.570312-13.152344 4.539062-19.023438 1.4375-2.839843 3.859375-5.039062 6.8125-6.1875l10.25-3.972656c2.816407 3.097656 5.941407 6.515625 9.355469 10.222656 6.171875 6.714844 14.945312 10.5625 24.0625 10.5625h.101562c-6.136718 5.140625-10.875 11.820313-13.679687 19.4375h-40.679687c-.417969 0-.761719-.34375-.761719-.761719zm125.355469-7.710937c-11.367188 0-16.023438-6.839844-23.917969-15.484375 1.746093-.675781 2.566406-.9375 3.871093-1.804688 6.03125-3.984374 5.476563-9.742187 5.476563-13.625 9.492187 2.933594 20.320313 3.097657 30.097656-.183593 0 3.78125-.136719 5.21875.648438 7.523437 1.402343 4.125 4.238281 6.359375 7.992187 7.816406-7.914062 8.671876-12.714844 15.757813-24.167968 15.757813zm130.296874 7.65625c-.003906.273437-.003906.542969-.007812.8125h-46.234375c-2.714844-7.597656-7.347656-14.265625-13.375-19.445313 9-.09375 17.628906-3.925781 23.722656-10.554687 3.503907-3.808594 6.703125-7.308594 9.570313-10.460937l10.023437 3.882812c3.867188 1.496094 7.339844 3.949219 10.066407 7.109375 6.363281 10.84375 6.296874 19.894531 6.234374 28.65625zm0 0"/></svg>