<svg id="Layer_1" enable-background="new 0 0 256 256" height="512" viewBox="0 0 256 256" width="512" xmlns="http://www.w3.org/2000/svg"><g><path d="m184.5 43.598v-10.946c0-1.711 1.387-3.099 3.099-3.099h38.303c1.711 0 3.099 1.387 3.099 3.099v10.946c0 1.711-1.387 3.099-3.099 3.099h-38.303c-1.712 0-3.099-1.388-3.099-3.099z" fill="#87796f"/><path d="m225.901 48.197h-38.303c-2.536 0-4.599-2.063-4.599-4.599v-10.946c0-2.536 2.063-4.599 4.599-4.599h38.303c2.536 0 4.599 2.063 4.599 4.599v10.946c0 2.536-2.062 4.599-4.599 4.599zm-38.302-17.144c-.882 0-1.599.717-1.599 1.599v10.946c0 .881.717 1.599 1.599 1.599h38.303c.882 0 1.599-.717 1.599-1.599v-10.946c0-.881-.717-1.599-1.599-1.599z" fill="#3a312a"/><path d="m47.411 25.927s3.408 12.659 13.222 13.246c0 0-13.1 4.525-13.321 14.202 0 0-2.578-13.572-12.925-14.059 0 .001 12.05-1.825 13.024-13.389z" fill="#d7e057"/><path d="m47.31 54.875c-.713 0-1.335-.506-1.473-1.217-.023-.124-2.494-12.418-11.521-12.843-.771-.037-1.388-.651-1.428-1.421s.511-1.445 1.273-1.56c.441-.069 10.895-1.817 11.754-12.032.061-.725.635-1.301 1.359-1.367.73-.064 1.394.399 1.584 1.101.031.116 3.259 11.626 11.863 12.14.714.043 1.297.584 1.396 1.292.098.708-.318 1.388-.994 1.623-.121.042-12.118 4.311-12.313 12.819-.018.767-.611 1.396-1.375 1.459-.041.005-.083.006-.125.006zm-7.741-15.729c3.878 1.969 6.231 5.746 7.587 8.876 2.026-4.021 5.942-6.787 8.949-8.427-4.134-1.842-6.783-5.651-8.334-8.722-1.793 4.359-5.271 6.868-8.202 8.273z" fill="#3a312a"/><path d="m25.712 42.908s2.411 8.954 9.352 9.369c0 0-9.266 3.201-9.422 10.045 0 0-1.824-9.6-9.142-9.944 0 0 8.524-1.291 9.212-9.47z" fill="#d7e057"/><path d="m25.642 63.822c-.714 0-1.337-.507-1.473-1.22-.016-.082-1.704-8.442-7.739-8.726-.771-.037-1.388-.651-1.428-1.421-.04-.771.511-1.445 1.273-1.561.296-.047 7.363-1.243 7.942-8.113.062-.726.636-1.303 1.361-1.368.719-.058 1.392.399 1.582 1.102.021.079 2.227 7.919 7.993 8.264.714.043 1.299.584 1.396 1.293s-.32 1.388-.996 1.622c-.081.028-8.282 2.953-8.412 8.662-.018.767-.611 1.397-1.376 1.461-.04.004-.082.005-.123.005zm-4.52-11.527c2.107 1.333 3.523 3.394 4.447 5.28 1.376-2.232 3.515-3.872 5.365-4.973-2.287-1.269-3.885-3.35-4.941-5.224-1.174 2.287-3.016 3.875-4.871 4.917z" fill="#3a312a"/><path d="m25.712 16.25s2.411 8.954 9.352 9.37c0 0-9.266 3.201-9.422 10.045 0 0-1.824-9.6-9.142-9.944 0 0 8.524-1.292 9.212-9.471z" fill="#d7e057"/><path d="m25.642 37.165c-.714 0-1.337-.507-1.473-1.22-.016-.082-1.704-8.442-7.739-8.726-.771-.037-1.388-.651-1.428-1.421-.04-.771.511-1.445 1.273-1.561.296-.047 7.363-1.243 7.942-8.114.062-.726.636-1.303 1.361-1.368.719-.057 1.392.399 1.582 1.102.021.079 2.227 7.92 7.993 8.265.714.043 1.299.584 1.396 1.293s-.32 1.388-.996 1.622c-.081.028-8.282 2.952-8.412 8.662-.018.767-.611 1.398-1.376 1.461-.04.004-.082.005-.123.005zm-4.52-11.528c2.107 1.333 3.523 3.395 4.447 5.28 1.376-2.232 3.516-3.872 5.365-4.972-2.287-1.27-3.885-3.35-4.941-5.224-1.174 2.286-3.016 3.875-4.871 4.916z" fill="#3a312a"/><path d="m222 46.7v52.65l-30.5-27.76v-24.89z" fill="#87796f"/><path d="m222 100.85c-.366 0-.727-.134-1.01-.391l-30.5-27.76c-.313-.284-.49-.687-.49-1.109v-24.89c0-.829.672-1.5 1.5-1.5h30.5c.828 0 1.5.671 1.5 1.5v52.65c0 .594-.351 1.132-.894 1.372-.194.086-.401.128-.606.128zm-29-29.923 27.5 25.03v-47.757h-27.5z" fill="#3a312a"/><path d="m222 108.82v118.64h-188v-118.64l94-85.57z" fill="#fce8cb"/><path d="m222 228.96h-188c-.828 0-1.5-.671-1.5-1.5v-118.64c0-.422.178-.825.49-1.109l94-85.57c.572-.521 1.447-.521 2.02 0l94 85.57c.313.284.49.687.49 1.109v118.64c0 .829-.672 1.5-1.5 1.5zm-186.5-3h185v-116.477l-92.5-84.205-92.5 84.205z" fill="#3a312a"/><path d="m40.375 185.75h175.25v9.5h-175.25z" fill="#87796f"/><path d="m215.625 196.75h-175.25c-.828 0-1.5-.671-1.5-1.5v-9.5c0-.829.672-1.5 1.5-1.5h175.25c.828 0 1.5.671 1.5 1.5v9.5c0 .829-.672 1.5-1.5 1.5zm-173.75-3h172.25v-6.5h-172.25z" fill="#3a312a"/><path d="m48 195.25h160v32.21h-160z" fill="#87796f"/><path d="m208 228.96h-160c-.828 0-1.5-.671-1.5-1.5v-32.21c0-.829.672-1.5 1.5-1.5h160c.828 0 1.5.671 1.5 1.5v32.21c0 .829-.672 1.5-1.5 1.5zm-158.5-3h157v-29.21h-157z" fill="#3a312a"/><path d="m101.24 185.747v-10.827c0-6.596-5.342-11.938-11.946-11.938h-7.898v-6.69h-13.273v6.69h-7.894c-6.604 0-11.958 5.342-11.958 11.938v10.827z" fill="#f6e2c6"/><path d="m101.239 187.247h-52.969c-.828 0-1.5-.671-1.5-1.5v-10.827c0-7.41 6.037-13.438 13.458-13.438h6.395v-5.19c0-.829.672-1.5 1.5-1.5h13.272c.828 0 1.5.671 1.5 1.5v5.19h6.398c7.414 0 13.446 6.028 13.446 13.438v10.827c0 .829-.672 1.5-1.5 1.5zm-51.469-3h49.969v-9.327c0-5.756-4.687-10.438-10.446-10.438h-7.898c-.828 0-1.5-.671-1.5-1.5v-5.19h-10.272v5.19c0 .829-.672 1.5-1.5 1.5h-7.895c-5.767 0-10.458 4.683-10.458 10.438z" fill="#3a312a"/><path d="m101.24 185.747v-10.827c0-6.596-5.342-11.938-11.946-11.938h-4.144c-1.278 1.715-5.449 2.977-10.395 2.977-4.945 0-9.117-1.262-10.395-2.977h-4.132c-6.604 0-11.958 5.342-11.958 11.938v10.827z" fill="#8ac6dd"/><g fill="#3a312a"><path d="m101.239 187.247h-52.969c-.828 0-1.5-.671-1.5-1.5v-10.827c0-7.41 6.037-13.438 13.458-13.438h4.132c.474 0 .919.224 1.202.604.735.985 4.073 2.373 9.192 2.373 5.12 0 8.458-1.388 9.191-2.373.283-.38.729-.604 1.203-.604h4.144c7.414 0 13.446 6.028 13.446 13.438v10.827c.001.829-.671 1.5-1.499 1.5zm-51.469-3h49.969v-9.327c0-5.756-4.687-10.438-10.446-10.438h-3.486c-1.956 1.828-6.147 2.977-11.052 2.977-4.903 0-9.095-1.149-11.052-2.977h-3.475c-5.767 0-10.458 4.683-10.458 10.438z"/><path d="m58.192 187.25c-.828 0-1.5-.671-1.5-1.5v-8.556c0-.829.672-1.5 1.5-1.5s1.5.671 1.5 1.5v8.556c0 .829-.672 1.5-1.5 1.5z"/><path d="m91.801 187.25c-.828 0-1.5-.671-1.5-1.5v-8.556c0-.829.672-1.5 1.5-1.5s1.5.671 1.5 1.5v8.556c0 .829-.672 1.5-1.5 1.5z"/></g><ellipse clip-rule="evenodd" cx="54.598" cy="134.272" fill="#f8e4c8" fill-rule="evenodd" rx="4.619" ry="4.616"/><path d="m54.599 140.389c-3.374 0-6.119-2.744-6.119-6.117s2.745-6.116 6.119-6.116 6.118 2.744 6.118 6.116c0 3.373-2.744 6.117-6.118 6.117zm0-9.233c-1.72 0-3.119 1.398-3.119 3.116 0 1.719 1.399 3.117 3.119 3.117s3.118-1.398 3.118-3.117c0-1.718-1.399-3.116-3.118-3.116z" fill="#3a312a"/><ellipse clip-rule="evenodd" cx="94.912" cy="134.272" fill="#f8e4c8" fill-rule="evenodd" rx="4.619" ry="4.616"/><path d="m94.912 140.389c-3.374 0-6.119-2.744-6.119-6.117s2.745-6.116 6.119-6.116 6.119 2.744 6.119 6.116c0 3.373-2.745 6.117-6.119 6.117zm0-9.233c-1.72 0-3.119 1.398-3.119 3.116 0 1.719 1.399 3.117 3.119 3.117s3.119-1.398 3.119-3.117c0-1.718-1.399-3.116-3.119-3.116z" fill="#3a312a"/><path d="m95.231 132.031c0 11.302-10.891 28.651-20.476 28.651-9.149 0-20.475-17.349-20.475-28.651s9.167-20.465 20.475-20.465 20.476 9.163 20.476 20.465z" fill="#f8e4c8"/><path d="m74.755 162.182c-10.188 0-21.976-18.246-21.976-30.151 0-12.111 9.858-21.965 21.976-21.965s21.976 9.854 21.976 21.965c-.001 12.179-11.577 30.151-21.976 30.151zm0-49.116c-10.463 0-18.976 8.508-18.976 18.965 0 11.165 11.173 27.151 18.976 27.151 8.614 0 18.976-16.676 18.976-27.151-.001-10.457-8.513-18.965-18.976-18.965z" fill="#3a312a"/><path d="m69.524 131.8c0 1.103-.895 1.997-1.998 1.997-1.104 0-1.999-.894-1.999-1.997s.895-1.997 1.999-1.997 1.998.894 1.998 1.997z" fill="#3a312a"/><circle cx="81.984" cy="131.8" fill="#3a312a" r="1.998"/><path d="m66.975 137.739c0 1.421-1.541 2.572-3.443 2.572-1.901 0-3.443-1.152-3.443-2.572 0-1.421 1.541-2.572 3.443-2.572 1.901 0 3.443 1.151 3.443 2.572z" fill="#f59689"/><path d="m89.421 137.739c0 1.421-1.541 2.572-3.443 2.572-1.901 0-3.443-1.152-3.443-2.572 0-1.421 1.541-2.572 3.443-2.572s3.443 1.151 3.443 2.572z" fill="#f59689"/><path d="m74.991 107.05c-11.705 0-21.193 9.067-21.193 20.252 0 1.184.214 2.066.613 3.168.188.52 3.222-1.14 3.481-1.321 1.292-.909 2.348-2.142 3.137-3.504.326-.567.599-1.143.817-1.72.699-1.84 2.597-6.959 4.524-6.557 2.584.539 5.514.843 8.621.843s6.036-.304 8.621-.843c1.927-.402 3.825 4.717 4.524 6.557.219.577.491 1.153.817 1.72 1.304 2.254 3.506 4.4 6.185 4.79.007-.129.17-.173.292-.218.877-.318.754-2.212.754-2.915 0-11.185-9.488-20.252-21.193-20.252z" fill="#87796f"/><path d="m54.565 132.055c-.184 0-.354-.021-.506-.069-.499-.157-.885-.523-1.06-1.006-.421-1.165-.701-2.237-.701-3.678 0-11.994 10.18-21.751 22.692-21.751s22.693 9.757 22.693 21.751l.002.215c.017 1.076.048 3.268-1.532 4.021-.021.02-.042.038-.064.057-.327.268-.75.383-1.168.324-2.784-.406-5.501-2.471-7.267-5.523-.36-.625-.67-1.276-.921-1.938l-.046-.122c-1.633-4.3-2.535-5.264-2.898-5.472-2.747.563-5.707.848-8.799.848-3.091 0-6.051-.285-8.799-.848-.363.209-1.268 1.174-2.9 5.48l-.043.114c-.249.657-.559 1.308-.92 1.936-.938 1.622-2.174 2.997-3.574 3.982-.025.016-2.584 1.679-4.189 1.679zm42.072-1.539c0 .001 0 .001 0 0zm-12.766-14.678c2.573 0 4.246 3.807 5.622 7.431l.046.122c.194.513.434 1.019.714 1.503 1.145 1.978 2.745 3.385 4.388 3.893.059-.395.05-.993.047-1.227l-.003-.259c0-10.339-8.834-18.751-19.693-18.751-10.858 0-19.692 8.412-19.692 18.751 0 .532.053.986.151 1.43.621-.283 1.343-.661 1.604-.828 1.021-.719 1.956-1.767 2.677-3.011.279-.486.52-.992.713-1.5l.043-.112c1.065-2.809 3.048-8.039 6.189-7.381 2.583.538 5.381.811 8.314.811 2.894 0 5.769-.28 8.315-.811.193-.041.381-.061.565-.061z" fill="#3a312a"/><path d="m74.755 150.131c-3.225 0-5.649-1.513-7.013-4.375-.356-.748-.038-1.643.71-1.999s1.644-.038 1.999.709c.877 1.843 2.205 2.665 4.304 2.665 2.42 0 3.869-1.523 4.253-2.546.29-.776 1.156-1.17 1.931-.878.776.291 1.169 1.155.878 1.931-.812 2.164-3.368 4.493-7.062 4.493z" fill="#3a312a"/><path d="m90.828 109.758c0 5.809-7.197 10.518-16.074 10.518s-16.074-4.709-16.074-10.518 15.479-12.502 16.074-12.502c.199 0 16.074 6.694 16.074 12.502z" fill="#87796f"/><path d="m74.755 121.776c-9.854 0-17.574-5.279-17.574-12.018 0-6.935 16.216-14.002 17.574-14.002.787 0 17.573 7.039 17.573 14.002 0 6.739-7.719 12.018-17.573 12.018zm-.046-22.94c-2.774 1.012-14.528 6.921-14.528 10.922 0 4.888 6.674 9.018 14.574 9.018 7.899 0 14.573-4.129 14.573-9.018 0-3.784-11.101-9.547-14.619-10.922z" fill="#3a312a"/><path d="m207.729 185.747v-10.827c0-6.596-5.342-11.938-11.946-11.938h-7.898v-6.69h-13.272v6.69h-7.894c-6.604 0-11.958 5.342-11.958 11.938v10.827z" fill="#f6e2c6"/><path d="m207.73 187.247h-52.969c-.828 0-1.5-.671-1.5-1.5v-10.827c0-7.41 6.037-13.438 13.458-13.438h6.395v-5.19c0-.829.672-1.5 1.5-1.5h13.271c.828 0 1.5.671 1.5 1.5v5.19h6.398c7.414 0 13.446 6.028 13.446 13.438v10.827c.001.829-.671 1.5-1.499 1.5zm-51.469-3h49.969v-9.327c0-5.756-4.687-10.438-10.446-10.438h-7.898c-.828 0-1.5-.671-1.5-1.5v-5.19h-10.271v5.19c0 .829-.672 1.5-1.5 1.5h-7.895c-5.767 0-10.458 4.683-10.458 10.438v9.327z" fill="#3a312a"/><path d="m207.729 185.747v-10.827c0-6.596-5.342-11.938-11.946-11.938h-4.144c-1.278 1.715-5.449 2.977-10.394 2.977s-9.117-1.262-10.395-2.977h-4.132c-6.604 0-11.958 5.342-11.958 11.938v10.827z" fill="#d4da55"/><path d="m207.73 187.247h-52.969c-.828 0-1.5-.671-1.5-1.5v-10.827c0-7.41 6.037-13.438 13.458-13.438h4.132c.474 0 .92.224 1.203.604.733.985 4.071 2.373 9.191 2.373 5.119 0 8.457-1.388 9.192-2.373.283-.38.729-.604 1.202-.604h4.144c7.414 0 13.446 6.028 13.446 13.438v10.827c.001.829-.671 1.5-1.499 1.5zm-51.469-3h49.969v-9.327c0-5.756-4.687-10.438-10.446-10.438h-3.486c-1.957 1.828-6.148 2.977-11.052 2.977s-9.096-1.149-11.052-2.977h-3.475c-5.767 0-10.458 4.683-10.458 10.438z" fill="#3a312a"/><path d="m164.683 187.25c-.828 0-1.5-.671-1.5-1.5v-8.556c0-.829.672-1.5 1.5-1.5s1.5.671 1.5 1.5v8.556c0 .829-.672 1.5-1.5 1.5z" fill="#3a312a"/><path d="m198.291 187.25c-.828 0-1.5-.671-1.5-1.5v-8.556c0-.829.672-1.5 1.5-1.5s1.5.671 1.5 1.5v8.556c0 .829-.672 1.5-1.5 1.5z" fill="#3a312a"/><ellipse cx="166.866" cy="109.355" fill="#87796f" rx="12.105" ry="12.105" transform="matrix(.221 -.975 .975 .221 23.356 247.947)"/><path d="m166.865 122.96c-7.502 0-13.605-6.104-13.605-13.605 0-7.502 6.103-13.605 13.605-13.605s13.605 6.103 13.605 13.605c.001 7.502-6.103 13.605-13.605 13.605zm0-24.21c-5.848 0-10.605 4.757-10.605 10.605s4.757 10.605 10.605 10.605 10.605-4.758 10.605-10.605c.001-5.848-4.757-10.605-10.605-10.605z" fill="#3a312a"/><ellipse clip-rule="evenodd" cx="160.724" cy="133.418" fill="#f7e3c7" fill-rule="evenodd" rx="4.703" ry="4.7"/><path d="m160.724 139.619c-3.42 0-6.202-2.782-6.202-6.201s2.782-6.2 6.202-6.2c3.421 0 6.203 2.781 6.203 6.2s-2.782 6.201-6.203 6.201zm0-9.401c-1.766 0-3.202 1.436-3.202 3.2 0 1.765 1.436 3.201 3.202 3.201 1.767 0 3.203-1.436 3.203-3.201s-1.437-3.2-3.203-3.2z" fill="#3a312a"/><ellipse clip-rule="evenodd" cx="201.77" cy="133.418" fill="#f7e3c7" fill-rule="evenodd" rx="4.703" ry="4.7"/><path d="m201.77 139.619c-3.42 0-6.203-2.782-6.203-6.201s2.783-6.2 6.203-6.2 6.203 2.781 6.203 6.2c.001 3.419-2.783 6.201-6.203 6.201zm0-9.401c-1.767 0-3.203 1.436-3.203 3.2 0 1.765 1.437 3.201 3.203 3.201 1.767 0 3.203-1.436 3.203-3.201.001-1.765-1.436-3.2-3.203-3.2z" fill="#3a312a"/><path d="m202.095 131.137c0 11.508-11.089 29.172-20.848 29.172-9.315 0-20.848-17.664-20.848-29.172s9.334-20.837 20.848-20.837 20.848 9.329 20.848 20.837z" fill="#f7e3c7"/><path d="m181.247 161.808c-10.361 0-22.348-18.561-22.348-30.671 0-12.316 10.025-22.337 22.348-22.337 12.322 0 22.348 10.021 22.348 22.337 0 12.389-11.772 30.671-22.348 30.671zm0-50.008c-10.668 0-19.348 8.674-19.348 19.337 0 11.379 11.392 27.671 19.348 27.671 8.783 0 19.348-16.996 19.348-27.671 0-10.663-8.68-19.337-19.348-19.337z" fill="#3a312a"/><circle cx="173.887" cy="130.901" fill="#3a312a" r="2.034"/><path d="m190.642 130.901c0 1.123-.911 2.034-2.035 2.034s-2.035-.91-2.035-2.034c0-1.123.911-2.034 2.035-2.034 1.124.001 2.035.911 2.035 2.034z" fill="#3a312a"/><path d="m173.325 136.948c0 1.446-1.569 2.619-3.505 2.619s-3.505-1.173-3.505-2.619c0-1.447 1.569-2.619 3.505-2.619s3.505 1.172 3.505 2.619z" fill="#f59689"/><ellipse cx="192.674" cy="136.948" fill="#f59689" rx="3.505" ry="2.619"/><path d="m181.247 149.538c-3.271 0-5.732-1.535-7.115-4.439-.356-.748-.038-1.643.71-1.999.747-.356 1.644-.038 1.999.71.898 1.887 2.258 2.729 4.406 2.729 2.477 0 3.963-1.561 4.356-2.61.29-.775 1.157-1.17 1.931-.877.776.291 1.169 1.155.878 1.931-.823 2.193-3.416 4.555-7.165 4.555z" fill="#3a312a"/><path d="m205.269 123.5c0 2.135-.278 4.204-.803 6.174-5.34-2.573-10.419-5.732-15.125-9.303-1.38-1.046-2.739-2.135-4.037-3.289-1.593-1.397-3.1-2.903-4.458-4.534-2.956-3.558-5.127-7.645-6.963-11.902 2.318-.751 4.793-1.154 7.363-1.154 6.872 0 13.071 2.885 17.452 7.511 4.075 4.3 6.571 10.105 6.571 16.497z" fill="#87796f"/><path d="m204.466 131.174c-.223 0-.445-.05-.651-.149-5.302-2.555-10.477-5.737-15.38-9.459-1.567-1.187-2.918-2.288-4.128-3.363-1.731-1.519-3.286-3.101-4.614-4.695-2.688-3.236-4.973-7.134-7.188-12.267-.168-.388-.164-.828.011-1.213.174-.385.502-.678.904-.809 2.516-.814 5.148-1.227 7.825-1.227 7.083 0 13.668 2.834 18.54 7.98 4.504 4.75 6.984 10.975 6.984 17.528 0 2.228-.287 4.436-.855 6.561-.115.432-.417.79-.823.977-.198.09-.411.136-.625.136zm-28.51-29.556c1.879 4.097 3.819 7.294 6.043 9.971 1.227 1.474 2.672 2.942 4.294 4.365 1.157 1.03 2.448 2.081 3.954 3.221 4.22 3.203 8.642 5.99 13.171 8.304.233-1.306.352-2.638.352-3.98 0-5.782-2.188-11.274-6.162-15.464-4.301-4.542-10.111-7.043-16.362-7.043-1.797 0-3.57.21-5.29.626z" fill="#3a312a"/><path d="m198.697 107.003c-4.133 3.766-8.63 7.099-13.393 10.08-8.444 5.289-17.704 9.463-27.18 12.939-.586-2.074-.899-4.261-.899-6.522 0-10.691 6.994-19.751 16.657-22.854 2.318-.751 4.793-1.154 7.363-1.154 6.872 0 13.071 2.885 17.452 7.511z" fill="#87796f"/><path d="m158.123 131.521c-.234 0-.469-.055-.682-.164-.372-.19-.648-.526-.762-.928-.634-2.243-.955-4.574-.955-6.929 0-11.125 7.112-20.883 17.698-24.282 2.513-.813 5.146-1.226 7.822-1.226 7.083 0 13.668 2.834 18.54 7.98.277.293.425.684.41 1.086s-.191.782-.488 1.054c-4.012 3.655-8.59 7.101-13.607 10.242-7.788 4.879-16.77 9.156-27.46 13.076-.166.061-.341.091-.516.091zm23.122-30.529c-2.362 0-4.685.364-6.901 1.081-9.344 3-15.619 11.61-15.619 21.426 0 1.529.153 3.046.456 4.528 9.802-3.686 18.101-7.69 25.327-12.217 4.38-2.742 8.409-5.718 11.999-8.864-4.166-3.851-9.53-5.954-15.262-5.954z" fill="#3a312a"/><path d="m109.056 130.463h37.728v31.44h-37.728z" fill="#87796f"/><path d="m146.783 163.403h-37.728c-.828 0-1.5-.671-1.5-1.5v-31.44c0-.829.672-1.5 1.5-1.5h37.728c.828 0 1.5.671 1.5 1.5v31.44c0 .829-.672 1.5-1.5 1.5zm-36.227-3h34.728v-28.44h-34.728z" fill="#3a312a"/><path d="m150.003 185.748v-9.028c0-5.5-4.455-9.955-9.961-9.955h-6.586v-5.579h-11.067v5.579h-6.582c-5.507 0-9.971 4.454-9.971 9.955v9.028z" fill="#f6e2c6"/><path d="m150.004 187.248h-44.168c-.828 0-1.5-.671-1.5-1.5v-9.028c0-6.316 5.146-11.455 11.471-11.455h5.083v-4.079c0-.829.672-1.5 1.5-1.5h11.066c.828 0 1.5.671 1.5 1.5v4.079h5.086c6.32 0 11.462 5.139 11.462 11.455v9.028c0 .828-.672 1.5-1.5 1.5zm-42.668-3h41.168v-7.528c0-4.662-3.796-8.455-8.462-8.455h-6.586c-.828 0-1.5-.671-1.5-1.5v-4.079h-8.066v4.079c0 .829-.672 1.5-1.5 1.5h-6.583c-4.671 0-8.471 3.793-8.471 8.455z" fill="#3a312a"/><path d="m150.003 185.748v-9.028c0-5.5-4.455-9.955-9.961-9.955h-3.455c-1.066 1.43-4.544 2.482-8.667 2.482-4.124 0-7.602-1.052-8.668-2.482h-3.445c-5.507 0-9.971 4.454-9.971 9.955v9.028z" fill="#ed6e7a"/><path d="m150.004 187.248h-44.168c-.828 0-1.5-.671-1.5-1.5v-9.028c0-6.316 5.146-11.455 11.471-11.455h3.445c.474 0 .92.224 1.203.604.581.78 3.281 1.879 7.465 1.879 4.183 0 6.883-1.099 7.464-1.879.283-.38.729-.604 1.203-.604h3.455c6.32 0 11.462 5.139 11.462 11.455v9.028c0 .828-.672 1.5-1.5 1.5zm-42.668-3h41.168v-7.528c0-4.662-3.796-8.455-8.462-8.455h-2.812c-1.714 1.527-5.227 2.482-9.311 2.482-4.085 0-7.598-.956-9.312-2.482h-2.802c-4.671 0-8.471 3.793-8.471 8.455v7.528z" fill="#3a312a"/><path d="m114.108 187.25c-.828 0-1.5-.671-1.5-1.5v-7.134c0-.829.672-1.5 1.5-1.5s1.5.671 1.5 1.5v7.134c0 .829-.671 1.5-1.5 1.5z" fill="#3a312a"/><path d="m142.133 187.25c-.828 0-1.5-.671-1.5-1.5v-7.134c0-.829.672-1.5 1.5-1.5s1.5.671 1.5 1.5v7.134c0 .829-.672 1.5-1.5 1.5z" fill="#3a312a"/><ellipse clip-rule="evenodd" cx="110.808" cy="142.113" fill="#f7e3c7" fill-rule="evenodd" rx="3.921" ry="3.919"/><path d="m110.808 147.533c-2.989 0-5.421-2.431-5.421-5.419s2.432-5.419 5.421-5.419 5.422 2.431 5.422 5.419-2.433 5.419-5.422 5.419zm0-7.839c-1.335 0-2.421 1.085-2.421 2.419s1.086 2.419 2.421 2.419 2.422-1.085 2.422-2.419-1.087-2.419-2.422-2.419z" fill="#3a312a"/><path clip-rule="evenodd" d="m148.956 142.113c0 2.165-1.756 3.919-3.921 3.919-2.166 0-3.921-1.755-3.921-3.919 0-2.165 1.756-3.919 3.921-3.919s3.921 1.755 3.921 3.919z" fill="#f7e3c7" fill-rule="evenodd"/><path d="m145.035 147.533c-2.989 0-5.422-2.431-5.422-5.419s2.433-5.419 5.422-5.419 5.421 2.431 5.421 5.419-2.432 5.419-5.421 5.419zm0-7.839c-1.335 0-2.422 1.085-2.422 2.419s1.087 2.419 2.422 2.419 2.421-1.085 2.421-2.419-1.086-2.419-2.421-2.419z" fill="#3a312a"/><path d="m145.305 140.211c0 9.596-9.246 24.325-17.384 24.325-7.767 0-17.384-14.729-17.384-24.325s7.783-17.375 17.384-17.375 17.384 7.779 17.384 17.375z" fill="#f7e3c7"/><path d="m127.921 166.036c-8.755 0-18.884-15.628-18.884-25.825 0-10.408 8.472-18.875 18.884-18.875s18.884 8.467 18.884 18.875c0 10.432-9.948 25.825-18.884 25.825zm0-41.7c-8.759 0-15.884 7.122-15.884 15.875 0 9.386 9.353 22.825 15.884 22.825 6.128 0 15.884-12.463 15.884-22.825 0-8.753-7.125-15.875-15.884-15.875z" fill="#3a312a"/><circle cx="121.784" cy="140.015" fill="#3a312a" r="1.696"/><path d="m135.756 140.015c0 .937-.76 1.696-1.697 1.696s-1.697-.759-1.697-1.696.76-1.696 1.697-1.696 1.697.759 1.697 1.696z" fill="#3a312a"/><path d="m121.316 145.056c0 1.206-1.309 2.184-2.923 2.184s-2.923-.978-2.923-2.184 1.309-2.184 2.923-2.184c1.614.001 2.923.978 2.923 2.184z" fill="#f59689"/><path d="m140.373 145.056c0 1.206-1.309 2.184-2.923 2.184s-2.923-.978-2.923-2.184 1.309-2.184 2.923-2.184c1.614.001 2.923.978 2.923 2.184z" fill="#f59689"/><path d="m127.921 155.804c-2.831 0-4.96-1.329-6.157-3.843-.355-.748-.038-1.643.71-2 .748-.356 1.644-.038 1.999.71.702 1.476 1.766 2.133 3.448 2.133 1.94 0 3.096-1.205 3.399-2.014.29-.776 1.152-1.17 1.931-.879.775.291 1.169 1.155.878 1.931-.714 1.909-2.962 3.962-6.208 3.962z" fill="#3a312a"/><path d="m147.952 133.843c0 1.78-.232 3.506-.67 5.148-4.452-2.145-8.688-4.779-12.612-7.757-1.151-.872-2.284-1.78-3.367-2.742-1.328-1.165-2.585-2.42-3.718-3.781-2.465-2.967-4.275-6.375-5.806-9.924 1.933-.626 3.996-.962 6.139-.962 5.73 0 10.9 2.406 14.552 6.263 3.401 3.584 5.482 8.425 5.482 13.755z" fill="#87796f"/><path d="m147.282 140.491c-.223 0-.445-.05-.651-.149-4.435-2.137-8.764-4.8-12.867-7.914-1.31-.992-2.441-1.913-3.456-2.816-1.449-1.271-2.756-2.599-3.873-3.941-2.259-2.717-4.175-5.986-6.031-10.29-.168-.388-.164-.828.011-1.213.174-.385.502-.678.904-.809 2.121-.687 4.342-1.035 6.602-1.035 5.976 0 11.53 2.391 15.641 6.731 3.799 4.007 5.892 9.258 5.892 14.787 0 1.881-.242 3.744-.721 5.535-.115.432-.417.79-.823.977-.201.092-.414.137-.628.137zm-23.418-24.72c1.517 3.264 3.086 5.828 4.876 7.981 1.018 1.221 2.213 2.437 3.553 3.612.964.857 2.035 1.73 3.283 2.674 3.414 2.591 6.986 4.854 10.643 6.746.154-.967.232-1.951.232-2.941 0-4.757-1.8-9.276-5.069-12.724-3.538-3.737-8.319-5.795-13.463-5.795-1.375 0-2.733.15-4.055.447z" fill="#3a312a"/><path d="m142.472 120.087c-3.446 3.141-7.196 5.919-11.167 8.405-7.041 4.41-14.762 7.891-22.664 10.789-.489-1.73-.749-3.553-.749-5.438 0-8.915 5.832-16.469 13.89-19.056 1.933-.626 3.996-.962 6.139-.962 5.729-.001 10.898 2.405 14.551 6.262z" fill="#87796f"/><path d="m108.64 140.781c-.234 0-.469-.055-.682-.164-.372-.19-.648-.526-.762-.928-.535-1.893-.806-3.86-.806-5.846 0-9.385 6-17.617 14.931-20.484 2.118-.686 4.339-1.034 6.599-1.034 5.976 0 11.53 2.391 15.641 6.731.277.292.425.684.41 1.086s-.191.782-.488 1.054c-3.355 3.057-7.185 5.939-11.382 8.567-6.51 4.077-14.015 7.651-22.944 10.926-.168.062-.343.092-.517.092zm19.28-25.457c-1.945 0-3.855.299-5.678.89-7.688 2.468-12.852 9.552-12.852 17.629 0 1.159.107 2.311.319 3.439 8.037-3.039 14.854-6.338 20.799-10.061 3.556-2.227 6.833-4.639 9.763-7.184-3.397-3.05-7.728-4.713-12.351-4.713z" fill="#3a312a"/><path d="m220.5 118.95v107.01h-11v-29.21h6.12c.83 0 1.5-.67 1.5-1.5v-9.5c0-.83-.67-1.5-1.5-1.5h-6.39v-9.33c0-3.6-1.42-6.87-3.73-9.28v-27.28c1.5-1.13 2.47-2.92 2.47-4.94 0-1.71-.69-3.26-1.82-4.39.4-1.8.62-3.66.62-5.53 0-6.55-2.48-12.78-6.98-17.53-4.59-4.83-10.68-7.63-17.28-7.95l-62.01-56.45 7.5-6.83z" fill="#decaad"/><path d="m111.431 239.75h128.069v-2.708c0-5.292-4.29-9.581-9.581-9.581h-203.838c-5.292 0-9.581 4.29-9.581 9.581v2.708h77.069z" fill="#87796f"/><path d="m239.5 241.25h-128.069c-.828 0-1.5-.671-1.5-1.5s.672-1.5 1.5-1.5h126.569v-1.208c0-4.456-3.625-8.082-8.081-8.082h-203.838c-4.456 0-8.081 3.625-8.081 8.082v1.208h75.569c.828 0 1.5.671 1.5 1.5s-.672 1.5-1.5 1.5h-77.069c-.828 0-1.5-.671-1.5-1.5v-2.708c0-6.11 4.971-11.082 11.081-11.082h203.838c6.11 0 11.081 4.971 11.081 11.082v2.708c0 .829-.672 1.5-1.5 1.5z" fill="#3a312a"/><path d="m84.672 53.227-65.743 59.847c-2.859 2.603-3.067 7.03-.465 9.889 2.603 2.858 7.03 3.066 9.889.464l99.647-90.711 99.648 90.71c1.342 1.222 3.028 1.824 4.71 1.824 1.901 0 3.797-.771 5.179-2.288 2.603-2.859 2.395-7.286-.465-9.889l-104.359-95c-2.67-2.432-6.754-2.432-9.424 0l-24.99 22.749z" fill="#ed6e7a"/><path d="m232.357 126.75c-2.12 0-4.151-.787-5.72-2.214l-98.637-89.792-98.638 89.792c-3.466 3.154-8.852 2.902-12.008-.563-1.528-1.679-2.311-3.853-2.205-6.121.107-2.268 1.091-4.359 2.769-5.887l65.743-59.847c.612-.557 1.561-.513 2.119.1s.513 1.562-.1 2.119l-65.743 59.847c-1.087.989-1.723 2.342-1.792 3.809-.069 1.468.438 2.874 1.427 3.96 2.043 2.243 5.529 2.406 7.77.364l99.647-90.71c.572-.521 1.447-.521 2.02 0l99.647 90.71c1.015.924 2.329 1.433 3.7 1.433 1.546 0 3.029-.655 4.069-1.798.989-1.086 1.496-2.492 1.427-3.96-.069-1.467-.705-2.82-1.792-3.809l-104.359-95c-2.111-1.923-5.293-1.922-7.404 0l-24.988 22.748c-.611.558-1.561.514-2.119-.1-.558-.613-.513-1.562.1-2.119l24.989-22.748c3.263-2.97 8.183-2.971 11.443 0l104.359 95c1.679 1.528 2.663 3.619 2.77 5.887.106 2.268-.677 4.441-2.205 6.121-1.609 1.766-3.901 2.778-6.289 2.778z" fill="#3a312a"/></g></svg>