<?xml version="1.0" encoding="iso-8859-1"?>
<!-- Generator: Adobe Illustrator 19.0.0, SVG Export Plug-In . SVG Version: 6.00 Build 0)  -->
<svg version="1.1" id="Capa_1" xmlns="http://www.w3.org/2000/svg" xmlns:xlink="http://www.w3.org/1999/xlink" x="0px" y="0px"
	 viewBox="0 0 512 512" style="enable-background:new 0 0 512 512;" xml:space="preserve">
<rect x="348.1" y="319.13" style="fill:#FFD467;" width="110" height="124"/>
<rect x="428.1" y="319.13" style="fill:#FFB06A;" width="30" height="124"/>
<rect x="198.1" y="319.13" style="fill:#FFE9B5;" width="150" height="124"/>
<rect x="313.5" y="125.06" style="fill:#BE6454;" width="72" height="30"/>
<rect x="355.5" y="125.06" style="fill:#A35D54;" width="30" height="30"/>
<rect x="7.5" y="443" style="fill:#BE6454;" width="497" height="30"/>
<ellipse style="fill:#FFD65C;" cx="189" cy="109" rx="32" ry="31.906"/>
<path style="fill:#B3E671;" d="M103.5,338.13h-52c-24.2,0-44-19.8-44-44v-52c0-24.2,19.8-44,44-44h52c24.2,0,44,19.8,44,44v52
	C147.5,318.33,127.7,338.13,103.5,338.13z"/>
<path style="fill:#8BD767;" d="M103.5,198.13H75c24.2,0,44,19.8,44,44v52c0,24.2-19.8,44-44,44h28.5c24.2,0,44-19.8,44-44v-52
	C147.5,217.93,127.7,198.13,103.5,198.13z"/>
<rect x="62.5" y="338.13" style="fill:#A35D54;" width="30" height="105"/>
<polygon style="fill:#DE4747;" points="472.445,319.13 404.367,205.062 254.018,205.062 185.939,319.13 "/>
<polygon style="fill:#C43F3F;" points="404.367,205.062 346.321,319.13 472.445,319.13 "/>
<rect x="270.47" y="238.9" style="fill:#9FDBF5;" width="35" height="41"/>
<g>
	<polygon style="fill:#BE6454;" points="305.469,279.895 329.192,238.895 305.469,238.895 	"/>
	<rect x="229.72" y="351.7" style="fill:#BE6454;" width="85.33" height="91.43"/>
</g>
<rect x="348.1" y="352.46" style="fill:#9FDBF5;" width="110.05" height="45.716"/>
<rect x="428.15" y="352.46" style="fill:#82D2F5;" width="30" height="45.716"/>
<rect x="324.5" y="155.06" style="fill:#CD795E;" width="50" height="50"/>
<rect x="344.5" y="155.06" style="fill:#BE6454;" width="30" height="50"/>
<path d="M504.5,435.5h-38.896v-36.491c0.03-0.273,0.048-0.549,0.048-0.83v-45.715c0-0.281-0.018-0.557-0.048-0.83V326.63h6.841
	c0.337,0,0.671-0.022,1-0.067c2.303-0.31,4.356-1.677,5.522-3.73c0.5-0.88,0.808-1.836,0.924-2.809
	c0.195-1.621-0.142-3.29-1.006-4.738l-68.079-114.067c-0.173-0.289-0.364-0.563-0.57-0.823c-0.052-0.065-0.112-0.121-0.166-0.184
	c-0.161-0.189-0.324-0.377-0.502-0.548c-0.067-0.064-0.141-0.118-0.21-0.18c-0.176-0.157-0.353-0.313-0.542-0.454
	c-0.08-0.059-0.166-0.106-0.247-0.162c-0.188-0.127-0.376-0.254-0.574-0.364c-0.098-0.054-0.202-0.097-0.302-0.147
	c-0.189-0.094-0.378-0.188-0.575-0.266c-0.122-0.048-0.248-0.083-0.373-0.125c-0.182-0.061-0.362-0.124-0.549-0.171
	c-0.145-0.037-0.294-0.06-0.442-0.087c-0.172-0.033-0.343-0.068-0.518-0.088c-0.16-0.019-0.321-0.023-0.483-0.032
	c-0.129-0.007-0.257-0.025-0.387-0.025h-22.371v-35h3.5c4.142,0,7.5-3.357,7.5-7.5v-30c0-4.143-3.358-7.5-7.5-7.5h-72
	c-4.142,0-7.5,3.357-7.5,7.5v30c0,4.143,3.358,7.5,7.5,7.5h3.5v35h-8.746c-4.142,0-7.5,3.357-7.5,7.5s3.358,7.5,7.5,7.5h16.246h50
	h17.639l-50.412,99.067H199.15l59.126-99.067h17.849c4.142,0,7.5-3.357,7.5-7.5s-3.358-7.5-7.5-7.5h-22.107
	c-2.641,0-5.087,1.389-6.44,3.656L179.5,315.286c-1.383,2.317-1.415,5.199-0.082,7.547c1.332,2.347,3.823,3.797,6.522,3.797h4.665
	V435.5H100v-89.87h3.5c28.397,0,51.5-23.103,51.5-51.5v-52c0-28.397-23.103-51.5-51.5-51.5H47.962
	C21.516,190.63,0,212.146,0,238.592v55.538c0,28.397,23.103,51.5,51.5,51.5H55V359c0,4.143,3.358,7.5,7.5,7.5s7.5-3.357,7.5-7.5
	v-13.37h15v89.87H70v-44.87c0-4.143-3.358-7.5-7.5-7.5s-7.5,3.357-7.5,7.5v44.87H7.5c-4.142,0-7.5,3.357-7.5,7.5v30
	c0,4.143,3.358,7.5,7.5,7.5h497c4.142,0,7.5-3.357,7.5-7.5v-30C512,438.857,508.642,435.5,504.5,435.5z M51.5,330.63L51.5,330.63
	c-20.126,0-36.5-16.374-36.5-36.5v-55.538c0-18.175,14.787-32.962,32.962-32.962H103.5c20.126,0,36.5,16.374,36.5,36.5v52
	c0,20.126-16.374,36.5-36.5,36.5l0,0H51.5z M307.556,435.5h-70.333v-76.302h70.333V435.5z M355.604,435.5v-29.821H407.5
	c4.142,0,7.5-3.357,7.5-7.5s-3.358-7.5-7.5-7.5h-51.896v-30.715h95v30.715h-10.771c-4.142,0-7.5,3.357-7.5,7.5s3.358,7.5,7.5,7.5
	h10.771V435.5H355.604z M450.604,344.964h-95V326.63h95V344.964z M320.996,132.563h57v15l0,0h-57l0,0V132.563z M331.996,197.563v-35
	h35v35H331.996z M404.889,220.572l54.346,91.058h-1.131h-99.551L404.889,220.572z M205.604,326.63h135l0,0V435.5l0,0h-18.048
	v-83.802c0-4.143-3.358-7.5-7.5-7.5h-85.333c-4.142,0-7.5,3.357-7.5,7.5V435.5h-16.619L205.604,326.63L205.604,326.63z M497,450.5
	v15H15v-15H497"/>
<path d="M189,148.406c21.78,0,39.5-17.678,39.5-39.406S210.78,69.594,189,69.594S149.5,87.271,149.5,109S167.22,148.406,189,148.406
	z M189,84.594c13.509,0,24.5,10.948,24.5,24.406s-10.991,24.406-24.5,24.406S164.5,122.458,164.5,109S175.491,84.594,189,84.594z"/>
<path d="M262.969,238.895v41c0,4.143,3.358,7.5,7.5,7.5h34.986c0.005,0,0.01,0.001,0.015,0.001c0.022,0,0.044-0.004,0.066-0.004
	c0.279-0.002,0.553-0.022,0.823-0.054c0.086-0.01,0.17-0.025,0.256-0.039c0.221-0.034,0.439-0.077,0.653-0.129
	c0.077-0.019,0.154-0.038,0.231-0.059c0.26-0.073,0.515-0.158,0.762-0.257c0.024-0.009,0.048-0.017,0.072-0.026
	c0.278-0.115,0.546-0.248,0.806-0.394c0.056-0.032,0.109-0.067,0.165-0.1c0.198-0.118,0.39-0.245,0.575-0.38
	c0.071-0.052,0.142-0.104,0.212-0.158c0.196-0.154,0.385-0.317,0.565-0.49c0.033-0.032,0.069-0.06,0.102-0.092
	c0.208-0.207,0.4-0.428,0.582-0.657c0.048-0.061,0.093-0.124,0.14-0.187c0.147-0.197,0.284-0.401,0.412-0.613
	c0.022-0.036,0.049-0.068,0.07-0.104l23.724-41c1.342-2.32,1.345-5.181,0.005-7.503s-3.816-3.753-6.497-3.753H305.47h-35
	C266.327,231.395,262.969,234.752,262.969,238.895z M312.969,251.958v-5.563h3.219L312.969,251.958z M277.969,246.395h20v26h-20
	V246.395z"/>
<path d="M189,62.5c4.142,0,7.5-3.357,7.5-7.5V39c0-4.143-3.358-7.5-7.5-7.5s-7.5,3.357-7.5,7.5v16
	C181.5,59.143,184.858,62.5,189,62.5z"/>
<path d="M181.5,163v16c0,4.143,3.358,7.5,7.5,7.5s7.5-3.357,7.5-7.5v-16c0-4.143-3.358-7.5-7.5-7.5S181.5,158.857,181.5,163z"/>
<path d="M227.184,78.316c1.919,0,3.839-0.732,5.303-2.196l11.314-11.313c2.929-2.929,2.929-7.678,0-10.606
	c-2.929-2.93-7.678-2.929-10.606-0.001L221.88,65.513c-2.929,2.929-2.929,7.678,0,10.606
	C223.345,77.584,225.264,78.316,227.184,78.316z"/>
<path d="M145.513,141.88l-11.314,11.313c-2.929,2.929-2.929,7.678,0,10.606c1.464,1.465,3.384,2.197,5.303,2.197
	s3.839-0.732,5.303-2.196l11.314-11.313c2.929-2.929,2.929-7.678,0-10.606C153.191,138.951,148.442,138.952,145.513,141.88z"/>
<path d="M235.5,109c0,4.143,3.358,7.5,7.5,7.5h16c4.142,0,7.5-3.357,7.5-7.5s-3.358-7.5-7.5-7.5h-16
	C238.858,101.5,235.5,104.857,235.5,109z"/>
<path d="M119,116.5h16c4.142,0,7.5-3.357,7.5-7.5s-3.358-7.5-7.5-7.5h-16c-4.142,0-7.5,3.357-7.5,7.5S114.858,116.5,119,116.5z"/>
<path d="M221.88,141.881c-2.929,2.929-2.929,7.678,0,10.606l11.314,11.313c1.464,1.464,3.384,2.196,5.303,2.196
	s3.839-0.732,5.303-2.197c2.929-2.929,2.929-7.678,0-10.606l-11.314-11.313C229.558,138.952,224.809,138.951,221.88,141.881z"/>
<path d="M145.513,76.12c1.464,1.464,3.384,2.196,5.303,2.196s3.839-0.732,5.303-2.197c2.929-2.929,2.929-7.678,0-10.606
	L144.805,54.2c-2.929-2.928-7.678-2.929-10.606,0.001c-2.929,2.929-2.929,7.678,0,10.606L145.513,76.12z"/>
<g>
</g>
<g>
</g>
<g>
</g>
<g>
</g>
<g>
</g>
<g>
</g>
<g>
</g>
<g>
</g>
<g>
</g>
<g>
</g>
<g>
</g>
<g>
</g>
<g>
</g>
<g>
</g>
<g>
</g>
</svg>
