<svg height="511pt" viewBox="0 -16 511.99982 511" width="511pt" xmlns="http://www.w3.org/2000/svg"><path d="m462.902344 187.449219v-139.769531h-77.949219v63.769531zm0 0" fill="#ffc850"/><path d="m415.859375 47.679688h-30.90625v63.769531l30.90625 30.132812zm0 0" fill="#feb644"/><path d="m458.648438 16.566406h-69.4375c-9.386719 0-17.066407 7.679688-17.066407 17.066406 0 9.382813 7.679688 17.0625 17.066407 17.0625h69.4375c9.382812 0 17.0625-7.679687 17.0625-17.0625 0-9.386718-7.679688-17.066406-17.0625-17.066406zm0 0" fill="#feb644"/><path d="m458.648438 29.832031h-69.4375c-5.460938 0-10.332032-2.609375-13.460938-6.632812-2.25 2.890625-3.605469 6.507812-3.605469 10.433593 0 9.382813 7.679688 17.0625 17.066407 17.0625h69.4375c9.382812 0 17.0625-7.679687 17.0625-17.0625 0-3.925781-1.355469-7.542968-3.605469-10.433593-3.128907 4.023437-7.996094 6.632812-13.457031 6.632812zm0 0" fill="#fda537"/><path d="m256 42.453125-206.902344 187.8125v241.855469h413.804688v-241.855469zm0 0" fill="#e4eaf8"/><path d="m256 42.453125-206.902344 187.8125v241.855469h30.90625v-219.117188c0-6.386718 2.695313-12.480468 7.425782-16.773437l191.023437-173.394531zm0 0" fill="#d8dce5"/><path d="m5.542969 249.207031c-7.925781-8.734375-7.273438-22.238281 1.460937-30.164062l234.644532-213c8.140624-7.390625 20.5625-7.390625 28.703124 0l234.648438 213c8.730469 7.925781 9.382812 21.429687 1.457031 30.164062-7.925781 8.730469-21.429687 9.382813-30.164062 1.457031l-220.292969-199.96875-220.292969 199.96875c-8.730469 7.925782-22.238281 7.273438-30.164062-1.457031zm0 0" fill="#f77c7c"/><path d="m36.449219 249.207031c-7.925781-8.734375-7.273438-22.238281 1.460937-30.164062l233.542969-212-1.101563-1c-8.140624-7.390625-20.5625-7.390625-28.703124 0l-234.644532 213c-8.734375 7.925781-9.386718 21.429687-1.460937 30.164062 7.925781 8.730469 21.433593 9.382813 30.164062 1.457031l1.15625-1.050781c-.136719-.140625-.28125-.261719-.414062-.40625zm0 0" fill="#f25c5c"/><path d="m482.886719 479.847656h-453.773438c-4.269531 0-7.726562-3.457031-7.726562-7.726562 0-4.265625 3.457031-7.726563 7.726562-7.726563h453.777344c4.265625 0 7.726563 3.460938 7.726563 7.726563-.003907 4.269531-3.460938 7.726562-7.730469 7.726562zm0 0" fill="#6fd844"/><path d="m283.058594 136.871094h-54.117188c-6.796875 0-12.363281 5.5625-12.363281 12.363281v54.117187c0 6.800782 5.566406 12.363282 12.363281 12.363282h54.117188c6.800781 0 12.363281-5.566406 12.363281-12.363282v-54.117187c.003906-6.800781-5.5625-12.363281-12.363281-12.363281zm0 0" fill="#ffc850"/><path d="m244.738281 203.351562v-54.117187c0-6.800781 5.566407-12.363281 12.363281-12.363281h-28.160156c-6.796875 0-12.363281 5.5625-12.363281 12.363281v54.117187c0 6.800782 5.566406 12.363282 12.363281 12.363282h28.160156c-6.796874 0-12.363281-5.5625-12.363281-12.363282zm0 0" fill="#feb644"/><path d="m283.058594 129.144531h-54.117188c-11.078125 0-20.089844 9.011719-20.089844 20.089844v54.117187c0 11.078126 9.011719 20.089844 20.089844 20.089844h54.117188c11.078125 0 20.09375-9.011718 20.09375-20.089844v-54.117187c0-11.078125-9.015625-20.089844-20.09375-20.089844zm4.636718 20.089844v19.332031h-23.96875v-23.96875h19.332032c2.515625 0 4.636718 2.121094 4.636718 4.636719zm-58.753906-4.636719h19.332032v23.96875h-23.96875v-19.332031c0-2.515625 2.125-4.636719 4.636718-4.636719zm-4.636718 58.753906v-19.332031h23.96875v23.96875h-19.332032c-2.511718 0-4.636718-2.125-4.636718-4.636719zm58.753906 4.636719h-19.332032v-23.96875h23.96875v19.332031c0 2.511719-2.121093 4.636719-4.636718 4.636719zm0 0" fill="#52586d"/><path d="m373.699219 359.195312-16.296875-6.3125c-3.976563 4.394532-8.269532 9.089844-12.386719 13.566407-10.285156 11.1875-27.941406 11.1875-38.230469 0-4.039062-4.394531-8.25-9-12.164062-13.320313l-16.527344 6.40625c-13.09375 5.074219-21.71875 17.671875-21.71875 31.710938v14.597656c0 3.3125 2.683594 6 6 6h127.054688c3.3125 0 6-2.6875 6-6v-14.933594c0-14.042968-8.632813-26.644531-21.730469-31.714844zm0 0" fill="#f25c5c"/><path d="m335.503906 373c-9.660156 3.835938-21.171875 1.65625-28.71875-6.550781-4.039062-4.394531-8.25-9-12.160156-13.320313l-16.53125 6.40625c-13.089844 5.074219-21.71875 17.671875-21.71875 31.710938v14.597656c0 3.3125 2.6875 6 6 6h94.316406c-2.078125-15.152344-9.753906-29-21.1875-38.84375zm0 0" fill="#e54a4a"/><path d="m348.714844 349.519531c-1.578125-.613281-2.617188-2.128906-2.617188-3.820312v-15.289063c-5.605468 3.863282-12.386718 6.132813-19.695312 6.132813-7.644532 0-14.363282-2.097657-19.859375-5.609375v14.765625c0 1.691406-1.039063 3.207031-2.617188 3.820312l-10.3125 3.996094c4.183594 4.636719 8.789063 9.667969 13.171875 14.4375 10.289063 11.1875 27.945313 11.1875 38.230469 0 4.464844-4.851563 9.152344-9.980469 13.394531-14.679687zm0 0" fill="#f0a479"/><path d="m335.320312 372.855469c-2.132812-1.8125-3.320312-4.5-3.320312-7.300781v-29.464844c-1.824219.296875-3.691406.453125-5.597656.453125-7.644532 0-14.363282-2.097657-19.859375-5.609375v14.765625c0 1.691406-1.039063 3.207031-2.617188 3.820312l-4.027343 1.558594-6.285157 2.4375c12.390625 13.722656 20.457031 26.414063 38.386719 22.097656v-.019531c1.582031-.382812 3.140625-.894531 4.644531-1.578125-.433593-.390625-.878906-.777344-1.324219-1.160156zm0 0" fill="#e5966e"/><path d="m325.902344 240.28125c-.140625 0-.28125 0-.421875.003906-19.351563.167969-34.851563 16.140625-34.851563 35.496094v15.691406c0-1.875 1.601563-3.359375 3.457032-3.214844 18.296874 1.3125 36.921874-4.503906 51.003906-13.699218 1.3125-.859375 3.054687-.644532 4.125.503906 12.035156 12.9375 11.960937 12.4375 11.960937 14.125v-13.40625c0-19.351562-15.5-35.328125-34.851562-35.496094-.140625-.003906-.28125-.003906-.421875-.003906zm0 0" fill="#5e6377"/><path d="m316.964844 275.78125c0-14.847656 9.125-27.691406 22.105468-32.953125-3.941406-1.597656-8.238281-2.503906-12.746093-2.546875-.140625 0-.28125 0-.421875 0s-.28125 0-.421875 0c-19.351563.167969-34.851563 16.144531-34.851563 35.5v15.6875c0-1.875 1.601563-3.355469 3.457032-3.214844 7.691406.554688 15.433593-.167968 22.878906-1.855468zm0 0" fill="#52586d"/><path d="m349.210938 274.308594c-1.070313-1.148438-2.808594-1.363282-4.125-.503906-14.078126 9.199218-32.703126 15.011718-51 13.699218-1.855469-.144531-3.457032 1.339844-3.457032 3.214844v12.558594c0 18.171875 14.238282 34.769531 35.777344 34.769531 19.171875 0 34.769531-15.597656 34.769531-34.769531v-14.84375c0-1.6875.074219-1.1875-11.964843-14.125zm0 0" fill="#f7b594"/><path d="m316.964844 303.277344v-17.628906c-7.445313 1.6875-15.1875 2.40625-22.878906 1.855468-1.855469-.140625-3.457032 1.339844-3.457032 3.214844v12.558594c0 18.171875 14.238282 34.773437 35.777344 34.773437 4.507812 0 8.816406-.875 12.773438-2.441406-13.746094-5.257813-22.214844-18.320313-22.214844-32.332031zm0 0" fill="#f0a479"/><path d="m228.894531 359.195312-16.296875-6.3125c-3.976562 4.394532-8.269531 9.089844-12.386718 13.566407-10.285157 11.1875-27.941407 11.1875-38.230469 0-4.039063-4.394531-8.25-9-12.164063-13.320313l-16.527344 6.40625c-13.09375 5.074219-18.183593 17.671875-18.183593 31.710938v14.597656c0 3.3125 2.6875 6 6 6h123.519531c3.3125 0 5.996094-2.6875 5.996094-6v-14.933594c.003906-14.042968-8.628906-26.644531-21.726563-31.714844zm0 0" fill="#ffc850"/><path d="m132.828125 405.84375v-25.972656c0-9.1875 3.691406-17.753906 9.910156-24l-9.449219 3.664062c-13.09375 5.074219-18.183593 17.671875-18.183593 31.710938v14.597656c0 3.3125 2.6875 6 6 6h17.71875c-3.308594 0-5.996094-2.6875-5.996094-6zm0 0" fill="#feb644"/><path d="m203.910156 349.519531c-1.578125-.613281-2.617187-2.128906-2.617187-3.820312v-15.289063c-5.605469 3.863282-12.386719 6.132813-19.691407 6.132813-7.648437 0-14.367187-2.097657-19.863281-5.609375v14.765625c0 1.691406-1.039062 3.207031-2.617187 3.820312l-10.3125 3.996094c4.183594 4.636719 8.789062 9.667969 13.171875 14.4375 10.289062 11.1875 27.945312 11.1875 38.234375 0 4.460937-4.851563 9.148437-9.980469 13.390625-14.679687zm0 0" fill="#f0a479"/><path d="m187.195312 336.089844c-1.820312.296875-3.691406.453125-5.59375.453125-7.648437 0-14.367187-2.097657-19.863281-5.609375v14.765625c0 1.691406-1.039062 3.207031-2.617187 3.820312l-10.3125 3.996094c4.183594 4.636719 8.789062 9.667969 13.171875 14.4375 6.652343 7.234375 16.386719 9.78125 25.214843 7.660156zm0 0" fill="#e5966e"/><path d="m181.097656 240.28125c-.140625 0-.28125 0-.421875.003906-19.351562.167969-34.851562 16.140625-34.851562 35.496094v15.691406c0-1.875 1.601562-3.359375 3.457031-3.214844 18.296875 1.3125 36.921875-4.503906 51-13.699218 1.316406-.859375 3.058594-.644532 4.128906.503906 12.03125 12.9375 11.960938 12.4375 11.960938 14.125v-13.40625c0-19.351562-15.5-35.328125-34.851563-35.496094-.140625-.003906-.28125-.003906-.421875-.003906zm0 0" fill="#5e6377"/><path d="m172.160156 275.78125c0-14.847656 9.121094-27.691406 22.105469-32.953125-3.945313-1.597656-8.238281-2.503906-12.746094-2.546875-.140625 0-.28125 0-.421875 0s-.28125 0-.421875 0c-19.351562.167969-34.851562 16.144531-34.851562 35.5v15.6875c0-1.875 1.601562-3.355469 3.457031-3.214844 7.691406.554688 15.433594-.167968 22.878906-1.855468zm0 0" fill="#52586d"/><path d="m204.40625 274.308594c-1.066406-1.148438-2.808594-1.363282-4.125-.503906-14.078125 9.199218-32.699219 15.011718-51 13.699218-1.855469-.144531-3.457031 1.339844-3.457031 3.214844v12.558594c0 18.171875 14.238281 34.769531 35.777343 34.769531 19.171876 0 34.769532-15.597656 34.769532-34.769531v-14.84375c0-1.6875.074218-1.1875-11.964844-14.125zm0 0" fill="#f7b594"/><path d="m172.160156 303.277344v-17.628906c-7.445312 1.6875-15.1875 2.40625-22.878906 1.855468-1.855469-.140625-3.457031 1.339844-3.457031 3.214844v12.558594c0 18.171875 14.238281 34.773437 35.777343 34.773437 4.507813 0 8.816407-.875 12.773438-2.441406-13.746094-5.257813-22.214844-18.320313-22.214844-32.332031zm0 0" fill="#f0a479"/><path d="m309.648438 382.871094-19.144532-7.414063c-4.671875 5.160157-9.710937 10.675781-14.546875 15.933594-12.085937 13.144531-32.828125 13.144531-44.910156.003906-4.746094-5.164062-9.695313-10.574219-14.289063-15.652343l-19.417968 7.527343c-15.378906 5.960938-25.511719 20.761719-25.511719 37.253907v17.148437c0 3.890625 3.152344 7.042969 7.046875 7.042969h149.25c3.890625 0 7.046875-3.152344 7.046875-7.042969v-17.542969c0-16.496094-10.140625-31.296875-25.523437-37.257812zm0 0" fill="#00aaf0"/><path d="m196.796875 437.671875v-30.511719c0-10.789062 4.339844-20.855468 11.644531-28.195312l-11.101562 4.304687c-15.378906 5.960938-25.515625 20.761719-25.515625 37.253907v17.148437c0 3.890625 3.15625 7.042969 7.046875 7.042969h24.972656c-3.890625.003906-7.046875-3.152344-7.046875-7.042969zm0 0" fill="#059adb"/><path d="m280.296875 371.507812c-1.855469-.71875-3.074219-2.503906-3.074219-4.488281v-17.960937c-6.582031 4.539062-14.550781 7.207031-23.132812 7.207031-8.980469 0-16.875-2.46875-23.332032-6.59375v17.347656c0 1.988281-1.222656 3.769531-3.074218 4.488281l-12.113282 4.695313c4.917969 5.445313 10.324219 11.355469 15.472657 16.957031 12.085937 13.144532 32.824219 13.140625 44.914062 0 5.238281-5.699218 10.746094-11.722656 15.730469-17.242187zm0 0" fill="#f0a479"/><path d="m260.664062 355.730469c-2.140624.347656-4.335937.535156-6.574218.535156-8.980469 0-16.875-2.464844-23.332032-6.589844v17.34375c0 1.988281-1.21875 3.769531-3.070312 4.488281l-12.117188 4.699219c4.917969 5.441407 10.324219 11.355469 15.476563 16.957031 7.8125 8.496094 19.246094 11.492188 29.617187 9zm0 0" fill="#e5966e"/><path d="m253.5 243.183594c-.167969 0-.332031.003906-.496094.003906-22.734375.199219-40.941406 18.960938-40.941406 41.699219v18.429687c0-2.203125 1.882812-3.941406 4.0625-3.777344 21.496094 1.542969 43.371094-5.285156 59.910156-16.09375 1.546875-1.007812 3.59375-.753906 4.847656.597657 14.136719 15.195312 14.054688 14.605469 14.054688 16.589843v-15.75c0-22.734374-18.210938-41.496093-40.945312-41.695312-.164063 0-.328126-.003906-.492188-.003906zm0 0" fill="#5e6377"/><path d="m243 284.886719c0-17.441407 10.71875-32.53125 25.96875-38.710938-4.632812-1.878906-9.675781-2.941406-14.976562-2.988281-.164063-.003906-.328126-.003906-.492188-.003906-.167969 0-.332031.003906-.496094.003906-22.734375.199219-40.941406 18.960938-40.941406 41.699219v18.429687c0-2.203125 1.878906-3.941406 4.0625-3.777344 9.03125.648438 18.128906-.195312 26.875-2.179687zm0 0" fill="#52586d"/><path d="m280.878906 283.152344c-1.253906-1.347656-3.296875-1.597656-4.84375-.589844-16.539062 10.804688-38.417968 17.636719-59.910156 16.09375-2.179688-.167969-4.0625 1.574219-4.0625 3.777344v14.753906c0 21.347656 16.726562 40.84375 42.027344 40.84375 22.523437 0 40.847656-18.320312 40.847656-40.84375v-17.4375c0-1.984375.082031-1.394531-14.058594-16.597656zm0 0" fill="#f7b594"/><path d="m243 317.1875v-20.710938c-8.742188 1.984376-17.839844 2.828126-26.875 2.179688-2.179688-.164062-4.0625 1.574219-4.0625 3.777344v14.753906c0 21.347656 16.726562 40.84375 42.027344 40.84375 5.296875 0 10.355468-1.023438 15.003906-2.867188-16.144531-6.171874-26.09375-21.519531-26.09375-37.976562zm0 0" fill="#f0a479"/></svg>