<svg id="Layer_1" enable-background="new 0 0 468.4 468.4" height="512" viewBox="0 0 468.4 468.4" width="512" xmlns="http://www.w3.org/2000/svg"><g><g><g><g><g><g><path d="m149.4 182.1c33.3-14.1 40.4-51.2 22.9-68.7-2-2-4.3-3.7-6.9-5.1 8.1-17.6 7.3-35.8-3.7-46.8-7.6-7.5-18.6-10.3-30.5-8.6-6-20.9-20.6-35.6-37.6-35.6s-31.6 14.8-37.6 35.7c-11.9-1.7-23 1-30.5 8.6-11.1 11-11.8 29.4-3.6 47.1-2.3 1.3-4.5 2.9-6.4 4.8-17.6 17.6-8.8 54.5 22.9 68.7l55.1 27.2z" fill="#a2d962"/></g><g><path d="m35.5 128.4c1.9-1.9 4.1-3.5 6.4-4.8-8.2-17.7-7.5-36 3.6-47.1 7.5-7.5 18.6-10.2 30.5-8.5 6-20.9 20.6-35.6 37.6-35.6 2.8 0 5.6.4 8.3 1.2-7.3-10-17.3-16.2-28.3-16.2-17-.1-31.6 14.7-37.6 35.6-11.9-1.7-23 1-30.5 8.6-11.1 11-11.8 29.4-3.6 47.1-2.3 1.3-4.5 2.9-6.4 4.8-17.6 17.5-8.8 54.5 22.8 68.6-14.4-17.2-15.9-40.7-2.8-53.7z" fill="#77bc4d"/></g></g><g><g><path d="m93.6 135.4c-1.2 0-2.4-.4-3.3-1.3l-30.3-27.1c-2.1-1.8-2.2-5-.4-7.1s5-2.2 7.1-.4l26.9 24.2 27-23.8c2.1-1.8 5.2-1.6 7.1.4 1.8 2.1 1.6 5.2-.4 7.1l-30.3 26.8c-1.1.8-2.3 1.2-3.4 1.2z" fill="#77bc4d"/></g><g><path d="m93.6 183.6c-1.2 0-2.4-.4-3.3-1.3l-30.3-27.1c-2.1-1.8-2.2-5-.4-7.1s5-2.2 7.1-.4l26.9 24.2 27-23.8c2.1-1.8 5.2-1.6 7.1.4 1.8 2.1 1.6 5.2-.4 7.1l-30.3 26.8c-1.1.8-2.3 1.2-3.4 1.2z" fill="#77bc4d"/></g></g></g><g><g><path d="m347.8 463.4h97.2c3.3-20.5 18.3-48.8 18.3-48.8-12.6.9-23 5.3-31.9 14.5l6.9-39.5c-23.5 2.1-31.9 16.4-41.9 36.5-9.5-23.6-21.8-35.1-41.9-36.5l6.9 39.5c-8.8-9.2-19.3-13.6-31.9-14.5-.1.1 13.9 29.6 18.3 48.8z" fill="#a2d962"/></g><g><path d="m439.4 422.4c-4.7 9.8-12.2 27.1-14.4 41h20c3.3-20.5 18.3-48.8 18.3-48.8-9 .7-16.9 3.2-23.9 7.8z" fill="#77bc4d"/></g></g><g><g><g><path d="m332.9 172.3-88.4 104.4v186.7h169.1l-.1-195.3z" fill="#ffd066"/></g><g><g><path d="m347.1 189.2-14.2-16.9-88.4 104.4v186.7h20v-176.7z" fill="#ffb81a"/></g></g><g><g><path d="m294.5 353v110.4h69v-110.4z" fill="#e0b091"/></g><g><g><path d="m294.5 353h20v110.4h-20z" fill="#d89671"/></g></g></g><g><path d="m51.8 276.7h192.7v186.7h-192.7z" fill="#fec"/></g><g><g><path d="m51.8 276.7h18v186.7h-18z" fill="#ffddab"/></g></g><g><g><g><path d="m194.3 172.2-88 104.5h70.1l88-104.4z" fill="#f77c8b"/></g><g><path d="m194.3 172.2-88 104.5h20l88-104.5z" fill="#ed627d"/></g></g><g><g><path d="m125.3 172.2-88.1 104.5h69.1l88-104.5z" fill="#f95a66"/></g><g><path d="m125.3 172.2-88.1 104.5h20l88.1-104.5z" fill="#ed3252"/></g></g><g><g><path d="m332.9 172.3h-68.5l-88 104.4h68.1z" fill="#f95a66"/></g><g><path d="m264.4 172.3-88 104.4h20l87.9-104.4z" fill="#ed3252"/></g></g></g></g><g><g><path d="m163.9 306.8h50.1v50.1h-50.1z" fill="#e0b091"/></g><g><path d="m163.9 306.8h20v50.1h-20z" fill="#d89671"/></g></g><g><g><path d="m81.8 306.8h50.1v50.1h-50.1z" fill="#e0b091"/></g><g><path d="m81.8 306.8h20v50.1h-20z" fill="#d89671"/></g></g></g></g><g><g><path d="m24 463.4h97.2c3.3-20.5 18.3-48.8 18.3-48.8-12.6.9-23 5.3-31.9 14.5l6.9-39.5c-23.5 2.1-31.9 16.4-41.9 36.5-9.5-23.6-21.8-35.1-41.9-36.5l6.9 39.5c-8.8-9.2-19.3-13.6-31.9-14.5 0 .1 13.9 29.6 18.3 48.8z" fill="#a2d962"/></g><g><path d="m5.7 414.7s13.9 29.5 18.3 48.8h20c-3-13.2-10.5-31.3-14.9-41.3-6.9-4.6-14.7-6.9-23.4-7.5z" fill="#77bc4d"/></g></g></g><g><path d="m214 52.3c-2 0-3.9-1.2-4.6-3.1-9.2-22.7-28.9-20.7-29.8-20.6-2.7.3-5.2-1.6-5.6-4.4s1.6-5.2 4.3-5.6c8.3-1.1 25 1.8 35.6 17.9 10.7-16.2 27.3-19 35.6-17.9 2.7.4 4.7 2.9 4.3 5.6s-2.9 4.7-5.6 4.3c-.8-.1-20.5-2.1-29.7 20.6-.6 1.9-2.5 3.2-4.5 3.2z" fill="#e0e0e0"/></g><g><g><circle cx="333.4" cy="266.3" fill="#eee" r="25"/></g><g><path d="m349.4 249.3c.8 0 1.6 0 2.4.1-4.6-5-11.1-8.1-18.4-8.1-13.8 0-25 11.2-25 25 0 13 9.9 23.7 22.6 24.9-4.1-4.4-6.6-10.4-6.6-16.9 0-13.8 11.2-25 25-25z" fill="#d3d3d3"/></g></g><g><g><path d="m343.5 419.5h-8.9c-2.8 0-5-2.2-5-5s2.2-5 5-5h3.9v-14.3h-3.8c-2.8 0-5-2.2-5-5s2.2-5 5-5h8.8c2.8 0 5 2.2 5 5v24.3c0 2.7-2.4 5-5 5z" fill="#333"/></g><g><path d="m214 361.8h-50.1c-2.8 0-5-2.2-5-5v-50.1c0-2.8 2.2-5 5-5h50.1c2.8 0 5 2.2 5 5v50.1c0 2.8-2.2 5-5 5zm-45.1-10h40.1v-40.1h-40.1z" fill="#333"/></g><g><path d="m131.9 361.8h-50.1c-2.8 0-5-2.2-5-5v-50.1c0-2.8 2.2-5 5-5h50.1c2.8 0 5 2.2 5 5v50.1c0 2.8-2.2 5-5 5zm-45.1-10h40.1v-40.1h-40.1z" fill="#333"/></g><path d="m462.9 409.7c-9.2.6-17.2 3.1-24.3 7.3l4.6-26.5c.6-3.1-2.2-6.2-5.4-5.8-7.7.7-14 2.6-19.3 5.5v-107.9l8.9 11.1c4 5.1 11.9-1.3 7.8-6.2l-98.5-118.1c-.9-1.1-2.4-1.8-3.8-1.8l-156.5-.1c14-17.7 14.2-47.8-4.7-60.8 12.7-30.8-4.3-61.2-37-58.8-7.5-21.6-23.3-35.3-41.1-35.3s-33.7 13.7-41.1 35.3c-12.2-.7-23 2.9-30.5 10.4-11.5 11.4-13.8 29.8-6.3 48.7-28.2 21.9-10.4 67.8 20.6 79.9l49.7 24.5-52.5 62.3c-2.8 3.1-.3 8.4 3.8 8.2h9.5v106.5c-4.8-2-10-3.1-15.7-3.5-3.1-.3-5.9 2.8-5.3 5.8l4.6 26.5c-7.1-4.3-15.2-6.7-24.3-7.3-3.7-.4-6.6 3.8-4.9 7.1.1.3 11 23.5 16.3 41.6h-12.2c-2.8 0-5 2.2-5 5s2.2 5 5 5h453.4c2.8 0 5-2.2 5-5s-2.2-5-5-5h-7.6c4.6-18.7 16.5-41.1 16.6-41.4 2-5-3-7.4-4.8-7.2zm-266.3-232.5h57l-79.5 94.4h-57zm-156.1.4c-23.1-9.1-39.3-41.5-21.5-60.6 1.6-1.5 3.3-2.9 5.3-4 2.3-1.3 3.2-4.1 2.1-6.5-11.7-24.4-3-48.9 23-49 1.9 0 3.9.1 5.9.4 2.5.3 4.8-1.2 5.5-3.6 5.6-19.5 18.4-32 32.8-32s27.2 12.6 32.8 32c.7 2.4 3 3.9 5.5 3.6 10.8-1.5 20.2 1 26.3 7.2 9.2 9.1 10.2 24.9 2.7 41.2-1.1 2.4-.2 5.2 2.2 6.5 2.1 1.1 4 2.6 5.7 4.2 13.3 13 8.2 38.1-5.6 50.2h-37.8c-1.5 0-2.9.7-3.8 1.8l-22.9 27.1v-23.3l28.6-25.3c2.1-1.8 2.3-5 .4-7.1-1.8-2.1-5-2.3-7.1-.4l-22 19.4v-34.8l28.6-25.3c2.1-1.8 2.3-5 .4-7.1-1.8-2.1-5-2.3-7.1-.4l-22 19.4v-34.7c0-2.8-2.2-5-5-5s-5 2.2-5 5v34.7l-21.8-19.6c-2.1-1.8-5.2-1.7-7.1.4-1.8 2-1.7 5.2.4 7l28.6 25.7v34.7l-21.9-19.7c-2.1-1.8-5.2-1.7-7.1.4s-1.7 5.2.4 7.1l28.6 25.7v28.5zm87.1-.4h56l-79.6 94.5h-56zm-10.5 281.2h-89.2c-3.4-12.7-9.8-28.1-13.9-37.4 7.8 1.9 14.2 5.7 20 11.6 3.2 3.6 9.5.4 8.5-4.3l-5.7-32.8c14 3 23.3 12.9 31.2 32.5 1.4 3.9 7.3 4.2 9.1.4 8.8-17.5 15.4-29 31.3-32.7l-5.7 32.6c-1 4.7 5.3 7.9 8.5 4.3 5.6-5.8 12-9.6 19.5-11.5-4.3 9.2-10.8 24.1-13.6 37.3zm122.4 0h-112.2c4.6-18.7 16.5-41.2 16.6-41.4 1.9-3.3-1-7.7-4.8-7.3-9.2.6-17.2 3.1-24.3 7.3l4.6-26.5c.6-3.1-2.2-6.2-5.4-5.8-21.7 2-31.9 13.4-41.2 30.1-4.6-9-9.9-15.8-16.2-20.7v-112.4h182.7zm-52.4-186.7 79.5-94.4h55.4l-80 94.4zm112.4 186.7v-100.4h58.9v100.4zm69 0v-105.4c0-2.8-2.2-5-5-5h-68.9c-2.8 0-5 2.2-5 5v105.4h-40.1v-179.9l83.4-98.4 75.6 89.8v188.5zm72.3 0h-22.3v-56.2c3.7-3.1 8.1-5.3 13.6-6.5l-5.7 32.6c-1 4.7 5.3 7.9 8.5 4.3 5.6-5.8 12-9.6 19.5-11.5-4.3 9.2-10.7 24.1-13.6 37.3z" fill="#333"/><g><path d="m214 44.3c-2 0-3.9-1.2-4.6-3.1-9.2-22.7-28.9-20.7-29.8-20.6-2.7.3-5.2-1.6-5.6-4.4s1.6-5.2 4.3-5.6c8.3-1.1 25 1.8 35.6 17.9 10.7-16.2 27.3-19 35.6-17.9 2.7.4 4.7 2.9 4.3 5.6s-2.9 4.7-5.6 4.3c-.8-.1-20.5-2.1-29.7 20.6-.6 1.9-2.5 3.2-4.5 3.2z" fill="#333"/></g><g><g><g id="XMLID_2_"><path d="m426.9 157.6c-9.4-21.7-45.6 8.7-.7 36.8 48.3-27.1 8.5-58.4.7-36.8z" fill="#f95a66"/></g><g><path d="m423.8 153c-12.2-11.7-38.5 15.8 2.4 41.4 5.1-2.9 9.3-5.8 12.5-8.7-16.8-12.5-18.7-24.9-14.9-32.7z" fill="#ed3252"/></g></g><g id="XMLID_1_"><path d="m426.1 199.4c-.9 0-1.8-.3-2.7-.8-25.9-16.2-25.2-32.4-23.7-38.6 1.9-8.1 8.5-14.2 16-14.8 4.1-.4 7.9.9 11 3.6 2.8-2.5 6.3-3.7 10.3-3.5 8 .5 15.2 7 17.1 15.6 1.4 6.3 1.8 22.4-25.6 37.8-.7.5-1.5.7-2.4.7zm-9-44.2c-3.1.1-6.4 2.6-7.6 7.2-1.9 8 4.3 17.6 16.8 26.1 13.2-8 19.9-17.4 18.1-25.4-1.1-4.6-4.9-7.6-8-7.8-.8-.1-3.3-.2-4.8 3.9-.7 1.9-2.5 3.2-4.5 3.3-2.1.1-3.9-1.1-4.7-3-1-1.9-2.6-4.3-5.3-4.3z" fill="#333"/></g></g><g><g><g id="XMLID_4_"><path d="m336.9 67.6c-9.4-21.7-45.6 8.7-.7 36.8 48.3-27.1 8.5-58.4.7-36.8z" fill="#f95a66"/></g><g><path d="m333.8 63c-12.2-11.7-38.5 15.8 2.4 41.4 5.1-2.9 9.3-5.8 12.5-8.7-16.8-12.5-18.7-24.9-14.9-32.7z" fill="#ed3252"/></g></g><g id="XMLID_3_"><path d="m336.1 109.4c-.9 0-1.8-.3-2.7-.8-25.9-16.2-25.2-32.4-23.7-38.6 1.9-8.1 8.5-14.2 16-14.8 4.1-.4 7.9.9 11 3.6 2.8-2.5 6.3-3.7 10.3-3.5 8 .5 15.2 7 17.1 15.6 1.4 6.3 1.8 22.4-25.6 37.8-.7.5-1.5.7-2.4.7zm-9-44.2c-3.1.1-6.4 2.6-7.6 7.2-1.9 8 4.3 17.6 16.8 26.1 13.2-8 19.9-17.4 18.1-25.4-1.1-4.6-4.9-7.6-8-7.8-.8-.1-3.3-.2-4.8 3.9-.7 1.9-2.5 3.2-4.5 3.3-2.1.1-3.9-1.1-4.7-3-1-1.9-2.6-4.3-5.3-4.3z" fill="#333"/></g></g><g><path d="m333.4 296.3c-16.5 0-30-13.5-30-30s13.5-30 30-30 30 13.5 30 30-13.4 30-30 30zm0-50c-11 0-20 9-20 20s9 20 20 20 20-9 20-20-8.9-20-20-20z" fill="#333"/></g></g></g></svg>