<svg height="512" viewBox="0 0 96 96" width="512" xmlns="http://www.w3.org/2000/svg"><g id="Medical_Team" data-name="Medical Team"><path d="m71.64 25.61h6.36a7 7 0 0 1 7 7v10.73a9.45 9.45 0 0 1 -9.45 9.45h-1.55a9.45 9.45 0 0 1 -9.45-9.45v-10.68a7 7 0 0 1 7-7z" fill="#fff"/><path d="m75.63 53.79h-1.63a10.46 10.46 0 0 1 -10.4-10.45v-10.68a8.06 8.06 0 0 1 8-8h6.4a8.06 8.06 0 0 1 8 8v10.68a10.46 10.46 0 0 1 -10.37 10.45zm-4-27.18a6 6 0 0 0 -6 6v10.73a8.46 8.46 0 0 0 8.37 8.45h1.59a8.46 8.46 0 0 0 8.45-8.45v-10.68a6.05 6.05 0 0 0 -6-6z" fill="#302d3d"/><path d="m95 83.1c-2.31-13.44-2.25-14.58-3.75-17.35a15 15 0 0 0 -11.85-7.47c-.64 0-.55 0-8.24 0a13.72 13.72 0 0 0 -3.67.5 14.48 14.48 0 0 0 -4.16 1.9 13.83 13.83 0 0 0 -6.33 9.41l-2.23 13z" fill="#49d293"/><path d="m63.87 79.1a3.7 3.7 0 0 1 -3.64-4.32l.69-4a10.64 10.64 0 0 1 10.24-8.51h8a9.92 9.92 0 0 1 4.61 1.44 10.16 10.16 0 0 1 4 4 9.9 9.9 0 0 1 1.07 3.08l.69 4a3.68 3.68 0 0 1 -3.63 4.32z" fill="#6cf5cf"/><path d="m95 84.1h-40.25a1 1 0 0 1 -1-1.17l2.24-13a15.51 15.51 0 0 1 15.17-12.67h8.31a16 16 0 0 1 12.65 8c1.59 2.92 1.49 3.83 3.87 17.66a1 1 0 0 1 -.99 1.18zm-39.07-2h37.88l-2-11.84a12.87 12.87 0 0 0 -5.9-8.75 13.55 13.55 0 0 0 -3.91-1.79 12.9 12.9 0 0 0 -3.41-.46c-8.1 0-7.66 0-8.18 0a14 14 0 0 0 -11 7c-1.41 2.49-1.31 3.19-3.48 15.84z" fill="#302d3d"/><path d="m63.49 79.21-.68 3.89" fill="#fff"/><path d="m62.81 84.1a1 1 0 0 1 -1-1.18l.69-3.92a1 1 0 0 1 1.16-.81 1 1 0 0 1 .81 1.15l-.67 3.89a1 1 0 0 1 -.99.87z" fill="#302d3d"/><path d="m86.93 83.1-1.33-7.68" fill="#fff"/><path d="m86.93 84.1a1 1 0 0 1 -1-.83l-1.34-7.68a1 1 0 0 1 2-.34l1.34 7.67a1 1 0 0 1 -1 1.18z" fill="#302d3d"/><path d="m70.79 58.6 4.08 14.71 4.08-14.71z" fill="#85c2ff"/><path d="m73.91 73.58-4.08-14.71a1 1 0 0 1 1-1.27h8.17a1 1 0 0 1 1 1.27l-4.17 14.71a1 1 0 0 1 -1.92 0zm-1.81-14 2.77 10 2.77-10z" fill="#302d3d"/><path d="m79 58.6a5 5 0 0 1 -8.16 0v-5.89h8.16z" fill="#fb9c88"/><path d="m70 59.18c-.26-.37-.18-.17-.18-6.47a1 1 0 0 1 1-1h8.18a1 1 0 0 1 1 1c0 6.3.08 6.1-.18 6.47a6 6 0 0 1 -9.82 0zm1.82-.91a4 4 0 0 0 6.16 0v-4.56h-6.19z" fill="#302d3d"/><rect fill="#fb9c88" height="4.41" rx="2.2" width="27.31" x="61.22" y="40.56"/><path d="m86.32 46h-22.9a3.21 3.21 0 0 1 0-6.41h22.9a3.21 3.21 0 0 1 0 6.41zm-22.9-4.41a1.21 1.21 0 0 0 0 2.41h22.9a1.21 1.21 0 0 0 0-2.41z" fill="#302d3d"/><path d="m74.87 55.09a10.23 10.23 0 0 1 -10.24-10.24v-9.08a5.86 5.86 0 0 1 5.86-5.86h8.76a5.86 5.86 0 0 1 5.86 5.86v9.08a10.23 10.23 0 0 1 -10.24 10.24z" fill="#fbc4ab"/><path d="m85.11 40v-4.23a5.86 5.86 0 0 0 -5.86-5.86h-8.76a5.86 5.86 0 0 0 -5.86 5.86v4.23z" fill="#fb9c88"/><path d="m74.87 56.09a11.25 11.25 0 0 1 -11.24-11.24v-9.08a6.87 6.87 0 0 1 6.86-6.86h8.76a6.87 6.87 0 0 1 6.86 6.86v9.08a11.25 11.25 0 0 1 -11.24 11.24zm-4.38-25.18a4.87 4.87 0 0 0 -4.86 4.86v9.08a9.24 9.24 0 1 0 18.48 0v-9.08a4.87 4.87 0 0 0 -4.86-4.86z" fill="#302d3d"/><path d="m77.56 49.32a4.08 4.08 0 0 1 -5.38 0" fill="#fff"/><path d="m71.52 50.08a1 1 0 1 1 1.32-1.51 3.17 3.17 0 0 0 4.06 0 1 1 0 1 1 1.32 1.51 5.11 5.11 0 0 1 -6.7 0z" fill="#302d3d"/><path d="m78.93 43.76a1 1 0 0 1 -1-1v-.45a1 1 0 0 1 2 0v.45a1 1 0 0 1 -1 1z" fill="#302d3d"/><path d="m80 40.86h-2.11a1 1 0 0 1 0-2h2.11a1 1 0 0 1 0 2z" fill="#302d3d"/><path d="m70.81 43.76a1 1 0 0 1 -1-1v-.45a1 1 0 0 1 2 0v.45a1 1 0 0 1 -1 1z" fill="#302d3d"/><path d="m71.85 40.86h-2.07a1 1 0 0 1 0-2h2.07a1 1 0 0 1 0 2z" fill="#302d3d"/><path d="m85.08 36.72v-3.47a7.64 7.64 0 0 0 -7.64-7.64h-5.21a7.64 7.64 0 0 0 -7.63 7.64v3.47z" fill="#49d293"/><path d="m85.08 37.72h-20.48a1 1 0 0 1 -1-1v-3.47a8.64 8.64 0 0 1 8.63-8.64h5.21a8.65 8.65 0 0 1 8.64 8.64v3.47a1 1 0 0 1 -1 1zm-19.48-2h18.48v-2.47a6.65 6.65 0 0 0 -6.64-6.64h-5.21a6.64 6.64 0 0 0 -6.63 6.64z" fill="#302d3d"/><path d="m64.6 33.62h20.48v3.1h-20.48z" fill="#49d293"/><path d="m85.08 37.72h-20.48a1 1 0 0 1 -1-1v-3.1a1 1 0 0 1 1-1h20.48a1 1 0 0 1 1 1v3.1a1 1 0 0 1 -1 1zm-19.48-2h18.48v-1.1h-18.48z" fill="#302d3d"/><path d="m74.84 31.89a1 1 0 0 1 -1-1v-2.48a1 1 0 1 1 2 0v2.48a1 1 0 0 1 -1 1z" fill="#302d3d"/><path d="m76.08 30.65h-2.48a1 1 0 0 1 0-2h2.48a1 1 0 0 1 0 2z" fill="#302d3d"/><path d="m74.87 84.1a1 1 0 0 1 -1-1v-9.79a1 1 0 0 1 2 0v9.79a1 1 0 0 1 -1 1z" fill="#302d3d"/><path d="m41.76 83.1c-.76-11.44-.6-13.31-2-16.68a15.64 15.64 0 0 0 -11.83-9.17 1.14 1.14 0 0 1 -1-1.14v-3.32h-11.1v3.32a1.16 1.16 0 0 1 -1 1.15 15.56 15.56 0 0 0 -11.83 9.16c-1.42 3.34-1.22 4.86-2 16.68z" fill="#67b8ff"/><path d="m37 72.25a12.06 12.06 0 0 0 -6.89-10.32c-1.71-.87-2.87-.41-4.47-1.25a9.75 9.75 0 0 0 -8.57 0 5.59 5.59 0 0 1 -1.6.54 11.63 11.63 0 0 0 -9.72 10.7l-.24 3.67a3.29 3.29 0 0 0 3.28 3.51h25.21a3.29 3.29 0 0 0 3.28-3.51z" fill="#cae9ff"/><path d="m41.76 84.1h-40.76a1 1 0 0 1 -1-1.1l.76-11.41a16.63 16.63 0 0 1 14-15.32c.17 0 .12 0 .12-3.48a1 1 0 0 1 1-1h11.1a1 1 0 0 1 1 1c0 3.49-.05 3.45.12 3.48a16.61 16.61 0 0 1 13.9 15.64l.76 11.09a1 1 0 0 1 -1 1.1zm-39.69-2h38.62l-.67-10a14.64 14.64 0 0 0 -12.29-13.86 2.14 2.14 0 0 1 -1.8-2.13v-2.32h-9.1v2.32a2.17 2.17 0 0 1 -1.83 2.14 14.61 14.61 0 0 0 -12.24 13.48z" fill="#302d3d"/><path d="m8.99 74.11-.48 8.99" fill="#fff"/><path d="m8.51 84.1a1 1 0 0 1 -1-1.06l.48-9a1 1 0 0 1 1-1 1 1 0 0 1 1 1.06l-.48 9a1 1 0 0 1 -1 1z" fill="#302d3d"/><path d="m34.25 83.1-.31-5.76" fill="#fff"/><path d="m34.25 84.1a1 1 0 0 1 -1-.95l-.25-5.75a1 1 0 0 1 2-.11l.25 5.71a1 1 0 0 1 -1 1.1z" fill="#302d3d"/><rect fill="#fb9c88" height="4.41" rx="2.2" width="27.31" x="7.73" y="40.56"/><path d="m32.83 46h-22.9a3.21 3.21 0 0 1 0-6.41h22.9a3.21 3.21 0 0 1 0 6.41zm-22.9-4.44a1.21 1.21 0 0 0 0 2.41h22.9a1.21 1.21 0 0 0 0-2.41z" fill="#302d3d"/><path d="m23 60.68-1.62.99-1.62-.99v-7.59h3.24z" fill="#fb9c88"/><path d="m19.24 61.54a1 1 0 0 1 -.48-.86v-7.59a1 1 0 0 1 1-1h3.24a1 1 0 0 1 1 1v7.59a1 1 0 0 1 -.48.86c-2.52 1.46-1.78 1.51-4.28 0zm1.52-1.42.62.38.62-.38v-6h-1.24z" fill="#302d3d"/><path d="m18.18 23.75h6.39a7 7 0 0 1 7 7v12.59a9.45 9.45 0 0 1 -9.45 9.45h-1.53a9.45 9.45 0 0 1 -9.45-9.45v-12.55a7 7 0 0 1 7-7z" fill="#67b8ff"/><path d="m18.18 28.09h6.39a7 7 0 0 1 7 7v8.2a9.45 9.45 0 0 1 -9.45 9.45h-1.53a9.45 9.45 0 0 1 -9.45-9.45v-8.2a7 7 0 0 1 7-7z" fill="#4977dc"/><path d="m22.17 53.79h-1.58a10.46 10.46 0 0 1 -10.45-10.45v-12.55a8 8 0 0 1 8-8h6.4a8 8 0 0 1 8 8v12.55a10.46 10.46 0 0 1 -10.37 10.45zm-4-29a6 6 0 0 0 -6 6v12.55a8.46 8.46 0 0 0 8.45 8.45h1.58a8.46 8.46 0 0 0 8.45-8.45v-12.55a6 6 0 0 0 -6-6z" fill="#302d3d"/><path d="m31.62 40.49v4.37a10.24 10.24 0 0 1 -20.48 0v-4.37a7.67 7.67 0 0 1 7.66-7.67h5.2a7.67 7.67 0 0 1 7.62 7.67z" fill="#fbc4ab"/><path d="m31.62 40.49v1.67a4.54 4.54 0 0 1 -3.43-2.41c-.75-1.46-4.12-1.75-6.81-1.75s-6.06.31-6.81 1.77a4.56 4.56 0 0 1 -3.43 2.41v-1.69a7.67 7.67 0 0 1 7.66-7.67h5.2a7.67 7.67 0 0 1 7.62 7.67z" fill="#fb9c88"/><path d="m21.38 56.09a11.25 11.25 0 0 1 -11.24-11.24v-4.37a8.67 8.67 0 0 1 8.66-8.66h5.2a8.67 8.67 0 0 1 8.66 8.66v4.37a11.25 11.25 0 0 1 -11.28 11.24zm-2.58-22.27a6.67 6.67 0 0 0 -6.66 6.66v4.37a9.24 9.24 0 0 0 18.48 0v-4.37a6.67 6.67 0 0 0 -6.62-6.66z" fill="#302d3d"/><path d="m21.38 29.94a1 1 0 0 1 -1-1v-2.48a1 1 0 0 1 2 0v2.48a1 1 0 0 1 -1 1z" fill="#302d3d"/><path d="m22.62 28.7h-2.48a1 1 0 0 1 0-2h2.48a1 1 0 0 1 0 2z" fill="#302d3d"/><path d="m24.07 49.32a4.08 4.08 0 0 1 -5.38 0" fill="#fff"/><path d="m18 50.08a1 1 0 0 1 -.1-1.42 1 1 0 0 1 1.41-.09 3.2 3.2 0 0 0 4.08 0 1 1 0 1 1 1.31 1.51 5.11 5.11 0 0 1 -6.7 0z" fill="#302d3d"/><path d="m25.44 43.76a1 1 0 0 1 -1-1v-.45a1 1 0 0 1 2 0v.45a1 1 0 0 1 -1 1z" fill="#302d3d"/><path d="m26.47 40.86h-2.07a1 1 0 1 1 0-2h2.07a1 1 0 0 1 0 2z" fill="#302d3d"/><path d="m17.32 43.76a1 1 0 0 1 -1-1v-.45a1 1 0 0 1 2 0v.45a1 1 0 0 1 -1 1z" fill="#302d3d"/><path d="m18.36 40.86h-2.07a1 1 0 0 1 0-2h2.07a1 1 0 0 1 0 2z" fill="#302d3d"/><path d="m21.38 84.1a1 1 0 0 1 -1-1v-21.43a1 1 0 0 1 2 0v21.43a1 1 0 0 1 -1 1z" fill="#302d3d"/><circle cx="27.01" cy="72.38" fill="#f74867" r="2.94"/><path d="m27 76.32a3.94 3.94 0 1 1 3.93-3.94 3.95 3.95 0 0 1 -3.93 3.94zm0-5.88a1.94 1.94 0 1 0 1.93 1.94 1.94 1.94 0 0 0 -1.93-1.94z" fill="#302d3d"/><path d="m70.49 83.1-4.49-25.1a13.88 13.88 0 0 0 -1.52-4.33 14.92 14.92 0 0 0 -12.66-7.5h-7.42a14.59 14.59 0 0 0 -14.18 11.83l-4.71 25.1z" fill="#e6e7e8"/><path d="m34.49 79.1a3.47 3.47 0 0 1 -3.4-4.1l3.06-16.31a9.73 9.73 0 0 1 4.52-6.75 10.14 10.14 0 0 1 5.73-1.82h7.42a9.84 9.84 0 0 1 5.18 1.47 10.91 10.91 0 0 1 2.38 1.79 9.94 9.94 0 0 1 2.69 5.25l2.93 16.37a3.47 3.47 0 0 1 -3.41 4.07z" fill="#fff"/><path d="m70.49 84.1h-45a1 1 0 0 1 -1-1.19l4.7-25.14a15.59 15.59 0 0 1 15.21-12.65h7.42a15.59 15.59 0 0 1 15.18 12.66l4.5 25.14a1 1 0 0 1 -1.01 1.18zm-43.78-2h42.59l-4.3-23.97a12.85 12.85 0 0 0 -5.89-8.75 13.08 13.08 0 0 0 -7.3-2.26h-7.41a12.9 12.9 0 0 0 -6.76 1.88 13.21 13.21 0 0 0 -5 5.06c-1.4 2.53-1.07 2.06-5.93 28.04z" fill="#302d3d"/><path d="m44.03 46.47 4.08 14.71 4.08-14.71z" fill="#85c2ff"/><path d="m47.14 61.45-4.08-14.71a1 1 0 0 1 1-1.27h8.16a1 1 0 0 1 1 1.27l-4.15 14.71a1 1 0 0 1 -1.93 0zm-1.8-14 2.77 10 2.76-10z" fill="#302d3d"/><path d="m52.19 46.47a5 5 0 0 1 -8.16 0v-5.89h8.16z" fill="#fb9c88"/><path d="m43.21 47.05c-.26-.37-.18-.17-.18-6.47a1 1 0 0 1 1-1h8.16a1 1 0 0 1 1 1c0 6.3.07 6.1-.18 6.47a6 6 0 0 1 -9.8 0zm1.79-.92a4 4 0 0 0 6.16 0v-4.55h-6.16z" fill="#302d3d"/><path d="m35.64 12.9h10.85a6.33 6.33 0 0 1 6.33 6.33v9.19a0 0 0 0 1 0 0h-14.29a2.89 2.89 0 0 1 -2.89-2.89v-12.63a0 0 0 0 1 0 0z" fill="#52527b"/><path d="m52.83 29.43h-14.3a3.9 3.9 0 0 1 -3.89-3.9v-12.63a1 1 0 0 1 1-1h10.85a7.34 7.34 0 0 1 7.34 7.34v9.19a1 1 0 0 1 -1 1zm-16.19-15.53v11.63a1.9 1.9 0 0 0 1.89 1.9h13.3v-8.19a5.35 5.35 0 0 0 -5.34-5.34z" fill="#302d3d"/><path d="m56.23 12.9h.61a3.85 3.85 0 0 1 3.85 3.85v11.68a0 0 0 0 1 0 0h-5.6a2.26 2.26 0 0 1 -2.26-2.26v-9.87a3.4 3.4 0 0 1 3.4-3.4z" fill="#52527b"/><path d="m60.69 29.43h-5.6a3.27 3.27 0 0 1 -3.26-3.26v-9.87a4.41 4.41 0 0 1 4.4-4.4h.61a4.86 4.86 0 0 1 4.85 4.86v11.67a1 1 0 0 1 -1 1zm-4.46-15.53a2.4 2.4 0 0 0 -2.4 2.4v9.87a1.26 1.26 0 0 0 1.26 1.26h4.6v-10.67a2.86 2.86 0 0 0 -2.85-2.86z" fill="#302d3d"/><rect fill="#fbc4ab" height="4.41" rx="2.2" width="27.31" x="34.45" y="28.43"/><path d="m59.56 33.83h-22.9a3.2 3.2 0 1 1 0-6.4h22.9a3.2 3.2 0 0 1 0 6.4zm-22.9-4.4a1.2 1.2 0 1 0 0 2.4h22.9a1.2 1.2 0 0 0 0-2.4z" fill="#302d3d"/><path d="m58.35 28v4.69a10.25 10.25 0 1 1 -20.49 0v-4.69a10.25 10.25 0 1 1 20.49 0z" fill="#fb9c88"/><path d="m58.35 31.27v1.45a10.25 10.25 0 1 1 -20.49 0v-1.45a10.25 10.25 0 0 1 20.49 0z" fill="#fbc4ab"/><path d="m48.11 44a11.26 11.26 0 0 1 -11.25-11.28v-4.72a11.25 11.25 0 0 1 22.49 0v4.7a11.25 11.25 0 0 1 -11.24 11.3zm0-25.18a9.26 9.26 0 0 0 -9.25 9.18v4.7a9.25 9.25 0 0 0 18.49 0v-4.7a9.26 9.26 0 0 0 -9.24-9.22z" fill="#302d3d"/><path d="m50.8 37.19a4.12 4.12 0 0 1 -5.39 0" fill="#fff"/><path d="m44.76 37.94a1 1 0 0 1 1.31-1.51 3.17 3.17 0 0 0 4.07 0 1 1 0 0 1 1.31 1.57 5.1 5.1 0 0 1 -6.69-.06z" fill="#302d3d"/><path d="m52.16 31.63a1 1 0 0 1 -1-1v-.45a1 1 0 0 1 2 0v.45a1 1 0 0 1 -1 1z" fill="#302d3d"/><path d="m53.2 28.73h-2.07a1 1 0 0 1 0-2h2.07a1 1 0 0 1 0 2z" fill="#302d3d"/><path d="m44.05 31.63a1 1 0 0 1 -1-1v-.45a1 1 0 1 1 2 0v.45a1 1 0 0 1 -1 1z" fill="#302d3d"/><path d="m45.09 28.73h-2.09a1 1 0 0 1 0-2h2.07a1 1 0 0 1 0 2z" fill="#302d3d"/><path d="m45 16.65a5.69 5.69 0 0 1 0 8l-5.39-5.39" fill="#52527b"/><g fill="#302d3d"><path d="m44.27 25.39-5.39-5.39a1 1 0 0 1 0-1.41 1 1 0 0 1 1.42 0l4.6 4.6a4.68 4.68 0 0 0 -.63-5.83 1 1 0 0 1 0-1.42 1 1 0 0 1 1.41 0 6.68 6.68 0 0 1 0 9.45 1 1 0 0 1 -1.41 0z"/><path d="m61.68 84.1a1 1 0 0 1 -1-.84l-3-18.53a1 1 0 1 1 2-.3c.52 3.34-.09-.42 3 18.51a1 1 0 0 1 -1 1.16z"/><path d="m34.72 84.1a1 1 0 0 1 -1-1.15l2.8-18.52a1 1 0 1 1 2 .3c-.29 1.86.14-1-2.8 18.52a1 1 0 0 1 -1 .85z"/><path d="m39.2 54.83a1 1 0 0 1 -1-1 9.88 9.88 0 0 1 5.37-8.83 1 1 0 0 1 .91 1.78 7.88 7.88 0 0 0 -4.28 7 1 1 0 0 1 -1 1.05z"/><path d="m57 54.83a1 1 0 0 1 -1-1 7.87 7.87 0 0 0 -4.31-7 1 1 0 0 1 -.43-1.35 1 1 0 0 1 1.36-.48 9.87 9.87 0 0 1 5.38 8.83 1 1 0 0 1 -1 1z"/><path d="m59.5 58.33a1 1 0 0 1 -1-1v-2.12a.38.38 0 0 0 -.39-.38h-2.2a.38.38 0 0 0 -.39.38v2.12a1 1 0 0 1 -2 0v-2.12a2.39 2.39 0 0 1 2.39-2.38h2.2a2.39 2.39 0 0 1 2.39 2.38v2.12a1 1 0 0 1 -1 1z"/><path d="m39.2 59.47a3.32 3.32 0 1 1 3.32-3.32 3.32 3.32 0 0 1 -3.32 3.32zm0-4.64a1.32 1.32 0 1 0 1.32 1.32 1.33 1.33 0 0 0 -1.32-1.32z"/></g><path d="m11.9 38.37c1.1-2.11 3.72-3.37 9.48-3.37s8.39 1.28 9.48 3.39a1.56 1.56 0 0 0 1.38.83 1.67 1.67 0 0 0 1.37-2.45c-2.61-5.19-9.33-5.19-12.23-5.19s-9.62 0-12.23 5.19a1.67 1.67 0 0 0 1.37 2.45 1.55 1.55 0 0 0 1.38-.85z" fill="#f74867"/><path d="m15.21 34.65a1.7 1.7 0 0 0 -2.48-1.5 8.24 8.24 0 0 0 -3.58 3.6 1.67 1.67 0 0 0 1.37 2.45 1.55 1.55 0 0 0 1.38-.83 5 5 0 0 1 2.34-2.2 1.7 1.7 0 0 0 .97-1.52z" fill="#b62a53"/><path d="m33.61 36.75a8.31 8.31 0 0 0 -3.87-3.75 1.69 1.69 0 1 0 -1.44 3.05 5.09 5.09 0 0 1 2.56 2.31 1.55 1.55 0 0 0 1.38.83 1.67 1.67 0 0 0 1.37-2.44z" fill="#b62a53"/><path d="m32.24 40.2a2.56 2.56 0 0 1 -2.24-1.37c-.66-1.22-2.24-2.83-8.62-2.83s-8 1.62-8.59 2.85a2.56 2.56 0 0 1 -2.27 1.37 2.67 2.67 0 0 1 -2.26-3.9c2.89-5.74 10.06-5.74 13.12-5.74s10.23 0 13.12 5.74a2.67 2.67 0 0 1 -2.26 3.88zm-10.86-6.2c5.69 0 9 1.25 10.37 3.93a.55.55 0 0 0 .49.29.68.68 0 0 0 .48-1c-2.34-4.64-8.65-4.64-11.34-4.64s-9 0-11.34 4.64a.69.69 0 0 0 .48 1 .55.55 0 0 0 .49-.29c1.39-2.7 4.68-3.93 10.37-3.93z" fill="#302d3d"/></g></svg>