<svg id="Layer_1" enable-background="new 0 0 512 512" height="512" viewBox="0 0 512 512" width="512" xmlns="http://www.w3.org/2000/svg"><g><g clip-rule="evenodd" fill-rule="evenodd"><path d="m321.7 337.1 98.1 38.1c18.9 7.3 30.8 25.3 30.8 46.5v59.5c0 13.6-10.6 24.8-23.6 24.8h-342c-13 0-23.6-11.1-23.6-24.8v-59.5c0-21.1 11.9-39.2 30.8-46.5l98.1-38.1c25.4-9.9 44.4 6.8 65.7 19.8 21.3-13 40.3-29.7 65.7-19.8z" fill="#eef1f3"/><path d="m302.9 506c11.3-43.4 28.3-115 37.2-161.8l-18.4-7.1c-25.4-9.9-44.4 6.8-65.7 19.8-21.3-13-40.3-29.7-65.7-19.8l-18.4 7.1c8.9 46.7 25.8 118.4 37.2 161.8z" fill="#60b7ff"/><path d="m103.9 440.8c0-21.1 11.9-39.2 30.8-46.5l43.9-17.1c-2.5-11.8-4.8-23-6.7-33.1l-79.7 31c-18.9 7.3-30.8 25.3-30.8 46.5v59.5c0 13.7 10.6 24.9 23.6 24.9h19v-65.2z" fill="#dee7ed"/><path d="m171.9 344.2c1.9 10.1 4.2 21.3 6.7 33.1l17-6.6 14.2-5.5c-6.3-8.6-10.4-19-11.1-30.5-2.7.5-5.5 1.3-8.4 2.4z" fill="#56a5e6"/><path d="m256 297.1 95.7-1.9c28.2-.5 55.2-21.8 51.3-47.9l-18.7-122.7c-24.1-158.2-232.6-158.2-256.7 0l-18.6 122.8c-4 26.1 23 47.3 51.3 47.9z" fill="#323e4b"/><path d="m198.6 241.1h114.7v90.2c0 1.1 0 2.3-.1 3.4 2.7.5 5.6 1.3 8.4 2.4l6 2.3c-4.1 35.9-34.7 64.1-71.7 64.1s-67.6-28.1-71.7-64.1l6-2.3c2.9-1.1 5.7-1.9 8.4-2.4-.1-1.1-.1-2.2-.1-3.4v-90.2z" fill="#fbbd80"/><path d="m130.4 160.1h251.2c11 0 20 9 20 20 0 11-9 20-20 20h-251.2c-11 0-20-9-20-20 0-11 9-20 20-20z" fill="#fbbd80"/><path d="m256 309.4c-12 0-23.8-2.1-35.1-6.2-8-2.9-15.4-6.6-22.3-11.1v-51.1h114.7v51.1c-6.9 4.5-14.3 8.2-22.3 11.1-11.2 4.1-23 6.2-35 6.2z" fill="#e2aa73"/><path d="m256 296.9c58 0 105.4-55.9 105.4-124.2v-12.7h-.2c-8.5 0-15.4-6.9-15.4-15.4v-8.1c0-2.2-1.8-4-4-4h-8.6c-33.9 0-62.4-20.9-74.1-50.3-.6-1.6-2.1-2.5-3.8-2.5s-3.1 1-3.7 2.6c-12.1 32.7-43.7 56.2-80.5 56.2h-1.1c-2.2 0-4 1.8-4 4v2.1c0 8.4-6.9 15.4-15.4 15.4v12.7c0 68.4 47.4 124.2 105.4 124.2z" fill="#ffd18d"/><path d="m181.9 200c-6.3-21.6-5.6-39.7-5.6-61.6-1.7.1-3.5.2-5.2.2h-1.1c-2.2 0-4 1.8-4 4v2.1c0 8.4-6.9 15.4-15.4 15.4 0 13.8-.1 26.1 2.6 39.9 6.2 32 22.9 59.4 45.6 76.8 16.6 12.7 36.3 20.1 57.3 20.1 19.1 0 37.1-6.1 52.6-16.7-58.6 18.3-110.8-25-126.8-80.2z" fill="#fbbd80"/><path d="m127.7 419.5c-4 0-7.7 1.6-10.3 4.3-2.6 2.6-4.3 6.3-4.3 10.3 0 4.1 1.6 7.7 4.3 10.3 2.6 2.6 6.3 4.3 10.3 4.3 4.1 0 7.7-1.6 10.3-4.3 2.6-2.6 4.3-6.3 4.3-10.3s-1.6-7.7-4.3-10.3c-2.6-2.7-6.3-4.3-10.3-4.3z" fill="#60b7ff"/></g><path d="m148.4 206.1h-17.9c-3.1 0-6-.5-8.8-1.5l-6.7 43.7c-.2 1.4-.3 2.6-.3 3.7-.2 9 4.1 17.2 11 23.7 7.2 6.7 17.2 11.5 27.8 13.1 2.4.4 4.7.6 6.9.6l32.3.7v-10.2c-3.5-2.8-6.7-5.8-9.9-9.1-16.5-16.9-28.7-39.3-34.4-64.7zm-18-12h15.7c-.2-1.1-.3-2.2-.4-3.3-.4-2.9-.6-5.9-.8-9s-.3-6.1-.3-9v-6.7h-14.2c-3.8 0-7.3 1.6-9.9 4.1-2.5 2.6-4.1 6-4.1 9.9s1.6 7.3 4.1 9.9c2.6 2.5 6.1 4.1 9.9 4.1zm-19.7 2.9c-3.9-4.5-6.2-10.4-6.2-16.8 0-7.1 2.9-13.6 7.6-18.3 1.5-1.5 3.1-2.7 4.9-3.8 0-.2 0-.4.1-.6l4.8-33.5c7.6-53 35.5-89.1 70.8-108.1 19.3-10.6 41.1-15.9 62.9-15.9s43.5 5.2 63.2 15.7c35.5 19 63.7 55 71.5 108.2l5 34.2c1.7 1.1 3.3 2.3 4.7 3.7 4.7 4.7 7.6 11.2 7.6 18.3 0 6.3-2.3 12.1-6.1 16.6l7.4 49.5v.2c.3 1.6.4 3.4.4 5.2.3 12.7-5.6 24-14.9 32.7-9 8.4-21.2 14.2-34.2 16.2-2.7.4-5.5.7-8.5.7l-32.5.7v8.3h20.7c10.6 0 20.3 4.4 27.3 11.4s11.3 16.6 11.3 27.3v4l43.2 16.8c10.6 4.1 19.3 11.3 25.3 20.3s9.3 20 9.3 31.7v59.5c0 8.4-3.3 16.1-8.6 21.7-5.4 5.6-12.8 9.1-20.9 9.1h-341.8c-8.2 0-15.6-3.5-20.9-9.1s-8.6-13.2-8.6-21.7v-59.5c0-11.8 3.3-22.7 9.3-31.7 6-9.1 14.7-16.2 25.3-20.3l31.6-12.3v-8.5c0-10.6 4.3-20.3 11.3-27.3s16.7-11.4 27.3-11.4h32.3v-8.3l-32.5-.7c-2.9-.1-5.8-.3-8.5-.7-13-2-25.2-7.8-34.2-16.2-9.3-8.6-15.1-20-14.9-32.7 0-1.8.2-3.5.4-5.2zm18.9-42.8h.9 20.2.4c2.4-.1 4.6-1.2 6.2-2.8 1.7-1.7 2.7-4 2.7-6.6v-2.1c0-2.5.9-4.8 2.5-6.5.1-.2.3-.3.5-.5 1.8-1.8 4.3-2.9 7.1-2.9h1.2c16.9 0 32.6-5.3 45.5-14.3 13.2-9.3 23.5-22.5 29.2-38 1.1-2.9 3.2-4.8 5.7-5.8 1.1-.5 2.4-.7 3.6-.7s2.5.2 3.6.6c2.5.9 4.6 2.8 5.8 5.7 5.5 13.9 15.1 25.7 27.2 33.9 11.7 8 25.9 12.6 41.3 12.6h8.6c2.7 0 5.2 1.1 7.1 2.9 1.8 1.8 2.9 4.3 2.9 7.1v8.1c0 2.6 1 4.9 2.7 6.6s4.1 2.7 6.8 2.7h20.2 1l-4.2-28.6c-7.1-49-32.9-82.1-65.2-99.4-17.8-9.5-37.7-14.3-57.5-14.3s-39.6 4.8-57.4 14.4c-32.1 17.3-57.6 50.4-64.5 99.2zm237.1 261.8v-55l-22.1-8.6c-4 20.5-9.3 44.7-14.9 69-6.4 28-13.3 56.1-19 78.5h116.3c4.8 0 9.1-2.1 12.3-5.4 3.2-3.4 5.2-8.2 5.2-13.4v-59.5c0-9.4-2.6-18-7.3-25.1s-11.4-12.6-19.6-15.8l-38.9-15.1v50.4c7.1 1.2 13.4 4.7 18.3 9.6 6.2 6.2 10.1 14.9 10.1 24.3v20.8c0 3.3-2.7 6-6 6s-6-2.7-6-6v-20.8c0-6.2-2.5-11.8-6.6-15.8-4.1-4.1-9.7-6.6-15.8-6.6-6.2 0-11.8 2.5-15.8 6.6-4.1 4.1-6.6 9.7-6.6 15.8v20.8c0 3.3-2.7 6-6 6s-6-2.7-6-6v-20.8c0-9.5 3.9-18.1 10.1-24.3 4.9-5 11.2-8.4 18.3-9.6zm0-67.8c-.2-7.1-3.1-13.5-7.8-18.1-4.8-4.8-11.5-7.8-18.8-7.8h-20.7v7.8c3 .9 5.8 2 8.6 3.1 1.5.6.7.3 1.9.7l12.2 4.7c.2.1.3.1.5.2zm-174-26h-32.3c-7.3 0-14 3-18.8 7.8s-7.8 11.5-7.8 18.8v3.9l35.8-13.9c.2-.1.3-.1.5-.2l11.8-4.6c.2-.1.4-.2.7-.3.6-.2.3-.1 1.6-.6 2.9-1.1 5.6-2.2 8.6-3.1v-7.8zm-59 43.3v46.5c3.9 1.1 7.4 3.1 10.1 5.9 4.1 4.1 6.7 9.8 6.7 16.1s-2.6 12-6.7 16.2-9.8 6.7-16.2 6.7c-6.3 0-12-2.6-16.1-6.7s-6.7-9.8-6.7-16.2c0-6.3 2.6-12 6.7-16.1 2.8-2.8 6.2-4.8 10.1-5.9v-41.8l-27.3 10.6c-8.2 3.2-15 8.7-19.6 15.8-4.7 7.1-7.3 15.7-7.3 25.1v59.5c0 5.2 2 10 5.2 13.4 3.2 3.3 7.5 5.4 12.3 5.4h116.4c-1-4-2-7.8-2.9-11.5-1.4-5.7-3.2-12.8-5.2-21.1-.8-3.2 1.2-6.4 4.4-7.2s6.5 1.2 7.2 4.4c1.5 6.3 3.3 13.4 5.2 21.1 1.4 5.4 2.6 10.2 3.7 14.4h84.5c5.8-22.6 13-51.8 19.7-81.2 5.8-25.1 11.2-50.1 15.3-70.7l-.9-.3c-3.5 16.5-12.3 31-24.4 41.9-13.8 12.4-32.1 19.9-51.9 19.9-19.9 0-38.1-7.5-52-19.9-12.2-10.9-20.9-25.4-24.4-41.9l-.9.3c2 10 4.3 21.2 6.8 32.9 3.2 14.9 6.7 30.6 10.3 46 .7 3.2-1.3 6.4-4.5 7.2-3.2.7-6.4-1.3-7.2-4.5-3.7-15.6-7.2-31.4-10.4-46.2-2.4-10.9-4.5-21.3-6.4-31zm175.7-92.9c.1-.1.3-.3.5-.3 5.5-4.3 10.5-9.2 15.1-14.6 19.5-22.9 30.4-54.5 30.4-84.8v-7.5c-3.5-1-6.7-2.9-9.2-5.4-3.9-3.9-6.3-9.2-6.3-15.1v-6h-6.6c-17.9 0-34.4-5.4-48-14.7-12.8-8.7-23.1-20.8-29.7-35-6.8 15.8-18 29.4-32 39.1-14.7 10.2-32.4 16.3-51.5 16.5v.1c0 5.9-2.4 11.2-6.3 15.1-2.5 2.5-5.6 4.4-9.1 5.4v7.5c0 2.9.1 5.7.2 8.3.2 2.7.4 5.5.8 8.3 3.5 28.9 15.8 54.6 33.7 72.9 3.3 3.4 6.9 6.6 10.6 9.5.3.2.5.4.7.6 15.4 11.7 33.8 18.6 53.3 18.6 20.6-.1 38.7-7.1 53.4-18.5zm9.9 7.4v9.9l32.3-.7c2.2-.1 4.5-.3 6.9-.6 10.6-1.6 20.6-6.3 27.8-13.1 6.9-6.4 11.2-14.7 11-23.7 0-1.1-.1-2.3-.3-3.7v-.2l-6.5-43.6c-2.8 1-5.8 1.6-8.9 1.6h-18.1c-5.1 21.8-15.1 42.6-29.3 59.3-4.6 5.5-9.5 10.4-14.9 14.8zm-12 51.4v-42.8c-14.8 9.1-32.1 14.4-51.4 14.4-18.5 0-35.9-5.3-51.3-14.7v43.1 1.5c0 .2 0 .7.1 1.2.4 3.1-1.8 6-4.9 6.5-3 .5-5.9 1.5-8.8 2.7 2.7 14.7 10.3 27.8 21.1 37.4 11.7 10.4 27.1 16.8 44 16.8s32.3-6.4 44-16.8c10.7-9.6 18.4-22.7 21.1-37.4-2.9-1.1-5.8-2.1-8.8-2.7-3-.5-5.1-3.2-5-6.2 0-.7.1-1.2.1-1.5v-1.5zm74.3-165.2h-14.2v6.7c0 7.1-.6 14.2-1.6 21.3h15.8c3.8 0 7.3-1.6 9.9-4.1 2.5-2.5 4.1-6 4.1-9.9s-1.6-7.3-4.1-9.9c-2.6-2.5-6.1-4.1-9.9-4.1zm-246.2 260.2c-2-2-4.7-3.2-7.7-3.2s-5.7 1.2-7.7 3.2-3.2 4.7-3.2 7.7 1.2 5.7 3.2 7.7 4.7 3.2 7.7 3.2 5.7-1.2 7.7-3.2 3.1-4.7 3.1-7.7-1.2-5.7-3.1-7.7z"/></g></svg>