<svg height="512" viewBox="0 0 64 64" width="512" xmlns="http://www.w3.org/2000/svg"><g id="_17-Conversation" data-name="17-Conversation"><path d="m61 1h-27a2 2 0 0 0 -2 2v23a2 2 0 0 0 2 2h14v5l5-5h8a2 2 0 0 0 2-2v-23a2 2 0 0 0 -2-2z" fill="#f5cd62"/><path d="m54 8h-4v-4h-4v4h-4v4h4v4h4v-4h4z" fill="#ff475a"/><g fill="#f03049"><path d="m42 8h2v4h-2z"/><path d="m46 4h2v4h-2z"/><path d="m46 12h2v4h-2z"/></g><path d="m34 26v-23a2 2 0 0 1 2-2h-2a2 2 0 0 0 -2 2v23a2 2 0 0 0 2 2h2a2 2 0 0 1 -2-2z" fill="#ffb13b"/><path d="m50 28h-2v5l2-2z" fill="#ffb13b"/><path d="m31 15h-28a2 2 0 0 0 -2 2v18a2 2 0 0 0 2 2h7l4 4v-4h17a2 2 0 0 0 2-2v-18a2 2 0 0 0 -2-2z" fill="#95e8c8"/><path d="m5 35a2 2 0 0 1 -2-2v-18a2 2 0 0 0 -2 2v18a2 2 0 0 0 2 2h7l4 4v-4l-2-2z" fill="#06ccab"/><path d="m16 37h15a2 2 0 0 0 2-2h-17z" fill="#06ccab"/><path d="m24.07 41.31 2.43 10.69h-2.5-3v-9.87z" fill="#9196aa"/><path d="m43 42.13v9.87h-3-2.5l2.43-10.69z" fill="#9196aa"/><path d="m26.5 52 1.99 8.78-6.49-2.78 2-6z" fill="#bec3d2"/><path d="m40 52 2 6-6.49 2.78 1.99-8.78z" fill="#bec3d2"/><path d="m28.5 60.78.5 2.22h-17c0-15 2-19 2-19l7-1.87v9.87h3l-2 6 6.49 2.78z" fill="#e9edf5"/><path d="m22 60 6.49 2.78h.01l.05.22h.45l-.5-2.22h-.01l-5.907-2.53z" fill="#dce1eb"/><path d="m21 54h2.333l.667-2h-3z" fill="#dce1eb"/><path d="m14 46 7-1.87v-2l-7 1.87s-2 4-2 19h.014c.168-13.353 1.986-17 1.986-17z" fill="#dce1eb"/><path d="m52 63h-17l.5-2.22h.01l6.49-2.78-2-6h3v-9.87l7 1.87s2 4 2 19z" fill="#e9edf5"/><path d="m51.986 63h.014c0-15-2-19-2-19l-7-1.87v2l7 1.87s1.818 3.647 1.986 17z" fill="#dce1eb"/><path d="m35.5 62.78h.01l6.49-2.78-.583-1.75-5.907 2.53h-.01l-.5 2.22h.45z" fill="#dce1eb"/><path d="m43 54v-2h-3l.667 2z" fill="#dce1eb"/><path d="m34 45-1 2h-2l-1-2 2-2z" fill="#ff475a"/><path d="m33 47 2 16h-6l2-16z" fill="#ff7d81"/><path d="m32 43-2 2-3-3v-1.47l2-.53z" fill="#06ccab"/><path d="m37 40.53v1.47l-3 3-2-2 3-3z" fill="#06ccab"/><path d="m42 23v4a2.006 2.006 0 0 1 -2 2h-1v-6z" fill="#faa68e"/><path d="m41 20v3h-9a4 4 0 0 0 4-4 3.906 3.906 0 0 0 -.12-.97l.12-.03h4.78a9.356 9.356 0 0 1 .22 2z" fill="#9196aa"/><path d="m38 19a3.906 3.906 0 0 0 -.12-.97l.12-.03h-2l-.12.03a3.906 3.906 0 0 1 .12.97 4 4 0 0 1 -4 4h2a4 4 0 0 0 4-4z" fill="#707789"/><path d="m40.78 18h-4.78l-.12.03a4 4 0 0 0 -7.76 0l-.12-.03h-4.78a9.01 9.01 0 0 1 17.56 0z" fill="#966857"/><path d="m28 18 .12.03c0-.01.008-.02.01-.03z" fill="#8d5c4d"/><path d="m33.009 11.06a8.972 8.972 0 0 0 -9.789 6.94h2a9.008 9.008 0 0 1 7.789-6.94z" fill="#8d5c4d"/><path d="m34 15a3.977 3.977 0 0 0 -1 .141 3.994 3.994 0 0 1 2.88 2.889l.12-.03h1.87a4 4 0 0 0 -3.87-3z" fill="#8d5c4d"/><path d="m39.93 41.31-2.43 10.69-1.99 8.78h-.01l-.5 2.22-2-16 1-2 3-3v-1.47z" fill="#95e8c8"/><path d="m34 47 3-3v-1.47l2.501.666.429-1.886-2.93-.78v1.47l-3 3-1 2 .2 1.6z" fill="#82d9b6"/><path d="m35 36.32a6.958 6.958 0 0 1 -6 0 6.97 6.97 0 0 1 -4-6.32v-7h14v7a6.97 6.97 0 0 1 -4 6.32z" fill="#ffcdbe"/><path d="m32 23h-7v2h7 7v-2z" fill="#ffbeaa"/><path d="m35.88 18.03a3.906 3.906 0 0 1 .12.97 4 4 0 0 1 -8 0 3.906 3.906 0 0 1 .12-.97 4 4 0 0 1 7.76 0z" fill="#f2f6fc"/><path d="m30 19a3.906 3.906 0 0 1 .12-.97 3.994 3.994 0 0 1 2.88-2.889 3.941 3.941 0 0 0 -4.88 2.889 3.906 3.906 0 0 0 -.12.97 3.953 3.953 0 0 0 5 3.859 3.99 3.99 0 0 1 -3-3.859z" fill="#dce1eb"/><path d="m35 36.32v3.68l-3 3-3-3v-3.68a6.958 6.958 0 0 0 6 0z" fill="#faa68e"/><path d="m32 37a6.844 6.844 0 0 1 -3-.68v2a6.958 6.958 0 0 0 6 0v-2a6.844 6.844 0 0 1 -3 .68z" fill="#e09380"/><path d="m32 23h-9v-3a9.356 9.356 0 0 1 .22-2h4.78l.12.03a3.906 3.906 0 0 0 -.12.97 4 4 0 0 0 4 4z" fill="#9196aa"/><path d="m25.22 18h-2a9.356 9.356 0 0 0 -.22 2v3h2v-3a9.356 9.356 0 0 1 .22-2z" fill="#707789"/><path d="m30 45 1 2-2 16-.5-2.22h-.01l-1.99-8.78-2.43-10.69 2.93-.78v1.47z" fill="#95e8c8"/><path d="m27 42.53v1.47l3 3 .8 1.6.2-1.6-1-2-3-3v-1.47l-2.93.78.429 1.886z" fill="#82d9b6"/><path d="m25 23v6h-1a2.006 2.006 0 0 1 -2-2v-4z" fill="#faa68e"/><path d="m31 47-2 16h3v-16z" fill="#ff636e"/><path d="m32 38a8.009 8.009 0 0 1 -8-8v-7a1 1 0 0 1 1-1h14a1 1 0 0 1 1 1v7a8.009 8.009 0 0 1 -8 8zm-6-14v6a6 6 0 0 0 12 0v-6z"/><path d="m40 30h-1v-2h1a1 1 0 0 0 1-1v-3h-2v-2h3a1 1 0 0 1 1 1v4a3 3 0 0 1 -3 3z"/><path d="m25 30h-1a3 3 0 0 1 -3-3v-4a1 1 0 0 1 1-1h3v2h-2v3a1 1 0 0 0 1 1h1z"/><path d="m32 24a5 5 0 1 1 5-5 5.006 5.006 0 0 1 -5 5zm0-8a3 3 0 1 0 3 3 3 3 0 0 0 -3-3z"/><path d="m31 18h2v2h-2z"/><path d="m42 23h-2v-3a8 8 0 0 0 -16 0v3h-2v-3a10 10 0 0 1 20 0z"/><path d="m23 17h5v2h-5z"/><path d="m36 17h5v2h-5z"/><path d="m52 64h-40a1 1 0 0 1 -1-1c0-15.062 2.02-19.275 2.105-19.447a1 1 0 0 1 .637-.519l14.258-3.803v-3.231h2v4a1 1 0 0 1 -.742.966l-14.51 3.87c-.433 1.272-1.675 5.901-1.748 17.164h38c-.07-11.247-1.31-15.88-1.746-17.165l-14.512-3.869a1 1 0 0 1 -.742-.966v-4h2v3.231l14.258 3.8a1 1 0 0 1 .637.519c.085.175 2.105 4.388 2.105 19.45a1 1 0 0 1 -1 1z"/><path d="m32 44a1 1 0 0 1 -.707-.293l-3-3 1.414-1.414 2.293 2.293 2.293-2.293 1.414 1.414-3 3a1 1 0 0 1 -.707.293z"/><path d="m34 46a1 1 0 0 1 -.707-.293l-1.293-1.293-1.293 1.293a1 1 0 0 1 -1.414 0l-3-3a1 1 0 0 1 -.293-.707v-2h2v1.586l2 2 1.293-1.293a1 1 0 0 1 1.414 0l1.293 1.293 2-2v-1.586h2v2a1 1 0 0 1 -.293.707l-3 3a1 1 0 0 1 -.707.293z"/><path d="m25.5 40.719h2.001v22.561h-2.001z" transform="matrix(.975 -.222 .222 .975 -10.865 7.166)"/><path d="m27 53h-6a1 1 0 0 1 -1-1v-10h2v9h5z"/><path d="m28.606 61.919-7-3a1 1 0 0 1 -.554-1.235l2-6 1.9.632-1.709 5.127 6.155 2.638z"/><path d="m35 64h-.05a1 1 0 0 1 -.942-.875l-2-16 1.984-.248 1.294 10.353 3.738-16.451 1.952.444-5 22a1 1 0 0 1 -.976.777z"/><path d="m43 53h-6v-2h5v-9h2v10a1 1 0 0 1 -1 1z"/><path d="m35.394 61.919-.788-1.838 6.155-2.638-1.709-5.127 1.9-.632 2 6a1 1 0 0 1 -.554 1.235z"/><path d="m33 48h-2a1 1 0 0 1 -.895-.553l-1-2 1.79-.894.723 1.447h.764l.723-1.447 1.79.894-1 2a1 1 0 0 1 -.895.553z"/><path d="m21.938 54h16.125v2h-16.125z" transform="matrix(.124 -.992 .992 .124 -28.296 77.946)"/><path d="m48 34a.987.987 0 0 1 -.383-.076 1 1 0 0 1 -.617-.924v-4h-3v-2h4a1 1 0 0 1 1 1v2.586l3.293-3.293a1 1 0 0 1 .707-.293h8a1 1 0 0 0 1-1v-23a1 1 0 0 0 -1-1h-27a1 1 0 0 0 -1 1v8h-2v-8a3 3 0 0 1 3-3h27a3 3 0 0 1 3 3v23a3 3 0 0 1 -3 3h-7.586l-4.707 4.707a1 1 0 0 1 -.707.293z"/><path d="m50 17h-4a1 1 0 0 1 -1-1v-3h-3a1 1 0 0 1 -1-1v-4a1 1 0 0 1 1-1h3v-3a1 1 0 0 1 1-1h4a1 1 0 0 1 1 1v3h3a1 1 0 0 1 1 1v4a1 1 0 0 1 -1 1h-3v3a1 1 0 0 1 -1 1zm-3-2h2v-3a1 1 0 0 1 1-1h3v-2h-3a1 1 0 0 1 -1-1v-3h-2v3a1 1 0 0 1 -1 1h-3v2h3a1 1 0 0 1 1 1z"/><path d="m44 19h16v2h-16z"/><path d="m45 23h15v2h-15z"/><path d="m14 42a1 1 0 0 1 -.707-.293l-3.707-3.707h-6.586a3 3 0 0 1 -3-3v-18a3 3 0 0 1 3-3h19v2h-19a1 1 0 0 0 -1 1v18a1 1 0 0 0 1 1h7a1 1 0 0 1 .707.293l2.293 2.293v-1.586a1 1 0 0 1 1-1h11v2h-10v3a1 1 0 0 1 -.617.924.987.987 0 0 1 -.383.076z"/><path d="m4 21h2v2h-2z"/><path d="m8 21h11v2h-11z"/><path d="m4 25h15v2h-15z"/><path d="m4 29h15v2h-15z"/></g></svg>