<svg id="Layer_1" enable-background="new 0 0 64 64" height="512" viewBox="0 0 64 64" width="512" xmlns="http://www.w3.org/2000/svg"><g><g><path d="m39.5 57.5h-15l2-10h11z" fill="#fff"/></g><g><path d="m39.5 57.5h-13l2-10h9z" fill="#fa6e34"/></g><g><path d="m36.5 57.5h-10l2-10h6z" fill="#fa8840"/></g><g><path d="m19.5 57.5h25v2h-25z" fill="#fff"/></g><g><path d="m21.5 57.5h23v2h-23z" fill="#fa6e34"/></g><g><path d="m1.5 37.5h61v10h-61z" fill="#fff"/></g><g><path d="m3.5 37.5h59v10h-59z" fill="#fa6e34"/></g><g><path d="m3.5 37.5h56v10h-56z" fill="#fa8840"/></g><g><path d="m1.5 4.5h61v33h-61z" fill="#e0e4ff"/></g><g><path d="m1.5 4.5h58v33h-58z" fill="#fff"/></g><g><path d="m32.5 16.5h3v5h-3z" fill="#2baefe"/></g><g><path d="m38.5 10.5h3v11h-3z" fill="#2baefe"/></g><g><path d="m44.5 13.5h3v8h-3z" fill="#2baefe"/></g><g><path d="m27.5 21.5c0 5.52-4.48 10-10 10-.5 0-1-.04-1.48-.12-.01.01-.02.01-.04 0-4.8-.73-8.48-4.88-8.48-9.88 0-4.47 2.94-8.26 7-9.54.95-.3 1.95-.46 3-.46v10z" fill="#2baefe"/></g><g><path d="m24.5 21.5c0 5-3.68 9.15-8.48 9.88-.01.01-.02.01-.04 0-4.8-.73-8.48-4.88-8.48-9.88 0-4.47 2.94-8.26 7-9.54v9.54z" fill="#3cf"/></g><g><path d="m28.5 19.5h-9v-9c4.97 0 9 4.03 9 9z" fill="#ffb612"/></g><g><path d="m25.5 19.5h-6v-8.48c3.5 1.23 6 4.56 6 8.48z" fill="#fdcc32"/></g><g><path d="m54.5 10.5-2 3h4z" fill="#fdcc32"/></g><g><path d="m38.5 10.5h1.5v11h-1.5z" fill="#3cf"/></g><g><path d="m44.5 13.5h1.5v8h-1.5z" fill="#3cf"/></g><g><path d="m32.5 16.5h1.5v5h-1.5z" fill="#3cf"/></g><g><g><path d="m39.5 58h-15c-.15 0-.292-.067-.387-.183s-.133-.269-.104-.415l2-10c.048-.234.253-.402.491-.402h11c.238 0 .443.168.49.402l2 10c.029.146-.009.299-.104.415-.094.116-.236.183-.386.183zm-14.39-1h13.78l-1.8-9h-10.18z" fill="#1c225c"/></g><g><path d="m44.5 60h-25c-.276 0-.5-.224-.5-.5v-2c0-.276.224-.5.5-.5h25c.276 0 .5.224.5.5v2c0 .276-.224.5-.5.5zm-24.5-1h24v-1h-24z" fill="#1c225c"/></g><g><path d="m62.5 48h-61c-.276 0-.5-.224-.5-.5s.224-.5.5-.5h60.5v-9h-60v.5c0 .276-.224.5-.5.5s-.5-.224-.5-.5v-1c0-.276.224-.5.5-.5h61c.276 0 .5.224.5.5v10c0 .276-.224.5-.5.5z" fill="#1c225c"/></g><g><path d="m62.5 38h-61c-.276 0-.5-.224-.5-.5v-33c0-.276.224-.5.5-.5h61c.276 0 .5.224.5.5s-.224.5-.5.5h-60.5v32h60v-23.5c0-.276.224-.5.5-.5s.5.224.5.5v24c0 .276-.224.5-.5.5z" fill="#1c225c"/></g><g><path d="m62.5 11c-.276 0-.5-.224-.5-.5v-2c0-.276.224-.5.5-.5s.5.224.5.5v2c0 .276-.224.5-.5.5z" fill="#1c225c"/></g><g><path d="m1.5 44c-.276 0-.5-.224-.5-.5v-2c0-.276.224-.5.5-.5s.5.224.5.5v2c0 .276-.224.5-.5.5z" fill="#1c225c"/></g><g><path d="m35.5 22h-3c-.276 0-.5-.224-.5-.5v-5c0-.276.224-.5.5-.5h3c.276 0 .5.224.5.5v5c0 .276-.224.5-.5.5zm-2.5-1h2v-4h-2z" fill="#1c225c"/></g><g><path d="m41.5 22h-3c-.276 0-.5-.224-.5-.5v-11c0-.276.224-.5.5-.5h3c.276 0 .5.224.5.5v11c0 .276-.224.5-.5.5zm-2.5-1h2v-10h-2z" fill="#1c225c"/></g><g><path d="m47.5 22h-3c-.276 0-.5-.224-.5-.5v-8c0-.276.224-.5.5-.5h3c.276 0 .5.224.5.5v8c0 .276-.224.5-.5.5zm-2.5-1h2v-7h-2z" fill="#1c225c"/></g><g><path d="m47.5 24h-15c-.276 0-.5-.224-.5-.5s.224-.5.5-.5h15c.276 0 .5.224.5.5s-.224.5-.5.5z" fill="#1c225c"/></g><g><path d="m17.5 32c-5.79 0-10.5-4.71-10.5-10.5s4.71-10.5 10.5-10.5c.276 0 .5.224.5.5v9.5h9.5c.276 0 .5.224.5.5 0 5.79-4.71 10.5-10.5 10.5zm-.5-19.987c-5.007.262-9 4.417-9 9.487 0 5.238 4.262 9.5 9.5 9.5 5.07 0 9.226-3.993 9.487-9h-9.487c-.276 0-.5-.224-.5-.5z" fill="#1c225c"/></g><g><path d="m28.5 20h-9c-.276 0-.5-.224-.5-.5v-9c0-.276.224-.5.5-.5 5.238 0 9.5 4.262 9.5 9.5 0 .276-.224.5-.5.5zm-8.5-1h7.985c-.25-4.289-3.696-7.735-7.985-7.985z" fill="#1c225c"/></g><g><path d="m56.5 29h-18c-.276 0-.5-.224-.5-.5s.224-.5.5-.5h18c.276 0 .5.224.5.5s-.224.5-.5.5z" fill="#1c225c"/></g><g><path d="m56.5 32h-18c-.276 0-.5-.224-.5-.5s.224-.5.5-.5h18c.276 0 .5.224.5.5s-.224.5-.5.5z" fill="#1c225c"/></g><g><path d="m35.5 32h-3c-.276 0-.5-.224-.5-.5s.224-.5.5-.5h3c.276 0 .5.224.5.5s-.224.5-.5.5z" fill="#1c225c"/></g><g><path d="m35.5 29h-3c-.276 0-.5-.224-.5-.5s.224-.5.5-.5h3c.276 0 .5.224.5.5s-.224.5-.5.5z" fill="#1c225c"/></g><g><path d="m54.5 24c-.276 0-.5-.224-.5-.5v-10c0-.276.224-.5.5-.5s.5.224.5.5v10c0 .276-.224.5-.5.5z" fill="#1c225c"/></g><g><path d="m56.5 14h-4c-.185 0-.354-.102-.441-.264-.087-.163-.077-.36.025-.514l2-3c.186-.277.646-.277.832 0l2 3c.102.153.112.351.025.514-.087.162-.256.264-.441.264zm-3.066-1h2.132l-1.066-1.599z" fill="#1c225c"/></g></g></g></svg>