<svg id="Layer_1" enable-background="new 0 0 128 128" height="512" viewBox="0 0 128 128" width="512" xmlns="http://www.w3.org/2000/svg"><g><path d="m107.695 34.021-19.388-20.388c-.188-.198-.45-.311-.725-.311h-33.801c-.046-.002-.089-.014-.135-.014h-2.633c-.069-1.451-1.262-2.613-2.729-2.613h-.168c-1.469 0-2.661 1.162-2.73 2.613h-9.087c-.069-1.451-1.262-2.613-2.73-2.613h-.169c-1.468 0-2.66 1.162-2.729 2.613h-2.633c-1.382 0-2.602.705-3.321 1.774-.434.64-.688 1.41-.688 2.24v99.982c0 2.206 1.794 4 4 4h75.941c2.206 0 4-1.794 4-4v-82.593c.001-.257-.098-.503-.275-.69z" fill="#e6e7e8"/><g><path d="m102.979 30.711v82.594c0 1.657-1.343 3-3 3h-75.941c-1.657 0-3-1.343-3-3v-99.982c0-1.657 1.343-3 3-3h59.553z" fill="#d4fbff"/><g><g><path d="m43.455 39.564v13.482h-13.482c.008-7.449 6.033-13.482 13.482-13.482z" fill="#fa759e"/><path d="m45.894 56.298v.008l-9.53 9.53c-2.439-2.439-3.952-5.806-3.952-9.53v-.008z" fill="#ffd7e5"/><path d="m45.894 56.298v.008l-9.53 9.53c2.439 2.439 5.806 3.952 9.53 3.952 7.448 0 13.49-6.034 13.49-13.482v-.008z" fill="#0089ef"/><path d="m55.432 46.768-9.53 9.53h-.008v-13.482c3.724 0 7.099 1.513 9.538 3.952z" fill="#6dc9f7"/></g><g><path d="m66.868 41.798c-.836 0-1.513.678-1.513 1.513 0 .836.678 1.513 1.513 1.513s1.513-.678 1.513-1.513c0-.836-.677-1.513-1.513-1.513z" fill="#6dc9f7"/><circle cx="66.868" cy="54.642" fill="#0089ef" r="1.513"/><path d="m66.868 58.852c-.836 0-1.513.678-1.513 1.513 0 .836.678 1.513 1.513 1.513s1.513-.678 1.513-1.513-.677-1.513-1.513-1.513z" fill="#ffd7e5"/><path d="m66.868 64.576c-.836 0-1.513.678-1.513 1.513 0 .836.678 1.513 1.513 1.513s1.513-.678 1.513-1.513-.677-1.513-1.513-1.513z" fill="#fa759e"/></g><g fill="#fa759e"><path d="m68.709 79.537c-1.113 0-2.016.903-2.016 2.016v18.363h4.032v-18.363c.001-1.114-.902-2.016-2.016-2.016z"/><path d="m74.631 82.713h-.328c-1.023 0-1.852.829-1.852 1.852v15.351h4.032v-15.351c.001-1.023-.829-1.852-1.852-1.852z"/><path d="m80.274 80.505h-.097c-1.087 0-1.968.881-1.968 1.968v17.444h4.032v-17.444c.001-1.087-.88-1.968-1.967-1.968z"/><path d="m86.227 84.164h-.487c-.979 0-1.773.794-1.773 1.773v13.98h4.033v-13.98c0-.98-.794-1.773-1.773-1.773z"/></g></g><path d="m102.97 30.711h-16.388c-1.657 0-3-1.343-3-3v-17.388z" fill="#6dc9f7"/><path d="m86.582 27.711v-14.234l-3-3.155v17.388c0 1.657 1.343 3 3 3h3c-1.656.001-3-1.342-3-2.999z" fill="#fff"/><path d="m73.793 22.043h-39.619c-1.762 0-3.191 1.429-3.191 3.191s1.429 3.191 3.191 3.191h39.618c1.762 0 3.191-1.429 3.191-3.191.001-1.762-1.428-3.191-3.19-3.191z" fill="#6dc9f7"/><g><g><g><path d="m49.645 10.308h-25.607c-1.657 0-3 1.343-3 3v19.442c0 1.657 1.343 3 3 3h25.607c1.657 0 3-1.343 3-3v-19.442c0-1.657-1.343-3-3-3z" fill="#fff"/><path d="m49.645 10.308h-25.607c-1.657 0-3 1.343-3 3v3.897h31.607v-3.897c0-1.657-1.343-3-3-3z" fill="#fa759e"/><g fill="#ffd7e5"><path d="m29.569 7.695h-.168c-.962 0-1.742.78-1.742 1.743v3.351c0 .962.78 1.742 1.742 1.742h.168c.962 0 1.742-.78 1.742-1.742v-3.351c0-.963-.78-1.743-1.742-1.743z"/><path d="m44.283 7.695h-.168c-.962 0-1.742.78-1.742 1.743v3.351c0 .962.78 1.742 1.742 1.742h.168c.962 0 1.742-.78 1.742-1.742v-3.351c0-.963-.78-1.743-1.742-1.743z"/></g></g></g><g fill="#3a2c60"><path d="m103.695 30.021-19.388-20.388c-.188-.198-.45-.311-.725-.311h-33.801c-.046-.002-.089-.014-.135-.014h-2.633c-.069-1.451-1.262-2.613-2.729-2.613h-.168c-1.469 0-2.661 1.162-2.73 2.613h-9.087c-.069-1.451-1.262-2.613-2.73-2.613h-.169c-1.468 0-2.66 1.162-2.729 2.613h-2.633c-1.382 0-2.602.705-3.321 1.774-.434.64-.688 1.41-.688 2.24v58.735c0 .553.447 1 1 1s1-.447 1-1v-35.87c.593.348 1.273.561 2.009.561h25.607c2.206 0 4-1.794 4-4v-15.543-3.896c0-.726-.209-1.399-.549-1.986h29.485v16.389c0 2.206 1.794 4 4 4h15.389v81.594c0 1.103-.897 2-2 2h-75.941c-1.103 0-2-.897-2-2v-23.248c0-.553-.447-1-1-1s-1 .447-1 1v23.247c0 2.206 1.794 4 4 4h75.941c2.206 0 4-1.794 4-4v-82.594c.001-.257-.098-.503-.275-.69zm-52.049-13.816h-29.608v-2.896c0-1.103.897-2 2-2h2.62v1.48c0 1.512 1.23 2.742 2.742 2.742h.168c1.513 0 2.743-1.23 2.743-2.742v-1.48h9.061v1.48c0 1.512 1.23 2.742 2.743 2.742h.168c1.512 0 2.742-1.23 2.742-2.742v-1.48h2.62c1.103 0 2 .897 2 2v2.896zm-8.274-6.767c0-.409.333-.742.743-.742h.168c.409 0 .742.333.742.742v3.352c0 .409-.333.742-.742.742h-.168c-.41 0-.743-.333-.743-.742zm-14.714 0c0-.409.333-.742.742-.742h.168c.41 0 .743.333.743.742v3.352c0 .409-.333.742-.743.742h-.168c-.409 0-.742-.333-.742-.742zm20.988 25.311h-25.608c-1.103 0-2-.897-2-2v-14.544h29.607v14.544c.001 1.103-.897 2-1.999 2zm34.936-7.038v-14.886l16.058 16.886h-14.058c-1.103 0-2-.898-2-2z"/><g><path d="m45.902 56.298h13.482c-.008-3.724-1.512-7.091-3.952-9.53z"/><path d="m72.206 44.312h18.891c.553 0 1-.447 1-1s-.447-1-1-1h-18.891c-.553 0-1 .447-1 1s.447 1 1 1z"/><path d="m72.206 49.919h18.891c.553 0 1-.447 1-1s-.447-1-1-1h-18.891c-.553 0-1 .447-1 1s.447 1 1 1z"/><circle cx="66.868" cy="48.918" r="1.513"/><path d="m72.206 55.643h18.891c.553 0 1-.447 1-1s-.447-1-1-1h-18.891c-.553 0-1 .447-1 1s.447 1 1 1z"/><path d="m72.206 61.366h18.891c.553 0 1-.447 1-1s-.447-1-1-1h-18.891c-.553 0-1 .447-1 1s.447 1 1 1z"/><path d="m72.206 67.09h18.891c.553 0 1-.447 1-1s-.447-1-1-1h-18.891c-.553 0-1 .447-1 1s.447 1 1 1z"/><path d="m54.012 102.313h-22.519c-.553 0-1 .447-1 1s.447 1 1 1h22.519c.553 0 1-.447 1-1s-.448-1-1-1z"/><path d="m54.012 94.537h-22.519c-.553 0-1 .447-1 1s.447 1 1 1h22.519c.553 0 1-.447 1-1s-.448-1-1-1z"/><path d="m54.012 86.762h-22.519c-.553 0-1 .447-1 1s.447 1 1 1h22.519c.553 0 1-.447 1-1s-.448-1-1-1z"/><path d="m92.864 102.313h-29.468v-24.76c0-.553-.447-1-1-1s-1 .447-1 1v25.76c0 .553.447 1 1 1h30.469c.553 0 1-.447 1-1s-.448-1-1.001-1z"/><path d="m67.866 76.31c-.297.466-.159 1.084.308 1.38l5.758 3.659c.297.188.669.206.981.052l5.215-2.595 5.268 3.827c.176.128.382.191.588.191.242 0 .484-.088.674-.262l2.795-2.551 1.433 1.5c.234.246.647.145.742-.181l1.658-5.665c.095-.326-.198-.633-.528-.552l-5.735 1.396c-.33.08-.449.488-.215.733l1.263 1.323-2.16 1.971-5.098-3.704c-.301-.22-.701-.252-1.033-.087l-5.253 2.613-5.281-3.356c-.466-.296-1.084-.158-1.38.308z"/><path d="m21.029 75.487c-.553 0-1 .447-1 1v9.07c0 .553.447 1 1 1s1-.447 1-1v-9.07c0-.552-.447-1-1-1z"/></g><path d="m32.101 26.557c-.209-.211-.466-.398-.771-.562.316-.266.56-.538.729-.817s.255-.614.255-1.005c0-.297-.059-.574-.176-.832s-.291-.484-.521-.68-.502-.345-.814-.448-.658-.155-1.037-.155c-.434 0-.826.062-1.178.185s-.646.286-.882.489-.416.417-.539.642-.185.438-.185.642c0 .211.065.38.196.507s.274.19.431.19c.133 0 .25-.023.352-.07s.172-.111.211-.193c.066-.152.14-.314.22-.486s.165-.312.255-.422.212-.197.366-.264.351-.1.589-.1c.352 0 .631.108.838.325s.311.476.311.776c0 .395-.13.697-.39.908s-.569.316-.929.316h-.24c-.277 0-.486.058-.627.173s-.211.267-.211.454c0 .191.059.341.176.448s.283.161.498.161c.047 0 .152-.008.316-.023s.285-.023.363-.023c.445 0 .793.13 1.043.39s.375.618.375 1.075c0 .309-.073.58-.22.814s-.332.411-.557.53-.458.179-.7.179c-.422 0-.749-.132-.981-.396s-.45-.667-.653-1.21c-.031-.09-.098-.167-.199-.231s-.207-.097-.316-.097c-.219 0-.401.069-.548.208s-.22.321-.22.548c0 .176.062.398.185.668s.305.53.545.782.546.462.917.63.791.252 1.26.252c.461 0 .882-.073 1.263-.22s.71-.35.987-.609.487-.556.63-.888.214-.676.214-1.031c0-.297-.053-.573-.158-.829s-.264-.49-.473-.701z"/><path d="m39.22 25.909c-.236-.256-.512-.453-.826-.592s-.657-.208-1.028-.208c-.387 0-.736.076-1.049.229s-.602.387-.867.703c.051-1.062.219-1.801.504-2.215.141-.203.313-.364.519-.483s.411-.179.618-.179c.258 0 .484.071.68.214s.338.331.428.565c.066.184.17.327.311.431s.293.155.457.155c.188 0 .342-.065.463-.196s.182-.276.182-.437c0-.266-.097-.543-.29-.832s-.48-.531-.861-.727-.821-.293-1.321-.293c-.52 0-.982.098-1.389.293s-.752.484-1.037.867-.504.865-.656 1.447-.229 1.242-.229 1.98c0 .906.126 1.673.378 2.3s.616 1.101 1.093 1.421 1.043.48 1.699.48c.57 0 1.081-.126 1.532-.378s.803-.603 1.055-1.052.378-.949.378-1.5c0-.379-.064-.742-.193-1.09s-.314-.647-.551-.903zm-1.21 3.287c-.258.322-.584.483-.979.483-.414 0-.758-.176-1.031-.527s-.41-.791-.41-1.318c0-.328.067-.614.202-.858s.312-.431.533-.56.452-.193.694-.193c.254 0 .486.067.697.202s.377.33.498.586.182.562.182.917c.001.523-.128.946-.386 1.268z"/><path d="m46.29 25.792c-.246-.248-.532-.442-.858-.583s-.677-.211-1.052-.211c-.469 0-.98.148-1.535.445l.334-1.898h2.783c.289 0 .508-.062.656-.188s.223-.289.223-.492c0-.465-.305-.697-.914-.697h-3.094c-.336 0-.578.076-.727.229s-.25.396-.305.732l-.492 2.807c-.043.246-.064.379-.064.398 0 .176.074.333.223.472s.318.208.51.208c.176 0 .399-.103.671-.308s.479-.349.624-.431.385-.123.721-.123c.273 0 .521.065.744.196s.4.329.533.595.199.586.199.961c0 .348-.062.658-.185.932s-.298.488-.524.645-.49.234-.791.234c-.328 0-.625-.097-.891-.29s-.477-.464-.633-.812c-.16-.379-.404-.568-.732-.568-.191 0-.351.068-.478.205s-.19.281-.19.434c0 .25.091.542.272.876s.49.63.926.888 1.003.387 1.702.387c.625 0 1.177-.137 1.655-.41s.845-.643 1.099-1.107.381-.98.381-1.547c0-.391-.07-.756-.211-1.096s-.334-.635-.58-.883z"/></g></g></g></g></svg>