<?xml version="1.0" encoding="iso-8859-1"?>
<!-- Generator: Adobe Illustrator 19.0.0, SVG Export Plug-In . SVG Version: 6.00 Build 0)  -->
<svg version="1.1" id="Capa_1" xmlns="http://www.w3.org/2000/svg" xmlns:xlink="http://www.w3.org/1999/xlink" x="0px" y="0px"
	 viewBox="0 0 512 512" style="enable-background:new 0 0 512 512;" xml:space="preserve">
<path style="fill:#E6E6E6;" d="M99.797,512V52.068l0,0h364.475l0,0v433.898c0,14.379-11.654,26.034-26.034,26.034H99.797L99.797,512
	z"/>
<path style="fill:#754C24;" d="M182.237,138.847c-16.775,0-30.373-13.598-30.373-30.373V78.102h17.356v30.373
	c0,7.185,5.832,13.017,13.017,13.017s13.017-5.832,13.017-13.017l0,0V43.39c0-14.379-11.655-26.034-26.034-26.034
	c-14.379,0-26.034,11.655-26.034,26.034v8.678h-17.356V43.39c0-23.96,19.43-43.39,43.39-43.39s43.39,19.43,43.39,43.39v65.085
	C212.61,125.249,199.012,138.847,182.237,138.847z"/>
<g>
	<path style="fill:#999999;" d="M282.034,338.441h147.525v17.356H282.034V338.441z"/>
	<path style="fill:#999999;" d="M282.034,373.153h147.525v17.356H282.034V373.153z"/>
	<path style="fill:#999999;" d="M282.034,407.864h112.814v17.356H282.034V407.864z"/>
	<path style="fill:#999999;" d="M342.78,303.729h86.78v17.356h-86.78V303.729z"/>
</g>
<circle style="fill:#FBB03B;" cx="360.136" cy="182.237" r="60.746"/>
<path style="fill:#29ABE2;" d="M134.508,182.237h17.356v69.424h-17.356V182.237z"/>
<path style="fill:#FBB03B;" d="M169.22,199.593h17.356v52.068H169.22V199.593z"/>
<path style="fill:#29ABE2;" d="M203.932,164.881h17.356v86.78h-17.356V164.881z"/>
<path style="fill:#FBB03B;" d="M238.644,190.915H256v60.746h-17.356V190.915z"/>
<path style="fill:#29ABE2;" d="M143.186,312.407h104.136v104.136H143.186V312.407z"/>
<path style="fill:#999999;" d="M308.068,303.729h17.356v17.356h-17.356V303.729z"/>
<path style="fill:#DA4836;" d="M414.425,155.093c-10.275-20.575-31.293-33.584-54.289-33.601v60.746L414.425,155.093z"/>
<g>
	<path style="fill:#0071BC;" d="M360.136,121.492c-33.549,0-60.746,27.197-60.754,60.737c0,16.115,6.396,31.57,17.798,42.965
		l42.956-42.956V121.492z"/>
	<path style="fill:#0071BC;" d="M438.237,512c-14.379,0-26.034-11.654-26.034-26.034l0,0V468.61H47.729v17.356
		c0,14.379,11.655,26.034,26.034,26.034l0,0H438.237z"/>
</g>
<g>
</g>
<g>
</g>
<g>
</g>
<g>
</g>
<g>
</g>
<g>
</g>
<g>
</g>
<g>
</g>
<g>
</g>
<g>
</g>
<g>
</g>
<g>
</g>
<g>
</g>
<g>
</g>
<g>
</g>
</svg>
