<svg id="Layer_1" enable-background="new 0 0 52 52" height="512" viewBox="0 0 52 52" width="512" xmlns="http://www.w3.org/2000/svg"><g><g><g><g><g><path d="m45.68668 12.58023v34.41997c0 1.65997-1.34003 3-3 3h-33.38c-1.65997 0-3-1.34003-3-3v-42c0-1.65997 1.34003-3 3-3h25.79167z" fill="#e4f1ff"/></g></g><g opacity=".05"><g><path d="m45.68181 12.57675v34.41998c0 1.66003-1.34003 3-3 3h-33.38c-1.65997 0-3-1.33997-3-3v-3.27997h30.09998c1.66003 0 3-1.34003 3-3v-34.42004z"/></g></g><g><path d="m45.68668 12.58023h-8.09892c-1.3692 0-2.48942-1.12022-2.48942-2.48942v-8.09061z" fill="#c7d6e5"/></g></g><g><path d="m11.197 28.143h7.4v21.857h-7.4z" fill="#f6c560"/><path d="m18.597 38.823h7.4v11.177h-7.4z" fill="#ff5975"/><g><path d="m25.997 32.338h7.4v17.663h-7.4z" fill="#2fcbff"/></g><path d="m33.396 23.763h7.4v26.237h-7.4z" fill="#59de9b"/><g opacity=".05"><g><path d="m33.39885 32.33294v17.66627h-7.40648v-2.47517h.00946c2.82471 0 5.11087-2.28621 5.11087-5.11092v-10.08018z"/></g><g><path d="m16.31842 28.14782h2.2767v21.85139h-7.39725v-2.47517h.00946c2.82471 0 5.1111-2.28621 5.1111-5.11092v-14.2653z"/></g><g><path d="m23.71544 38.82318h2.27693v11.17603h-7.39725v-2.47517h.00946c2.82471 0 5.11087-2.28621 5.11087-5.11092v-3.58994z"/></g><g><path d="m40.7961 23.76429v26.23491h-7.39725v-2.47517c1.40763 0 2.69255-.57627 3.61836-1.49262.92581-.92587 1.49274-2.20122 1.49274-3.61831v-18.64881z"/></g></g><path d="m46.28858 11.76733-10.48358-10.47485c-.18103-.18103-.49781-.29248-.70703-.29248h-25.79102c-2.20605 0-4 1.79443-4 4v42c0 2.20557 1.79395 4 4 4 2.63884 0 33.97961 0 33.37988 0 2.20605 0 4-1.79443 4-4v-34.32306c.04132-.41156-.12695-.71478-.39825-.90961zm-10.19061-7.35443c.5813.58087 6.46088 6.45575 7.17285 7.16718h-5.68262c-.82129 0-1.49023-.66797-1.49023-1.48926zm-18.50098 44.5871h-5.39942v-19.85693h5.39942zm2-9.17676h5.39941v9.17676h-5.39941zm7.39941-6.48584h5.40039v15.6626h-5.40039c0-5.42105 0-10.24614 0-15.6626zm7.40039 15.6626c0-13.56785 0-10.65949 0-24.2373h5.39941v24.2373zm10.29004-2c0 1.10303-.89746 2-2 2h-.89063v-25.2373c0-.55225-.44727-1-1-1h-7.39941c-.55273 0-1 .44775-1 1v7.57471h-6.40039c-.55273 0-1 .44775-1 1v5.48584h-5.39941v-9.68018c0-.55225-.44727-1-1-1h-7.39942c-.55273 0-1 .44775-1 1v20.85693h-.89062c-1.10254 0-2-.89697-2-2v-42c0-1.10303.89746-2 2-2h24.79102v7.09082c0 1.92383 1.56543 3.48926 3.49023 3.48926h7.09863z" fill="#293c66"/></g><g><g><g><path d="m40.59666 18.35018v1.44c0 .16003-.12.28003-.27997.28003h-28.84003c-.14996 0-.27997-.12-.27997-.28003v-1.44c0-.14996.13-.27997.27997-.27997h28.84003c.15997 0 .27997.13.27997.27997z" fill="#c7d6e5"/></g><g opacity=".05"><path d="m40.59178 18.34677v1.44c0 .15997-.12.27997-.27997.27997h-28.84002c-.14996 0-.27997-.12-.27997-.27997v-.37006h27c.82001 0 1.51001-.57996 1.67999-1.34998h.44c.15998.00001.27997.13002.27997.28004z"/></g><g><path d="m24.22179 7.63675v1.44c0 .15997-.12.27997-.27997.27997h-12.47003c-.14996 0-.27997-.13-.27997-.27997v-1.44c0-.16003.13-.28003.27997-.28003h12.47003c.15997 0 .27997.13.27997.28003z" fill="#ff5975"/></g><g><path d="m31.3018 12.99673v1.44c0 .08002-.03003.14001-.08002.19-.02997.03003-.06.04999-.08997.07001-.03003.01001-.07001.02002-.11005.02002h-19.54997c-.14996 0-.27997-.13-.27997-.29004v-1.42999c0-.15997.13-.27997.27997-.27997h19.54999c.16003.00001.28002.13001.28002.27997z" fill="#c7d6e5"/></g></g></g></g><g opacity=".05"><path d="m31.3018 12.99673v1.44c0 .08002-.03003.14001-.08002.19-.02997.03003-.06.04999-.08997.07001-.03003.01001-.07001.02002-.11005.02002h-19.54997c-.14996 0-.27997-.13-.27997-.29004v-.35999h17.70996c.82001 0 1.51001-.58002 1.67999-1.34998h.44c.16004.00002.28003.13002.28003.27998z"/></g><g opacity=".05"><path d="m24.22179 7.63675v1.44c0 .15997-.12.27997-.27997.27997h-12.47003c-.14996 0-.27997-.13-.27997-.27997v-.37h10.63c.82001 0 1.50995-.58002 1.67999-1.35004h.44c.15998.00001.27998.13001.27998.28004z"/></g></g></svg>