<svg id="uuid-342fec8f-26c6-4cce-bb52-b10dbfea7a30" height="512" viewBox="0 0 64 64" width="512" xmlns="http://www.w3.org/2000/svg"><g><path d="m1 58h62v4h-62z" fill="#eefdff"/><path d="m3 60h60v2h-60z" fill="#d4f6f9"/><path d="m55 2h6v56h-6z" fill="#c3f77e"/><path d="m57 4h4v54h-4z" fill="#a2ed50"/><path d="m44.6 28h6v30h-6z" fill="#c3f77e"/><path d="m46.6 30h4v28h-4z" fill="#a2ed50"/><path d="m34.2 42h6v16h-6z" fill="#c3f77e"/><path d="m36.2 44h4v14h-4z" fill="#a2ed50"/><path d="m13.4 50h6v8h-6z" fill="#c3f77e"/><path d="m15.4 52h4v6h-4z" fill="#a2ed50"/><path d="m3 53h6v5h-6z" fill="#c3f77e"/><path d="m5 55h4v3h-4z" fill="#a2ed50"/><path d="m23.8 47h6v11h-6z" fill="#c3f77e"/><path d="m25.8 49h4v9h-4z" fill="#a2ed50"/><g><path d="m21 6h10v3c1.281 1.281 2 3.017 2 4.828v9.172c0 1.657-1.343 3-3 3h-8c-1.657 0-3-1.343-3-3v-9.172c0-1.811.719-3.548 2-4.828z" fill="#eefdff"/><path d="m21 6h10v2h-10z" fill="#d4f6f9"/><path d="m33 23v-9.172c0-1.811-.719-3.548-2-4.828v-3h-8v3c-1.281 1.281-2 3.017-2 4.828v9.172c0 1.657 1.343 3 3 3h6c1.657 0 3-1.343 3-3z" fill="#d4f6f9"/><path d="m23 6h8v2h-8z" fill="#bdf3f4"/><path d="m33 14v9c0 1.657-1.343 3-3 3h-8c-1.657 0-3-1.343-3-3v-9z" fill="#8fdfff"/><path d="m33 23v-9h-12v9c0 1.657 1.343 3 3 3h6c1.657 0 3-1.343 3-3z" fill="#64c8ff"/><rect fill="#6c7a98" height="4" rx="2" width="14" x="19" y="2"/><path d="m33 4h-10c-1.105 0-2 .895-2 2h10c1.105 0 2-.895 2-2z" fill="#56627d"/></g><g><path d="m3 6h10v3c1.281 1.281 2 3.017 2 4.828v9.172c0 1.657-1.343 3-3 3h-8c-1.657 0-3-1.343-3-3v-9.172c0-1.811.719-3.548 2-4.828z" fill="#eefdff"/><path d="m3 6h10v2h-10z" fill="#d4f6f9"/><path d="m15 23v-9.172c0-1.811-.719-3.548-2-4.828v-3h-8v3c-1.281 1.281-2 3.017-2 4.828v9.172c0 1.657 1.343 3 3 3h6c1.657 0 3-1.343 3-3z" fill="#d4f6f9"/><path d="m5 6h8v2h-8z" fill="#bdf3f4"/><path d="m15 14v9c0 1.657-1.343 3-3 3h-8c-1.657 0-3-1.343-3-3v-9z" fill="#8fdfff"/><path d="m15 23v-9h-12v9c0 1.657 1.343 3 3 3h6c1.657 0 3-1.343 3-3z" fill="#64c8ff"/><rect fill="#6c7a98" height="4" rx="2" width="14" x="1" y="2"/><path d="m15 4h-10c-1.105 0-2 .895-2 2h10c1.105 0 2-.895 2-2z" fill="#56627d"/></g></g><g><path d="m63 57h-1v-55c0-.552-.447-1-1-1h-6c-.553 0-1 .448-1 1v55h-2.4v-29c0-.552-.447-1-1-1h-6c-.553 0-1 .448-1 1v29h-2.399v-15c0-.552-.447-1-1-1h-6c-.553 0-1 .448-1 1v15h-2.4v-10c0-.552-.447-1-1-1h-6c-.553 0-1 .448-1 1v10h-2.399v-7c0-.552-.447-1-1-1h-6c-.553 0-1 .448-1 1v7h-2.4v-4c0-.552-.447-1-1-1h-6.002c-.553 0-1 .448-1 1v4h-1c-.553 0-1 .448-1 1v4c0 .552.447 1 1 1h62c.553 0 1-.448 1-1v-4c0-.552-.447-1-1-1zm-7-54h4v54h-4zm-10.4 26h4v28h-4zm-10.399 14h4v14h-4zm-10.4 5h4v9h-4zm-10.399 3h4v6h-4zm-10.4 3h4v3h-4.002v-3zm58 7h-60.002v-2h60v2z"/><path d="m3 45c-.553 0-1 .448-1 1s.447 1 1 1c26.958 0 43.995-16.267 44.954-42.632l2.339 2.339c.391.39 1.024.39 1.414 0 .391-.391.391-1.024 0-1.414l-4-4c-.391-.391-1.024-.391-1.414 0l-4 4c-.391.39-.391 1.024 0 1.414s1.024.39 1.414 0l2.247-2.247c-.956 25.441-16.859 40.54-42.954 40.54z"/><path d="m4 27h8c2.206 0 4-1.794 4-4v-9.171c0-1.948-.707-3.788-2-5.227v-1.786c1.161-.414 2-1.514 2-2.816 0-1.654-1.346-3-3-3h-10c-1.654 0-3 1.346-3 3 0 1.302.839 2.402 2 2.816v1.786c-1.293 1.438-2 3.278-2 5.227v9.171c0 2.206 1.794 4 4 4zm-1-24h10c.552 0 1 .449 1 1s-.448 1-1 1h-10c-.552 0-1-.449-1-1s.448-1 1-1zm9.293 6.707c.902.903 1.466 2.051 1.642 3.293h-11.87c.176-1.242.74-2.39 1.642-3.293.188-.188.293-.442.293-.707v-2h8v2c0 .265.105.52.293.707zm-10.293 5.293h12v8c0 1.103-.897 2-2 2h-8c-1.103 0-2-.897-2-2z"/><path d="m5.5 21h1.5v1.5c0 .552.447 1 1 1s1-.448 1-1v-1.5h1.5c.553 0 1-.448 1-1s-.447-1-1-1h-1.5v-1.5c0-.552-.447-1-1-1s-1 .448-1 1v1.5h-1.5c-.553 0-1 .448-1 1s.447 1 1 1z"/><path d="m22 27h8c2.206 0 4-1.794 4-4v-9.171c0-1.948-.707-3.788-2-5.227v-1.786c1.161-.414 2-1.514 2-2.816 0-1.654-1.346-3-3-3h-10c-1.654 0-3 1.346-3 3 0 1.302.839 2.402 2 2.816v1.786c-1.293 1.438-2 3.278-2 5.227v9.171c0 2.206 1.794 4 4 4zm-1-24h10c.552 0 1 .449 1 1s-.448 1-1 1h-10c-.552 0-1-.449-1-1s.448-1 1-1zm9.293 6.707c.902.903 1.466 2.051 1.642 3.293h-11.87c.176-1.242.74-2.39 1.642-3.293.188-.188.293-.442.293-.707v-2h8v2c0 .265.105.52.293.707zm-10.293 5.293h12v8c0 1.103-.897 2-2 2h-8c-1.103 0-2-.897-2-2z"/><path d="m23.5 21h1.5v1.5c0 .552.447 1 1 1s1-.448 1-1v-1.5h1.5c.553 0 1-.448 1-1s-.447-1-1-1h-1.5v-1.5c0-.552-.447-1-1-1s-1 .448-1 1v1.5h-1.5c-.553 0-1 .448-1 1s.447 1 1 1z"/></g></svg>