<svg id="Layer_1" enable-background="new 0 0 68 68" height="512" viewBox="0 0 68 68" width="512" xmlns="http://www.w3.org/2000/svg"><g id="_x32_1"><g><g><path d="m51.7 13.3v47.9c0 2.6-2.1 4.8-4.8 4.8h-40c-2.6 0-4.8-2.1-4.8-4.8v-47.9c0-2.6 2.1-4.8 4.8-4.8h40c2.7 0 4.8 2.1 4.8 4.8z" fill="#bf7d5a"/></g><g><path d="m36.3 66h-29.4c-2.6 0-4.8-2.1-4.8-4.8v-41.8c.7 11.5 5.6 36.3 34.2 46.6z" fill="#aa6256"/></g><g><path d="m46.1 16.8c.4 13.5.4 26.9 0 40.4-.1 2.3-2 4.1-4.3 4.1h-29.8c-2.3 0-4.2-1.9-4.3-4.2-.3-13.4-.3-26.8 0-40.2 0-2.3 2-4.2 4.3-4.2h29.8c2.3 0 4.2 1.8 4.3 4.1z" fill="#fff"/></g><g><path d="m39.4 9.2v4.5c0 1.2-1 2.2-2.2 2.2h-20.5c-1.2 0-2.2-1-2.2-2.2v-4.5c0-1.2 1-2.2 2.2-2.2h2.7c.8 0 1.5-.6 1.8-1.4.5-2.1 2.4-3.6 4.7-3.6h2.1c2.3 0 4.2 1.5 4.8 3.6.2.8.9 1.4 1.7 1.4h2.7c1.2 0 2.2 1 2.2 2.2z" fill="#423d9b"/></g><g><path d="m28.3 6.2c0 .8-.6 1.4-1.4 1.4s-1.4-.6-1.4-1.4.6-1.4 1.4-1.4 1.4.7 1.4 1.4z" fill="#fff"/></g><g><path d="m4.5 43.7c.5-3.4.6-6.9.6-10.3 0-3.2-.1-7-.6-10.3-.5 3.2-.6 7.1-.6 10.3 0 3.4.1 6.9.6 10.3z" fill="#fff"/></g><g><path d="m29.7 14.1c1.3.3 2.6.4 3.9.4 1.2 0 2.6-.1 3.9-.4-1.2-.3-2.6-.4-3.9-.4s-2.6.1-3.9.4z" fill="#fff"/></g><g><g><path d="m22.8 33c-2.9 2.9-7.5 2.9-10.4 0l5.2-5.2v-7.3 7.3z" fill="#f34b58"/></g><g><path d="m12.4 22.6c1.4-1.4 3.3-2.2 5.2-2.2v7.3l-5.2 5.3c-2.9-2.9-2.9-7.5 0-10.4z" fill="#57b3fe"/></g><g><path d="m24.9 27.8c0 1.9-.7 3.8-2.1 5.2l-5.2-5.2v-7.3c4.2 0 7.3 3.4 7.3 7.3z" fill="#ffd06c"/></g></g><g><g><path d="m42.2 22.3c0-.4-.4-.8-.8-.8h-12.3c-.4 0-.8.4-.8.8 0 .5.4.8.8.8h12.3c.5 0 .8-.3.8-.8z" fill="#cccff2"/></g><g><path d="m42.2 26.7c0-.4-.4-.8-.8-.8h-12.3c-.4 0-.8.4-.8.8 0 .5.4.8.8.8h12.3c.5 0 .8-.3.8-.8z" fill="#cccff2"/></g><g><path d="m42.2 31.1c0-.4-.4-.8-.8-.8h-12.3c-.4 0-.8.4-.8.8 0 .5.4.8.8.8h12.3c.5 0 .8-.3.8-.8z" fill="#cccff2"/></g><g><path d="m42.2 35.5c0-.4-.4-.8-.8-.8h-12.3c-.4 0-.8.4-.8.8 0 .5.4.8.8.8h12.3c.5 0 .8-.4.8-.8z" fill="#cccff2"/></g><g><path d="m37.3 39.8c0-.4-.4-.8-.8-.8h-7.4c-.4 0-.8.4-.8.8 0 .5.4.8.8.8h7.4c.4.1.8-.3.8-.8z" fill="#cccff2"/></g></g><g><g><path d="m14.7 39.7c0 .7-.6 1.3-1.3 1.3s-1.2-.6-1.2-1.3.6-1.2 1.2-1.2c.8 0 1.3.5 1.3 1.2z" fill="#57b3fe"/></g><g><path d="m18.9 39.7c0 .7-.6 1.3-1.3 1.3s-1.2-.6-1.2-1.3.6-1.2 1.2-1.2c.7 0 1.3.5 1.3 1.2z" fill="#f34b58"/></g><g><path d="m23 39.7c0 .7-.6 1.3-1.3 1.3s-1.2-.6-1.2-1.3.6-1.2 1.2-1.2c.7 0 1.3.5 1.3 1.2z" fill="#ffd06c"/></g></g><g><g><path d="m15.2 48.6v7.4c0 .4-.3.7-.7.7h-2.4c-.4 0-.7-.3-.7-.7v-7.4c0-.4.3-.7.7-.7h2.4c.4 0 .7.3.7.7z" fill="#f34b58"/></g><g><path d="m22 44.5v11.6c0 .4-.3.7-.7.7h-2.4c-.4 0-.7-.3-.7-.7v-11.6c0-.4.3-.7.7-.7h2.4c.4 0 .7.3.7.7z" fill="#57b3fe"/></g><g><path d="m28.8 50.7v5.4c0 .4-.3.7-.7.7h-2.4c-.4 0-.7-.3-.7-.7v-5.4c0-.4.3-.7.7-.7h2.4c.4 0 .7.3.7.7z" fill="#78e75a"/></g><g><path d="m35.6 47.7v8.4c0 .4-.3.7-.7.7h-2.4c-.4 0-.7-.3-.7-.7v-8.4c0-.4.3-.7.7-.7h2.4c.4 0 .7.3.7.7z" fill="#ffd06c"/></g><g><path d="m42.4 53v3c0 .4-.3.7-.7.7h-2.4c-.4 0-.7-.3-.7-.7v-3c0-.4.3-.7.7-.7h2.4c.4 0 .7.3.7.7z" fill="#b28afd"/></g></g></g><g><g><path d="m62.4 58.5 1.9 6.3c.2.5-.1 1.1-.7 1.2-.5.2-1.1-.1-1.2-.7l-1.9-6.3z" fill="#423d9b"/></g><g><path d="m61.1 42.9 4.4 14.7c.7 2.2-.6 4.5-2.8 5.2-1.1.3-2.2.2-3.2-.3-.9-.5-1.7-1.4-2-2.5l-4.4-14.7c-.6-2.1 7.3-4.5 8-2.4z" fill="#f34b58"/></g><g><path d="m61.1 42.9.9 3.1c-1.5 1.6-5.8 2.9-8 2.4l-.9-3.1c-.6-2.1 7.3-4.5 8-2.4z" fill="#e11226"/></g><g><path d="m56.8 25.7 5.3 17.7c.8 2.5-8.8 5.4-9.6 2.9l-5.3-17.7c-1.3-4.3 3.3-7.9 7.2-5.8 1.1.6 2 1.6 2.4 2.9z" fill="#ffd06c"/></g><g><g><path d="m57.1 24.6c1.8-.5 3.7.5 4.2 2.3l3.1 10.5c.2.5-.1 1.1-.7 1.2-.5.2-1.1-.1-1.2-.7l-3.1-10.2c-.3-.9-1.2-1.4-2.1-1.1l-9.7 2.9c-.5.2-1.1-.1-1.2-.7-.1-.5.2-1.1.7-1.2z" fill="#423d9b"/></g></g><g><path d="m65.8 37.4c.4 1.2-.3 2.4-1.5 2.8s-2.4-.3-2.8-1.5.3-2.4 1.5-2.8c1.2-.3 2.4.3 2.8 1.5z" fill="#423d9b"/></g><g><path d="m65.8 38.3c-.1.8-.7 1.6-1.6 1.9-1.2.4-2.4-.3-2.8-1.5-.3-.9 0-1.8.7-2.3 0 .3 0 .6.1.9.4 1.2 1.6 1.8 2.8 1.5.3-.1.6-.3.8-.5z" fill="#211a67"/></g><g><path d="m61.4 48c.8 1.8 1.4 3.5 1.9 5.2.4 1.5 1 3.4 1.2 5-.8-1.6-1.4-3.5-1.9-5.2s-1-3.4-1.2-5z" fill="#fff"/></g></g></g></svg>