<svg id="Layer_1" enable-background="new 0 0 512 512" height="512" viewBox="0 0 512 512" width="512" xmlns="http://www.w3.org/2000/svg"><g clip-rule="evenodd" fill-rule="evenodd"><g><g><ellipse cx="112.608" cy="112.62" fill="#60b7ff" rx="104.61" ry="104.61" transform="matrix(.707 -.707 .707 .707 -46.652 112.612)"/><ellipse cx="112.608" cy="112.62" fill="#8ac9fe" rx="91.612" ry="91.612" transform="matrix(.707 -.707 .707 .707 -46.652 112.612)"/><path d="m112.608 112.62h104.61c0 38.717-21.035 72.518-52.298 90.607z" fill="#fd4755"/><path d="m112.608 112.62h91.612c0 33.906-18.421 63.508-45.799 79.349z" fill="#fe646f"/><path d="m217.218 112.62h-104.61v-104.61c57.774 0 104.61 46.836 104.61 104.61z" fill="#ffd064"/><path d="m204.22 112.62h-91.612v-91.612c50.596 0 91.612 41.016 91.612 91.612z" fill="#ffe177"/></g><g><path d="m278.016 5.247h26.98c6.2 0 11.257 5.057 11.257 11.257v26.98c0 6.2-5.057 11.257-11.257 11.257h-26.98c-6.2 0-11.257-5.057-11.257-11.257v-26.98c-.001-6.2 5.056-11.257 11.257-11.257z" fill="#8ac9fe"/><path d="m278.016 87.873h26.98c6.2 0 11.257 5.057 11.257 11.257v26.98c0 6.2-5.057 11.257-11.257 11.257h-26.98c-6.2 0-11.257-5.057-11.257-11.257v-26.98c-.001-6.2 5.056-11.257 11.257-11.257z" fill="#ffe177"/><path d="m278.016 170.498h26.98c6.2 0 11.257 5.057 11.257 11.257v26.98c0 6.2-5.057 11.257-11.257 11.257h-26.98c-6.2 0-11.257-5.057-11.257-11.257v-26.98c-.001-6.2 5.056-11.257 11.257-11.257z" fill="#fe646f"/></g><g><path d="m207.012 348.361h33.219c5.508 0 10 4.492 10 10v135.651c0 5.508-4.492 10-10 10-11.073 0-22.146 0-33.219 0-5.508 0-10-4.492-10-10 0-45.217 0-90.434 0-135.651 0-5.508 4.492-10 10-10z" fill="#ffe177"/><path d="m240.231 348.361c5.508 0 10 4.492 10 10v135.651c0 5.508-4.492 10-10 10-11.073 0-22.146 0-33.219 0-5.508 0-10-4.492-10-10v-.001h33.219c5.508 0 10-4.492 10-10z" fill="#ffd064"/><path d="m303.597 348.361h33.219c5.508 0 10 4.492 10 10v135.651c0 5.508-4.492 10-10 10-11.073 0-22.146 0-33.219 0-5.508 0-10-4.492-10-10 0-45.217 0-90.434 0-135.651 0-5.508 4.493-10 10-10z" fill="#fe646f"/><path d="m336.816 348.361c5.508 0 10 4.492 10 10v135.651c0 5.508-4.492 10-10 10-11.073 0-22.146 0-33.219 0-5.508 0-10-4.492-10-10v-.001h33.219c5.508 0 10-4.492 10-10z" fill="#fd4755"/><path d="m18 321.361h33.219c5.508 0 10 4.492 10 10v162.651c0 5.508-4.492 10-10 10-11.073 0-22.146 0-33.219 0-5.508 0-10-4.492-10-10 0-54.217 0-108.434 0-162.651 0-5.508 4.492-10 10-10z" fill="#6cf5c2"/><path d="m51.219 321.361c5.508 0 10 4.492 10 10v162.651c0 5.508-4.492 10-10 10-11.073 0-22.146 0-33.219 0-5.508 0-10-4.492-10-10v-.001h33.219c5.508 0 10-4.492 10-10z" fill="#00e499"/><path d="m110.426 274.658h33.219c5.508 0 10 4.492 10 10v209.354c0 5.508-4.492 10-10 10-11.073 0-22.146 0-33.219 0-5.508 0-10-4.492-10-10 0-69.785 0-139.57 0-209.354 0-5.508 4.492-10 10-10z" fill="#8ac9fe"/><path d="m143.645 274.658c5.508 0 10 4.492 10 10v209.354c0 5.508-4.492 10-10 10-11.073 0-22.146 0-33.219 0-5.508 0-10-4.492-10-10v-.001h33.219c5.508 0 10-4.492 10-10z" fill="#60b7ff"/></g><g><path d="m390.702 354.862c-4.999 7.13-10.879 13.598-17.481 19.245l47.533 46.594 18.096-18.649z" fill="#a79ba7"/><path d="m391.023 354.541c-.935 3.066-2.677 5.396-5.174 6.938l47.218 46.908 5.783-6.336z" fill="#837683"/><path d="m480.944 481.179 20.422-21.047c3.587-3.696 3.496-9.654-.199-13.241l-56.565-54.889c-3.695-3.587-9.655-3.497-13.241.198l-20.423 21.047c-3.586 3.695-3.497 9.655.2 13.241l56.565 54.888c3.696 3.587 9.655 3.499 13.241-.197z" fill="#f1ba84"/><path d="m436.234 392.002 56.565 54.889c3.695 3.587 3.786 9.544.199 13.24l-20.423 21.047c-.755.778-1.615 1.396-2.536 1.854 3.552 1.765 8.004 1.136 10.905-1.854l20.423-21.047c3.587-3.696 3.496-9.653-.2-13.241l-56.565-54.889c-2.918-2.832-7.246-3.372-10.705-1.655.84.419 1.63.97 2.337 1.656z" fill="#e3a76f"/><ellipse cx="313.513" cy="303.008" fill="#eceff1" rx="103.004" ry="103.004" transform="matrix(.707 -.707 .707 .707 -122.433 310.437)"/><path d="m313.514 200.004c56.887 0 103.004 46.116 103.004 103.004 0 56.887-46.117 103.004-103.004 103.004-1.677 0-3.343-.043-5-.123 54.564-2.608 98.004-47.671 98.004-102.881 0-55.211-43.439-100.273-98.004-102.881 1.656-.08 3.323-.123 5-.123z" fill="#d1d1d6"/></g><g><circle cx="313.513" cy="303.006" fill="#837683" r="75"/><path d="m375.179 303.006c0 15.342-4.607 29.608-12.512 41.49-3.051 4.586-6.593 8.817-10.552 12.617-11.975 11.498-27.759 19.058-45.27 20.6 2.197.194 4.42.292 6.667.292 3.644 0 7.228-.26 10.733-.762.452-.065.903-.134 1.353-.207 35.675-5.779 62.914-36.724 62.914-74.031 0-41.422-33.579-75-75-75-2.247 0-4.47.099-6.667.292 38.3 3.375 68.334 35.534 68.334 74.709z" fill="#685e68"/><path d="m313.513 310.239c-27.017 0-49.26 20.471-52.077 46.74 13.49 13.019 31.848 21.027 52.076 21.027 3.644 0 7.228-.26 10.733-.762 15.951-2.286 30.28-9.593 41.34-20.267-2.811-26.275-25.051-46.738-52.072-46.738z" fill="#8ac9fe"/><path d="m306.847 310.659c31.176 3.962 43.74 27.552 46.628 55.822 4.361-2.751 8.418-5.94 12.11-9.504-2.812-26.275-25.052-46.738-52.073-46.738-2.257 0-4.482.143-6.665.42z" fill="#60b7ff"/><circle cx="313.514" cy="279.799" fill="#f6dccd" r="26.481"/><path d="m333.328 279.799c0 13.496-10.096 24.634-23.147 26.273 1.092.137 2.204.208 3.333.208 14.625 0 26.481-11.856 26.481-26.481s-11.856-26.481-26.481-26.481c-1.129 0-2.242.071-3.333.208 13.051 1.639 23.147 12.777 23.147 26.273z" fill="#f1cbbc"/></g></g><path d="m246.507 303.009c0 13.587 4.081 26.231 11.063 36.808 5.841-14.422 17.041-25.924 31.048-32.241-5.93-6.194-9.586-14.583-9.586-23.82 0-19.013 15.469-34.478 34.478-34.478 19.022 0 34.482 15.465 34.482 34.478 0 9.237-3.652 17.626-9.582 23.82 13.998 6.317 25.202 17.819 31.048 32.241 6.982-10.577 11.054-23.221 11.054-36.808 0-36.945-30.052-67.002-67.002-67.002-36.942 0-67.003 30.057-67.003 67.002zm67.002-.769c-10.191 0-18.48-8.289-18.48-18.484 0-10.19 8.289-18.48 18.48-18.48 10.19 0 18.48 8.289 18.48 18.48-.001 10.195-8.29 18.484-18.48 18.484zm0 67.767c-16.597 0-31.789-6.081-43.508-16.116 4.067-20.584 22.117-35.652 43.508-35.652 21.4 0 39.45 15.068 43.522 35.652-11.72 10.034-26.921 16.116-43.522 16.116zm-83.001-66.998c0-45.767 37.242-83 83-83 45.772 0 83 37.233 83 83 0 45.762-37.228 83-83 83-45.757 0-83-37.237-83-83zm-84.858-20.352h-37.223v213.352h37.223zm15.997-8.001v229.355c0 4.416-3.59 8.001-7.997 8.001h-53.22c-4.421 0-8.001-3.585-8.001-8.001v-229.355c0-4.421 3.581-8.001 8.001-8.001h53.221c4.406-.001 7.996 3.58 7.996 8.001zm333.949 177.973-56.566-54.887c-.311-.307-.68-.373-.939-.373-.014 0-.023 0-.033 0-.26.005-.642.075-.958.401l-20.423 21.046c-.316.326-.377.708-.368.972 0 .264.071.642.401.958l56.557 54.891c.533.505 1.43.491 1.934-.028l20.428-21.051c.5-.518.491-1.419-.033-1.929zm-156.777-41.53c-8.129 1.901-16.602 2.911-25.311 2.911-4.02 0-8.001-.222-11.908-.642v82.642h37.219zm-96.592-23.07c-10.506-8.827-19.367-19.56-26.028-31.666h-11.191v139.647h37.219zm-23.716-85.02c0-52.386 42.616-95.007 94.998-95.007 52.391 0 95.012 42.621 95.012 95.007 0 52.382-42.621 95.002-95.012 95.002-52.382 0-94.998-42.62-94.998-95.002zm59.005-105.013c8.874-3.052 18.253-5.005 27.972-5.704v-11.03h-27.972zm121.233 176.035c-2.132 2.557-4.383 5.025-6.732 7.379l19.914 19.324 6.959-7.167zm108.359 91.671-20.418 21.046c-3.402 3.505-7.931 5.265-12.469 5.265-4.359 0-8.723-1.628-12.092-4.897l-56.557-54.887c-3.321-3.222-5.194-7.553-5.265-12.2-.038-2.434.434-4.798 1.34-6.973l-21.768-21.126c-7.652 5.727-16.069 10.488-25.061 14.106v97.974c0 4.416-3.59 8.001-7.997 8.001h-53.221c-4.421 0-8.001-3.585-8.001-8.001v-93.558c-9.7-2.519-18.89-6.322-27.368-11.214v104.772c0 4.416-3.581 8.001-8.001 8.001h-53.221c-4.416 0-7.997-3.585-7.997-8.001v-155.649c0-4.421 3.581-8.001 7.997-8.001h11.969c-4.18-11.681-6.468-24.254-6.468-37.351 0-42.437 23.938-79.377 59.01-98.055v-31.694c0-4.416 3.581-8.001 8.001-8.001h43.97c4.421 0 8.002 3.586 8.002 8.001v19.032c15.078 1.076 29.34 5.175 42.167 11.7h62.959c4.42 0 8.001 3.581 8.001 7.997 0 4.421-3.581 8.002-8.001 8.002h-39.499c22.919 20.352 37.398 50.023 37.398 83.019 0 21.197-5.982 41.021-16.328 57.887l22.697 22.027c2.151-.977 4.5-1.514 6.93-1.552 4.671-.071 9.03 1.665 12.361 4.888l56.562 54.892c6.869 6.665 7.039 17.681.368 24.55zm-453.889-136.344h-37.219v166.651h37.219zm16.002-7.997v182.649c0 4.416-3.581 8.001-8.001 8.001h-53.221c-4.421 0-8.001-3.585-8.001-8.001v-182.649c0-4.42 3.581-8.001 8.001-8.001h53.221c4.421 0 8.001 3.581 8.001 8.001zm208.295-194.759h27.972v-27.967h-27.972zm-15.998 8.001v-43.97c0-4.416 3.581-7.996 8.001-7.996h43.97c4.421 0 8.002 3.581 8.002 7.996v43.97c0 4.416-3.581 8.001-8.002 8.001h-43.97c-4.42 0-8.001-3.585-8.001-8.001zm87.718 2.765h77.381c4.42 0 8.001-3.586 8.001-8.001 0-4.421-3.581-8.001-8.001-8.001h-77.381c-4.416 0-7.997 3.581-7.997 8.001.001 4.415 3.581 8.001 7.997 8.001zm0-33.496h154.762c4.421 0 8.001-3.581 8.001-8.001 0-4.416-3.581-8.002-8.001-8.002h-154.762c-4.416 0-7.997 3.585-7.997 8.002.001 4.42 3.581 8.001 7.997 8.001zm-71.72-59.898h27.972v-27.962h-27.972zm-15.998 8.002v-43.965c0-4.421 3.581-8.001 8.001-8.001h43.97c4.421 0 8.002 3.581 8.002 8.001v43.965c0 4.421-3.581 8.001-8.002 8.001h-43.97c-4.42 0-8.001-3.581-8.001-8.001zm87.718 2.764h77.381c4.42 0 8.001-3.581 8.001-8.001 0-4.416-3.581-7.996-8.001-7.996h-77.381c-4.416 0-7.997 3.581-7.997 7.996.001 4.421 3.581 8.001 7.997 8.001zm0-33.491h154.762c4.421 0 8.001-3.581 8.001-8.001s-3.581-8.001-8.001-8.001h-154.762c-4.416 0-7.997 3.581-7.997 8.001s3.581 8.001 7.997 8.001zm-333.236 91.369c0 53.269 43.337 96.606 96.611 96.606 14.998 0 29.208-3.434 41.889-9.558l-48.791-82.991c-.717-1.231-1.099-2.632-1.099-4.058v-96.275c-49.542 4.086-88.61 45.702-88.61 96.276zm104.607-96.276c46.909 3.869 84.435 41.399 88.284 88.317l-88.284-.038zm88.27 104.32-82.288-.038 41.691 70.908c22.689-16.054 38.177-41.634 40.597-70.87zm-208.88-8.044c0 62.091 50.523 112.609 112.614 112.609 62.086 0 112.609-50.518 112.609-112.609s-50.523-112.609-112.609-112.609c-62.091 0-112.614 50.519-112.614 112.609zm341.243 65.88c0 4.416 3.581 7.997 7.997 7.997h154.762c4.421 0 8.001-3.581 8.001-7.997 0-4.421-3.581-8.001-8.001-8.001h-154.763c-4.416-.001-7.996 3.58-7.996 8.001z"/></g></svg>