<svg height="512" viewBox="0 0 64 64" width="512" xmlns="http://www.w3.org/2000/svg"><g id="Icon"><path d="m25 50h14v8h-14z" fill="#424242"/><path d="m59 13h-54a3.00328 3.00328 0 0 0 -3 3v30h60v-30a3.00328 3.00328 0 0 0 -3-3z" fill="#424242"/><path d="m2 44v5a3.00328 3.00328 0 0 0 3 3h54a3.00328 3.00328 0 0 0 3-3v-5z" fill="#212121"/><path d="m57 17h-50a1 1 0 0 0 -1 1v26h52v-26a1 1 0 0 0 -1-1z" fill="#90caf9"/><circle cx="54" cy="48" fill="#fbc02d" r="1"/><circle cx="57" cy="48" fill="#f44336" r="1"/><path d="m39 56h-14a3.00328 3.00328 0 0 0 -3 3v2a.99974.99974 0 0 0 1 1h18a.99974.99974 0 0 0 1-1v-2a3.00328 3.00328 0 0 0 -3-3z" fill="#212121"/><path d="m16 29h-1a2 2 0 0 0 -2 2v11h5v-11a2 2 0 0 0 -2-2z" fill="#f44336"/><path d="m22 26h-1a2 2 0 0 0 -2 2v14h5v-14a2 2 0 0 0 -2-2z" fill="#fbc02d"/><path d="m28 31h-1a2 2 0 0 0 -2 2v9h5v-9a2 2 0 0 0 -2-2z" fill="#7cb342"/><path d="m41 21-12.35352 6.584a13.99894 13.99894 0 0 0 26.35352-6.584z" fill="#f44336"/><path d="m41 7a13.99708 13.99708 0 0 0 -12.35352 20.5835l12.35352-6.5835z" fill="#fbc02d"/><path d="m41 7v14h14a14.01572 14.01572 0 0 0 -14-14z" fill="#7cb342"/><g fill="#212121"><path d="m34.919 12.606-3-7a.99939.99939 0 0 0 -.919-.606h-5a1 1 0 0 0 0 2h4.34082l2.74023 6.394a.99987.99987 0 1 0 1.83795-.788z"/><path d="m23 10h-8a1 1 0 0 1 0-2h8a1 1 0 0 1 0 2z"/><path d="m23 7h-8a1 1 0 0 1 0-2h8a1 1 0 0 1 0 2z"/><path d="m23 4h-8a1 1 0 0 1 0-2h8a1 1 0 0 1 0 2z"/><path d="m32 42h-20a3.00328 3.00328 0 0 1 -3-3v-15a1 1 0 0 1 2 0v15a1.0013 1.0013 0 0 0 1 1h20a1 1 0 0 1 0 2z"/></g></g></svg>