<svg id="Capa_1" enable-background="new 0 0 512 512" height="512" viewBox="0 0 512 512" width="512" xmlns="http://www.w3.org/2000/svg"><g><g><g><g><path d="m473.241 174.737h-88.403c-2.761 0-5 2.239-5 5v152.526c0 2.761 2.239 5 5 5h114.662c2.761 0 5-2.239 5-5v-126.267c0-1.326-.527-2.598-1.464-3.536l-26.259-26.259c-.939-.937-2.21-1.464-3.536-1.464z" fill="#ffd15b"/></g><g><path d="m503.036 202.461-26.259-26.26c-.938-.938-2.209-1.465-3.536-1.465h-31.5c1.326 0 2.598.527 3.536 1.465l26.259 26.26c.938.938 1.464 2.209 1.464 3.535v126.267c0 2.761-2.239 5-5 5h31.5c2.761 0 5-2.239 5-5v-126.267c0-1.326-.527-2.598-1.464-3.535z" fill="#ffc344"/></g></g></g><g><g><g><path d="m7.5 232.773c0 5.523 4.477 10 10 10h308.395c5.523 0 10-4.477 10-10v-172.772h-328.395z" fill="#f9f3f1"/></g><g><path d="m294 60.001v172.772c0 5.523-4.477 10-10 10h41.895c5.523 0 10-4.477 10-10v-172.772z" fill="#f3eae6"/></g><g><path d="m325.895 20.169h-308.395c-5.523 0-10 4.477-10 10v30.832h328.395v-30.832c0-5.523-4.477-10-10-10z" fill="#26a6fe"/></g><g><path d="m325.895 20.169h-41.895c5.523 0 10 4.477 10 10v30.833h41.895v-30.833c0-5.523-4.478-10-10-10z" fill="#0593fc"/></g><g><path d="m17.5 20.169c-5.523 0-10 4.477-10 10v30.833h55.395v-40.833z" fill="#60b7ff"/></g><g><g><circle cx="97.565" cy="152.561" fill="#05e39c" r="53.409"/></g><g><path d="m97.565 99.152v53.409h53.409c-.001-29.497-23.913-53.409-53.409-53.409z" fill="#fd8087"/></g></g></g><g><g><path d="m7.5 309.059v172.772c0 5.523 4.477 10 10 10h308.395c5.523 0 10-4.477 10-10v-172.772z" fill="#f9f3f1"/></g><g><path d="m294 309.059v172.772c0 5.523-4.477 10-10 10h41.895c5.523 0 10-4.477 10-10v-172.772z" fill="#f3eae6"/></g><g><path d="m325.895 269.227h-308.395c-5.523 0-10 4.477-10 10v30.832h328.395v-30.832c0-5.523-4.477-10-10-10z" fill="#0ed290"/></g><g><path d="m325.895 269.227h-41.895c5.523 0 10 4.477 10 10v30.833h41.895v-30.833c0-5.523-4.478-10-10-10z" fill="#00c285"/></g><g><path d="m17.5 269.227c-5.523 0-10 4.477-10 10v30.833h55.395v-40.833z" fill="#05e39c"/></g><g><g><path d="m44.156 346.172h255.083v99.806h-255.083z" fill="#fff"/></g></g></g></g><g><path d="m508.339 197.158-26.262-26.263c-2.362-2.359-5.5-3.659-8.837-3.659h-23.571v-71.453c0-12.406-10.094-22.5-22.5-22.5h-83.774v-43.114c0-9.649-7.851-17.5-17.5-17.5h-49.895c-4.143 0-7.5 3.357-7.5 7.5s3.357 7.5 7.5 7.5h49.895c1.379 0 2.5 1.121 2.5 2.5v23.333h-258v-25.833h170.605c4.142 0 7.5-3.357 7.5-7.5s-3.358-7.5-7.5-7.5h-223.5c-9.649 0-17.5 7.851-17.5 17.5v202.604c0 9.649 7.851 17.5 17.5 17.5h308.395c9.649 0 17.5-7.851 17.5-17.5v-144.49h83.774c4.136 0 7.5 3.364 7.5 7.5v71.453h-49.831c-6.893 0-12.5 5.607-12.5 12.5v91.264c0 4.143 3.357 7.5 7.5 7.5s7.5-3.357 7.5-7.5v-88.764h84.867l24.795 24.796v122.731h-109.662v-23.763c0-4.143-3.357-7.5-7.5-7.5s-7.5 3.357-7.5 7.5v26.264c0 6.893 5.607 12.5 12.5 12.5h49.831v63.74c0 4.136-3.364 7.5-7.5 7.5h-83.774v-136.777c0-9.649-7.851-17.5-17.5-17.5h-308.395c-9.649 0-17.5 7.851-17.5 17.5v202.604c0 9.649 7.851 17.5 17.5 17.5h308.395c9.649 0 17.5-7.851 17.5-17.5v-50.827h83.774c12.406 0 22.5-10.094 22.5-22.5v-63.74h49.831c6.893 0 12.5-5.607 12.5-12.5v-126.268c0-3.339-1.301-6.477-3.661-8.838zm-493.339-166.989c0-1.379 1.122-2.5 2.5-2.5h37.895v25.833h-40.395zm313.395 202.604c0 1.379-1.121 2.5-2.5 2.5h-308.395c-1.378 0-2.5-1.121-2.5-2.5v-164.271h313.395zm-313.395 46.454c0-1.379 1.122-2.5 2.5-2.5h37.895v25.832h-40.395zm313.395 202.604c0 1.379-1.121 2.5-2.5 2.5h-308.395c-1.378 0-2.5-1.121-2.5-2.5v-164.272h313.395zm0-179.272h-258v-25.832h255.5c1.379 0 2.5 1.121 2.5 2.5z"/><path d="m415.546 225.34h53.246c4.143 0 7.5-3.357 7.5-7.5s-3.357-7.5-7.5-7.5h-53.246c-4.143 0-7.5 3.357-7.5 7.5s3.357 7.5 7.5 7.5z"/><path d="m415.546 252.961h53.246c4.143 0 7.5-3.357 7.5-7.5s-3.357-7.5-7.5-7.5h-53.246c-4.143 0-7.5 3.357-7.5 7.5s3.357 7.5 7.5 7.5z"/><path d="m415.546 280.581h53.246c4.143 0 7.5-3.357 7.5-7.5s-3.357-7.5-7.5-7.5h-53.246c-4.143 0-7.5 3.357-7.5 7.5s3.357 7.5 7.5 7.5z"/><path d="m415.546 308.202h25.477c4.143 0 7.5-3.357 7.5-7.5s-3.357-7.5-7.5-7.5h-25.477c-4.143 0-7.5 3.357-7.5 7.5s3.357 7.5 7.5 7.5z"/><path d="m97.564 213.47c33.585 0 60.909-27.324 60.909-60.909s-27.323-60.91-60.909-60.91c-33.585 0-60.909 27.324-60.909 60.909s27.324 60.91 60.909 60.91zm7.5-106.196c19.316 3.189 34.598 18.471 37.786 37.787h-37.786zm-15 0v45.286c0 4.143 3.358 7.5 7.5 7.5h45.286c-3.592 21.758-22.527 38.409-45.286 38.409-25.314 0-45.909-20.595-45.909-45.909.001-22.759 16.652-41.694 38.409-45.286z"/><path d="m176.719 110.35h122.521c4.143 0 7.5-3.357 7.5-7.5s-3.357-7.5-7.5-7.5h-122.521c-4.142 0-7.5 3.357-7.5 7.5s3.358 7.5 7.5 7.5z"/><path d="m176.719 143.49h18.281c4.142 0 7.5-3.357 7.5-7.5s-3.358-7.5-7.5-7.5h-18.281c-4.142 0-7.5 3.357-7.5 7.5s3.358 7.5 7.5 7.5z"/><path d="m299.239 128.49h-80.239c-4.142 0-7.5 3.357-7.5 7.5s3.358 7.5 7.5 7.5h80.239c4.143 0 7.5-3.357 7.5-7.5s-3.357-7.5-7.5-7.5z"/><path d="m176.719 176.631h122.521c4.143 0 7.5-3.357 7.5-7.5s-3.357-7.5-7.5-7.5h-122.521c-4.142 0-7.5 3.357-7.5 7.5s3.358 7.5 7.5 7.5z"/><path d="m299.239 194.771h-17.239c-4.143 0-7.5 3.357-7.5 7.5s3.357 7.5 7.5 7.5h17.239c4.143 0 7.5-3.357 7.5-7.5s-3.357-7.5-7.5-7.5z"/><path d="m176.719 209.771h82.281c4.143 0 7.5-3.357 7.5-7.5s-3.357-7.5-7.5-7.5h-82.281c-4.142 0-7.5 3.357-7.5 7.5s3.358 7.5 7.5 7.5z"/><path d="m44.156 453.478h23.344c4.142 0 7.5-3.357 7.5-7.5s-3.358-7.5-7.5-7.5h-15.844v-18.269h63.402v18.269h-12.558c-4.142 0-7.5 3.357-7.5 7.5s3.358 7.5 7.5 7.5h196.739c4.143 0 7.5-3.357 7.5-7.5v-99.806c0-4.143-3.357-7.5-7.5-7.5h-255.083c-4.142 0-7.5 3.357-7.5 7.5v99.806c0 4.142 3.358 7.5 7.5 7.5zm85.902-99.806h161.682v18.269h-161.682zm0 33.268h161.682v18.269h-161.682zm0 33.269h161.682v18.269h-161.682zm-78.402-66.537h63.402v18.269h-63.402zm0 33.268h63.402v18.269h-63.402z"/></g></g></svg>