<svg id="Capa_1" enable-background="new 0 0 511.996 511.996" height="512" viewBox="0 0 511.996 511.996" width="512" xmlns="http://www.w3.org/2000/svg"><g><g><g><path d="m110.994 331.408c-6.614 0-12.94-2.595-18.15-7.603-13.145-12.636-16.641-38.572-17.259-58.104-.796-25.143 2.822-52.623 9.927-75.394 8.39-26.9 18.98-42.957 27.489-55.858 9.517-14.427 16.392-24.851 18.012-46.389.856-11.364-.551-20.626-4.068-26.788-10.576-18.493-4.666-42.091 13.46-53.714l1.848-1.181c9.498-6.095 21.229-7.935 32.159-5.029 19.521 5.189 54.14 19.129 66.692 54.191 10.918 30.501 10.105 58.309 10.008 60.784z" fill="#ff425b"/></g></g><g><g><path d="m330.288 223.18c15.245-4.355 34.814 13.052 40.437 19.46 2.768 3.192 6.752 5.07 10.976 5.172.12.003.24.004.361.004 4.093 0 8.016-1.674 10.85-4.643l39.459-41.34c5.17-5.417 5.554-13.816.898-19.682-.527-.665-13.699-17.884-35.116-31.767-6.896-13.547-29.414-52.005-71.172-66.077-27.237-9.179-56.272-5.386-86.283 11.269-4.272 2.368-8.545 4.924-12.693 7.595-53.297 34.287-71.655 78.077-80.829 108.037-2.096 6.851-3.91 15.004-5.832 23.636-5.666 25.456-41.443 93.956-41.443 93.956 1.389 56.752 27.747 96.482 50.577 120.394 36.425 38.15 90.182 62.801 136.952 62.801 29.129 0 55.127-13.407 75.184-38.773 31.401-39.715 43.486-104.422 30.073-161.014-8.398-35.458-53.832-62.518-72.846-72.454-.003-1.748.127-3.704.518-5.672 1.204-6.072 4.082-9.231 9.929-10.902z" fill="#fe7789"/></g></g><path d="m398.153 150.384c-6.896-13.547-29.414-52.005-71.172-66.077-22.581-7.609-46.398-6.294-70.981 3.865v420.404c10.641 2.241 21.202 3.42 31.43 3.42 29.129 0 55.127-13.407 75.184-38.773 31.401-39.715 43.486-104.422 30.073-161.014-8.398-35.458-53.832-62.518-72.846-72.454-.003-1.748.127-3.704.518-5.672 1.204-6.073 4.082-9.232 9.93-10.903 15.245-4.355 34.814 13.052 40.437 19.46 2.768 3.192 6.752 5.07 10.976 5.172.12.003.24.004.361.004 4.093 0 8.016-1.674 10.85-4.643l39.459-41.34c5.17-5.417 5.554-13.816.898-19.682-.528-.664-13.7-17.884-35.117-31.767z" fill="#ff425b"/><g><path d="m358.552 360.74.002-.007c-.017-.005-.055-.019-.087-.029-.665-.283-1.329-.553-1.992-.819-5.811-2.668-22.105-12.306-28.611-38.49-1.998-8.04-10.135-12.938-18.175-10.941-5.81 1.444-9.98 6.095-11.092 11.599-.426 2.111-.402 4.346.151 6.576 2.167 8.723 5.129 16.224 8.526 22.697-13.112.138-22.174 1.908-22.802 2.034-8.104 1.628-13.343 9.504-11.738 17.614 1.605 8.109 9.487 13.387 17.606 11.806 3.161-.615 77.171-14.231 94.016 51.815 5.506-14.031 9.416-29.247 11.625-44.958-10.744-14.246-24.168-23.248-37.429-28.897z" fill="#d1014f"/></g><path d="m273.773 144.625c-19.815 19.062-29.693 39.537-30.104 40.399-3.562 7.479-.389 16.43 7.091 19.993 2.082.992 4.278 1.462 6.44 1.462 5.604 0 10.981-3.155 13.553-8.552.309-.647 31.543-64.612 93.471-56.088 11.518 1.583 22.865 4.456 33.964 8.567-.011-.007-.022-.015-.034-.022-3.892-7.645-12.761-23.222-27.252-37.873-.864-.131-1.726-.273-2.592-.392-34.763-4.784-67.458 6.457-94.537 32.506z" fill="#ff425b"/><path d="m370.902 112.511c-.864-.131-1.726-.273-2.592-.392-34.763-4.785-67.458 6.457-94.537 32.506-7.248 6.972-13.161 14.13-17.772 20.452v41.337c.4.032.801.066 1.199.066 5.604 0 10.981-3.155 13.553-8.552.309-.647 31.543-64.612 93.471-56.088 11.518 1.583 22.865 4.456 33.964 8.567-.011-.007-.022-.015-.034-.022-3.892-7.645-12.761-23.222-27.252-37.874z" fill="#d1014f"/></g></svg>