<svg id="Capa_1" enable-background="new 0 0 512 512" height="512" viewBox="0 0 512 512" width="512" xmlns="http://www.w3.org/2000/svg"><g><g><path d="m279.887 409.238c-14.691 8.893-33.082 8.893-47.773 0-63.578-38.487-232.114-152.059-232.114-274.501 0-74.413 60.324-134.737 134.737-134.737 53.335 0 99.705 30.99 121.263 75.453 21.558-44.463 67.928-75.453 121.263-75.453 74.413 0 134.737 60.324 134.737 134.737 0 122.442-168.536 236.014-232.113 274.501z" fill="#fe646f"/></g><g><path d="m512 134.737c0-74.413-60.324-134.737-134.737-134.737-10.011 0-19.777 1.092-29.18 3.16 60.424 13.303 105.64 67.155 105.64 131.577 0 28.832-9.35 57.171-24.472 84.153-12.701 22.662-42.677 28.458-62.789 12.015-30.13-24.632-68.598-39.425-110.462-39.425-74.433 0-138.138 46.761-163.314 112.444 49.977 48.295 107.746 86.136 139.434 105.318 14.695 8.895 33.096 8.877 47.79-.019 63.595-38.5 232.09-152.059 232.09-274.486z" fill="#fd4755"/></g><g><circle cx="256" cy="366.309" fill="#4f66d0" r="145.691"/></g><g><path d="m342.521 249.089c17.889 24.196 28.471 54.121 28.471 86.521 0 80.463-65.228 145.691-145.691 145.691-32.4 0-62.325-10.582-86.521-28.471 26.536 35.892 69.157 59.17 117.22 59.17 80.463 0 145.691-65.228 145.691-145.691 0-48.063-23.278-90.684-59.17-117.22z" fill="#314dc9"/></g><g><path d="m256 287.22c-41.112 0-74.999 31.532-78.745 71.682-.393 4.21-3.965 7.408-8.194 7.408h-25.451c0 61.972 50.418 112.39 112.39 112.39s112.39-50.418 112.39-112.39h-25.451c-4.228 0-7.801-3.198-8.194-7.408-3.746-40.151-37.633-71.682-78.745-71.682z" fill="#e6f7fe"/></g><g><g><path d="m312.182 268.998-16.657 28.85c21.616 12.529 36.797 34.982 39.223 61.089.39 4.196 3.979 7.371 8.193 7.371h25.448c.001-41.519-22.632-77.85-56.207-97.31z" fill="#fe646f"/></g><g><path d="m199.818 268.998c-33.575 19.46-56.208 55.791-56.208 97.311h25.448c4.215 0 7.803-3.175 8.193-7.371 2.426-26.107 17.607-48.56 39.223-61.089-7.586-13.14-14.285-24.743-16.656-28.851z" fill="#9be69d"/></g></g><g><path d="m256 253.919c-20.452 0-39.644 5.494-56.182 15.08 2.371 4.107 9.071 15.711 16.657 28.85 11.638-6.746 25.133-10.629 39.526-10.629s27.887 3.884 39.526 10.629l16.657-28.85c-16.54-9.586-35.732-15.08-56.184-15.08z" fill="#ffe177"/></g><g><path d="m256.006 373.811c-2.703 0-5.315-1.466-6.653-4.029-1.918-3.672-.496-8.203 3.175-10.121l40.585-21.199c3.673-1.919 8.203-.497 10.12 3.175 1.918 3.671.496 8.203-3.175 10.12l-40.585 21.2c-1.11.579-2.297.854-3.467.854z" fill="#30569f"/></g><g><path d="m272.65 452.898h-33.3c-4.143 0-7.5-3.358-7.5-7.5s3.357-7.5 7.5-7.5h33.301c4.143 0 7.5 3.358 7.5 7.5s-3.358 7.5-7.501 7.5z" fill="#4f66d0"/></g><g><path d="m280.976 419.598h-49.951c-4.143 0-7.5-3.358-7.5-7.5s3.357-7.5 7.5-7.5h49.951c4.143 0 7.5 3.358 7.5 7.5s-3.358 7.5-7.5 7.5z" fill="#4f66d0"/></g><g><path d="m407.937 219.792c-.096 0-.191-.002-.288-.005-3.416-.13-6.312-2.554-7.041-5.894l-27.233-124.61-22.654 97.648c-.749 3.229-3.528 5.583-6.837 5.791-3.33.204-6.36-1.782-7.506-4.893l-21.882-59.39-11.863 34.275c-1.046 3.021-3.892 5.047-7.088 5.047h-39.545c-4.143 0-7.5-3.358-7.5-7.5s3.357-7.5 7.5-7.5h34.204l16.984-49.067c1.037-2.995 3.845-5.015 7.014-5.046 3.209-.033 6.016 1.932 7.111 4.907l20.466 55.547 24.509-105.642c.789-3.401 3.818-5.805 7.305-5.805h.049c3.507.022 6.53 2.473 7.279 5.899l28.155 128.834 7.285-24.283c.951-3.172 3.871-5.345 7.184-5.345h47.87c4.143 0 7.5 3.358 7.5 7.5s-3.357 7.5-7.5 7.5h-42.29l-14.007 46.688c-.954 3.181-3.882 5.344-7.181 5.344z" fill="#e6f7fe"/></g><g><ellipse cx="256" cy="366.309" fill="#4f66d0" rx="13.525" ry="13.525" transform="matrix(.392 -.92 .92 .392 -181.305 458.411)"/></g></g></svg>