<svg clip-rule="evenodd" fill-rule="evenodd" height="512" image-rendering="optimizeQuality" shape-rendering="geometricPrecision" text-rendering="geometricPrecision" viewBox="0 0 4335 4335" width="512" xmlns="http://www.w3.org/2000/svg"><g id="Layer_x0020_1"><g fill="#2b1330" fill-rule="nonzero"><path d="m2107 1317c47 67 122 179 202 320 61 108 124 234 181 371 10 26-2 56-28 66-26 11-55-1-66-27-54-132-116-254-176-360-73-131-142-235-188-301-4 5-9 10-13 15-95 107-191 275-267 537-8 27-36 43-63 35-26-8-42-36-34-62 80-280 184-461 288-578 180-202 363-217 434-214 28 1 49 25 48 52-1 28-24 50-52 49-45-2-149 6-266 97zm397 1802c9-27 37-41 64-32s41 38 32 64c-6 19-13 38-21 56-7 18-15 36-23 54-413 877-1528 291-1531 289l-2-1c-999-583-894-1225-772-1973 51-317 106-654 76-1011-3-28 18-53 46-55l364-59c20-3 40 6 50 22 138 180 180 703 193 1025 155-328 534-847 1350-750 28 3 48 29 44 56-3 28-28 48-56 45-1085-129-1333 922-1334 925-6 22-26 39-49 39-28 0-51-23-51-51 0-3 5-934-162-1206l-291 47c23 351-30 680-80 989-116 711-215 1322 723 1869 53 27 1032 517 1390-243 8-16 15-33 21-49 7-17 13-34 19-50z"/><path d="m870 188c-13-25-4-55 21-68s56-3 68 21c1 2 253 478 254 1147 0 28-23 50-51 50s-51-22-51-50c0-644-241-1098-241-1100z"/><path d="m1139 74c-13-24-4-55 21-68s55-4 68 21c1 1 213 403 249 985 1 28-20 52-48 53-28 2-52-19-54-47-34-560-236-942-236-944z"/><path d="m934 211c-25 11-55-1-66-27-11-25 1-55 27-66l269-114c26-11 55 1 66 27s-1 56-27 66z"/><path d="m1509 194c-13-25-4-56 21-69s56-3 69 22c0 1 142 270 213 687 5 27-14 53-42 58-27 5-53-14-58-42-68-400-203-656-203-656z"/><path d="m1777 79c-12-24-3-55 22-68s56-3 69 22c0 1 157 298 223 750 4 28-15 54-43 58-27 4-53-16-57-43-64-436-213-718-214-719z"/><path d="m1573 217c-26 11-55-1-66-27s1-56 27-66l269-114c26-11 55 1 66 27 11 25-1 55-27 66z"/><path d="m1105 2089c-15-24-7-55 17-70 24-14 55-7 70 17 0 1 225 361 164 831-11 91 20 189 75 286 57-34 160-102 238-180 5-8 11-15 19-20 42-45 74-94 82-141-62-33-181-122-186-313-1-28 22-51 49-52 28 0 52 22 52 50 3 102 48 163 89 197 18-185 112-311 112-311 17-23 48-28 71-11 23 16 28 48 11 71 0 0-104 139-95 335 3 66-27 132-72 193 53 8 133 2 213-71 20-19 52-18 71 3s18 53-3 72c-143 130-292 103-357 81-84 81-182 147-240 182 111 157 270 304 402 412 22 18 25 50 8 71-18 22-50 25-72 8-145-119-324-285-441-462-3-5-7-11-10-16-1-1-2-2-3-3-48-77-85-156-103-234-47-15-143-47-238-96-55 43-184 118-361 46-26-11-39-41-28-66 10-26 40-39 66-28 101 41 179 18 226-8-85-57-156-128-172-213-37-193-170-304-170-304-22-19-24-51-6-72s50-24 71-5c1 0 122 101 182 278 33-42 66-112 46-213-5-27 13-54 41-59 27-5 54 13 59 40 36 187-61 299-115 344 26 59 91 109 164 150 8 2 16 6 22 12l1 1c71 37 146 65 199 83 0-17 1-33 3-50 56-434-150-764-151-765z"/><path d="m2264 1660c-24 14-55 6-69-18-14-25-6-56 18-70l324-187c24-14 55-5 69 19 1 1 1 2 2 3l139 241c14 24 6 55-19 69l-332 192c-24 14-55 6-69-19-14-24-6-55 18-69l289-167-90-156z"/><path d="m2274 805c-4-28 15-53 43-57 28-3 53 16 57 44l51 371c4 27-16 53-44 57-27 3-53-16-57-44z"/><path d="m2841 1842c195 0 371 79 499 207 127 127 206 304 206 498 0 195-79 372-206 499-128 128-304 207-499 207s-371-79-499-207c-128-127-207-304-207-499 0-194 79-371 207-498 128-128 304-207 499-207zm427 278c-109-109-260-176-427-176s-318 67-427 176c-109 110-177 261-177 427 0 167 68 318 177 427 109 110 260 177 427 177s318-67 427-177c109-109 177-260 177-427 0-166-68-317-177-427z"/><path d="m3317 3292c0-28 23-51 51-51s51 23 51 51v101c0 86-35 165-92 222s-136 92-222 92c-87 0-166-35-223-92s-92-136-92-222v-28c0-28 23-51 51-51s51 23 51 51v28c0 58 24 111 62 150 39 38 92 62 151 62 58 0 111-24 150-62 38-39 62-92 62-150z"/><path d="m3419 3292c0 28-23 51-51 51s-51-23-51-51c0-87 36-165 93-222s135-93 222-93c86 0 165 36 222 93s92 135 92 222v566c0 28-23 51-51 51s-50-23-50-51v-566c0-59-24-112-63-151-39-38-92-62-150-62-59 0-112 24-151 62-38 39-62 92-62 151z"/><path d="m3895 3807c73 0 139 29 187 77v1c48 47 77 113 77 186s-29 139-77 187c-48 47-114 77-187 77s-139-30-186-77c-1-1-2-2-3-3-46-48-75-113-75-184 0-73 30-139 78-187 48-48 114-77 186-77zm115 149c-29-29-70-47-115-47s-85 18-115 47c-29 29-47 70-47 115 0 44 17 84 45 113 1 0 2 1 2 2 30 29 70 47 115 47s86-18 115-47c30-30 48-70 48-115s-18-86-48-115z"/><path d="m2877 2583c-20 20-52 20-72 0-20-19-20-52 0-71l232-232c20-20 52-20 72 0 19 20 19 52 0 72z"/><path d="m2790 1893c0-28 23-51 51-51s51 23 51 51v124c0 28-23 51-51 51s-51-23-51-51z"/><path d="m3496 2497c28 0 50 22 50 50s-22 51-50 51h-124c-29 0-51-23-51-51s22-50 51-50z"/><path d="m2892 3202c0 28-23 51-51 51s-51-23-51-51v-124c0-28 23-51 51-51s51 23 51 51z"/><path d="m2186 2598c-28 0-51-22-51-51 0-28 23-50 51-50h124c28 0 51 22 51 50 0 29-23 51-51 51z"/><path d="m3046 3150c0-28 23-51 51-51s51 23 51 51v123c0 39-17 75-42 101h-1c-26 26-61 42-100 42h-328c-39 0-75-16-101-42-26-26-42-62-42-101v-123c0-28 23-51 51-51s51 23 51 51v123c0 11 4 22 12 29 7 8 18 12 29 12h328c11 0 21-4 29-12 7-7 12-18 12-29z"/></g><path d="m2135 2547c0-194 79-371 207-498 13-13 26-25 40-37-51-119-107-229-162-325-8-16-17-31-25-45-64-110-123-198-163-256l-13 15c-95 107-191 275-267 537-8 27-36 43-63 35-26-8-42-36-34-62 80-280 184-461 288-578 141-159 285-202 374-212l-38-276c-555-53-885 209-1073 467-2 4-4 7-7 10-162 228-215 451-215 452-6 22-26 39-49 39-28 0-51-23-51-51 0-3 5-934-162-1206l-291 47c23 351-30 680-80 989-116 711-215 1322 723 1869 28 15 323 162 645 179-182-162-399-394-453-626-47-15-143-47-238-96-55 43-184 118-361 46-62-26-24-119 38-94 101 41 179 18 226-8-85-57-156-128-172-213-37-193-170-304-170-304-51-44 15-121 65-77 1 0 122 101 182 278 33-42 66-112 46-213-12-65 87-84 100-19 36 187-61 299-115 344 26 59 91 109 164 150l23 13c71 37 146 65 199 83 0-17 1-33 3-50 56-434-150-764-151-765-35-57 52-110 87-53 0 1 225 361 164 831-11 91 20 189 75 286 57-34 160-102 238-180 5-8 11-15 19-20 42-45 74-94 82-141-62-33-181-122-186-313-2-66 100-69 101-2 3 102 48 163 89 197 18-185 112-311 112-311 39-54 121 6 82 60 0 0-104 139-95 335 3 66-27 132-72 193 53 8 133 2 213-71 49-45 117 30 68 75-143 130-292 103-357 81-84 81-182 147-240 182 107 151 258 293 387 399 230-22 456-130 592-419 8-16 15-33 21-49 2-3 3-7 4-10-54-31-103-69-147-113-128-127-207-304-207-499z" fill="#f44230"/><path d="m1374 990c-32-438-164-763-215-874l-176 75c57 126 200 482 226 956 48-55 103-108 165-157z" fill="#ffb300"/><path d="m1622 196c41 90 126 297 180 581 57-15 117-26 180-33-51-309-143-533-184-622z" fill="#ffb300"/><path d="m2544 1498-236 137c0 1 0 1 1 2 27 49 55 101 83 157l242-140z" fill="#ffb300"/><path d="m2790 1946c-146 12-278 76-376 174s-163 230-175 377h71c28 0 51 22 51 50 0 29-23 51-51 51h-71c12 147 77 278 175 376s230 163 376 175v-71c0-28 23-51 51-51s51 23 51 51v71c146-12 278-77 376-175s162-229 175-376h-71c-29 0-51-23-51-51s22-50 51-50h71c-13-147-77-278-175-377-98-98-230-162-376-174v71c0 28-23 51-51 51s-51-23-51-51zm15 637c-20-19-20-52 0-71l232-232c20-20 52-20 72 0 19 20 19 52 0 72l-232 231c-20 20-52 20-72 0z" fill="#e6e6e6"/><path d="m3893 3908c-82 3-160 66-160 163 0 144 175 217 277 115 64-64 64-167 0-230-32-32-72-47-111-48-1 0-3 1-4 1s-1-1-2-1z" fill="#f44230"/><path d="m2841 3314h164c23 0 41-18 41-41v-50c-65 19-134 30-205 30s-140-11-205-30v50c0 23 18 41 41 41z" fill="#666"/></g></svg>