<svg id="_x33_0" enable-background="new 0 0 62 62.345" height="512" viewBox="0 0 62 62.345" width="512" xmlns="http://www.w3.org/2000/svg"><g><g><g><path d="m33 39.555c-2.1-2.15-4.89-3.63-8.02-4.07l-.98 5.86-5-3-5 3-.98-5.86c-6.79.96-12.02 6.8-12.02 13.86v2h8v2l8 1v-2c0-.55.45-1 1-1h10c.55 0 1 .45 1 1v3l1.59-1.59c.26-.26.62-.41 1-.41.78 0 1.41.63 1.41 1.41v.59h2c1.1 0 2 .9 2 2v-8c0-3.81-1.53-7.26-4-9.79z" fill="#fcd770"/></g><g><path d="m24.98 35.485-.98 5.86-5-3 4-3c.67 0 1.33.05 1.98.14z" fill="#ffc729"/></g><g><path d="m19 38.345-5 3-.98-5.86c.65-.09 1.31-.14 1.98-.14z" fill="#ffc729"/></g><g><path d="m21 1.345c-1.66 0-3.16.67-4.24 1.76-.08.08-.15.16-.23.24h-5.53c-5.52 0-10 4.48-10 10l2-1v9c0-1.1.45-2.1 1.17-2.83.73-.72 1.73-1.17 2.83-1.17h2v-.54l2 .54c2.21 0 4-1.79 4-4 0-.88 0-2.35 0-4 0 3.31 2.69 6 6 6h4 4v2h2c2.21 0 4 1.79 4 4v-6c0-7.73-6.27-14-14-14z" fill="#b27946"/></g><g><path d="m44 30.345v3h-4v-3c0-.55.45-1 1-1h1 1c.55 0 1 .45 1 1z" fill="#aab2bd"/></g><g><path d="m61 35.345v24c0 1.1-.9 2-2 2h-20c-1.1 0-2-.9-2-2v-2-8-14c0-1.1.9-2 2-2h1 4 15c1.1 0 2 .9 2 2z" fill="#ccd1d9"/></g><g><path d="m41 37.345h16v16h-16z" fill="#69d6f4"/></g><g><path d="m17 61.345v-7-2c0 1.66 1.34 3 3 3h6c1.66 0 3-1.34 3-3v3 6z" fill="#aab2bd"/></g><g><path d="m29 52.345c0 1.66-1.34 3-3 3h-6c-1.66 0-3-1.34-3-3 0-.55.45-1 1-1h10c.55 0 1 .45 1 1z" fill="#ccd1d9"/></g><g><path d="m9 51.345v2l8 1v7h-10c-3.31 0-6-2.69-6-6v-4z" fill="#f0d0b4"/></g><g><path d="m37 59.345c0 1.1-.9 2-2 2h-6v-6l1.59-1.59c.26-.26.62-.41 1-.41.78 0 1.41.63 1.41 1.41v.59h2c1.1 0 2 .9 2 2z" fill="#f0d0b4"/></g><g><path d="m31 17.345c2.21 0 4 1.79 4 4 0 1.1-.45 2.1-1.17 2.83-.73.72-1.73 1.17-2.83 1.17h-2c0-.03 0-.05 0-.08v-2.92-5z" fill="#f0d0b4"/></g><g><path d="m15 9.345c0 3.31 2.69 6 6 6h4 4v2 5 2.92.08c-.02 1.73-.66 3.32-1.7 4.56-1.07 1.26-2.57 2.15-4.3 2.44v3l-4 3-4-3v-3c-1.73-.29-3.23-1.18-4.3-2.44-1.04-1.24-1.68-2.83-1.7-4.56 0-.03 0-.05 0-.08v-2.92-5-.54l2 .54c2.21 0 4-1.79 4-4 0-.88 0-2.35 0-4z" fill="#f0d0b4"/></g><g><path d="m9 22.345v2.92.08h-2c-2.21 0-4-1.79-4-4 0-1.1.45-2.1 1.17-2.83.73-.72 1.73-1.17 2.83-1.17h2z" fill="#f0d0b4"/></g><g><path d="m41.16 17.345c1.27-8.29 9.84-16 9.84-16s10 9 10 18c0 5.52-4.48 10-10 10s-10-4.48-10-10c0-.67.06-1.34.16-2z" fill="#ff826e"/></g><g><circle cx="55" cy="17.345" fill="#ffeaa7" r="2"/></g></g><g><path d="m19 28.345c1.615 0 3.067-.897 3.789-2.342l.105-.211-1.789-.895-.105.212c-.381.763-1.147 1.236-2 1.236s-1.619-.474-2-1.236l-.105-.211-1.789.895.105.211c.722 1.444 2.174 2.341 3.789 2.341z"/><path d="m20.447 22.451-1.134-.567c.451-1.121.687-2.331.687-3.539h-2c0 1.154-.273 2.31-.789 3.342l-.553 1.105 2.895 1.447z"/><circle cx="15" cy="19.345" r="1"/><circle cx="23" cy="19.345" r="1"/><path d="m59 32.345h-14v-2c0-1.103-.897-2-2-2v-.5c0-.375-.038-.741-.11-1.095 2.013 2.202 4.898 3.595 8.11 3.595 6.065 0 11-4.935 11-11 0-9.338-9.909-18.364-10.331-18.743l-.669-.602-.669.602c-.422.379-10.331 9.405-10.331 18.743 0 1.455.291 2.843.806 4.115-.922-.697-2.065-1.115-3.306-1.115-.587 0-1.152.094-1.682.266.107-.407.182-.826.182-1.266v-6c0-8.271-6.729-15-15-15-1.902 0-3.627.765-4.89 2h-5.11c-6.065 0-11 4.935-11 11v1.618l2-1v7.382c0 2.757 2.243 5 5 5h1.077c.427 3.25 2.746 5.931 5.923 6.803v1.23c-7.806.517-14 7.032-14 14.967v6c0 3.86 3.14 7 7 7h28c.771 0 1.468-.301 2-.78.532.48 1.229.78 2 .78h20c1.654 0 3-1.346 3-3v-24c0-1.654-1.346-3-3-3zm-8-29.615c2.191 2.168 9 9.483 9 16.615 0 4.962-4.038 9-9 9s-9-4.038-9-9c0-.333.029-.667.058-1h1.324l2.933 5.865 2-8 1.067 2.135h2.802c.414 1.161 1.514 2 2.816 2 1.654 0 3-1.346 3-3s-1.346-3-3-3c-1.302 0-2.402.839-2.816 2h-1.566l-2.933-5.865-2 8-1.067-2.135h-2.235c1.452-6.078 6.735-11.75 8.617-13.615zm3 14.615c0-.551.449-1 1-1s1 .449 1 1-.449 1-1 1-1-.449-1-1zm-13 15v-2h2v2zm0-4.5v.5c-1.103 0-2 .897-2 2v2c-1.654 0-3 1.346-3 3v6.555c-.567-.986-1.232-1.907-2-2.735v-11.32c0-1.93 1.57-3.5 3.5-3.5s3.5 1.571 3.5 3.5zm-5 26.684c-.314-.112-.648-.184-1-.184h-1v-11.896c1.26 2.002 2 4.362 2 6.897zm-21.312-18.168 2.522 1.892-2.465 1.479-.558-3.346c.167-.01.333-.021.501-.025zm8.624 0c.168.004.334.015.501.025l-.558 3.346-2.465-1.479zm.688-1.983v-1.23c3.176-.872 5.495-3.553 5.922-6.803h1.078c.44 0 .859-.075 1.266-.182-.172.531-.266 1.095-.266 1.682v9.516c-2.26-1.701-5.009-2.785-8-2.983zm7-10.033h-1v-1.465l2.555-1.703-1.109-1.664-1.446.964v-2.132h1c1.654 0 3 1.346 3 3s-1.346 3-3 3zm-10-22c7.168 0 13 5.832 13 13v2.026c-.838-.635-1.87-1.026-3-1.026h-1v-2.171c0-2.091-.814-4.057-2.293-5.536l-1.414 1.414c1.101 1.101 1.707 2.565 1.707 4.122v.07c-2.279-.465-4-2.484-4-4.899v-1h-2v1c0 1.907.768 3.636 2.009 4.9-2.283-.461-4.009-2.482-4.009-4.9v-1h-2v1c0 1.907.768 3.636 2.009 4.9-2.283-.461-4.008-2.481-4.009-4.898v-2.002c0-2.757 2.243-5 5-5zm-10 2h3.685c-.435.911-.685 1.926-.685 3v2 .003 4.001c0 1.652-1.346 2.996-3 2.996s-3-1.346-3-3c0-.551.449-1 1-1s1 .449 1 1v1h2v-1c0-1.654-1.346-3-3-3s-3 1.346-3 3c0 1.13.391 2.162 1.026 3h-.026c-1.13 0-2.162.391-3 1.026v-6.644l-1.839.92c.796-4.154 4.457-7.302 8.839-7.302zm-7 17c0-1.654 1.346-3 3-3h1v2.132l-1.445-.964-1.109 1.664 2.554 1.703v1.465h-1c-1.654 0-3-1.345-3-3zm6 3.918v-7.019c.323.066.658.101 1 .101 2.484 0 4.534-1.824 4.919-4.199 1.277 1.35 3.079 2.199 5.08 2.199h7v8.917c0 3.034-2.172 5.598-5.165 6.097l-.834.139v3.347l-3 2.25-3-2.25v-3.347l-.835-.139c-2.993-.499-5.165-3.063-5.165-6.096zm2.205 11.393 1.05 6.303 4.745-2.848v4.234h2v-4.234l4.745 2.847 1.05-6.303c2.378.524 4.509 1.699 6.205 3.33v12.401c-.135-.024-.272-.042-.414-.042-.592 0-1.145.22-1.586.607v-.607c0-1.103-.897-2-2-2h-10c-1.103 0-2 .897-2 2v.867l-6-.75v-10.116h-2v8h-6v-1c0-6.208 4.377-11.406 10.205-12.689zm5.795 19.133c.591.345 1.268.556 2 .556h6c.732 0 1.409-.212 2-.556v4.556h-10zm0-3.444h10c0 1.103-.897 2-2 2h-6c-1.103 0-2-.897-2-2zm-16 3v-3h6v.586l-1.707 1.707 1.414 1.414 1.654-1.654 6.639.83v5.117h-9c-2.757 0-5-2.243-5-5zm33 5h-5v-4.586l1.293-1.293c.238-.238.707-.045.707.293v1.586h3c.551 0 1 .449 1 1v2c0 .551-.449 1-1 1zm25-1c0 .551-.449 1-1 1h-20c-.551 0-1-.449-1-1v-24c0-.551.449-1 1-1h20c.551 0 1 .449 1 1z"/><path d="m40 54.345h18v-18h-18zm2-2v-6h1.382l2.618 5.236 4-8 1.382 2.764h4.618v6zm14-14v6h-3.382l-2.618-5.236-4 8-1.382-2.764h-2.618v-6z"/><path d="m42 56.345h2v2h-2z"/><path d="m48 56.345h2v2h-2z"/><path d="m54 56.345h2v2h-2z"/></g></g></svg>