<svg id="Capa_1" enable-background="new 0 0 512 512" height="512" viewBox="0 0 512 512" width="512" xmlns="http://www.w3.org/2000/svg"><g><g><g><path d="m332.76 295.879c-13.312-6.335-30.41-4.772-42.625 4.642l-110.592 85.239 14.666 70.784c14.094-3.618 26.863-11.183 36.807-21.807l110.684-118.244c7.323-7.823-3.867-18.2-8.94-20.614z" fill="#f89f8e"/><path d="m400.363 295.879c-13.312-6.335-30.41-4.772-42.625 4.642l-110.592 85.239 14.666 70.784c14.094-3.618 26.863-11.183 36.807-21.807l110.684-118.245c7.323-7.822-3.867-18.199-8.94-20.613z" fill="#fdb0a0"/><path d="m463.178 299.139c-13.955-6.564-30.41-4.772-42.625 4.643l-103.329 79.64c-4.672 3.601-10.524 5.319-16.401 4.815l-88.027-7.545 61.769-59.258c5.324-5.108 5.752-13.477.976-19.101-11.675-13.749-32.137-15.604-46.201-4.311-15.828 12.709-38.413 26.02-78.583 26.02-55.723 0-69.182 62.892-69.182 62.892-23.093 0-41.814 18.721-41.814 41.815v31.537c0 31.962 28.71 56.268 60.234 50.993l69.283-11.592 155.348-39.882c14.094-3.618 26.863-11.183 36.806-21.806l106.544-113.822c7.313-7.813 4.884-20.484-4.798-25.038z" fill="#ffdfd0"/><path d="m467.979 324.177-106.541 113.825c-9.952 10.621-22.715 18.183-36.808 21.799l-30.112 7.737c7.067-3.884 13.526-8.87 19.089-14.814l121.603-130.606c6.995-7.479 5.069-19.408-3.606-24.405 4.523-1.659 9.282-2.493 14.072-2.493 5.944 0 11.919 1.288 17.503 3.915 9.683 4.562 12.114 17.234 4.8 25.042z" fill="#ffcec0"/></g></g><g><g><g><g><path d="m222.688 40.216c-41.452-68.144-150.595-48.138-146.958 48.255 2.997 79.434 87.778 151.368 142.416 178.383 2.859 1.414 6.226 1.414 9.085 0 54.639-27.015 139.419-98.949 142.416-178.383 3.637-96.393-105.506-116.399-146.959-48.255z" fill="#fb4a59"/><path d="m369.648 88.472c-2.999 79.434-87.776 151.365-142.42 178.385-2.854 1.411-6.226 1.411-9.08 0-7.43-3.673-15.409-8.177-23.669-13.417 51.448-24.375 134.482-93.442 137.366-169.866 1.764-46.872-24.697-74.629-56.148-81.737 45.513-9.879 96.452 20.276 93.951 86.635z" fill="#f82f40"/></g></g><path d="m220.646 198.013c-.036 0-.071 0-.108-.001-3.447-.048-6.445-2.373-7.349-5.699l-23.055-84.8-7.171 28.863c-.856 3.445-3.949 5.863-7.498 5.863h-44.335c-4.267 0-7.726-3.459-7.726-7.726s3.459-7.726 7.726-7.726h38.293l12.876-51.825c.848-3.414 3.896-5.824 7.413-5.863 3.507-.076 6.618 2.304 7.541 5.699l23.779 87.462 20.967-69.483c.995-3.298 4.088-5.522 7.497-5.494 3.444.045 6.443 2.364 7.352 5.687l9.253 33.818h35.763c4.268 0 7.726 3.459 7.726 7.726s-3.459 7.726-7.726 7.726h-41.659c-3.482 0-6.534-2.329-7.452-5.687l-3.72-13.596-20.991 69.561c-.986 3.266-3.994 5.495-7.396 5.495z" fill="#eaf6ff"/></g><g><path d="m428.143 106.85h-30.743v-30.743c0-4.536-3.677-8.213-8.213-8.213h-38.904c-4.536 0-8.213 3.677-8.213 8.213v30.742h-30.743c-4.536 0-8.213 3.677-8.213 8.213v38.904c0 4.536 3.677 8.213 8.213 8.213h30.743v30.743c0 4.536 3.677 8.213 8.213 8.213h38.904c4.536 0 8.213-3.677 8.213-8.213v-30.743h30.743c4.536 0 8.213-3.677 8.213-8.213v-38.904c0-4.535-3.677-8.212-8.213-8.212z" fill="#31a7fb"/><path d="m436.352 115.059v38.902c0 4.541-3.677 8.218-8.208 8.218h-27.258c4.541 0 8.218-3.677 8.218-8.218v-38.902c0-4.531-3.677-8.208-8.218-8.208h27.258c4.531 0 8.208 3.677 8.208 8.208z" fill="#1c96f9"/></g></g></g></svg>