<svg height="512" viewBox="0 0 64 64" width="512" xmlns="http://www.w3.org/2000/svg"><g id="Layer_19" data-name="Layer 19"><path d="m5 47h54v4h-54z" fill="#939393"/><rect fill="#ccc" height="40" rx="2" width="60" x="2" y="7"/><path d="m4 51h56a2 2 0 0 1 2 2v4a0 0 0 0 1 0 0h-60a0 0 0 0 1 0 0v-4a2 2 0 0 1 2-2z" fill="#b5b5b5"/><path d="m6 11h52v32h-52z" fill="#f2f2f2"/><path d="m6 11h48v29h-48z" fill="#fff"/><path d="m16 16a3.415 3.415 0 0 1 2.414-1h.172a3.415 3.415 0 0 1 3.414 3.414 4.83 4.83 0 0 1 -2.151 4.02l-3.849 2.566-3.849-2.566a4.83 4.83 0 0 1 -2.151-4.02 3.415 3.415 0 0 1 3.414-3.414h.172a3.415 3.415 0 0 1 2.414 1z" fill="#f29b99"/><path d="m25 40a1 1 0 0 1 -.955-.706l-3.083-10.018-1.014 3.04a1 1 0 0 1 -.948.684h-13v-2h12.279l1.773-5.316a.955.955 0 0 1 .96-.684 1 1 0 0 1 .944.706l2.686 8.73 2.368-16.578a1 1 0 0 1 1.956-.116l3.045 11.418 2.024-7.423a1 1 0 0 1 1.894-.109l2.851 7.129 2.25-9a1 1 0 0 1 .964-.757h.006a1 1 0 0 1 .967.746l3.59 13.64.448-4.486a1 1 0 0 1 .995-.9h10v2h-9.095l-.905 9.1a1 1 0 0 1 -1.962.155l-4.014-15.231-2.054 8.219a1 1 0 0 1 -1.9.129l-2.891-7.23-2.215 8.121a1 1 0 0 1 -.964.737 1 1 0 0 1 -.963-.742l-2.737-10.264-2.31 16.148a1 1 0 0 1 -.912.855c-.026.003-.053.003-.078.003z" fill="#e1656e"/><g fill="#b5b5b5"><path d="m46 14h6v2h-6z"/><path d="m54 14h2v2h-2z"/><path d="m46 18h10v2h-10z"/></g></g></svg>