<svg id="Capa_1" enable-background="new 0 0 512 512" height="512" viewBox="0 0 512 512" width="512" xmlns="http://www.w3.org/2000/svg"><g><path d="m487.094 438.17h-453.224l-22.964-340.229h490.187v326.229c.001 7.732-6.267 14-13.999 14z" fill="#f2fbff"/><path d="m51.087 438.168h-25.755c-7.974 0-14.423-6.459-14.423-14.423v-325.805h25.755v325.805c0 7.964 6.449 14.423 14.423 14.423z" fill="#dff6fd"/><path d="m21.413 54.808h480.587c5.523 0 10 4.477 10 10v57.398c0 5.523-4.477 10-10 10h-479.413z" fill="#b289c9"/><path d="m36.056 132.204h-25.754c-5.687 0-10.302-4.615-10.302-10.302v-56.794c0-5.687 4.615-10.302 10.302-10.302h25.755c-5.687 0-10.302 4.615-10.302 10.302v56.794c0 5.687 4.615 10.302 10.301 10.302z" fill="#a274bf"/><g fill="#ffe177"><path d="m91.455 87.057h-20.007c-6.627 0-12-5.373-12-12v-49.367c0-6.627 5.373-12 12-12h20.007c6.627 0 12 5.373 12 12v49.367c0 6.628-5.373 12-12 12z"/><path d="m178.729 87.057h-20.007c-6.627 0-12-5.373-12-12v-49.367c0-6.627 5.373-12 12-12h20.007c6.627 0 12 5.373 12 12v49.367c0 6.628-5.373 12-12 12z"/><path d="m266.003 87.057h-20.007c-6.627 0-12-5.373-12-12v-49.367c0-6.627 5.373-12 12-12h20.007c6.627 0 12 5.373 12 12v49.367c0 6.628-5.372 12-12 12z"/><path d="m353.278 87.057h-20.007c-6.627 0-12-5.373-12-12v-49.367c0-6.627 5.373-12 12-12h20.007c6.627 0 12 5.373 12 12v49.367c0 6.628-5.373 12-12 12z"/></g><path d="m459.752 414.503c0 42.442-31.549 77.516-72.475 83.048-3.706.501-8.085-.333-11.929-.333-46.286 0-73.957-36.428-73.957-82.714s27.866-82.678 74.152-82.678c3.844 0 8.026-.866 11.732-.365 40.927 5.533 72.477 40.6 72.477 83.042z" fill="#c1e9af"/><path d="m387.276 497.547c-3.698.505-7.489.762-11.332.762-46.286 0-83.805-37.519-83.805-83.805s37.519-83.805 83.805-83.805c3.843 0 7.634.258 11.332.762-40.929 5.532-72.473 40.599-72.473 83.043s31.544 77.511 72.473 83.043z" fill="#ade194"/><path d="m440.552 87.057h-20.007c-6.627 0-12-5.373-12-12v-49.367c0-6.627 5.373-12 12-12h20.007c6.627 0 12 5.373 12 12v49.367c0 6.628-5.373 12-12 12z" fill="#ffe177"/><path d="m411.373 400.596h-19.461c-1.138 0-2.06-.922-2.06-2.06v-19.462c0-1.138-.922-2.06-2.06-2.06h-23.694c-1.138 0-2.06.922-2.06 2.06v19.462c0 1.138-.922 2.06-2.06 2.06h-19.462c-1.138 0-2.06.922-2.06 2.06v23.694c0 1.138.922 2.06 2.06 2.06h19.462c1.138 0 2.06.922 2.06 2.06v19.461c0 1.138.922 2.06 2.06 2.06h23.694c1.138 0 2.06-.922 2.06-2.06v-19.461c0-1.138.922-2.06 2.06-2.06h19.461c1.138 0 2.06-.922 2.06-2.06v-23.694c0-1.138-.922-2.06-2.06-2.06z" fill="#fe93bb"/><path d="m188.109 228.523c-8.409-9.199-19.961-71.874 16.434-60.922 7.322 2.203 15.011 6.55 22.59 13.505.796.73 2.037.706 2.807-.051 41.372-40.7 92.059 9.025 50.907 51.752l-39.454 40.954z" fill="#fe93bb"/><path d="m200.865 234.738 40.527 39.023-9.478 9.849c-.783.814-2.091.845-2.905.052l-50.809-48.923c-37.591-36.211-10.055-78.077 26.342-67.137-22.849 7.684-32.78 39.105-3.677 67.136z" fill="#fe76a8"/><path d="m129.556 334.624-9.498 26.27h-29.04l-18.431-17.163 9.498-26.27c3.482-9.632 14.114-14.618 23.746-11.136l12.599 4.553c9.622 3.483 14.608 14.114 11.126 23.746z" fill="#fe93bb"/><path d="m120.057 360.894-9.498 26.27c-3.482 9.632-14.114 14.618-23.746 11.136l-12.589-4.553c-9.632-3.482-14.618-14.113-11.136-23.746l9.498-26.27z" fill="#ffe177"/><path d="m159.493 289.555c-.1 0-.2-.001-.3-.005-3.572-.11-6.757-2.178-8.312-5.395l-40.04-82.834-16.725 32.739c-1.641 3.214-4.903 5.211-8.513 5.211h-22.902c-4.142 0-7.5-3.358-7.5-7.5s3.358-7.5 7.5-7.5h19.571l20.189-39.519c1.662-3.254 4.978-5.292 8.618-5.21 3.654.04 6.912 2.108 8.503 5.398l40.269 83.306 39.415-70.143c1.725-3.068 5.004-4.927 8.5-4.875 3.519.061 6.709 2.041 8.326 5.167l16.821 32.522 15.473-21.311c1.738-2.394 4.43-3.829 7.387-3.937 2.952-.11 5.746 1.126 7.654 3.386l40.4 47.855 41.144-57.659c1.75-2.452 4.48-3.911 7.491-4.002 3.012-.096 5.824 1.198 7.721 3.539l40.844 50.426 17.706-21.465c1.82-2.208 4.509-3.477 7.375-3.477h23.191c4.142 0 7.5 3.358 7.5 7.5s-3.358 7.5-7.5 7.5h-20.626l-20.309 24.621c-1.825 2.211-4.51 3.477-7.375 3.477-.015 0-.029 0-.044 0-2.881-.013-5.573-1.304-7.386-3.543l-40.532-50.04-41.057 57.538c-1.726 2.42-4.421 3.878-7.394 4-2.968.115-5.777-1.114-7.695-3.387l-40.437-47.898-16.576 22.829c-1.963 2.704-5.12 4.17-8.455 3.917-3.332-.251-6.237-2.173-7.772-5.141l-16.24-31.399-39.579 70.435c-1.701 3.025-4.873 4.874-8.329 4.874z" fill="#918291"/><path d="m267.825 330.978h-101.585c-4.142 0-7.5-3.358-7.5-7.5s3.358-7.5 7.5-7.5h101.585c4.142 0 7.5 3.358 7.5 7.5s-3.358 7.5-7.5 7.5z" fill="#918291"/><path d="m267.825 360.853h-101.585c-4.142 0-7.5-3.358-7.5-7.5s3.358-7.5 7.5-7.5h101.585c4.142 0 7.5 3.358 7.5 7.5s-3.358 7.5-7.5 7.5z" fill="#918291"/><path d="m242.63 390.728h-76.39c-4.142 0-7.5-3.358-7.5-7.5s3.358-7.5 7.5-7.5h76.39c4.142 0 7.5 3.358 7.5 7.5s-3.358 7.5-7.5 7.5z" fill="#918291"/></g></svg>