<svg id="Capa_1" enable-background="new 0 0 512 512" height="512" viewBox="0 0 512 512" width="512" xmlns="http://www.w3.org/2000/svg"><g><g><g><path d="m450.058 110.342v136.233c-.652-.798-1.349-1.572-2.092-2.317-12.125-12.148-31.783-12.148-43.908 0l-91.974 92.154c-17.506 17.541-27.341 41.331-27.341 66.137v109.451h47.811 47.422v-56.198l111.846-113.693c12.929-13.143 20.178-30.858 20.178-49.313v-182.454c0-17.138-13.866-31.032-30.971-31.032-17.105.001-30.971 13.894-30.971 31.032z" fill="#edbdab"/><path d="m454.939 270.567c0-8.382-1.634-16.131-4.882-23.992-.652-.798-1.349-1.572-2.092-2.317-10.92-10.941-27.947-12.023-40.081-3.258l6.269 6.282c12.813 12.838 12.815 33.73.001 46.57l-41.365 41.446c-6.091 6.102-6.09 15.996 0 22.097 6.09 6.103 15.964 6.103 22.054 0l41.366-41.446c12.487-12.512 18.73-28.947 18.73-45.382z" fill="#f9a58b"/></g><g><path d="m61.942 110.342v136.233c.652-.798 1.349-1.572 2.092-2.317 12.125-12.148 31.783-12.148 43.908 0l91.974 92.154c17.506 17.541 27.341 41.331 27.341 66.137v109.451h-47.811-47.422v-56.198l-111.845-113.693c-12.93-13.143-20.179-30.858-20.179-49.313v-182.454c0-17.138 13.866-31.032 30.971-31.032 17.105.001 30.971 13.894 30.971 31.032z" fill="#ffddce"/><path d="m57.061 270.567c0-8.382 1.634-16.131 4.882-23.992.652-.798 1.349-1.572 2.092-2.317 10.92-10.941 27.947-12.023 40.081-3.258l-6.269 6.282c-12.813 12.838-12.815 33.73 0 46.57l41.365 41.446c6.091 6.102 6.09 15.996 0 22.097-6.09 6.103-15.964 6.103-22.054 0l-41.366-41.446c-12.488-12.512-18.731-28.947-18.731-45.382z" fill="#ffbca7"/></g></g><g><g><g><path d="m324.02 0c-31.429 0-58.093 24.789-68.02 59.336-9.927-34.547-36.591-59.336-68.02-59.336-39.885 0-71.942 39.855-72.219 89.016-.372 66.352 76.358 153.243 116.463 194.103 13.051 13.297 34.456 13.268 47.466-.069 39.886-40.889 116.175-127.72 116.547-194.034.277-49.161-32.333-89.016-72.217-89.016z" fill="#ff6b6b"/></g><path d="m324.02 0c-31.429 0-58.092 24.789-68.02 59.335v233.737c8.6-.019 17.192-3.36 23.69-10.022 39.886-40.889 116.175-127.72 116.547-194.034.277-49.161-32.333-89.016-72.217-89.016z" fill="#e20059"/></g><g><path d="m290.486 127.473h-19.486v-19.486c0-8.284-6.716-15-15-15s-15 6.716-15 15v19.486h-19.486c-8.284 0-15 6.716-15 15s6.716 15 15 15h19.486v19.486c0 8.284 6.716 15 15 15s15-6.716 15-15v-19.486h19.486c8.284 0 15-6.716 15-15s-6.716-15-15-15z" fill="#fff"/><path d="m290.486 127.473h-19.486v-19.486c0-8.284-6.716-15-15-15v98.972c8.284 0 15-6.716 15-15v-19.486h19.486c8.284 0 15-6.716 15-15s-6.716-15-15-15z" fill="#f9f2f2"/></g></g></g></svg>