<svg enable-background="new 0 0 256 256" height="512" viewBox="0 0 256 256" width="512" xmlns="http://www.w3.org/2000/svg"><g id="Layer_20"><g><g><path d="m227.091 133.546-17.26-13.904c-4.171-3.36-6.596-8.428-6.596-13.784v-.083c0-46.729-37.733-84.646-84.392-84.943-46.867-.299-85.498 38.076-85.497 84.944 0 23.21 9.31 44.243 24.398 59.573 8.04 8.169 11.514 19.792 9.575 31.089l-8.919 51.966c-.457 2.663 1.594 5.096 4.296 5.096h75.898c2.407 0 4.359-1.952 4.359-4.359v-42.709l5.444 2.257c3.724 1.544 7.715 2.338 11.746 2.338h27.171c5.722 0 10.665-4.003 11.853-9.601l1.462-13.428c.329-3.02.028-6.076-.883-8.975l-1.297-4.125c-.417-1.035-.108-2.221.76-2.921l3.08-2.484c.597-.481.944-1.207.944-1.974v-7.687c0-2.773 1.615-5.292 4.135-6.448l18.296-8.398c4.579-2.1 5.348-8.281 1.427-11.44z" fill="#5290db"/></g><g><circle cx="77.375" cy="90.585" fill="#f9d0b4" r="10.482"/></g><g><path d="m82.258 101.323h-9.767c-7.157 0-13.013 5.856-13.013 13.013v8.269c0 1.237 1.003 2.239 2.239 2.239h31.315c1.237 0 2.239-1.003 2.239-2.239v-8.269c0-7.157-5.856-13.013-13.013-13.013z" fill="#fcdd86"/></g><g><circle cx="144.65" cy="57.484" fill="#f9d0b4" r="7.741"/></g><g><path d="m148.256 65.414h-7.213c-5.285 0-9.61 4.324-9.61 9.61v6.106c0 .913.74 1.654 1.654 1.654h23.125c.913 0 1.654-.74 1.654-1.654v-6.106c0-5.286-4.325-9.61-9.61-9.61z" fill="#fca265"/></g><g><circle cx="144.65" cy="123.957" fill="#f9d0b4" r="7.741"/></g><g><path d="m148.256 131.887h-7.213c-5.285 0-9.61 4.324-9.61 9.61v6.106c0 .913.74 1.654 1.654 1.654h23.125c.913 0 1.654-.74 1.654-1.654v-6.106c0-5.286-4.325-9.61-9.61-9.61z" fill="#70d6f9"/></g><g><path d="m142.951 208.933c-.348 0-.702-.073-1.039-.228l-23.866-10.934c-1.256-.575-1.807-2.059-1.231-3.314.574-1.254 2.059-1.808 3.313-1.232l23.866 10.934c1.256.575 1.807 2.059 1.231 3.314-.419.918-1.326 1.46-2.274 1.46z"/></g><g><path d="m138.594 256h-75.898c-2.026 0-3.938-.889-5.244-2.438s-1.858-3.583-1.516-5.581l8.918-51.967c1.818-10.599-1.506-21.407-8.893-28.912-16.196-16.457-25.116-38.236-25.116-61.327-.001-23.334 9.199-45.327 25.905-61.926 16.573-16.469 38.412-25.52 61.543-25.52.189 0 .375.001.564.002 47.904.305 86.877 39.532 86.877 87.443 0 4.707 2.064 9.021 5.664 11.921l17.26 13.904c2.521 2.03 3.787 5.16 3.387 8.373-.399 3.212-2.395 5.936-5.337 7.287l-18.296 8.398c-1.627.747-2.678 2.386-2.678 4.176v7.687c0 1.53-.684 2.958-1.874 3.919l-3.081 2.484c.024.06.035.164.055.226l1.297 4.125c1.021 3.244 1.353 6.607.984 9.994l-1.463 13.429c-.009.083-.022.167-.04.249-1.425 6.711-7.438 11.582-14.298 11.582h-27.172c-4.382 0-8.655-.851-12.704-2.529l-1.986-.824v38.966c.001 3.782-3.076 6.859-6.858 6.859zm-20.299-232.671c-21.804 0-42.39 8.534-58.021 24.066-15.753 15.655-24.428 36.387-24.428 58.38 0 21.771 8.409 42.305 23.68 57.82 8.513 8.649 12.348 21.084 10.257 33.265l-8.918 51.967c-.127.741.203 1.266.411 1.513s.668.66 1.42.66h75.897c1.025 0 1.859-.834 1.859-1.859v-42.709c0-.835.417-1.615 1.111-2.079s1.577-.549 2.346-.231l5.444 2.257c3.438 1.426 7.068 2.148 10.789 2.148h27.172c4.474 0 8.4-3.149 9.382-7.504l1.448-13.296c.293-2.695.029-5.371-.783-7.953l-1.272-4.049c-.77-2.042-.154-4.318 1.552-5.693l3.08-2.484.014-7.715c0-3.738 2.195-7.161 5.592-8.72l18.296-8.398c1.377-.632 2.274-1.857 2.461-3.361.188-1.503-.382-2.91-1.562-3.861l-17.26-13.904c-4.784-3.854-7.527-9.587-7.527-15.731 0-45.255-36.744-82.239-81.908-82.526-.178-.002-.355-.003-.532-.003z"/></g><g><g><g><path d="m177.282 8.85c-4.5-.8-8-4.3-8.9-8.7 0-.2-.4-.2-.4 0-.9 4.4-4.4 7.9-8.9 8.7-.2 0-.2.3 0 .4 4.5.8 8 4.3 8.9 8.7 0 .2.4.2.4 0 .9-4.4 4.4-7.9 8.9-8.7.2-.1.2-.4 0-.4z" fill="#fc657e"/></g></g></g><g><g><g><path d="m51.227 31.894c-3.506-.623-6.232-3.35-6.933-6.777 0-.156-.312-.156-.312 0-.701 3.428-3.428 6.154-6.933 6.777-.156 0-.156.234 0 .312 3.506.623 6.232 3.35 6.933 6.777 0 .156.312.156.312 0 .701-3.428 3.428-6.154 6.933-6.777.155-.078.155-.312 0-.312z" fill="#f5c84c"/></g></g></g><g><g><g><path d="m45.182 181.5h-2.3v-2.3c0-1.7-1.4-3.2-3.2-3.2s-3.2 1.4-3.2 3.2v2.3h-2.3c-1.7 0-3.2 1.4-3.2 3.2s1.4 3.2 3.2 3.2h2.3v2.3c0 1.7 1.4 3.2 3.2 3.2s3.2-1.4 3.2-3.2v-2.3h2.3c1.7 0 3.2-1.4 3.2-3.2s-1.4-3.2-3.2-3.2z" fill="#70d6f9"/></g></g></g><g><g><g><circle cx="191.282" cy="28.4" fill="#f5c84c" r="3.4"/></g></g></g><g><g><g><circle cx="27.282" cy="156.4" fill="#b2e26d" r="3.4"/></g></g></g><g><path d="m77.375 103.567c-7.158 0-12.982-5.824-12.982-12.982s5.824-12.982 12.982-12.982 12.981 5.824 12.981 12.982-5.823 12.982-12.981 12.982zm0-20.964c-4.401 0-7.982 3.581-7.982 7.982s3.581 7.982 7.982 7.982 7.981-3.581 7.981-7.982-3.58-7.982-7.981-7.982z"/></g><g><path d="m93.032 127.344h-31.315c-2.613 0-4.739-2.126-4.739-4.739v-8.269c0-8.554 6.959-15.513 15.514-15.513h9.767c8.555 0 15.514 6.959 15.514 15.513v8.269c-.002 2.613-2.127 4.739-4.741 4.739zm-31.054-5h30.794v-8.008c0-5.797-4.717-10.513-10.514-10.513h-9.767c-5.797 0-10.514 4.716-10.514 10.513v8.008z"/></g><g><path d="m144.649 67.725c-5.646 0-10.24-4.594-10.24-10.241s4.594-10.241 10.24-10.241c5.647 0 10.241 4.594 10.241 10.241s-4.593 10.241-10.241 10.241zm0-15.481c-2.89 0-5.24 2.351-5.24 5.241s2.351 5.241 5.24 5.241 5.241-2.351 5.241-5.241-2.351-5.241-5.241-5.241z"/></g><g><path d="m156.212 85.283h-23.124c-2.291 0-4.154-1.863-4.154-4.153v-6.106c0-6.677 5.433-12.109 12.109-12.109h7.213c6.677 0 12.109 5.432 12.109 12.109v6.106c0 2.29-1.863 4.153-4.153 4.153zm-22.278-5h21.432v-5.26c0-3.92-3.189-7.109-7.109-7.109h-7.213c-3.92 0-7.109 3.189-7.109 7.109v5.26z"/></g><g><path d="m144.649 134.198c-5.646 0-10.24-4.594-10.24-10.241s4.594-10.241 10.24-10.241c5.647 0 10.241 4.594 10.241 10.241s-4.593 10.241-10.241 10.241zm0-15.481c-2.89 0-5.24 2.351-5.24 5.241s2.351 5.241 5.24 5.241 5.241-2.351 5.241-5.241-2.351-5.241-5.241-5.241z"/></g><g><path d="m156.212 151.756h-23.124c-2.291 0-4.154-1.863-4.154-4.154v-6.106c0-6.677 5.433-12.11 12.109-12.11h7.213c6.677 0 12.109 5.433 12.109 12.11v6.106c0 2.291-1.863 4.154-4.153 4.154zm-22.278-5h21.432v-5.26c0-3.92-3.189-7.11-7.109-7.11h-7.213c-3.92 0-7.109 3.189-7.109 7.11v5.26z"/></g><g><path d="m104.229 84.444c-.793 0-1.573-.376-2.059-1.079-.785-1.136-.5-2.693.636-3.478l18.381-12.7c1.135-.785 2.691-.501 3.478.636.785 1.136.5 2.693-.636 3.478l-18.381 12.699c-.433.3-.928.444-1.419.444z"/></g><g><path d="m122.606 140.94c-.49 0-.985-.144-1.419-.443l-18.381-12.7c-1.136-.785-1.421-2.342-.636-3.478.785-1.138 2.343-1.421 3.478-.636l18.381 12.7c1.136.785 1.421 2.342.636 3.478-.485.703-1.266 1.079-2.059 1.079z"/></g></g></g></svg>