<svg enable-background="new 0 0 64 64" height="512" viewBox="0 0 64 64" width="512" xmlns="http://www.w3.org/2000/svg"><g id="Grids" display="none"><g id="Grid_29_" display="inline"><g><path d="m51.9 4.1v55.8h-39.8v-55.8zm.1-.1h-40v56h40z" fill="#f00"/></g><g><path d="m59.9 12.1v39.8h-55.8v-39.8zm.1-.1h-56v40h56z" fill="#4600f0"/></g><g><path d="m55.9 8.1v47.8h-47.8v-47.8zm.1-.1h-48v48h48z" fill="#f0c800"/></g><g><path d="m32 6.1c14.281 0 25.9 11.619 25.9 25.9s-11.619 25.9-25.9 25.9-25.9-11.619-25.9-25.9 11.619-25.9 25.9-25.9m0-.1c-14.359 0-26 11.641-26 26s11.641 26 26 26 26-11.641 26-26-11.641-26-26-26z" fill="#00f096"/></g></g></g><g id="Icons"><g><g><path d="m51.35 40.47-2.76 1.26c-.36.17-.59.52-.59.91v7.36c0 5.57-7.35 4.11-13 3.11-.64-.11-1.22.42-1.17 1.07l.17 1.82h-18v-8.44c0-2.13-.87-4.13-2.35-5.66-3.656-3.761-5.65-8.763-5.65-13.9 0-11.194 9.24-20.136 20.24-19.99 10.76.13 19.76 8.89 19.76 19.99v3.5c0 .33.08.65.24.94l3.57 6.65c.28.51.06 1.14-.46 1.38z" fill="#f2c8a0"/></g><g><g><path d="m34.36 46.28-1.13-.65c.26-1.04.27-2.15 0-3.24l1.13-.65c.48-.27.64-.89.36-1.36l-1-1.74c-.27-.47-.88-.64-1.36-.36l-1.13.65c-.78-.75-1.74-1.31-2.8-1.63v-1.29c0-.55-.45-1-1-1h-2c-.55 0-1 .45-1 1v1.29c-1.06.32-2.02.88-2.8 1.63l-1.13-.65c-.48-.28-1.09-.11-1.36.36l-1 1.74c-.28.47-.12 1.09.36 1.36l1.13.65c-.26 1.04-.27 2.15 0 3.24l-1.13.65c-.48.27-.64.89-.36 1.36l1 1.74c.27.47.88.64 1.36.36l1.13-.65c.78.75 1.74 1.31 2.8 1.63v1.29c0 .55.45 1 1 1h2c.55 0 1-.45 1-1v-1.29c1.06-.32 2.02-.88 2.8-1.63l1.13.65c.48.28 1.09.11 1.36-.36l1-1.74c.28-.47.12-1.09-.36-1.36zm-7.93.73c-1.66 0-3-1.34-3-3s1.34-3 3-3 3 1.34 3 3-1.34 3-3 3z" fill="#d2aa82"/></g></g><g><path d="m39.5 25.28-1.06-.61c.52-1.69.54-3.55 0-5.32l1.06-.61c.48-.27.64-.89.37-1.36l-1-1.74c-.28-.47-.89-.64-1.37-.36l-1.07.62c-1.21-1.31-2.8-2.25-4.59-2.66v-1.23c0-.55-.45-1-1-1h-2c-.55 0-1 .45-1 1v1.23c-1.79.41-3.38 1.35-4.59 2.66l-1.07-.62c-.48-.28-1.09-.11-1.37.36l-1 1.74c-.27.47-.11 1.09.37 1.36l1.06.61c-.25.8-.37 1.64-.39 2.49l-.1.06c-1.21-1.31-2.8-2.25-4.59-2.66v-1.23c0-.55-.45-1-1-1h-2c-.55 0-1 .45-1 1v1.23c-.93.21-1.81.57-2.61 1.05-1 2.37-1.55 4.97-1.55 7.71 0 2.71.55 5.33 1.57 7.74.79.47 1.66.83 2.59 1.04v1.23c0 .55.45 1 1 1h2c.55 0 1-.45 1-1v-1.23c1.79-.41 3.38-1.35 4.59-2.66l1.07.62c.48.28 1.09.11 1.37-.36l1-1.74c.27-.47.11-1.09-.37-1.36l-1.06-.61c.24-.81.37-1.51.39-2.49l.1-.06c1.21 1.31 2.8 2.25 4.59 2.66v1.23c0 .55.45 1 1 1h2c.55 0 1-.45 1-1v-1.23c1.79-.41 3.38-1.35 4.59-2.66l1.07.62c.48.28 1.09.11 1.37-.36l1-1.74c.27-.47.11-1.09-.37-1.36zm-25.34 7.73c-2.76 0-5-2.24-5-5s2.24-5 5-5 5 2.24 5 5-2.24 5-5 5zm15.68-6c-2.76 0-5-2.24-5-5s2.24-5 5-5 5 2.24 5 5-2.24 5-5 5z" fill="#d2aa82"/></g><g><g><g><path d="m23.82 30.28-1.06-.61c.54-1.827.516-3.625 0-5.32l1.06-.61c.48-.27.64-.89.37-1.36l-1-1.74c-.28-.47-.89-.64-1.37-.36l-.72.42-.17.1-.18.1c-1.21-1.31-2.8-2.25-4.59-2.66v-1.23c0-.55-.45-1-1-1h-2c-.55 0-1 .45-1 1v1.23c-1.79.41-3.38 1.35-4.59 2.66l-1.07-.62c-.48-.28-1.09-.11-1.37.36l-1 1.74c-.27.47-.11 1.09.37 1.36l1.06.61c-.52 1.69-.54 3.55 0 5.32l-1.06.61c-.48.27-.64.89-.37 1.36l1 1.74c.28.47.89.64 1.37.36l1.07-.62c1.21 1.31 2.8 2.25 4.59 2.66v1.23c0 .55.45 1 1 1h2c.55 0 1-.45 1-1v-1.23c1.79-.41 3.38-1.35 4.59-2.66l1.07.62c.48.28 1.09.11 1.37-.36l1-1.74c.27-.47.11-1.09-.37-1.36zm-9.66 1.73c-2.76 0-5-2.24-5-5s2.24-5 5-5 5 2.24 5 5-2.24 5-5 5z" fill="#c80a50"/></g></g><g><g><path d="m24.19 22.38-1-1.74c-.28-.47-.89-.64-1.37-.36l-.72.42-.17.1c-.18 1.27-.08 2.59.31 3.87l-1.06.61c-.48.27-.64.89-.37 1.36l1 1.74c.28.47.89.64 1.37.36l.89-.52c.18-1.27.08-2.59-.31-3.87l1.06-.61c.48-.27.64-.89.37-1.36z" fill="#a00028"/></g></g><g><g><path d="m39.499 24.28-1.06-.61c.52-1.69.54-3.55 0-5.32l1.06-.61c.48-.27.64-.89.37-1.36l-1-1.74c-.28-.47-.89-.64-1.37-.36l-1.07.62c-1.21-1.31-2.8-2.25-4.59-2.66v-1.23c0-.55-.45-1-1-1h-2c-.55 0-1 .45-1 1v1.23c-1.79.41-3.38 1.35-4.59 2.66l-1.07-.62c-.48-.28-1.09-.11-1.37.36l-1 1.74c-.27.47-.11 1.09.37 1.36l1.06.61c-.52 1.69-.54 3.55 0 5.32l-1.06.61c-.48.27-.64.89-.37 1.36l1 1.74c.28.47.89.64 1.37.36l1.07-.62c1.21 1.31 2.8 2.25 4.59 2.66v1.23c0 .55.45 1 1 1h2c.55 0 1-.45 1-1v-1.23c1.79-.41 3.38-1.35 4.59-2.66l1.07.62c.48.28 1.09.11 1.37-.36l1-1.74c.27-.47.11-1.09-.37-1.36zm-9.66 1.73c-2.76 0-5-2.24-5-5s2.24-5 5-5 5 2.24 5 5-2.24 5-5 5z" fill="#00a0c8"/></g></g><g><path d="m34.358 45.28-1.13-.65c.261-1.044.272-2.15 0-3.24l1.13-.65c.48-.27.64-.89.36-1.36l-1-1.74c-.27-.47-.88-.64-1.36-.36l-1.13.65c-.78-.75-1.74-1.31-2.8-1.63v-1.29c0-.55-.45-1-1-1h-2c-.55 0-1 .45-1 1v1.29c-1.06.32-2.02.88-2.8 1.63l-1.13-.65c-.48-.28-1.09-.11-1.36.36l-1 1.74c-.28.47-.12 1.09.36 1.36l1.13.65c-.261 1.044-.272 2.15 0 3.24l-1.13.65c-.48.27-.64.89-.36 1.36l1 1.74c.27.47.88.64 1.36.36l1.13-.65c.78.75 1.74 1.31 2.8 1.63v1.29c0 .55.45 1 1 1h2c.55 0 1-.45 1-1v-1.29c1.06-.32 2.02-.88 2.8-1.63l1.13.65c.48.28 1.09.11 1.36-.36l1-1.74c.28-.47.12-1.09-.36-1.36zm-7.93.73c-1.66 0-3-1.34-3-3s1.34-3 3-3 3 1.34 3 3-1.34 3-3 3z" fill="#0a5078"/></g></g><g><path d="m43 34.01c-.552 0-1-.448-1-1v-2c0-.552.448-1 1-1 .552 0 1 .448 1 1v2c0 .552-.448 1-1 1z" fill="#00143c"/></g><g><path d="m43 46.01h5v-2h-5c-.552 0-1 .448-1 1 0 .552.448 1 1 1z" fill="#00143c"/></g><g><path d="m60 31c0 .55-.45 1-1 1h-3v.99c0 .88-1.05 1.33-1.69.73l-2.11-1.993c-.418-.395-.418-1.059 0-1.454l2.11-1.993c.64-.6 1.69-.15 1.69.73v.99h3c.55 0 1 .45 1 1z" fill="#c80a50"/></g><g><path d="m60 16.994c0 .55-.45 1-1 1h-3v.99c0 .88-1.05 1.33-1.69.73l-2.11-1.993c-.418-.395-.418-1.059 0-1.454l2.11-1.993c.64-.6 1.69-.15 1.69.73v.99h3c.55 0 1 .45 1 1z" fill="#00a0c8"/></g><g><path d="m60 45.006c0 .55-.45 1-1 1h-3v.99c0 .88-1.05 1.33-1.69.73l-2.11-1.993c-.418-.395-.418-1.059 0-1.454l2.11-1.993c.64-.6 1.69-.15 1.69.73v.99h3c.55 0 1 .45 1 1z" fill="#0a5078"/></g></g></g></svg>