<svg enable-background="new 0 0 256 256" height="512" viewBox="0 0 256 256" width="512" xmlns="http://www.w3.org/2000/svg"><g id="Layer_14"><g><g><path d="m227.091 133.546-17.26-13.904c-4.171-3.36-6.596-8.428-6.596-13.784v-.083c0-46.729-37.733-84.646-84.392-84.943-46.867-.299-85.498 38.076-85.497 84.944 0 23.21 9.31 44.243 24.398 59.573 8.04 8.169 11.514 19.792 9.575 31.089l-8.919 51.966c-.457 2.663 1.594 5.096 4.296 5.096h75.898c2.407 0 4.359-1.952 4.359-4.359v-42.709l5.444 2.257c3.724 1.544 7.715 2.338 11.746 2.338h27.171c5.722 0 10.665-4.003 11.853-9.601l1.462-13.428c.329-3.02.028-6.076-.883-8.975l-1.297-4.125c-.417-1.035-.108-2.221.76-2.921l3.08-2.484c.597-.481.944-1.207.944-1.974v-7.687c0-2.773 1.615-5.292 4.135-6.448l18.296-8.398c4.579-2.1 5.348-8.281 1.427-11.44z" fill="#dae6f1"/></g><g><path d="m144.615 100.782h-7.29c-.362-1.172-.834-2.296-1.398-3.364l5.158-5.158c.634-.634.634-1.661 0-2.295l-5.917-5.917c-.634-.634-1.661-.634-2.295 0l-5.158 5.158c-1.067-.564-2.191-1.036-3.364-1.398v-7.29c0-.896-.726-1.623-1.623-1.623h-8.367c-.896 0-1.623.726-1.623 1.623v7.29c-1.172.362-2.296.834-3.364 1.398l-5.158-5.158c-.634-.634-1.661-.634-2.295 0l-5.917 5.917c-.634.634-.634 1.661 0 2.295l5.158 5.158c-.564 1.067-1.036 2.191-1.398 3.364h-7.29c-.896 0-1.623.726-1.623 1.623v8.367c0 .896.726 1.623 1.623 1.623h7.29c.362 1.172.834 2.296 1.398 3.364l-5.158 5.158c-.634.634-.634 1.661 0 2.295l5.917 5.917c.634.634 1.661.634 2.295 0l5.158-5.158c1.067.564 2.191 1.036 3.364 1.398v7.29c0 .896.726 1.623 1.623 1.623h8.367c.896 0 1.623-.726 1.623-1.623v-7.29c1.172-.362 2.296-.834 3.364-1.398l5.158 5.158c.634.634 1.661.634 2.295 0l5.917-5.917c.634-.634.634-1.661 0-2.295l-5.158-5.158c.564-1.067 1.036-2.191 1.398-3.364h7.29c.896 0 1.623-.726 1.623-1.623v-8.367c-.001-.897-.727-1.623-1.623-1.623zm-15.881 7.142c-.577 4.579-4.274 8.276-8.853 8.853-6.72.847-12.371-4.804-11.524-11.524.577-4.578 4.274-8.276 8.853-8.853 6.72-.847 12.371 4.804 11.524 11.524z" fill="#fcdd86"/></g><g><path d="m192.301 96.392c-1.812-1.497-4.512-1.228-6.174.434l-5.551 5.551c-1.568-23.42-16.091-43.341-36.45-52.65-2.99-1.367-6.398.8-6.398 4.088 0 1.764 1.035 3.356 2.639 4.088 17.304 7.899 29.697 24.748 31.204 44.599l-5.677-5.677c-1.662-1.662-4.361-1.931-6.173-.434-2.079 1.717-2.188 4.801-.327 6.661l13.435 13.435c.879.878 2.03 1.318 3.182 1.318s2.304-.439 3.182-1.318l13.436-13.435c1.86-1.859 1.751-4.943-.328-6.66z" fill="#fca265"/></g><g><path d="m65.226 87.588c1.779 0 3.383-1.052 4.107-2.678 7.886-17.72 25.123-30.388 45.411-31.7l-5.976 5.977c-1.824 1.824-1.915 4.905-.016 6.652.859.79 1.951 1.185 3.043 1.185 1.151 0 2.304-.439 3.182-1.318l13.433-13.436c1.757-1.757 1.757-4.607 0-6.364l-13.435-13.435c-1.86-1.861-4.948-1.751-6.663.33-1.495 1.814-1.223 4.512.439 6.174l5.265 5.266c-23.624 1.581-43.692 16.341-52.896 36.978-1.332 2.99.831 6.369 4.106 6.369z" fill="#fcdd86"/></g><g><path d="m97.012 155.697c-17.962-7.791-30.837-25.158-32.161-45.623l6.277 6.276c1.662 1.662 4.361 1.931 6.174.434 2.079-1.717 2.188-4.801.327-6.661l-13.436-13.434c-1.758-1.757-4.607-1.757-6.363 0l-13.28 13.28c-1.824 1.824-1.915 4.905-.016 6.652.859.79 1.951 1.185 3.043 1.185 1.151 0 2.304-.439 3.182-1.318l5.157-5.157c1.78 23.598 16.717 43.582 37.479 52.608 2.988 1.299 6.335-.86 6.335-4.119-.001-1.794-1.072-3.409-2.718-4.123z" fill="#70d6f9"/></g><g><path d="m171.232 125.588c-1.78 0-3.384 1.054-4.107 2.68-7.809 17.545-24.783 30.142-44.809 31.663l5.955-5.956c1.662-1.662 1.934-4.361.439-6.174-1.714-2.08-4.803-2.19-6.663-.33l-13.435 13.435c-1.757 1.757-1.757 4.607 0 6.364l13.435 13.435c.878.878 2.03 1.318 3.182 1.318 1.092 0 2.185-.395 3.043-1.185 1.899-1.747 1.808-4.827-.016-6.652l-5.283-5.284c23.394-1.765 43.231-16.464 52.365-36.948 1.332-2.989-.833-6.366-4.106-6.366z" fill="#fc657e"/></g><g><path d="m142.951 208.933c-.348 0-.702-.073-1.039-.228l-23.866-10.934c-1.256-.575-1.807-2.059-1.231-3.314.574-1.254 2.059-1.808 3.313-1.232l23.866 10.934c1.256.575 1.807 2.059 1.231 3.314-.419.918-1.326 1.46-2.274 1.46z"/></g><g><path d="m138.594 256h-75.898c-2.026 0-3.938-.889-5.244-2.438s-1.858-3.583-1.516-5.581l8.918-51.967c1.818-10.599-1.506-21.407-8.893-28.912-16.196-16.457-25.116-38.236-25.116-61.327-.001-23.334 9.199-45.327 25.905-61.926 16.709-16.604 38.744-25.668 62.107-25.518 47.904.305 86.877 39.532 86.877 87.443 0 4.707 2.064 9.021 5.664 11.921l17.26 13.904c2.521 2.03 3.787 5.16 3.387 8.373-.399 3.212-2.395 5.936-5.337 7.287l-18.296 8.398c-1.627.747-2.678 2.386-2.678 4.176v7.687c0 1.53-.684 2.958-1.874 3.919l-3.081 2.484c.024.06.035.164.055.226l1.297 4.125c1.021 3.244 1.353 6.607.984 9.994l-1.463 13.429c-.009.083-.022.167-.04.249-1.425 6.711-7.438 11.582-14.298 11.582h-27.172c-4.382 0-8.655-.851-12.704-2.529l-1.986-.824v38.966c.001 3.782-3.076 6.859-6.858 6.859zm-20.299-232.671c-21.804 0-42.39 8.534-58.021 24.066-15.753 15.655-24.428 36.387-24.428 58.38 0 21.771 8.409 42.305 23.68 57.82 8.513 8.649 12.348 21.084 10.257 33.265l-8.918 51.967c-.127.741.203 1.266.411 1.513s.668.66 1.42.66h75.897c1.025 0 1.859-.834 1.859-1.859v-42.709c0-.835.417-1.615 1.111-2.079s1.577-.549 2.346-.231l5.444 2.257c3.438 1.426 7.068 2.148 10.789 2.148h27.172c4.474 0 8.4-3.149 9.382-7.504l1.448-13.296c.293-2.695.029-5.371-.783-7.953l-1.272-4.049c-.77-2.042-.154-4.318 1.552-5.693l3.08-2.484.014-7.715c0-3.738 2.195-7.161 5.592-8.72l18.296-8.398c1.377-.632 2.274-1.857 2.461-3.361.188-1.503-.382-2.91-1.562-3.861l-17.26-13.904c-4.784-3.854-7.527-9.587-7.527-15.731 0-45.255-36.744-82.239-81.908-82.526-.178-.002-.355-.003-.532-.003z"/></g><g><g><g><path d="m177.282 8.85c-4.5-.8-8-4.3-8.9-8.7 0-.2-.4-.2-.4 0-.9 4.4-4.4 7.9-8.9 8.7-.2 0-.2.3 0 .4 4.5.8 8 4.3 8.9 8.7 0 .2.4.2.4 0 .9-4.4 4.4-7.9 8.9-8.7.2-.1.2-.4 0-.4z" fill="#f5c84c"/></g></g></g><g><g><g><path d="m51.227 31.894c-3.506-.623-6.232-3.35-6.933-6.777 0-.156-.312-.156-.312 0-.701 3.428-3.428 6.154-6.933 6.777-.156 0-.156.234 0 .312 3.506.623 6.232 3.35 6.933 6.777 0 .156.312.156.312 0 .701-3.428 3.428-6.154 6.933-6.777.155-.078.155-.312 0-.312z" fill="#b2e26d"/></g></g></g><g><g><g><path d="m45.182 181.5h-2.3v-2.3c0-1.7-1.4-3.2-3.2-3.2s-3.2 1.4-3.2 3.2v2.3h-2.3c-1.7 0-3.2 1.4-3.2 3.2s1.4 3.2 3.2 3.2h2.3v2.3c0 1.7 1.4 3.2 3.2 3.2s3.2-1.4 3.2-3.2v-2.3h2.3c1.7 0 3.2-1.4 3.2-3.2s-1.4-3.2-3.2-3.2z" fill="#70d6f9"/></g></g></g><g><g><g><circle cx="191.282" cy="28.4" fill="#fc657e" r="3.4"/></g></g></g><g><g><g><circle cx="27.282" cy="156.4" fill="#f5c84c" r="3.4"/></g></g></g><g><path d="m122.729 136.78h-8.367c-2.273 0-4.123-1.85-4.123-4.123v-5.531c-.114-.046-.229-.094-.343-.143l-3.911 3.911c-1.607 1.606-4.224 1.606-5.829.001l-5.917-5.918c-.778-.778-1.208-1.813-1.208-2.915 0-1.101.429-2.137 1.208-2.915l3.911-3.911c-.049-.114-.097-.229-.143-.343h-5.531c-2.272 0-4.122-1.85-4.122-4.123v-8.368c0-2.273 1.85-4.123 4.122-4.123h5.531c.046-.115.094-.229.143-.343l-3.911-3.911c-.778-.778-1.208-1.813-1.208-2.915 0-1.101.429-2.137 1.208-2.915l5.916-5.917c1.607-1.607 4.224-1.606 5.829-.001l3.912 3.912c.114-.049.229-.096.343-.143v-5.53c0-2.273 1.85-4.123 4.123-4.123h8.367c2.272 0 4.122 1.85 4.122 4.123v5.53c.115.046.229.094.344.143l3.91-3.911c1.607-1.607 4.224-1.606 5.829-.001l5.918 5.918c.779.778 1.208 1.814 1.208 2.915 0 1.102-.43 2.137-1.209 2.916l-3.91 3.91c.049.114.097.228.143.343h5.53c2.273 0 4.123 1.85 4.123 4.123v8.368c0 2.273-1.85 4.123-4.123 4.123h-5.53c-.046.114-.094.229-.143.343l3.911 3.911c.779.778 1.208 1.814 1.208 2.915 0 1.102-.43 2.137-1.209 2.916l-5.916 5.916c-1.607 1.606-4.224 1.606-5.829.001l-3.911-3.912c-.114.049-.229.097-.344.143v5.53c.001 2.274-1.849 4.124-4.122 4.124zm-7.49-5h6.612v-6.413c0-1.097.715-2.065 1.763-2.389.999-.309 1.986-.719 2.933-1.219.971-.514 2.162-.333 2.937.442l4.537 4.538 4.676-4.676-4.537-4.538c-.776-.776-.955-1.967-.442-2.937.5-.946.911-1.932 1.22-2.933.324-1.047 1.292-1.762 2.389-1.762h6.412v-6.613h-6.412c-1.097 0-2.064-.714-2.389-1.762-.309-1-.719-1.986-1.22-2.933-.513-.97-.334-2.161.442-2.936l4.537-4.538-4.676-4.676-4.537 4.538c-.775.775-1.966.956-2.937.442-.946-.5-1.934-.911-2.933-1.219-1.048-.323-1.763-1.292-1.763-2.389v-6.412h-6.612v6.412c0 1.097-.715 2.065-1.763 2.389-.999.309-1.985.719-2.932 1.219-.972.514-2.162.333-2.937-.442l-4.538-4.538-4.675 4.676 4.537 4.538c.776.775.955 1.966.442 2.936-.501.947-.911 1.934-1.22 2.933-.324 1.047-1.292 1.762-2.389 1.762h-6.412v6.613h6.412c1.097 0 2.064.714 2.389 1.762.309 1 .72 1.987 1.22 2.933.513.97.334 2.161-.442 2.937l-4.537 4.538 4.675 4.676 4.538-4.538c.774-.776 1.964-.957 2.937-.442.946.5 1.933.911 2.932 1.219 1.048.323 1.763 1.292 1.763 2.389zm29.375-28.498h.01zm-26.069 16.079c-3.387 0-6.609-1.319-9.03-3.741-2.813-2.812-4.139-6.705-3.638-10.68.715-5.671 5.35-10.306 11.021-11.021 3.977-.498 7.868.825 10.68 3.638 2.813 2.812 4.139 6.705 3.638 10.679-.715 5.671-5.351 10.306-11.021 11.021-.553.069-1.104.104-1.65.104zm-.01-20.545c-.336 0-.674.021-1.013.064-3.439.434-6.251 3.245-6.685 6.685-.307 2.431.5 4.807 2.212 6.52s4.096 2.521 6.519 2.211c3.44-.433 6.252-3.245 6.686-6.685.307-2.431-.5-4.807-2.212-6.519-1.474-1.473-3.438-2.276-5.507-2.276zm10.199 9.108h.01z"/></g><g><path d="m176.011 120.305c-1.869 0-3.627-.728-4.949-2.05l-13.435-13.435c-1.392-1.391-2.136-3.316-2.042-5.282.093-1.965 1.021-3.815 2.545-5.074 2.745-2.269 6.933-2.006 9.533.594l.321.321c-3.47-15.395-13.983-28.504-28.654-35.201-2.491-1.138-4.102-3.635-4.102-6.363 0-2.393 1.202-4.593 3.215-5.886 2.022-1.298 4.537-1.476 6.723-.476 20.158 9.216 34.099 27.867 37.333 49.466l1.861-1.861c2.601-2.6 6.788-2.861 9.532-.594 1.524 1.259 2.453 3.108 2.546 5.074.094 1.966-.651 3.892-2.044 5.283l-13.435 13.434c-1.32 1.322-3.078 2.05-4.948 2.05zm-13.51-22.39c-.436 0-.857.132-1.188.405-.446.369-.708.886-.734 1.456-.027.571.18 1.107.583 1.51l13.435 13.435c.756.755 2.073.754 2.827 0l13.437-13.436c.403-.403.611-.939.584-1.509-.027-.569-.288-1.086-.735-1.456h-.001c-.765-.633-2.026-.51-2.813.274l-5.552 5.551c-.694.694-1.73.916-2.646.572-.918-.345-1.55-1.195-1.615-2.173-1.473-21.98-14.881-41.347-34.995-50.544-.914-.417-1.664-.044-1.942.136-.275.177-.917.695-.917 1.679 0 .775.462 1.487 1.178 1.814 18.604 8.493 31.117 26.381 32.659 46.684.079 1.043-.499 2.025-1.449 2.461-.951.436-2.071.236-2.812-.504l-5.677-5.677c-.447-.446-1.05-.678-1.627-.678z"/></g><g><path d="m65.226 90.088c-2.379 0-4.572-1.191-5.866-3.186-1.303-2.007-1.497-4.513-.521-6.702 9.13-20.473 27.88-34.622 49.721-37.883l-1.574-1.575c-2.601-2.6-2.864-6.787-.601-9.532 1.256-1.525 3.105-2.455 5.072-2.549 1.962-.091 3.896.649 5.287 2.042l13.434 13.435c1.322 1.322 2.051 3.08 2.051 4.95s-.729 3.628-2.051 4.95l-13.435 13.435c-1.321 1.322-3.079 2.05-4.949 2.05-1.761 0-3.442-.655-4.736-1.846-1.374-1.264-2.153-3.016-2.193-4.932-.041-1.987.737-3.928 2.136-5.326l.74-.74c-15.897 3.32-29.367 14.067-36.124 29.248-1.125 2.527-3.634 4.161-6.391 4.161zm46.571-56.435c-.033 0-.066 0-.101.002-.569.027-1.086.288-1.453.734-.633.768-.508 2.031.277 2.817l5.265 5.266c.693.693.918 1.729.572 2.646-.345.918-1.194 1.55-2.173 1.616-22.219 1.487-41.677 15.09-50.779 35.501-.409.917-.032 1.665.148 1.943.177.273.694.908 1.672.908.784 0 1.5-.468 1.822-1.193 8.51-19.12 26.724-31.833 47.534-33.179 1.037-.062 2.01.516 2.438 1.464.43.948.227 2.063-.51 2.798l-5.976 5.977c-.44.44-.685 1.055-.672 1.687.007.314.091.907.58 1.357.759.698 2.032.672 2.764-.06l13.436-13.436c.378-.378.586-.88.586-1.415s-.208-1.037-.586-1.415l-13.435-13.435c-.378-.377-.875-.583-1.409-.583z"/></g><g><path d="m95.218 166.821c-.954 0-1.913-.194-2.819-.588-20.599-8.955-34.936-27.621-38.369-49.48l-1.504 1.503c-1.321 1.322-3.079 2.05-4.949 2.05-1.761 0-3.442-.655-4.736-1.846-1.374-1.264-2.153-3.016-2.193-4.932-.041-1.987.737-3.928 2.136-5.326l13.279-13.28c1.32-1.322 3.078-2.05 4.948-2.05s3.628.728 4.95 2.049l13.436 13.435c1.392 1.391 2.137 3.317 2.043 5.283-.093 1.965-1.021 3.815-2.546 5.074-2.744 2.267-6.933 2.007-9.532-.594l-1.045-1.044c3.347 16.085 14.261 29.637 29.691 36.33 2.564 1.113 4.222 3.631 4.222 6.417 0 2.365-1.18 4.551-3.156 5.847-1.168.763-2.507 1.152-3.856 1.152zm-39.303-57.99c.292 0 .586.051.869.156.916.34 1.551 1.182 1.624 2.156 1.676 22.232 15.464 41.583 35.983 50.504.92.399 1.663.02 1.938-.161.271-.177.898-.694.898-1.666 0-.792-.476-1.511-1.212-1.83-19.401-8.415-32.299-26.713-33.661-47.754-.066-1.039.517-2.01 1.464-2.439.95-.431 2.063-.226 2.799.509l6.277 6.276c.785.785 2.046.909 2.813.275.447-.37.708-.887.735-1.456.027-.57-.181-1.106-.584-1.51l-13.433-13.434c-.755-.754-2.072-.756-2.827-.001l-13.28 13.281c-.44.44-.685 1.055-.672 1.687.007.314.091.907.58 1.357.76.698 2.032.672 2.764-.06l5.158-5.157c.477-.478 1.116-.733 1.767-.733z"/></g><g><path d="m125.229 184.523c-1.87 0-3.628-.728-4.95-2.051l-13.434-13.435c-2.729-2.729-2.729-7.169-.001-9.899l13.436-13.436c1.391-1.392 3.325-2.14 5.287-2.042 1.967.094 3.815 1.023 5.072 2.549 2.263 2.746 1.999 6.933-.601 9.532l-.603.604c15.575-3.499 28.766-14.179 35.405-29.095 1.126-2.529 3.635-4.163 6.392-4.163 2.379 0 4.572 1.191 5.867 3.187 1.303 2.006 1.497 4.51.521 6.698-9.044 20.284-27.609 34.41-49.229 37.815l1.631 1.632c1.398 1.398 2.177 3.339 2.136 5.326-.04 1.916-.819 3.668-2.194 4.933-1.293 1.19-2.976 1.845-4.735 1.845zm-.003-35.87c-.533 0-1.031.206-1.411.585l-13.435 13.435c-.779.78-.779 2.049 0 2.829l13.435 13.435c.733.733 2.006.759 2.766.06.489-.45.573-1.043.58-1.357.013-.631-.231-1.246-.672-1.687l-5.283-5.284c-.691-.691-.916-1.721-.576-2.637s1.182-1.55 2.155-1.624c21.991-1.659 41.254-15.251 50.271-35.474.408-.915.032-1.661-.148-1.939-.178-.273-.695-.909-1.674-.909-.784 0-1.5.47-1.823 1.196-8.405 18.883-26.378 31.581-46.904 33.139-1.033.083-2.025-.498-2.461-1.449-.437-.95-.235-2.072.504-2.811l5.955-5.956c.785-.786.91-2.049.277-2.817-.368-.446-.884-.708-1.454-.735-.035.001-.069 0-.102 0z"/></g></g></g></svg>