<svg id="Capa_1" enable-background="new 0 0 512 512" height="512" viewBox="0 0 512 512" width="512" xmlns="http://www.w3.org/2000/svg"><g><g><g><g><path d="m339.652 50.245-23.527 13.583c-4.054-3.37-8.428-6.462-13.152-9.192-4.725-2.73-9.591-4.964-14.541-6.789l.005-27.169c-.002-7.284-5.901-13.179-13.185-13.176l-38.506.002c-7.274-.003-13.178 5.901-13.182 13.175l.005 27.163c-9.999 3.665-19.395 9.023-27.727 15.968l-23.494-13.562c-6.301-3.634-14.357-1.478-18.001 4.829l-19.255 33.346c-3.634 6.301-1.478 14.357 4.829 18.001l23.484 13.567c-1.839 10.682-1.789 21.514.031 31.992l-23.527 13.583c-6.295 3.634-8.456 11.7-4.816 18.005l19.251 33.344c3.64 6.304 11.706 8.466 18.001 4.832l23.527-13.583c4.054 3.37 8.428 6.462 13.152 9.192 4.725 2.729 9.596 4.974 14.547 6.799l-.001 27.153c.002 7.284 5.901 13.179 13.175 13.182l38.512.008c7.278-.012 13.179-5.901 13.176-13.185l.001-27.153c9.994-3.675 19.399-9.039 27.721-15.978l23.494 13.562c6.307 3.644 14.372 1.483 18.006-4.819l19.249-33.356c3.644-6.307 1.488-14.362-4.819-18.006l-23.494-13.562c1.849-10.688 1.795-21.504-.031-31.992l23.527-13.583c6.304-3.64 8.456-11.7 4.816-18.005l-19.251-33.344c-3.639-6.305-11.695-8.472-18-4.832zm-35.898 113.326c-15.221 26.374-48.951 35.413-75.331 20.182-26.374-15.221-35.413-48.951-20.182-75.331 15.232-26.38 48.951-35.414 75.331-20.182 26.38 15.231 35.414 48.951 20.182 75.331z" fill="#685e68"/></g><path d="m124.75 275.472v-123.291h262.5v74.262" fill="#ffc344"/><path d="m348.895 504.493h-185.79c0-51.3 41.59-92.89 92.9-92.89 25.65 0 48.87 10.4 65.68 27.21s27.21 40.03 27.21 65.68z" fill="#9be69d"/><path d="m280.635 414.903c-39.36 10.78-68.28 46.81-68.28 89.59h-49.25c0-51.3 41.6-92.89 92.9-92.89 8.53 0 16.79 1.15 24.63 3.3z" fill="#6fd7a3"/><path d="m417.79 267.883c0 22.89-13.67 41.44-30.54 41.44-7.62 0-14.58-3.79-19.93-10.06-5.51 41.27-33.43 75.45-71.12 89.9-3.15 1.21-6.38 2.28-9.66 3.21v16.94c0 8.44-3.42 16.07-8.94 21.6-5.53 5.52-13.17 8.94-21.6 8.94-16.87 0-30.54-13.67-30.54-30.54v-16.94c-42.52-11.99-74.81-48.39-80.78-93.11-5.35 6.27-12.31 10.06-19.93 10.06-16.87 0-30.54-18.55-30.54-41.44s13.67-41.44 30.54-41.44c7.15 0 13.73 3.35 18.93 8.94 46.34-8.64 62.97-61.85 62.97-61.85s35.78 61.98 158.53 32.41c2.06 8.48 3.14 17.33 3.14 26.44v3c5.2-5.59 11.78-8.94 18.93-8.94 16.87 0 30.54 18.55 30.54 41.44z" fill="#ffdfcf"/><path d="m296.2 389.163c-3.15 1.21-6.38 2.28-9.66 3.21v16.94c0 8.44-3.42 16.07-8.94 21.6-5.53 5.52-13.17 8.94-21.6 8.94-16.87 0-30.54-13.67-30.54-30.54v-16.94c-42.52-11.99-74.81-48.39-80.78-93.11-5.35 6.27-12.31 10.06-19.93 10.06-16.87 0-30.54-18.55-30.54-41.44s13.67-41.44 30.54-41.44c7.15 0 13.73 3.35 18.93 8.94 6.72-1.25 12.81-3.44 18.31-6.27-.04 7.92-.06 13.36-.06 14.82 0 76.77 55.83 139.01 124.7 139.01 3.63 0 6.83 2.25 9.57 6.22z" fill="#ffcebf"/><g><path d="m378.9 275.472s2.328-15.629 14.632-21.948c0 0 9.502 12.637 1.965 24.608s-16.597-2.66-16.597-2.66z" fill="#ffcebf"/><path d="m133.1 275.472s-2.328-15.629-14.632-21.948c0 0-9.502 12.637-1.965 24.608s16.597-2.66 16.597-2.66z" fill="#ffb09e"/></g></g><g><circle cx="429.527" cy="195.843" fill="#fef056" r="74.973"/><path d="m449.023 268.253c-6.21 1.67-12.75 2.56-19.49 2.56-41.41 0-74.98-33.57-74.98-74.97 0-41.41 33.57-74.98 74.98-74.98 6.74 0 13.28.89 19.49 2.56-31.96 8.58-55.49 37.75-55.49 72.42 0 34.66 23.53 63.83 55.49 72.41z" fill="#fedf30"/></g><g><circle cx="82.473" cy="195.843" fill="#fe646f" r="74.973"/><path d="m101.97 268.253c-6.21 1.67-12.75 2.56-19.49 2.56-41.41 0-74.98-33.57-74.98-74.97 0-41.41 33.57-74.98 74.98-74.98 6.74 0 13.28.89 19.49 2.56-31.96 8.58-55.49 37.75-55.49 72.42 0 34.66 23.53 63.83 55.49 72.41z" fill="#fd4755"/></g></g><g><path d="m236.244 247.435c0-4.142-3.358-7.5-7.5-7.5s-7.5 3.358-7.5 7.5v19.735c0 4.142 3.358 7.5 7.5 7.5s7.5-3.358 7.5-7.5z"/><path d="m290.756 267.171v-19.735c0-4.142-3.357-7.5-7.5-7.5s-7.5 3.358-7.5 7.5v19.735c0 4.142 3.357 7.5 7.5 7.5s7.5-3.358 7.5-7.5z"/><path d="m240.265 326.774h31.469c4.143 0 7.5-3.358 7.5-7.5s-3.357-7.5-7.5-7.5h-31.469c-4.142 0-7.5 3.358-7.5 7.5s3.358 7.5 7.5 7.5z"/><path d="m437.026 113.726v-25.23c0-13.064-10.628-23.692-23.691-23.692h-41.406l-7.781-13.474c-5.688-9.871-18.355-13.272-28.25-7.58l-19.114 11.044c-3.251-2.439-6.622-4.668-10.069-6.658-3.457-1.992-7.068-3.793-10.785-5.381v-22.08c0-11.397-9.272-20.67-20.67-20.67h-38.51c-11.403 0-20.68 9.273-20.68 20.67v22.07c-7.44 3.177-14.432 7.205-20.883 12.032l-19.093-11.03c-9.869-5.687-22.539-2.289-28.239 7.578l-7.785 13.48h-41.404c-13.064 0-23.692 10.628-23.692 23.692v25.228c-41.973 3.802-74.974 39.168-74.974 82.113 0 12.01 2.528 23.602 7.515 34.452 1.729 3.764 6.181 5.412 9.947 3.683 3.764-1.73 5.413-6.183 3.683-9.947-4.078-8.871-6.145-18.355-6.145-28.188 0-37.203 30.267-67.47 67.47-67.47 37.208 0 67.48 30.267 67.48 67.47 0 37.208-30.271 67.48-67.48 67.48-15.366 0-29.834-5.03-41.841-14.547-3.246-2.573-7.963-2.027-10.536 1.219s-2.027 7.963 1.219 10.536c14.685 11.64 32.375 17.792 51.159 17.792 1.708 0 3.4-.069 5.083-.172 3.652 22.234 18.937 38.682 37.197 38.682 5.185 0 10.24-1.33 14.895-3.855 9.735 39.71 39.185 71.88 78.315 84.942v11.403c0 .752.028 1.497.071 2.238-37.583 15.333-62.427 51.913-62.427 92.939 0 4.142 3.358 7.5 7.5 7.5h185.79c4.143 0 7.5-3.358 7.5-7.5 0-26.812-10.443-52.021-29.406-70.983-9.423-9.422-20.742-16.935-33.019-21.967.042-.739.07-1.48.07-2.227v-11.408c1.643-.55 3.264-1.131 4.853-1.742 5.515-2.121 10.901-4.662 16.011-7.552 3.604-2.04 4.874-6.616 2.834-10.221-2.038-3.605-6.613-4.875-10.221-2.835-4.468 2.528-9.182 4.751-14.006 6.606-2.901 1.115-5.936 2.123-9.016 2.996-3.228.915-5.455 3.861-5.455 7.216v16.94c0 6.153-2.396 11.942-6.739 16.292-4.358 4.351-10.147 6.748-16.301 6.748-12.704 0-23.04-10.336-23.04-23.04v-16.94c0-3.358-2.232-6.307-5.464-7.218-40.262-11.354-69.851-45.457-75.381-86.884-.392-2.935-2.473-5.364-5.312-6.201-2.838-.837-5.906.073-7.827 2.325-2.892 3.389-7.707 7.428-14.225 7.428-10.612 0-19.872-11.179-22.37-25.954 7.127-1.774 13.886-4.477 20.149-7.972 2.429 4.384 3.148 8.651 3.153 8.681.556 3.722 3.756 6.394 7.409 6.394.368 0 .741-.027 1.117-.083 4.097-.612 6.922-4.429 6.311-8.525-.146-.98-1.298-7.87-5.56-14.953 6.272-5.187 11.757-11.29 16.271-18.091 32.194-8.866 49.81-36.88 57.607-53.301 5.498 5.577 13.848 12.47 25.73 18.535 36.957 18.862 81.795 16.498 115.221 10.334 4.464 16.898 14.162 31.691 27.257 42.521-4.263 7.084-5.414 13.975-5.561 14.955-.608 4.081 2.196 7.867 6.274 8.498.386.06.77.088 1.149.088 3.624 0 6.814-2.646 7.406-6.333.009-.059.729-4.334 3.159-8.72 6.263 3.495 13.022 6.199 20.149 7.972-2.498 14.776-11.758 25.956-22.371 25.956-6.519 0-11.333-4.04-14.225-7.428-1.921-2.252-4.987-3.162-7.827-2.326-2.839.837-4.92 3.267-5.312 6.201-2.857 21.397-12.141 41.127-26.848 57.055-2.81 3.043-2.62 7.789.423 10.598 1.442 1.332 3.267 1.99 5.086 1.99 2.02 0 4.034-.812 5.513-2.412 13.857-15.009 23.504-32.975 28.297-52.532 4.654 2.525 9.708 3.854 14.893 3.854 18.262 0 33.546-16.45 37.197-38.684 1.682.103 3.372.172 5.079.172 45.477 0 82.474-36.997 82.474-82.473-.001-42.949-33.002-78.316-74.975-82.119zm-181.026 333.632c10.155 0 19.708-3.954 26.907-11.141 2.972-2.978 5.382-6.364 7.197-10.027 9.741 4.26 18.723 10.374 26.276 17.928 14.35 14.349 22.964 32.9 24.69 52.877h-170.14c2.726-31.161 22.299-58.342 50.986-70.808 6.23 12.533 19.165 21.171 34.084 21.171zm157.335-367.553c4.792 0 8.691 3.899 8.691 8.692v25.229c-23.095 2.093-43.459 13.744-57.117 30.959h-7.836c.589-6.884.483-13.816-.348-20.729l19.115-11.037c9.873-5.704 13.265-18.375 7.563-28.245l-2.812-4.87h32.744zm-252.492-20.978c1.567-2.712 5.049-3.646 7.754-2.088l23.49 13.57c2.722 1.573 6.137 1.281 8.552-.732 7.592-6.325 16.176-11.271 25.516-14.702 2.952-1.084 4.914-3.895 4.914-7.04v-27.16c0-3.126 2.548-5.67 5.68-5.67h38.51c3.126 0 5.67 2.544 5.67 5.67v27.17c0 3.144 1.961 5.954 4.912 7.039 4.656 1.712 9.158 3.814 13.379 6.247 4.195 2.421 8.27 5.27 12.11 8.468 2.416 2.011 5.83 2.303 8.551.73l23.509-13.583c2.719-1.564 6.201-.635 7.765 2.08l19.261 33.351c1.565 2.709.633 6.188-2.076 7.753l-23.52 13.58c-2.722 1.572-4.175 4.673-3.641 7.77 1.344 7.797 1.608 15.643.828 23.405h-23.959c1.749-12.413-.262-25.092-5.939-36.539-1.841-3.711-6.341-5.227-10.051-3.386-3.711 1.841-5.228 6.341-3.387 10.052 4.638 9.353 6.062 19.781 4.182 29.874h-93.695c-2.103-11.147-.191-22.512 5.578-32.508 12.806-22.195 40.606-30.286 63.287-18.423 3.67 1.919 8.202.501 10.122-3.17 1.92-3.67.501-8.202-3.17-10.122-29.832-15.605-66.392-4.966-83.231 24.217-6.999 12.126-9.676 26.277-7.767 40.006h-23.961c-.805-7.83-.556-15.683.783-23.421.536-3.098-.917-6.202-3.641-7.774l-23.492-13.561c-1.316-.759-2.257-1.984-2.65-3.449-.392-1.463-.191-2.991.567-4.304zm-70.87 54.898v-25.229c0-4.793 3.899-8.692 8.692-8.692h32.741l-2.812 4.869c-2.763 4.783-3.497 10.356-2.066 15.692 1.431 5.335 4.855 9.795 9.641 12.555l19.085 11.017c-.823 6.883-.916 13.822-.309 20.748h-7.85c-13.659-17.215-34.025-28.867-57.122-30.96zm152.423 79.982c-21.067-10.454-29.196-23.83-29.251-23.922-1.486-2.574-4.352-4.026-7.311-3.7-2.956.322-5.443 2.366-6.339 5.201-.126.399-11.089 34.103-38.519 49.817 2.57-7.967 3.974-16.453 3.974-25.265 0-12.962-3.015-25.229-8.367-36.153h198.838c-5.352 10.925-8.368 23.194-8.368 36.158 0 2.105.105 4.184.261 6.25-52.659 9.804-86.006.997-104.918-8.386zm187.13 69.609c-37.204 0-67.473-30.269-67.473-67.473 0-37.205 30.269-67.473 67.473-67.473 37.205 0 67.474 30.268 67.474 67.473 0 37.204-30.269 67.473-67.474 67.473z"/><path d="m474.706 188.343c-4.143 0-7.5 3.358-7.5 7.5 0 20.777-16.903 37.68-37.68 37.68s-37.68-16.903-37.68-37.68c0-4.142-3.357-7.5-7.5-7.5s-7.5 3.358-7.5 7.5c0 29.048 23.632 52.68 52.68 52.68s52.68-23.632 52.68-52.68c0-4.142-3.357-7.5-7.5-7.5z"/><path d="m410.03 193.743c4.143 0 7.5-3.358 7.5-7.5v-19.735c0-4.142-3.357-7.5-7.5-7.5s-7.5 3.358-7.5 7.5v19.735c0 4.142 3.358 7.5 7.5 7.5z"/><path d="m449.023 193.743c4.143 0 7.5-3.358 7.5-7.5v-19.735c0-4.142-3.357-7.5-7.5-7.5s-7.5 3.358-7.5 7.5v19.735c0 4.142 3.358 7.5 7.5 7.5z"/><path d="m44.176 233.831c0 4.142 3.358 7.5 7.5 7.5s7.5-3.358 7.5-7.5c0-12.846 10.451-23.297 23.298-23.297 12.846 0 23.297 10.451 23.297 23.297 0 4.142 3.358 7.5 7.5 7.5s7.5-3.358 7.5-7.5c0-21.117-17.18-38.297-38.297-38.297-21.118 0-38.298 17.18-38.298 38.297z"/><path d="m70.477 186.243v-19.735c0-4.142-3.358-7.5-7.5-7.5s-7.5 3.358-7.5 7.5v19.735c0 4.142 3.358 7.5 7.5 7.5s7.5-3.358 7.5-7.5z"/><path d="m109.47 186.243v-19.735c0-4.142-3.358-7.5-7.5-7.5s-7.5 3.358-7.5 7.5v19.735c0 4.142 3.358 7.5 7.5 7.5s7.5-3.358 7.5-7.5z"/></g></g></svg>