<svg id="Layer_1" height="512" viewBox="0 0 256 256" width="512" xmlns="http://www.w3.org/2000/svg"><g><g><g><circle cx="128" cy="29.382" fill="#f46275" r="22.879"/><g><path d="m117.752 29.382c0-10.444 7.001-19.247 16.564-21.989-2.007-.575-4.124-.89-6.316-.89-12.636 0-22.88 10.243-22.88 22.879s10.244 22.879 22.88 22.879c2.192 0 4.309-.315 6.316-.89-9.563-2.742-16.564-11.545-16.564-21.989z" fill="#f43075"/></g><g><circle cx="128" cy="21.886" fill="#707070" r="7.704"/><path d="m138.671 44.581h-21.341v-4.32c0-5.893 4.777-10.671 10.671-10.671 5.893 0 10.671 4.777 10.671 10.671v4.32z" fill="#f8af23"/></g></g><g><circle cx="128" cy="226.618" fill="#f46275" r="22.879"/><g><path d="m117.752 226.618c0-10.444 7.001-19.247 16.564-21.989-2.007-.575-4.124-.89-6.316-.89-12.636 0-22.88 10.243-22.88 22.879s10.244 22.879 22.88 22.879c2.192 0 4.309-.315 6.316-.89-9.563-2.741-16.564-11.545-16.564-21.989z" fill="#f43075"/></g><g><circle cx="128" cy="219.123" fill="#707070" r="7.704"/><path d="m138.671 241.817h-21.341v-4.32c0-5.893 4.777-10.671 10.671-10.671 5.893 0 10.671 4.777 10.671 10.671v4.32z" fill="#f8af23"/></g></g><g><circle cx="196.843" cy="56.013" fill="#cecece" r="22.879"/><g><path d="m207.091 56.013c0-10.444-7.001-19.247-16.564-21.989 2.007-.575 4.124-.89 6.316-.89 12.636 0 22.88 10.243 22.88 22.879s-10.244 22.879-22.88 22.879c-2.192 0-4.309-.315-6.316-.89 9.563-2.742 16.564-11.545 16.564-21.989z" fill="#e2e2e2"/></g><g><circle cx="196.843" cy="48.517" fill="#707070" r="7.704"/><path d="m186.172 71.212h21.341v-4.32c0-5.893-4.777-10.671-10.671-10.671-5.893 0-10.671 4.777-10.671 10.671v4.32z" fill="#f8af23"/></g></g><g><circle cx="227" cy="128" fill="#63bce7" r="22.879"/><g><path d="m237.248 128c0-10.444-7.001-19.247-16.564-21.989 2.007-.575 4.124-.89 6.316-.89 12.636 0 22.88 10.243 22.88 22.879s-10.244 22.879-22.88 22.879c-2.192 0-4.309-.315-6.316-.89 9.564-2.742 16.564-11.545 16.564-21.989z" fill="#63e2e7"/></g><g><circle cx="227" cy="120.505" fill="#707070" r="7.704"/><path d="m216.33 143.199h21.341v-4.32c0-5.893-4.777-10.671-10.671-10.671-5.893 0-10.671 4.777-10.671 10.671v4.32z" fill="#f8af23"/></g></g><g><circle cx="29" cy="128" fill="#63bce7" r="22.879"/><g><path d="m18.752 128c0-10.444 7.001-19.247 16.564-21.989-2.007-.575-4.124-.89-6.316-.89-12.636 0-22.88 10.243-22.88 22.879s10.244 22.879 22.88 22.879c2.192 0 4.309-.315 6.316-.89-9.564-2.742-16.564-11.545-16.564-21.989z" fill="#6377e7"/></g><g><circle cx="29" cy="120.505" fill="#707070" r="7.704"/><path d="m39.67 143.199h-21.341v-4.32c0-5.893 4.777-10.671 10.671-10.671 5.893 0 10.671 4.777 10.671 10.671v4.32z" fill="#f8af23"/></g></g><g><circle cx="59.157" cy="56.013" fill="#cecece" r="22.879"/><g><path d="m48.909 56.013c0-10.444 7.001-19.247 16.564-21.989-2.007-.575-4.124-.89-6.316-.89-12.636 0-22.88 10.243-22.88 22.879s10.244 22.879 22.88 22.879c2.192 0 4.309-.315 6.316-.89-9.563-2.742-16.564-11.545-16.564-21.989z" fill="#afafaf"/></g><g><circle cx="59.157" cy="48.517" fill="#707070" r="7.704"/><path d="m69.828 71.212h-21.341v-4.32c0-5.893 4.777-10.671 10.671-10.671 5.893 0 10.671 4.777 10.671 10.671v4.32z" fill="#f8af23"/></g></g><g><circle cx="196.843" cy="200.107" fill="#cecece" r="22.879"/><g><path d="m207.091 200.107c0-10.444-7.001-19.247-16.564-21.989 2.007-.575 4.124-.89 6.316-.89 12.636 0 22.88 10.243 22.88 22.879s-10.244 22.879-22.88 22.879c-2.192 0-4.309-.315-6.316-.89 9.563-2.741 16.564-11.545 16.564-21.989z" fill="#e2e2e2"/></g><g><circle cx="196.843" cy="192.612" fill="#707070" r="7.704"/><path d="m186.172 215.306h21.341v-4.32c0-5.893-4.777-10.671-10.671-10.671-5.893 0-10.671 4.777-10.671 10.671v4.32z" fill="#f8af23"/></g></g><g><circle cx="59.157" cy="200.107" fill="#cecece" r="22.879"/><g><path d="m48.909 200.107c0-10.444 7.001-19.247 16.564-21.989-2.007-.575-4.124-.89-6.316-.89-12.636 0-22.88 10.243-22.88 22.879s10.244 22.879 22.88 22.879c2.192 0 4.309-.315 6.316-.89-9.563-2.741-16.564-11.545-16.564-21.989z" fill="#afafaf"/></g><g><circle cx="59.157" cy="192.612" fill="#707070" r="7.704"/><path d="m69.828 215.306h-21.341v-4.32c0-5.893 4.777-10.671 10.671-10.671 5.893 0 10.671 4.777 10.671 10.671v4.32z" fill="#f8af23"/></g></g></g><g><g><path d="m161.184 98.712c.155-.761.237-1.548.237-2.354 0-6.475-5.249-11.723-11.723-11.723-.66 0-1.303.068-1.933.173-.884-4.604-4.928-8.084-9.79-8.084-5.448 0-9.868 4.369-9.965 9.793h-.018c-.098-5.424-4.518-9.793-9.965-9.793-4.862 0-8.906 3.48-9.79 8.084-.63-.105-1.273-.173-1.933-.173-6.475 0-11.723 5.249-11.723 11.723 0 .806.082 1.594.237 2.354-4.195 1.505-7.201 5.506-7.201 10.219 0 6.001 4.865 10.866 10.866 10.866h59.038c6.001 0 10.866-4.865 10.866-10.866-.002-4.713-3.008-8.714-7.203-10.219z" fill="#f46275"/><g fill="#f8af23"><circle cx="91.413" cy="134.788" r="7.357"/><circle cx="164.587" cy="134.788" r="7.357"/></g><path d="m91.413 117.151v25.539c0 20.207 16.381 36.587 36.587 36.587 20.207 0 36.587-16.381 36.587-36.587v-25.539z" fill="#f8af23"/><g><path d="m119.708 144.134h-16.504c-2.114 0-3.828-1.714-3.828-3.828v-7.021c0-2.114 1.714-3.828 3.828-3.828h16.504c2.114 0 3.828 1.714 3.828 3.828v7.021c0 2.114-1.713 3.828-3.828 3.828z" fill="#cecece"/><path d="m152.796 144.134h-16.504c-2.114 0-3.828-1.714-3.828-3.828v-7.021c0-2.114 1.714-3.828 3.828-3.828h16.504c2.114 0 3.828 1.714 3.828 3.828v7.021c0 2.114-1.714 3.828-3.828 3.828z" fill="#cecece"/><g fill="#e2e2e2"><path d="m109.889 129.456-5.353 14.678h3.722l5.277-14.678z"/><path d="m116.287 129.456-5.353 14.678h2.166l5.276-14.678z"/><path d="m142.976 129.456-5.352 14.678h3.722l5.276-14.678z"/><path d="m149.374 129.456-5.352 14.678h2.165l5.277-14.678z"/></g></g><g fill="#3f3679"><path d="m27.323 247.998h-18.003c-.828 0-1.5.671-1.5 1.5s.672 1.5 1.5 1.5h18.003c.828 0 1.5-.671 1.5-1.5s-.672-1.5-1.5-1.5z"/><path d="m246.68 247.998h-18.003c-.828 0-1.5.671-1.5 1.5s.672 1.5 1.5 1.5h18.003c.828 0 1.5-.671 1.5-1.5s-.672-1.5-1.5-1.5z"/><path d="m218.479 247.998h-78.776c7.548-4.148 12.676-12.175 12.676-21.379 0-12.939-10.133-23.551-22.88-24.329v-21.55c20.034-.781 36.136-17.106 36.566-37.228 4.181-.707 7.378-4.345 7.378-8.724 0-1.983-.663-3.81-1.769-5.288h30.996c.778 12.746 11.39 22.879 24.328 22.879 13.443 0 24.38-10.937 24.38-24.379s-10.937-24.379-24.38-24.379c-12.938 0-23.55 10.133-24.328 22.879h-34.989c-.512-.192-1.044-.338-1.596-.432v-8.245c2.413-2.326 3.798-5.52 3.798-8.892 0-4.778-2.783-9.114-7.04-11.149.051-.473.076-.949.076-1.424 0-7.292-5.932-13.223-13.224-13.223-.265 0-.533.009-.809.028-1.511-4.674-5.897-7.94-10.914-7.94-3.347 0-6.368 1.481-8.475 3.807v-25.319c12.747-.778 22.88-11.39 22.88-24.329 0-13.443-10.937-24.379-24.38-24.379s-24.38 10.937-24.38 24.379c0 12.939 10.133 23.551 22.88 24.329v25.319c-2.106-2.325-5.128-3.807-8.475-3.807-5.017 0-9.403 3.266-10.914 7.94-.275-.019-.544-.028-.809-.028-7.292 0-13.224 5.932-13.224 13.223 0 .476.025.951.076 1.424-4.257 2.035-7.04 6.371-7.04 11.149 0 3.359 1.387 6.57 3.798 8.895v8.242c-.551.095-1.084.24-1.596.432h-34.985c-.778-12.746-11.39-22.879-24.328-22.879-13.443 0-24.38 10.937-24.38 24.379s10.937 24.379 24.38 24.379c12.938 0 23.55-10.133 24.328-22.879h30.996c-1.105 1.478-1.769 3.305-1.769 5.288 0 4.379 3.198 8.016 7.378 8.724.43 20.122 16.532 36.447 36.566 37.228v21.55c-12.747.778-22.88 11.39-22.88 24.329 0 9.204 5.128 17.231 12.676 21.379h-78.774c-.828 0-1.5.671-1.5 1.5s.672 1.5 1.5 1.5h180.959c.828 0 1.5-.671 1.5-1.5s-.672-1.5-1.501-1.5zm-60.539-116.027c-.589-2.301-2.663-4.014-5.145-4.014h-16.504c-2.332 0-4.298 1.516-5.018 3.607-.941-.621-2.065-.985-3.274-.985s-2.333.364-3.274.985c-.72-2.091-2.686-3.607-5.018-3.607h-16.504c-2.482 0-4.555 1.713-5.145 4.014l-5.146-5.16v-8.159h70.174v8.159zm-23.976 1.314c0-1.284 1.044-2.328 2.328-2.328h16.504c1.284 0 2.328 1.044 2.328 2.328v2.132.001 4.888c0 1.284-1.044 2.328-2.328 2.328h-16.504c-1.284 0-2.328-1.044-2.328-2.328zm-33.088 2.133v-.001-2.132c0-1.284 1.044-2.328 2.328-2.328h16.504c1.284 0 2.328 1.044 2.328 2.328v7.021c0 1.284-1.044 2.328-2.328 2.328h-16.504c-1.284 0-2.328-1.044-2.328-2.328zm65.211 5.026v-11.311c2.504.665 4.357 2.945 4.357 5.655s-1.853 4.991-4.357 5.656zm60.913-33.823c11.789 0 21.38 9.591 21.38 21.379s-9.591 21.379-21.38 21.379c-11.788 0-21.379-9.591-21.379-21.379s9.591-21.379 21.379-21.379zm-120.38-77.239c0-11.789 9.591-21.379 21.38-21.379s21.38 9.591 21.38 21.379-9.591 21.379-21.38 21.379-21.38-9.591-21.38-21.379zm-12.775 71.428c.516 1.481 1.503 3.604 3.314 5.446.294.299.682.448 1.069.448.38 0 .76-.143 1.052-.431.591-.581.599-1.53.018-2.121-2.394-2.434-2.988-5.612-3.003-5.693-.002-.011-.006-.02-.008-.031-.001-.006.001-.011 0-.017-.138-.673-.207-1.364-.207-2.055 0-5.637 4.586-10.223 10.224-10.223.512 0 1.057.049 1.662.149.473.106 6.417 1.556 6.077 7.72-.045.827.589 1.535 1.416 1.58.027.002.056.002.083.002.791 0 1.453-.619 1.497-1.417.333-6.058-3.808-9.185-6.967-10.375 1.2-3.294 4.355-5.572 7.954-5.572 4.586 0 8.384 3.732 8.466 8.32.015.818.699 1.473 1.518 1.473s1.485-.655 1.5-1.473c.082-4.588 3.88-8.32 8.466-8.32 3.599 0 6.754 2.278 7.954 5.572-3.159 1.19-7.299 4.316-6.966 10.374.044.799.706 1.418 1.497 1.418.027 0 .056 0 .083-.002.827-.045 1.461-.752 1.416-1.58-.339-6.183 5.642-7.624 6.083-7.722.602-.099 1.144-.148 1.655-.148 5.638 0 10.224 4.586 10.224 10.223 0 .69-.069 1.381-.207 2.055-.001.006.001.011 0 .016-.002.012-.007.022-.009.034-.005.032-.563 3.209-3.002 5.689-.581.591-.573 1.541.018 2.121.292.288.672.431 1.052.431.388 0 .776-.15 1.069-.448 1.811-1.842 2.798-3.964 3.314-5.446 2.88 1.646 4.73 4.735 4.73 8.12 0 2.547-1.043 4.959-2.862 6.721h-18.401c-3.508 0-6.362-2.854-6.362-6.363s2.854-6.363 6.362-6.363c.828 0 1.5-.671 1.5-1.5s-.672-1.5-1.5-1.5c-3.132 0-5.902 1.551-7.603 3.92-5.773-.073-7.086-5.848-7.141-6.107-.168-.809-.959-1.325-1.77-1.164-.812.166-1.335.958-1.169 1.77.567 2.777 3.09 7.667 8.677 8.414-.227.806-.357 1.653-.357 2.531 0 2.458.959 4.691 2.514 6.363h-21.546c1.555-1.672 2.514-3.905 2.514-6.363 0-5.163-4.2-9.363-9.362-9.363-.828 0-1.5.671-1.5 1.5s.672 1.5 1.5 1.5c3.508 0 6.362 2.854 6.362 6.363s-2.854 6.363-6.362 6.363h-18.406c-1.816-1.76-2.859-4.185-2.859-6.721-.001-3.383 1.849-6.471 4.729-8.118zm-64.845 48.569c-11.789 0-21.38-9.591-21.38-21.379s9.591-21.379 21.38-21.379c11.788 0 21.379 9.591 21.379 21.379s-9.591 21.379-21.379 21.379zm56.556-14.591c0-2.357 1.402-4.387 3.413-5.316.199-.037.384-.112.547-.22.13-.045.263-.084.398-.12v11.311c-2.505-.664-4.358-2.944-4.358-5.655zm7.357 7.902v-11.631l4.963 4.976v4.27c0 2.938 2.391 5.328 5.328 5.328h16.504c2.938 0 5.328-2.39 5.328-5.328v-3.764c0-1.634 1.329-2.963 2.964-2.963s2.964 1.33 2.964 2.963v3.764c0 2.938 2.391 5.328 5.328 5.328h16.504c2.938 0 5.328-2.39 5.328-5.328v-4.27l4.963-4.976v11.631c0 19.347-15.74 35.087-35.087 35.087s-35.087-15.74-35.087-35.087zm13.707 83.928c0-11.789 9.591-21.379 21.38-21.379s21.38 9.591 21.38 21.379-9.591 21.379-21.38 21.379-21.38-9.59-21.38-21.379z"/><path d="m246.68 237.025h-81.574c-.828 0-1.5.671-1.5 1.5s.672 1.5 1.5 1.5h81.574c.828 0 1.5-.671 1.5-1.5s-.672-1.5-1.5-1.5z"/><path d="m7.82 238.525c0 .829.672 1.5 1.5 1.5h81.574c.828 0 1.5-.671 1.5-1.5s-.672-1.5-1.5-1.5h-81.574c-.828 0-1.5.671-1.5 1.5z"/><path d="m172.902 83.097c.293.293.677.439 1.061.439s.768-.146 1.061-.439l7.425-7.424c4.037 2.964 9.014 4.719 14.394 4.719 13.443 0 24.38-10.937 24.38-24.379s-10.937-24.379-24.38-24.379-24.38 10.937-24.38 24.379c0 6.981 2.954 13.282 7.673 17.731l-7.234 7.233c-.586.585-.586 1.534 0 2.12zm2.561-27.084c0-11.789 9.591-21.379 21.38-21.379s21.38 9.591 21.38 21.379-9.591 21.379-21.38 21.379-21.38-9.591-21.38-21.379z"/><path d="m83.098 172.903c-.586-.586-1.535-.586-2.121 0l-7.495 7.494c-4.025-2.933-8.974-4.669-14.324-4.669-13.443 0-24.38 10.937-24.38 24.379s10.937 24.38 24.38 24.38 24.38-10.937 24.38-24.38c0-7.012-2.979-13.337-7.734-17.789l7.295-7.294c.585-.586.585-1.535-.001-2.121zm-2.561 27.204c0 11.789-9.591 21.38-21.38 21.38s-21.38-9.591-21.38-21.38 9.591-21.379 21.38-21.379 21.38 9.59 21.38 21.379z"/><path d="m140.171 44.581v-4.32c0-4.785-2.783-8.922-6.809-10.909 2.322-1.673 3.842-4.392 3.842-7.465 0-5.075-4.129-9.204-9.204-9.204s-9.204 4.129-9.204 9.204c0 3.073 1.52 5.793 3.842 7.465-4.026 1.987-6.809 6.124-6.809 10.909v4.32c0 .829.672 1.5 1.5 1.5h21.342c.828 0 1.5-.671 1.5-1.5zm-18.375-22.695c0-3.421 2.783-6.204 6.204-6.204s6.204 2.783 6.204 6.204-2.783 6.204-6.204 6.204-6.204-2.783-6.204-6.204zm15.375 21.195h-18.342v-2.82c0-5.057 4.114-9.171 9.171-9.171s9.171 4.114 9.171 9.171z"/><path d="m133.362 226.588c2.322-1.673 3.842-4.392 3.842-7.465 0-5.075-4.129-9.204-9.204-9.204s-9.204 4.129-9.204 9.204c0 3.073 1.52 5.793 3.842 7.465-4.026 1.987-6.809 6.124-6.809 10.909v4.32c0 .829.672 1.5 1.5 1.5h21.342c.828 0 1.5-.671 1.5-1.5v-4.32c0-4.785-2.783-8.922-6.809-10.909zm-11.566-7.465c0-3.421 2.783-6.204 6.204-6.204s6.204 2.783 6.204 6.204-2.783 6.204-6.204 6.204-6.204-2.784-6.204-6.204zm15.375 21.194h-18.342v-2.82c0-5.057 4.114-9.171 9.171-9.171s9.171 4.114 9.171 9.171z"/><path d="m186.172 72.712h21.342c.828 0 1.5-.671 1.5-1.5v-4.32c0-4.785-2.783-8.922-6.809-10.909 2.322-1.673 3.842-4.392 3.842-7.465 0-5.075-4.129-9.204-9.204-9.204s-9.204 4.129-9.204 9.204c0 3.073 1.52 5.793 3.842 7.465-4.026 1.987-6.809 6.124-6.809 10.909v4.32c0 .829.672 1.5 1.5 1.5zm4.467-24.195c0-3.421 2.783-6.204 6.204-6.204s6.204 2.783 6.204 6.204-2.783 6.204-6.204 6.204-6.204-2.783-6.204-6.204zm-2.967 18.375c0-5.057 4.114-9.171 9.171-9.171s9.171 4.114 9.171 9.171v2.82h-18.342z"/><path d="m216.33 144.699h21.341c.828 0 1.5-.671 1.5-1.5v-4.32c0-4.785-2.783-8.922-6.809-10.909 2.322-1.673 3.842-4.392 3.842-7.465 0-5.075-4.129-9.204-9.204-9.204-5.074 0-9.203 4.129-9.203 9.204 0 3.073 1.52 5.792 3.841 7.465-4.026 1.987-6.808 6.124-6.808 10.909v4.32c0 .829.672 1.5 1.5 1.5zm4.467-24.195c0-3.421 2.783-6.204 6.203-6.204 3.421 0 6.204 2.783 6.204 6.204s-2.783 6.204-6.204 6.204c-3.42 0-6.203-2.783-6.203-6.204zm-2.967 18.375c0-5.057 4.114-9.171 9.171-9.171s9.17 4.114 9.17 9.171v2.82h-18.341z"/><path d="m34.361 127.97c2.322-1.672 3.842-4.392 3.842-7.465 0-5.075-4.129-9.204-9.203-9.204-5.075 0-9.204 4.129-9.204 9.204 0 3.073 1.52 5.792 3.842 7.465-4.026 1.987-6.808 6.124-6.808 10.91v4.32c0 .829.672 1.5 1.5 1.5h21.34c.828 0 1.5-.671 1.5-1.5v-4.32c0-4.786-2.783-8.923-6.809-10.91zm-5.361-13.669c3.42 0 6.203 2.783 6.203 6.204s-2.783 6.204-6.203 6.204c-3.421 0-6.204-2.783-6.204-6.204s2.783-6.204 6.204-6.204zm9.17 27.398h-18.341v-2.82c0-5.057 4.114-9.171 9.171-9.171s9.17 4.114 9.17 9.171z"/><path d="m59.157 80.392c5.381 0 10.357-1.756 14.394-4.719l7.425 7.424c.293.293.677.439 1.061.439s.768-.146 1.061-.439c.586-.586.586-1.536 0-2.121l-7.234-7.233c4.719-4.449 7.673-10.749 7.673-17.731 0-13.443-10.937-24.379-24.38-24.379s-24.38 10.937-24.38 24.379 10.937 24.38 24.38 24.38zm0-45.759c11.789 0 21.38 9.591 21.38 21.379s-9.591 21.379-21.38 21.379-21.38-9.591-21.38-21.379 9.591-21.379 21.38-21.379z"/><path d="m48.486 72.712h21.342c.828 0 1.5-.671 1.5-1.5v-4.32c0-4.785-2.783-8.922-6.809-10.909 2.322-1.673 3.842-4.392 3.842-7.465 0-5.075-4.129-9.204-9.204-9.204s-9.204 4.129-9.204 9.204c0 3.073 1.52 5.793 3.842 7.465-4.026 1.987-6.809 6.124-6.809 10.909v4.32c0 .829.672 1.5 1.5 1.5zm4.467-24.195c0-3.421 2.783-6.204 6.204-6.204s6.204 2.783 6.204 6.204-2.783 6.204-6.204 6.204-6.204-2.783-6.204-6.204zm-2.967 18.375c0-5.057 4.114-9.171 9.171-9.171s9.171 4.114 9.171 9.171v2.82h-18.342z"/><path d="m172.463 200.107c0 13.443 10.937 24.38 24.38 24.38s24.38-10.937 24.38-24.38-10.937-24.379-24.38-24.379c-5.35 0-10.3 1.736-14.324 4.669l-7.495-7.494c-.586-.586-1.535-.586-2.121 0s-.586 1.536 0 2.121l7.295 7.294c-4.756 4.452-7.735 10.777-7.735 17.789zm45.76 0c0 11.789-9.591 21.38-21.38 21.38s-21.38-9.591-21.38-21.38 9.591-21.379 21.38-21.379 21.38 9.59 21.38 21.379z"/><path d="m186.172 216.806h21.342c.828 0 1.5-.671 1.5-1.5v-4.32c0-4.785-2.783-8.922-6.809-10.909 2.322-1.672 3.842-4.392 3.842-7.465 0-5.075-4.129-9.204-9.204-9.204s-9.204 4.129-9.204 9.204c0 3.073 1.52 5.793 3.842 7.465-4.026 1.987-6.809 6.124-6.809 10.909v4.32c0 .829.672 1.5 1.5 1.5zm4.467-24.194c0-3.421 2.783-6.204 6.204-6.204s6.204 2.783 6.204 6.204-2.783 6.204-6.204 6.204-6.204-2.783-6.204-6.204zm-2.967 18.374c0-5.057 4.114-9.17 9.171-9.17s9.171 4.114 9.171 9.17v2.82h-18.342z"/><path d="m64.52 200.077c2.322-1.672 3.842-4.392 3.842-7.465 0-5.075-4.129-9.204-9.204-9.204s-9.204 4.129-9.204 9.204c0 3.073 1.52 5.793 3.842 7.465-4.026 1.987-6.809 6.124-6.809 10.909v4.32c0 .829.672 1.5 1.5 1.5h21.342c.828 0 1.5-.671 1.5-1.5v-4.32c-.001-4.785-2.784-8.922-6.809-10.909zm-11.567-7.465c0-3.421 2.783-6.204 6.204-6.204s6.204 2.783 6.204 6.204-2.783 6.204-6.204 6.204-6.204-2.783-6.204-6.204zm15.375 21.194h-18.342v-2.82c0-5.057 4.114-9.17 9.171-9.17s9.171 4.114 9.171 9.17z"/><path d="m128 156.554c.828 0 1.5-.671 1.5-1.5v-5.931c0-.829-.672-1.5-1.5-1.5s-1.5.671-1.5 1.5v5.931c0 .829.672 1.5 1.5 1.5z"/><path d="m134.553 162.026c.546-.623.484-1.571-.139-2.117-.624-.546-1.57-.483-2.117.139-1.09 1.243-2.656 1.956-4.297 1.956s-3.207-.713-4.297-1.956c-.546-.622-1.493-.685-2.117-.139-.623.546-.685 1.494-.139 2.117 1.659 1.892 4.048 2.977 6.553 2.977s4.894-1.085 6.553-2.977z"/></g></g></g></g></svg>