<svg height="507pt" viewBox="-1 0 507 507.93044" width="507pt" xmlns="http://www.w3.org/2000/svg"><path d="m60.398438 503.492188c-1.921876.003906-3.609376-1.273438-4.121094-3.125-.515625-1.851563.269531-3.816407 1.917968-4.800782l35.535157-21.410156-43.648438 25.207031c-2.011719 1.074219-4.515625.375-5.679687-1.585937-1.164063-1.960938-.582032-4.492188 1.328125-5.746094l138.324219-84.308594-143.230469 82.6875c-2.027344 1.210938-4.648438.546875-5.855469-1.476562-1.207031-2.023438-.546875-4.644532 1.476562-5.851563l201.054688-123.828125-201.070312 116.085938c-2.019532 1.082031-4.53125.378906-5.691407-1.59375-1.164062-1.972656-.5625-4.511719 1.363281-5.753906l29.789063-17.917969-26.375 15.265625c-2.015625 1.113281-4.554687.425781-5.730469-1.554688-1.179687-1.976562-.574218-4.535156 1.367188-5.777344l171.019531-104.453124-168.003906 96.953124c-2.03125 1.199219-4.648438.527344-5.847657-1.5-1.199218-2.03125-.527343-4.648437 1.503907-5.847656l126.199219-76.527344-123.027344 71.042969c-2.023438 1.207031-4.640625.542969-5.847656-1.480469-1.207032-2.027343-.542969-4.644531 1.480468-5.851562l205.898438-126.601562-203.046875 117.222656c-2.023438 1.152344-4.597657.472656-5.785157-1.527344-1.1875-2.003906-.550781-4.589844 1.429688-5.808594l175.941406-107.597656-172.960937 99.847656c-2.015625 1.0625-4.507813.355469-5.664063-1.605468-1.15625-1.957032-.574218-4.480469 1.328125-5.734376l88.242188-53.316406-84.957031 49.050782c-2.015626 1.097656-4.539063.402343-5.710938-1.574219-1.167969-1.976563-.5625-4.523438 1.367188-5.765625l94.269531-57.121094-91.007813 52.539062c-2.019531 1.082032-4.53125.378907-5.691406-1.59375-1.164062-1.972656-.5625-4.511718 1.363281-5.753906l22.671875-13.652344-19.242187 11.09375c-2.011719 1.089844-4.523438.402344-5.695313-1.5625-1.171875-1.964843-.585937-4.507812 1.328125-5.757812l123.484375-75.71875-120.320312 69.480469c-2.007813 1.070312-4.5.378906-5.671875-1.574219-1.167969-1.949219-.597657-4.476562 1.296875-5.738281l151.21875-94.082031-148.320313 85.625c-2.019531 1.210937-4.640625.554687-5.851562-1.46875-1.210938-2.019532-.554688-4.640626 1.464843-5.851563l128.113282-79.761719-125.074219 72.207032c-2.015625 1.21875-4.640625.570312-5.855469-1.445313-1.21875-2.015625-.574218-4.640625 1.445313-5.859375l138.128906-87.363281-135.226563 78.0625c-2.011718 1.058593-4.496093.359375-5.65625-1.589844-1.164062-1.953125-.59375-4.46875 1.292969-5.730469l25.351563-15.566406-21.921875 12.664062c-1.996094 1.082032-4.488281.414063-5.671875-1.523437-1.1875-1.9375-.644532-4.464844 1.226562-5.746094l124.136719-80.128906-121.269531 69.972656c-1.964844.890625-4.285156.175781-5.40625-1.667969s-.6875-4.230468 1.003906-5.566406l64.734375-40.867187-61.441406 35.5c-2.007813 1.230469-4.636719.597656-5.867188-1.414063-1.226562-2.007812-.597656-4.636718 1.414063-5.867187l79.992187-51.738281-76.871093 44.375c-1.304688.789062-2.929688.820312-4.265626.085937-1.332031-.738281-2.175781-2.128906-2.203124-3.652344-.03125-1.527343.753906-2.949219 2.058593-3.738281l25.675781-16.214844-22.277343 12.808594c-2.011719 1.179688-4.59375.527344-5.804688-1.460938-1.210937-1.988281-.601562-4.582031 1.367188-5.824218l31.871093-20.480469-28.46875 16.417969c-1.980468 1.132812-4.507812.503906-5.726562-1.429688-1.21875-1.929687-.699219-4.480468 1.179688-5.78125l66.558593-45.839844-63.511719 36.691407c-1.96875 1.128906-4.472656.523437-5.707031-1.378907-1.230469-1.902343-.761719-4.4375 1.074219-5.769531l57.019531-41.132812-53.933593 31.113281c-1.957032 1.121094-4.453126.523438-5.6875-1.363281-1.238282-1.890625-.789063-4.414063 1.019531-5.761719l37.8125-27.878906-34.535157 19.925781c-1.960937 1.078125-4.421874.453125-5.636718-1.425781-1.214844-1.882813-.769532-4.378906 1.019531-5.726563l10.480469-7.507812-6.828125 3.941406c-1.90625 1.097656-4.335938.566406-5.609375-1.226563-1.273438-1.796874-.972656-4.265624.695312-5.703124l20.601563-17.730469-17.066407 9.828125c-1.722656.992187-3.902343.664062-5.253906-.789063-1.355468-1.453125-1.527344-3.648437-.414062-5.292969l11.09375-16.453124h-.078125c-1.320313.773437-2.953125.78125-4.28125.019531s-2.144531-2.179688-2.140625-3.710938c0-1.53125.824218-2.941406 2.15625-3.699219l16.109375-9.300781c1.722656-.992187 3.898437-.664062 5.253906.789063 1.351563 1.453125 1.523437 3.648437.414063 5.296875l-11.09375 16.460937 40.429687-23.253906c1.90625-1.09375 4.328125-.566406 5.601563 1.226562 1.273437 1.789063.980468 4.253907-.675782 5.691407l-20.644531 17.71875 42.753906-24.636719c1.96875-1.113281 4.460938-.496094 5.683594 1.402344 1.226563 1.898437.757813 4.421875-1.066406 5.757812l-10.4375 7.472656 25.359375-14.632812c1.960937-1.121094 4.453125-.523438 5.691406 1.363281s.789062 4.414063-1.023438 5.761719l-37.84375 27.859375 60.671876-34.984375c1.964843-1.128906 4.472656-.523438 5.703124 1.378906 1.234376 1.902344.765626 4.4375-1.070312 5.769532l-56.976562 41.082031 83.628906-48.257813c1.976562-1.089844 4.457031-.449218 5.664062 1.460938 1.207032 1.90625.714844 4.425781-1.117187 5.742187l-66.558594 45.847657 91.84375-53.023438c2.003906-1.140625 4.550781-.484375 5.75 1.484375 1.203125 1.964844.625 4.53125-1.304687 5.792969l-31.871094 20.480468 48.042968-27.757812c2.007813-1.148438 4.566407-.488281 5.765626 1.492188 1.199218 1.980468.601562 4.554687-1.347657 5.804687l-25.601562 16.210937 40.714843-23.507812c2-1.117188 4.523438-.457031 5.71875 1.496094 1.195313 1.953125.636719 4.5-1.265624 5.773437l-80.023438 51.773438 102.261719-59.042969c2.003906-1.101562 4.523437-.429688 5.707031 1.53125 1.183594 1.957031.613281 4.5-1.292969 5.765625l-64.640625 40.8125 83.328125-48.109375c1.996094-1.117188 4.523438-.457031 5.71875 1.496094 1.195313 1.953125.636719 4.5-1.265625 5.773437l-124.226562 80.214844 151.492187-87.484375c2.007813-1.089844 4.523438-.402344 5.695313 1.5625s.585937 4.507812-1.328125 5.757812l-25.199219 15.464844 39.511719-22.8125c2.003906-1.101562 4.519531-.425781 5.707031 1.53125 1.183594 1.957032.609375 4.503906-1.296875 5.765625l-138.214844 87.390625 164.019531-94.660156c2.015626-1.164062 4.589844-.496094 5.789063 1.496094 1.199219 1.996094.578125 4.582031-1.394531 5.816406l-128.128906 79.726562 150.851562-87.039062c2.011719-1.109375 4.539062-.425781 5.71875 1.542969s.59375 4.515625-1.332031 5.769531l-151.175781 94.027344 175.574218-101.339844c2.011719-1.089844 4.523438-.402344 5.695313 1.5625 1.175781 1.964844.589843 4.507812-1.328125 5.757812l-123.570313 75.742188 143.933594-83.0625c2.019531-1.128906 4.574219-.4375 5.75 1.558594 1.175781 1.992187.546875 4.5625-1.417969 5.789062l-22.507812 13.523438 36.195312-20.871094c2.019532-1.097656 4.542969-.402344 5.710938 1.574219 1.171875 1.976562.566406 4.523437-1.367188 5.761719l-94.273437 57.097656 107.773437-62.222656c1.3125-.777344 2.941406-.792969 4.269532-.046876 1.328124.75 2.15625 2.148438 2.171874 3.675782.015626 1.523437-.785156 2.941406-2.097656 3.714844l-88.421875 53.410156 93.117188-53.757813c2.015625-1.113281 4.550781-.429687 5.730469 1.550781 1.175781 1.980469.570312 4.539063-1.371094 5.777344l-175.726563 107.488282 176.765625-102.058594c2.011719-1.089844 4.527344-.402344 5.699219 1.5625s.585937 4.507812-1.328125 5.757812l-206.0625 126.710938 201.515625-116.332032c2.015625-1.097656 4.539063-.402343 5.707031 1.574219 1.171875 1.976563.566406 4.523438-1.367187 5.761719l-126.042969 76.417969 120.394531-69.503907c2.015625-1.117187 4.554688-.429687 5.734375 1.550782 1.175782 1.980468.570313 4.539062-1.371094 5.777344l-171.035156 104.5 165.1875-95.359376c2.015625-1.050781 4.5-.335937 5.648438 1.621094 1.152344 1.960938.566406 4.476563-1.328125 5.726563l-30.003907 18.003906 24.660157-14.234375c2.023437-1.207031 4.644531-.546875 5.855469 1.476562 1.207031 2.023438.546874 4.644532-1.476563 5.855469l-201.046875 123.816407 194.980469-112.554688c2.011719-1.074219 4.511719-.375 5.679687 1.585938 1.164063 1.960937.578125 4.492187-1.328125 5.746093l-138.507812 84.429688 132.789062-76.65625c2.023438-1.125 4.574219-.433594 5.75 1.558593 1.175781 1.996094.550781 4.5625-1.414062 5.789063l-35.210938 21.195313 29.867188-17.21875c2.007812-1.074219 4.503906-.378907 5.671875 1.570312 1.167968 1.953125.597656 4.480469-1.292969 5.742188l-164.191406 101.589843 158.183593-91.308593c2.023438-1.203126 4.644532-.542969 5.847657 1.480468 1.207031 2.027344.546875 4.644532-1.480469 5.851563l-113.023438 69.476562 107.308594-61.949219c2.019532-1.21875 4.640625-.566406 5.855469 1.453126 1.21875 2.019531.566406 4.644531-1.453125 5.859374l-148.171875 93.011719 142.113281-82.0625c2.015625-1.21875 4.640625-.574219 5.859375 1.445313 1.21875 2.015625.570313 4.640625-1.449219 5.859375l-131.257812 82.890625 125.21875-72.292969c1.996094-1.117187 4.523438-.457031 5.71875 1.496094 1.195312 1.949219.636719 4.5-1.265625 5.773437l-137.316406 88.910156 131.003906-75.625c2.007813-1.105468 4.535156-.425781 5.714844 1.542969 1.179687 1.96875.59375 4.519531-1.332031 5.769531l-37.722657 23.484376 32.21875-18.59375c2.011719-1.105469 4.539063-.425782 5.71875 1.542968 1.179688 1.96875.59375 4.519532-1.332031 5.769532l-4.890625 3.03125c2.0625-.984376 4.53125-.175782 5.605469 1.835937 1.078125 2.011719.378906 4.515625-1.585938 5.679687l-78.148437 50.996094 72.175781-41.695312c2.007812-1.175782 4.589844-.523438 5.800781 1.464844 1.210938 1.988281.605469 4.582031-1.363281 5.824218l-34.40625 22.09375 28.808594-16.640625c2.011718-1.226562 4.640625-.589843 5.867187 1.421875 1.226563 2.011719.589844 4.636719-1.421875 5.867188l-14.191406 9.070312 8.707031-5.019531c1.976563-1.132813 4.5-.511719 5.722657 1.414063 1.222656 1.921874.71875 4.46875-1.148438 5.78125l-55.902344 39.039062 49.730469-28.707031c1.992187-1.152344 4.542969-.519531 5.761719 1.433593 1.21875 1.953126.664062 4.523438-1.246094 5.804688l-11.734375 7.875 6.167969-3.558594c1.921875-1.09375 4.363281-.539062 5.621094 1.28125 1.257812 1.816406.917968 4.292969-.78125 5.707032l-40.898438 33.496093 34.183594-19.738281c1.917968-1.109375 4.367187-.5625 5.632812 1.257812 1.265625 1.820313.929688 4.304688-.777344 5.722657l-16.71875 13.917969 10.515626-6.058594c1.757812-1 3.976562-.625 5.3125.894531 1.335937 1.519531 1.417968 3.769531.199218 5.382813l-10.710937 13.988281c2.066406-.53125 4.207031.542969 5.011719 2.515625.808593 1.976562.035156 4.242187-1.8125 5.308594l-17.234376 9.949218c-1.761718 1.019532-4 .648438-5.339843-.878906-1.34375-1.527344-1.417969-3.792969-.183594-5.410156l10.488281-13.652344-35.421875 20.386719c-1.917969 1.082031-4.34375.53125-5.601562-1.277344-1.257813-1.804687-.933594-4.273437.746093-5.695313l16.699219-13.875-36.113281 20.847657c-1.921875 1.09375-4.359375.539062-5.617188-1.28125-1.257812-1.816407-.921874-4.292969.78125-5.707031l40.90625-33.503907-70.144531 40.492188c-1.980469 1.070312-4.457031.417969-5.648437-1.496094s-.691406-4.421875 1.144531-5.730469l11.65625-7.828125-26.085937 15.054688c-1.976563 1.121093-4.480469.496093-5.703126-1.417969-1.222656-1.914062-.726562-4.449219 1.121094-5.765625l55.917969-39.058594-80.136719 46.242188c-2.003906 1.140625-4.550781.484375-5.75-1.484375-1.203125-1.96875-.625-4.535156 1.304688-5.796875l14.140625-9.078125-28.3125 16.359375c-2.003907 1.140625-4.550781.484375-5.753907-1.484375-1.203124-1.96875-.625-4.535156 1.304688-5.796875l34.40625-22.082031-50.867188 29.363281c-1.996093 1.136719-4.535156.484375-5.738281-1.472657-1.207031-1.957031-.644531-4.515624 1.269531-5.789062l78.171876-51.011719-100.941407 58.273438c-2.003906 1.070312-4.5.378906-5.667969-1.574219-1.171874-1.949219-.601562-4.476562 1.292969-5.738281l3.832031-2.375-16.796874 9.6875c-2.015626 1.160156-4.589844.496093-5.785157-1.5-1.199219-1.992188-.578125-4.578125 1.390625-5.8125l37.863282-23.5625-53.46875 30.875c-1.996094 1.082031-4.492188.414062-5.675782-1.523438s-.644531-4.464843 1.230469-5.746093l137.386719-88.9375-166.71875 96.207031c-2 1.070312-4.488282.382812-5.664063-1.558594-1.171875-1.945313-.617187-4.464844 1.261719-5.738281l131.191406-82.824219-156.160156 90.121094c-2.007812 1.125-4.550781.453125-5.738281-1.519531-1.1875-1.972657-.597657-4.535157 1.335937-5.785157l148.191406-93.011719-173.75 100.316407c-2.007812 1.058593-4.492187.359375-5.652343-1.589844-1.164063-1.953125-.59375-4.46875 1.292969-5.730469l113.058593-69.480468-133.113281 76.800781c-2.003906 1.070312-4.5.378906-5.667969-1.574219-1.167969-1.949219-.601562-4.476562 1.292969-5.738281l164.207031-101.632813-188.707031 108.945313c-.644531.386719-1.382812.59375-2.132812.605469zm0 0" fill="#fdcd56"/><path d="m44.773438 128.273438c-1.863282-.003907-3.511719-1.21875-4.066407-2.996094-.554687-1.78125.109375-3.714844 1.644531-4.777344l85.859376-59.324219-86.714844 50.03125c-1.996094 1.136719-4.535156.484375-5.742188-1.472656-1.203125-1.957031-.640625-4.515625 1.269532-5.789063l30.183593-19.773437-25.710937 14.875c-1.746094 1-3.957032.640625-5.296875-.859375-1.34375-1.5-1.453125-3.734375-.265625-5.363281l5.484375-7.429688c-1.820313-.222656-3.292969-1.585937-3.660157-3.382812-.367187-1.796875.453126-3.628907 2.039063-4.546875l13.824219-7.960938c1.75-1.019531 3.976562-.664062 5.324218.84375 1.351563 1.507813 1.457032 3.757813.25 5.386719l-4.214843 5.699219 139.109375-80.308594c1.992187-1.1132812 4.511718-.460938 5.710937 1.484375 1.203125 1.941406.660157 4.488281-1.230469 5.769531l-30.199218 19.765625 46.839844-27.019531c1.972656-1.078125 4.445312-.4375 5.648437 1.460938 1.203125 1.902343.726563 4.410156-1.09375 5.734374l-85.863281 59.296876 115.210937-66.492188c1.992188-1.0820312 4.480469-.417969 5.671875 1.511719 1.1875 1.929687.660156 4.449219-1.199218 5.742187l-54.445313 35.636719 65.570313-37.847656c1.988281-1.175781 4.554687-.53125 5.753906 1.445312 1.210937 1.957031.648437 4.527344-1.273438 5.800781l-55.59375 36.777344 59.554688-34.378906c1.972656-1.136719 4.492187-.523438 5.722656 1.394531s.734375 4.464844-1.125 5.78125l-71.839844 50.738281 69.757813-40.257812c1.96875-1.144531 4.488281-.539062 5.722656 1.375 1.238281 1.910156.753906 4.457031-1.097656 5.785156l-51.132813 36.691406 46.507813-26.835937c1.972656-1.125 4.476562-.511719 5.703125 1.398437 1.226562 1.90625.746094 4.441407-1.09375 5.769532l-25.601563 18.269531 24.40625-14.089844c1.964844-1.144531 4.484375-.550781 5.726563 1.359375 1.238281 1.90625.765625 4.449219-1.078125 5.785156l-15.238281 11.089844 20.480468-11.800781c1.914063-1.097656 4.351563-.550781 5.617188 1.257813 1.265625 1.808593.941406 4.28125-.746094 5.707031l-24.242188 20.257812 45.261719-26.09375c1.878907-1.078125 4.269531-.574219 5.554688 1.171875 1.285156 1.746094 1.058593 4.175782-.53125 5.652344l-26.820313 24.671875 54.613282-31.523437c1.910156-1.066407 4.3125-.519532 5.574218 1.265624 1.257813 1.785157.964844 4.234376-.683594 5.671876l-23.894531 20.277343 47.164063-27.1875c1.953125-1.132812 4.445312-.546875 5.691406 1.328125 1.253906 1.882813.820312 4.410156-.980469 5.769532l-12.097656 9.113281 28.160156-16.210938c1.914063-1.082031 4.332031-.53125 5.589844 1.273438 1.261719 1.800781.945313 4.261719-.726563 5.6875l-22.734374 18.910156 44.851562-25.871094c1.96875-1.140625 4.480469-.535156 5.71875 1.371094 1.234375 1.910156.757812 4.449219-1.085938 5.777344l-3.003906 2.160156 16.15625-9.308594c1.921875-1.082031 4.351563-.519531 5.601563 1.296875s.910156 4.285156-.78125 5.699219l-20.976563 17.066406 32.71875-18.882812c1.851563-1.03125 4.179688-.542969 5.464844 1.140625 1.285156 1.6875 1.136719 4.058594-.347656 5.574218l-22.550782 22.417969 22.894532-13.21875c1.75-1.007812 3.964844-.652343 5.3125.855469 1.34375 1.503906 1.449218 3.746094.25 5.371094l-9.710938 13.152344 4.265625-2.464844c1.535157-.886719 3.453125-.734375 4.824219.382812 1.375 1.113282 1.914062 2.960938 1.363281 4.640625l-1.707031 5.257813c1.277344.789062 2.042969 2.191406 2.019531 3.691406-.019531 1.5-.832031 2.878906-2.128906 3.628906l-4.265625 2.457032c-1.535156.886718-3.453125.734374-4.824219-.382813-1.375-1.113281-1.914062-2.960937-1.363281-4.640625l.683594-2.066406-12.304688 7.101562c-1.75 1-3.957031.640625-5.300781-.859375-1.34375-1.503906-1.453125-3.738281-.265625-5.363281l9.703125-13.140625-33.578125 19.378906c-1.851562 1.03125-4.179688.542969-5.464844-1.144531-1.285156-1.683594-1.140625-4.058594.34375-5.570312l22.554688-22.417969-50.492188 29.148437c-1.921875 1.082032-4.351562.515625-5.601562-1.296875-1.253906-1.816406-.914063-4.289062.78125-5.699219l20.972656-17.066406-41.753906 24.0625c-1.964844 1.128906-4.46875.523438-5.703125-1.378906s-.761719-4.4375 1.070312-5.769531l3.011719-2.175781-16.210938 9.332031c-1.914062 1.082031-4.335937.53125-5.59375-1.269531-1.257812-1.804688-.945312-4.265626.730469-5.691407l22.714844-18.925781-44.894531 25.90625c-1.953125 1.144531-4.460938.566406-5.714844-1.324219-1.25-1.886719-.808594-4.421875 1.003906-5.777343l12.074219-9.113282-28.160156 16.214844c-1.90625 1.066406-4.3125.519531-5.570313-1.265625-1.257812-1.785156-.964844-4.234375.679688-5.671875l23.894531-20.265625-47.15625 27.21875c-1.878906 1.078125-4.269531.574219-5.554687-1.171875-1.285157-1.746094-1.058594-4.175781.53125-5.652344l26.863281-24.6875-54.613281 31.570313c-1.914063 1.082031-4.335938.53125-5.59375-1.269531-1.257813-1.804688-.945313-4.265626.726562-5.691407l24.253906-20.257812-47.207031 27.238281c-1.964844 1.144531-4.484375.546875-5.726563-1.359375-1.238281-1.90625-.765624-4.449219 1.078126-5.785156l15.203124-11.089844-31.570312 18.234375c-1.972656 1.125-4.476562.507812-5.703125-1.398438-1.226563-1.910156-.746094-4.445312 1.09375-5.769531l25.601563-18.269531-44.085938 25.453125c-1.96875 1.144531-4.488281.539063-5.722656-1.375s-.753906-4.457031 1.097656-5.785156l51.140625-36.691407-76.132813 43.859376c-1.976562 1.179687-4.53125.578124-5.773437-1.359376-1.246094-1.933593-.730469-4.507812 1.164063-5.816406l71.851562-50.78125-100.386719 57.976563c-1.996093 1.15625-4.554687.515625-5.769531-1.445313-1.214844-1.964844-.648438-4.539062 1.28125-5.808594l55.507812-36.695312-76.183593 43.964844c-2 1.136718-4.539063.484375-5.742188-1.472656-1.207031-1.957032-.644531-4.515626 1.269531-5.789063l54.425782-35.625-74.308594 42.90625c-.648438.375-1.382812.570313-2.132812.570313zm0 0" fill="#ffd67b"/><path d="m72.796875 62.617188c-1.785156 0-3.378906-1.109376-4-2.78125-.621094-1.675782-.132813-3.554688 1.21875-4.71875l27.75-23.894532-22.136719 12.800782c-1.902344 1.0625-4.304687.519531-5.5625-1.261719-1.261718-1.78125-.972656-4.226563.664063-5.667969l6.246093-5.332031-1.039062.589843c-1.835938 1.085938-4.195312.648438-5.519531-1.023437-1.324219-1.675781-1.210938-4.070313.269531-5.609375l6.476562-6.894531c-1.414062-.695313-2.332031-2.109375-2.386718-3.6875-.050782-1.574219.769531-3.050781 2.132812-3.839844l16.511719-9.523437c1.828125-1.046876 4.148437-.601563 5.460937 1.050781 1.3125 1.648437 1.222657 4.011719-.210937 5.554687l-2.007813 2.132813 16.308594-9.386719c1.902344-1.0625 4.304688-.519531 5.5625 1.261719 1.261719 1.785156.972656 4.226562-.664062 5.667969l-6.238282 5.335937 21.253907-12.265625c1.90625-1.0742188 4.316406-.539062 5.582031 1.246094 1.265625 1.78125.980469 4.234375-.664062 5.675781l-27.742188 23.894531 53.367188-30.816406c1.324218-.839844 3-.886719 4.367187-.125 1.371094.765625 2.210937 2.21875 2.1875 3.785156-.019531 1.566406-.898437 2.996094-2.289063 3.722656l-92.738281 53.53125c-.65625.382813-1.402343.585938-2.160156.578126zm0 0" fill="#ffd67b"/><g fill="#e85841"><path d="m65.03125 213.289062c-1.648438 0-3.148438-.957031-3.851562-2.449218-.703126-1.492188-.484376-3.257813.566406-4.53125l.75-.917969-5.828125 3.367187c-1.804688 1.039063-4.097657.621094-5.421875-.988281-1.320313-1.613281-1.289063-3.941406.082031-5.511719l4.46875-5.121093-4.71875 2.722656c-1.75 1.015625-3.976563.660156-5.324219-.855469-1.34375-1.515625-1.4375-3.769531-.222656-5.390625l4.335938-5.777343c-1.808594-.242188-3.261719-1.605469-3.621094-3.394532-.355469-1.789062.464844-3.609375 2.042968-4.523437l14.019532-8.125c1.753906-1.003907 3.972656-.640625 5.3125.867187 1.34375 1.511719 1.441406 3.757813.234375 5.378906l-2.976563 3.976563 8.933594-5.121094c1.808594-1.035156 4.097656-.617187 5.421875.992188 1.320313 1.609375 1.289063 3.941406-.082031 5.511719l-4.476563 5.121093 4.09375-2.363281c1.789063-1.023438 4.050781-.625 5.378907.945312 1.328124 1.574219 1.347656 3.871094.039062 5.460938l-3.890625 4.710938c1.484375.636718 2.476563 2.054687 2.574219 3.667968.09375 1.609375-.726563 3.136719-2.121094 3.945313l-13.585938 7.867187c-.652343.363282-1.386718.546875-2.132812.535156zm0 0"/><path d="m107.699219 435.15625c-1.503907 0-2.894531-.789062-3.664063-2.078125-.769531-1.289063-.804687-2.886719-.089844-4.210937l6.613282-12.296876-15.71875 9.082032c-1.679688.964844-3.796875.679687-5.160156-.691406-1.363282-1.375-1.628907-3.492188-.652344-5.164063l6.246094-10.667969h-.050782c-2.027344 1.0625-4.527344.335938-5.671875-1.644531s-.523437-4.507813 1.40625-5.734375l14.019531-8.089844c1.660157-.972656 3.769532-.691406 5.121094.683594 1.34375 1.363281 1.609375 3.457031.65625 5.117188l-6.246094 10.667968 14.761719-8.535156c1.65625-.960938 3.75-.703125 5.121094.632812 1.386719 1.335938 1.707031 3.433594.785156 5.121094l-6.625 12.289063.574219-.324219c1.320312-.777344 2.953125-.785156 4.28125-.019531 1.328125.761719 2.144531 2.175781 2.144531 3.707031-.003906 1.53125-.828125 2.945312-2.160156 3.699219l-13.585937 7.84375c-.636719.386719-1.363282.597656-2.105469.613281zm0 0"/><path d="m425.292969 228.660156c-1.535157 0-2.949219-.824218-3.707031-2.15625-.757813-1.332031-.746094-2.96875.035156-4.289062l8.210937-13.839844-12.246093 7.066406c-1.789063 1.03125-4.058594.636719-5.390626-.941406-1.335937-1.578125-1.34375-3.886719-.027343-5.476562l3.855469-4.632813c-1.480469-.640625-2.472657-2.0625-2.5625-3.671875-.09375-1.609375.730468-3.132812 2.128906-3.941406l13.652344-7.890625c1.785156-1.011719 4.039062-.609375 5.363281.957031 1.324219 1.570312 1.34375 3.859375.046875 5.449219l-.664063.804687 5.664063-3.269531c1.679687-.96875 3.804687-.683594 5.167968.695313 1.363282 1.378906 1.625 3.507812.636719 5.175781l-8.203125 13.839843 8.535156-4.90625c1.324219-.839843 3-.886718 4.367188-.125 1.371094.765626 2.210938 2.214844 2.1875 3.785157-.019531 1.566406-.898438 2.996093-2.289062 3.722656l-22.628907 13.097656c-.648437.367188-1.386719.558594-2.132812.546875zm0 0"/><path d="m415.101562 441.539062c-1.582031.003907-3.035156-.867187-3.777343-2.261718-.742188-1.398438-.652344-3.09375.238281-4.402344l7.988281-11.757812-10.414062 5.972656c-1.78125 1.015625-4.03125.621094-5.359375-.941406-1.328125-1.558594-1.359375-3.84375-.074219-5.441407l4-4.933593c-1.539063-.578126-2.609375-1.992188-2.75-3.632813-.136719-1.640625.679687-3.214844 2.101563-4.046875l13.65625-7.890625c1.78125-1.015625 4.03125-.621094 5.359374.9375 1.328126 1.5625 1.359376 3.847656.074219 5.445313l-1.269531 1.570312 6.5-3.746094c1.722656-.996094 3.902344-.671875 5.257812.785156 1.359376 1.453126 1.527344 3.65625.410157 5.304688l-7.953125 11.777344 8.617187-4.984375c2.039063-1.160157 4.632813-.453125 5.804688 1.578125s.484375 4.625-1.539063 5.8125l-24.746094 14.285156c-.644531.371094-1.378906.570312-2.125.570312zm0 0"/></g><path d="m300.167969 459.851562c-1.652344 0-3.15625-.949218-3.859375-2.445312-.707032-1.492188-.484375-3.257812.566406-4.535156l5.28125-6.40625-10.070312 5.820312c-1.878907 1.046875-4.242188.53125-5.515626-1.203125-1.273437-1.734375-1.054687-4.148437.507813-5.625l1.332031-1.21875-1.238281.707031c-1.816406 1.035157-4.113281.605469-5.429687-1.015624-1.316407-1.621094-1.265626-3.957032.121093-5.519532l17.46875-19.449218-21.28125 12.289062c-1.914062 1.109375-4.363281.574219-5.636719-1.234375-1.273437-1.8125-.949218-4.296875.746094-5.722656l8.378906-7.105469-9.292968 5.367188c-1.9375 1.101562-4.398438.523437-5.644532-1.328126-1.246093-1.851562-.855468-4.347656.890626-5.730468l1.894531-1.476563-2.449219 1.410157c-1.90625 1.082031-4.328125.542968-5.59375-1.25-1.265625-1.792969-.964844-4.253907.695312-5.6875l19.882813-16.914063-30.273437 17.441406c-1.933594 1.089844-4.378907.511719-5.625-1.324219-1.246094-1.839843-.875-4.324218.851562-5.714843l24.578125-19.378907-35.660156 20.582032c-1.949219 1.125-4.433594.542968-5.683594-1.328125-1.25-1.871094-.832031-4.386719.957031-5.753907l29.292969-22.367187-30.496094 17.605469c-1.921875 1.105468-4.371093.558594-5.636719-1.261719-1.265624-1.820313-.925781-4.304687.78125-5.71875l24.558594-20.257813-20.257812 11.6875c-1.933594 1.082032-4.371094.507813-5.617188-1.324218-1.242187-1.828125-.878906-4.308594.835938-5.707032l3.933594-3.140624c-1.816407.605468-3.816407-.078126-4.882813-1.667969-1.070313-1.59375-.945313-3.703125.300781-5.15625l9.882813-11.835938-4.496094 2.558594c-1.46875.847656-3.296875.746094-4.660156-.253906-1.363281-1.003907-2.007813-2.71875-1.640625-4.371094l2.160156-9.660156c-1.378906-.71875-2.253906-2.136719-2.285156-3.691407-.03125-1.554687.785156-3.003906 2.132812-3.78125l3.703125-2.132812c1.464844-.847656 3.292969-.746094 4.660157.253906 1.363281 1.003906 2.007812 2.71875 1.636718 4.371094l-1.5625 7.089844 16.863282-9.738282c1.789062-1.03125 4.0625-.628906 5.394531.949219 1.332031 1.582031 1.335937 3.890625.015625 5.476563l-9.875 11.84375 28.023437-16.210938c1.9375-1.109375 4.398438-.539062 5.652344 1.304688 1.253906 1.847656.875 4.34375-.871094 5.734375l-3.414062 2.722656 14.507812-8.355469c1.917969-1.105468 4.367188-.558594 5.632813 1.261719s.929687 4.304687-.777344 5.71875l-24.578125 20.277344 43.5625-25.148438c1.949219-1.125 4.433594-.546875 5.683594 1.324219s.832031 4.390625-.957031 5.757812l-29.351563 22.425782 29.40625-16.972656c1.9375-1.117188 4.40625-.546876 5.660156 1.304687 1.253907 1.855469.863281 4.359375-.890625 5.742187l-24.570312 19.378907 19.816406-11.433594c1.910156-1.105469 4.351562-.570313 5.625 1.234375s.957031 4.285156-.726562 5.710938l-19.882813 16.90625 14.984375-8.644532c1.9375-1.101562 4.398438-.523437 5.644531 1.328125 1.246094 1.847657.859375 4.347657-.890625 5.730469l-3.363281 2.617188c1.628906-.285157 3.28125.375 4.265625 1.707031 1.277344 1.808593.957031 4.289062-.734375 5.71875l-8.371094 7.082031 3.484375-1.996094c1.816406-1.046875 4.125-.621094 5.445313 1.007813 1.320312 1.628906 1.261719 3.976562-.140625 5.535156l-17.472656 19.484375 12.167968-7.023438c1.878906-1.046874 4.242188-.53125 5.515625 1.203126 1.273438 1.734374 1.054688 4.144531-.507812 5.621093l-3.027344 2.765625c1.300781-.015625 2.546875.53125 3.410156 1.503906 1.328125 1.582032 1.328125 3.890626 0 5.476563l-5.554687 6.742187c2.066406-.542968 4.214844.527344 5.027344 2.5.816406 1.972657.046874 4.242188-1.800782 5.316407l-19.140625 11.050781c-.648437.378906-1.382812.574219-2.132812.570312zm0 0" fill="#eb86be"/><path d="m316.917969 408.933594c-1.761719.007812-3.347657-1.074219-3.988281-2.714844-.640626-1.644531-.203126-3.511719 1.097656-4.699219l25.597656-23.578125-40.363281 23.296875c-1.929688 1.101563-4.386719.53125-5.640625-1.304687-1.25-1.839844-.878906-4.332032.855468-5.726563l25.308594-20.113281-31.199218 17.996094c-1.910157 1.074218-4.324219.523437-5.582032-1.269532-1.261718-1.796874-.953125-4.253906.710938-5.683593l33.46875-28.050781-36.402344 21.007812c-1.878906 1.046875-4.246094.53125-5.519531-1.203125-1.273438-1.734375-1.054688-4.144531.507812-5.621094l20.761719-18.960937-15.75 9.078125c-1.792969 1.03125-4.066406.628906-5.398438-.957031-1.328124-1.582032-1.332031-3.890626-.003906-5.476563l8.53125-10.136719-3.121094 1.789063c-1.519531.875-3.417968.726562-4.785156-.363281-1.371094-1.09375-1.933594-2.910157-1.417968-4.585938l1.976562-6.414062c-1.335938-.753907-2.167969-2.164063-2.175781-3.695313-.007813-1.535156.808593-2.957031 2.136719-3.722656l4.265624-2.464844c1.519532-.878906 3.425782-.738281 4.796876.355469 1.375 1.097656 1.9375 2.921875 1.414062 4.601562l-1.066406 3.464844 14.660156-8.457031c1.792969-1.019531 4.058594-.613281 5.382812.96875 1.324219 1.578125 1.328126 3.878906.011719 5.464843l-8.535156 10.128907 28.800781-16.621094c1.878906-1.046875 4.246094-.53125 5.515625 1.203125 1.273438 1.734375 1.054688 4.144531-.507812 5.621094l-20.761719 18.953125 44.800781-25.855469c1.914063-1.097656 4.351563-.550781 5.617188 1.257812 1.265625 1.808594.945312 4.28125-.742188 5.707032l-33.488281 28.074218 38.546875-22.253906c1.933594-1.105468 4.386719-.535156 5.640625 1.304688 1.25 1.839844.878906 4.332031-.855469 5.726562l-25.300781 20.121094 23.894531-13.789062c1.882813-1.078126 4.269531-.574219 5.554688 1.171874 1.285156 1.746094 1.058593 4.175782-.527344 5.652344l-25.601563 23.585938 18.925782-10.921875c1.902344-1.074219 4.308594-.539063 5.574218 1.238281 1.265626 1.78125.988282 4.226562-.648437 5.675781l-9.386719 8.140625c.597656.367188 1.09375.878906 1.441406 1.492188 1.179688 2.039062.484376 4.648437-1.550781 5.828125l-25.292969 14.632812c-1.90625 1.097657-4.332031.566407-5.605468-1.222656-1.273438-1.792969-.976563-4.257813.679687-5.695313l.488281-.429687-13.578124 7.835937c-.652344.398438-1.402344.613282-2.167969.613282zm0 0" fill="#d56fac"/><path d="m368.828125 353.449219c-1.726563.003906-3.28125-1.03125-3.945313-2.621094-.664062-1.589844-.308593-3.421875.90625-4.648437l5.570313-5.621094-18.550781 10.699218c-1.878906 1.09375-4.285156.59375-5.574219-1.15625-1.292969-1.753906-1.058594-4.195312.539063-5.671874l17.066406-15.792969-25.050782 14.503906c-2.027343 1.0625-4.527343.335937-5.671874-1.644531-1.144532-1.980469-.527344-4.507813 1.402343-5.734375l57.925781-33.433594c1.882813-1.078125 4.269532-.574219 5.554688 1.171875s1.058594 4.175781-.527344 5.652344l-17.066406 15.796875 13.140625-7.585938c1.851563-1.082031 4.21875-.621093 5.527344 1.078125 1.3125 1.695313 1.15625 4.101563-.355469 5.621094l-9.542969 9.640625c1.574219.554687 2.679688 1.976563 2.832031 3.636719.152344 1.660156-.675781 3.257812-2.121093 4.085937l-19.925781 11.445313c-.648438.378906-1.382813.582031-2.132813.578125zm0 0" fill="#f199ce"/><path d="m263.722656 377.445312c-1.871094.003907-3.523437-1.210937-4.082031-2.996093-.554687-1.785157.117187-3.726563 1.65625-4.785157l33.554687-23.117187-43.777343 25.265625c-1.320313.84375-3 .890625-4.367188.125-1.367187-.761719-2.207031-2.214844-2.1875-3.78125.023438-1.566406.902344-2.996094 2.289063-3.722656l136.199218-78.644532c1.988282-1.175781 4.550782-.558593 5.785157 1.390626 1.230469 1.953124.6875 4.53125-1.226563 5.820312l-33.570312 23.144531 36.257812-20.933593c1.953125-1.117188 4.4375-.53125 5.679688 1.347656 1.242187 1.875.8125 4.390625-.976563 5.75l-69.972656 52.574218c1.113281 2.03125.40625 4.582032-1.597656 5.746094l-26.359375 15.222656c-1.953125 1.117188-4.4375.527344-5.679688-1.347656-1.242187-1.875-.8125-4.390625.976563-5.753906l41.089843-30.871094-67.542968 38.988282c-.652344.382812-1.394532.582031-2.148438.578124zm0 0" fill="#f199ce"/><path d="m165.996094 222.675781c-1.929688 0-3.621094-1.296875-4.121094-3.160156-.496094-1.867187.316406-3.835937 1.988281-4.800781l19.882813-11.484375c1.324218-.839844 3-.890625 4.371094-.125 1.367187.761719 2.207031 2.214843 2.183593 3.78125-.019531 1.570312-.898437 2.996093-2.285156 3.722656l-19.882813 11.53125c-.652343.363281-1.390624.546875-2.136718.535156zm0 0" fill="#f199ce"/><path d="m204.449219 393.660156c-1.878907-.003906-3.535157-1.234375-4.082031-3.03125-.542969-1.800781.15625-3.742187 1.71875-4.785156l57.71875-38.496094-70.828126 40.910156c-1.996093 1.160157-4.550781.515626-5.765624-1.445312-1.214844-1.964844-.648438-4.535156 1.277343-5.808594l66.5625-44.023437-73.71875 42.554687c-1.992187 1.085938-4.484375.421875-5.671875-1.507812-1.191406-1.929688-.664062-4.453125 1.199219-5.742188l68.378906-44.988281-71.5625 41.316406c-2 1.101563-4.511719.433594-5.699219-1.515625-1.1875-1.949218-.632812-4.488281 1.261719-5.761718l33.910157-21.683594-33.277344 19.226562c-2.003906 1.140625-4.550782.480469-5.753906-1.484375-1.199219-1.96875-.621094-4.535156 1.308593-5.796875l39.515625-25.429687-53.085937 30.652343c-1.996094 1.085938-4.488281.414063-5.675781-1.523437-1.183594-1.9375-.644532-4.464844 1.230468-5.746094l55.527344-35.976562-64.25 37.078125c-1.992188 1.097656-4.5.4375-5.691406-1.503906-1.191406-1.941407-.652344-4.476563 1.230468-5.757813l63.144532-41.335937-68.496094 39.550781c-2.003906 1.101562-4.523438.429687-5.707031-1.53125-1.183594-1.957031-.613281-4.5 1.296875-5.765625l4.265625-2.695313-4.539063 2.621094c-1.984375 1.113281-4.496094.476563-5.707031-1.453125-1.207031-1.925781-.691406-4.464844 1.175781-5.765625l84.734375-57.722656-84.941406 49.035156c-1.972656 1.121094-4.480469.496094-5.699219-1.417969-1.222656-1.914062-.730468-4.449218 1.117188-5.769531l69.839844-48.894531-69.691407 40.234375c-2 1.1875-4.578125.558593-5.804687-1.414063-1.226563-1.972656-.648438-4.5625 1.296875-5.832031l33.722656-22.507813-29.644531 17.066407c-1.96875 1.121093-4.476563.507812-5.703125-1.398438-1.226563-1.910156-.746094-4.445312 1.097656-5.769531l42.988281-30.609375-25.46875 14.703125c-1.785156 1.035156-4.050781.648438-5.390625-.917969-1.339843-1.566406-1.367187-3.867187-.0625-5.464843l14.933594-18.28125c-2.078125.964843-4.542969.121093-5.59375-1.910157-1.046875-2.035156-.304687-4.535156 1.683594-5.664062l19.625-11.308594c1.785156-1.035156 4.050781-.648437 5.390625.917969s1.367187 3.867187.0625 5.464844l-14.871094 18.3125 83.199219-48.042969c1.96875-1.125 4.476562-.507813 5.703125 1.398437 1.226562 1.910156.746094 4.445313-1.09375 5.769532l-43.019532 30.617187 65.136719-37.65625c1.992188-1.132813 4.523438-.488281 5.734375 1.457031 1.207032 1.949219.664063 4.503906-1.238281 5.789063l-33.792969 22.621093 41.472656-23.894531c1.980469-1.175781 4.539063-.566406 5.777344 1.375 1.238282 1.945313.710938 4.519531-1.195312 5.820313l-69.835938 48.785156 99.3125-57.335938c1.984375-1.117187 4.492188-.476562 5.703125 1.449219 1.210938 1.929688.695313 4.46875-1.171875 5.769531l-84.71875 57.71875 97.277344-56.175781c2.007812-1.101562 4.523438-.425781 5.707031 1.53125 1.183594 1.960938.613281 4.503907-1.292969 5.765625l-4.269531 2.679688 9.011719-5.207032c2-1.132812 4.539062-.484374 5.742188 1.472657 1.207031 1.957031.644531 4.519531-1.269532 5.789062l-63.148437 41.320313 75.511719-43.597656c2.003906-1.140626 4.550781-.480469 5.753906 1.484374 1.199218 1.96875.621094 4.535157-1.304688 5.796876l-55.535156 35.984374 62.847656-36.285156c2-1.097656 4.511719-.429687 5.699219 1.519532 1.1875 1.949218.628906 4.484374-1.261719 5.761718l-39.476562 25.394532 42.820312-24.746094c2.003906-1.121094 4.535156-.457032 5.726563 1.507812 1.195312 1.960938.621093 4.515625-1.296875 5.777344l-33.980469 21.734375 35.191406-20.316406c1.992188-1.085938 4.480469-.421875 5.671875 1.507812 1.1875 1.929688.660156 4.453125-1.199218 5.746094l-68.328126 44.988281 68.652344-39.621094c1.992188-1.117187 4.511719-.464843 5.710938 1.480469 1.199218 1.945313.65625 4.488281-1.230469 5.773438l-66.5625 44.039062 63.625-36.695312c1.996094-1.183594 4.574219-.554688 5.800781 1.417969 1.226563 1.972656.652344 4.5625-1.296875 5.828124l-57.710937 38.484376 63.070312-36.410157c2.027344-1.058593 4.527344-.335937 5.671875 1.644531 1.144531 1.980469.527344 4.511719-1.402343 5.738282l-177.597657 102.476562c-.648437.371094-1.382812.566406-2.132812.5625zm0 0" fill="#f199ce"/><path d="m471.996094 121.003906v-31.78125c0-.101562-.0625-.152344-.070313-.246094.039063-.25.039063-.507812 0-.757812-6.261719-23.042969-25.386719-19.328125-44.953125-19.328125h-99.113281c-7.03125 0-22.988281 2.953125-29.867187 0-22.664063-9.710937-9.386719-29.289063-14.753907-45.390625-7.972656-23.738281-26.761719-22.878906-47.855469-22.878906h-101.777343c-17.367188 0-42.761719-4.1875-56.804688 9.167968-18.910156 18.003907-1.296875 43.304688-21.574219 59.449219-9.464843 7.527344-13.03125-.296875-19.984374 12.691407-5.574219 10.402343-3.039063 26.640624-2.464844 38.765624-30.773438 5.34375-34.441406 27.878907-31.472656 60.570313 6.65625 73.1875 13.308593 146.378906 19.960937 219.578125 3.097656 34.089844-5.546875 96.949219 39.003906 103.136719 64.042969 8.890625 135.570313 0 200.125 0h184.105469c1.039062-.011719 2.0625-.25 2.996094-.703125 43.785156-10.238282 34.484375-85.453125 37.589844-119.617188 6.519531-71.679687 15.136718-143.582031 19.625-215.46875 1.945312-32.136718-10.359376-43.570312-32.714844-47.1875zm-426.667969-31.78125c11.210937-27.980468 7.679687-2.097656 20.429687-15.179687 8.566407-6.761719 13.609376-17.046875 13.703126-27.964844 3.472656-21.859375 7.441406-34.574219 30.941406-37.621094 19.542968-1.222656 39.140625-1.222656 58.683594 0h61.6875c5.632812-.789062 11.347656-.789062 16.984374 0 22.894532 9.386719 20.359376 26.90625 24.078126 45.269531 6.09375 30.085938 33.28125 22.996094 58.394531 22.996094 22.910156 0 121.046875-14.796875 129.324219 14.6875-.105469 10.007813-1.785157 24.6875 1.945312 28.449219-4.027344-.257813-8.277344-.359375-12.800781-.359375h-208.488281c-65.191407 0-130.875-2.355469-196.027344 0h-.433594c1.222656-2.878906 1.761719-6.003906 1.578125-9.128906-1.042969-7.011719-1.042969-14.136719 0-21.148438zm443.195313 119.75c-3.332032 36.652344-6.667969 73.328125-10 110.019532l-10.09375 111.035156c-1.707032 18.3125 2.421874 58.734375-23.535157 64.941406h-321.058593c-38.539063 0-76.203126 10.152344-84.6875-36.695312-10.792969-59.648438-11.195313-123.125-16.671876-183.441407-2.695312-29.683593-5.398437-59.371093-8.105468-89.0625-1.707032-19.277343-9.832032-48.109375 16.519531-57.257812 1.328125-.4375 2.6875-.765625 4.070313-.988281.585937.253906 1.21875.390624 1.859374.398437h25.667969c3.832031.324219 7.425781.589844 10.460938.589844h289.519531c3.328125 0 7.476562-.238281 12.179688-.589844h87.039062c16.210938 3.78125 28.652344 11.496094 31.785156 26.214844 3.355469 15.566406-3.523437 39.195312-4.949218 54.835937zm0 0" fill="#262626"/><path d="m409.105469 204.945312c-9.871094-.933593-19.816407-.675781-29.621094.777344-12.867187 2.695313-17.960937 13.363282-22.144531 24.371094-3.953125-3.21875-8.308594-5.914062-12.953125-8.023438-18.628907-8.363281-39.082031-18.773437-59.671875-20.359374-.308594.003906-.617188.03125-.921875.085937-.238281 0-.394531-.078125-.65625-.070313-6.15625.179688-12.261719 1.183594-18.152344 2.988282-5.261719-3.542969-11.183594-5.992188-17.40625-7.210938-.230469 0-.511719 0-.753906-.066406-.214844-.078125-.433594-.140625-.65625-.191406-12.378907-1.628906-24.925781 1.328125-35.277344 8.3125-7.925781-3.390625-16.660156-4.410156-25.15625-2.941406-.296875 0-.570313 0-.851563.082031-.09375 0-.171874.070312-.265624.085937-.476563.035156-.949219.109375-1.414063.222656-10.667969 2.859376-19.894531 9.5625-25.910156 18.824219-4.433594.230469-8.816407 1.074219-13.019531 2.507813-4.070313-11.765625-8.355469-27.886719-18.824219-33.671875-9.996094-5.527344-25.738281-3.550781-37.921875-2.953125-4.480469-24.003906-45.960938-18.925782-46.03125 5.785156-.066406 25.746094 39.03125 23.808594 45.558594 2.929688 10.128906-.683594 23.230468-2.253907 30.5 2.617187 8.371093 5.625 11.765624 21.410156 15.359374 31.25-4.738281 3.429687-8.761718 7.746094-11.84375 12.714844-3.019531 5.570312-4.636718 11.789062-4.710937 18.125-2.433594 1.921875-4.671875 4.082031-6.671875 6.453125-.117188.183594-.21875.371094-.308594.570312-.160156.136719-.3125.285156-.453125.445313-2.511719 3.976562-4.367187 8.332031-5.496093 12.902343h-38.191407c-7.144531 0-9.386719 9.265626-1.042969 9.265626h38.066407c.335937 9.417968 1.8125 18.757812 4.402343 27.820312 2.902344 15.675781 13.113282 29.027344 27.488282 35.933594 5.742187 2.679687 16.210937 1.652344 20.972656 4.667968 4.761719 3.011719 6.308594 9.496094 9.960938 14.589844 2.429687 3.390625 5.324218 6.421875 8.59375 9.011719-3.132813 9.003906-7.179688 25.171875-16.367188 27.230469-8.988281 1.132812-18.078125 1.179687-27.078125.136718-3.917969-24.824218-46.078125-20.003906-46.128906 5.171876 0 25.855468 38.925781 24.148437 45.550781 3.15625 11.164062 1.46875 22.503906.84375 33.441406-1.84375 11.902344-4.265626 16.347656-16.496094 20.402344-27.863282 6.84375 3.035156 14.175781 4.8125 21.648438 5.25.25-.007812.496093-.035156.742187-.078125.285156.039063.570313.058594.855469.0625 5.078125-.296875 10.101562-1.195312 14.964844-2.679687 6.09375 19.777344 28.570312 13.457031 40.960937 27.851562 9.34375 10.863282 14.335937 28.644532 26.257813 37.058594 12.21875 7.441406 28.148437 3.632812 35.675781-8.53125 5.597656-10.4375 2.996093-27.359375 2.40625-39.894531 7.378906-.59375 14.597656-2.464844 21.335937-5.527344 4.648438 11.945313 9.273438 23.753906 24.40625 24.789063 9.121094.613281 18.429688.230468 27.628906.085937 2.175782 10.367187 11.609376 17.585937 22.1875 16.972656 12.488282.039063 22.902344-9.550781 23.894532-22 .484375-26.921875-39.554688-26.453125-45.851563-3.890625-7.476562.109375-14.984375.316406-22.410156-.085937-12.320313-.65625-14.964844-12.707031-18.773437-22.46875 13.984374-10.386719 20.785156-27.859375 17.503906-44.960938 6.453125-2.457031 12.304687-6.277343 17.152344-11.195312.214843-.265625.398437-.550781.554687-.855469.050781-.066406.152344-.117188.203125-.195312 4.917969-6.871094 7.867188-14.953126 8.535156-23.375h34.355469c4.554687 0 13.15625-6.875 4.847656-6.875h-39.535156c-.882813-6.085938-3.351563-11.832032-7.152344-16.667969-3.644531-4.710938-10.972656-7.097657-14.105469-11.3125-5.554687-7.484375-3.667968-18.519531-7.167968-27.1875-2.101563-5.164063-4.957032-9.992188-8.472656-14.320313 3.300781-9.164062 6.738281-23.441406 16.640624-25.292968 8.65625-.949219 17.386719-.988282 26.050782-.121094 1.972656 10.605468 11.492187 18.105468 22.261718 17.539062 12.515626.035156 22.9375-9.589844 23.894532-22.066406.460937-26.957031-39.628906-26.53125-45.890625-3.867188zm-344.253907.699219c-6.542968-1.808593-11.035156-7.8125-10.921874-14.601562 0-6.457031 4.429687-14.136719 11.777343-11.75 5.929688 2.265625 9.847657 7.960937 9.835938 14.3125-.46875 5.851562-3.625 13.351562-10.691407 12.039062zm42.625 221.703125c-6.507812-1.722656-10.996093-7.671875-10.871093-14.402344 0-6.46875 4.503906-13.902343 11.800781-11.648437 5.894531 2.179687 9.804688 7.804687 9.796875 14.089844-.46875 5.851562-3.679687 13.257812-10.726563 11.960937zm315.339844-17.226562c6.351563 1.121094 11.007813 6.597656 11.09375 13.046875.574219 5.886719-3.574218 11.1875-9.429687 12.050781-6.832031-.515625-12.128907-6.1875-12.175781-13.039062.316406-5.828126 3.582031-12.707032 10.511718-12.058594zm-108.859375 35.300781c-6.121093 1.125-12.363281 1.410156-18.558593.855469-2.867188-1.707032-5.761719-8.644532-7.59375-11.382813-4.828126-8.34375-10.183594-16.367187-16.035157-24.023437-11.949219-13.609375-33.179687-4.265625-38.136719-24.746094 5.605469-3.347656 10.574219-7.664062 14.667969-12.75 4.441407 1.707031 9.03125 3.007812 13.707031 3.890625 1.613282 1.011719 3.570313 1.320313 5.417969.855469 1.894531.210937 3.789063.402344 5.683594.46875 7.648437 16.378906 23.425781 27.464844 41.429687 29.105468 0 9.996094.417969 20.0625 0 30.039063-.078124 1.699219.390626 6.605469-.582031 7.6875zm37.546875-53.007813c-1.949218.367188-3.644531 1.5625-4.640625 3.277344-3.988281 2.449219-8.371093 4.183594-12.953125 5.121094-19.085937 3.773438-38.339844-5.652344-47.0625-23.042969 6.640625-.960937 13.160156-2.652343 19.429688-5.042969 12.691406-5.53125 23.476562-14.679687 31-26.300781 7.945312 5.445313 17.523437 7.988281 27.121094 7.203125 2.914062 14.304688-2.003907 29.082032-12.910157 38.785156zm32.042969-55.46875c-5.464844 5.574219-12.992187 8.636719-20.796875 8.464844s-15.1875-3.566406-20.402344-9.375c-3.238281-3.59375-5.691406-7.824218-7.210937-12.417968-1.332031-4.121094-13.652344-.65625-12.363281 3.320312 1.496093 4.40625 3.773437 8.503906 6.714843 12.109375-4.472656 8.382813-10.679687 15.714844-18.210937 21.511719-3.222656 2.261718-6.652344 4.214844-10.238282 5.835937-16.117187 6.433594-34.238281 5.546875-49.648437-2.429687h-.109375c-3.402344-1.800782-6.632812-3.90625-9.652344-6.289063-2.492187-1.558593-5.628906-1.660156-8.21875-.265625-1.277344.5625-5.511718 3.414063-3.234375 5.214844 2.871094 2.300781 5.898438 4.402344 9.0625 6.28125-6.835937 10.085938-18.019531 16.363281-30.191406 16.945312-18.03125-.890624-33.515625-13.117187-38.570313-30.445312-6.175781-25.601562 11.207032-46.933594 38.699219-47.789062.832031-.027344 1.652344-.1875 2.433594-.476563 12.089844.496094 26.988281 2.636719 37.828125-1.410156 8.4375-3.15625 9.003906-9.222657 9.214844-17.210938.152344-5.820312-.09375-7.089843 5.972656-7.089843h11.09375c4.957031 0 13.023438-7.476563 4.695312-7.476563-12.800781 0-32.1875-3.214844-34.132812 13.867187-.273438 2.414063 1.074219 10.242188-.648438 11.734376-1.359374 1.167968-8.089843 0-9.824218 0h-22.1875c-1.007813-.449219-2.105469-.648438-3.207032-.589844-30.25 1-55.910156 22.742187-53.648437 51.636718-15.539063-1.292968-28.933594-11.445312-34.371094-26.0625 2.992188 1.460938 14.324219-3.15625 10.007813-5.296874-5.675782-2.835938-10.460938-7.175782-13.839844-12.546876-.46875-.601562-1.164062-.984374-1.921875-1.066406-3.664063-11.855468-2.34375-24.691406 3.652344-35.558594 2.363281-2.558593 6.058593-4.941406 7.578125-8.019531 2.589844-1.667969 5.492187-2.792969 8.535156-3.304687 1.859375-.296875 6.765625-1.382813 7.140625-3.777344.375-2.398438-3.753906-2.132812-5.121094-1.90625-3.125.527344-6.195312 1.324219-9.179687 2.390625.453125-4.023437 1.640625-7.933594 3.507812-11.527344 2.371094-3.902343 5.578125-7.238281 9.386719-9.761719.960937-.328124 1.847656-.839843 2.617187-1.503906 4.28125-2.089844 9.035157-3.03125 13.789063-2.730468.664063.023437 1.324219-.015626 1.980469-.109376 2.414062.460938 4.765625 1.191407 7.015625 2.183594 2.945312.964844 6.167969.53125 8.753906-1.175781 1.570313-.992187 3.832031-3.527344 1.101563-4.753906-2.824219-1.261719-5.777344-2.214844-8.804688-2.84375 3.671875-6.039063 9.445312-10.511719 16.210938-12.558594 7.265624-1.3125 14.761718-.023437 21.171874 3.632813.382813.175781.785157.304687 1.195313.394531 3.160156 2.300781 5.9375 5.082031 8.234375 8.242187 1.988281 2.722656 13.910156-1.269531 11.578125-4.472656-2.238281-3.042969-4.933594-5.722656-7.984375-7.953125 6.546875-4.296875 14.414062-6.113281 22.183594-5.117187 3.910156.746093 7.683594 2.074218 11.199218 3.941406 2.558594 1.441406 4.785157 3.90625 7.824219 4.265625 2.769531-.101563 5.492188-.761719 8.003907-1.9375 4.058593-1.109375 8.242187-1.710938 12.449218-1.789063 15.121094 1.339844 22.066406 9.453125 34.40625 14.085938 4.644532 4.398437 8.453125 9.605468 11.238282 15.359375 2.492187 5.222656 14.703124 1.589843 12.367187-3.308594-1.109375-2.292969-2.347656-4.519531-3.714844-6.664063.4375.179688.855469.273438 1.304688.46875 19.714843 9.234376 31.546875 29.816407 29.613281 51.496094-.421875 5.09375-1.523438 10.109375-3.277344 14.910156-1.347656 3.558594 10.863282 2.105469 12.3125-1.707031.589844-1.5625 1.085938-3.132812 1.527344-4.703125 7.398438 5.148438 12.355469 13.113282 13.695312 22.023438 1.339844 8.914062-1.046874 17.984375-6.601562 25.082031zm49.492187-115.128906c-6.804687-.460937-12.105468-6.097656-12.140624-12.921875.316406-5.835937 3.617187-12.621093 10.519531-11.996093 6.339843 1.0625 11.007812 6.507812 11.09375 12.9375.515625 5.882812-3.671875 11.140624-9.523438 11.953124zm0 0" fill="#262626"/><path d="m241.355469 75.613281c3.773437 0 13.398437-5.613281 5.1875-5.613281h-136.53125c-3.773438 0-13.398438 5.613281-5.1875 5.613281zm0 0" fill="#262626"/></svg>