<svg id="Layer_1" enable-background="new 0 0 512 512" height="512" viewBox="0 0 512 512" width="512" xmlns="http://www.w3.org/2000/svg"><g><path d="m307.144 204.856c-28.246 0-51.144 22.898-51.144 51.144-28.246 0-51.144 22.898-51.144 51.144v94.045c0 28.246 22.898 51.144 51.144 51.144 0 32.931 26.769 59.667 59.733 59.667s59.733-26.736 59.733-59.668c0-6.913-1.177-13.552-3.345-19.725 10.76 7.078 23.637 11.201 37.478 11.201 37.675 0 68.267-30.556 68.267-68.192 0-18.089-7.066-34.541-18.586-46.753 30.61-10.101 52.72-38.923 52.72-72.863 0-28.246-22.898-51.144-51.144-51.144z" fill="#7644fc"/><path d="m204.856 307.144c28.246 0 51.144-22.898 51.144-51.144 28.246 0 51.144-22.898 51.144-51.144v-94.045c0-28.246-22.898-51.144-51.144-51.144 0-32.931-26.769-59.667-59.733-59.667s-59.733 26.736-59.733 59.668c0 6.913 1.177 13.552 3.345 19.725-10.76-7.078-23.637-11.201-37.478-11.201-37.675 0-68.267 30.556-68.267 68.192 0 18.089 7.066 34.541 18.586 46.753-30.61 10.101-52.72 38.923-52.72 72.863 0 28.246 22.898 51.144 51.144 51.144z" fill="#fde273"/><path d="m317.648 256c3.726-.437 6.619-3.6 6.619-7.444v-9.567c0-18.851 15.283-34.133 34.133-34.133s34.133 15.282 34.133 34.133v9.567c0 3.844 2.893 7.007 6.619 7.444h112.848c0-33.94-22.11-62.762-52.719-72.864 11.52-12.212 18.585-28.664 18.585-46.753 0-37.636-30.592-68.192-68.267-68.192-13.841 0-26.718 4.123-37.479 11.201 2.167-6.173 3.345-12.812 3.345-19.725.002-32.931-26.767-59.667-59.732-59.667s-59.733 26.736-59.733 59.668v52.412c0 4.142-3.358 7.5-7.5 7.5h-9.567c-18.851 0-34.133 15.283-34.133 34.133s15.282 34.133 34.133 34.133h9.567c4.142 0 7.5 3.358 7.5 7.5v60.654z" fill="#ff9599"/><path d="m194.352 256c-3.726.437-6.619 3.6-6.619 7.444v9.567c0 18.851-15.283 34.133-34.133 34.133s-34.133-15.282-34.133-34.133v-9.567c0-3.844-2.893-7.007-6.619-7.444h-112.848c0 33.94 22.11 62.762 52.719 72.864-11.52 12.212-18.585 28.664-18.585 46.753 0 37.636 30.592 68.192 68.267 68.192 13.841 0 26.718-4.123 37.479-11.201-2.167 6.173-3.345 12.812-3.345 19.725 0 32.932 26.769 59.668 59.733 59.668s59.732-26.737 59.732-59.669v-52.412c0-4.142 3.358-7.5 7.5-7.5h9.567c18.851 0 34.133-15.283 34.133-34.133s-15.282-34.133-34.133-34.133h-9.567c-4.142 0-7.5-3.358-7.5-7.5v-60.654z" fill="#23defc"/><path d="m317.648 256c3.726-.437 6.619-3.6 6.619-7.444v-9.567c0-18.851 15.283-34.133 34.133-34.133s34.133 15.282 34.133 34.133v9.567c0 3.844 2.893 7.007 6.619 7.444h112.848c0-33.94-22.11-62.762-52.719-72.864 11.52-12.212 18.585-28.664 18.585-46.753 0-37.636-30.592-68.192-68.267-68.192-13.841 0-26.718 4.123-37.479 11.201 2.167-6.173 3.345-12.812 3.345-19.725.002-32.931-26.767-59.667-59.732-59.667s-59.733 26.736-59.733 59.668v196.332z" fill="#ff5892"/><path d="m256 399.921c0-4.142 3.358-7.5 7.5-7.5h9.567c18.851 0 34.133-15.283 34.133-34.133s-15.282-34.133-34.133-34.133h-9.567c-4.142 0-7.5-3.358-7.5-7.5z" fill="#00bbf3"/></g></svg>