<svg id="Capa_1" enable-background="new 0 0 497 497" height="512" viewBox="0 0 497 497" width="512" xmlns="http://www.w3.org/2000/svg"><g><path d="m470.041 229.99c-.673-.594-1.357-1.18-2.051-1.758l-.136-.113.044-.174c14.185-56.101-25.984-111.326-83.727-115.109l-.161-.011c-18.159-54.478-82.622-77.461-131.15-46.759l-4.361 2.759-.026-.016c-48.989-30.93-114.029-9.8-135.486 44.016l-.15.01c-57.755 3.801-97.921 59.044-83.726 115.157l.032.126-.135.113c-.696.579-1.38 1.166-2.054 1.761-55.378 48.858-19.569 140.564 54.281 140.565l334.53.002c73.853 0 109.663-91.716 54.276-140.569z" fill="#ffb4bf"/><path d="m298.286 202.115c5.883 0 10.653-4.769 10.653-10.653v-33.049c0-5.883-4.769-10.653-10.653-10.653h-43.701v-10.653c0-14.406-11.679-26.085-26.085-26.085-14.406 0-26.085 11.679-26.085 26.085v10.653h-43.701c-5.883 0-10.653 4.769-10.653 10.653v33.049c0 5.883 4.769 10.653 10.653 10.653 14.406 0 26.085 11.679 26.085 26.085 0 14.406-11.679 26.085-26.085 26.085-5.883 0-10.653 4.769-10.653 10.653v33.048c0 5.883 4.769 10.653 10.653 10.653h43.701v-10.653c0-14.406 11.679-26.085 26.085-26.085 14.406 0 26.085 11.679 26.085 26.085v10.653h43.701c5.883 0 10.653-4.769 10.653-10.653v-33.048c0-5.883-4.769-10.653-10.653-10.653-14.406 0-26.085-11.679-26.085-26.085 0-14.407 11.679-26.085 26.085-26.085z" fill="#696eb1"/><g fill="#ff8d9d"><path d="m436.321 338.15c5.883 0 10.653-4.769 10.653-10.653v-33.049c0-5.883-4.769-10.653-10.653-10.653h-43.701v-10.653c0-14.406-11.679-26.085-26.085-26.085-14.406 0-26.085 11.679-26.085 26.085v10.653h-43.701c-5.883 0-10.653 4.769-10.653 10.653v33.048c0 5.883 4.769 10.653 10.653 10.653 14.406 0 26.085 11.679 26.085 26.085 0 14.406-11.679 26.085-26.085 26.085-5.883 0-10.653 4.769-10.653 10.653v33.048c0 5.883 4.769 10.653 10.653 10.653h43.701v-10.653c0-14.406 11.679-26.085 26.085-26.085 14.406 0 26.085 11.678 26.085 26.085v10.653h43.701c5.883 0 10.653-4.769 10.653-10.653v-33.049c0-5.883-4.769-10.653-10.653-10.653-14.406 0-26.085-11.679-26.085-26.085.001-14.404 11.679-26.083 26.085-26.083z"/><path d="m94.216 260.146c0-85.968 44.193-161.603 111.091-205.463-38.53-2.572-76.81 19.243-92.32 58.143l-.15.01c-57.755 3.801-97.921 59.045-83.727 115.158l.032.126-.135.113c-.695.579-1.38 1.166-2.054 1.761-55.378 48.858-19.569 140.564 54.281 140.564h39.164c-16.741-33.194-26.182-70.698-26.182-110.412z"/><path d="m87.265 230.057c3.3-2.503 3.946-7.208 1.442-10.508-7.684-10.13-8.686-20.545-8.236-27.333 9.252 2.63 19.141 3.978 29.703 3.895 4.142-.033 7.473-3.418 7.439-7.56-.033-4.143-3.438-7.472-7.56-7.44-.269.002-.537.003-.803.003-12.2 0-22.609-2.243-31.372-5.567-.272-.13-.551-.25-.843-.35-.076-.026-.154-.042-.23-.065-17.496-6.92-28.17-18.132-32.946-24.145-3.087 4.268-5.809 8.8-8.139 13.54 6.144 6.763 16.098 15.667 30.277 22.299-1.32 9.095-1.401 25.759 10.76 41.79 2.496 3.289 7.2 3.952 10.508 1.441z"/><path d="m112.177 301.778c2.18-3.522 1.093-8.145-2.429-10.325-3.523-2.18-8.145-1.092-10.325 2.43-5.751 9.29-15.852 10.884-31.855 12.714-1.265.145-2.549.292-3.849.447-2.271-7.858-5.14-23.058 1.538-35.788 1.924-3.668.511-8.202-3.157-10.125-3.669-1.925-8.202-.511-10.126 3.157-8.561 16.319-5.924 34.603-3.142 45.153-12.813 2.85-25.972 8.489-36.855 22.095 2.692 4.477 5.814 8.704 9.323 12.614 12.795-18.612 29.923-20.585 47.973-22.65 16.241-1.859 33.035-3.78 42.904-19.722z"/></g><path d="m77.036 175.198c-.076-.026-.154-.042-.23-.065-17.497-6.921-28.171-18.133-32.947-24.146-.729 1.008-1.435 2.034-2.123 3.071-.064.096-.129.191-.192.288-.69 1.049-1.361 2.111-2.009 3.187-.025.042-.049.084-.075.125-1.339 2.233-2.587 4.522-3.738 6.863-.001.002-.002.004-.003.006 6.144 6.763 16.098 15.667 30.277 22.299-1.32 9.095-1.401 25.759 10.76 41.79 2.496 3.291 7.2 3.953 10.508 1.442 3.3-2.503 3.946-7.208 1.442-10.508-7.684-10.13-8.686-20.545-8.236-27.333 7.039 2 14.449 3.254 22.24 3.706 1.356-5.017 2.867-9.969 4.528-14.853-11.328-.234-21.089-2.383-29.361-5.521-.27-.131-.549-.251-.841-.351z" fill="#e95b70"/><path d="m96.987 297.093c-6.008 6.488-15.47 7.908-29.418 9.503-1.265.145-2.549.292-3.849.447-2.271-7.858-5.14-23.058 1.538-35.788 1.924-3.668.511-8.202-3.157-10.125-3.669-1.925-8.202-.511-10.126 3.157-8.561 16.319-5.924 34.603-3.142 45.153-12.813 2.85-25.972 8.489-36.855 22.095.639 1.063 1.307 2.11 1.994 3.144.104.157.213.312.318.468.609.903 1.234 1.795 1.879 2.674.093.127.185.255.279.382 1.522 2.05 3.137 4.035 4.848 5.941l.004.004c12.795-18.612 29.923-20.585 47.973-22.65 10.757-1.23 21.755-2.493 30.824-7.835-1.214-5.459-2.266-10.98-3.11-16.57z" fill="#e95b70"/><path d="m419.949 171.709c11.86-2.57 24.028-7.523 34.456-18.96-2.879-4.182-6.1-8.124-9.625-11.788-10.016 12.015-22.232 15.531-35.295 17.389-.072.007-.144.022-.217.031-3.188.448-6.425.803-9.693 1.159-16.251 1.769-33.055 3.598-43.012 19.487-2.199 3.51-1.137 8.138 2.373 10.338 3.529 2.211 8.15 1.118 10.338-2.373 5.802-9.259 15.91-10.797 31.924-12.54 1.266-.138 2.551-.278 3.851-.426 2.229 7.871 5.014 23.085-1.733 35.779-1.944 3.657-.556 8.198 3.102 10.143 3.657 1.943 8.198.556 10.143-3.102 8.65-16.274 6.113-34.571 3.388-45.137z" fill="#ff8d9d"/><path d="m345.443 356.237c0-43.015 10.137-81.373 32.853-106.374-3.535-1.789-7.528-2.804-11.761-2.804-14.406 0-26.085 11.679-26.085 26.085v10.652h-43.7c-5.883 0-10.653 4.77-10.653 10.653v33.048c0 5.883 4.769 10.653 10.653 10.653 14.406 0 26.085 11.678 26.085 26.084 0 14.406-11.679 26.085-26.085 26.085-5.883 0-10.653 4.77-10.653 10.652v33.049c0 5.883 4.769 10.652 10.653 10.652h43.701v-10.652c0-10.826 6.596-20.111 15.988-24.058-7.073-16.487-10.996-34.647-10.996-53.725z" fill="#e95b70"/><path d="m207.408 220.201c0-43.015 10.137-81.373 32.853-106.374-3.535-1.789-7.528-2.804-11.761-2.804-14.406 0-26.085 11.679-26.085 26.085v10.652h-43.701c-5.883 0-10.653 4.77-10.653 10.653v33.048c0 5.883 4.769 10.653 10.653 10.653 14.406 0 26.085 11.678 26.085 26.084 0 14.406-11.679 26.085-26.085 26.085-5.883 0-10.653 4.77-10.653 10.652v33.049c0 5.883 4.769 10.652 10.653 10.652h43.701v-10.652c0-10.826 6.596-20.111 15.988-24.058-7.073-16.486-10.995-34.647-10.995-53.725z" fill="#4c5698"/></g></svg>