<svg id="Capa_1" enable-background="new 0 0 512 512" height="512" viewBox="0 0 512 512" width="512" xmlns="http://www.w3.org/2000/svg"><g><g><path d="m120.569 306.198c5.884 5.884 5.884 15.424 0 21.308l42.395-42.395c5.805-5.805 15.264-6.161 21.226-.517 6.186 5.856 6.287 15.62.304 21.604l10.433-10.433c5.805-5.805 15.264-6.161 21.226-.517 6.186 5.856 6.287 15.62.304 21.604l-14.206 14.206c5.984-5.984 15.748-5.882 21.604.304 5.644 5.962 5.288 15.421-.517 21.226l-14.206 14.206c5.805-5.805 15.265-6.161 21.227-.517 6.186 5.856 6.287 15.62.303 21.604l-55.247 55.247c-15.371 15.371-35.774 22.872-55.967 22.359-5.542-.141-10.906 1.952-14.826 5.872l-18.474 18.474-63.925-63.925 18.244-18.244c3.955-3.955 6.04-9.378 5.868-14.968-.617-20.049 6.726-40.297 22.028-55.6l30.897-30.897c5.885-5.885 15.425-5.885 21.309-.001z" fill="#e7beaf"/></g><g><path d="m209.132 366.793-55.025 55.025c-13.839 13.839-31.758 21.299-49.93 22.273-10.027.538-19.534 4.628-26.634 11.729l-12.703 12.703 21.308 21.308 18.474-18.474c3.92-3.92 9.285-6.013 14.826-5.872 20.193.513 40.596-6.988 55.967-22.359l55.247-55.247c5.984-5.984 5.882-15.748-.303-21.604-5.962-5.643-15.422-5.287-21.227.518z" fill="#e1ac9a"/></g><g><path d="m105.653 491.581-17.757 17.757c-2.942 2.942-7.712 2.942-10.654 0l-74.579-74.58c-2.942-2.942-2.942-7.712 0-10.654l17.757-17.757c2.942-2.942 7.712-2.942 10.654 0l74.579 74.579c2.942 2.942 2.942 7.712 0 10.655z" fill="#a4e7ff"/></g><g><path d="m79.018 464.945-17.757 17.757c-2.942 2.942-7.712 2.942-10.654 0l26.635 26.635c2.942 2.942 7.712 2.942 10.654 0l17.757-17.757c2.942-2.942 2.942-7.712 0-10.654l-26.635-26.635c2.942 2.942 2.942 7.712 0 10.654z" fill="#5ad6ff"/></g><g><path d="m205.346 120.113c-5.884 5.884-15.424 5.884-21.308 0l42.395 42.395c5.805 5.805 6.161 15.264.517 21.226-5.856 6.186-15.62 6.287-21.604.304l10.433 10.433c5.805 5.805 6.161 15.264.517 21.226-5.856 6.186-15.62 6.287-21.604.304l-14.206-14.206c5.984 5.984 5.882 15.748-.304 21.604-5.962 5.644-15.421 5.288-21.226-.517l-14.206-14.206c5.805 5.805 6.161 15.265.517 21.227-5.856 6.186-15.62 6.287-21.604.303l-55.247-55.247c-15.371-15.371-22.872-35.774-22.359-55.967.141-5.542-1.952-10.906-5.872-14.826l-18.473-18.474 63.925-63.925 18.244 18.244c3.955 3.955 9.378 6.04 14.968 5.868 20.049-.617 40.297 6.726 55.6 22.028l30.897 30.897c5.884 5.885 5.884 15.425 0 21.309z" fill="#ffeee5"/></g><g><path d="m144.751 208.676-55.025-55.025c-13.839-13.839-21.299-31.758-22.273-49.93-.538-10.027-4.628-19.534-11.729-26.634l-12.704-12.704-21.308 21.309 18.474 18.474c3.92 3.92 6.013 9.285 5.872 14.826-.513 20.193 6.988 40.596 22.359 55.967l55.247 55.247c5.984 5.984 15.748 5.882 21.604-.303 5.644-5.962 5.288-15.421-.517-21.227z" fill="#ffdecf"/></g><g><path d="m19.964 105.197-17.757-17.757c-2.942-2.942-2.942-7.712 0-10.654l74.579-74.579c2.942-2.942 7.712-2.942 10.654 0l17.757 17.757c2.942 2.942 2.942 7.712 0 10.654l-74.579 74.579c-2.942 2.942-7.712 2.942-10.654 0z" fill="#ff938a"/></g><g><path d="m46.599 78.562-17.757-17.757c-2.942-2.942-2.942-7.712 0-10.654l-26.635 26.635c-2.942 2.942-2.942 7.712 0 10.654l17.757 17.757c2.942 2.942 7.712 2.942 10.654 0l26.635-26.635c-2.942 2.942-7.712 2.942-10.654 0z" fill="#fb695b"/></g><g><path d="m391.673 205.56c-5.884-5.884-5.884-15.424 0-21.308l-42.395 42.395c-5.805 5.805-15.264 6.161-21.226.517-6.186-5.856-6.287-15.62-.304-21.604l-10.433 10.433c-5.805 5.805-15.264 6.161-21.227.517-6.186-5.856-6.287-15.62-.304-21.604l14.206-14.206c-5.984 5.984-15.748 5.882-21.604-.304-5.644-5.962-5.288-15.421.517-21.226l14.206-14.206c-5.805 5.805-15.265 6.161-21.227.517-6.186-5.856-6.287-15.62-.303-21.604l55.247-55.247c15.371-15.371 35.774-22.872 55.967-22.359 5.542.141 10.906-1.952 14.826-5.872l18.474-18.474 63.925 63.925-18.244 18.244c-3.955 3.955-6.04 9.378-5.868 14.968.617 20.049-6.725 40.297-22.028 55.6l-30.897 30.897c-5.884 5.886-15.424 5.886-21.308.001z" fill="#e7beaf"/></g><g><path d="m303.11 144.965 55.025-55.025c13.839-13.839 31.758-21.299 49.93-22.273 10.027-.538 19.534-4.628 26.634-11.729l12.703-12.703-21.308-21.308-18.474 18.473c-3.92 3.92-9.285 6.013-14.826 5.872-20.193-.513-40.596 6.988-55.967 22.359l-55.247 55.247c-5.984 5.984-5.882 15.748.303 21.604 5.962 5.644 15.421 5.289 21.227-.517z" fill="#e1ac9a"/></g><g><path d="m406.589 20.178 17.757-17.757c2.942-2.942 7.712-2.942 10.654 0l74.579 74.579c2.942 2.942 2.942 7.712 0 10.654l-17.757 17.757c-2.942 2.942-7.712 2.942-10.654 0l-74.579-74.579c-2.942-2.942-2.942-7.712 0-10.654z" fill="#f9ee80"/></g><g><path d="m433.224 46.813 17.757-17.757c2.942-2.942 7.712-2.942 10.654 0l-26.635-26.635c-2.942-2.942-7.712-2.942-10.654 0l-17.757 17.757c-2.942 2.942-2.942 7.712 0 10.654l26.635 26.635c-2.942-2.942-2.942-7.712 0-10.654z" fill="#f4e74d"/></g><g><path d="m306.654 391.887c5.884-5.884 15.424-5.884 21.308 0l-42.395-42.395c-5.805-5.805-6.161-15.264-.517-21.227 5.856-6.186 15.62-6.287 21.604-.304l-10.433-10.433c-5.805-5.805-6.161-15.264-.517-21.226 5.856-6.186 15.62-6.287 21.604-.304l14.206 14.206c-5.984-5.984-5.882-15.748.304-21.604 5.962-5.644 15.421-5.288 21.226.517l14.206 14.206c-5.805-5.805-6.161-15.264-.517-21.227 5.856-6.186 15.62-6.287 21.604-.303l55.247 55.247c15.371 15.371 22.872 35.774 22.359 55.967-.141 5.542 1.952 10.906 5.872 14.826l18.474 18.474-63.925 63.925-18.244-18.244c-3.955-3.955-9.378-6.04-14.968-5.868-20.049.617-40.297-6.726-55.6-22.028l-30.897-30.897c-5.885-5.884-5.885-15.424-.001-21.308z" fill="#ffeee5"/></g><g><path d="m367.249 303.324 55.025 55.025c13.839 13.839 21.299 31.758 22.273 49.93.538 10.027 4.628 19.534 11.729 26.634l12.703 12.703 21.308-21.308-18.474-18.474c-3.92-3.92-6.013-9.285-5.872-14.826.513-20.193-6.988-40.596-22.359-55.967l-55.247-55.247c-5.984-5.984-15.748-5.882-21.604.303-5.643 5.962-5.287 15.422.518 21.227z" fill="#ffdecf"/></g><g><path d="m492.036 406.803 17.757 17.757c2.942 2.942 2.942 7.712 0 10.654l-74.579 74.579c-2.942 2.942-7.712 2.942-10.654 0l-17.757-17.757c-2.942-2.942-2.942-7.712 0-10.654l74.579-74.579c2.942-2.942 7.712-2.942 10.654 0z" fill="#80e0b7"/></g><g><path d="m465.401 433.438 17.757 17.757c2.942 2.942 2.942 7.712 0 10.654l26.635-26.635c2.942-2.942 2.942-7.712 0-10.654l-17.757-17.757c-2.942-2.942-7.712-2.942-10.654 0l-26.635 26.635c2.942-2.942 7.712-2.942 10.654 0z" fill="#36d49b"/></g><g><path d="m277.968 237.559c-5.533-3.874-13.657-2.673-21.534 2.333-1.435.912-3.271.912-4.706 0-7.877-5.006-16-6.207-21.534-2.333-8.973 6.283-10.461 19.235.037 34.228 4.917 7.022 11.591 13.246 18.22 17.234 3.458 2.08 7.802 2.08 11.26 0 6.629-3.988 13.303-10.211 18.22-17.234 10.499-14.994 9.01-27.945.037-34.228z" fill="#fd7a6e"/></g><g><path d="m236.403 238.922c0-1.224.06-2.433.173-3.628-2.349.2-4.513.927-6.381 2.235-8.973 6.283-10.461 19.235.037 34.228 4.917 7.022 11.591 13.246 18.22 17.234 3.458 2.08 7.802 2.08 11.26 0 4.898-2.946 9.819-7.114 14.039-11.922-20.7-.431-37.348-17.344-37.348-38.147z" fill="#f85647"/></g><g><g><path d="m309.991 188.2c-1.919 0-3.839-.732-5.303-2.196-2.929-2.93-2.929-7.678 0-10.607l39.065-39.064c2.929-2.928 7.678-2.928 10.606 0 2.929 2.93 2.929 7.678 0 10.607l-39.065 39.064c-1.464 1.464-3.384 2.196-5.303 2.196z" fill="#e1ac9a"/></g><g><path d="m327.748 213.061c-1.919 0-3.839-.732-5.303-2.196-2.929-2.93-2.929-7.678 0-10.607l42.617-42.617c2.929-2.928 7.678-2.928 10.606 0 2.929 2.93 2.929 7.678 0 10.607l-42.617 42.617c-1.464 1.463-3.384 2.196-5.303 2.196z" fill="#e1ac9a"/></g><g><path d="m391.673 191.752c-1.919 0-3.839-.732-5.303-2.196-2.929-2.93-2.929-7.678 0-10.607l22.038-22.038c2.929-2.928 7.678-2.928 10.606 0 2.929 2.93 2.929 7.678 0 10.607l-22.038 22.038c-1.464 1.464-3.384 2.196-5.303 2.196z" fill="#e1ac9a"/></g><g><path d="m141.877 356.314c-1.919 0-3.839-.732-5.303-2.196-2.929-2.93-2.929-7.678 0-10.607l42.617-42.617c2.929-2.928 7.678-2.928 10.606 0 2.929 2.93 2.929 7.678 0 10.607l-42.617 42.617c-1.464 1.464-3.383 2.196-5.303 2.196z" fill="#e1ac9a"/></g><g><path d="m163.186 377.623c-1.919 0-3.839-.732-5.303-2.196-2.929-2.93-2.929-7.678 0-10.607l39.065-39.065c2.929-2.928 7.678-2.928 10.606 0 2.929 2.93 2.929 7.678 0 10.607l-39.065 39.065c-1.465 1.464-3.384 2.196-5.303 2.196z" fill="#e1ac9a"/></g><g><path d="m98.531 357.044c-1.919 0-3.839-.732-5.303-2.196-2.929-2.93-2.929-7.678 0-10.607l22.038-22.038c2.929-2.928 7.678-2.928 10.606 0 2.929 2.93 2.929 7.678 0 10.607l-22.038 22.038c-1.464 1.464-3.384 2.196-5.303 2.196z" fill="#e1ac9a"/></g><g><path d="m370.365 356.314c-1.919 0-3.839-.732-5.303-2.196l-39.065-39.065c-2.929-2.93-2.929-7.678 0-10.607 2.929-2.928 7.678-2.928 10.606 0l39.065 39.065c2.929 2.93 2.929 7.678 0 10.607-1.464 1.464-3.384 2.196-5.303 2.196z" fill="#ffdecf"/></g><g><path d="m349.056 377.623c-1.919 0-3.839-.732-5.303-2.196l-42.617-42.617c-2.929-2.93-2.929-7.678 0-10.607 2.929-2.928 7.678-2.928 10.606 0l42.617 42.617c2.929 2.93 2.929 7.678 0 10.607-1.464 1.464-3.384 2.196-5.303 2.196z" fill="#ffdecf"/></g><g><path d="m349.786 420.97c-1.919 0-3.839-.732-5.303-2.196l-22.038-22.038c-2.929-2.93-2.929-7.678 0-10.607 2.929-2.928 7.678-2.928 10.606 0l22.038 22.038c2.929 2.93 2.929 7.678 0 10.607-1.464 1.463-3.383 2.196-5.303 2.196z" fill="#ffdecf"/></g><g><path d="m205.802 191.752c-1.919 0-3.839-.732-5.303-2.196l-42.617-42.616c-2.929-2.93-2.929-7.678 0-10.607 2.929-2.928 7.678-2.928 10.606 0l42.617 42.616c2.929 2.93 2.929 7.678 0 10.607-1.464 1.464-3.383 2.196-5.303 2.196z" fill="#ffdecf"/></g><g><path d="m180.942 209.509c-1.919 0-3.839-.732-5.303-2.196l-39.065-39.065c-2.929-2.93-2.929-7.678 0-10.607 2.929-2.928 7.678-2.928 10.606 0l39.065 39.065c2.929 2.93 2.929 7.678 0 10.607-1.464 1.463-3.384 2.196-5.303 2.196z" fill="#ffdecf"/></g><g><path d="m184.494 127.827c-1.919 0-3.839-.732-5.303-2.196l-22.038-22.038c-2.929-2.93-2.929-7.678 0-10.607 2.929-2.928 7.678-2.928 10.606 0l22.038 22.038c2.929 2.93 2.929 7.678 0 10.607-1.464 1.464-3.383 2.196-5.303 2.196z" fill="#ffdecf"/></g></g></g></svg>