<svg id="Flat" height="512" viewBox="0 0 64 64" width="512" xmlns="http://www.w3.org/2000/svg"><g id="Color_copy"><g><circle cx="32" cy="32" fill="#ff7373" r="12"/><path d="m42.9 36.9c-1.8 4.2-6 7.1-10.9 7.1-6.6 0-12-5.4-12-12 0-4.9 2.9-9.1 7.1-10.9-.7 1.5-1.1 3.1-1.1 4.9 0 6.6 5.4 12 12 12 1.8 0 3.4-.4 4.9-1.1z" fill="#ef5350"/><g><g><path d="m39.9 57.9-11.6 2.9c-1.5.4-3 .2-4.3-.5l-12.2-6.6c-2.7-1.5-5.8-2.1-8.8-1.9v-13l1.7-.3c1-.2 2.1-.2 3.1-.2 3.2 0 6.4.8 9.2 2.3 1 .5 1.9 1.2 2.8 1.9l6.5 5.2c1.3 1.1 1.5 3 .4 4.3 0 0-.1.1-.1.1l2.6 1.7c.5.3 1 .4 1.6.3l7.8-2c1.7-.4 3.3.6 3.7 2.3.3 1.6-.8 3.1-2.4 3.5z" fill="#f9dbaf"/></g><g fill="#edb88e"><path d="m18.7 51.2 3.7 2.9c1.3 1 3.1 1 4.2-.2.4-.4.6-.9.7-1.5l-.7-.4c-1.1 1.1-2.9 1.1-4.1.2l-5.3-4.2c0 1.3.5 2.5 1.5 3.2z"/><path d="m32.8 59.7-4.5 1.1c-1.5.4-3 .2-4.3-.5l-12.2-6.6c-2.7-1.5-5.8-2.1-8.8-1.9v-4.6c.4.1.9.2 1.3.2 3.2.1 6.3 1.2 8.9 3.2l7.5 5.6c3.5 2.6 7.8 3.8 12.1 3.5z"/></g></g><g><g><path d="m61 12.2v13l-1.7.3c-1 .2-2.1.2-3.1.2-3.2 0-6.4-.8-9.2-2.3-1-.5-1.9-1.2-2.8-1.9l-6.5-5.1c-1.3-1.1-1.5-3-.4-4.3 0 0 .1-.1.1-.1l-2.6-1.7c-.5-.3-1-.4-1.6-.3l-7.8 2c-1.7.4-3.3-.6-3.7-2.3-.3-1.6.8-3.1 2.4-3.5l11.6-2.9c1.5-.4 3-.2 4.3.5l12.2 6.6c2.7 1.4 5.8 2 8.8 1.8z" fill="#f9dbaf"/></g><path d="m45.3 12.8-3.7-2.9c-1.3-1-3.1-1-4.2.2-.4.4-.6.9-.7 1.5l.8.5c1.1-1.1 2.9-1.1 4.1-.2l5.3 4.2c-.1-1.4-.6-2.6-1.6-3.3z" fill="#edb88e"/><g><path d="m61 17.8v7.4l-1.7.3c-1 .2-2.1.2-3.1.2-3.2 0-6.4-.8-9.2-2.3-1-.5-1.9-1.2-2.8-1.9l-6.5-5.1c-.8-.7-1.2-1.7-1.1-2.7l3.6 2.9c.9.7 1.8 1.3 2.8 1.9 2.8 1.5 6 2.3 9.2 2.3 1 0 2.1-.1 3.1-.2 2.2-.5 4.1-1.4 5.7-2.8z" fill="#edb88e"/></g></g><path d="m39 29h-4v-4h-6v4h-4v6h4v4h6v-4h4z" fill="#ade8f4"/><path d="m35 37.6v1.4h-6v-4h-4v-6h1.4c1.1 4.2 4.4 7.5 8.6 8.6z" fill="#48cae4"/><g fill="#00b4d8"><path d="m32 50c-.1 0-.3 0-.4 0h-.2c-.6 0-1-.5-1-1 0-.6.5-1 1-1h.3.3c8.8 0 16-7.2 16-16 0-1.1-.1-2.2-.4-3.4-.1-.5.2-1.1.8-1.2.5-.1 1.1.2 1.2.8.3 1.3.4 2.5.4 3.8 0 9.9-8.1 18-18 18z"/><path d="m15.4 36.6c-.5 0-.9-.3-1-.8-.3-1.3-.4-2.5-.4-3.8 0-9.9 8.1-18 18-18h.4.2c.6 0 1 .5 1 1 0 .6-.5 1-1 1h-.3c-.1 0-.2 0-.3 0-8.8 0-16 7.2-16 16 0 1.1.1 2.2.4 3.4.1.5-.2 1.1-.8 1.2-.1 0-.1 0-.2 0z"/></g></g></g></svg>