<svg id="Layer_1" enable-background="new 0 0 511.988 511.988" height="512" viewBox="0 0 511.988 511.988" width="512" xmlns="http://www.w3.org/2000/svg"><g><g><path d="m114.76 207.582h168.272v144.585h-168.272z" fill="#b4d7dc"/><path d="m301.205 188.388c-24.952-37.531-41.307-37.531-46.681-37.531-23.553 0-87.728 0-111.793 0-5.372 0-21.72 0-46.711 37.516-3.061 4.595-10.285 15.923-15.587 27.998-3.525 8.03 16.331 14.393 16.331 14.393s19.784 1.88 22.067-2.733c2.094-4.232 4.914-9.327 8.573-15.041 6.502-10.155 12.168-16.727 15.807-20.233v143.584h110.751l-.171-143.818c3.621 3.446 9.387 10.092 16.014 20.465 3.104 4.859 5.603 9.27 7.565 13.083 2.861 5.558 23.22 3.463 23.22 3.463s19.68-5.134 16.162-13.164c-5.288-12.068-12.494-23.388-15.547-27.982z" fill="#64afff"/><path d="m143.218 315v34.463h110.751l-.033-34.463z" fill="#414b82"/><ellipse cx="198.593" cy="120.126" fill="#ffb69e" rx="43.158" ry="43.158" transform="matrix(.998 -.071 .071 .998 -8.016 14.38)"/><path d="m286.934 476.135h-176.681c-4.831 0-8.748 3.916-8.748 8.748s3.917 8.748 8.748 8.748h176.681c4.831 0 8.748-3.916 8.748-8.748s-3.917-8.748-8.748-8.748z" fill="#6c9baa"/><path d="m286.934 348.418h-176.681c-4.831 0-8.748 3.916-8.748 8.748s3.917 8.748 8.748 8.748h176.681c4.831 0 8.748-3.916 8.748-8.748s-3.917-8.748-8.748-8.748z" fill="#6c9baa"/><g><g><path d="m153.37 471.902-23.582-133.305c-2.12-11.985 5.877-23.419 17.861-25.539 11.983-2.121 23.419 5.876 25.539 17.862l23.582 133.305c2.12 11.985-5.877 23.419-17.861 25.539-11.965 2.119-23.416-5.858-25.539-17.862z" fill="#5f6e9b"/></g><g><path d="m218.278 489.764c-11.985-2.12-19.981-13.554-17.861-25.539l23.581-133.305c2.12-11.985 13.555-19.985 25.539-17.862 11.985 2.12 19.981 13.554 17.861 25.539l-23.581 133.305c-2.117 11.97-13.539 19.985-25.539 17.862z" fill="#5f6e9b"/></g></g><g><path d="m282.428 295.273c-7.247 0-13.122 5.875-13.122 13.122v190.472c0 7.247 5.875 13.122 13.122 13.122s13.122-5.875 13.122-13.122v-190.473c0-7.247-5.875-13.121-13.122-13.121z" fill="#3c5a73"/><path d="m303.901 328.037c-4.831 0-8.748 3.916-8.748 8.748v133.818c0 4.831 3.917 8.748 8.748 8.748s8.748-3.916 8.748-8.748v-133.818c0-4.832-3.917-8.748-8.748-8.748z" fill="#6c9baa"/><path d="m114.76 295.273c-7.247 0-13.122 5.875-13.122 13.122v190.472c0 7.247 5.875 13.122 13.122 13.122s13.122-5.875 13.122-13.122v-190.473c-.001-7.247-5.876-13.121-13.122-13.121z" fill="#3c5a73"/><path d="m93.286 328.037c-4.831 0-8.748 3.916-8.748 8.748v133.818c0 4.831 3.917 8.748 8.748 8.748s8.748-3.916 8.748-8.748v-133.818c0-4.832-3.917-8.748-8.748-8.748z" fill="#6c9baa"/></g><g fill="#ffb69e"><path d="m132.46 298.413-18.032-59.934c.706-2.245 2.13-5.833 4.414-10.446l-38.399-11.66c-3.47 7.904-6.113 16.125-6.229 22.992-.044 2.032.216 4.104.833 6.155l19.359 64.342c3.147 10.46 14.197 16.48 24.752 13.303 10.508-3.162 16.464-14.244 13.302-24.752z"/><path d="m322.973 239.365c-.115-6.868-2.753-15.089-6.217-22.993-50.423 12.421-35.163 8.662-39.382 9.702 2.861 5.557 4.587 9.846 5.387 12.399l-18.034 59.94c-3.162 10.508 2.794 21.59 13.303 24.752 10.486 3.155 21.583-2.771 24.752-13.303l19.359-64.342c.616-2.052.876-4.123.832-6.155z"/></g></g><g id="XMLID_5624_"><path d="m380.186 492.096-23.969-101.257c-.462-1.95-.695-3.947-.695-5.951v-105.253c0-14.269 11.567-25.836 25.836-25.836s25.836 11.567 25.836 25.836v102.237l23.274 98.322c3.287 13.885-5.305 27.806-19.19 31.092-13.913 3.295-27.812-5.333-31.092-19.19z" fill="#ffb69e"/></g><g id="XMLID_5623_"><path d="m301.334 511.964c-14.255-.607-25.32-12.656-24.712-26.912l4.643-108.982c.079-1.864.36-3.713.838-5.516l25.836-97.529c3.654-13.794 17.797-22.013 31.591-18.359 13.792 3.654 22.012 17.798 18.358 31.59l-25.117 94.816-4.524 106.178c-.608 14.257-12.657 25.319-26.913 24.714z" fill="#ffb69e"/></g><path id="XMLID_5621_" d="m281.485 105.688c1.148-13.345 10.877-23.841 23.238-25.021 15.918-1.52 27.113-2.588 44.78-4.275 12.386-1.182 23.892 7.258 27.552 20.172l60.236 212.552c.973 3.434.477 7.135-1.35 10.088-1.827 2.954-4.795 4.859-8.089 5.174-33.453 3.194-119.711 11.428-153.141 14.62-3.296.315-6.571-.985-8.925-3.541s-3.537-6.101-3.231-9.659z" fill="#ff6473"/><circle cx="288.426" cy="44.622" fill="#ffb69e" r="44.622"/><path d="m298.427 139.854-14.682 26.533-67.006 7.624c-11.09 1.315-19.014 11.371-17.699 22.461 1.314 11.086 11.366 19.014 22.46 17.699l77.299-8.844c6.463-.766 12.161-4.596 15.312-10.29l19.714-35.626-13.949-17.076z" fill="#ffb69e"/><path d="m333.826 159.41 23.695-42.822c5.407-9.771 1.868-22.076-7.903-27.482-9.769-5.406-22.075-1.869-27.483 7.902l-23.708 42.846z" fill="#f05462"/></g></svg>