<svg id="Capa_1" enable-background="new 0 0 512 512" height="512" viewBox="0 0 512 512" width="512" xmlns="http://www.w3.org/2000/svg"><g><g><path d="m133.333 342.733c-4.919-.926-9.987-1.431-15.175-1.431-45.066 0-81.599 36.533-81.599 81.599s36.533 81.599 81.599 81.599 81.599-36.533 81.599-81.599c0-8.163-1.214-16.041-3.445-23.478-25.911-12.673-47.736-32.404-62.979-56.69z" fill="#ffe177"/><path d="m133.333 342.733c-4.919-.926-9.987-1.431-15.175-1.431-8.127 0-15.97 1.205-23.379 3.417 33.669 10.054 58.22 41.244 58.22 78.182s-24.551 68.128-58.22 78.182c7.408 2.212 15.251 3.417 23.379 3.417 45.066 0 81.599-36.533 81.599-81.599 0-8.163-1.214-16.041-3.445-23.478-25.911-12.673-47.736-32.404-62.979-56.69z" fill="#ffd15b"/><g><g><path d="m118.158 504.5c16.423 0 31.7-4.869 44.501-13.217-5.249-16.947-15.902-30.239-29.165-36.112-4.666 2.19-9.851 3.45-15.336 3.45-5.486 0-10.671-1.26-15.336-3.45-13.263 5.873-23.916 19.165-29.165 36.112 12.801 8.348 28.079 13.217 44.501 13.217z" fill="#f3f0f3"/></g><g><path d="m133.495 455.172c-4.666 2.19-9.851 3.45-15.336 3.45-5.486 0-10.671-1.26-15.337-3.45-.166.073-.327.162-.492.238 9.022 4.141 16.81 11.722 22.469 21.547 4.503 7.818 1.227 17.895-7.108 21.348-4.898 2.029-10.037 3.595-15.36 4.645 5.121 1.01 10.411 1.55 15.829 1.55 16.422 0 31.7-4.869 44.501-13.217-5.251-16.947-15.904-30.239-29.166-36.111z" fill="#e2dee2"/></g><g><circle cx="118.158" cy="422.366" fill="#fff" r="37.943"/></g><g><path d="m118.158 384.423c-5.543 0-10.803 1.199-15.55 3.335 13.198 5.94 22.392 19.196 22.392 34.608s-9.194 28.668-22.392 34.608c4.747 2.136 10.007 3.335 15.55 3.335 20.955 0 37.943-16.988 37.943-37.943s-16.988-37.943-37.943-37.943z" fill="#f3f0f3"/></g></g></g><g><path d="m337.506 125.56c-21.867-11.911-46.938-18.68-73.59-18.68-85.09 0-154.069 68.979-154.069 154.069s68.979 154.069 154.069 154.069 154.069-68.979 154.069-154.069c0-20.614-4.059-40.277-11.404-58.248-38.033-5.816-67.409-37.893-69.075-77.141z" fill="#d8ecfe"/><path d="m337.506 125.56c-21.867-11.911-46.938-18.68-73.59-18.68-9.01 0-17.837.781-26.423 2.266 72.499 12.531 127.646 75.724 127.646 151.804s-55.148 139.27-127.647 151.802c8.586 1.484 17.413 2.266 26.423 2.266 85.09 0 154.069-68.979 154.069-154.069 0-20.614-4.059-40.277-11.404-58.248-38.032-5.816-67.408-37.893-69.074-77.141z" fill="#c4e2ff"/></g><g><g><circle cx="419.016" cy="122.043" fill="#fe646f" r="81.599"/></g><g><path d="m419.016 40.444c-7.192 0-14.164.939-20.808 2.687 34.986 9.2 60.792 41.039 60.792 78.912s-25.806 69.712-60.792 78.912c6.644 1.747 13.615 2.687 20.808 2.687 45.066 0 81.599-36.533 81.599-81.599s-36.533-81.599-81.599-81.599z" fill="#fd4755"/></g><g><g><path d="m419.016 203.642c16.423 0 31.7-4.869 44.501-13.217-5.249-16.947-15.902-30.239-29.165-36.112-4.666 2.19-9.851 3.451-15.336 3.451-5.486 0-10.671-1.26-15.336-3.451-13.263 5.873-23.916 19.165-29.165 36.112 12.801 8.348 28.079 13.217 44.501 13.217z" fill="#f3f0f3"/></g><g><path d="m434.353 154.314c-4.666 2.19-9.851 3.45-15.336 3.45-5.486 0-10.671-1.26-15.336-3.45-.142.063-.28.139-.421.203 9.051 4.133 16.864 11.727 22.537 21.576 4.505 7.822 1.229 17.901-7.111 21.355-4.919 2.037-10.079 3.608-15.427 4.657 5.099 1.001 10.365 1.536 15.758 1.536 16.423 0 31.7-4.869 44.501-13.217-5.25-16.945-15.903-30.237-29.165-36.11z" fill="#e2dee2"/></g><g><circle cx="419.016" cy="121.508" fill="#fff" r="37.943"/></g><g><path d="m419.016 83.565c-5.538 0-10.793 1.196-15.537 3.329 13.205 5.937 22.406 19.197 22.406 34.614s-9.201 28.677-22.406 34.614c4.743 2.133 9.999 3.329 15.537 3.329 20.955 0 37.942-16.988 37.942-37.943s-16.987-37.943-37.942-37.943z" fill="#f3f0f3"/></g></g></g><g><g><circle cx="83.896" cy="80.011" fill="#6cf5c2" r="72.511"/></g><g><path d="m83.896 7.5c-7.378 0-14.496 1.11-21.204 3.158 29.701 9.07 51.308 36.685 51.308 69.353s-21.607 60.284-51.308 69.353c6.708 2.048 13.825 3.158 21.204 3.158 40.047 0 72.511-32.464 72.511-72.511s-32.464-72.511-72.511-72.511z" fill="#00f2a6"/></g><g><g><path d="m83.896 152.522c14.594 0 28.169-4.327 39.545-11.745-4.664-15.06-14.131-26.871-25.916-32.09-4.146 1.946-8.754 3.066-13.628 3.066-4.875 0-9.483-1.12-13.628-3.066-11.786 5.219-21.252 17.03-25.916 32.09 11.374 7.419 24.95 11.745 39.543 11.745z" fill="#f3f0f3"/></g><g><path d="m97.524 108.688c-4.146 1.946-8.754 3.066-13.628 3.066-4.875 0-9.483-1.12-13.628-3.066-.691.306-1.373.639-2.047.99 6.629 3.446 12.44 9.013 16.958 16.064 5.185 8.093 1.631 18.892-7.377 22.245-3.099 1.153-6.298 2.101-9.58 2.827 5.048 1.116 10.292 1.709 15.676 1.709 14.594 0 28.169-4.327 39.545-11.745-4.666-15.06-14.133-26.872-25.919-32.09z" fill="#e2dee2"/></g><g><circle cx="83.896" cy="79.536" fill="#fff" r="33.717"/></g><g><path d="m83.896 45.819c-5.626 0-10.926 1.386-15.59 3.823 10.771 5.629 18.127 16.899 18.127 29.894s-7.356 24.265-18.127 29.894c4.663 2.437 9.963 3.823 15.59 3.823 18.621 0 33.717-15.095 33.717-33.717s-15.096-33.717-33.717-33.717z" fill="#f3f0f3"/></g></g></g><g><path d="m456.478 219.311c-4.08.716-6.808 4.604-6.091 8.683 1.899 10.828 2.863 21.916 2.863 32.955 0 104.399-84.936 189.335-189.335 189.335-12.45 0-24.936-1.227-37.107-3.646-4.071-.809-8.011 1.832-8.818 5.895-.807 4.062 1.832 8.011 5.895 8.818 13.133 2.609 26.602 3.933 40.031 3.933 112.671 0 204.335-91.664 204.335-204.335 0-11.906-1.039-23.865-3.09-35.547-.716-4.08-4.605-6.813-8.683-6.091z"/><path d="m178.181 292.003c0 34.217 27.837 62.054 62.054 62.054 28.315 0 53.025-19.126 60.09-46.511 1.035-4.011-1.377-8.102-5.388-9.136-4.017-1.04-8.102 1.378-9.136 5.388-5.356 20.76-24.094 35.259-45.566 35.259-25.945 0-47.054-21.108-47.054-47.054 0-23.393 17.161-42.846 39.554-46.449v24.673c0 9.884 8.041 17.925 17.925 17.925h52.22c2.036 0 3.843 1.222 4.602 3.111l18.403 45.847c1.141 2.843 3.896 4.706 6.96 4.706h17.031c4.143 0 7.5-3.357 7.5-7.5s-3.357-7.5-7.5-7.5h-11.96l-16.516-41.142c-3.055-7.607-10.325-12.522-18.521-12.522h-52.22c-1.612 0-2.925-1.312-2.925-2.925v-28.704l5.365 5.946c2.407 2.666 5.847 4.195 9.438 4.195h30.521c4.143 0 7.5-3.357 7.5-7.5s-3.357-7.5-7.5-7.5h-29.505l-15.819-17.533v-7.58c13.287-3.354 23.152-15.405 23.152-29.72 0-16.901-13.751-30.652-30.652-30.652s-30.652 13.751-30.652 30.652c0 14.314 9.865 26.365 23.152 29.72v18.868c-30.69 3.716-54.553 29.907-54.553 61.584zm46.401-110.172c0-8.631 7.021-15.652 15.652-15.652s15.652 7.021 15.652 15.652c0 8.63-7.021 15.651-15.652 15.651s-15.652-7.021-15.652-15.651z"/><path d="m419.016 32.944c-17.488 0-34.434 5.081-49.002 14.694-3.457 2.281-4.41 6.933-2.129 10.391 2.28 3.458 6.933 4.41 10.391 2.129 12.109-7.99 26.197-12.214 40.74-12.214 40.858 0 74.1 33.24 74.1 74.099 0 22.585-10.169 42.829-26.155 56.432-4.324-9.423-10.283-17.404-17.396-23.352 9.146-8.318 14.895-20.308 14.895-33.615 0-25.057-20.386-45.442-45.443-45.442s-45.442 20.386-45.442 45.442c0 13.307 5.75 25.297 14.895 33.615-7.113 5.948-13.072 13.929-17.397 23.352-15.986-13.602-26.155-33.847-26.155-56.432 0-13.857 3.861-27.38 11.168-39.107 2.189-3.516 1.115-8.142-2.4-10.332-3.515-2.188-8.14-1.114-10.332 2.4-7.311 11.737-11.744 24.967-13.032 38.676-20.269-9.176-42.748-14.301-66.405-14.301-82.282 0-151.293 61.574-160.525 143.227-.466 4.116 2.493 7.83 6.609 8.295 4.105.478 7.83-2.493 8.295-6.609 8.375-74.062 70.979-129.912 145.621-129.912 23.884 0 46.446 5.753 66.389 15.932 3.631 39.271 32.848 71.239 70.784 79.02 6.065 16.064 9.397 33.458 9.397 51.618 0 80.818-65.751 146.569-146.569 146.569-74.643 0-137.246-55.85-145.621-129.912-.465-4.116-4.194-7.076-8.295-6.609-4.116.465-7.075 4.179-6.609 8.295 2.207 19.515 7.835 37.878 16.236 54.532-.489-.008-.976-.022-1.467-.022-43.511 0-80.431 31.092-87.787 73.929-.701 4.082 2.04 7.96 6.122 8.661 4.083.702 7.961-2.04 8.661-6.122 6.117-35.617 36.819-61.468 73.004-61.468 3.585 0 7.109.265 10.559.762 15.3 23.334 36.446 42.349 61.266 55.11 1.481 5.833 2.274 11.938 2.274 18.226 0 22.586-10.169 42.83-26.156 56.433-4.325-9.424-10.284-17.404-17.397-23.352 9.145-8.318 14.895-20.308 14.895-33.615 0-25.058-20.386-45.443-45.442-45.443s-45.442 20.386-45.442 45.443c0 13.307 5.75 25.296 14.895 33.615-7.119 5.953-13.083 13.943-17.409 23.378-11.211-9.512-19.64-22.359-23.628-37.294-1.068-4.002-5.182-6.377-9.181-5.312-4.002 1.068-6.38 5.179-5.312 9.181 10.385 38.898 45.78 66.065 86.074 66.065 49.13 0 89.1-39.97 89.1-89.1 0-3.67-.232-7.286-.667-10.84 17.861 6.764 37.193 10.458 57.324 10.458 89.09 0 161.569-72.479 161.569-161.569 0-17.381-2.773-34.123-7.878-49.823.469.007.938.018 1.41.018 49.13 0 89.1-39.97 89.1-89.1-.001-49.13-39.97-89.1-89.1-89.1zm-300.858 358.979c16.786 0 30.442 13.657 30.442 30.443s-13.656 30.442-30.442 30.442-30.442-13.656-30.442-30.442 13.656-30.443 30.442-30.443zm0 105.077c-12.671 0-24.756-3.234-35.358-9 4.211-10.312 10.66-18.522 18.438-23.472 5.234 2.108 10.941 3.28 16.92 3.28s11.687-1.172 16.921-3.28c7.778 4.951 14.228 13.162 18.439 23.476-10.515 5.734-22.563 8.996-35.36 8.996zm300.858-405.935c16.786 0 30.443 13.656 30.443 30.442s-13.657 30.443-30.443 30.443-30.442-13.657-30.442-30.443 13.655-30.442 30.442-30.442zm0 105.078c-12.796 0-24.845-3.262-35.36-8.996 4.21-10.313 10.66-18.524 18.439-23.475 5.234 2.108 10.941 3.28 16.921 3.28 5.979 0 11.688-1.172 16.921-3.28 7.779 4.952 14.229 13.163 18.439 23.475-10.515 5.733-22.564 8.996-35.36 8.996z"/><path d="m86.347 159.96c-17.02 29.806-26.766 64.277-26.766 100.988 0 20.755 3.104 41.236 9.226 60.875 1.001 3.212 3.962 5.271 7.158 5.271.739 0 1.491-.11 2.233-.342 3.955-1.232 6.161-5.438 4.929-9.392-5.671-18.193-8.546-37.173-8.546-56.412 0-38.386 11.498-74.129 31.211-103.997 26.412-7.528 47.28-28.304 54.936-54.663 29.703-19.386 65.148-30.674 103.187-30.674 18.091 0 36.009 2.559 53.256 7.604 3.978 1.165 8.141-1.117 9.304-5.093s-1.117-8.141-5.093-9.304c-18.615-5.446-37.95-8.207-57.467-8.207-36.34 0-70.483 9.552-100.08 26.253.034-.95.073-1.899.073-2.857-.001-44.117-35.893-80.01-80.012-80.01s-80.011 35.893-80.011 80.011 35.894 80.012 80.012 80.012c.822-.001 1.634-.038 2.45-.063zm-45.342-31.155c-13.548-11.923-22.12-29.372-22.12-48.795 0-35.846 29.164-65.01 65.011-65.01s65.011 29.164 65.011 65.011c0 19.423-8.573 36.872-22.12 48.795-3.703-7.739-8.648-14.358-14.498-19.434 7.891-7.513 12.825-18.106 12.825-29.835 0-22.727-18.49-41.217-41.217-41.217-22.728 0-41.218 18.49-41.218 41.217 0 11.729 4.933 22.322 12.825 29.835-5.851 5.076-10.796 11.695-14.499 19.433zm69.108-49.269c0 14.456-11.761 26.217-26.217 26.217s-26.217-11.761-26.217-26.217 11.761-26.217 26.217-26.217 26.217 11.761 26.217 26.217zm-41.158 38.402c4.636 1.81 9.672 2.815 14.941 2.815s10.304-1.005 14.94-2.814c6.433 4.214 11.805 11.019 15.417 19.536-9.068 4.81-19.397 7.547-30.357 7.547s-21.289-2.737-30.358-7.548c3.613-8.517 8.985-15.322 15.417-19.536z"/></g></g></svg>