<svg id="Fill_Outline" height="512" viewBox="0 0 64 64" width="512" xmlns="http://www.w3.org/2000/svg" data-name="Fill Outline"><g id="Color"><path d="m51.416 35.649-9.704 12.351-12-1 17.788-15.12a2.731 2.731 0 0 1 3.954.443 2.731 2.731 0 0 1 -.038 3.326z" fill="#edb88e"/><path d="m52 33.96a2.706 2.706 0 0 1 -.58 1.69l-9.71 12.35-12-1 9.53-8.1.44.17a3.985 3.985 0 0 0 4.17-.75l7.13-6.48a2.383 2.383 0 0 1 .47.48 2.721 2.721 0 0 1 .55 1.64z" fill="#da9367"/><path d="m60.416 33.649-9.704 12.351-12-1 17.788-15.12a2.731 2.731 0 0 1 3.954.443 2.731 2.731 0 0 1 -.038 3.326z" fill="#f9dbaf"/><path d="m61 31.96a2.706 2.706 0 0 1 -.58 1.69l-9.71 12.35-12-1 3.94-3.35h.01a10.009 10.009 0 0 0 6.66-2.47l10.69-9.32a2.411 2.411 0 0 1 .44.46 2.721 2.721 0 0 1 .55 1.64z" fill="#edb88e"/><path d="m29 25h10a8 8 0 0 1 8 8v13a0 0 0 0 1 0 0h-26a0 0 0 0 1 0 0v-13a8 8 0 0 1 8-8z" fill="#ef5350"/><path d="m38 36a10.994 10.994 0 0 1 -10.987-10.741 8 8 0 0 0 -6.013 7.741v13h26v-10z" fill="#e53935"/><path d="m30 22h8a0 0 0 0 1 0 0v4a4 4 0 0 1 -4 4 4 4 0 0 1 -4-4v-4a0 0 0 0 1 0 0z" fill="#edb88e"/><path d="m33.1 27a6.985 6.985 0 0 0 4.9-2.1v-2.9h-8v4a3.992 3.992 0 0 0 6.761 2.884 6.982 6.982 0 0 1 -3.661-1.884z" fill="#da9367"/><path d="m34 2a10 10 0 0 1 10 10 4 4 0 0 1 -4 4h-12a4 4 0 0 1 -4-4 10 10 0 0 1 10-10z" fill="#00b4d8"/><path d="m41 9c-5.649 0-10.3-2.711-10.923-6.2a10 10 0 0 0 -6.077 9.2 4 4 0 0 0 4 4h12a4 4 0 0 0 4-4 9.953 9.953 0 0 0 -.527-3.184 17.125 17.125 0 0 1 -2.473.184z" fill="#0096c7"/><path d="m34 25a7 7 0 0 1 -7-7v-5l3.585-3a12.06 12.06 0 0 0 7.96 3h2.455v5a7 7 0 0 1 -7 7z" fill="#f9dbaf"/><g fill="#edb88e"><path d="m41 13h2a2 2 0 0 1 2 2 3 3 0 0 1 -3 3h-1a0 0 0 0 1 0 0v-5a0 0 0 0 1 0 0z"/><path d="m23 13h1a3 3 0 0 1 3 3 2 2 0 0 1 -2 2h-2a0 0 0 0 1 0 0v-5a0 0 0 0 1 0 0z" transform="matrix(-1 0 0 -1 50 31)"/><path d="m30 12.49v3.51a7 7 0 0 0 7 7 6.923 6.923 0 0 0 2.24-.37 6.993 6.993 0 0 1 -12.24-4.63v-5l3.59-3a12.009 12.009 0 0 0 3.71 2.22 11.951 11.951 0 0 0 4.25.78h2.45v2h-2.45a12.076 12.076 0 0 1 -7.96-3z"/></g><path d="m44.3 16.92a1.711 1.711 0 0 1 -.18.2 2.993 2.993 0 0 1 -2.12.88h-1v-5h1v1a3 3 0 0 0 2.3 2.92z" fill="#da9367"/><path d="m23.7 16.92a1.711 1.711 0 0 0 .18.2 2.993 2.993 0 0 0 2.12.88h1v-5h-1v1a3 3 0 0 1 -2.3 2.92z" fill="#da9367"/><path d="m60.022 35.824a2.688 2.688 0 0 0 -3.511.01l-9.799 8.166h-10.5a2.5 2.5 0 0 0 2.488-2.758 2.6 2.6 0 0 0 -2.631-2.242h-6.721a16.77 16.77 0 0 0 -8.148 1.859l-2.095 1.109a34.79 34.79 0 0 0 -16.105 18.032h19.712l.475-1.189a7 7 0 0 1 5.595-4.342l14.545-1.9a13 13 0 0 0 7.511-3.7l9.277-9.269a2.607 2.607 0 0 0 -.093-3.776z" fill="#f9dbaf"/><path d="m60.11 39.6-9.27 9.27a13 13 0 0 1 -7.51 3.7l-14.55 1.9a7.005 7.005 0 0 0 -5.59 4.34l-.48 1.19h-19.71a34.584 34.584 0 0 1 9.31-13.31 13.969 13.969 0 0 0 11.69 6.31h.26a6.968 6.968 0 0 1 3.52-1.53l14.55-1.9a13 13 0 0 0 7.51-3.7l9.27-9.27a2.649 2.649 0 0 0 .63-1 3.013 3.013 0 0 1 .28.22 2.6 2.6 0 0 1 .09 3.78z" fill="#edb88e"/><path d="m36.97 39.12a2.34 2.34 0 0 1 .03.38 2.492 2.492 0 0 1 -2.5 2.5h-4.79v.029a2 2 0 0 0 -1.71 1.971h8.21a2.5 2.5 0 0 0 .76-4.88z" fill="#edb88e"/></g><g id="Outline_copy" fill="#023e8a" data-name="Outline copy"><circle cx="31" cy="16" r="1"/><circle cx="37" cy="16" r="1"/><path d="m31.293 19.293a1 1 0 0 0 0 1.414 3.831 3.831 0 0 0 5.414 0 1 1 0 0 0 -1.414-1.414 1.831 1.831 0 0 1 -2.586 0 1 1 0 0 0 -1.414 0z"/><path d="m39 8h-1.172a5.789 5.789 0 0 1 -4.121-1.707 1 1 0 0 0 -1.414 1.414 7.772 7.772 0 0 0 5.535 2.293h1.172a1 1 0 0 0 0-2z"/><path d="m60.611 35.019.591-.752a3.73 3.73 0 0 0 -5.349-5.148l-3.41 2.9c-.06-.1-.119-.2-.189-.294a3.689 3.689 0 0 0 -4.586-1.113 9.006 9.006 0 0 0 -8.409-6.6 7.982 7.982 0 0 0 2.672-5.012h.069a4 4 0 0 0 4-4 2.981 2.981 0 0 0 -1.068-2.276 4.406 4.406 0 0 0 .068-.724 10.813 10.813 0 0 0 -2.324-6.749 1 1 0 0 0 -1.576 1.238 8.817 8.817 0 0 1 1.9 5.511h-4.455a11.057 11.057 0 0 1 -7.3-2.751 1 1 0 0 0 -1.3-.016l-3.308 2.767h-1.637a9 9 0 0 1 13.375-7.866 1 1 0 0 0 .971-1.748 11 11 0 0 0 -16.346 9.614 4.438 4.438 0 0 0 .068.725 2.977 2.977 0 0 0 -1.068 2.275 4 4 0 0 0 4 4h.069a7.982 7.982 0 0 0 2.672 5.013 9 9 0 0 0 -8.741 8.987v3.965a1 1 0 0 0 2 0v-3.965a7.008 7.008 0 0 1 7-7 5 5 0 0 0 10 0 7.008 7.008 0 0 1 7 7v10h-4a1 1 0 0 0 0 2h4.71a1 1 0 0 0 .641-.232l9.8-8.166a1.711 1.711 0 0 1 2.2-.046 1.62 1.62 0 0 1 .536 1.171 1.577 1.577 0 0 1 -.476 1.166l-9.27 9.27a12.055 12.055 0 0 1 -6.941 3.415l-4.3.56a1 1 0 0 0 .128 1.992 1.148 1.148 0 0 0 .13-.008l4.3-.56a14.073 14.073 0 0 0 8.088-3.985l9.267-9.266a3.6 3.6 0 0 0 -.119-5.228c-.025-.024-.056-.04-.083-.064zm-18.611-18.019v-3h1a1 1 0 0 1 1 1 2 2 0 0 1 -2 2zm-18-2a1 1 0 0 1 1-1h1v3a2 2 0 0 1 -2-2zm4 3v-4.533l2.591-2.167a13.058 13.058 0 0 0 7.954 2.7h1.455v4a6 6 0 0 1 -12 0zm6 11a3 3 0 0 1 -3-3v-.589a7.935 7.935 0 0 0 6 0v.589a3 3 0 0 1 -3 3zm13.989 3.777.158-.135a1.732 1.732 0 0 1 2.506.28 1.638 1.638 0 0 1 .228.422l-2.881 2.449zm7.88 2.285-7.869 6.56v-3.2l9.147-7.775a1.732 1.732 0 0 1 2.506.28 1.735 1.735 0 0 1 -.023 2.109l-.93 1.174a3.823 3.823 0 0 0 -2.831.852z"/><path d="m38.809 43.849a3.52 3.52 0 0 0 .886-2.708 3.607 3.607 0 0 0 -3.625-3.141h-6.72a23.041 23.041 0 0 0 -2.35.116v-3.116a1 1 0 0 0 -2 0v3.434a16.325 16.325 0 0 0 -4.269 1.543l-2.087 1.109a35.78 35.78 0 0 0 -16.575 18.548 1 1 0 0 0 1.862.732 33.77 33.77 0 0 1 15.648-17.512l2.088-1.11a15.854 15.854 0 0 1 7.683-1.744h6.72a1.593 1.593 0 0 1 1.635 1.339 1.5 1.5 0 0 1 -1.495 1.661h-8.5a1 1 0 0 0 0 2h9a.97.97 0 0 0 .534-.176 3.5 3.5 0 0 0 1.565-.975z"/><path d="m34.941 52.658-6.291.821a8 8 0 0 0 -6.387 4.957l-.481 1.189a1 1 0 0 0 .554 1.3.984.984 0 0 0 .374.075 1 1 0 0 0 .928-.625l.481-1.194a6 6 0 0 1 4.79-3.719l6.29-.82a1 1 0 0 0 -.258-1.984z"/></g></svg>