<svg id="Layer_3" enable-background="new 0 0 64 64" height="512" viewBox="0 0 64 64" width="512" xmlns="http://www.w3.org/2000/svg"><g><path d="m32 26.054 11.445-10.409c3.695-3.361 3.328-9.348-.748-12.217-2.833-1.994-6.626-1.822-9.273.421l-1.424 1.205-1.423-1.206c-2.647-2.242-6.44-2.414-9.273-.421-4.076 2.869-4.443 8.857-.748 12.217z" fill="#f4b2b0"/><g fill="#b3404a"><path d="m7.122 47.478c.045.084.103.161.17.229l7.828 7.829c.568.566.88 1.319.88 2.121v4.342c0 .553.447 1 1 1h12c.552 0 1-.447 1-1v-12.423c0-1.271-.478-2.482-1.345-3.411l-4.656-4.988.001-9.677c0-1.93-1.57-3.5-3.5-3.5-.539 0-1.044.133-1.5.351v-5.851c0-1.93-1.57-3.5-3.5-3.5-.539 0-1.043.132-1.5.351v-2.851c0-1.93-1.57-3.5-3.5-3.5-1.626 0-2.984 1.119-3.375 2.624-.618-.39-1.343-.624-2.125-.624-1.069 0-2.073.416-2.829 1.171-.755.756-1.171 1.76-1.171 2.829v17c0 .167.042.332.122.479zm13.378-17.478c.827 0 1.5.673 1.5 1.5l-.001 7.535-3-3.214v-4.321c.001-.828.673-1.5 1.501-1.5zm-5-9c.827 0 1.5.673 1.5 1.5l-.001 11.178-.676-.724c-.565-.607-1.365-.954-2.192-.954h-.131v-9.505c.003-.825.674-1.495 1.5-1.495zm-5-6c.827 0 1.5.673 1.5 1.5v5.995.005 10.279c-.444.4-.775.924-.918 1.525l-2.082-2.65v-15.154c0-.828.672-1.5 1.5-1.5zm-7.5 3.999c0-.534.208-1.036.585-1.414.378-.377.88-.585 1.415-.585 1.102 0 2 .897 2 2v13c0 .224.075.441.213.618l11 14 1.573-1.236-6.786-8.638v-1.744c0-.552.448-1 1-1h.131c.275 0 .542.116.73.318l12.331 13.212c.521.557.808 1.284.808 2.046v11.423h-10v-3.342c0-1.336-.521-2.591-1.465-3.536l-7.727-7.727-5.808-10.65z"/><path d="m58.999 15c-.782 0-1.507.234-2.125.624-.391-1.505-1.749-2.624-3.374-2.624-1.93 0-3.5 1.57-3.5 3.5v2.851c-.457-.219-.962-.351-1.5-.351-1.93 0-3.5 1.57-3.5 3.5v5.851c-.457-.219-.962-.351-1.5-.351-1.93 0-3.5 1.57-3.5 3.5v9.677l-4.655 4.988c-.868.929-1.345 2.14-1.345 3.411v12.423c0 .553.447 1 1 1h12c.552 0 1-.447 1-1v-4.342c0-.801.312-1.555.879-2.122l7.828-7.829c.067-.068.125-.145.17-.229l6-11c.081-.147.122-.312.122-.479l.001-16.998c0-2.207-1.795-4-4.001-4zm-5.499 0c.827 0 1.499.673 1.499 1.5v2.5 12.654l-2.082 2.649c-.143-.6-.474-1.124-.918-1.525v-16.278c.001-.828.673-1.5 1.501-1.5zm-5 6c.827 0 1.499.673 1.499 1.5v9.5h-.131c-.828 0-1.627.347-2.193.953l-.675.724v-11.177c0-.828.672-1.5 1.5-1.5zm-6.5 10.5c0-.827.673-1.5 1.5-1.5s1.499.673 1.499 1.5v4.321l-3 3.214v-7.535zm19 4.244-5.809 10.65-7.727 7.727c-.944.944-1.464 2.2-1.464 3.536v3.342h-10v-11.423c0-.762.287-1.489.807-2.046l12.331-13.212c.188-.203.455-.318.73-.318h.131c.552 0 1 .448 1 1v1.744l-6.787 8.638 1.573 1.236 11-14c.138-.176.213-.394.213-.618v-13c0-1.103.897-2 2.001-2 1.103 0 2 .897 2 2z"/><path d="m31.327 26.751c.19.173.432.26.672.26.241 0 .482-.087.673-.26l11.445-10.409c1.99-1.81 3.034-4.399 2.865-7.105-.168-2.698-1.521-5.129-3.71-6.669-3.193-2.247-7.511-2.053-10.495.475l-.777.658-.777-.658c-2.984-2.528-7.299-2.723-10.495-.475-2.189 1.541-3.542 3.972-3.71 6.669-.169 2.706.875 5.295 2.865 7.105zm-12.314-17.389c.13-2.089 1.175-3.969 2.865-5.159 1.139-.801 2.464-1.198 3.786-1.198 1.522 0 3.04.525 4.266 1.563l1.423 1.206c.374.317.92.316 1.292 0l1.423-1.206c2.29-1.939 5.602-2.089 8.052-.366 1.69 1.19 2.735 3.07 2.865 5.159.131 2.097-.676 4.102-2.214 5.5l-10.771 9.799-10.772-9.797c-1.539-1.4-2.346-3.405-2.215-5.501z"/></g></g></svg>