<svg id="Layer_1" enable-background="new 0 0 512 512" height="512" viewBox="0 0 512 512" width="512" xmlns="http://www.w3.org/2000/svg"><g><g><g id="XMLID_5549_"><path d="m170.644 511.722c-13.768-2.047-23.271-14.867-21.224-28.636l17.301-116.365-27.801-101.915c-3.663-13.429 4.254-27.285 17.682-30.948 13.428-3.66 27.285 4.253 30.949 17.683l29.194 107.02c.918 3.367 1.128 6.887.615 10.339l-18.08 121.599c-2.052 13.799-14.903 23.269-28.636 21.223z" fill="#55696e"/></g><g id="XMLID_5537_"><path d="m88.728 511.722c-13.768-2.047-23.271-14.867-21.224-28.636l17.579-118.237-12.528-109.993 21.959-21.704 28.053 21.989 12.967 107.02c.271 2.24.241 4.506-.091 6.738l-18.078 121.599c-2.052 13.8-14.903 23.27-28.637 21.224z" fill="#748488"/></g><path d="m202.016 84.027c-17.126-7.238-36.495-6.998-53.436.664-16.94 7.662-29.912 22.048-35.786 39.688l-40.239 130.477 80.552 26.226c18.46 6.01 38.265-4.245 44.003-22.791 12.78-41.307 32.651-105.894 32.651-105.894 11.219-26.541-1.203-57.152-27.745-68.37z" fill="#e64937"/></g><g><path d="m233.636 203.327h170.63v146.612h-170.63z" fill="#b4d7dc"/><path d="m422.695 183.865c-25.301-38.057-41.886-38.057-47.335-38.057-23.883 0-88.957 0-113.36 0-5.448 0-22.024 0-47.366 38.042-3.104 4.66-10.429 16.146-15.805 28.391-3.575 8.143 16.56 14.595 16.56 14.595s20.062 1.906 22.377-2.772c2.124-4.291 4.983-9.458 8.693-15.251 6.593-10.297 12.339-16.962 16.029-20.516v145.596h112.302l-.173-145.833c3.672 3.495 9.518 10.233 16.238 20.752 3.148 4.927 5.681 9.4 7.671 13.267 2.901 5.636 23.545 3.511 23.545 3.511s19.956-5.206 16.388-13.348c-5.362-12.24-12.668-23.719-15.764-28.377z" fill="#64afff"/><path d="m262.494 312.251v34.947h112.303l-.033-34.947z" fill="#414b82"/><ellipse cx="318.645" cy="114.646" fill="#ffb69e" rx="43.763" ry="43.763" transform="matrix(.998 -.071 .071 .998 -7.326 22.877)"/><path d="m408.224 475.645h-179.158c-4.899 0-8.87 3.971-8.87 8.87s3.972 8.87 8.87 8.87h179.157c4.899 0 8.87-3.971 8.87-8.87s-3.971-8.87-8.869-8.87z" fill="#6c9baa"/><path d="m408.224 346.138h-179.158c-4.899 0-8.87 3.971-8.87 8.87s3.972 8.87 8.87 8.87h179.157c4.899 0 8.87-3.971 8.87-8.87.001-4.899-3.971-8.87-8.869-8.87z" fill="#6c9baa"/><g><g><path d="m272.788 471.353-23.913-135.173c-2.15-12.153 5.959-23.748 18.111-25.897 12.151-2.151 23.747 5.958 25.897 18.112l23.913 135.173c2.15 12.153-5.959 23.747-18.111 25.897-12.133 2.148-23.744-5.941-25.897-18.112z" fill="#5f6e9b"/></g><g><path d="m338.606 489.465c-12.153-2.15-20.261-13.744-18.111-25.897l23.912-135.173c2.15-12.153 13.745-20.265 25.897-18.112 12.153 2.15 20.261 13.744 18.111 25.897l-23.912 135.173c-2.147 12.137-13.73 20.265-25.897 18.112z" fill="#5f6e9b"/></g></g><g><path d="m403.655 292.247c-7.348 0-13.306 5.957-13.306 13.306v193.142c0 7.348 5.957 13.306 13.306 13.306 7.348 0 13.306-5.957 13.306-13.306v-193.142c-.001-7.349-5.958-13.306-13.306-13.306z" fill="#3c5a73"/><path d="m425.429 325.471c-4.899 0-8.87 3.971-8.87 8.87v135.693c0 4.899 3.972 8.87 8.87 8.87 4.899 0 8.87-3.971 8.87-8.87v-135.693c0-4.899-3.972-8.87-8.87-8.87z" fill="#6c9baa"/><path d="m233.636 292.247c-7.348 0-13.305 5.957-13.305 13.306v193.142c0 7.348 5.957 13.306 13.305 13.306s13.306-5.957 13.306-13.306v-193.142c0-7.349-5.957-13.306-13.306-13.306z" fill="#3c5a73"/><path d="m211.862 325.471c-4.899 0-8.87 3.971-8.87 8.87v135.693c0 4.899 3.972 8.87 8.87 8.87s8.87-3.971 8.87-8.87v-135.693c0-4.899-3.972-8.87-8.87-8.87z" fill="#6c9baa"/></g><g fill="#ffb69e"><path d="m251.585 295.431-18.285-60.773c.716-2.277 2.16-5.915 4.476-10.592l-38.937-11.824c-3.519 8.015-6.199 16.351-6.316 23.315-.044 2.06.219 4.161.844 6.241l19.63 65.244c3.191 10.606 14.395 16.711 25.099 13.489 10.655-3.207 16.695-14.444 13.489-25.1z"/><path d="m444.768 235.556c-.117-6.964-2.792-15.3-6.304-23.315-51.129 12.595-35.656 8.784-39.934 9.838 2.901 5.635 4.651 9.984 5.462 12.573l-18.287 60.78c-3.206 10.655 2.833 21.893 13.489 25.099 10.633 3.199 21.886-2.81 25.099-13.489l19.63-65.244c.626-2.081.889-4.182.845-6.242z"/></g></g><ellipse cx="253.274" cy="46.37" fill="#ffb69e" rx="46.358" ry="46.358" transform="matrix(.127 -.992 .992 .127 175.005 291.67)"/><g id="XMLID_5531_"><path d="m326.875 170.357c-1.307-11.526-11.709-19.817-23.236-18.503l-73.861 8.375-5.472-11.384h-22.279l-16.473 16.34 12.831 26.694c3.899 8.111 12.486 12.774 21.296 11.77l88.691-10.057c11.526-1.306 19.81-11.709 18.503-23.235z" fill="#ffb69e"/><path d="m185.554 165.185 38.752-16.34-23.781-49.476c-5.025-10.454-17.57-14.856-28.029-9.831-10.455 5.025-14.856 17.574-9.831 28.029z" fill="#d13d2c"/></g></g></svg>