<svg id="Layer_1" enable-background="new 0 0 256 256" height="512" viewBox="0 0 256 256" width="512" xmlns="http://www.w3.org/2000/svg"><g><g><g><g><g><path d="m241.602 223.826v-161.361h-227.205v161.361c0 5.523 4.477 10 10 10h207.206c5.522 0 9.999-4.477 9.999-10z" fill="#e6e7e8"/></g><g><path d="m71.198 62.465h56.801v171.361h-56.801z" fill="#f1f2f2"/></g><g><path d="m184.801 233.826h46.801c5.523 0 10-4.477 10-10v-161.361h-56.801z" fill="#d1d3d4"/></g><g><path d="m241.603 32.174v30.292h-227.205v-30.292c0-5.523 4.477-10 10-10h207.206c5.522 0 9.999 4.477 9.999 10z" fill="#58595b"/></g><g><path d="m235.713 23.064c.567 1.255.89 2.643.89 4.109v26.292c0 2.209-1.791 4-4 4h-218.205v5h227.206v-30.291c-.001-4.057-2.42-7.541-5.891-9.11z" fill="#414042"/></g><g><g><circle cx="88.125" cy="42.32" fill="#91b56b" r="6.912"/></g><g><circle cx="63.017" cy="42.32" fill="#f79219" r="6.912"/></g><g><circle cx="37.91" cy="42.32" fill="#e63950" r="6.912"/></g></g><g><path d="m20.396 147c-1.104 0-2-.896-2-2v-68c0-1.104.896-2 2-2s2 .896 2 2v68c0 1.104-.895 2-2 2zm0-76c-1.104 0-2-.896-2-2v-.535c0-1.104.896-2 2-2s2 .896 2 2v.535c0 1.104-.895 2-2 2z" fill="#fff"/></g></g></g></g><g><g><path d="m144.137 145.026h-7.081c.01 1.366-.092 2.749-.344 4.142-2.196 12.103-13.788 20.134-25.891 17.938s-20.134-13.787-17.938-25.89c1.574-8.675 7.98-15.244 15.936-17.468v-9.426c-12.359 2.394-22.577 12.124-24.96 25.256-3.1 17.086 8.238 33.451 25.325 36.552 17.087 3.1 33.451-8.238 36.552-25.325.137-.758.238-1.514.319-2.268z" fill="#58595b"/></g><g><path d="m144.137 145.026h-1.9c-.077.663-.168 1.327-.289 1.993-3.1 17.087-19.465 28.425-36.551 25.325-5.61-1.018-10.594-3.473-14.657-6.906 4.55 5.413 10.942 9.332 18.444 10.693 17.087 3.1 33.451-8.238 36.551-25.325.138-.758.238-1.514.319-2.268z" fill="#414042"/></g><g><g><path d="m165.961 161.482-12.675-23.21c-1.519-2.782-4.436-4.513-7.606-4.513h-16.35v-13h16.29c2.872 0 5.2-2.328 5.2-5.2s-2.328-5.2-5.2-5.2h-16.29v-4.189c0-5.664-4.591-10.255-10.255-10.255s-10.255 4.591-10.255 10.255v27.496c0 6.274 5.086 11.359 11.359 11.359h23.959l11.936 21.856c1.491 2.73 4.913 3.735 7.644 2.244s3.734-4.912 2.243-7.643z" fill="#5e9cf7"/></g><g><g><path d="m146.839 113.118c-.686 2.334-2.944 3.855-5.376 3.855h-12.133c-2.091 0-3.786 1.695-3.786 3.786v11.485c0 .836.678 1.515 1.515 1.515h2.272v-13h16.08c2.751 0 5.183-2.046 5.394-4.788.202-2.618-1.539-4.859-3.929-5.453.199.806.234 1.676-.037 2.6z" fill="#478cf7"/></g><g><path d="m165.961 161.482-12.675-23.21c-.846-1.549-2.134-2.756-3.65-3.536l12.538 22.959c1.491 2.73.486 6.153-2.244 7.644-1.432.782-3.052.872-4.486.392l.628 1.15c1.491 2.731 4.914 3.735 7.644 2.244 2.731-1.49 3.736-4.912 2.245-7.643z" fill="#478cf7"/></g></g><g><circle cx="119.075" cy="82.558" fill="#5e9cf7" r="10.255"/></g><g><path d="m124.176 73.67c.865 1.504 1.367 3.242 1.367 5.102 0 5.664-4.592 10.255-10.255 10.255-1.859 0-3.598-.502-5.102-1.367 1.77 3.077 5.083 5.154 8.888 5.154 5.664 0 10.255-4.591 10.255-10.255.001-3.805-2.076-7.118-5.153-8.889z" fill="#478cf7"/></g></g></g><g><g><g><g><g><path d="m217.132 83.534c-4.213.077-7.51 3.692-7.51 7.905v33.805c0 1.791-.711 3.508-1.978 4.775l-33.102 33.102c-5.065 5.065-7.911 11.935-7.911 19.099v13.842h34.887v-8.975c0-3.273 1.189-6.436 3.346-8.898l16.716-19.084c2.157-2.463 3.346-5.625 3.346-8.898v-59.021c.001-4.274-3.502-7.73-7.794-7.652z" fill="#fcc4ae"/></g><g><path d="m221.101 84.567c.287.804.451 1.666.451 2.568v59.021c0 3.274-1.189 6.436-3.346 8.898l-16.716 19.084c-2.157 2.462-3.346 5.625-3.346 8.898v13.026h3.376v-8.975c0-3.273 1.189-6.436 3.346-8.898l16.716-19.084c2.157-2.462 3.346-5.625 3.346-8.898v-59.021c-.001-2.831-1.542-5.296-3.827-6.619z" fill="#f2ad97"/></g></g><g><path d="m211.189 137.095c-2.346-2.261-5.796-2.632-8.619-1.31.67.329 1.301.764 1.867 1.31 3.091 2.979 3.125 7.901.102 10.923l-17.185 17.185c-.961.961-.927 2.53.075 3.448.942.863 2.397.831 3.301-.072l20.561-20.561c3.022-3.022 2.988-7.943-.102-10.923z" fill="#f2ad97"/></g></g><g><g><path d="m209.851 218.533v-17.471c0-2.761-2.239-5-5-5h-41.569c-2.761 0-5 2.239-5 5v17.471c0 2.761 2.239 5 5 5h41.569c2.761 0 5-2.238 5-5z" fill="#478cf7"/></g><g><path d="m204.851 196.062v17.471c0 2.761-2.239 5-5 5h-41.569c0 2.761 2.239 5 5 5h41.569c2.761 0 5-2.239 5-5v-17.471c0-2.761-2.239-5-5-5z" fill="#377de2"/></g><g><path d="" fill="none"/></g></g></g><g><g><g><g><path d="m54.481 187.087v8.975h34.887v-13.842c0-7.164-2.846-14.033-7.911-19.099l-33.101-33.101c-1.266-1.266-1.978-2.984-1.978-4.775v-33.805c0-4.214-3.297-7.828-7.51-7.905-4.292-.078-7.796 3.377-7.796 7.652v59.021c0 3.273 1.189 6.436 3.346 8.898l16.716 19.084c2.158 2.462 3.347 5.624 3.347 8.897z" fill="#fcc4ae"/></g><g><path d="m85.992 196.062h3.376v-13.842c0-7.164-2.846-14.033-7.911-19.099l-3.376-3.376c5.065 5.065 7.911 11.935 7.911 19.099z" fill="#f2ad97"/></g></g><g><path d="m44.811 137.095c2.346-2.261 5.796-2.632 8.619-1.31-.67.329-1.301.764-1.867 1.31-3.091 2.979-3.125 7.901-.102 10.923l17.185 17.185c.961.961.927 2.53-.075 3.448-.942.863-2.397.831-3.301-.072l-20.561-20.561c-3.022-3.022-2.988-7.943.102-10.923z" fill="#f2ad97"/></g></g><g><g><path d="m97.719 218.533v-17.471c0-2.761-2.239-5-5-5h-41.57c-2.761 0-5 2.239-5 5v17.471c0 2.761 2.239 5 5 5h41.569c2.762 0 5.001-2.238 5.001-5z" fill="#478cf7"/></g><g><path d="m92.719 196.062v17.471c0 2.761-2.239 5-5 5h-41.57c0 2.761 2.239 5 5 5h41.569c2.761 0 5-2.239 5-5v-17.471c.001-2.761-2.238-5-4.999-5z" fill="#377de2"/></g></g></g></g></g></svg>