<svg id="Capa_1" enable-background="new 0 0 512 512" height="512" viewBox="0 0 512 512" width="512" xmlns="http://www.w3.org/2000/svg"><g><path d="m421.664 319.377h-413.758c-5.162-20.268-7.906-41.502-7.906-63.377 0-141.385 114.615-256 256-256 96.436 0 180.417 53.323 224.069 132.093 1.538 2.776-58.62 112.284-58.62 176.709 0 3.542.073 7.068.215 10.575z" fill="#7cd2e3"/><path d="m477.644 132.093h2.425c20.346 36.715 31.931 78.958 31.931 123.907 0 20.442-2.396 40.324-6.922 59.381-.555 2.336-2.622 3.997-5.023 3.997h-207.701c-20.927-6.606-36.139-26.081-36.351-49.141-.266-28.887 24.036-52.523 52.924-52.523h83.098c18.549 0 33.586-15.037 33.586-33.586-.001-28.739 23.295-52.035 52.033-52.035z" fill="#5ca33b"/><path d="m6.832 315h498.335c-26.641 112.943-128.088 197-249.167 197s-222.526-84.057-249.168-197z" fill="#ffc14f"/><path d="m434.11 118.452c0 8.284-6.716 15-15 15h-52.872c-8.284 0-15-6.716-15-15s6.716-15 15-15h52.872c8.284 0 15 6.715 15 15zm-388.712 109.463h-16.806c-8.284 0-15 6.716-15 15s6.716 15 15 15h16.806c8.284 0 15-6.716 15-15s-6.716-15-15-15zm202.386-99.661h-16.806c-8.284 0-15 6.716-15 15s6.716 15 15 15h16.806c8.284 0 15-6.716 15-15s-6.715-15-15-15zm39.716-98.339h-16.806c-8.284 0-15 6.716-15 15s6.716 15 15 15h16.806c8.284 0 15-6.716 15-15s-6.716-15-15-15zm-129.468 98.853c-4.125 0-7.468-3.344-7.468-7.468v-1.234c0-8.284-6.716-15-15-15h-20.043c-8.284 0-15 6.716-15 15v1.234c0 4.125-3.344 7.468-7.468 7.468-8.284 0-15 6.716-15 15 0 8.284 6.716 15 15 15h64.979c8.284 0 15-6.716 15-15 0-8.284-6.716-15-15-15z" fill="#a6e0ec"/><path d="m73.916 345.899h-22.628c-4.142 0-7.5-3.358-7.5-7.5 0-4.142 3.358-7.5 7.5-7.5h22.629c4.142 0 7.5 3.358 7.5 7.5-.001 4.143-3.359 7.5-7.501 7.5zm375.475 44.277c0-4.142-3.358-7.5-7.5-7.5h-22.629c-4.142 0-7.5 3.358-7.5 7.5 0 4.142 3.358 7.5 7.5 7.5h22.629c4.142 0 7.5-3.358 7.5-7.5zm-365.59-6.116c0-4.142-3.358-7.5-7.5-7.5h-9.971c-4.142 0-7.5 3.358-7.5 7.5 0 4.142 3.358 7.5 7.5 7.5h9.971c4.142 0 7.5-3.357 7.5-7.5zm190.318 7.5c0-4.142-3.358-7.5-7.5-7.5h-9.971c-4.142 0-7.5 3.358-7.5 7.5 0 4.142 3.358 7.5 7.5 7.5h9.971c4.142 0 7.5-3.357 7.5-7.5zm-15.634-38.306c0-4.142-3.358-7.5-7.5-7.5h-9.971c-4.142 0-7.5 3.358-7.5 7.5 0 4.142 3.358 7.5 7.5 7.5h9.971c4.143 0 7.5-3.358 7.5-7.5zm0 142.468c0-4.142-3.358-7.5-7.5-7.5h-9.971c-4.142 0-7.5 3.358-7.5 7.5 0 4.142 3.358 7.5 7.5 7.5h9.971c4.143 0 7.5-3.357 7.5-7.5zm-96.633-61.667c0-4.142-3.358-7.5-7.5-7.5h-9.971c-4.142 0-7.5 3.358-7.5 7.5 0 4.142 3.358 7.5 7.5 7.5h9.971c4.142 0 7.5-3.358 7.5-7.5zm293.696-94.939c0-4.142-3.358-7.5-7.5-7.5h-9.971c-4.142 0-7.5 3.358-7.5 7.5 0 4.142 3.358 7.5 7.5 7.5h9.971c4.142 0 7.5-3.358 7.5-7.5z" fill="#ffcd71"/><path d="m397.108 68.265v3.323c0 26.656-21.609 48.265-48.265 48.265h-3.407c-26.656 0-48.265-21.609-48.265-48.265v-3.323c-.001-26.656 21.608-48.265 48.265-48.265h3.407c26.656 0 48.265 21.609 48.265 48.265z" fill="#ff883e"/><path d="m357.107 119.148c-2.685.463-5.446.706-8.264.706h-17.448c-26.656 0-48.265-21.609-48.265-48.265v-3.323c0-26.656 21.609-48.265 48.265-48.265h17.448c2.818 0 5.579.242 8.264.706-22.719 3.92-40.001 23.721-40.001 47.56v3.323c0 23.837 17.282 43.638 40.001 47.558z" fill="#f77026"/><path d="m332.619 410.11v40.39c0 4.142-3.358 7.5-7.5 7.5h-15c-4.142 0-7.5-3.358-7.5-7.5v-40.39c0-8.284 6.716-15 15-15 8.284 0 15 6.715 15 15zm30-15c-8.284 0-15 6.716-15 15v40.39c0 4.142 3.358 7.5 7.5 7.5h15c4.142 0 7.5-3.358 7.5-7.5v-40.39c0-8.285-6.716-15-15-15z" fill="#ffbeaa"/><path d="m407.619 240v45c0 8.284-6.716 15-15 15h-105c-8.284 0-15-6.716-15-15v-45c0-11.046 8.954-20 20-20h95c11.045 0 20 8.954 20 20z" fill="#ffbeaa"/><path d="m407.619 163.254v79.66h-20v190.064c0 2.761-2.239 5-5 5h-85c-2.761 0-5-2.239-5-5v-190.063h-20v-79.66c0-11.046 8.954-20 20-20h95c11.045-.001 20 8.954 20 19.999z" fill="#fb5858"/><path d="m340.119 143.254c-11.046 0-20 8.954-20 20v274.724h-22.5c-2.761 0-5-2.239-5-5v-190.063h-20v-79.66c0-11.046 8.954-20 20-20h47.5z" fill="#f44545"/><path d="m397.108 90.197v5.043c0 5.523-4.477 10-10 10h-2.305c-5.643 13.781-17.474 24.371-32.039 28.315v15.066c0 6.341-5.141 11.482-11.482 11.482h-2.346c-6.341 0-11.482-5.141-11.482-11.482v-15.072c-14.556-3.948-26.38-14.535-32.02-28.309h-2.305c-5.523 0-10-4.477-10-10v-5.043c0-5.091 3.804-9.293 8.724-9.919v-7.105c0-26.656 21.609-48.265 48.265-48.265 26.656 0 48.265 21.609 48.265 48.265v7.105c4.921.626 8.725 4.828 8.725 9.919z" fill="#ffbeaa"/><path d="m388.384 73.173v13.79c0 22.288-15.107 41.047-35.639 46.597-20.533-5.55-35.639-24.309-35.639-46.597v-13.79c0-22.288 15.107-41.047 35.639-46.597 20.532 5.55 35.639 24.309 35.639 46.597z" fill="#ffcdbe"/><path d="m345.364 88.811v5.245c0 2.897-2.348 5.246-5.245 5.246s-5.246-2.348-5.246-5.246v-5.245c0-2.897 2.349-5.246 5.246-5.246s5.245 2.349 5.245 5.246z" fill="#e09380"/><path d="m387.77 54.373h-72.069c2.07-11.927 9.228-22.108 19.157-28.226-3.047-2.746-4.963-6.722-4.963-11.147 0-8.284 6.716-15 15-15h13.681c8.284 0 15 6.716 15 15 0 4.425-1.916 8.401-4.963 11.147 9.929 6.118 17.087 16.299 19.157 28.226z" fill="#ff883e"/><path d="m340.06 26.147c-9.929 6.118-17.087 16.299-19.157 28.226h-28.436c2.07-11.927 9.228-22.108 19.157-28.226-3.047-2.746-4.963-6.722-4.963-11.147 0-8.284 6.716-15 15-15h28.436c-8.284 0-15 6.716-15 15 0 4.425 1.916 8.401 4.963 11.147z" fill="#f77026"/><path d="m224.381 300h-10c-8.284 0-15-6.716-15-15v-22.085c0-11.046 8.954-20 20-20 11.046 0 20 8.954 20 20v22.085c0 8.284-6.715 15-15 15zm-96.147-37.979c0-5.523-4.477-10-10-10h-3.853c-5.523 0-10 4.477-10 10v17.979c0 11.046 8.954 20 20 20h3.853z" fill="#b46e5a"/><path d="m219.381 286.542v161.458c0 5.523-4.477 10-10 10h-20c-5.523 0-10-4.477-10-10v-130h-15v51.936c0 5.523-4.477 10-10 10h-20c-5.523 0-10-4.477-10-10v-82.956c0-16.005 12.975-28.98 28.98-28.98h37.479c15.763 0 28.541 12.779 28.541 28.542z" fill="#a2abb8"/><path d="m152.892 379.936h-18.511c-5.523 0-10-4.477-10-10v-81.826c0-11.045 8.954-20 20-20-.124.136-.246.274-.366.414 1.313-.271 2.674-.414 4.068-.414-3.226 3.551-5.191 8.268-5.191 13.443v88.383c0 5.523 4.477 10 10 10zm46.489 68.064v-130.362c0-5.523-4.477-10-10-10-5.523 0-10 4.477-10 10v130.362c0 5.523 4.477 10 10 10h20c-5.523 0-10-4.477-10-10z" fill="#909ba6"/><path d="m239.381 265.383h-20v22.617h-95v-22.617h-16.232v-102.129c0-11.046 8.954-20 20-20h91.232c11.046 0 20 8.954 20 20z" fill="#0a4499"/><path d="m228.871 90.197v5.043c0 5.523-4.477 10-10 10h-2.305c-5.643 13.781-17.474 24.371-32.039 28.315v15.066c0 6.341-5.141 11.482-11.482 11.482h-2.346c-6.341 0-11.482-5.141-11.482-11.482v-15.072c-14.556-3.947-26.38-14.535-32.02-28.309h-2.305c-5.523 0-10-4.477-10-10v-5.043c0-5.091 3.804-9.293 8.724-9.919v-7.105c0-26.656 21.609-48.265 48.265-48.265 26.656 0 48.265 21.609 48.265 48.265v7.105c4.921.626 8.725 4.828 8.725 9.919z" fill="#b46e5a"/><path d="m220.147 73.173v13.79c0 22.288-15.107 41.047-35.639 46.597-20.533-5.55-35.639-24.309-35.639-46.597v-13.79c0-22.288 15.107-41.047 35.639-46.597 20.532 5.55 35.639 24.309 35.639 46.597z" fill="#c38778"/><path d="m177.127 86.749v5.245c0 2.897-2.348 5.246-5.245 5.246s-5.246-2.349-5.246-5.246v-5.245c0-2.897 2.349-5.245 5.246-5.245s5.245 2.348 5.245 5.245z" fill="#b46e5a"/><path d="m352.85 110.239v.849c0 7.031-5.7 12.731-12.731 12.731s-12.731-5.699-12.731-12.731v-.849c0-1.875 1.52-3.395 3.395-3.395h18.672c1.874 0 3.395 1.52 3.395 3.395zm-171.633-3.395h-18.672c-1.875 0-3.395 1.52-3.395 3.395v.849c0 7.031 5.7 12.731 12.731 12.731s12.731-5.699 12.731-12.731v-.849c0-1.875-1.52-3.395-3.395-3.395z" fill="#fff5f5"/><path d="m289.119 448h43.5v17c0 2.761-2.239 5-5 5h-46.5c-3.866 0-7-3.134-7-7 0-8.284 6.715-15 15-15zm102 0h-43.5v17c0 2.761 2.239 5 5 5h46.5c3.866 0 7-3.134 7-7 0-8.284-6.716-15-15-15zm-206.738 22h46.5c3.866 0 7-3.134 7-7 0-8.284-6.716-15-15-15h-43.5v17c0 2.761 2.239 5 5 5z" fill="#0a3575"/><path d="m178.702 38.064c0 8.284-6.716 15-15 15h-21.278c-2.072 0-4.046-.42-5.841-1.179v23.584c0 5.523-4.477 10-10 10-5.523 0-10-4.477-10-10v-28.513c0-4.911 3.981-8.892 8.892-8.892h1.949c0-8.284 6.716-15 15-15h21.278c8.284 0 15 6.716 15 15z" fill="#61362b"/><path d="m227.179 46.956v28.512c0 5.523-4.477 10-10 10s-10-4.477-10-10v-23.584c-1.795.76-3.769 1.179-5.841 1.179h-41.957c-8.284 0-15-6.716-15-15s6.716-15 15-15h41.957c8.284 0 15 6.716 15 15h1.949c4.911.001 8.892 3.982 8.892 8.893z" fill="#784132"/><path d="m144.381 184.127h-65.083c-4.142 0-7.5 3.357-7.5 7.5v93.831c0 19.516 14.035 35.816 32.542 39.337v127.141c0 4.143 3.358 7.5 7.5 7.5s7.5-3.357 7.5-7.5v-127.141c18.507-3.521 32.542-19.821 32.542-39.337v-93.831c-.001-4.143-3.359-7.5-7.501-7.5zm-7.5 15v13.373h-50.083v-13.373zm-25.041 111.373c-13.809 0-25.042-11.233-25.042-25.042v-57.958h50.083v57.958c0 13.809-11.233 25.042-25.041 25.042z" fill="#c8d2dc"/><path d="m125.543 453v12c0 2.761-2.239 5-5 5h-17.406c-2.761 0-5-2.239-5-5v-12c0-2.761 2.239-5 5-5h17.406c2.761 0 5 2.239 5 5z" fill="#b9c3cd"/><path d="m375.722 76.54c-.329 5.084-4.778 8.928-9.873 8.928h-9.237c-3.365 0-6.323-1.737-8.028-4.364-1.884-2.903-5.005-4.766-8.466-4.766-3.461 0-6.581 1.863-8.466 4.766-1.705 2.627-4.664 4.364-8.029 4.364h-9.237c-5.095 0-9.543-3.844-9.873-8.928-.361-5.571 4.051-10.202 9.544-10.202h9.565.014 42.539c5.496 0 9.908 4.631 9.547 10.202z" fill="#0a3575"/><path d="m391.81 315.896-86.999 165.41c-1.928 3.666-6.463 5.075-10.129 3.146-3.666-1.928-5.075-6.463-3.147-10.129l86.999-165.409c1.928-3.666 6.463-5.075 10.129-3.147 3.667 1.928 5.075 6.463 3.147 10.129z" fill="#b9c3cd"/><path d="m406.755 292.852-32.799 62.36c-1.928 3.666-6.463 5.075-10.129 3.146l-4.425-2.328c-3.666-1.928-5.075-6.463-3.147-10.129l32.799-62.36c1.928-3.666 6.463-5.075 10.129-3.147l4.425 2.328c3.666 1.929 5.075 6.464 3.147 10.13z" fill="#c8d2dc"/><path d="m124.381 163.254v102.128h-20v-102.128c0-11.046 8.954-20 20-20h20c-11.045 0-20 8.955-20 20zm84.617 12.685h-24c-1.657 0-3 1.343-3 3v18.232c0 1.009.508 1.951 1.351 2.506l12 7.897c1.001.659 2.297.659 3.298 0l12-7.897c.843-.555 1.351-1.497 1.351-2.506v-18.232c0-1.657-1.343-3-3-3z" fill="#0a3575"/><path d="m158.848 73.926c0 3.314-2.686 6-6 6s-6-2.686-6-6 2.686-6 6-6 6 2.686 6 6zm32.066-6c-3.314 0-6 2.686-6 6s2.686 6 6 6 6-2.686 6-6-2.686-6-6-6z" fill="#4c2c21"/></g></svg>