<svg height="511pt" viewBox="-85 0 511 511.99671" width="511pt" xmlns="http://www.w3.org/2000/svg"><path d="m295.488281 84.371094c-3.664062 14.542968-13.238281 26.035156-25.507812 32.550781l-48.246094-36.285156-5.1875-3.902344 20.222656-54.9375c7.007813-1.300781 14.382813-1.15625 21.746094.699219 11.859375 2.988281 21.6875 9.90625 28.453125 19.023437 8.804688 11.851563 12.410156 27.40625 8.519531 42.851563zm0 0" fill="#e6e6e6"/><path d="m286.96875 41.519531c-17.269531-14.53125-32.773438 4.257813-48.316406 49.042969l-22.105469-13.828125 20.222656-54.9375c7.007813-1.300781 14.382813-1.15625 21.746094.699219 11.859375 2.988281 21.6875 9.90625 28.453125 19.023437zm0 0" fill="#ccc"/><path d="m117.203125 63.609375c-21.441406-5.402344-43.203125 7.597656-48.605469 29.039063-5.402344 21.441406 7.601563 43.203124 29.042969 48.605468s43.203125-7.601562 48.601563-29.042968c5.402343-21.441407-7.597657-43.199219-29.039063-48.601563zm0 0" fill="#ccc"/><path d="m214.585938 45.761719c-39.246094-9.890625-79.082032 13.914062-88.96875 53.160156-9.886719 39.25 13.914062 79.082031 53.160156 88.96875 39.25 9.886719 79.082031-13.914063 88.96875-53.160156 9.890625-39.25-13.910156-79.082031-53.160156-88.96875zm0 0" fill="#ffc48f"/><path d="m198.046875 190.117188c-6.347656.113281-12.8125-.597657-19.265625-2.222657-39.246094-9.886719-63.046875-49.722656-53.160156-88.96875 9.886718-39.246093 49.722656-63.046875 88.96875-53.160156 6.457031 1.625 12.480468 4.0625 18.019531 7.171875-32.285156.566406-61.453125 22.578125-69.71875 55.378906-8.261719 32.800782 6.996094 66.003906 35.15625 81.800782zm0 0" fill="#e59a5c"/><path d="m212.703125 106.875c-15.808594 11.757812-34.804687 16.195312-52.929687 13.886719-12.582032-1.59375-24.734376-6.429688-35.109376-14.320313-11.15625-29.785156-1.894531-64.519531 24.902344-84.457031 22.515625-16.746094 51.46875-18.628906 75.179688-7.390625 4.5 2.140625 8.820312 4.757812 12.875 7.824219 11.140625 29.785156 1.875 64.53125-24.917969 84.457031zm0 0" fill="#e6e6e6"/><path d="m224.742188 14.59375-.011719.007812s-78.578125 28.121094-64.957031 106.160157c-12.582032-1.59375-24.734376-6.429688-35.109376-14.320313-11.15625-29.785156-1.894531-64.519531 24.902344-84.457031 22.515625-16.746094 51.46875-18.628906 75.175782-7.390625zm0 0" fill="#ccc"/><path d="m205.4375 296.234375 56.933594 9.914063c8.851562 1.539062 16.265625 7.570312 19.582031 15.925781l33.835937 85.449219c5.246094 13.261718-1.242187 28.269531-14.503906 33.515624-3.117187 1.238282-6.332031 1.816407-9.5 1.816407-10.277344 0-19.996094-6.175781-24.015625-16.316407l-28.503906-71.992187h-60.824219" fill="#4bc999"/><path d="m298.28125 442.007812c-2.160156.578126-4.339844.847657-6.496094.847657-10.277344 0-19.996094-6.175781-24.015625-16.316407l-28.503906-71.992187c7.871094 0 14.949219 4.808594 17.847656 12.128906l23.703125 59.863281c3.148438 7.941407 9.789063 13.457032 17.464844 15.46875zm0 0" fill="#3aaf80"/><path d="m68.792969 291.246094v-40.15625c0-39.457032 31.988281-71.441406 71.441406-71.441406 19.726563 0 37.585937 7.992187 50.515625 20.925781 12.933594 12.929687 20.925781 30.789062 20.925781 50.515625v51.21875" fill="#e3f4fc"/><path d="m156.554688 181.515625c-31.59375 7.386719-61.960938 35.726563-61.960938 69.574219v42.6875l-25.800781-2.53125v-40.15625c0-39.453125 31.988281-71.441406 71.441406-71.441406 5.621094 0 11.082031.648437 16.320313 1.867187zm0 0" fill="#bdd9e5"/><path d="m243.550781 386.671875c0 65.015625-52.707031 117.722656-117.722656 117.722656s-117.722656-52.707031-117.722656-117.722656 52.707031-117.722656 117.722656-117.722656 117.722656 52.707031 117.722656 117.722656zm0 0" fill="#3b3d4c"/><path d="m213.703125 386.671875c0 48.535156-39.34375 87.875-87.875 87.875s-87.875-39.339844-87.875-87.875c0-48.53125 39.34375-87.875 87.875-87.875s87.875 39.34375 87.875 87.875zm0 0" fill="#e6e6e6"/><path d="m120.4375 251.089844v53.1875l26.953125 26.953125c10.085937 10.085937 10.085937 26.433593 0 36.519531-5.042969 5.039062-11.648437 7.5625-18.257813 7.5625-6.605468 0-13.214843-2.523438-18.257812-7.5625l-34.515625-34.519531c-4.84375-4.84375-7.5625-11.410157-7.5625-18.257813v-63.882812" fill="#e3f4fc"/><path d="m142.035156 371.859375c-3.976562 2.304687-8.441406 3.449219-12.902344 3.449219-6.609374 0-13.21875-2.519532-18.257812-7.558594l-34.519531-34.519531c-4.84375-4.84375-7.558594-11.414063-7.558594-18.261719v-63.878906h25.796875v63.878906c0 6.847656 2.71875 13.417969 7.5625 18.261719l34.519531 34.519531c1.640625 1.640625 3.445313 3.015625 5.359375 4.109375zm0 0" fill="#bdd9e5"/><path d="m299.652344 473.625c0 16.992188-13.777344 30.769531-30.769532 30.769531-16.992187 0-30.769531-13.777343-30.769531-30.769531s13.777344-30.769531 30.769531-30.769531c16.992188 0 30.769532 13.777343 30.769532 30.769531zm0 0" fill="#3b3d4c"/><path d="m218.988281 119.40625c-4.074219-1.023438-8.207031 1.445312-9.230469 5.519531l-1.523437 6.050781c-1.027344 4.074219 1.441406 8.207032 5.515625 9.234376.625.15625 1.25.230468 1.863281.230468 3.402344 0 6.5-2.296875 7.371094-5.75l1.523437-6.050781c1.027344-4.074219-1.445312-8.207031-5.519531-9.234375zm0 0"/><path d="m244.863281 125.925781c-4.078125-1.027343-8.207031 1.445313-9.234375 5.519531l-1.523437 6.050782c-1.027344 4.074218 1.441406 8.207031 5.515625 9.234375.625.15625 1.25.230469 1.863281.230469 3.402344 0 6.5-2.300782 7.371094-5.75l1.523437-6.050782c1.027344-4.074218-1.445312-8.207031-5.515625-9.234375zm0 0"/><path d="m334.027344 435.25h-14.222656c1.007812-1.558594 1.902343-3.207031 2.652343-4.945312 3.546875-8.191407 3.6875-17.277344.402344-25.582032l-33.839844-85.453125c-4.261719-10.738281-13.972656-18.636719-25.347656-20.613281l-44.390625-7.730469v-39.835937c0-19.945313-7.34375-38.757813-20.742188-53.367188 13.839844-.292968 27.433594-4.160156 39.640626-11.453125 18.546874-11.085937 31.667968-28.726562 36.949218-49.675781 1.273438-5.058594 2.035156-10.164062 2.320313-15.246094 12.582031-7.996094 21.746093-20.566406 25.414062-35.117187 3.820313-15.175781 1.507813-30.929688-6.519531-44.359375-8.023438-13.425782-20.800781-22.929688-35.96875-26.75-7.183594-1.808594-14.480469-2.246094-21.746094-1.308594-28.191406-19.066406-66.058594-18.414062-93.601562 2.074219-13.699219 10.191406-23.425782 24.242187-28.503906 39.785156-10.84375-2.117187-22.03125-.421875-31.785157 4.867187-3.691406 2-5.058593 6.617188-3.058593 10.3125 1.378906 2.539063 3.992187 3.976563 6.695312 3.976563 1.222656 0 2.464844-.292969 3.617188-.917969 6.492187-3.523437 13.929687-4.695312 21.152343-3.394531-1.535156 11.796875-.5 23.996094 3.371094 35.691406-1.210937 9.089844-.871094 18.226563.964844 27.058594-5.773438 1.886719-11.988281 2.125-17.980469.613281-8.402344-2.113281-15.476562-7.375-19.917969-14.8125-4.445312-7.433594-5.726562-16.15625-3.625-24.492187l.027344-.105469c.070313-.273438.140625-.554688.222656-.820312 1.269531-4.003907-.945312-8.28125-4.949219-9.550782-4.003906-1.265625-8.28125.949219-9.550781 4.953125-.160156.511719-.304687 1.046875-.441406 1.574219l-.042969.167969c-3.109375 12.339843-1.226562 25.152343 5.300782 36.078125 6.527343 10.921875 16.917968 18.652344 29.261718 21.761718 3.855469.96875 7.773438 1.449219 11.671875 1.445313 4.921875 0 9.8125-.765625 14.503907-2.273437 1.933593 4.648437 4.304687 9.144531 7.109374 13.421874 2.558594 3.898438 5.4375 7.523438 8.574219 10.878907-42.390625 1.375-76.457031 36.261719-76.457031 78.980469v28.195312c-37.546875 22.636719-60.6875 63.371094-60.6875 107.386719 0 69.105469 56.21875 125.328125 125.328125 125.328125 45.824219 0 85.976563-24.726563 107.835937-61.535156h4.648438c-4.894531 6.441406-7.804688 14.464843-7.804688 23.160156 0 21.160156 17.214844 38.375 38.375 38.375 21.15625 0 38.371094-17.214844 38.371094-38.375 0-8.695313-2.910156-16.71875-7.804687-23.160156h34.578125c4.199218 0 7.605468-3.40625 7.605468-7.605469 0-4.203125-3.40625-7.605469-7.605468-7.605469zm-59.148438-110.375 33.835938 85.445312c1.792968 4.527344 1.714844 9.480469-.21875 13.945313-1.929688 4.46875-5.484375 7.910156-10.019532 9.703125-2.136718.851562-4.386718 1.28125-6.691406 1.28125-7.523437 0-14.171875-4.519531-16.945312-11.511719 0 0-28.742188-72.527343-28.878906-72.785156-4.855469-16.308594-12.945313-31.242187-23.527344-44.039063l38.632812 6.726563c6.199219 1.078125 11.492188 5.386719 13.8125 11.234375zm-14.5-192c-4.285156 17.011719-14.941406 31.335938-30.003906 40.335938-15.058594 9-32.722656 11.59375-49.734375 7.308593-16.003906-4.03125-29.804687-13.847656-38.851563-27.636719-6.597656-10.054687-10.25-21.578124-10.726562-33.367187 11.796875 6.230469 24.847656 9.355469 37.902344 9.355469 17.007812 0 34.027344-5.292969 48.277344-15.894532 13.707031-10.195312 23.4375-24.257812 28.515624-39.8125 14.292969 16.058594 20 38.367188 14.621094 59.710938zm22.910156-83.199219c5.941407 9.941407 7.652344 21.601563 4.824219 32.835938-1.96875 7.816406-6.085937 14.855469-11.75 20.398437-3.171875-18.15625-12.507812-34.996094-26.925781-47.402344.847656-8.921874.21875-18.03125-1.984375-26.941406 3.082031.101563 6.15625.539063 9.203125 1.304688 11.234375 2.828125 20.691406 9.863281 26.632812 19.804687zm-129.183593-21.585937c22.730469-16.90625 54.128906-17.1875 77.125-.921875 8.964843 26.703125-.332031 56.695312-23.066407 73.605469-22.730468 16.90625-54.128906 17.183593-77.125.917968-8.964843-26.703125.332032-56.691406 23.066407-73.601562zm-13.871094 159.164062c17.050781 0 33.082031 6.636719 45.140625 18.695313 12.058594 12.058593 18.695312 28.089843 18.695312 45.140625v37.671875c-.027343.003906-.054687.007812-.082031.015625-20.910156-16.730469-47.265625-26.90625-75.945312-27.40625v-28.433594c0-4.199219-3.40625-7.605469-7.605469-7.605469-4.203125 0-7.605469 3.40625-7.605469 7.605469v71.339844c0 2.015625.800781 3.953125 2.226563 5.378906l26.957031 26.953125c7.101563 7.101563 7.101563 18.660156 0 25.761719-3.441406 3.441406-8.015625 5.335937-12.882813 5.335937-4.863281 0-9.4375-1.894531-12.878906-5.335937l-34.519531-34.519532c-3.441406-3.4375-5.335937-8.011718-5.335937-12.878906v-63.882812c0-35.199219 28.636718-63.835938 63.835937-63.835938zm-14.40625 309.535156c-60.71875 0-110.117187-49.398437-110.117187-110.117187 0-35.503906 17.144531-68.570313 45.480468-89.144531v17.445312c0 .472656.011719.941406.03125 1.410156-19.667968 18.070313-30.875 43.457032-30.875 70.289063 0 52.644531 42.832032 95.476563 95.480469 95.476563 17.636719 0 34.859375-4.84375 49.8125-14.007813 3.582031-2.199219 4.707031-6.878906 2.511719-10.460937-2.195313-3.582032-6.878906-4.707032-10.460938-2.507813-12.558594 7.699219-27.035156 11.765625-41.863281 11.765625-44.257813 0-80.265625-36.007812-80.265625-80.265625 0-20.082031 7.464844-39.203125 20.769531-53.878906 1.316407 2.078125 2.867188 4.035156 4.648438 5.816406l34.519531 34.519531c6.3125 6.3125 14.707031 9.789063 23.632812 9.789063 8.929688 0 17.324219-3.476563 23.636719-9.792969 13.035157-13.03125 13.035157-34.238281 0-47.269531l-19.0625-19.0625c40.574219 3.972656 72.390625 38.277343 72.390625 79.878906 0 18.308594-6 35.542969-17.347656 49.835937-2.609375 3.289063-2.0625 8.074219 1.230469 10.683594 1.398437 1.113282 3.066406 1.648438 4.722656 1.648438 2.238281 0 4.460937-.984375 5.960937-2.875 13.503907-17.011719 20.644532-37.511719 20.644532-59.292969 0-51.910156-41.636719-94.273437-93.265625-95.453125v-14.636719c59.699219 1.183594 107.902343 50.109375 107.902343 110.089844 0 60.71875-49.398437 110.117187-110.117187 110.117187zm124.3125-94.121093 10.558594 26.671875c.832031 2.101562 1.875 4.066406 3.066406 5.910156h-22.410156c4.324219-10.242188 7.324219-21.171875 8.785156-32.582031zm18.742187 94.121093c-12.773437 0-23.164062-10.390624-23.164062-23.164062 0-12.769531 10.390625-23.164062 23.164062-23.164062 12.773438 0 23.164063 10.394531 23.164063 23.164062 0 12.773438-10.390625 23.164062-23.164063 23.164062zm0 0"/><path d="m275.902344 470.714844c-1.3125-3.105469-4.582032-5.0625-7.953125-4.632813-3.28125.421875-6 2.964844-6.558594 6.242188-1.128906 6.605469 6.511719 11.355469 11.957031 7.449219 2.816406-2.015626 3.902344-5.867188 2.554688-9.058594zm0 0"/></svg>