<svg id="Capa_1" enable-background="new 0 0 512 512" height="512" viewBox="0 0 512 512" width="512" xmlns="http://www.w3.org/2000/svg"><g><g><path d="m180.096 362.154c1.667-.151 3.351-.24 5.057-.24h107.087c4.835 0 8.754 3.919 8.754 8.754 0 4.098-.583 8.058-1.65 11.814 57.466-16.759 99.456-69.822 99.456-132.701 0-12.942-1.784-25.466-5.11-37.346-4.058.487-8.188.744-12.377.744-56.001 0-101.545-44.763-102.809-100.461-5.867-.76-11.849-1.155-17.923-1.155-46.62 0-87.847 23.083-112.882 58.442h24.043c2.761 0 5 2.239 5 5v32.586c0 2.761-2.239 5-5 5h-33.307c-2.761 0-5 2.239-5 5v33.307c0 2.761-2.239 5-5 5h-5.931c1.908 43.785 24.186 82.283 57.592 106.256z" fill="#ffe177"/><path d="m289.028 361.914h3.213c4.835 0 8.754 3.919 8.754 8.754 0 4.098-.583 8.058-1.65 11.814 57.466-16.759 99.456-69.822 99.456-132.701 0-12.942-1.784-25.466-5.11-37.346-4.058.487-8.188.744-12.377.744-15.223 0-29.672-3.311-42.67-9.247 5.044 14.348 7.794 29.777 7.794 45.85-.001 46.163-22.636 87.032-57.41 112.132z" fill="#ffd15b"/></g><path d="m446.452 370.28c-17.237-17.252-45.196-17.257-62.439-.014l-69.531 69.531h-81.48c-3.414 0-6.181-2.767-6.181-6.181v-13.599c0-3.414 2.767-6.181 6.181-6.181h24.825c23.841 0 43.168-19.327 43.168-43.168 0-4.835-3.919-8.754-8.754-8.754h-107.087c-18.873 0-35.53 9.453-45.521 23.875v103.711c0 .756-.074 1.493-.182 2.22h188.857c4.918 0 9.635-1.954 13.112-5.431l105.019-105.019c3.017-3.018 3.029-7.971.013-10.99z" fill="#ffcebf"/><g><g><path d="m272.893 369.991c0 21.748-15.544 39.857-36.127 43.845h21.061c23.841 0 43.168-19.327 43.168-43.168 0-4.835-3.919-8.754-8.754-8.754h-24.322c2.949 1.494 4.974 4.546 4.974 8.077z" fill="#ffb09e"/></g></g><g><g><path d="m446.452 370.28c-12.726-12.737-31.293-16.061-47.081-9.996 5.602 2.152 10.857 5.476 15.373 9.996 3.016 3.019 3.004 7.972-.013 10.99l-105.02 105.018c-3.477 3.478-8.194 5.431-13.112 5.431h31.708c4.918 0 9.635-1.954 13.112-5.431l105.019-105.019c3.018-3.017 3.03-7.97.014-10.989z" fill="#ffb09e"/></g></g><g><path d="m27.847 370.315v119.185c0 8.284 6.716 15 15 15h81.786c8.284 0 15-6.716 15-15v-119.185c0-8.284-6.716-15-15-15h-81.786c-8.285 0-15 6.715-15 15z" fill="#8ac9fe"/></g><g><path d="m124.632 355.315h-38.632c8.284 0 15 6.716 15 15v119.185c0 8.284-6.716 15-15 15h38.633c8.284 0 15-6.716 15-15v-119.185c-.001-8.285-6.716-15-15.001-15z" fill="#60b7ff"/></g><g><path d="m101.633 471.129h-22.827c-2.761 0-5-2.239-5-5v-22.828c0-2.761 2.239-5 5-5h22.828c2.761 0 5 2.239 5 5v22.828c-.001 2.762-2.239 5-5.001 5z" fill="#fff"/></g><g><g><g><circle cx="381.313" cy="110.339" fill="#dff6fd" r="102.839"/></g><g><path d="m381.313 7.5c-5.295 0-10.497.401-15.576 1.173 49.405 7.507 87.263 50.165 87.263 101.666s-37.858 94.159-87.263 101.666c5.08.772 10.281 1.173 15.576 1.173 56.797 0 102.839-46.043 102.839-102.839s-46.042-102.839-102.839-102.839z" fill="#c8effe"/></g><g><path d="m278.474 110.339c0 56.797 46.043 102.839 102.839 102.839v-205.678c-56.796 0-102.839 46.043-102.839 102.839z" fill="#8ac9fe"/></g></g><path d="m412.012 122.399c-7.965 7.656-18.778 12.372-30.699 12.372s-22.734-4.715-30.699-12.372c-23.413 7.316-43.233 22.765-56.137 43.053 18.247 28.689 50.317 47.727 86.835 47.727s68.589-19.037 86.835-47.727c-12.901-20.288-32.722-35.737-56.135-43.053z" fill="#8ac9fe"/><g><path d="m468.149 165.452c-5.544-8.716-12.37-16.535-20.203-23.206-11.87 36.4-43.49 63.876-82.209 69.759 5.08.772 10.281 1.173 15.576 1.173 36.519.001 68.589-19.037 86.836-47.726z" fill="#60b7ff"/></g><path d="m294.478 165.452c18.247 28.689 50.317 47.727 86.835 47.727v-78.408c-11.921 0-22.734-4.715-30.699-12.372-23.412 7.316-43.233 22.765-56.136 43.053z" fill="#fff"/><g><circle cx="381.313" cy="90.453" fill="#60b7ff" r="44.317"/></g><g><path d="m336.996 90.453c0 24.476 19.842 44.317 44.317 44.317v-88.634c-24.475 0-44.317 19.841-44.317 44.317z" fill="#f3f0f3"/></g></g><g><path d="m90.851 250.897v-33.307c0-2.761-2.239-5-5-5h-33.308c-2.761 0-5-2.239-5-5v-32.585c0-2.761 2.239-5 5-5h33.307c2.761 0 5-2.239 5-5v-33.307c0-2.761 2.239-5 5-5h32.585c2.761 0 5 2.239 5 5v33.307c0 2.761 2.239 5 5 5h33.307c2.761 0 5 2.239 5 5v32.585c0 2.761-2.239 5-5 5h-33.307c-2.761 0-5 2.239-5 5v33.307c0 2.761-2.239 5-5 5h-32.584c-2.762 0-5-2.239-5-5z" fill="#6cf5c2"/></g><g><g><path d="m171.743 170.004h-15.743v16.689c0 2.761-2.239 5-5 5h-33.307c-2.761 0-5 2.239-5 5v33.307c0 2.761-2.239 5-5 5h-16.842v15.897c0 2.761 2.239 5 5 5h32.585c2.761 0 5-2.239 5-5v-33.307c0-2.761 2.239-5 5-5h33.307c2.761 0 5-2.239 5-5v-32.586c0-2.761-2.238-5-5-5z" fill="#00f2a6"/></g></g><g><path d="m334.233 308.101h-10.208l-14.621-36.423c-2.857-7.12-9.66-11.72-17.332-11.72h-46.847c-1.021 0-1.853-.831-1.853-1.853v-23.744l3.469 3.844c2.305 2.553 5.6 4.018 9.039 4.018h27.381c4.143 0 7.5-3.358 7.5-7.5s-3.357-7.5-7.5-7.5h-26.126l-13.763-15.254v-5.914c11.958-3.295 20.77-14.261 20.77-27.253 0-15.588-12.682-28.27-28.27-28.27s-28.271 12.682-28.271 28.27c0 12.992 8.812 23.958 20.771 27.253v15.657c-27.587 3.681-48.942 27.35-48.942 55.929 0 31.122 25.32 56.441 56.442 56.441 21.261 0 40.508-11.756 50.231-30.68 1.893-3.684.44-8.206-3.243-10.098-3.686-1.893-8.206-.441-10.099 3.244-7.142 13.899-21.277 22.534-36.889 22.534-22.851 0-41.442-18.59-41.442-41.441 0-20.289 14.66-37.208 33.942-40.749v21.213c0 9.292 7.56 16.853 16.853 16.853h46.847c1.51 0 2.849.905 3.411 2.307l16.511 41.13c1.141 2.843 3.896 4.706 6.96 4.706h15.279c4.143 0 7.5-3.358 7.5-7.5s-3.357-7.5-7.5-7.5zm-111.631-129.298c0-7.317 5.953-13.27 13.271-13.27 7.317 0 13.27 5.953 13.27 13.27s-5.953 13.271-13.27 13.271c-7.318-.001-13.271-5.954-13.271-13.271z"/><path d="m101.634 478.629c6.893 0 12.5-5.607 12.5-12.5v-22.828c0-6.893-5.607-12.5-12.5-12.5h-22.829c-6.893 0-12.5 5.607-12.5 12.5v22.828c0 6.893 5.607 12.5 12.5 12.5zm-20.329-32.828h17.828v17.828h-17.828z"/><path d="m491.653 110.339c0-60.841-49.498-110.339-110.34-110.339-58.87 0-107.118 46.344-110.182 104.465-3.516-.256-7.041-.402-10.549-.402-45.895 0-89.217 21.777-116.688 58.441h-2.957v-30.807c0-6.893-5.607-12.5-12.5-12.5h-32.586c-6.893 0-12.5 5.607-12.5 12.5v30.807h-30.808c-6.893 0-12.5 5.607-12.5 12.5v32.585c0 6.893 5.607 12.5 12.5 12.5h30.808v30.808c0 6.893 5.607 12.5 12.5 12.5h19.656c3.396 36.81 20.429 70.427 47.864 94.924-5.894 2.182-11.435 5.242-16.435 9.074-1.437-11.031-10.888-19.58-22.304-19.58h-81.785c-12.407 0-22.5 10.093-22.5 22.5v27.75c0 4.142 3.358 7.5 7.5 7.5s7.5-3.358 7.5-7.5v-27.75c0-4.135 3.364-7.5 7.5-7.5h81.786c4.136 0 7.5 3.365 7.5 7.5v119.185c0 4.135-3.364 7.5-7.5 7.5h-81.786c-4.136 0-7.5-3.365-7.5-7.5v-56.436c0-4.142-3.358-7.5-7.5-7.5s-7.5 3.358-7.5 7.5v56.436c0 12.407 10.093 22.5 22.5 22.5h81.786c8.928 0 16.657-5.227 20.29-12.78h183.385c6.957 0 13.497-2.709 18.416-7.628l105.019-105.02c5.955-5.956 5.962-15.643.016-21.593-9.753-9.762-22.724-15.139-36.521-15.142-.004 0-.007 0-.011 0-13.794 0-26.763 5.372-36.517 15.125l-11.499 11.499c-2.929 2.929-2.929 7.678 0 10.606 2.93 2.929 7.678 2.929 10.607 0l11.499-11.499c6.921-6.921 16.121-10.732 25.909-10.732h.008c9.79.002 18.993 3.817 25.913 10.744.08.08.089.285-.012.385l-105.019 105.02c-2.085 2.085-4.858 3.234-7.809 3.234h-181.174v-95.994c9.042-11.82 23.09-18.812 38.021-18.812h107.087c.691 0 1.254.562 1.254 1.254 0 19.667-16.001 35.668-35.668 35.668h-24.825c-7.544 0-13.681 6.137-13.681 13.681v13.599c0 7.544 6.137 13.681 13.681 13.681h81.479c1.989 0 3.896-.79 5.304-2.197l33.284-33.284c2.929-2.929 2.929-7.678 0-10.606-2.929-2.929-7.677-2.929-10.607 0l-31.087 31.087h-77.054v-10.961h23.506c21.661 0 40.182-13.667 47.416-32.827 28.126-9.068 53.347-26.898 71.347-50.539 19.438-25.527 29.711-56.022 29.711-88.188 0-10.542-1.156-21.008-3.394-31.23 50.538-10.067 88.746-54.759 88.746-108.212zm-102.84-95.045c49.078 3.837 87.84 44.999 87.84 95.045 0 14.714-3.353 28.659-9.331 41.114-11.518-14.357-26.233-25.414-42.799-32.445 5.433-8.194 8.607-18.009 8.607-28.555 0-26.025-19.287-47.622-44.317-51.268zm0 39.112c16.716 3.474 29.317 18.316 29.317 36.047s-12.601 32.574-29.317 36.047zm-15-39.112v23.882c-18.151 2.613-33.635 14.606-40.611 32.037-1.539 3.845.33 8.21 4.176 9.75 3.845 1.538 8.211-.331 9.75-4.176 4.677-11.684 14.737-19.913 26.686-22.37v72.063c-11.257-2.363-21.004-9.933-25.938-20.623-1.737-3.761-6.193-5.402-9.953-3.667-3.761 1.736-5.402 6.192-3.666 9.953 1.111 2.407 2.4 4.698 3.838 6.869-16.562 7.031-31.274 18.087-42.789 32.441-5.978-12.455-9.33-26.4-9.33-41.114-.002-50.046 38.759-91.208 87.837-95.045zm0 126.415v63.666c-28.966-2.266-54.341-17.523-70.271-39.946 11.441-16.139 27.295-28.063 45.385-34.567 7.125 5.701 15.708 9.493 24.886 10.847zm-287.962 63.38h-30.808v-27.585h30.808c6.893 0 12.5-5.607 12.5-12.5v-30.807h27.585v30.807c0 6.893 5.607 12.5 12.5 12.5h30.807v27.585h-30.807c-6.893 0-12.5 5.607-12.5 12.5v30.808h-27.585v-30.808c0-6.892-5.608-12.5-12.5-12.5zm305.45 44.692c0 28.855-9.214 56.208-26.645 79.102-14.462 18.992-34.121 33.772-56.179 42.5.003-.239.018-.475.018-.715 0-8.963-7.291-16.254-16.254-16.254h-107.087c-.942 0-1.879.031-2.815.073-29.532-22.087-48.097-54.903-51.787-91.282 5.886-1.01 10.384-6.137 10.384-12.307v-30.808h30.807c6.893 0 12.5-5.607 12.5-12.5v-32.585c0-6.893-5.607-12.5-12.5-12.5h-8.432c24.653-27.425 60.011-43.441 97.27-43.441 3.585 0 7.189.165 10.778.458 4.682 56.561 52.205 101.158 109.954 101.158 2.239 0 4.46-.075 6.666-.207 2.194 9.574 3.322 19.403 3.322 29.308zm-2.488-44.406v-63.658c9.325-1.361 17.854-5.21 24.885-10.856 18.09 6.505 33.945 18.428 45.387 34.568-15.93 22.423-41.305 37.68-70.272 39.946z"/></g></g></svg>