<svg id="Capa_1" enable-background="new 0 0 512 512" height="512" viewBox="0 0 512 512" width="512" xmlns="http://www.w3.org/2000/svg"><g><g fill="#8ac9fe"><path d="m321.382 64.821c-18.615-5.446-37.95-8.207-57.467-8.207-39.58 0-76.559 11.324-107.892 30.885-.809 7.889-2.901 15.394-6.033 22.327 31.721-23.973 71.19-38.212 113.925-38.212 18.091 0 36.009 2.559 53.256 7.604 3.978 1.165 8.141-1.117 9.304-5.093s-1.118-8.141-5.093-9.304z"/><path d="m74.581 260.948c0-43.083 14.475-82.843 38.803-114.695-6.949 3.098-14.467 5.147-22.364 5.917-19.902 31.52-31.439 68.825-31.439 108.778 0 20.757 3.104 41.238 9.225 60.875 1.001 3.212 3.962 5.271 7.158 5.271.739 0 1.491-.11 2.233-.342 3.955-1.232 6.161-5.438 4.929-9.392-5.67-18.191-8.545-37.171-8.545-56.412z"/></g><g><path d="m263.915 465.283c-13.43 0-26.898-1.323-40.032-3.933-4.062-.808-6.701-4.756-5.895-8.818.808-4.062 4.744-6.703 8.818-5.895 12.173 2.419 24.658 3.646 37.108 3.646 104.399 0 189.335-84.936 189.335-189.335 0-11.039-.964-22.127-2.863-32.955-.717-4.079 2.011-7.967 6.091-8.683 4.078-.722 7.968 2.012 8.683 6.091 2.051 11.682 3.09 23.641 3.09 35.547 0 112.671-91.664 204.335-204.335 204.335z" fill="#8ac9fe"/></g><g><path d="m134.745 342.992c-5.356-1.106-10.903-1.69-16.587-1.69-45.066 0-81.599 36.533-81.599 81.599s36.533 81.599 81.599 81.599 81.599-36.533 81.599-81.599c0-8.67-1.364-17.02-3.87-24.859-25.032-12.472-46.192-31.595-61.142-55.05z" fill="#ffe177"/><path d="m134.745 342.992c-5.356-1.106-10.903-1.69-16.587-1.69-8.127 0-15.97 1.205-23.379 3.417 33.669 10.054 58.22 41.244 58.22 78.182s-24.551 68.128-58.22 78.182c7.408 2.212 15.251 3.417 23.379 3.417 45.066 0 81.599-36.533 81.599-81.599 0-8.67-1.364-17.02-3.87-24.859-25.032-12.472-46.192-31.595-61.142-55.05z" fill="#ffd15b"/><g><path d="m118.158 504.5c16.423 0 31.7-4.869 44.501-13.217-5.249-16.947-15.902-30.239-29.165-36.112-4.666 2.19-9.851 3.45-15.336 3.45-5.486 0-10.671-1.26-15.336-3.45-13.263 5.873-23.916 19.165-29.165 36.112 12.801 8.348 28.079 13.217 44.501 13.217z" fill="#f3f0f3"/></g><g><path d="m133.495 455.172c-4.666 2.19-9.851 3.45-15.336 3.45-5.486 0-10.671-1.26-15.337-3.45-.166.073-.327.162-.492.238 9.022 4.141 16.81 11.722 22.469 21.547 4.503 7.818 1.227 17.895-7.108 21.348-4.898 2.029-10.037 3.595-15.36 4.645 5.121 1.01 10.411 1.55 15.829 1.55 16.422 0 31.7-4.869 44.501-13.217-5.251-16.947-15.904-30.239-29.166-36.111z" fill="#e2dee2"/></g><path d="m185.693 392.471c4.203 9.291 6.564 19.587 6.564 30.431 0 40.858-33.24 74.099-74.099 74.099s-74.1-33.24-74.1-74.099 33.241-74.1 74.1-74.1c8.097 0 15.886 1.324 23.185 3.735-4.27-5.7-8.147-11.71-11.602-17.983-3.792-.495-7.658-.752-11.583-.752-49.13 0-89.1 39.97-89.1 89.1 0 49.129 39.97 89.099 89.1 89.099 49.129 0 89.099-39.97 89.099-89.099 0-7.146-.851-14.097-2.448-20.761-6.621-2.783-13.004-6.021-19.116-9.67z" fill="#fff3be"/><g><g><circle cx="118.158" cy="422.366" fill="#fff" r="37.943"/></g><g><path d="m118.158 384.423c-5.543 0-10.803 1.199-15.55 3.335 13.198 5.94 22.392 19.196 22.392 34.608s-9.194 28.668-22.392 34.608c4.747 2.136 10.007 3.335 15.55 3.335 20.955 0 37.943-16.988 37.943-37.943s-16.988-37.943-37.943-37.943z" fill="#f3f0f3"/></g></g></g><g><path d="m337.506 125.56c-21.867-11.911-46.938-18.68-73.591-18.68-85.09 0-154.069 68.979-154.069 154.069s68.979 154.069 154.069 154.069 154.069-68.979 154.069-154.069c0-20.614-4.059-40.277-11.404-58.248-38.032-5.816-67.409-37.893-69.074-77.141z" fill="#d8ecfe"/><path d="m337.506 125.56c-21.867-11.911-46.938-18.68-73.591-18.68-9.01 0-17.837.781-26.423 2.266 72.499 12.531 127.646 75.724 127.646 151.804s-55.147 139.27-127.646 151.802c8.586 1.484 17.413 2.266 26.423 2.266 85.09 0 154.069-68.979 154.069-154.069 0-20.614-4.059-40.277-11.404-58.248-38.032-5.816-67.409-37.893-69.074-77.141z" fill="#c4e2ff"/><path d="m349.875 326.815h-11.961l-16.515-41.141c-3.053-7.607-10.323-12.523-18.521-12.523h-52.22c-1.612 0-2.925-1.312-2.925-2.925v-28.704l5.365 5.946c2.407 2.666 5.847 4.195 9.438 4.195h30.521c4.143 0 7.5-3.357 7.5-7.5s-3.357-7.5-7.5-7.5h-29.505l-15.819-17.533v-7.58c13.287-3.354 23.152-15.405 23.152-29.72 0-16.901-13.751-30.652-30.652-30.652s-30.652 13.751-30.652 30.652c0 14.314 9.865 26.365 23.152 29.72v18.868c-30.691 3.716-54.554 29.907-54.554 61.584 0 34.217 27.837 62.054 62.054 62.054 28.315 0 53.025-19.126 60.09-46.511 1.035-4.011-1.377-8.102-5.388-9.136-4.017-1.04-8.102 1.378-9.136 5.388-5.356 20.76-24.094 35.259-45.566 35.259-25.945 0-47.054-21.108-47.054-47.054 0-23.393 17.161-42.846 39.554-46.449v24.673c0 9.884 8.041 17.925 17.925 17.925h52.22c2.036 0 3.842 1.221 4.601 3.111l18.403 45.847c1.141 2.843 3.896 4.706 6.96 4.706h17.032c4.143 0 7.5-3.357 7.5-7.5s-3.356-7.5-7.499-7.5zm-125.293-144.984c0-8.631 7.021-15.652 15.652-15.652s15.652 7.021 15.652 15.652c0 8.63-7.021 15.651-15.652 15.651s-15.652-7.021-15.652-15.651z" fill="#0593fc"/></g><g><g><circle cx="419.016" cy="122.043" fill="#fe646f" r="81.599"/></g><g><path d="m419.016 40.444c-7.192 0-14.164.939-20.808 2.687 34.986 9.2 60.792 41.039 60.792 78.912s-25.806 69.712-60.792 78.912c6.644 1.747 13.615 2.687 20.808 2.687 45.066 0 81.599-36.533 81.599-81.599s-36.533-81.599-81.599-81.599z" fill="#fd4755"/></g><g><g><path d="m419.016 203.642c16.423 0 31.7-4.869 44.501-13.217-5.249-16.947-15.902-30.239-29.165-36.112-4.666 2.19-9.851 3.451-15.336 3.451-5.486 0-10.671-1.26-15.336-3.451-13.263 5.873-23.916 19.165-29.165 36.112 12.801 8.348 28.078 13.217 44.501 13.217z" fill="#f3f0f3"/></g><g><path d="m434.352 154.314c-4.666 2.19-9.851 3.45-15.336 3.45-5.486 0-10.671-1.26-15.336-3.45-.142.063-.28.139-.421.203 9.051 4.133 16.864 11.727 22.537 21.576 4.505 7.822 1.229 17.901-7.111 21.355-4.919 2.037-10.079 3.608-15.427 4.657 5.099 1.001 10.365 1.536 15.758 1.536 16.423 0 31.7-4.869 44.501-13.217-5.249-16.945-15.902-30.237-29.165-36.11z" fill="#e2dee2"/></g><g><circle cx="419.016" cy="121.508" fill="#fff" r="37.943"/></g><g><path d="m419.016 83.565c-5.538 0-10.793 1.196-15.537 3.329 13.205 5.937 22.406 19.197 22.406 34.614s-9.201 28.677-22.406 34.614c4.743 2.133 9.999 3.329 15.537 3.329 20.955 0 37.942-16.988 37.942-37.943s-16.987-37.943-37.942-37.943z" fill="#f3f0f3"/></g></g></g><g><g><circle cx="83.896" cy="80.011" fill="#05e39c" r="72.511"/></g><g><path d="m83.896 7.5c-7.378 0-14.496 1.11-21.204 3.158 29.701 9.07 51.308 36.685 51.308 69.353s-21.607 60.284-51.308 69.353c6.708 2.048 13.825 3.158 21.204 3.158 40.047 0 72.511-32.464 72.511-72.511s-32.464-72.511-72.511-72.511z" fill="#0ed290"/></g><g><g><path d="m83.896 152.522c14.594 0 28.169-4.327 39.545-11.745-4.664-15.06-14.131-26.871-25.916-32.09-4.146 1.946-8.754 3.066-13.628 3.066-4.875 0-9.483-1.12-13.628-3.066-11.786 5.219-21.252 17.03-25.916 32.09 11.374 7.419 24.949 11.745 39.543 11.745z" fill="#f3f0f3"/></g><g><path d="m97.524 108.688c-4.146 1.946-8.754 3.066-13.628 3.066-4.875 0-9.483-1.12-13.628-3.066-.691.306-1.373.639-2.047.99 6.629 3.446 12.44 9.013 16.958 16.064 5.185 8.093 1.631 18.892-7.377 22.245-3.099 1.153-6.298 2.101-9.58 2.827 5.048 1.116 10.292 1.709 15.676 1.709 14.594 0 28.169-4.327 39.545-11.745-4.666-15.06-14.133-26.872-25.919-32.09z" fill="#e2dee2"/></g><g><circle cx="83.896" cy="79.536" fill="#fff" r="33.717"/></g><g><path d="m83.896 45.819c-5.626 0-10.926 1.386-15.59 3.823 10.771 5.629 18.127 16.899 18.127 29.894s-7.356 24.265-18.127 29.894c4.663 2.437 9.963 3.823 15.59 3.823 18.621 0 33.717-15.095 33.717-33.717s-15.096-33.717-33.717-33.717z" fill="#f3f0f3"/></g></g></g><g><path d="m83.896 160.022c-44.118 0-80.011-35.894-80.011-80.012s35.892-80.01 80.011-80.01 80.012 35.893 80.012 80.011-35.894 80.011-80.012 80.011zm0-145.022c-35.847 0-65.011 29.164-65.011 65.011 0 35.848 29.164 65.012 65.011 65.012 35.848 0 65.012-29.164 65.012-65.012-.001-35.847-29.165-65.011-65.012-65.011z" fill="#6cf5c2"/></g><g><path d="m419.016 211.143c-49.129 0-89.099-39.97-89.099-89.1 0-49.129 39.97-89.099 89.099-89.099 49.13 0 89.1 39.97 89.1 89.099-.001 49.13-39.97 89.1-89.1 89.1zm0-163.199c-40.858 0-74.099 33.24-74.099 74.099s33.24 74.1 74.099 74.1 74.1-33.241 74.1-74.1-33.242-74.099-74.1-74.099z" fill="#fd8087"/></g></g></svg>