<svg id="Capa_1" enable-background="new 0 0 512 512" height="512" viewBox="0 0 512 512" width="512" xmlns="http://www.w3.org/2000/svg"><g><path d="m365.427 315.309c0 17.66-2.081 34.639-5.918 50.519h-145.283s-81.343-32.859-81.343-50.519c0-88.314 52.055-159.913 116.272-159.913s116.272 71.599 116.272 159.913z" fill="#ff6e42"/><g><path d="m459.366 374.502c-16.231-36.842-48.041-23.074-200.139-25.011l63.229 65.789h60.224c14.833 0 27.612 10.531 30.364 25.106 1.786 9.462 3.161 19.002 4.118 28.594 24.087 9.257 41.284-14.23 57.784-31.46-2.895-25.299-11.078-52.8-15.58-63.018z" fill="#9cda82"/><path d="m442.811 489.698c27.63-.016 65.979-4.713 58.439-25.439-4.613-12.68-22.144-11.354-26.304-26.739l-62.029 1.274c-1.479 12.476-11.762 50.929 29.894 50.904z" fill="#fff8e6"/></g><path d="m450.815 476.364-43.935-52.359c-7.829-9.331-19.386-14.72-31.567-14.72h-81.279l41.671 30.905h39.608c3.045 0 5.934 1.347 7.892 3.68l43.934 52.359c5.486 6.538 15.233 7.39 21.77 1.905 6.539-5.485 7.392-15.232 1.906-21.77z" fill="#99b2e9"/><g><path d="m335.706 400.332v39.858h-24.827c-32.319-5.622-60.903-31.813-60.903-59.7 0-12.3 9.786-24.722 26.196-31.667h8.025c28.453 0 51.509 23.066 51.509 51.509z" fill="#a4e7ff"/><path d="m310.879 440.191h-89.389l-11.466-91.367h66.148c-6.346 9.529-10.044 20.964-10.044 33.265 0 27.886 18.996 51.333 44.751 58.102z" fill="#83deff"/></g><path d="m92.201 159.678c-28.048 44.887-24.74 93.339 0 144.225h82.414v-113.32c0-17.069-13.837-30.905-30.905-30.905z" fill="#99b2e9"/><path d="m20.089 97.867c0 8.534 6.918 15.453 15.453 15.453h15.453c5.69 0 10.302 4.612 10.302 10.302v195.734h30.905v-195.734c0-22.758-18.449-41.207-41.207-41.207h-15.454c-8.534-.001-15.452 6.918-15.452 15.452z" fill="#a4e7ff"/><g><g fill="#889cb0"><path d="m207.771 406.406h-169.328c-4.268 0-7.726-3.459-7.726-7.726s3.459-7.726 7.726-7.726h169.328c4.268 0 7.726 3.459 7.726 7.726s-3.459 7.726-7.726 7.726z"/><path d="m123.107 491.07c-4.268 0-7.726-3.459-7.726-7.726v-169.328c0-4.268 3.459-7.726 7.726-7.726 4.268 0 7.726 3.459 7.726 7.726v169.328c0 4.268-3.459 7.726-7.726 7.726z"/></g><circle cx="123.107" cy="398.68" fill="#a7b6c5" r="27.353"/><path d="m123.107 285.36c-62.59 0-113.32 50.73-113.32 113.32s50.73 113.32 113.32 113.32 113.32-50.73 113.32-113.32-50.73-113.32-113.32-113.32zm0 181.312c-37.486 0-67.992-30.506-67.992-67.992s30.506-67.992 67.992-67.992 67.992 30.506 67.992 67.992-30.506 67.992-67.992 67.992z" fill="#7a8fa5"/><path d="m123.107 474.398c-41.752 0-75.718-33.967-75.718-75.718s33.967-75.718 75.718-75.718 75.718 33.967 75.718 75.718-33.967 75.718-75.718 75.718zm0-135.984c-33.23 0-60.266 27.035-60.266 60.266s27.035 60.266 60.266 60.266 60.266-27.035 60.266-60.266-27.036-60.266-60.266-60.266z" fill="#a7b6c5"/></g><g><path d="m382.434 346.182c-.01.206-.021.412-.041.618-1.339 19.172-19.81 32.378-38.385 27.454-39.013-10.333-73.441-32.564-98.825-62.954 6.164-24.8 22.056-37.934 49.304-37.447 17.08 19.573 39.786 33.882 65.406 40.661 14.135 3.74 23.561 17.081 22.541 31.668z" fill="#ffddcf"/><path d="m294.487 273.851-49.304 37.449c-10.738-12.845-19.858-27.153-27.022-42.643-8.066-17.437 1.718-37.921 20.373-42.571.197-.049.394-.098.591-.147 14.192-3.544 28.969 3.423 35.111 16.704 5.285 11.435 12.129 21.92 20.251 31.208z" fill="#ff8f71"/></g><g><g><path d="m345.883 219.726c-57.496 5.294-101.102-32.306-118.461-79.994-11.435-31.4-14.528-73.759 15.463-104.636-.01 0-.021 0-.031-.01 2.998-.773 6.047-1.432 9.148-1.978 61.924-10.92 120.541 27.928 130.915 86.752 6.739 38.22-8.529 75.471-37.034 99.866z" fill="#ffddcf"/><path d="m345.885 219.729c-15.375 13.183-34.613 22.611-56.314 26.437-61.927 10.919-120.546-27.921-130.919-86.753-9.855-55.891 27.38-109.728 84.236-124.314-8.779 28.997-8.465 61.568 2.962 92.976 17.362 47.683 56.107 80.958 100.035 91.654z" fill="#ffcbbe"/></g><g><path d="m336.648 153.547c-3.679 0-6.939-2.637-7.6-6.385l-2.147-12.174c-.741-4.202 2.064-8.21 6.267-8.951 4.198-.741 8.21 2.063 8.951 6.267l2.147 12.174c.741 4.202-2.064 8.21-6.267 8.951-.454.08-.905.118-1.351.118z" fill="#666667"/></g><g><path d="m217.991 12.504c11.913 3.096 43.89 62.733 12.618 60.703-31.864-2.068-39.696 75.662-28.156 112.872l-.101.14c-12.927 17.934-39.872 16.843-51.465-1.981-34.477-55.979-31.4-169.618 67.104-171.734z" fill="#7a8fa5"/></g><ellipse cx="199.715" cy="153.505" fill="#ffcbbe" rx="25.755" ry="32.673" transform="matrix(.985 -.174 .174 .985 -23.622 37.012)"/><path d="m370.741 93.148c-39.801 9.606-83.29 16.956-130.617 15.11-21.696-36.879-17.49-75.108 18.389-107.331 44.154-4.955 101.143 9.097 126.063 63.604 5.378 11.773-1.246 25.578-13.835 28.617z" fill="#889cb0"/><path d="m240.127 108.259c-1.611-.061-3.224-.133-4.839-.214-6.631-.348-11.87 5.535-10.718 12.068l2.819 15.989c1.812 10.277-11.058 16.427-17.919 8.547l-19.64-22.574c-32.713-50.562-35.58-80.351 30.135-110.485 10.241-5.164 23.666-8.995 38.56-10.67-19.375 30.426-26.714 69.013-18.398 107.339z" fill="#7a8fa5"/></g></g></svg>