<svg id="Capa_1" enable-background="new 0 0 512 512" height="512" viewBox="0 0 512 512" width="512" xmlns="http://www.w3.org/2000/svg"><g><g><path d="m381.02 174.704 16.187 29.081c2.039 3.664 5.486 6.336 9.542 7.399l45.744 11.984c12.016 3.148 19.326 15.307 16.47 27.395l-1.75 7.407c-.776 3.287-4.119 5.278-7.379 4.397l-74.26-20.087c-8.958-2.423-16.668-8.146-21.58-16.02l-18.327-29.374z" fill="#fff3de"/><path d="m452.494 223.168-45.744-11.984c-4.056-1.063-7.503-3.735-9.542-7.399l-16.187-29.082-19.933 12.507 9.226 16.574c2.039 3.664 5.486 6.336 9.542 7.399l45.745 11.984c12.016 3.148 19.326 15.307 16.47 27.395l-1.554 6.577 19.319 5.226c3.26.882 6.603-1.11 7.379-4.396l1.75-7.407c2.854-12.087-4.456-24.246-16.471-27.394z" fill="#ffe5c2"/><path d="m107.189 151.508-16.187 29.081c-2.039 3.664-5.486 6.336-9.542 7.399l-45.744 11.984c-12.016 3.148-19.326 15.307-16.47 27.395l1.75 7.407c.776 3.287 4.119 5.278 7.379 4.397l74.26-20.087c8.958-2.423 16.668-8.146 21.58-16.02l18.327-29.374z" fill="#ffe5c2"/><path d="m107.189 151.508-6.962 12.507 15.418 9.674-18.327 29.375c-4.912 7.874-12.622 13.597-21.58 16.02l-48.929 12.83c-3.351.879-6.768-1.175-7.565-4.547l1.75 7.407c.776 3.287 4.119 5.278 7.379 4.397l74.26-20.087c8.958-2.423 16.668-8.146 21.58-16.02l18.327-29.375z" fill="#fed2a4"/><path d="m381.02 174.704-16.204-26.784c-6.792-11.227-18.505-18.569-31.571-19.789l-9.016-.842h-48.679c-17.368 0-31.448 14.08-31.448 31.448v116.685h111.573v-84.815z" fill="#7c7676"/><path d="m364.815 147.92c-6.792-11.227-18.505-18.569-31.571-19.789l-9.016-.842h-26.894l9.016.842c13.065 1.22 24.778 8.562 31.571 19.789l16.204 26.784-25.344 15.903v84.815h26.894v-84.815l25.344-15.903z" fill="#766e6e"/><path d="m244.103 275.422h55.787v187.463h-55.787z" fill="#dc8758"/><path d="m272.995 338.87v124.015h26.894v-134.212h-16.698c-5.631 0-10.196 4.566-10.196 10.197z" fill="#d37546"/><path d="m188.316 462.885v28.513c0 7.236 5.866 13.102 13.102 13.102h63.093c4.382 0 7.175-4.677 5.095-8.533-3.041-5.636-8.261-11.753-15.069-14.825-11.122-5.018-10.435-18.257-10.435-18.257z" fill="#7c7676"/><path d="m269.607 495.967c-3.041-5.636-8.261-11.753-15.069-14.825-11.122-5.019-10.435-18.257-10.435-18.257h-26.894s-.687 13.238 10.435 18.257c6.808 3.072 12.028 9.189 15.069 14.825 2.081 3.856-.713 8.533-5.095 8.533h26.894c4.382 0 7.175-4.677 5.095-8.533z" fill="#766e6e"/><path d="m188.316 462.885v28.513c0 7.236-5.866 13.102-13.102 13.102h-63.093c-4.382 0-7.175-4.677-5.095-8.533 3.041-5.636 8.261-11.753 15.069-14.825 11.122-5.018 10.435-18.257 10.435-18.257z" fill="#7c7676"/><path d="m161.422 462.885v28.513c0 7.236-5.866 13.102-13.102 13.102h26.894c7.236 0 13.102-5.866 13.102-13.102v-28.513z" fill="#766e6e"/><path d="m299.889 275.422h55.787v187.463h-55.787z" fill="#dc8758"/><path d="m328.781 275.422h26.894v187.463h-26.894z" fill="#d37546"/><path d="m299.889 462.885v28.513c0 7.236 5.866 13.102 13.102 13.102h63.093c4.382 0 7.175-4.677 5.095-8.533-3.041-5.636-8.261-11.753-15.069-14.825-11.122-5.018-10.435-18.257-10.435-18.257z" fill="#deecf1"/><path d="m381.18 495.967c-3.041-5.636-8.261-11.753-15.069-14.825-11.122-5.019-10.435-18.257-10.435-18.257h-26.894s-.687 13.238 10.434 18.257c6.808 3.072 12.028 9.189 15.069 14.825 2.081 3.856-.713 8.533-5.095 8.533h26.894c4.382 0 7.176-4.677 5.096-8.533z" fill="#cbe5e8"/><path d="m299.889 462.885v28.513c0 7.236-5.866 13.102-13.102 13.102h-63.093c-4.382 0-7.175-4.677-5.095-8.533 3.041-5.636 8.261-11.753 15.069-14.825 11.122-5.018 10.435-18.257 10.435-18.257z" fill="#deecf1"/><path d="m272.995 462.885v28.513c0 7.236-5.866 13.102-13.102 13.102h26.894c7.236 0 13.102-5.866 13.102-13.102v-28.513z" fill="#cbe5e8"/><path d="m150.398 44.161h-3.844c-10.124 0-18.331-8.207-18.331-18.331 0-10.124 8.207-18.331 18.331-18.331h63.221c9.062 0 16.408 7.346 16.408 16.408v20.253h-75.785z" fill="#dc8758"/><path d="m209.774 7.5h-26.894c9.062 0 16.408 7.346 16.408 16.408v20.253h26.894v-20.253c.001-9.062-7.346-16.408-16.408-16.408z" fill="#d37546"/><g><path d="m150.398 44.161v22.04c0 20.927 16.965 37.893 37.893 37.893 20.927 0 37.893-16.965 37.893-37.893v-22.04l-25.51-9.063z" fill="#ffe5c2"/></g><path d="m200.673 35.098-17.841 3.216 16.457 5.847v22.04c0 16.191-10.158 30.002-24.445 35.428 4.18 1.588 8.71 2.464 13.447 2.464 20.927 0 37.893-16.965 37.893-37.893v-22.04z" fill="#fed2a4"/><path d="m209.787 104.093h-45.81l-9.014.841c-13.065 1.22-24.778 8.562-31.571 19.789l-16.204 26.784 25.341 15.901v84.817h111.574v-113.815c.001-18.952-15.363-34.317-34.316-34.317z" fill="#99e6fc"/><path d="m209.787 104.093h-26.894c18.953 0 34.317 15.364 34.317 34.317v113.816h26.894v-113.816c0-18.952-15.364-34.317-34.317-34.317z" fill="#62dbfb"/><path d="m132.53 252.226h55.787v210.659h-55.787z" fill="#62dbfb"/><path d="m161.422 315.277v147.608h26.894v-156.52h-17.982c-4.922 0-8.912 3.99-8.912 8.912z" fill="#01d0fb"/><path d="m188.316 252.226h55.787v210.659h-55.787z" fill="#62dbfb"/><path d="m217.209 252.226h26.894v210.659h-26.894z" fill="#01d0fb"/><path d="m275.55 127.29 24.339 68.154 24.339-68.154z" fill="#99e6fc"/><g><path d="m299.863 138.078c20.928 0 37.893-16.965 37.893-37.893v-10.241c0-20.927-16.965-37.893-37.893-37.893-20.927 0-37.893 16.965-37.893 37.893v10.241c0 20.928 16.965 37.893 37.893 37.893z" fill="#fff3de"/><path d="m299.863 52.051c-4.737 0-9.267.877-13.447 2.464 14.287 5.426 24.445 19.238 24.445 35.428v10.241c0 16.191-10.158 30.002-24.445 35.428 4.18 1.588 8.71 2.464 13.447 2.464 20.927 0 37.893-16.965 37.893-37.893v-10.239c-.001-20.928-16.966-37.893-37.893-37.893z" fill="#ffe5c2"/><path d="m266.037 104.989h.104c7.138 0 12.924-5.786 12.924-12.924v-33.771h-.104c-14.275 0-25.848 11.572-25.848 25.848v7.924c.001 7.137 5.787 12.923 12.924 12.923z" fill="#deecf1"/><path d="m333.741 104.989h-.104c-7.138 0-12.924-5.786-12.924-12.924v-33.771h.104c14.275 0 25.848 11.572 25.848 25.848v7.924c0 7.137-5.786 12.923-12.924 12.923z" fill="#cbe5e8"/></g></g><path d="m474.974 257.722 1.284-5.436c3.827-16.178-5.777-32.154-21.867-36.371l-45.747-11.992c-2.063-.538-3.843-1.918-4.881-3.78l-16.189-29.09c-.023-.042-.051-.079-.075-.12-.022-.038-.039-.077-.062-.114l-16.202-26.783c-6.942-11.466-18.375-19.557-31.328-22.428 1.997-3.736 3.495-7.792 4.389-12.09 5.903-3.584 9.869-10.055 9.869-17.452v-7.924c0-17.662-13.805-32.154-31.19-33.27-6.99-4.138-14.933-6.322-23.115-6.322-8.187 0-16.127 2.184-23.105 6.325-17.363 1.14-31.142 15.621-31.142 33.267v7.924c0 7.374 3.942 13.828 9.815 17.419.99 4.781 2.724 9.265 5.065 13.34-3.646 1.538-7.002 3.618-9.981 6.131-3.485-15.015-15.073-26.952-29.894-30.931 8.071-8.198 13.063-19.437 13.063-31.823v-42.294c.001-13.182-10.724-23.908-23.907-23.908h-63.221c-14.243 0-25.831 11.588-25.831 25.831 0 13.002 9.657 23.785 22.174 25.567v14.803c0 12.061 4.737 23.029 12.437 31.167-14.75.944-30.432 10.026-38.359 23.474l-32.527 56.097c-1.044 1.874-2.825 3.257-4.889 3.796l-45.753 11.98c-16.076 4.218-25.681 20.195-21.866 36.382l1.751 7.402c.85 3.584 3.059 6.595 6.221 8.479 2.117 1.262 4.474 1.906 6.869 1.906 1.181 0 2.372-.157 3.546-.475l74.257-20.089c7.884-2.129 14.913-6.348 20.444-12.151v213.651c0 4.143 3.358 7.5 7.5 7.5s7.5-3.357 7.5-7.5v-168.093h96.57l.003 195.653h-40.787v-149.93c0-4.143-3.358-7.5-7.5-7.5s-7.5 3.357-7.5 7.5v149.935h-48.283c-2.057 0-4.025.809-5.441 2.3-1.163 1.225-1.862 2.775-2.019 4.427-.042 1.451.296 8.567-6.059 12.195-7.408 3.343-14.182 9.94-18.584 18.1-2.243 4.156-2.138 9.06.283 13.115 2.42 4.058 6.687 6.479 11.412 6.479h63.093c4.973 0 9.54-1.771 13.103-4.716 3.563 2.944 8.13 4.716 13.102 4.716h85.367c4.973 0 9.539-1.771 13.102-4.715 3.563 2.944 8.13 4.715 13.102 4.715h63.094c4.726 0 8.992-2.423 11.413-6.48 2.42-4.056 2.525-8.959.282-13.114-4.403-8.16-11.178-14.757-18.585-18.1-6.217-2.806-6.037-10.767-6.029-11.032.003-.066-.001-.132 0-.198.002-.064.01-.126.01-.191l.004-225.521c5.536 5.808 12.564 10.029 20.441 12.156l74.265 20.092c1.207.302.229.117 2.755.464 13.925 0 25.253 11.328 25.253 25.253v209.17c0 4.143 3.357 7.5 7.5 7.5s7.5-3.357 7.5-7.5v-209.172c-.001-17.147-10.783-31.816-25.92-37.606zm-175.084 62.528c-4.143 0-7.5 3.357-7.5 7.5v127.635h-40.787v-172.463h48.287 48.286v172.463h-40.786v-127.635c0-4.143-3.358-7.5-7.5-7.5zm.001-147.106-10.26-28.725c3.293.757 6.717 1.161 10.229 1.161 3.536 0 6.982-.409 10.296-1.176zm28.322-105.793c6.444 2.85 10.952 9.304 10.952 16.791v7.924c0 2.99-2.434 5.424-5.424 5.424h-.104c-2.99 0-5.424-2.434-5.424-5.424zm-15-4.703v29.418c0 9.311 6.269 17.169 14.803 19.619-4.549 11.184-15.513 18.896-28.155 18.896-12.636 0-23.593-7.706-28.142-18.884 8.556-2.435 14.847-10.304 14.847-19.63v-29.446c4.115-2.009 8.642-3.071 13.295-3.071 4.669 0 9.214 1.073 13.352 3.098zm-52.599 21.494c0-7.487 4.507-13.941 10.951-16.791v24.715c0 2.99-2.434 5.424-5.424 5.424h-.104c-2.991 0-5.424-2.434-5.424-5.424v-7.924zm9.842 51.189 21.933 61.41v13.854c0 4.143 3.357 7.5 7.5 7.5s7.5-3.357 7.5-7.5v-13.855l21.947-61.439c10.888.123 23.132 6.453 29.067 16.502l12.382 20.469-19.094 11.988c-1.708 1.191-3.539 3.217-3.512 6.352v77.31h-40.79v-22.101c0-4.143-3.357-7.5-7.5-7.5s-7.5 3.357-7.5 7.5v22.101h-40.787l.001-109.36c.086-11.293 8.097-20.891 18.853-23.231zm-112.559-84.901 42.144-7.598 18.642 6.624v16.745c0 16.759-13.634 30.393-30.393 30.393s-30.393-13.634-30.393-30.393zm-22.174-24.599c0-5.973 4.858-10.831 10.831-10.831h63.221c4.912 0 8.908 3.996 8.908 8.908v9.629l-15.499-5.507c-1.23-.437-2.555-.548-3.841-.313l-49.615 8.944h-3.174c-5.973 0-10.831-4.858-10.831-10.83zm-5.913 102.775c6.442-11.742 21.269-16.969 34.518-17.013h16.462v39.914c0 4.143 3.358 7.5 7.5 7.5s7.5-3.357 7.5-7.5v-39.914h13.998c14.787 0 26.817 12.03 26.817 26.816l-.005 106.317h-96.57v-77.316c-.053-2.009-.921-4.795-3.514-6.353l-19.091-11.979zm-11.966 70.488c-3.917 6.287-10.015 10.813-17.173 12.746l-72.743 19.68-1.389-5.87c-1.932-8.196 2.932-16.289 11.07-18.424l45.746-11.979c5.996-1.566 11.17-5.578 14.197-11.009l12.346-22.175 15.131 9.495v16.023zm62.972 292.303c0 3.089-2.513 5.603-5.602 5.603h-60.062c2.741-4.086 6.354-7.364 10.027-9.022 8.531-3.849 12.501-11.17 14.044-17.593h41.592v21.012zm15.004.003v-21.016h39.01c-.895 1.558-2.23 3.011-4.246 3.921-7.696 3.898-17.451 11.962-20.065 22.694h-9.099c-3.088.001-5.6-2.511-5.6-5.599zm90.967 5.6h-60.062c2.741-4.086 6.354-7.364 10.028-9.022 8.53-3.849 12.5-11.17 14.044-17.593h41.592v21.013c.001 3.088-2.513 5.602-5.602 5.602zm86.267 0h-60.062c-3.089 0-5.602-2.514-5.602-5.603v-21.013h41.592c1.543 6.423 5.514 13.744 14.044 17.593 3.672 1.659 7.286 4.937 10.028 9.023zm-2.692-274.712-7.183-11.507v-16.023l15.133-9.5 12.347 22.185c3.021 5.421 8.196 9.429 14.189 10.993l45.74 11.99c8.146 2.135 13.01 10.221 11.072 18.411l-1.39 5.882-72.736-19.678c-7.147-1.932-13.246-6.46-17.172-12.753z"/></g></svg>