<svg clip-rule="evenodd" fill-rule="evenodd" height="512" image-rendering="optimizeQuality" shape-rendering="geometricPrecision" text-rendering="geometricPrecision" viewBox="0 0 7111 7111" width="512" xmlns="http://www.w3.org/2000/svg"><g id="Layer_x0020_1"><g id="_524426760"><path d="m3169 3222c-33 0-66-13-91-38-602-602-1224-1224-1224-1871 0-398 324-722 722-722 286 0 459 121 593 316 135-195 307-316 593-316 399 0 723 324 723 722 0 647-623 1269-1224 1871-25 25-59 38-92 38z" fill="#ef5350"/><g><path d="m3291 5022c-5 0-9 0-13 0h-1l-1316-34c-71-2-128-61-126-133 1-30 12-58 30-79-216-224-634-627-846-830-50 35-120 30-165-15-50-50-50-132 0-183l132-131c200-200 463-310 741-310 309 0 733 57 1108 107 171 23 333 45 474 60 122 8 229 65 304 155l987-932c84-94 204-145 339-145 189 0 365 124 438 309 71 178 28 370-111 502l-1447 1446c-141 142-319 213-528 213z" fill="#ffc39c"/><path d="m3535 3556c29 21 55 46 78 73l78-73v173c0 136-82 272-210 324-45 19-95 25-143 19l-1146-151c-43-5-73-45-67-87 5-42 44-72 87-67l1146 151c101 13 177-96 177-189z" fill="#ff9e7e"/><path d="m1426 5790c-35 0-68-14-92-38l-1296-1296c-51-51-51-132 0-183l336-336 334-334c51-51 133-51 183 0l1297 1296c50 50 50 132 0 183l-671 670c-24 24-57 38-91 38z" fill="#5c9cee"/><path d="m319 3992 55-55 54-54 740 739c30 31 30 80 0 110-31 31-80 31-110 0z" fill="#4b7ec1"/><path d="m1459 5279 289-289c15-15 39-15 55 0 15 15 15 40 0 55l-289 289c-15 15-40 15-55 0s-15-40 0-55z" fill="#4b7ec1"/><circle cx="1631" cy="5162" fill="#538cd6" r="172"/><circle cx="1631" cy="5162" fill="#f5f5f5" r="74"/></g><g><path d="m5212 6297c3-3 5-6 8-9 1 0 1 0 1-1l906-955c50-51 48-133-4-182-22-21-50-33-78-35-5-312 6-892 12-1185 60-11 106-64 106-127 0-72-58-130-129-130h-187c-282 0-546 108-743 305-218 219-478 559-708 859-104 138-203 267-292 378-81 92-116 208-105 325l-1358 38c-125-6-246 42-341 138-134 133-171 346-92 528 76 176 242 281 433 276h2046c200 0 377-75 525-223z" fill="#ffc39c"/><path d="m4002 5433c-6 35-7 71-3 107l-107 3 122 122c96 96 250 135 377 81 46-19 85-49 115-88l704-917c26-34 20-83-14-109s-83-19-109 15l-704 916c-62 82-193 58-259-7z" fill="#ff9e7e"/><path d="m7073 5521c24-24 38-57 38-92v-1833c0-71-58-129-129-129h-475-473c-72 0-130 58-130 129v1833c0 72 58 130 130 130h948c34 0 67-14 91-38z" fill="#5c9cee"/><path d="m6585 3467h-78-77v1046c0 43 35 78 78 78 42 0 77-35 77-78z" fill="#4b7ec1"/><path d="m6688 5183h-408c-22 0-39 17-39 39 0 21 17 39 39 39h408c21 0 39-18 39-39 0-22-18-39-39-39z" fill="#4b7ec1"/><circle fill="#538cd6" r="224" transform="matrix(-.543 .543 .543 .543 6483.9 5221.8)"/><circle fill="#f5f5f5" r="224" transform="matrix(-.234 .234 .234 .234 6483.9 5221.8)"/></g></g></g></svg>