<?xml version="1.0" encoding="UTF-8" standalone="no"?>
<!-- Created with Inkscape (http://www.inkscape.org/) -->

<svg
   version="1.1"
   id="svg3003"
   xml:space="preserve"
   width="682.66669"
   height="682.66669"
   viewBox="0 0 682.66669 682.66669"
   xmlns="http://www.w3.org/2000/svg"
   xmlns:svg="http://www.w3.org/2000/svg"><defs
     id="defs3007"><clipPath
       clipPathUnits="userSpaceOnUse"
       id="clipPath3017"><path
         d="M 0,512 H 512 V 0 H 0 Z"
         id="path3015" /></clipPath></defs><g
     id="g3009"
     transform="matrix(1.3333333,0,0,-1.3333333,0,682.66667)"><g
       id="g3011"><g
         id="g3013"
         clip-path="url(#clipPath3017)"><g
           id="g3019"
           transform="translate(122.2822,61.9131)"><path
             d="m 0,0 c 0,87.43 55.518,121.023 55.518,121.023 l 156.4,10 c 0,0 55.518,-43.593 55.518,-131.023 z"
             style="fill:#ffb4bf;fill-opacity:1;fill-rule:nonzero;stroke:none"
             id="path3021" /></g><g
           id="g3023"
           transform="translate(369.5732,488.9521)"><path
             d="m 0,0 c 20.441,20.441 53.583,20.441 74.024,0 20.441,-20.441 20.441,-53.583 0,-74.024 C 53.583,-94.465 13.543,-101.363 -6.897,-80.922 -27.339,-60.48 -20.441,-20.441 0,0"
             style="fill:#4c5698;fill-opacity:1;fill-rule:nonzero;stroke:none"
             id="path3025" /></g><g
           id="g3027"
           transform="translate(65.4658,313.8022)"><path
             d="M 0,0 C 0,105.061 85.474,190.534 190.534,190.534 295.595,190.534 381.068,105.061 381.068,0 Z"
             style="fill:#696eb1;fill-opacity:1;fill-rule:nonzero;stroke:none"
             id="path3029" /></g><g
           id="g3031"
           transform="translate(153.207,474.1523)"><path
             d="m 0,0 c -2.941,5.534 -6.567,10.587 -10.78,14.8 -20.442,20.441 -53.583,20.441 -74.025,0 -20.44,-20.441 -20.44,-53.583 0,-74.024 5.217,-5.216 11.714,-9.544 18.831,-12.767 -13.892,-26.426 -21.767,-56.488 -21.767,-88.359 h 67.642 C -19.107,-83.329 18.128,-15.053 75.348,28.2 47.92,24.225 22.365,14.385 0,0"
             style="fill:#4c5698;fill-opacity:1;fill-rule:nonzero;stroke:none"
             id="path3033" /></g><g
           id="g3035"
           transform="translate(374.7324,296.2432)"><path
             d="m 0,0 c 0,-21.876 17.734,-39.611 39.611,-39.611 21.876,0 39.611,17.735 39.611,39.611 0,21.877 -17.735,39.611 -39.611,39.611 C 17.734,39.611 0,21.877 0,0"
             style="fill:#c7856a;fill-opacity:1;fill-rule:nonzero;stroke:none"
             id="path3037" /></g><g
           id="g3039"
           transform="translate(334.2002,192.936)"><path
             d="m 0,0 -156.4,-10 c 0,0 -7.997,-4.844 -17.92,-15.626 28.289,-16.216 61.285,-24.9 95.929,-24.901 h 0.022 c 0.591,0 1.179,0.003 1.771,0.007 36.788,0.32 70.329,10.018 98.216,26.796 C 10.062,-7.906 0,0 0,0"
             style="fill:#ff8d9d;fill-opacity:1;fill-rule:nonzero;stroke:none"
             id="path3041" /></g><g
           id="g3043"
           transform="translate(396.1006,383.3672)"><path
             d="m 0,0 c -3.325,6.683 -11.869,8.792 -17.851,4.326 -8.386,-6.263 -18.789,-9.972 -30.063,-9.972 -14.805,0 -28.112,6.394 -37.321,16.568 -4.661,5.15 -12.884,5.15 -17.544,0 -9.209,-10.174 -22.516,-16.568 -37.322,-16.568 -14.805,0 -28.112,6.394 -37.321,16.568 -4.66,5.15 -12.884,5.15 -17.544,0 -9.209,-10.174 -22.515,-16.568 -37.321,-16.568 -11.274,0 -21.677,3.709 -30.064,9.972 -5.936,4.432 -14.483,2.426 -17.79,-4.204 -10.463,-20.983 -16.352,-44.645 -16.352,-69.685 0,-86.31 71.472,-147.137 157.778,-146.388 85.736,0.744 155.007,60.475 155.007,146.386 C 16.292,-44.573 10.426,-20.953 0,0"
             style="fill:#da9d81;fill-opacity:1;fill-rule:nonzero;stroke:none"
             id="path3045" /></g><g
           id="g3047"
           transform="translate(162.7109,195.0034)"><path
             d="m 0,0 c -18.887,34.307 -29.643,73.72 -29.643,115.65 0,24.794 3.76,48.709 10.736,71.21 -3.587,1.557 -6.958,3.518 -10.054,5.829 -5.936,4.433 -14.483,2.427 -17.79,-4.204 -7.358,-14.757 -12.443,-30.844 -14.819,-47.799 -1.133,0.103 -2.29,0.165 -3.484,0.165 -21.877,0 -39.611,-17.734 -39.611,-39.611 0,-21.877 17.734,-39.611 39.611,-39.611 4.649,0 8.834,0.808 12.552,2.279 C -41.739,37.636 -23.357,15.762 0,0"
             style="fill:#c7856a;fill-opacity:1;fill-rule:nonzero;stroke:none"
             id="path3049" /></g><g
           id="g3051"
           transform="translate(199.0391,249.4341)"><path
             d="m 0,0 c 0,-14.649 -14.911,-26.524 -33.307,-26.524 -18.394,0 -33.306,11.875 -33.306,26.524 0,14.648 14.912,26.524 33.306,26.524 C -14.911,26.524 0,14.648 0,0"
             style="fill:#eeedff;fill-opacity:1;fill-rule:nonzero;stroke:none"
             id="path3053" /></g><g
           id="g3055"
           transform="translate(312.9609,249.4341)"><path
             d="m 0,0 c 0,-14.649 14.912,-26.524 33.307,-26.524 18.394,0 33.306,11.875 33.306,26.524 0,14.648 -14.912,26.524 -33.306,26.524 C 14.912,26.524 0,14.648 0,0"
             style="fill:#eeedff;fill-opacity:1;fill-rule:nonzero;stroke:none"
             id="path3057" /></g><path
           d="M 504.5,7.664 H 7.5 V 73.31 h 497 z"
           style="fill:#71dbba;fill-opacity:1;fill-rule:nonzero;stroke:none"
           id="path3059" /><g
           id="g3061"
           transform="translate(145.7783,206.3599)"><path
             d="m 0,0 v 0 c -25.499,0 -46.171,-20.671 -46.171,-46.17 0,-15.334 12.431,-27.766 27.766,-27.766 h 36.81 c 15.334,0 27.766,12.432 27.766,27.766 C 46.171,-20.671 25.499,0 0,0"
             style="fill:#c7856a;fill-opacity:1;fill-rule:nonzero;stroke:none"
             id="path3063" /></g><g
           id="g3065"
           transform="translate(316.3828,61.9131)"><path
             d="m 0,0 h -120.766 l -18.447,35.256 18.447,35.255 H 0 L 18.323,35.256 Z"
             style="fill:#fce29f;fill-opacity:1;fill-rule:nonzero;stroke:none"
             id="path3067" /></g><g
           id="g3069"
           transform="translate(98.542,132.4243)"><path
             d="M 0,0 C -13.084,0 -23.691,-10.607 -23.691,-23.691 V -46.82 c 0,-13.084 10.607,-23.691 23.691,-23.691 H 97.075 V 0 Z"
             style="fill:#ff8d9d;fill-opacity:1;fill-rule:nonzero;stroke:none"
             id="path3071" /></g><g
           id="g3073"
           transform="translate(413.458,132.4243)"><path
             d="M 0,0 H -97.075 V -70.511 H 0 c 13.084,0 23.691,10.607 23.691,23.691 v 23.129 C 23.691,-10.607 13.084,0 0,0"
             style="fill:#c8a9f1;fill-opacity:1;fill-rule:nonzero;stroke:none"
             id="path3075" /></g><g
           id="g3077"
           transform="translate(108.6611,114.98)"><path
             d="m 0,0 c 0,6.003 0.712,11.837 2.015,17.444 h -12.134 c -13.084,0 -23.692,-10.607 -23.692,-23.691 v -23.129 c 0,-13.084 10.608,-23.691 23.692,-23.691 H 21.324 C 8.125,-39.279 0,-20.594 0,0"
             style="fill:#e95b70;fill-opacity:1;fill-rule:nonzero;stroke:none"
             id="path3079" /></g><g
           id="g3081"
           transform="translate(250.751,61.9131)"><path
             d="m 0,0 c -13.199,13.788 -21.323,32.473 -21.323,53.067 0,6.003 0.711,11.837 2.014,17.444 H -31.443 -55.134 V 0 Z"
             style="fill:#ffcd71;fill-opacity:1;fill-rule:nonzero;stroke:none"
             id="path3083" /></g><g
           id="g3085"
           transform="translate(371.5176,61.9131)"><path
             d="m 0,0 c -13.199,13.788 -21.324,32.473 -21.324,53.067 0,6.003 0.712,11.837 2.014,17.444 h -12.133 -23.692 l 0,-70.511 z"
             style="fill:#b18ae3;fill-opacity:1;fill-rule:nonzero;stroke:none"
             id="path3087" /></g><g
           id="g3089"
           transform="translate(185.1436,288.5825)"><path
             d="M 0,0 V -13.616"
             style="fill:none;stroke:#000000;stroke-width:15;stroke-linecap:round;stroke-linejoin:round;stroke-miterlimit:10;stroke-dasharray:none;stroke-opacity:1"
             id="path3091" /></g><g
           id="g3093"
           transform="translate(326.8564,288.5825)"><path
             d="M 0,0 V -13.616"
             style="fill:none;stroke:#000000;stroke-width:15;stroke-linecap:round;stroke-linejoin:round;stroke-miterlimit:10;stroke-dasharray:none;stroke-opacity:1"
             id="path3095" /></g><g
           id="g3097"
           transform="translate(237.3193,275.3721)"><path
             d="m 0,0 c 4.542,-5.212 11.224,-8.51 18.681,-8.51 7.457,0 14.138,3.298 18.68,8.51"
             style="fill:none;stroke:#000000;stroke-width:15;stroke-linecap:round;stroke-linejoin:round;stroke-miterlimit:10;stroke-dasharray:none;stroke-opacity:1"
             id="path3099" /></g><g
           id="g3101"
           transform="translate(98.542,132.4243)"><path
             d="M 0,0 C -13.084,0 -23.691,-10.607 -23.691,-23.691 V -46.82 c 0,-13.084 10.607,-23.691 23.691,-23.691 H 97.075 V 0 Z"
             style="fill:none;stroke:#000000;stroke-width:15;stroke-linecap:round;stroke-linejoin:round;stroke-miterlimit:10;stroke-dasharray:none;stroke-opacity:1"
             id="path3103" /></g><g
           id="g3105"
           transform="translate(413.458,132.4243)"><path
             d="M 0,0 H -97.075 V -70.511 H 0 c 13.084,0 23.691,10.607 23.691,23.691 v 23.129 C 23.691,-10.607 13.084,0 0,0 Z"
             style="fill:none;stroke:#000000;stroke-width:15;stroke-linecap:round;stroke-linejoin:round;stroke-miterlimit:10;stroke-dasharray:none;stroke-opacity:1"
             id="path3107" /></g><path
           d="M 316.383,61.913 H 195.617 v 70.511 h 120.766 z"
           style="fill:none;stroke:#000000;stroke-width:15;stroke-linecap:round;stroke-linejoin:round;stroke-miterlimit:10;stroke-dasharray:none;stroke-opacity:1"
           id="path3109" /><g
           id="g3111"
           transform="translate(87.2402,402.1582)"><path
             d="m 0,0 c 15.41,29.318 38.234,54.149 65.967,71.992 -2.942,5.535 -6.568,10.589 -10.78,14.802 -20.441,20.441 -53.583,20.441 -74.025,0 -20.441,-20.441 -20.441,-53.583 0,-74.024 C -13.619,7.552 -7.121,3.224 0,0 Z"
             style="fill:none;stroke:#000000;stroke-width:15;stroke-linecap:round;stroke-linejoin:round;stroke-miterlimit:10;stroke-dasharray:none;stroke-opacity:1"
             id="path3113" /></g><g
           id="g3115"
           transform="translate(393.2539,502.5508)"><path
             d="m 0,0 c -8.675,-2.275 -16.882,-6.8 -23.681,-13.599 -4.213,-4.213 -7.839,-9.266 -10.78,-14.801 27.732,-17.843 50.557,-42.674 65.967,-71.993 7.121,3.224 13.619,7.552 18.838,12.77 20.441,20.441 20.441,53.583 0,74.024 -5.928,5.928 -12.928,10.125 -20.372,12.615"
             style="fill:none;stroke:#000000;stroke-width:15;stroke-linecap:round;stroke-linejoin:round;stroke-miterlimit:10;stroke-dasharray:none;stroke-opacity:1"
             id="path3117" /></g><g
           id="g3119"
           transform="translate(97.6563,335.8545)"><path
             d="m 0,0 c 1.176,0 2.336,-0.062 3.484,-0.162 2.377,16.954 7.461,33.04 14.821,47.796 3.306,6.631 11.852,8.637 17.789,4.204 8.386,-6.263 18.789,-9.972 30.063,-9.972 14.806,0 28.113,6.394 37.322,16.57 4.66,5.149 12.882,5.149 17.543,0 9.209,-10.176 22.517,-16.57 37.322,-16.57 14.804,0 28.112,6.394 37.321,16.57 4.661,5.149 12.884,5.149 17.544,0 9.209,-10.176 22.516,-16.57 37.322,-16.57 11.274,0 21.676,3.71 30.063,9.973 5.981,4.466 14.525,2.356 17.849,-4.326 7.327,-14.723 12.39,-30.767 14.76,-47.675 1.149,0.1 2.309,0.162 3.484,0.162 13.211,0 24.905,-6.475 32.101,-16.416 C 345.796,86.048 261.52,168.482 158.344,168.482 55.168,168.482 -29.108,86.047 -32.101,-16.417 -24.904,-6.475 -13.211,0 0,0 Z"
             style="fill:none;stroke:#000000;stroke-width:15;stroke-linecap:round;stroke-linejoin:round;stroke-miterlimit:10;stroke-dasharray:none;stroke-opacity:1"
             id="path3121" /></g><g
           id="g3123"
           transform="translate(99.6074,313.8037)"><path
             d="m 0,0 c 0,7.43 0.531,14.735 1.533,21.889 -1.148,0.1 -2.308,0.162 -3.484,0.162 -21.876,0 -39.611,-17.735 -39.611,-39.612 0,-21.877 17.735,-39.611 39.611,-39.611 4.418,0 8.661,0.734 12.629,2.068 C 3.795,-38.378 0,-19.866 0,0 Z"
             style="fill:none;stroke:#000000;stroke-width:15;stroke-linecap:round;stroke-linejoin:round;stroke-miterlimit:10;stroke-dasharray:none;stroke-opacity:1"
             id="path3125" /></g><g
           id="g3127"
           transform="translate(414.3437,335.8545)"><path
             d="m 0,0 c -1.176,0 -2.336,-0.062 -3.484,-0.162 1.002,-7.153 1.533,-14.46 1.533,-21.891 0,-19.929 -3.735,-38.448 -10.531,-55.151 3.925,-1.303 8.119,-2.019 12.482,-2.019 21.877,0 39.611,17.735 39.611,39.612 C 39.611,-17.734 21.877,0 0,0 Z"
             style="fill:none;stroke:#000000;stroke-width:15;stroke-linecap:round;stroke-linejoin:round;stroke-miterlimit:10;stroke-dasharray:none;stroke-opacity:1"
             id="path3129" /></g><g
           id="g3131"
           transform="translate(339.1445,188.5088)"><path
             d="m 0,0 c -23.723,-13.326 -51.728,-20.832 -81.759,-21.093 -25.363,-0.22 -49.442,4.884 -70.805,14.383 3.421,-6.448 5.369,-13.8 5.369,-21.609 0,-15.334 -12.432,-27.765 -27.766,-27.765 h 31.434 120.765 59.897 C 25.148,-26.639 8.262,-7.952 0,0 Z"
             style="fill:none;stroke:#000000;stroke-width:15;stroke-linecap:round;stroke-linejoin:round;stroke-miterlimit:10;stroke-dasharray:none;stroke-opacity:1"
             id="path3133" /></g><g
           id="g3135"
           transform="translate(396.0996,383.3672)"><path
             d="m 0,0 c -3.324,6.683 -11.868,8.792 -17.85,4.326 -8.386,-6.263 -18.789,-9.972 -30.062,-9.972 -14.807,0 -28.113,6.393 -37.322,16.569 -4.661,5.149 -12.883,5.149 -17.544,0 -9.209,-10.176 -22.517,-16.569 -37.322,-16.569 -14.804,0 -28.112,6.393 -37.321,16.569 -4.661,5.149 -12.884,5.149 -17.544,0 -9.209,-10.176 -22.515,-16.569 -37.321,-16.569 -11.275,0 -21.677,3.709 -30.064,9.971 -5.936,4.434 -14.482,2.427 -17.789,-4.204 -10.465,-20.982 -16.353,-44.644 -16.353,-69.684 0,-44.089 18.656,-81.522 48.406,-107.5 16.742,-0.799 31.143,-10.517 38.566,-24.505 21.364,-9.499 45.443,-14.604 70.806,-14.383 85.735,0.744 155.007,60.475 155.007,146.386 C 16.293,-44.573 10.427,-20.953 0,0 Z"
             style="fill:none;stroke:#000000;stroke-width:15;stroke-linecap:round;stroke-linejoin:round;stroke-miterlimit:10;stroke-dasharray:none;stroke-opacity:1"
             id="path3137" /></g><g
           id="g3139"
           transform="translate(145.7783,206.3604)"><path
             d="m 0,0 v 0 c -25.499,0 -46.171,-20.672 -46.171,-46.171 0,-15.334 12.432,-27.765 27.766,-27.765 h 36.81 c 15.334,0 27.766,12.431 27.766,27.765 C 46.171,-20.672 25.499,0 0,0 Z"
             style="fill:none;stroke:#000000;stroke-width:15;stroke-linecap:round;stroke-linejoin:round;stroke-miterlimit:10;stroke-dasharray:none;stroke-opacity:1"
             id="path3141" /></g><g
           id="g3143"
           transform="translate(137.127,7.6631)"><path
             d="M 0,0 H 367.373 V 65.646 H 296.586 C 292.43,58.813 284.914,54.25 276.331,54.25 H -38.585 c -8.583,0 -16.099,4.563 -20.255,11.396 h -70.787 V 0 H -30"
             style="fill:none;stroke:#000000;stroke-width:15;stroke-linecap:round;stroke-linejoin:round;stroke-miterlimit:10;stroke-dasharray:none;stroke-opacity:1"
             id="path3145" /></g></g></g></g></svg>
