<svg id="Capa_1" enable-background="new 0 0 512 512" height="512" viewBox="0 0 512 512" width="512" xmlns="http://www.w3.org/2000/svg"><g><path d="m178.339 384.039v52.334c0 1.504-.165 2.914-.474 4.222 0 0-36.805 14.767-38.298-56.556z" fill="#ffddcf"/><path d="m177.865 440.595c-4.418 18.763-38.298 17.363-38.298-4.222l-11.194-23.221 11.142-28.988c5.974 22.201 17.549 42.756 38.35 56.431z" fill="#ffcbbe"/><path d="m100.798 434.435v-50.399h38.768v50.399c0 25.646-38.768 25.646-38.768 0z" fill="#ffbbae"/><path d="m4.818 201.937c-6.425 6.519-6.425 17.089 0 23.608 10.987 11.147 12.279 30.511 3.309 43.337-18.418 26.336 22.025 53.125 55.049 53.125h65.61c5.129 0 9.287-4.158 9.287-9.287 0-151.133 3.333-152.615-8.122-154.064l-90.225-11.412c-12.854-1.626-24.219 8.393-24.219 21.349 0 35.289 1.621 20.858-10.689 33.344z" fill="#e4996d"/><path d="m268.464 265.758c24.233 24.717-15.498 56.247-52.122 56.247h-78.272v-162.83l101.399-12.52c12.833-1.585 24.156 8.426 24.156 21.357 0 36.181-1.624 21.326 10.721 33.931 6.382 6.519 6.382 17.084 0 23.603l-5.882 6.003c-9.248 9.443-9.248 24.756 0 34.209z" fill="#e4996d"/><path d="m346.945 322.149c-8.433 23.271-10.814 61.887 13.939 61.887h50.058l.002-61.887z" fill="#ffcbbe"/><path d="m410.943 322.149-.002 61.887h50.066c24.752 0 22.37-38.615 13.939-61.887z" fill="#ffddcf"/><path d="m471.56 328.06c-21.976 9.824-21.842 3.347-21.842 32.716l-8.908 5.273h-29.987l.124-5.273c-36.434-29.112-1.195-77.491-1.195-77.491.618-.021 1.225-.021 1.843-.021 8.032.021 16.415 1.174 24.921 3.81-3.295 0 21.45 3.336 38.689 26.856 3.533 4.821 1.772 11.71-3.645 14.13z" fill="#83deff"/><path d="m413.285 360.777-.741 5.273h-30.482l-9.886-5.273c0-27.763 1.936-22.089-21.852-32.716-18.485-8.269 14.716-43.92 59.429-44.775-1.473 15.364-3.038 46.288 3.532 77.491z" fill="#5ad6ff"/><path d="m495.565 185.61h-77.152c-94.73-68.398-17.486-114.1-17.486-114.1 5.777-.567 9.701-.505 10.02-.484 95.08 0 122.524 114.584 84.618 114.584z" fill="#7888af"/><path d="m418.413 185.61h-92.083c-9.083 0-16.178-8.321-16.178-18.217 0-32.943 17.002-52.468 16.446-53.003-20.081-19.195-.68-44.806 22.81-29.977-2.729-27.392 29.864-36.486 37.628-10.648 5.128-1.195 9.937-1.875 13.892-2.255-14.758 22.738-35.291 71.024 17.485 114.1z" fill="#687daa"/><path d="m511.743 203.734c0 52.035-44.373 94.297-99.405 95.008-9.062.114-17.857-.937-26.249-2.986 0 0-119.568-58.595-22.037-152.615 10.72 10.731 32.263 31.862 81.013 36.506 4.644.453 8.444-3.46 7.538-7.785l-3.697-17.712c-.752-3.604 3.46-6.056 5.983-3.46 8.872 9.172 24.632 21.674 48.807 28.343 3.178.877 5.564 3.496 6.25 6.72.85 3.995 1.797 10.088 1.797 17.981z" fill="#ffddcf"/><path d="m386.088 295.756c-49.796-12.191-85.038-59.903-73.915-111.039.578-2.655 2.393-4.865 4.842-6.042 7.884-3.788 26.243-14.842 36.419-39.26 2.07-4.964 4.686-2.204 10.617 3.727-17.301 39.739-30.163 101.742 22.037 152.614z" fill="#ffcbbe"/><path d="m449.719 360.777v69.778s-44.631-17.486-38.771-69.778z" fill="#c7aee4"/><path d="m449.719 429.124v1.431c0 6.056-1.493 10.926-3.913 14.592-9.834 15.014-34.858 10.154-34.858-14.592l-8.969-23.335 8.969-46.443h2.338c5.323 25.322 16.002 50.83 36.433 68.347z" fill="#bd9cde"/><g fill="#334151"><path d="m350.24 214.454c-4.265 0-7.723-3.457-7.723-7.723v-12.357c0-4.266 3.458-7.723 7.723-7.723s7.723 3.457 7.723 7.723v12.357c.001 4.266-3.457 7.723-7.723 7.723z"/><path d="m478.858 214.454c-4.265 0-7.723-3.457-7.723-7.723v-12.357c0-4.266 3.458-7.723 7.723-7.723s7.723 3.457 7.723 7.723v12.357c0 4.266-3.458 7.723-7.723 7.723z"/><path d="m414.549 221.811c-8.73 0-17.032-3.781-22.777-10.373-2.802-3.216-2.467-8.094.748-10.897 3.216-2.802 8.094-2.467 10.897.748 2.852 3.273 6.806 5.076 11.132 5.076s8.28-1.802 11.132-5.076c2.803-3.216 7.681-3.551 10.897-.748s3.55 7.681.748 10.897c-5.745 6.591-14.047 10.373-22.777 10.373z"/></g><path d="m193.044 397.488c-14.788 5.623-30.029 8.568-44.93 9.371-44.013-37.557-12.625-88.881-12.625-88.881h59.316c8.609 63.024 12.636 74.053-1.761 79.51z" fill="#ffb3c2"/><path d="m148.115 406.86c-22.346 1.184-43.91-2.482-62.024-9.361-14.396-5.468-10.38-16.455-1.771-79.52h50.47c-.113 1.328-.206 2.678-.299 4.037-1.699 26.65.267 58.635 13.624 84.844z" fill="#ff9eb1"/><path d="m188.565 371.599c-1.112-5.468-2.595-12.738-3.326-24.086.144-3.852-.731-7.847-2.399-11.493-2.544-5.581-6.92-10.37-12.224-12.615-2.09-.896-4.325-1.39-6.642-1.39-8.836-.01-19.319-.01-29.472-.01-20.04-25.724 5.128-38.751 5.128-38.751 1.823-.021 3.625-.021 5.376 0 10.339-.123 18.701.217 25.611 1.153l7.188 7.209 8.259-3.182c9.793 4.356 15.406 11.791 21.512 23.531 9.381 18.052 4.686 30.306 9.165 52.241 4.355 21.389-24.026 27.752-28.176 7.393z" fill="#ffcbbe"/><path d="m139.629 283.254c-1.936 9.701-4.15 23.335-5.128 38.751-6.786 0-13.428.01-19.35.01-2.317 0-4.552.494-6.632 1.39-5.303 2.245-9.68 7.023-12.224 12.615-1.668 3.645-2.544 7.641-2.399 11.493 0 .113-.474 10.102-3.326 24.086-4.15 20.328-32.541 14.046-28.175-7.394 4.521-22.172-.216-34.199 9.165-52.241 0-.608 8.712-16.559 19.103-22.748.638-.381 1.452-.752 2.41-1.092l8.98 2.863 6.467-5.932c9.36-1.121 20.739-1.719 31.109-1.801z" fill="#ffbbae"/><path d="m108.519 285.056v44.703c0 4.263-3.46 7.723-7.723 7.723-1.678 0-3.233-.535-4.5-1.462-1.946-1.39-3.223-3.676-3.223-6.261v-41.634c3.511-1.267 8.99-2.297 15.446-3.069z" fill="#ff899f"/><path d="m186.062 288.434v41.325c0 2.585-1.277 4.871-3.223 6.261-1.267.927-2.822 1.462-4.5 1.462-4.274 0-7.723-3.46-7.723-7.723v-45.352c6.189.835 11.214 2.143 15.446 4.027z" fill="#ff9eb1"/><path d="m240.363 190.193c0 55.67-45.125 100.795-100.795 100.795-7.517 0-14.85-.824-21.904-2.399l-.01-.01c-1.452-.639-124.944-55.701-42.087-161.533h142.563c13.902 17.269 22.233 39.235 22.233 63.147z" fill="#ffddcf"/><path d="m117.664 288.588c-45.135-9.989-78.892-50.243-78.892-98.396 0-23.901 8.321-45.867 22.212-63.147h44.26c-13.315 21.471-59.522 107.098 12.409 161.533z" fill="#ffcbbe"/><path d="m151.293 95.156c.069-36.013 113.75-20.453 113.75 58.708 0 17.482 1.121 19.04-35.04 17.393.345-.516.41-.467-.451-.025-45.861-2.33-78.259-37.384-78.259-76.076z" fill="#df8a57"/><path d="m78.861 214.939c-4.265 0-7.723-3.457-7.723-7.723v-12.357c0-4.266 3.458-7.723 7.723-7.723s7.723 3.457 7.723 7.723v12.357c.001 4.266-3.457 7.723-7.723 7.723z" fill="#334151"/><path d="m207.479 214.939c-4.265 0-7.723-3.457-7.723-7.723v-12.357c0-4.266 3.458-7.723 7.723-7.723s7.723 3.457 7.723 7.723v12.357c.001 4.266-3.457 7.723-7.723 7.723z" fill="#334151"/><path d="m143.17 222.296c-8.731 0-17.033-3.781-22.777-10.373-2.802-3.216-2.467-8.094.749-10.897 3.216-2.802 8.094-2.467 10.897.748 2.852 3.273 6.805 5.076 11.132 5.076 4.264 0 8.322-1.85 11.133-5.076 2.803-3.216 7.681-3.551 10.897-.748s3.55 7.681.748 10.897c-5.746 6.592-14.049 10.373-22.779 10.373z" fill="#334151"/><path d="m121.783 176.094c-136.56-38.761 4.202-117.293 4.202-117.293 11.472-.968 23.417-.525 35.62 1.545 41.727 7.075 23.932 83.661-39.822 115.748z" fill="#e4996d"/><path d="m121.783 176.094c-15.344 7.734-33.344 12.883-53.817 13.871-.103-.051-.33.175-38.143.175-7.909 0-14.314-5.509-14.314-12.296v-12.182c0-55.062 48.338-101.65 110.475-106.861-22.994 23.12-55.33 69.923-4.201 117.293z" fill="#df8a57"/><path d="m372.177 434.435v-73.66h38.768v73.66c0 25.646-38.768 25.646-38.768 0z" fill="#b18cd9"/></g></svg>