<svg height="512" viewBox="0 0 64 64" width="512" xmlns="http://www.w3.org/2000/svg"><g id="Captions"><g><path d="m51.12 25.12-8.53 8.53c-.37.37-.59.89-.59 1.42v14.93h-20v-14.93c0-.53-.21-1.04-.59-1.42-8.03-8.03-7.38-7.38-8.53-8.53l4.24-4.24 6.7 6.7c.35.35.9.39 1.3.09 1.42-1.11 3.14-1.67 4.88-1.67h4c1.71 0 3.45.57 4.89 1.67.39.3.94.26 1.29-.09.206-.206 6.495-6.495 6.7-6.7z" fill="#c80a50"/></g><g><path d="m40.31 27.45c-1.35 3.26-4.56 5.55-8.31 5.55s-6.96-2.29-8.31-5.55l.13.13c.35.35.9.39 1.3.09 1.42-1.11 3.14-1.67 4.88-1.67h4c1.71 0 3.45.57 4.89 1.67.39.3.94.26 1.29-.09z" fill="#a00028"/></g><g><path d="m54.41 21.83c-1.17 1.17-2.25 2.25-3.29 3.29l-4.24-4.24 3.21-3.21c1.03-1.03 2.66-1.28 3.86-.46 1.602 1.076 1.785 3.295.46 4.62z" fill="#f0c8a0"/></g><g><path d="m55 21h-8l-.12-.12 3.21-3.21c1.03-1.03 2.66-1.28 3.86-.46 1.31.88 1.66 2.51 1.05 3.79z" fill="#d2aa82"/></g><g><path d="m17.12 20.88-4.24 4.24-3.17-3.17c-1.157-1.157-1.19-3.05 0-4.24 1.17-1.17 3.07-1.17 4.24 0z" fill="#f0c8a0"/></g><g><path d="m17.12 20.88-.12.12h-7.93c-.461-1.066-.265-2.385.64-3.29 1.17-1.17 3.07-1.17 4.24 0z" fill="#d2aa82"/></g><g><path d="m32 32c-4.971 0-9-4.029-9-9v-4c0-4.971 4.029-9 9-9 4.971 0 9 4.029 9 9v4c0 4.971-4.029 9-9 9z" fill="#f0c8a0"/></g><g><g><path d="m27.998 18c1.537 0 2.503 1.682 1.73 3-.35-.6-.99-1-1.73-1s-1.38.4-1.73 1c-.771-1.315.19-3 1.73-3z" fill="#00143c"/></g><g><path d="m34 20c0-1.1.9-2 2-2s2 .9 2 2c0 .36-.1.71-.27 1-.35-.6-.99-1-1.73-1s-1.38.4-1.73 1c-.17-.29-.27-.64-.27-1z" fill="#00143c"/></g><g><path d="m32 26c-1.76 0-3.254-1.137-3.789-2.715-.215-.633.294-1.285.962-1.285h5.654c.668 0 1.177.652.962 1.285-.535 1.579-2.029 2.715-3.789 2.715z" fill="#c80a50"/></g><g><path d="m35.79 23.28c-.03.08-.06.16-.09.23-.16-.3-.49-.51-.87-.51h-5.66c-.38 0-.71.21-.87.51-.03-.07-.06-.15-.09-.23-.21-.63.29-1.28.96-1.28h5.66c.67 0 1.17.65.96 1.28z" fill="#a00028"/></g></g><g><g><path d="m37 12c0 1.66-1.34 3-3 3-.77 0-1.47-.3-2-.78-.53.48-1.23.78-2 .78-1.66 0-3-1.34-3-3 0-.24.03-.48.09-.71 1.46-.82 3.13-1.29 4.91-1.29s3.46.47 4.91 1.29c.06.23.09.47.09.71z" fill="#d2aa82"/></g><g><path d="m34 8c-.772 0-1.468.3-2 .779-.532-.479-1.228-.779-2-.779-1.657 0-3 1.343-3 3s1.343 3 3 3c.772 0 1.468-.3 2-.779.532.479 1.228.779 2 .779 1.657 0 3-1.343 3-3s-1.343-3-3-3z" fill="#00325a"/></g></g><g><path d="m24 22h-2c-1.105 0-2-.895-2-2 0-1.105.895-2 2-2h2z" fill="#f0c8a0"/></g><g><path d="m40 18h2c1.105 0 2 .895 2 2 0 1.105-.895 2-2 2h-2z" fill="#f0c8a0"/></g><g><path d="m50 48v7c0 .552-.448 1-1 1h-34c-.552 0-1-.448-1-1v-7c0-1.105.895-2 2-2h32c1.105 0 2 .895 2 2z" fill="#00a0c8"/></g><g><path d="m12 56h-3c-.552 0-1-.448-1-1v-8c0-.552.448-1 1-1h1c1.105 0 2 .895 2 2z" fill="#f0c8a0"/></g><g><path d="m52 56h3c.552 0 1-.448 1-1v-8c0-.552-.448-1-1-1h-1c-1.105 0-2 .895-2 2z" fill="#f0c8a0"/></g><g><path d="m12 49h2v6h-2z" fill="#00325a"/></g><g><path d="m50 49h2v6h-2z" fill="#00325a"/></g><g><g><path d="m31 56h-8c-.552 0-1-.448-1-1v-8c0-.552.448-1 1-1h8c.552 0 1 .448 1 1v8c0 .552-.448 1-1 1z" fill="#fab400"/></g><g><circle cx="27" cy="51" fill="#f0f0f0" r="3"/></g><g><path d="m30 51c0 .17-.01.34-.05.5-.23-1.42-1.46-2.5-2.95-2.5s-2.72 1.08-2.95 2.5c-.04-.16-.05-.33-.05-.5 0-1.66 1.34-3 3-3s3 1.34 3 3z" fill="#d2d2d2"/></g></g><g><g><path d="m41 56h-8c-.552 0-1-.448-1-1v-8c0-.552.448-1 1-1h8c.552 0 1 .448 1 1v8c0 .552-.448 1-1 1z" fill="#0a5078"/></g><g><circle cx="37" cy="51" fill="#fab400" r="3"/></g><g><path d="m40 51c0 .17-.01.34-.05.5-.23-1.42-1.46-2.5-2.95-2.5s-2.72 1.08-2.95 2.5c-.04-.16-.05-.33-.05-.5 0-1.66 1.34-3 3-3s3 1.34 3 3z" fill="#dc9600"/></g></g><g><g><path d="m36 46h-8c-.552 0-1-.448-1-1v-8c0-.552.448-1 1-1h8c.552 0 1 .448 1 1v8c0 .552-.448 1-1 1z" fill="#f0f0f0"/></g><g><circle cx="32" cy="41" fill="#d2d2d2" r="3"/></g><g><path d="m35 41c0 .17-.01.34-.05.5-.23-1.42-1.46-2.5-2.95-2.5s-2.72 1.08-2.95 2.5c-.04-.16-.05-.33-.05-.5 0-1.66 1.34-3 3-3s3 1.34 3 3z" fill="#b4b4b4"/></g></g><g><g><path d="m55 20h-8c-.552 0-1-.448-1-1v-8c0-.552.448-1 1-1h8c.552 0 1 .448 1 1v8c0 .552-.448 1-1 1z" fill="#c80a50"/></g><g><circle cx="51" cy="15" fill="#fab400" r="3"/></g><g><path d="m54 15c0 .17-.01.34-.05.5-.23-1.42-1.46-2.5-2.95-2.5s-2.72 1.08-2.95 2.5c-.04-.16-.05-.33-.05-.5 0-1.66 1.34-3 3-3s3 1.34 3 3z" fill="#dc9600"/></g></g><g><g><path d="m17 20h-8c-.552 0-1-.448-1-1v-8c0-.552.448-1 1-1h8c.552 0 1 .448 1 1v8c0 .552-.448 1-1 1z" fill="#00a0c8"/></g><g><circle cx="13" cy="15" fill="#c80a50" r="3"/></g><g><path d="m16 15c0 .17-.01.34-.05.5-.23-1.42-1.46-2.5-2.95-2.5s-2.72 1.08-2.95 2.5c-.04-.16-.05-.33-.05-.5 0-1.66 1.34-3 3-3s3 1.34 3 3z" fill="#a00028"/></g></g><g><g><path d="m55 37h-2c-.553 0-1-.448-1-1s.447-1 1-1h2c.553 0 1 .448 1 1s-.447 1-1 1z" fill="#fab400"/></g><g><path d="m52.293 43.707-1.414-1.414c-.391-.391-.391-1.023 0-1.414s1.023-.391 1.414 0l1.414 1.414c.391.391.391 1.023 0 1.414s-1.023.391-1.414 0z" fill="#fab400"/></g><g><path d="m50.879 31.121c-.391-.391-.391-1.023 0-1.414l1.414-1.414c.391-.391 1.023-.391 1.414 0s.391 1.023 0 1.414l-1.414 1.414c-.391.391-1.023.391-1.414 0z" fill="#fab400"/></g></g><g><g><path d="m9 35h2c.553 0 1 .448 1 1s-.447 1-1 1h-2c-.553 0-1-.448-1-1s.447-1 1-1z" fill="#fab400"/></g><g><path d="m11.707 28.293 1.414 1.414c.391.391.391 1.023 0 1.414s-1.023.391-1.414 0l-1.414-1.414c-.391-.391-.391-1.023 0-1.414s1.023-.391 1.414 0z" fill="#fab400"/></g><g><path d="m13.121 40.879c.391.391.391 1.023 0 1.414l-1.414 1.414c-.391.391-1.023.391-1.414 0s-.391-1.023 0-1.414l1.414-1.414c.391-.391 1.023-.391 1.414 0z" fill="#fab400"/></g></g></g></svg>