<?xml version="1.0" encoding="UTF-8"?>
<svg xmlns="http://www.w3.org/2000/svg" xmlns:xlink="http://www.w3.org/1999/xlink" version="1.1" id="Capa_1" x="0px" y="0px" viewBox="0 0 511.972 511.972" style="enable-background:new 0 0 511.972 511.972;" xml:space="preserve" width="512" height="512">
<g>
	<path style="fill:#83DEFF;" d="M392.281,334.647l6.852-29.344c4.533-19.414,34.169-12.63,29.636,6.784l-6.852,29.344&#10;&#9;&#9;C417.384,360.844,387.748,354.06,392.281,334.647z"/>
	<path style="fill:#5AD6FF;" d="M119.691,334.647l-6.852-29.344c-4.533-19.414-34.169-12.63-29.636,6.784l6.852,29.344&#10;&#9;&#9;C94.588,360.844,124.224,354.06,119.691,334.647z"/>
	<path style="fill:#DB9E82;" d="M105.398,161.868c0-34.866,52.706-34.866,52.706,0S105.398,196.734,105.398,161.868z"/>
	<path style="fill:#C8866A;" d="M406.574,161.868c0-34.866-52.706-34.866-52.706,0S406.574,196.734,406.574,161.868z"/>
	<path style="fill:#C8866A;" d="M148.056,314.646c-17.94,1.58-36.7-0.69-54.88-6.67c-33.39-11-15.67-60.74,17.72-49.75&#10;&#9;&#9;c9.91,3.26,20.29,4.86,30.25,4.37L148.056,314.646z"/>
	<path style="fill:#DB9E82;" d="M418.796,307.976c-18.06,5.95-36.7,8.23-54.54,6.69l5.78-52.11c10.2,0.62,20.87-0.98,31.04-4.33&#10;&#9;&#9;C434.466,247.236,452.186,296.976,418.796,307.976z"/>
	<path style="fill:#5C85DA;" d="M180.696,481.006c0.28,0.28,0.57,0.56,0.85,0.83h-0.85V481.006z"/>
	<path style="fill:#83DEFF;" d="M331.276,346.336v135.5h-40.64c-89.49-28.89-65-110.36-54.97-135.5H331.276z"/>
	<path style="fill:#5AD6FF;" d="M290.636,481.836h-109.94v-135.5h54.91C238.906,393.346,253.106,443.416,290.636,481.836z"/>
	<path style="fill:#FFB3C2;" d="M382.226,269.536c-4.41,51.81,2.19,59.35-33.54,49.97c-2.91-0.76-5.04,1.44-4.85,3.88&#10;&#9;&#9;c1.54,20.07-14.33,38.01-35.3,38.01h-71.49c0,0-62.97-66.66,9.21-130.21c0.17,1.21,0.27,2.45,0.3,3.73&#10;&#9;&#9;c0.06,1.93-0.05,3.93-0.32,6.01h19.5c-0.28-2.08-0.38-4.09-0.33-6.02c0.04-1.27,0.14-2.51,0.31-3.72h62.7&#10;&#9;&#9;C350.676,267.696,383.886,250.076,382.226,269.536z"/>
	<path style="fill:#FF9EB1;" d="M245.606,231.186c-0.33,1.43-0.66,2.91-0.99,4.44h-0.01c-2.98,13.73-6.09,31.24-7.99,50.95&#10;&#9;&#9;c-2.19,22.82-2.74,48.59,0.43,74.82h-33.61c-20.97,0-36.84-17.94-35.3-38.01c0.2-2.59-2.15-4.59-4.66-3.93&#10;&#9;&#9;c-35.98,9.4-29.32,1.93-33.73-49.92c-1.67-19.62,31.45-1.55,53.82-38.35H245.606z"/>
	<path style="fill:#C8866A;" d="M286.106,263.516c0,16.63-13.49,30.12-30.12,30.12c-7.38,0-14.13-2.65-19.37-7.06&#10;&#9;&#9;c0,0-14.14-34.65,8-50.95c3.5-1.44,7.34-2.23,11.37-2.23C272.616,233.396,286.106,246.886,286.106,263.516z"/>
	<path style="fill:#B07058;" d="M244.616,235.626c-2.99,13.73-6.1,31.24-8,50.95c-6.57-5.52-10.75-13.81-10.75-23.06&#10;&#9;&#9;C225.866,250.906,233.616,240.106,244.616,235.626z"/>
	<path style="fill:#DB9E82;" d="M376.456,143.046c0,66.53-53.94,120.47-120.47,120.47c-10.38,0-20.45-1.31-30.06-3.78&#10;&#9;&#9;c-137.77-81.1-46.47-159.03-46.47-159.03h189.34C373.746,113.876,376.456,128.146,376.456,143.046z"/>
	<path style="fill:#C8866A;" d="M225.926,259.736c-51.99-13.36-90.41-60.54-90.41-116.69c0-14.9,2.71-29.17,7.66-42.34h36.28&#10;&#9;&#9;C160.936,152.126,161.206,212.536,225.926,259.736z"/>
	<path style="fill:#7888AF;" d="M233.398,504.456h-37.647c-29.885,0-29.885-45.176,0-45.176h37.647&#10;&#9;&#9;C263.283,459.28,263.283,504.456,233.398,504.456z"/>
	<path style="fill:#7888AF;" d="M278.288,504.456h38.219c29.732,0,29.413-45.176,0-45.176h-38.219&#10;&#9;&#9;C248.556,459.28,248.875,504.456,278.288,504.456z"/>
	<path style="fill:#FBF198;" d="M376.256,151.516c-0.97-14.69-5.35-28.57-12.45-41.05c-2.87-5.03-11.05-4.96-13.76,0.14&#10;&#9;&#9;c-2.29,4.32-5.35,9.05-9.24,12.99c-4.1,4.17-11.76,3.06-14.05-2.07l-2.34-5.22c-1.79-4.01-7.62-5.11-11.07-2.08&#10;&#9;&#9;c-36.26,31.81-78.47,31.83-114.71,0c-3.45-3.03-9.29-1.93-11.07,2.08l-2.34,5.22c-2.06,4.62-8.49,5.98-12.74,3.15&#10;&#9;&#9;c-21.23-72.44,61.2-115.28,61.2-115.28c7.23-1.24,14.68-1.88,22.3-1.88c66.53,0,120.47,49.06,120.47,109.59&#10;&#9;&#9;C376.456,151.516,376.566,151.516,376.256,151.516z"/>
	<path style="fill:#F8EA69;" d="M233.686,9.396c-18.94,22.9-50.58,66.8-61.2,115.28c-0.47-0.31-0.91-0.67-1.32-1.08&#10;&#9;&#9;c-4.15-4.22-7.21-8.7-9.42-12.76c-2.76-5.05-10.9-5.12-13.73-0.1c-7.01,12.41-11.34,26.2-12.3,40.78c-0.31,0-0.2,0-0.2-34.41&#10;&#9;&#9;C135.516,63.506,177.806,18.906,233.686,9.396z"/>
</g>
<g>
	<path style="fill:none;stroke:#000000;stroke-width:15;stroke-linecap:round;stroke-linejoin:round;stroke-miterlimit:10;" d="&#10;&#9;&#9;M103.896,353.041c1.71,49.67,29,94.88,70.73,120.87"/>
	<path style="fill:none;stroke:#000000;stroke-width:15;stroke-linecap:round;stroke-linejoin:round;stroke-miterlimit:10;" d="&#10;&#9;&#9;M337.376,473.901c41.73-26.01,68.97-71.23,70.7-120.86"/>
	<path style="fill:none;stroke:#000000;stroke-width:15;stroke-linecap:round;stroke-linejoin:round;stroke-miterlimit:10;" d="&#10;&#9;&#9;M428.226,302.901c2.282,5.546,0.961,7.396-6.31,38.54c-4.53,19.42-34.17,12.63-29.63-6.78l4.99-21.36"/>
	<path style="fill:none;stroke:#000000;stroke-width:15;stroke-linecap:round;stroke-linejoin:round;stroke-miterlimit:10;" d="&#10;&#9;&#9;M114.696,313.301l4.99,21.36c4.54,19.41-25.1,26.2-29.63,6.78c-7.116-30.479-8.6-32.975-6.31-38.54"/>
	<path style="fill:none;stroke:#000000;stroke-width:15;stroke-linecap:round;stroke-linejoin:round;stroke-miterlimit:10;" d="&#10;&#9;&#9;M135.506,135.981c-14.3-1.83-30.11,6.81-30.11,25.9c0,22.68,22.3,30.61,37.88,23.78"/>
	<path style="fill:none;stroke:#000000;stroke-width:15;stroke-linecap:round;stroke-linejoin:round;stroke-miterlimit:10;" d="&#10;&#9;&#9;M376.466,135.981c14.3-1.83,30.11,6.81,30.11,25.9c0,22.68-22.31,30.61-37.89,23.78"/>
	<path style="fill:none;stroke:#000000;stroke-width:15;stroke-linecap:round;stroke-linejoin:round;stroke-miterlimit:10;" d="&#10;&#9;&#9;M133.876,315.111c-13.51-0.3-27.26-2.69-40.7-7.12c-33.39-11-15.67-60.74,17.72-49.75c6.77,2.23,13.77,3.68,20.7,4.22"/>
	<path style="fill:none;stroke:#000000;stroke-width:15;stroke-linecap:round;stroke-linejoin:round;stroke-miterlimit:10;" d="&#10;&#9;&#9;M378.086,315.111c10.773,0,26.234-2.349,40.71-7.12c33.39-11,15.67-60.74-17.72-49.75c-6.78,2.24-13.79,3.69-20.73,4.22"/>
	
		<line style="fill:none;stroke:#000000;stroke-width:15;stroke-linecap:round;stroke-linejoin:round;stroke-miterlimit:10;" x1="180.696" y1="391.392" x2="180.696" y2="353.151"/>
	
		<line style="fill:none;stroke:#000000;stroke-width:15;stroke-linecap:round;stroke-linejoin:round;stroke-miterlimit:10;" x1="180.696" y1="464.591" x2="180.696" y2="421.415"/>
	
		<line style="fill:none;stroke:#000000;stroke-width:15;stroke-linecap:round;stroke-linejoin:round;stroke-miterlimit:10;" x1="331.276" y1="464.531" x2="331.276" y2="353.151"/>
	<path style="fill:none;stroke:#000000;stroke-width:15;stroke-linecap:round;stroke-linejoin:round;stroke-miterlimit:10;" d="&#10;&#9;&#9;M331.996,236.521c22.07,29.44,51.8,14.59,50.23,33.03c-4.41,51.81,2.19,59.35-33.54,49.97c-2.91-0.76-5.04,1.44-4.85,3.88&#10;&#9;&#9;c1.54,20.07-14.33,38.01-35.3,38.01h-105.1c-20.97,0-36.84-17.94-35.3-38.01c0.2-2.59-2.15-4.59-4.66-3.93&#10;&#9;&#9;c-35.98,9.4-29.32,1.93-33.73-49.92c-1.58-18.6,28.09-3.33,50.24-33.02"/>
	<path style="fill:none;stroke:#000000;stroke-width:15;stroke-linecap:round;stroke-linejoin:round;stroke-miterlimit:10;" d="&#10;&#9;&#9;M285.866,259.781c2.321,17.843-11.708,33.87-29.88,33.87c-18.162,0-32.202-16.02-29.88-33.87"/>
	<path style="fill:none;stroke:#000000;stroke-width:15;stroke-linecap:round;stroke-linejoin:round;stroke-miterlimit:10;" d="&#10;&#9;&#9;M135.776,150.831c3.99,62.91,56.29,112.7,120.21,112.7s116.22-49.8,120.21-112.71"/>
	
		<line style="fill:none;stroke:#000000;stroke-width:15;stroke-linecap:round;stroke-linejoin:round;stroke-miterlimit:10;" x1="193.537" y1="155.649" x2="193.537" y2="167.649"/>
	
		<line style="fill:none;stroke:#000000;stroke-width:15;stroke-linecap:round;stroke-linejoin:round;stroke-miterlimit:10;" x1="318.435" y1="155.649" x2="318.435" y2="167.649"/>
	<path style="fill:none;stroke:#000000;stroke-width:15;stroke-linecap:round;stroke-linejoin:round;stroke-miterlimit:10;" d="&#10;&#9;&#9;M239.522,167.292c8.715,10.001,24.213,10.001,32.928,0"/>
	<path style="fill:none;stroke:#000000;stroke-width:15;stroke-linecap:round;stroke-linejoin:round;stroke-miterlimit:10;" d="&#10;&#9;&#9;M233.398,504.472h-37.647c-29.885,0-29.885-45.176,0-45.176h37.647C263.283,459.295,263.283,504.472,233.398,504.472z"/>
	<path style="fill:none;stroke:#000000;stroke-width:15;stroke-linecap:round;stroke-linejoin:round;stroke-miterlimit:10;" d="&#10;&#9;&#9;M278.288,504.472h38.219c29.732,0,29.413-45.176,0-45.176h-38.219C248.556,459.295,248.875,504.472,278.288,504.472z"/>
	
		<line style="fill:none;stroke:#000000;stroke-width:15;stroke-linecap:round;stroke-linejoin:round;stroke-miterlimit:10;" x1="255.986" y1="474.354" x2="255.986" y2="406.59"/>
	<path style="fill:none;stroke:#000000;stroke-width:15;stroke-linecap:round;stroke-linejoin:round;stroke-miterlimit:10;" d="&#10;&#9;&#9;M186.534,27.565c78.636-50.557,189.922-0.018,189.922,89.556c0,34.407,0.111,34.41-0.2,34.41c-0.97-14.69-5.35-28.57-12.45-41.05&#10;&#9;&#9;c-2.87-5.03-11.05-4.96-13.76,0.14c-2.29,4.32-5.35,9.05-9.24,12.99c-4.1,4.17-11.76,3.06-14.05-2.07l-2.34-5.22&#10;&#9;&#9;c-1.79-4.01-7.62-5.11-11.07-2.08c-36.258,31.81-78.467,31.827-114.71,0c-3.45-3.03-9.29-1.93-11.07,2.08l-2.34,5.22&#10;&#9;&#9;c-2.29,5.13-9.95,6.24-14.06,2.07c-4.15-4.22-7.21-8.7-9.42-12.76c-2.76-5.05-10.9-5.12-13.73-0.1&#10;&#9;&#9;c-7.01,12.41-11.34,26.2-12.3,40.78c-0.311,0-0.2,0-0.2-34.41c0-24.246,8.655-46.652,23.306-64.801"/>
	<path style="fill:none;stroke:#000000;stroke-width:15;stroke-linecap:round;stroke-linejoin:round;stroke-miterlimit:10;" d="&#10;&#9;&#9;M135.716,151.531c0.96-14.58,5.29-28.37,12.3-40.78c2.83-5.02,10.97-4.95,13.73,0.1c2.21,4.06,5.27,8.54,9.42,12.76&#10;&#9;&#9;c4.11,4.17,11.77,3.06,14.06-2.07l2.34-5.22c1.78-4.01,7.62-5.11,11.07-2.08c36.243,31.827,78.452,31.81,114.71,0&#10;&#9;&#9;c3.45-3.03,9.28-1.93,11.07,2.08l2.34,5.22c2.29,5.13,9.95,6.24,14.05,2.07c3.89-3.94,6.95-8.67,9.24-12.99&#10;&#9;&#9;c2.71-5.1,10.89-5.17,13.76-0.14c7.1,12.48,11.48,26.36,12.45,41.05"/>
</g>















</svg>
