<svg id="Capa_1" enable-background="new 0 0 512 512" height="512" viewBox="0 0 512 512" width="512" xmlns="http://www.w3.org/2000/svg"><g><g><path d="m322.844 315.678h-98.083v55.415h98.083c15.302 0 27.708-12.405 27.708-27.708 0-15.302-12.406-27.707-27.708-27.707z" fill="#ffcabd"/><path d="m40.748 291.74c-14.994-3.057-29.627 6.62-32.684 21.615-3.057 14.994 6.62 29.627 21.615 32.684l96.106 19.592 11.069-54.298z" fill="#ffdcce"/><path d="m276.958 401.98c0-61.303-31.595-86.303-31.595-86.303h-128.648s-31.595 24.999-31.595 86.303l95.924 29.394z" fill="#7de2ff"/><path d="m247.543 396.922-16.224 38.971 16.224 38.971h19.13c21.515 0 38.977-17.445 38.977-38.977 0-21.52-17.446-38.966-38.977-38.966h-19.13z" fill="#696eb1"/><path d="m167.721 435.888c0 21.531 17.446 38.977 38.966 38.977h40.856v-77.943h-40.856c-21.478 0-38.966 17.414-38.966 38.966z" fill="#ffdcce"/><path d="m114.535 396.922 16.224 38.971-16.224 38.971h-19.13c-21.515 0-38.977-17.445-38.977-38.977 0-21.52 17.446-38.966 38.977-38.966h19.13z" fill="#696eb1"/><path d="m71.427 405.179c-9.126 7.132-14.998 18.231-14.998 30.709 0 21.532 17.461 38.977 38.977 38.977h19.13l9.433-22.659c-34.541-5.445-47.8-23.316-52.542-47.027z" fill="#4c5698"/><path d="m194.358 435.888c0 21.531-17.446 38.977-38.966 38.977h-40.856v-77.943h40.856c21.477 0 38.966 17.414 38.966 38.966z" fill="#ffdcce"/><path d="m51.278 202.96h-36.053c0-23.229 4.8-45.365 13.463-65.452 25.433-58.983 84.149-100.373 152.351-100.373h98.251c22.065 0 39.947 17.882 39.947 39.947 0 16.688-6.768 31.789-17.697 42.728-3.925 3.935-8.395 7.324-13.278 10.043l-5.652 12.45z" fill="#d5938c"/><path d="m98.774 339.845c24.264 14.699 52.053 22.658 81.062 22.873 0 0 1.208.004 1.21.004 29.469 0 57.717-7.927 82.316-22.767-8.56-16.785-17.998-24.277-17.998-24.277h-128.649s-9.396 7.459-17.941 24.167z" fill="#2ecffb"/><path d="m193.443 37.136h-12.404c-68.203 0-126.918 41.389-152.351 100.373-8.663 20.087-13.463 42.224-13.463 65.452h36.053l37.941-9.948c.891-69.973 43.564-129.867 104.224-155.877z" fill="#cd847b"/><path d="m308.452 178.186c-3.41-17.646-10.404-34.024-20.19-48.332-8.714 4.883-18.758 7.654-29.45 7.654h-13.443-130.38c-34.539 0-62.782 27.532-63.668 62.06-.014.539-.024 1.079-.032 1.619-.96 71.667 57.096 131.001 128.768 131.531 72.125.534 130.753-57.767 130.753-129.758.001-8.467-.813-16.749-2.358-24.774z" fill="#ffdcce"/><path d="m154.234 329.919c-39.629-31.502-65.043-80.119-65.043-134.677 0-19.429 3.226-38.103 9.165-55.521-17.596 4.752-32.196 16.856-40.262 32.854-2.405-.54-5.016-.826-7.848-.826-22.925 0-41.509 18.584-41.509 41.51 0 22.925 18.584 41.509 41.509 41.509 4.182 0 7.881-.625 11.143-1.775 16.306 38.679 50.87 68.028 92.845 76.926z" fill="#ffcabd"/><g><g><g><ellipse cx="99.093" cy="234.402" fill="#ff8d9d" rx="30.238" ry="24.08"/></g><g><ellipse cx="262.995" cy="234.402" fill="#ff8d9d" rx="30.238" ry="24.08"/></g></g></g><path d="m483.29 256-33.506-50.959-33.506 50.959c-11.714 0-21.21 9.496-21.21 21.21v67.012c0 11.714 9.496 21.21 21.21 21.21l33.506 58.029 33.506-58.029c11.714 0 21.21-9.496 21.21-21.21v-67.012c0-11.714-9.496-21.21-21.21-21.21z" fill="#c8a9f1"/><path d="m483.29 37.135h-67.012c-11.714 0-21.21 9.496-21.21 21.21v67.012c0 11.714 9.496 21.21 21.21 21.21l33.506 58.473 33.506-58.473c11.714 0 21.21-9.496 21.21-21.21v-67.011c0-11.714-9.496-21.211-21.21-21.211z" fill="#ff8d9d"/><path d="m483.29 146.568h-67.012c-11.714 0-21.21 9.496-21.21 21.21v67.012c0 11.714 9.496 21.21 21.21 21.21h67.012c11.714 0 21.21-9.496 21.21-21.21v-67.012c0-11.714-9.496-21.21-21.21-21.21z" fill="#71dbba"/><path d="m483.29 365.432h-67.012c-11.714 0-21.21 9.496-21.21 21.21v67.012c0 11.714 9.496 21.21 21.21 21.21h67.012c11.714 0 21.21-9.496 21.21-21.21v-67.012c0-11.713-9.496-21.21-21.21-21.21z" fill="#fce29f"/><path d="m148.337 453.935c-13.364 0-24.509-1.28-33.801-3.648v24.578h40.856c20.365 0 37.071-15.626 38.807-35.549-12.952 9.195-28.769 14.619-45.862 14.619z" fill="#ffcabd"/><path d="m423.908 407.079c0-15.261 4.285-29.519 11.709-41.646h-19.34c-11.714 0-21.21 9.496-21.21 21.21v67.011c0 11.714 9.496 21.21 21.21 21.21h45.263c-22.591-14.11-37.632-39.185-37.632-67.785z" fill="#ffcd71"/><path d="m423.908 297.647c0-15.261 4.285-29.519 11.709-41.646h-19.34c-11.714 0-21.21 9.496-21.21 21.21v67.011c0 11.714 9.496 21.21 21.21 21.21h45.263c-22.591-14.11-37.632-39.185-37.632-67.785z" fill="#b18ae3"/><path d="m423.908 188.214c0-15.261 4.285-29.519 11.709-41.646h-19.34c-11.714 0-21.21 9.496-21.21 21.21v67.011c0 11.714 9.496 21.21 21.21 21.21h45.263c-22.591-14.11-37.632-39.185-37.632-67.785z" fill="#30cc9b"/><path d="m423.908 78.782c0-15.261 4.285-29.519 11.709-41.646h-19.34c-11.714 0-21.21 9.496-21.21 21.21v67.011c0 11.714 9.496 21.21 21.21 21.21h45.263c-22.591-14.11-37.632-39.185-37.632-67.785z" fill="#e95b70"/></g><g><path d="m109.218 198.861v12.361c0 4.142 3.358 7.5 7.5 7.5s7.5-3.358 7.5-7.5v-12.361c0-4.142-3.358-7.5-7.5-7.5s-7.5 3.358-7.5 7.5z"/><path d="m237.873 198.861v12.361c0 4.142 3.358 7.5 7.5 7.5s7.5-3.358 7.5-7.5v-12.361c0-4.142-3.358-7.5-7.5-7.5s-7.5 3.358-7.5 7.5z"/><path d="m192.351 205.926c-2.854 3.275-6.975 5.154-11.306 5.154s-8.451-1.878-11.306-5.154c-2.721-3.123-7.459-3.448-10.581-.727-3.123 2.722-3.448 7.459-.727 10.582 5.704 6.545 13.946 10.298 22.614 10.298 8.667 0 16.91-3.753 22.614-10.298 2.722-3.123 2.396-7.86-.727-10.582-3.122-2.721-7.86-2.396-10.581.727z"/><path d="m483.289 29.637h-67.011c-15.831 0-28.71 12.879-28.71 28.71v67.011c0 8.393 3.621 15.956 9.382 21.21-5.761 5.254-9.382 12.817-9.382 21.21v67.011c0 8.393 3.621 15.956 9.382 21.21-5.761 5.254-9.382 12.817-9.382 21.21v67.011c0 8.393 3.621 15.956 9.382 21.211-5.761 5.254-9.382 12.817-9.382 21.21v67.011c0 15.831 12.879 28.71 28.71 28.71h67.011c15.831 0 28.711-12.879 28.711-28.71v-67.011c0-8.393-3.621-15.956-9.382-21.21 5.761-5.255 9.382-12.817 9.382-21.211v-67.01c0-8.393-3.621-15.956-9.382-21.21 5.761-5.254 9.382-12.817 9.382-21.21v-67.011c0-8.394-3.621-15.956-9.382-21.21 5.761-5.254 9.382-12.817 9.382-21.21v-67.012c0-15.831-12.88-28.71-28.711-28.71zm13.711 357.005v67.011c0 7.56-6.15 13.71-13.711 13.71h-67.011c-7.56 0-13.71-6.15-13.71-13.71v-67.011c0-7.56 6.15-13.71 13.71-13.71h67.011c7.561 0 13.711 6.15 13.711 13.71zm0-109.432v67.011c0 7.56-6.15 13.711-13.711 13.711h-67.011c-7.56 0-13.71-6.151-13.71-13.711v-67.011c0-7.56 6.15-13.71 13.71-13.71h67.011c7.561 0 13.711 6.15 13.711 13.71zm0-109.431v67.011c0 7.56-6.15 13.71-13.711 13.71h-67.011c-7.56 0-13.71-6.15-13.71-13.71v-67.011c0-7.56 6.15-13.71 13.71-13.71h67.011c7.561-.001 13.711 6.15 13.711 13.71zm-80.722-28.71c-7.56 0-13.71-6.151-13.71-13.71v-67.012c0-7.56 6.15-13.71 13.71-13.71h67.011c7.56 0 13.711 6.15 13.711 13.71v67.011c0 7.56-6.15 13.71-13.711 13.71h-67.011z"/><path d="m77.879 392.863c-16.961 6.933-28.948 23.601-28.948 43.024 0 25.627 20.849 46.477 46.477 46.477h59.986c9.47 0 18.282-2.854 25.636-7.739 7.571 5.022 16.485 7.739 25.66 7.739h40.856 19.13c25.627 0 46.477-20.849 46.477-46.477 0-19.422-11.986-36.09-28.947-43.023-.255-5.012-.725-9.755-1.353-14.271h39.993c19.413 0 35.207-15.794 35.207-35.208s-15.794-35.207-35.207-35.207h-53.6c7.389-6.227 14.199-13.283 20.289-21.129 2.54-3.272 1.946-7.984-1.325-10.523-3.273-2.541-7.984-1.946-10.523 1.326-24.121 31.074-60.439 47.642-97.572 47.366-20.629-.15-41.216-5.624-59.424-16.048 0 0 0 0-.001 0-34.978-20.026-58.661-56.196-61.598-97.57-.904-12.996-.16-24.07 5.723-35.711v-.001c9.48-18.749 28.686-30.878 50.177-30.878h143.821c9.123 0 18.099-1.811 26.772-5.485 7.54 12.363 12.747 25.819 15.503 40.082 1.476 7.661 2.224 15.519 2.224 23.355 0 17.746-3.72 34.862-11.057 50.871-1.726 3.766-.072 8.217 3.694 9.943 3.765 1.726 8.217.072 9.943-3.694 8.241-17.983 12.42-37.201 12.42-57.12 0-8.786-.839-17.599-2.495-26.197-3.069-15.883-8.846-30.866-17.188-44.648 17.423-12.608 28.11-32.773 28.11-55.032 0-26.162-21.285-47.447-47.447-47.447h-98.25c-28.551 0-56.881 7.131-81.929 20.622-3.647 1.964-5.011 6.513-3.046 10.16 1.964 3.646 6.512 5.011 10.16 3.046 22.869-12.317 48.739-18.828 74.815-18.828h98.25c17.891 0 32.447 14.556 32.447 32.447 0 29.47-23.917 52.925-52.925 52.925h-143.822c-24.49 0-47.741 12.48-60.954 34.39-9.72-.763-19.542 1.434-27.996 6.238 2.15-10.335 5.338-20.424 9.536-30.159 10.175-23.597 26.185-44.637 46.301-60.846 3.226-2.599 3.733-7.32 1.135-10.546-2.6-3.225-7.32-3.732-10.546-1.134-22.008 17.733-39.528 40.758-50.664 66.585-7.301 16.928-11.802 34.832-13.406 53.243-4.54 7.429-7.159 16.153-7.159 25.477 0 27.024 21.985 49.009 49.009 49.009 2.282 0 4.561-.163 6.822-.481 5.03 10.516 11.427 20.433 19.121 29.524l-33.944-6.92c-19.067-3.886-37.642 8.396-41.531 27.466-3.887 19.066 8.396 37.643 27.465 41.53l53.727 10.953c-2.025 8.425-3.489 17.902-4.029 28.524zm-13.948 43.024c0-17.414 14.2-31.466 31.477-31.466h11.63v62.943h-11.63c-17.357-.001-31.477-14.121-31.477-31.477zm58.106 31.476v-62.943h33.356c17.372 0 31.466 14.163 31.466 31.466 0 17.236-14.005 31.477-31.466 31.477zm70.391-3.423c5.927-7.818 9.431-17.665 9.431-28.054 0-10.319-3.474-20.194-9.425-28.034 4.516-2.287 9.31-3.432 14.255-3.432h33.356v62.943h-33.356c-4.994 0-9.875-1.188-14.261-3.423zm105.723-28.053c0 17.356-14.121 31.477-31.477 31.477h-11.63v-62.943h11.63c17.384 0 31.477 14.152 31.477 31.466zm-31.477-46.466c-7.184 0-53.719 0-59.985 0-9.346 0-18.781 3.073-25.648 7.732-7.763-5.146-16.768-7.732-25.647-7.732-6.17 0-52.825 0-59.986 0-.104 0-.208.007-.312.008-.658.004-1.315.016-1.972.048 1.784-22.663 9.458-47.882 24.89-64.619 19.788 10.315 41.123 15.207 61.986 15.358h.002c22.847.16 44.726-5.2 64.147-15.258 15.458 16.863 23.011 41.706 24.807 64.518-.649-.032-1.3-.043-1.951-.048-.11 0-.219-.007-.331-.007zm76.378-46.036c0 11.143-9.065 20.208-20.207 20.208h-42.831c-3.554-14.399-9.531-28.479-18.033-40.415h60.864c11.142-.001 20.207 9.064 20.207 20.207zm-292.804-96.117c-18.752 0-34.009-15.256-34.009-34.009 0-17.503 13.381-32.281 30.96-33.857-3.466 10.76-3.866 21.285-3.11 32.705.802 12.052 3.159 23.842 7.033 35.149-.291.007-.582.012-.874.012zm35.977 102.642-55.046-11.221c-10.943-2.231-17.995-12.892-15.763-23.837 2.228-10.93 12.886-18 23.836-15.764l56.953 11.61c2.819 2.235 5.713 4.348 8.675 6.342-8.047 9.43-14.37 21.131-18.655 32.87z"/></g></g></svg>