<svg height="512" viewBox="0 0 46 58" width="512" xmlns="http://www.w3.org/2000/svg"><g id="Page-1" fill="none" fill-rule="evenodd"><g id="001---Happy-Boy" fill-rule="nonzero" transform="translate(0 -1)"><path id="Shape" d="m28 52h4c3.8659932 0 7 3.1340068 7 7h-32c0-3.8659932 3.1340068-7 7-7z" fill="#2980ba"/><path id="Shape" d="m28 49.29v2.71c-.0049422 1.6548028-1.3451972 2.9950578-3 3h-4c-1.6548028-.0049422-2.9950578-1.3451972-3-3v-2.71z" fill="#f09372"/><path id="Shape" d="m41 27h1.5c1.9291303.0093024 3.4906976 1.5708697 3.5 3.5 0 1.9329966-1.5670034 3.5-3.5 3.5h-39c-1.93299662 0-3.5-1.5670034-3.5-3.5.00930245-1.9291303 1.57086971-3.4906976 3.5-3.5z" fill="#f09372"/><path id="Shape" d="m40 4.07-1.352-1.92c-.1659502-.2393622-.4285341-.39389504-.7183623-.4227624-.2898283-.02886735-.5777344.07083581-.7876377.2727624-1.8908313 1.91318968-4.4526791 3.01440399-7.142 3.07-3.176-3.962-12.024-4.148-15.536-4.056-.2955882.00221046-.5750536.13508228-.7633584.3629388-.1883048.22785651-.2661528.52734857-.2126416.8180612.574 2.576-2.488 4.865-2.488 4.865-.751-2.244-3.191-2.8-4.362-2.944-.3900844-.04741357-.77123471.14061011-.971.479-3.85219871 6.556077-4.10353423 14.6217992-.667 21.405v5.568c0 9.759 7.588 18.072 17.341 18.42 4.8849408.1789631 9.6325922-1.6365009 13.1517822-5.0291366 3.5191899-3.3926356 5.5072361-8.0706455 5.5072178-12.9588634v-6c3.532994-6.9800922 3.1535904-15.3004133-1-21.93z" fill="#f9c795"/><path id="Shape" d="m40 4.07-1.352-1.92c-.1659502-.2393622-.4285341-.39389504-.7183623-.4227624-.2898283-.02886735-.5777344.07083581-.7876377.2727624-1.8908313 1.91318968-4.4526791 3.01440399-7.142 3.07-3.176-3.962-12.024-4.148-15.536-4.056-.2955882.00221046-.5750536.13508228-.7633584.3629388-.1883048.22785651-.2661528.52734857-.2126416.8180612.574 2.576-2.488 4.865-2.488 4.865-.751-2.244-3.191-2.8-4.362-2.944-.3900844-.04741357-.77123471.14061011-.971.479-3.85219871 6.556077-4.10353423 14.6217992-.667 21.405v5.568c0 9.759 7.588 18.072 17.341 18.42 4.8849408.1789631 9.6325922-1.6365009 13.1517822-5.0291366 3.5191899-3.3926356 5.5072361-8.0706455 5.5072178-12.9588634v-6c3.532994-6.9800922 3.1535904-15.3004133-1-21.93z" fill="#f9c795"/><path id="Shape" d="m38.85 23.61c-.25.79-.53 1.58-.87 2.39v6c0 10.16-7.01 18.35-15.53 17.99-8.11-.35-14.43-8.66-14.43-18.42v-5.57c-.34-.81-.63-1.61-.87-2.39.85014335-1.0312174 1.64140185-2.1095993 2.37-3.23 4.77.51 15.47.9 24.48-4.35 1.3173976 2.7061139 2.944994 5.2498625 4.85 7.58z" fill="#fdd7ad"/><path id="Shape" d="m41 26c-2.8480766-2.9304344-5.2110323-6.2959585-7-9.97-9.01 5.25-19.71 4.86-24.48 4.35-1.31289252 2.0212543-2.82730064 3.9042131-4.52 5.62-3.43470637-6.78186-3.18338627-14.8452034.667-21.4.19976529-.33838989.5809156-.52641357.971-.479 1.171.14 3.611.7 4.362 2.944 0 0 3.062-2.289 2.488-4.865-.0535112-.29071263.0243368-.59020469.2126416-.8180612.1883048-.22785652.4677702-.36072834.7633584-.3629388 3.512-.097 12.36.089 15.536 4.051 2.6893209-.05559601 5.2511687-1.15681032 7.142-3.07.2097668-.20203002.4975826-.30190155.7874033-.27322739.2898207.02867415.552486.18300895.7185967.42222739l1.352 1.921c4.1535904 6.6295867 4.532994 14.9499078 1 21.93z" fill="#35495e"/><circle id="Oval" cx="14" cy="30" fill="#fff" r="3"/><circle id="Oval" cx="14" cy="30" fill="#2c3e50" r="2"/><path id="Shape" d="m17 38h12c.5522847 0 1 .4477153 1 1 0 3.8659932-3.1340068 7-7 7s-7-3.1340068-7-7c0-.5522847.4477153-1 1-1z" fill="#35495e"/><path id="Shape" d="m26.83 44.86c-2.3268313 1.5209671-5.3331687 1.5209671-7.66 0 .5018671-1.6968802 2.0604596-2.8612441 3.83-2.8612441s3.3281329 1.1643639 3.83 2.8612441z" fill="#cc4b4c"/><path id="Shape" d="m24 35h-2c-.5522847 0-1-.4477153-1-1s.4477153-1 1-1h2c.5522847 0 1 .4477153 1 1s-.4477153 1-1 1z" fill="#f09372"/><path id="Shape" d="m15 26h-3c-.5522847 0-1-.4477153-1-1s.4477153-1 1-1h3c.5522847 0 1 .4477153 1 1s-.4477153 1-1 1z" fill="#35495e"/><circle id="Oval" cx="13" cy="29" fill="#fff" r="1"/><circle id="Oval" cx="32" cy="30" fill="#fff" r="3"/><circle id="Oval" cx="32" cy="30" fill="#2c3e50" r="2"/><path id="Shape" d="m31 26h3c.5522847 0 1-.4477153 1-1s-.4477153-1-1-1h-3c-.5522847 0-1 .4477153-1 1s.4477153 1 1 1z" fill="#35495e"/><circle id="Oval" cx="31" cy="29" fill="#fff" r="1"/></g></g></svg>