<svg height="512" viewBox="0 0 52 58" width="512" xmlns="http://www.w3.org/2000/svg"><g id="Page-1" fill="none" fill-rule="evenodd"><g id="065---Happy-Girl" fill-rule="nonzero" transform="translate(-1)"><path id="Shape" d="m32 51h4c3.8659932 0 7 3.1340068 7 7h-32c0-3.8659932 3.1340068-7 7-7z" fill="#955ba5"/><path id="Shape" d="m32 48.49v2.51c0 1.6568542-1.3431458 3-3 3h-4c-1.6548028-.0049422-2.9950578-1.3451972-3-3v-2.51z" fill="#f09372"/><path id="Shape" d="m27 7.5c-34.4 16.031-20.675 41.5 0 41.5s34.4-25.469 0-41.5z" fill="#f9c795"/><path id="Shape" d="m27 7.5c-26.255 16.031-15.778 41.5 0 41.5s26.255-25.469 0-41.5z" fill="#fdd7ad"/><path id="Shape" d="m28 38h-2c-.5522847 0-1-.4477153-1-1s.4477153-1 1-1h2c.5522847 0 1 .4477153 1 1s-.4477153 1-1 1z" fill="#f09372"/><path id="Shape" d="m30 42c.0000702.7955351-.3165773 1.5583676-.88 2.12-.0419225.0452239-.0888965.0854873-.14.12-1.1254846 1.0134303-2.8345154 1.0134303-3.96 0-.6524448-.5606522-1.0254386-1.3797759-1.02-2.24 0-.5522847.4477153-1 1-1h4c.2652165 0 .5195704.1053568.7071068.2928932s.2928932.4418903.2928932.7071068z" fill="#35495e"/><path id="Shape" d="m19 28h-3c-.5522847 0-1-.4477153-1-1s.4477153-1 1-1h3c.5522847 0 1 .4477153 1 1s-.4477153 1-1 1z" fill="#a56a43"/><path id="Shape" d="m18 41h-1c-.5522847 0-1-.4477153-1-1s.4477153-1 1-1h1c.5522847 0 1 .4477153 1 1s-.4477153 1-1 1z" fill="#fb7b76"/><path id="Shape" d="m37 41h-1c-.5522847 0-1-.4477153-1-1s.4477153-1 1-1h1c.5522847 0 1 .4477153 1 1s-.4477153 1-1 1z" fill="#fb7b76"/><path id="Shape" d="m53 26.11c.0119186 8.2277132-3.8712606 15.9755271-10.47 20.89.566315-1.3277782 1.0017116-2.7076503 1.3-4.12 1.45-6.5 1.3-15.1 1.21-17.9-.0239895-.6269797-.3381064-1.2071722-.85-1.57-6.1-4.45-17.19-4.36-17.19-4.36-1.4803005.0145181-2.9588933.1046355-4.43.27-.42-6.73 1.33-9.18 1.42-9.31-.19.11-6 3.53-6.87 10.26-2.6130839.5756796-5.0934725 1.6411269-7.31 3.14-.51189357.3628278-.82601054.9430203-.85 1.57-.09 2.8-.24 11.4 1.21 17.9.2982884 1.4123497.733685 2.7922218 1.3 4.12-8.82195399-6.5865927-12.55365384-18.0061244-9.32346956-28.5311416 3.23018428-10.52501706 12.72545506-17.88512049 23.72346956-18.3888584.37-.02.75-.03 1.13-.03s.75.01 1.12.03c3.0714662.12590948 6.0956956.79984188 8.93 1.99l13.19 12.35c1.8229797 3.6266811 2.7683812 7.630936 2.76 11.69z" fill="#805333"/><path id="Shape" d="m43.83 42.88c1.45-6.5 1.3-15.1 1.21-17.9-.0239895-.6269797-.3381064-1.2071722-.85-1.57-6.1-4.45-17.19-4.36-17.19-4.36-1.4803005.0145181-2.9588933.1046355-4.43.27-.42-6.73 1.33-9.18 1.42-9.31-.19.11-6 3.53-6.87 10.26-2.6130839.5756796-5.0934725 1.6411269-7.31 3.14-.51189357.3628278-.82601054.9430203-.85 1.57-.09 2.8-.24 11.4 1.21 17.9-3.42044018-4.9187357-5.22714373-10.7791648-5.17-16.77 0-13.94 9.24-25.33 20.87-26.03.37-.02.75-.03 1.13-.03s.75.01 1.12.03c2.5691266.15825858 5.0795888.83519894 7.38 1.99l11.16 12.35c1.5599808 3.6991074 2.3559279 7.6754412 2.34 11.69.0571437 5.9908352-1.7495598 11.8512643-5.17 16.77z" fill="#a56a43"/><path id="Shape" d="m47.436 7.867c1.312914-.47356953 2.7512965-.46577342 4.059.022.5412474.14910755.9949039.51883565 1.25015 1.01886694.2552461.50003128.2885768 1.084319.09185 1.61013306-.3621918.7802209-.9650428 1.4237292-1.72 1.836-.0935117.8552183-.4595229 1.6577083-1.044 2.289-.4114497.3820108-.9645214.5734866-1.5240944.527648-.5595729-.0458386-1.0741103-.3247698-1.4179056-.768648-.9477879-1.0241087-1.5019271-2.3509959-1.564-3.745l-4.985-3.339c-1.3125459.47425045-2.7507119.46787278-4.059-.018-.5412474-.14910755-.9949039-.51883565-1.25015-1.01886694-.2552461-.50003128-.2885768-1.084319-.09185-1.61013306.3603336-.78215641.9631229-1.42737589 1.719-1.84.093371-.85506048.4590065-1.65749534 1.043-2.289.4113534-.38246121.9645734-.57431967 1.5243984-.52866626.5598249.04565341 1.0746502.32461036 1.4186016.76866626.9480054 1.02436775 1.5021606 2.35164729 1.564 3.746z" fill="#ff5364"/><path id="Shape" d="m20 34c-.4471387-.0000063-.8399311-.2968463-.962-.727-.1414179-.7377699-.7867986-1.2711916-1.538-1.2711916s-1.3965821.5334217-1.538 1.2711916c-.0960794.3453889-.3696979.6129191-.7171611.7012032-.3474632.0882842-.7156007-.0161873-.9648976-.2738223s-.3416048-.6290091-.2419413-.9733809c.3853028-1.5997433 1.8165102-2.7271673 3.462-2.7271673s3.0766972 1.127424 3.462 2.7271673c.0855783.3015659.0247941.6258106-.1642003.875904s-.4843262.3970916-.7977997.397096z" fill="#3d324c"/><path id="Shape" d="m38 28h-3c-.5522847 0-1-.4477153-1-1s.4477153-1 1-1h3c.5522847 0 1 .4477153 1 1s-.4477153 1-1 1z" fill="#a56a43"/><path id="Shape" d="m39 34c-.4471387-.0000063-.8399311-.2968463-.962-.727-.1414179-.7377699-.7867986-1.2711916-1.538-1.2711916s-1.3965821.5334217-1.538 1.2711916c-.0960794.3453889-.3696979.6129191-.7171611.7012032-.3474632.0882842-.7156007-.0161873-.9648976-.2738223s-.3416048-.6290091-.2419413-.9733809c.3853028-1.5997433 1.8165102-2.7271673 3.462-2.7271673s3.0766972 1.127424 3.462 2.7271673c.0855783.3015659.0247941.6258106-.1642003.875904s-.4843262.3970916-.7977997.397096z" fill="#3d324c"/><rect id="Rectangle-path" fill="#fb7b76" height="6" rx="1" transform="matrix(.831 .557 -.557 .831 11.672 -23.209)" width="6" x="41.01" y="4.592"/><path id="Shape" d="m29 44c.0032875.0805193-.0034305.1611354-.02.24-1.1254846 1.0134303-2.8345154 1.0134303-3.96 0-.0165695-.0788646-.0232875-.1594807-.02-.24 0-1.1045695.8954305-1.9999999 2-1.9999999s2 .8954304 2 1.9999999z" fill="#cc4b4c"/></g></g></svg>