<svg id="Capa_1" enable-background="new 0 0 512 512" height="512" viewBox="0 0 512 512" width="512" xmlns="http://www.w3.org/2000/svg"><g><path d="m473.367 334.809-10.714-3.157c-7.29-2.187-12.338-8.79-12.573-16.356l-40.799-2.953-1.193 2.399c0 7.797-5.114 14.67-12.582 16.911l-30.338 9.102c-11.202 3.36-18.873 13.671-18.873 25.366l115.547 8.068z" fill="#c6805d"/><path d="m375.765 352.708 13.824-4.147c11.66-3.494 20.299-12.447 23.616-23.602.926-3.113 3.781-5.269 7.025-5.111 1.113.054 2.233.084 3.359.084 9.334 0 18.172-1.681 26.491-4.638-.006-.187-.009-.366-.009-.554v-30.119h-52.966v30.118c0 7.797-5.114 14.67-12.582 16.911l-10.45 3.135z" fill="#af6e4d"/><path d="m493.128 340.737-19.76-5.929c-12.757 12.616-30.284 20.418-49.643 20.418-11.413 0-22.189-2.712-31.727-7.523l-28.652-1.969c-11.201 3.36-18.873 13.671-18.873 25.366v33.278l8.631 12.657h141.241c9.751 0 17.655-7.904 17.655-17.655v-33.278c0-11.694-7.671-22.004-18.872-25.365z" fill="#ffe077"/><path d="m353.103 366.102c0-3.901 2.559-7.339 6.295-8.46l32.599-9.938c-6.743-3.367-12.612-7.649-17.917-12.895l-19.76 5.928c-11.202 3.36-18.873 13.671-18.873 25.366 0 2.1-.072 20.8-.135 33.061-.051 9.861 7.929 17.873 17.79 17.873v-50.935z" fill="#ffd05b"/><path d="m114.759 125.726h-52.966c-29.252 0-52.966 23.713-52.966 52.966v44.138h158.897v-44.138c0-29.253-23.713-52.966-52.965-52.966z" fill="#d48c64"/><path d="m61.793 125.726c-29.252 0-52.966 23.713-52.966 52.966v44.138h52.966z" fill="#c6805d"/><path d="m138.054 334.809-10.714-3.157c-7.29-2.187-12.338-8.79-12.573-16.356l-40.799-2.953-1.193 2.399c0 7.797-5.114 14.67-12.582 16.911l-30.338 9.102c-11.202 3.36-18.873 13.671-18.873 25.366l115.547 8.068z" fill="#fbbd80"/><path d="m40.452 352.708 13.824-4.147c11.66-3.494 20.299-12.447 23.616-23.602.926-3.113 3.781-5.269 7.025-5.111 1.113.054 2.232.084 3.359.084 9.334 0 18.172-1.681 26.491-4.638-.006-.187-.009-.366-.009-.554v-30.119h-52.965v30.118c0 7.797-5.114 14.67-12.582 16.911l-10.45 3.135z" fill="#f4aa73"/><path d="m176.31 219.864c-1.412-8.681-9.564-14.69-18.358-14.69h-7.883c-6.825 0-12.746-3.873-15.685-9.542-2.635-5.084-6.925-9.104-12.54-10.227l-67.148-13.43c-5.462-1.092-10.559 3.086-10.559 8.656v6.887c0 9.751-7.904 17.655-17.655 17.655h-7.883c-8.795 0-16.946 6.01-18.358 14.69-1.799 11.061 6.691 20.62 17.413 20.62h8.828c0 34.127 27.666 61.793 61.793 61.793s61.793-27.666 61.793-61.793h8.828c10.723.001 19.213-9.558 17.414-20.619z" fill="#ffd18d"/><path d="m17.655 240.484h8.828c0 34.127 27.666 61.793 61.793 61.793 5.923 0 11.633-.883 17.056-2.439.112-.067.21-.187.33-.224-25.382-7.685-43.869-31.24-43.869-59.131v-67.09l-7.096-1.419c-5.462-1.092-10.559 3.086-10.559 8.656v6.887c0 9.751-7.905 17.655-17.655 17.655h-7.883c-8.795 0-16.946 6.01-18.358 14.69-1.799 11.063 6.691 20.622 17.413 20.622z" fill="#fbbd80"/><path d="m88.276 275.795c-8.655 0-17.026-3.25-23.569-9.147-3.621-3.263-3.905-8.845-.647-12.466 3.276-3.634 8.853-3.914 12.474-.647 6.586 5.94 16.897 5.94 23.483 0 3.612-3.267 9.181-2.987 12.474.647 3.259 3.621 2.974 9.203-.647 12.466-6.542 5.897-14.913 9.147-23.568 9.147z" fill="#f4aa73"/><circle cx="61.793" cy="222.829" fill="#af6e4d" r="8.828"/><circle cx="114.759" cy="222.829" fill="#af6e4d" r="8.828"/><path d="m157.815 340.737-19.76-5.929c-12.757 12.616-30.284 20.418-49.643 20.418-11.413 0-22.189-2.712-31.727-7.523l-28.652-1.969c-11.201 3.36-18.873 13.671-18.873 25.366v33.278l8.631 12.657h141.241c9.751 0 17.655-7.904 17.655-17.655v-33.278c0-11.694-7.671-22.004-18.872-25.365z" fill="#8ceea1"/><path d="m17.791 366.102c0-3.901 2.559-7.339 6.295-8.46l32.599-9.938c-6.743-3.367-12.612-7.649-17.917-12.895l-19.76 5.928c-11.202 3.36-18.873 13.671-18.873 25.366 0 2.1-.072 20.8-.135 33.061-.051 9.861 7.929 17.873 17.79 17.873v-50.935z" fill="#4ce1a1"/><path d="m423.724 116.898c-9.228 0-18.125 1.416-26.486 4.042l-19.632 101.889 37.291 52.966h79.448c9.751 0 17.655-7.905 17.655-17.655v-52.966c0-48.754-39.523-88.276-88.276-88.276z" fill="#615260"/><path d="m397.238 120.94c-35.812 11.251-61.79 44.708-61.79 84.234v17.655l61.793 41.196z" fill="#4e3d4d"/><path d="m454.492 194.832-57.25-19.083-19.636 49.009c0 34.759 13.024 76.254 48.02 75.203 5.413-.163 15.569-.291 15.569-.291 25.929-7.993 44.323-33.358 44.323-61.778v-.016c-.001-19.529-12.498-36.868-31.026-43.044z" fill="#d48c64"/><path d="m397.241 240.484v-64.736l-6.036-2.012c-5.716-1.905-11.619 2.349-11.619 8.374v5.408c0 9.751-7.905 17.655-17.655 17.655h-7.883c-8.795 0-16.946 6.009-18.358 14.69-1.8 11.061 6.691 20.621 17.413 20.621h8.828c0 34.759 28.699 62.815 63.695 61.765 5.393-.162 10.643-1.065 15.568-2.578-25.382-7.685-43.953-31.296-43.953-59.187z" fill="#c6805d"/><path d="m423.724 275.795c-8.655 0-17.026-3.25-23.569-9.147-3.621-3.263-3.905-8.845-.647-12.466 3.276-3.634 8.853-3.914 12.474-.647 6.586 5.94 16.897 5.94 23.483 0 3.612-3.267 9.181-2.987 12.474.647 3.259 3.621 2.974 9.203-.647 12.466-6.542 5.897-14.913 9.147-23.568 9.147z" fill="#af6e4d"/><circle cx="397.241" cy="222.829" fill="#70393c" r="8.828"/><circle cx="450.207" cy="222.829" fill="#70393c" r="8.828"/><path d="m256 116.882c-48.754 0-88.276 39.522-88.276 88.276v17.655h176.552v-17.655c0-48.754-39.523-88.276-88.276-88.276z" fill="#845252"/><path d="m229.517 120.936c-35.812 11.251-61.793 44.697-61.793 84.222v17.655h61.793z" fill="#7a4646"/><path d="m255.972 116.882-49.312 21.191c-5.826 2.504-12.313-1.769-12.313-8.11v-26.162c0-6.341 6.487-10.614 12.313-8.11z" fill="#ff7e92"/><path d="m256.168 116.882 49.312-21.191c5.826-2.504 12.313 1.769 12.313 8.11v26.162c0 6.341-6.487 10.614-12.313 8.11z" fill="#ff7e92"/><path d="m305.779 334.809-10.714-3.157c-7.29-2.187-12.338-8.79-12.573-16.356l-40.799-2.953-1.193 2.399c0 7.797-5.114 14.67-12.582 16.911l-30.338 9.102c-11.202 3.36-18.873 13.671-18.873 25.366l115.547 8.068z" fill="#e29a6c"/><path d="m208.176 352.708 13.824-4.146c11.66-3.494 20.299-12.447 23.616-23.602.926-3.113 3.781-5.269 7.025-5.111 1.113.054 2.232.084 3.359.084 9.334 0 18.172-1.681 26.491-4.638-.006-.187-.009-.366-.009-.554v-30.119h-52.966v30.118c0 7.797-5.114 14.67-12.582 16.911l-10.45 3.135z" fill="#d48c64"/><path d="m344.034 219.864c-1.412-8.681-9.564-14.69-18.358-14.69h-7.883c-6.825 0-12.746-3.873-15.685-9.542-2.635-5.084-6.925-9.104-12.54-10.227l-67.148-13.43c-5.462-1.092-10.559 3.086-10.559 8.656v6.887c0 9.751-7.904 17.655-17.655 17.655h-7.883c-8.795 0-16.946 6.01-18.358 14.69-1.799 11.061 6.691 20.62 17.413 20.62h8.828c0 34.127 27.666 61.793 61.793 61.793s61.793-27.666 61.793-61.793h8.828c10.723.001 19.213-9.558 17.414-20.619z" fill="#f4aa73"/><path d="m185.379 240.484h8.828c0 34.127 27.666 61.793 61.793 61.793 5.923 0 11.633-.883 17.056-2.439.112-.067.21-.187.33-.224-25.382-7.685-43.869-31.24-43.869-59.131v-67.09l-7.096-1.419c-5.462-1.092-10.559 3.086-10.559 8.656v6.887c0 9.751-7.905 17.655-17.655 17.655h-7.883c-8.795 0-16.946 6.01-18.358 14.69-1.799 11.063 6.691 20.622 17.413 20.622z" fill="#e29a6c"/><path d="m256 275.795c-8.655 0-17.026-3.25-23.569-9.147-3.621-3.263-3.905-8.845-.647-12.466 3.276-3.634 8.853-3.914 12.474-.647 6.586 5.94 16.897 5.94 23.483 0 3.612-3.267 9.181-2.987 12.474.647 3.259 3.621 2.974 9.203-.647 12.466-6.542 5.897-14.913 9.147-23.568 9.147z" fill="#d48c64"/><circle cx="229.517" cy="222.829" fill="#7a4646" r="8.828"/><circle cx="282.483" cy="222.829" fill="#7a4646" r="8.828"/><path d="m325.539 340.737-19.76-5.929c-12.757 12.616-30.284 20.418-49.643 20.418-11.413 0-22.189-2.712-31.727-7.523l-28.652-1.969c-11.201 3.36-18.873 13.671-18.873 25.366v33.278l8.631 12.657h141.241c9.751 0 17.655-7.904 17.655-17.655v-33.278c0-11.694-7.671-22.004-18.872-25.365z" fill="#ff7e92"/><path d="m185.515 366.102c0-3.901 2.559-7.339 6.295-8.46l32.599-9.938c-6.743-3.367-12.612-7.649-17.917-12.895l-19.76 5.928c-11.202 3.36-18.873 13.671-18.873 25.366 0 2.1-.072 20.8-.135 33.061-.051 9.861 7.929 17.873 17.79 17.873v-50.935z" fill="#ff5f7a"/></g></svg>