<svg id="Capa_1" enable-background="new 0 0 512.166 512.166" height="512" viewBox="0 0 512.166 512.166" width="512" xmlns="http://www.w3.org/2000/svg"><g><path d="m316.686 370.676-45.54 133.99h-33.97c-106.26-58.96-60.79-134.57-34.92-165.65h77.85c13.21 7.62 25.61 18.17 36.58 31.66z" fill="#83deff"/><path d="m237.176 504.666h-56.39l-44.9-134.77c10.81-13.12 22.99-23.41 35.95-30.88h38.8c-14.01 43.51-25.46 115.49 26.54 165.65z" fill="#5ad6ff"/><path d="m474.436 162.076c0 35.35-57.31 64-128 64v-128c70.69 0 128 28.66 128 64z" fill="#687daa"/><path d="m278.676 357.796c0 31.22-23.6 56.52-52.71 56.52-9.92 0-19.2-2.94-27.13-8.05 0 0-.01 0-.01-.01-.5-.79-27.85-44.07 11.81-67.24h65.06c1.93 5.87 2.98 12.19 2.98 18.78z" fill="#ffbf9d"/><path d="m210.636 339.016c-5.97 18.54-11.48 42.26-11.8 67.25 0 0-.01 0-.01-.01-15.32-9.89-25.57-27.88-25.57-48.46 0-6.59 1.05-12.91 2.99-18.78z" fill="#ffac89"/><ellipse cx="75.377" cy="222.315" fill="#ffd4bd" rx="37.647" ry="33.882"/><ellipse cx="376.553" cy="222.315" fill="#ffbf9d" rx="37.647" ry="33.882"/><path d="m376.556 226.746c0 82.84-67.46 149.92-150.59 149.92-7.42 0-14.71-.53-21.84-1.57-144.64-68.65-113.59-158.47-74.05-213.02h231.79c9.41 19.58 14.69 41.51 14.69 64.67z" fill="#ffd4bd"/><path d="m204.126 375.096c-72.83-10.53-128.75-72.94-128.75-148.35 0-23.16 5.28-45.09 14.7-64.67h50.84c-27.03 51.73-44.37 136.5 63.21 213.02z" fill="#ffbf9d"/><path d="m181.248 251.185c0 30.475-57.839 30.475-57.839 0s57.839-30.475 57.839 0z" fill="#ffa1ac"/><path d="m280.163 251.185c0 30.475 57.839 30.475 57.839 0s-57.839-30.475-57.839 0z" fill="#ffa1ac"/><path d="m367.426 187.036c-32.53-10.86-65.44-16.57-96.96-18.9l-6.11-4.48-10.59 3.55c-7.99-.3-15.87-.4-23.6-.32-146.39-59.86-7.66-159.27-7.66-159.27 13.86-.67 28.28 1.49 44.42 7.87 47.77 18.87 85.23 25.81 96.05 77.2l17.05 81.08c1.76 8.37-5.23 15.73-12.6 13.27z" fill="#7888af"/><path d="m230.166 166.886c-65.32.65-120.27 13.78-146.24 21.19-7.28 2.08-13.93-5.22-12.21-13.4 15.82-75.26 16.64-121.04 63.34-139.46 33.42-13.19 59.29-26.24 87.45-27.6-15.39 31.15-42.73 104.66 7.66 159.27z" fill="#687daa"/><path d="m180.786 504.666h-30.14l-7.5-5.22-7.5 5.22h-2.73c-21.04 0-55.28-28.4-17.02-98.32 6.1-11.17 1.08-16.37-16.88-52.85-3.27-6.65 1.49-14.48 8.8-14.48 27.25 0 43.37-2.87 59.14 12.33 18 17.33 13.83 24.59 13.83 153.32z" fill="#fd5c6f"/><path d="m336.036 406.346c38.25 69.92 4.01 98.32-17.02 98.32h-2.73l-7.5-5.22-7.5 5.22h-30.14c0-128.73-4.17-135.99 13.83-153.32 15.77-15.2 31.89-12.33 59.14-12.33 7.31 0 12.07 7.83 8.8 14.48-17.96 36.48-22.98 41.68-16.88 52.85z" fill="#ff6e80"/><path d="m271.186 120.666h-1.6l-5.23 5.51-11.13-5.51h-48.41c-30.28-20.55-1.22-59.32-.62-60.12.01-.01.01-.01.01-.01 17.32-7.24 20.79-9.2 27.33-6.54 37.01 15.06 30.47 5.9 45.14 59.47.99 3.62-1.74 7.2-5.49 7.2z" fill="#ffaa75"/><path d="m204.816 120.666h-24.06c-3.76 0-6.49-3.58-5.49-7.2 10.66-38.77 10.81-45.51 21.72-49.95 2.65-1.08 5.05-2.07 7.22-2.98-3.69 18.74-4.66 39.59.61 60.13z" fill="#ff9a5c"/></g><g><path d="m370.433 91.673c-11.705-55.671-51.58-63.744-100.743-83.158-34.305-13.556-60.896-8.452-82.384-1.671-3.95 1.246-6.142 5.459-4.896 9.409 1.247 3.95 5.46 6.142 9.409 4.896 42.231-13.326 61.626-2.55 90.47 8.21 39.012 14.552 64.784 24.166 73.354 64.875l17.051 81.075c.5 2.377-1.023 5.233-2.882 4.615-27.007-9.013-54.214-14.558-80.689-17.602 9.098-20.862-.671-39.888-3.501-44.681-9.013-32.209-10.828-44.394-16.955-52.621-6.335-8.507-15.283-10.238-34.296-17.974-10.65-4.334-16.309-.198-40.204 9.526-15.53 6.32-15.367 16.661-28.12 62.066-1.343 4.78 2.255 9.528 7.221 9.528h100.965c2.825 6.036 7.087 19.261-1.218 32.597-83.169-6.553-156.959 10.339-191.137 20.098-1.788.504-3.336-2.174-2.816-4.646 13.137-62.471 17.2-92.711 28.883-110.313 8.94-13.471 23.028-20.831 53.275-33.236 3.832-1.572 5.665-5.953 4.093-9.785s-5.953-5.666-9.785-4.093c-32.606 13.373-49.018 22.152-60.081 38.82-13.561 20.433-17.49 50.972-31.064 115.521-.639 3.039-.544 6.129.194 9.023-19.446 4.361-34.343 20.405-34.343 40.163 0 22.299 18.98 39.873 42.047 41.287 6.161 25.534 18.426 48.628 35.715 67.913-.058 0-.114.001-.173.001-12.841 0-21.261 13.634-15.529 25.292 18.04 36.652 20.883 38.884 17.029 45.938-25.084 45.845-19.745 73.359-10.849 88.367 7.581 12.789 21.103 21.053 34.448 21.053h186.1c13.346 0 26.868-8.264 34.448-21.053 8.896-15.008 14.235-42.522-10.846-88.363-3.859-7.065-1.002-9.31 17.028-45.945 5.735-11.664-2.701-25.289-15.53-25.289-.062 0-.122-.001-.184-.001 17.292-19.293 29.54-42.467 35.76-67.893 24.872-1.419 42.087-20.9 42.059-41.478 7.534-2.516 18.378-7.321 27.802-13.227 65.149-40.824 28.548-107.393-79.126-117.244zm-187.306 21.494c9.944-36.37 9.982-39.97 16.693-42.701 23.355-9.505 24.984-11.118 28.896-9.526 17.645 7.179 24.687 8.699 27.919 13.039 3.652 4.904 6.256 17.344 12.191 39.187h-85.699zm-137.893 109.148c0-12.631 10.521-24.088 25.624-26.072-3.387 17.132-3.875 34.685-1.495 51.943-13.092-2.328-24.129-12.584-24.129-25.871zm66.144 261.149c-13.176-22.228 1.302-55.603 11.107-73.523 8.269-15.136 1.195-23.329-16.731-59.755-.819-1.665.305-3.67 2.069-3.67 27.283 0 40.609-2.609 53.939 10.234 14.991 14.428 11.687 20.118 11.536 140.416h-22.648v-37.676c0-4.142-3.358-7.5-7.5-7.5s-7.5 3.358-7.5 7.5v37.676h-2.727c-6.682 0-15.934-4.237-21.545-13.702zm152.504-98.999c-17.877 29.839-58.095 29.767-75.89-.121-.116-1.706-.248-3.325-.4-4.86 12.557 3.112 25.468 4.673 38.381 4.673 12.897 0 25.794-1.557 38.328-4.663-.161 1.574-.3 3.227-.419 4.971zm82.184-36.833c1.05 1.683.705 1.577-7.865 18.524-11.742 23.224-15.698 31.047-8.736 43.79 9.802 17.916 24.279 51.291 11.104 73.519-5.61 9.465-14.863 13.701-21.545 13.701h-2.727v-37.676c0-9.923-15-9.923-15 0v37.676h-22.648c-.012-9.734-.048-19.663-.107-30.14-.056-9.921-15.056-9.835-15 .086.06 10.448.095 20.347.107 30.053h-75.349l.387-89.029c21.655 18.214 52.871 18.228 74.541.031-.034 8.174.031 17.621.108 28.651.07 9.922 15.068 9.818 15-.104-.419-60.344-.729-67.857 11.853-79.967 11.268-10.855 22.424-10.677 42.68-10.348 12.257.197 12.243-.296 13.197 1.233zm-22.983-16.323c-16.42.083-30.165 1.977-43.301 14.633-5.729 5.513-9.512 10.465-11.996 17.034-27.064 8.229-56.446 8.239-83.551.03-2.485-6.739-6.288-11.499-12.067-17.061-13.144-12.663-26.896-14.554-43.322-14.636-38.521-35.454-53.596-87.314-42.436-136.141 46.061-13.106 164.502-39.11 278.655-1.016.104.035.208.06.312.093 11.634 47.342-3.253 101.151-42.294 137.064zm80.43-97.29c-3.538 6.178-10.631 12.432-20.832 14.194 2.483-17.456 1.981-35.022-1.49-51.965 19.089 2.527 31.893 21.062 22.322 37.771zm15.164-26.696c-5.306-12.329-16.761-22.104-31.707-25.297 1.959-6.541 1.832-3.008-13.296-74.94 53.042 5.981 93.27 29.256 93.27 54.989 0 24.103-34.114 40.099-48.267 45.248z"/><path d="m169.191 204.964c-21.98 0-27.648 28.659-13.765 28.659 4.142 0 7.5-3.358 7.5-7.5 0-5.715 4.795-6.159 6.265-6.159s6.265.444 6.265 6.159c0 4.142 3.358 7.5 7.5 7.5 13.77 0 8.272-28.659-13.765-28.659z"/><path d="m292.236 204.964c-10.309 0-21.265 7.416-21.265 21.159 0 4.142 3.357 7.5 7.5 7.5s7.5-3.358 7.5-7.5c0-5.715 4.795-6.159 6.265-6.159s6.265.444 6.265 6.159c0 4.142 3.357 7.5 7.5 7.5s7.5-3.358 7.5-7.5c-.001-13.743-10.957-21.159-21.265-21.159z"/><path d="m250.242 236.558c-3.125-2.722-7.861-2.396-10.582.727-4.745 5.446-13.148 5.445-17.895 0-2.72-3.123-7.459-3.448-10.582-.726s-3.448 7.459-.726 10.582c5.109 5.862 12.492 9.224 20.256 9.224s15.146-3.362 20.255-9.225c2.723-3.124 2.397-7.861-.726-10.582z"/></g></svg>