<?xml version="1.0" encoding="UTF-8"?>
<svg xmlns="http://www.w3.org/2000/svg" viewBox="0 0 64 64" width="512" height="512"><g id="Layer_31" data-name="Layer 31"><path d="M17,23h1a0,0,0,0,1,0,0v8a0,0,0,0,1,0,0H17a4,4,0,0,1-4-4v0A4,4,0,0,1,17,23Z" style="fill:#f9b995"/><path d="M50,23h1a0,0,0,0,1,0,0v8a0,0,0,0,1,0,0H50a4,4,0,0,1-4-4v0A4,4,0,0,1,50,23Z" transform="translate(97 54) rotate(180)" style="fill:#ffd3b6"/><path d="M29,47h6A16,16,0,0,1,51,63v0a0,0,0,0,1,0,0H13a0,0,0,0,1,0,0v0A16,16,0,0,1,29,47Z" style="fill:#f96464"/><path d="M19,50.733q.149-.232.3-.435A15.957,15.957,0,0,0,13,63H51a16.027,16.027,0,0,0-.291-3H24.284A6.114,6.114,0,0,1,19,50.733Z" style="fill:#ea5050"/><path d="M29,41v6q3,4,6,0V41Z" style="fill:#f9b995"/><path d="M41,50.578V46.5A1.5,1.5,0,0,0,39.5,45h0A1.5,1.5,0,0,0,38,46.5V51a2,2,0,0,1-2,2H28a2,2,0,0,1-2-2V46.5A1.5,1.5,0,0,0,24.5,45h0A1.5,1.5,0,0,0,23,46.5v4.078a8,8,0,0,1-1.344,4.437l-.32.481A2,2,0,0,0,21,56.606V63H43V56.606a2,2,0,0,0-.336-1.11l-.32-.481A8,8,0,0,1,41,50.578Z" style="fill:#98deea"/><path d="M43,60v3H21V59.05a6.011,6.011,0,0,0,3.28.95Z" style="fill:#82d0d8"/><path d="M17,17H47a0,0,0,0,1,0,0V28A15,15,0,0,1,32,43h0A15,15,0,0,1,17,28V17a0,0,0,0,1,0,0Z" style="fill:#ffd3b6"/><path d="M20,28V17H17V28A15,15,0,0,0,32,43c.506,0,1.006-.027,1.5-.076A15,15,0,0,1,20,28Z" style="fill:#f9b995"/><path d="M32,39h0a6.472,6.472,0,0,1-5.789-3.578L26,35H38l-.211.422A6.472,6.472,0,0,1,32,39Z" style="fill:#f96464"/><path d="M48,5a18.821,18.821,0,0,0-9,1l2-5c-5,0-6,1-9,3-3-2-5-3-9-3l2,5a23.362,23.362,0,0,0-9-1c1.165.327,3,4,3,4l-4,1a5.814,5.814,0,0,1,1,5H13q4,4,4,8l5-6a21.391,21.391,0,0,0,11.646,5.658A2.008,2.008,0,0,0,36,20.682V19c2.622,2.434,6.154,3.909,11,4-.458,0,.655-5.334,4-8H48a8.4,8.4,0,0,1,1-5L45,9S46.55,5.72,48,5Z" style="fill:#c67a60"/><path d="M16,15h1.134a1.984,1.984,0,0,0,2-2.081A4.911,4.911,0,0,0,18,10l1.411-.353a2,2,0,0,0,1.165-3.074C20.051,5.811,19.471,5.132,19,5c.161-.019.327-.027.49-.042A17.618,17.618,0,0,0,16,5c1.165.327,3,4,3,4l-4,1A5.814,5.814,0,0,1,16,15Z" style="fill:#b26049"/><path d="M16,15H13q4,4,4,8l2.455-2.945A14.316,14.316,0,0,0,16,15Z" style="fill:#b26049"/><path d="M42,47.516V46.5a2.494,2.494,0,0,0-4.963-.363c-.345-.042-.689-.073-1.037-.093V43.473A16.028,16.028,0,0,0,47.486,31.951a4.984,4.984,0,0,0,.492-9.852,11.974,11.974,0,0,1,3.646-6.317A1,1,0,0,0,51,14H48.9a9.664,9.664,0,0,1,1.011-3.591,1,1,0,0,0-.669-1.379l-2.765-.691A7.089,7.089,0,0,1,48.445,5.9,1,1,0,0,0,48.1,4.005a21.3,21.3,0,0,0-7.386.4l1.212-3.029A1,1,0,0,0,41,0c-4.871,0-6.273.949-8.818,2.672l-.188.127A14.413,14.413,0,0,0,23,0a1,1,0,0,0-.929,1.371l1.271,3.176a21.986,21.986,0,0,0-7.461-.54,1,1,0,0,0-.888.912.988.988,0,0,0,.715,1.037,7.84,7.84,0,0,1,1.8,2.386l-2.752.688a1,1,0,0,0-.523,1.614A4.308,4.308,0,0,1,15.125,14H13a1,1,0,0,0-.707,1.707c2.157,2.157,3.381,4.309,3.649,6.411a4.982,4.982,0,0,0,.572,9.833A16.028,16.028,0,0,0,28,43.473v2.571c-.348.02-.692.051-1.037.092A2.494,2.494,0,0,0,22,46.5v1.016A16.964,16.964,0,0,0,12,63a1,1,0,0,0,1,1H51a1,1,0,0,0,1-1A16.958,16.958,0,0,0,42,47.516Zm-15,.631a15.2,15.2,0,0,1,1.539-.127A4.632,4.632,0,0,0,32,50a4.632,4.632,0,0,0,3.461-1.98A15.2,15.2,0,0,1,37,48.147V51a1,1,0,0,1-1,1H28a1,1,0,0,1-1-1ZM50,27a3.006,3.006,0,0,1-2,2.829V24.171A3.006,3.006,0,0,1,50,27ZM16,29.829a3,3,0,0,1,0-5.658ZM18,28V23.362l3.213-3.856a6.982,6.982,0,0,0,2.9,4.107l.328.219a1,1,0,1,0,1.11-1.664l-.328-.219a4.988,4.988,0,0,1-1.943-2.518,23.817,23.817,0,0,0,10.182,4.21,2.974,2.974,0,0,0,.544.049,1,1,0,0,0,0-2,1.076,1.076,0,0,1-.185-.016,20.513,20.513,0,0,1-11.118-5.381,1,1,0,0,0-1.475.066l-3.55,4.26A12.751,12.751,0,0,0,15.238,16H16a1,1,0,0,0,.985-.829,7.54,7.54,0,0,0-.4-4.535l2.661-.666A1,1,0,0,0,19.9,8.553a20.8,20.8,0,0,0-1.562-2.66,25.85,25.85,0,0,1,6.4,1.07,1,1,0,0,0,1.2-1.334L24.5,2.056c2.811.222,4.469,1.125,6.946,2.776a1,1,0,0,0,1.11,0l.748-.5c2.12-1.434,3.157-2.137,6.206-2.294l-1.438,3.6a1,1,0,0,0,1.3,1.3A16.43,16.43,0,0,1,45.7,5.862a17.646,17.646,0,0,0-1.6,2.71,1,1,0,0,0,.661,1.4l2.874.718a7.9,7.9,0,0,0-.606,4.534A1,1,0,0,0,48,16h.652a14.416,14.416,0,0,0-2.669,5.958,14.454,14.454,0,0,1-9.3-3.691,1,1,0,1,0-1.36,1.466A16.431,16.431,0,0,0,46,23.947V28a14,14,0,0,1-28,0ZM32,44a15.9,15.9,0,0,0,2-.139v2.8A3.054,3.054,0,0,1,32,48a3.054,3.054,0,0,1-2-1.344v-2.8A15.9,15.9,0,0,0,32,44ZM22,49.736v.842a6.977,6.977,0,0,1-1.176,3.883l-.32.479a2.99,2.99,0,0,0-.5,1.665V62H14.033A14.97,14.97,0,0,1,22,49.736ZM22,62v-5.4a.994.994,0,0,1,.168-.554l.32-.481A8.969,8.969,0,0,0,24,50.578V46.5a.5.5,0,0,1,1,0V51a3,3,0,0,0,3,3h8a3,3,0,0,0,3-3V46.5a.5.5,0,0,1,1,0v4.078a8.969,8.969,0,0,0,1.512,4.992l.321.482a1,1,0,0,1,.167.553V62Zm22,0v-5.4a2.984,2.984,0,0,0-.5-1.664l-.32-.48A6.977,6.977,0,0,1,42,50.578v-.842A14.964,14.964,0,0,1,49.967,62Z"/><path d="M38.684,35.869l.211-.422A1,1,0,0,0,38,34H26a1,1,0,0,0-.895,1.447l.211.422a7.473,7.473,0,0,0,13.368,0ZM27.768,36h8.464a5.477,5.477,0,0,1-8.464,0Z"/><path d="M26,29V27a1,1,0,0,0-2,0v2a1,1,0,0,0,2,0Z"/><path d="M39,30a1,1,0,0,0,1-1V27a1,1,0,0,0-2,0v2A1,1,0,0,0,39,30Z"/><ellipse cx="21" cy="32" rx="4" ry="2" style="fill:#f2a7b1"/><ellipse cx="43" cy="32" rx="4" ry="2" style="fill:#f2a7b1"/></g></svg>
