<?xml version="1.0" encoding="UTF-8"?>
<svg xmlns="http://www.w3.org/2000/svg" xmlns:xlink="http://www.w3.org/1999/xlink" version="1.1" id="Capa_1" x="0px" y="0px" viewBox="0 0 511.677 511.677" style="enable-background:new 0 0 511.677 511.677;" xml:space="preserve" width="512" height="512">
<g>
	<path style="fill:#687DAA;" d="M239.649,74.617l89.056,73.237c0,62.59-10.809,166.357,85.752,255.161&#10;&#9;&#9;c11.749,10.806,30.746,2.455,30.746-13.509V115.17C445.206-2.614,283.04-34.884,239.649,74.617z"/>
	<ellipse style="fill:#83DEFF;" cx="348.826" cy="82.528" rx="48.941" ry="45.176"/>
	<path style="fill:#FED2A4;" d="M66.473,229.351c0-18.713,16.855-33.882,37.647-33.882s37.647,15.17,37.647,33.882&#10;&#9;&#9;s-16.855,33.882-37.647,33.882S66.473,248.064,66.473,229.351z"/>
	<ellipse style="fill:#FFBD86;" cx="405.297" cy="229.351" rx="37.647" ry="33.882"/>
	<path style="fill:#FFACD0;" d="M347.758,504.174h-2.73l-6.42-3.35l-8.58,3.35h-31.2c-99.08-37.11-81.9-108.3-61.38-149.29h93.62&#10;&#9;&#9;c21.31,19.55,38.95,48.28,49.44,86.19C388.968,471.644,371.988,504.174,347.758,504.174z"/>
	<path style="fill:#FF9EB1;" d="M298.828,504.174h-119.44l-6.71-4.25l-8.29,4.25h-2.73c-24.23,0-41.21-32.53-32.75-63.1&#10;&#9;&#9;c10.49-37.91,28.13-66.64,49.44-86.19h73.81C248.318,396.365,251.958,460.004,298.828,504.174z"/>
	<path style="fill:#FBF198;" d="M331.068,354.885l-4.354,44.72c-1.15,11.87-11.657,18.11-19.514,11.58&#10;&#9;&#9;c-39.459-33.78-49.205-45.56-58.12-42.5c0,0-10.414-8.78-9.356-21.55h81.804C324.783,349.524,327.956,352.115,331.068,354.885z"/>
	<path style="fill:#F8EA69;" d="M255.198,346.427c-0.672,6.544-1.178,13.805-1.353,21.579c-1.571,0.58-3.112,1.649-4.776,3.161&#10;&#9;&#9;l-44.424,40.281c-7.581,6.675-18.003,0.632-19.357-11.214l-5.12-44.631c2.989-2.827,6.062-5.466,9.199-7.926L255.198,346.427z"/>
	<path style="fill:#FED2A4;" d="M405.298,218.054c0,83.17-67.42,150.59-150.59,150.59c-9.46,0-18.71-0.87-27.68-2.55&#10;&#9;&#9;c-0.01-0.01-0.01-0.01-0.02-0.01c-2.19-0.94-200.22-86.57-34.6-239.56c0.02-0.02,0.03-0.03,0.03-0.03&#10;&#9;&#9;c5.27-4.86,10.02-9.48,14.3-13.85h155.51C388.888,139.804,405.298,177.004,405.298,218.054z"/>
	<path style="fill:#FFBD86;" d="M227.028,366.095c-69.95-12.99-122.91-74.34-122.91-148.04c0-41.05,16.42-78.26,43.05-105.41h41.96&#10;&#9;&#9;l3.31,13.85c0,0-0.01,0.01-0.03,0.03c-1.79,2.44-97.58,133.6,34.6,239.56C227.018,366.084,227.018,366.084,227.028,366.095z"/>
	<path style="fill:#FFA1AC;" d="M209.991,241.824c0,30.475-57.839,30.475-57.839,0C152.152,211.35,209.991,211.35,209.991,241.824z"/>
	<path style="fill:#FFA1AC;" d="M308.906,241.824c0,30.475,57.839,30.475,57.839,0C366.745,211.35,308.906,211.35,308.906,241.824z"/>
	<path style="fill:#7888AF;" d="M404.208,169.845c-0.34,6.79-0.61,13.62-0.61,18.09c-89.75-13.24-91.78-85.8-110.78-66.89&#10;&#9;&#9;c-11.87,11.82-34.2,24.04-60.03,34.75c-120.31-45.55-1.54-116.74-1.54-116.74c7.57-1.12,15.26-1.7,22.98-1.7&#10;&#9;&#9;C332.278,37.354,407.788,97.034,404.208,169.845z"/>
	<path style="fill:#687DAA;" d="M232.788,155.794c-44.02,18.25-98.18,32.12-127.94,32.15c0-4.47-0.27-11.3-0.6-18.08&#10;&#9;&#9;c-3.2-64.94,57.21-120.55,127-130.81C213.498,64.994,189.478,115.274,232.788,155.794z"/>
	<path style="fill:#FBF198;" d="M270.768,421.354c0,8.32-5.26,13.17-11.38,14.54c-21.96-10.34-5.78-29.36-5.78-29.36&#10;&#9;&#9;C261.768,405.524,270.768,410.464,270.768,421.354z"/>
	<path style="fill:#F8EA69;" d="M259.388,435.894c-8.53,1.9-18.74-2.94-18.74-14.54c0-9.04,6.19-13.98,12.96-14.82&#10;&#9;&#9;C254.758,416.164,256.608,426.034,259.388,435.894z"/>
	<path style="fill:#F8EA69;" d="M240.65,489.116c0-19.924,30.118-19.924,30.118,0S240.65,509.04,240.65,489.116z"/>
</g>
<g>
	<path style="fill:none;stroke:#000000;stroke-width:15;stroke-linecap:round;stroke-linejoin:round;stroke-miterlimit:10;" d="&#10;&#9;&#9;M444.074,308.449v81.057c0,15.97-18.51,24.32-29.957,13.51c-25.564-24.14-43.411-49.38-55.823-74.6"/>
	<path style="fill:none;stroke:#000000;stroke-width:15;stroke-linecap:round;stroke-linejoin:round;stroke-miterlimit:10;" d="&#10;&#9;&#9;M264.413,37.626c60.16-62.14,179.661-24.2,179.661,77.55v163.01"/>
	<path style="fill:none;stroke:#000000;stroke-width:15;stroke-linecap:round;stroke-linejoin:round;stroke-miterlimit:10;" d="&#10;&#9;&#9;M388.918,109.306c34.976-43.919-29.924-96.274-72.365-59.56"/>
	<path style="fill:none;stroke:#000000;stroke-width:15;stroke-linecap:round;stroke-linejoin:round;stroke-miterlimit:10;" d="&#10;&#9;&#9;M111.983,262.696c-23.364,3.751-44.38-12.388-44.38-33.34c0-18.693,17.115-34.653,39.33-33.86"/>
	<path style="fill:none;stroke:#000000;stroke-width:15;stroke-linecap:round;stroke-linejoin:round;stroke-miterlimit:10;" d="&#10;&#9;&#9;M404.752,195.496c22.147-0.791,39.322,15.093,39.322,33.86c0,21.04-21.107,37.076-44.371,33.34"/>
	<path style="fill:none;stroke:#000000;stroke-width:15;stroke-linecap:round;stroke-linejoin:round;stroke-miterlimit:10;" d="&#10;&#9;&#9;M332.203,354.896c21.31,19.54,38.95,48.27,49.44,86.18c8.46,30.57-8.52,63.1-32.75,63.1h-186.1c-24.23,0-41.21-32.53-32.75-63.1&#10;&#9;&#9;c10.49-37.91,28.13-66.64,49.44-86.19"/>
	<path style="fill:none;stroke:#000000;stroke-width:15;stroke-linecap:round;stroke-linejoin:round;stroke-miterlimit:10;" d="&#10;&#9;&#9;M180.648,348.556l4.928,51.05c1.149,11.87,11.58,18.11,19.39,11.58c48.835-42.1,47.562-41.53,50.851-42.58&#10;&#9;&#9;c0.01,0.01,0.021,0,0.021,0"/>
	<path style="fill:none;stroke:#000000;stroke-width:15;stroke-linecap:round;stroke-linejoin:round;stroke-miterlimit:10;" d="&#10;&#9;&#9;M255.838,368.606c0,0,0.01,0.01,0.021,0c3.289,1.05,2.015,0.48,50.851,42.58c7.81,6.53,18.241,0.29,19.39-11.58l4.928-51.05"/>
	<path style="fill:none;stroke:#000000;stroke-width:15;stroke-linecap:round;stroke-linejoin:round;stroke-miterlimit:10;" d="&#10;&#9;&#9;M403.377,187.726c0,0.773,3.049,12.384,3.049,30.33c0,83.157-67.419,150.59-150.557,150.59&#10;&#9;&#9;c-94.861,0-166.589-86.993-147.538-180.73"/>
	<path style="fill:none;stroke:#000000;stroke-width:15;stroke-linecap:round;stroke-linejoin:round;stroke-miterlimit:10;" d="&#10;&#9;&#9;M212.826,216.765c0-18.212-27.53-18.212-27.53,0"/>
	<path style="fill:none;stroke:#000000;stroke-width:15;stroke-linecap:round;stroke-linejoin:round;stroke-miterlimit:10;" d="&#10;&#9;&#9;M308.341,216.765c0-18.212,27.53-18.212,27.53,0"/>
	<path style="fill:none;stroke:#000000;stroke-width:15;stroke-linecap:round;stroke-linejoin:round;stroke-miterlimit:10;" d="&#10;&#9;&#9;M245.982,232.854c7.73,8.869,21.473,8.869,29.202,0"/>
	<path style="fill:none;stroke:#000000;stroke-width:15;stroke-linecap:round;stroke-linejoin:round;stroke-miterlimit:10;" d="&#10;&#9;&#9;M158.181,69.69c-62.412,46.131-52.33,100.691-52.33,118.251c47.387-0.033,156.441-34.94,188.659-66.894&#10;&#9;&#9;c19.073-18.916,21.108,53.647,111.191,66.893c0-4.472,0.269-11.305,0.605-18.096C410.685,81.343,294.283,4.558,188.643,51.928"/>
	<path style="fill:none;stroke:#000000;stroke-width:15;stroke-linecap:round;stroke-linejoin:round;stroke-miterlimit:10;" d="&#10;&#9;&#9;M240.779,421.353c0-20.078,30.118-20.078,30.118,0S240.779,441.431,240.779,421.353z"/>
	<path style="fill:none;stroke:#000000;stroke-width:15;stroke-linecap:round;stroke-linejoin:round;stroke-miterlimit:10;" d="&#10;&#9;&#9;M240.779,489.118c0-20.078,30.118-20.078,30.118,0S240.779,509.196,240.779,489.118z"/>
	
		<line style="fill:none;stroke:#000000;stroke-width:15;stroke-linecap:round;stroke-linejoin:round;stroke-miterlimit:10;" x1="173.019" y1="459" x2="173.019" y2="504.177"/>
	
		<line style="fill:none;stroke:#000000;stroke-width:15;stroke-linecap:round;stroke-linejoin:round;stroke-miterlimit:10;" x1="338.666" y1="459" x2="338.666" y2="504.177"/>
</g>















</svg>
