<svg id="Capa_1" enable-background="new 0 0 512 512" height="512" viewBox="0 0 512 512" width="512" xmlns="http://www.w3.org/2000/svg"><g><path d="m326.93 342.828c11.544-2.625 20.162-12.944 20.162-25.282v-12.134c0-14.324-11.611-25.935-25.935-25.935-6.7 0-13.219 0-20.574 0v25.876h.002s0 0-.001 0c0 .02-.001.039-.001.059v12.134c0 14.244 11.563 25.935 25.935 25.935h4.941c.202 0 .402-.011.603-.015-1.768-.053-3.24-.208-5.132-.638z" fill="#ae6c6c"/><path d="m346.326 253.541v-12.134c0-12.337-8.617-22.655-20.158-25.281 1.895-.431 3.368-.586 5.135-.638-.203-.005-.405-.015-.61-.015-5.184 0-7.257-.143-10.784.669-5.337 9.001-11.852 17.219-19.325 24.454v38.881h19.807c14.324-.001 25.935-11.612 25.935-25.936z" fill="#ae6c6c"/><path d="m305.339 503.245h50.938v-93.436c0-22.549-18.279-40.828-40.828-40.828h-15.289c1.589 3.108 1.413 7.047-1.031 10.067l-34.033 42.051c-2.963 3.661-8.201 4.518-12.177 1.993l-8.028-5.1v93.933h54.332z" fill="#62dbfb"/><path d="m305.339 503.245h50.938v-93.436c0-22.549-18.279-40.828-40.828-40.828h-15.289c1.589 3.108 1.413 7.047-1.031 10.067l-19.145 23.656v109.221h19.239z" fill="#01d0fb"/><path d="m331.46 279.476c-5.769 0-11.085 0-16.483 0 14.324 0 25.935 11.612 25.935 25.935v12.134c0 12.339-8.619 22.657-20.162 25.282 3.495.795 5.548.653 10.711.653 14.324 0 25.935-11.611 25.935-25.935v-12.134c-.001-14.323-11.613-25.935-25.936-25.935z" fill="#9b5e5e"/><path d="m330.693 215.472c-5.154 0-7.204-.142-10.706.654 11.542 2.627 20.158 12.944 20.158 25.281v12.134c0 14.324-11.611 25.935-25.935 25.935h16.483c14.324 0 25.935-11.611 25.935-25.935v-12.134c0-14.324-11.611-25.935-25.935-25.935z" fill="#9b5e5e"/><path d="m148.69 389.559 25.527 31.541c2.963 3.661 8.201 4.518 12.177 1.993l8.351-5.306v94.139h50.145v-93.933l8.028 5.1c3.976 2.526 9.214 1.669 12.177-1.993l25.527-31.541z" fill="#c8effe"/><g><path d="m186.394 423.092c-3.976 2.526-9.214 1.669-12.177-1.993l-34.033-42.051c-2.444-3.021-2.62-6.959-1.031-10.067h-14.965c-22.549 0-40.828 18.279-40.828 40.828v102.116h111.386v-94.139z" fill="#62dbfb"/></g><path d="m268.077 347.811h-96.841v12.261l48.421 41.888 48.42-41.578z" fill="#ffa78f"/><path d="m268.077 258.507h-96.841v89.304c29.764 13.436 65.67 14.068 96.841.008z" fill="#f89580"/><path d="m171.236 354.579-27.043 9.936c-5.963 2.191-8.006 9.595-4.009 14.533l34.033 42.051c2.963 3.661 8.201 4.519 12.177 1.993l33.262-21.132z" fill="#f2fbff"/><path d="m268.077 354.579-48.42 47.381 33.262 21.132c3.976 2.526 9.214 1.669 12.177-1.993l34.033-42.051c3.997-4.938 1.954-12.342-4.009-14.533z" fill="#f2fbff"/><path d="m295.12 364.514-27.043-9.936-5.623 5.503 12.066 4.433c5.963 2.191 8.006 9.595 4.009 14.534l-32.238 39.833 6.628 4.211c3.976 2.526 9.214 1.669 12.177-1.993l34.033-42.051c3.997-4.939 1.955-12.342-4.009-14.534z" fill="#dff6fd"/><path d="m72.107 134.196 11.855 65.734h131.8v-199.849h-31.566c-70.996 0-124.691 64.246-112.089 134.115z" fill="#ae6c6c"/><path d="m159.408 239.74h-57.012c-21.919 0-39.688-17.769-39.688-39.688v-.244c0-21.919 17.769-39.688 39.688-39.688h57.012z" fill="#ffb09e"/><path d="m280.265 160.12h57.012c21.919 0 39.688 17.769 39.688 39.688v.244c0 21.919-17.769 39.688-39.688 39.688h-57.012z" fill="#f89580"/><path d="m317.174 219.385c0-45.631.125-44.732-.409-51.195-15.482 0-67.382 0-83.556 0-44.785 0-81.558-34.241-85.606-77.968h-4.12c-27.633 24.051-41.09 56.136-41.09 88.972v41.431c0 55.277 39.026 105.568 98.993 115.522 62.707 0 115.788-51.681 115.788-116.762z" fill="#ffcebf"/><g><path d="m276.911 219.077c-4.267 0-7.725-3.459-7.725-7.725v-21.6c0-4.266 3.458-7.725 7.725-7.725h8.847c4.267 0 7.725 3.459 7.725 7.725s-3.458 7.725-7.725 7.725h-1.122v13.875c0 4.266-3.458 7.725-7.725 7.725z" fill="#465a61"/></g><g><path d="m162.402 219.077c-4.266 0-7.725-3.459-7.725-7.725v-13.875h-1.122c-4.266 0-7.725-3.459-7.725-7.725s3.459-7.725 7.725-7.725h8.847c4.266 0 7.725 3.459 7.725 7.725v21.6c.001 4.266-3.458 7.725-7.725 7.725z" fill="#465a61"/></g><g><path d="m219.657 291.143c-17.996 0-32.636-14.641-32.636-32.636 0-4.266 3.459-7.725 7.725-7.725s7.725 3.459 7.725 7.725c0 9.476 7.71 17.186 17.185 17.186 9.476 0 17.186-7.71 17.186-17.186 0-4.266 3.459-7.725 7.725-7.725s7.725 3.459 7.725 7.725c0 17.996-14.64 32.636-32.635 32.636z" fill="#ffa799"/></g><g fill="#fe8f83"><path d="m297.381 251.622c-6.417 0-11.176 0-17.697 0-4.395 0-7.958 3.563-7.958 7.958s3.563 7.958 7.958 7.958h17.697c4.395 0 7.958-3.563 7.958-7.958s-3.563-7.958-7.958-7.958z"/><path d="m142.292 251.622h17.697c4.395 0 7.958 3.563 7.958 7.958s-3.563 7.958-7.958 7.958c-6.417 0-11.176 0-17.697 0-4.395 0-7.958-3.563-7.958-7.958s3.563-7.958 7.958-7.958z"/></g><path d="m214.061 62.432c56.06 8.611 98.993 57.052 98.993 115.522v41.432c0 62.805-49.537 114.033-111.669 116.762 72.154 11.087 135.57-44.216 135.57-115.522v-41.431c-.001-65.427-54.085-119.785-122.894-116.763z" fill="#ffb09e"/><path d="m360.411 168.19v-68.184c-6.779-55.306-53.919-99.925-113.083-99.925-7.821 0-56.403 0-63.131 0-7.018 0-13.867.63-20.499 1.829v80.288c0 47.492 38.5 85.992 85.992 85.992z" fill="#bc7c63"/><path d="m229.089 168.19h107.346c-8.902-95.319-121.99-138.477-192.953-77.968 4.049 43.728 40.822 77.968 85.607 77.968z" fill="#ffb09e"/><g><path d="m221.906.081c-45.393-.266-48.437.061-58.209 1.829v80.288c0 46.7 37.234 84.678 83.631 85.932v.06h84.243v-68.184c-6.736-54.947-53.318-99.363-111.969-99.919z" fill="#ae6c6c"/></g><path d="m247.328.081c-3.618 0-15.957 0-28.84 0 59.164 0 106.304 44.619 113.083 99.924v68.184h28.84v-68.184c-6.779-55.305-53.919-99.924-113.083-99.924z" fill="#9b5e5e"/><g><g><path d="m170.834 247.297h-35.672c-22.329 0-40.495-18.166-40.495-40.495v-34.154c0-11.075 9.01-20.085 20.085-20.085h76.491c11.075 0 20.085 9.01 20.085 20.085v34.154c0 22.329-18.165 40.495-40.494 40.495zm-56.082-79.284c-2.556 0-4.635 2.079-4.635 4.635v34.154c0 13.809 11.235 25.044 25.044 25.044h35.672c13.81 0 25.044-11.235 25.044-25.044v-34.154c0-2.556-2.079-4.635-4.635-4.635z" fill="#596c76"/></g><g><path d="m304.185 247.297h-35.705c-22.329 0-40.495-18.166-40.495-40.495v-34.154c0-11.075 9.01-20.085 20.085-20.085h76.524c11.075 0 20.085 9.01 20.085 20.085v34.154c.001 22.329-18.165 40.495-40.494 40.495zm-56.115-79.284c-2.556 0-4.635 2.079-4.635 4.635v34.154c0 13.809 11.235 25.044 25.044 25.044h35.706c13.81 0 25.044-11.235 25.044-25.044v-34.154c0-2.556-2.079-4.635-4.635-4.635z" fill="#596c76"/></g><g><path d="m235.71 207.655h-32.107c-4.266 0-7.725-3.459-7.725-7.725s3.459-7.725 7.725-7.725h32.107c4.266 0 7.725 3.459 7.725 7.725 0 4.267-3.458 7.725-7.725 7.725z" fill="#596c76"/></g></g><path d="m331.46 343.5c-5.134 0-7.212-.143-10.71.652 11.545 2.624 20.165 12.943 20.165 25.283v12.134c0 12.34-8.62 22.658-20.165 25.283 3.499.795 5.556.652 10.71.652 14.324 0 25.935-11.611 25.935-25.935v-12.134c-.001-14.324-11.612-25.935-25.935-25.935z" fill="#aa6a51"/><path d="m342.974 381.57v-12.134c0-14.855-12.53-25.283-22.225-25.283-12.044 2.801-20.165 13.381-20.165 25.283v12.134c0 12.109 8.353 22.563 20.165 25.283 9.429-.001 22.225-10.149 22.225-25.283z" fill="#ae6c6c"/><path d="m331.46 343.5c-5.134 0-7.212-.143-10.71.652 11.545 2.624 20.165 12.943 20.165 25.283v12.134c0 12.34-8.62 22.658-20.165 25.283 3.499.795 5.556.652 10.71.652 14.324 0 25.935-11.611 25.935-25.935v-12.134c-.001-14.324-11.612-25.935-25.935-25.935z" fill="#9b5e5e"/><path d="m325.799 511.925h-26.576v-109.921c0-4.551 3.689-8.24 8.24-8.24h18.336z" fill="#f07281"/><path d="m430.751 402.079c0-4.551-3.689-8.24-8.24-8.24h19.596c-.346-.044-.697-.075-1.056-.075h-115.252v118.161h104.952z" fill="#f8a5af"/><path d="m441.051 393.839h-22.66c4.551 0 8.24 3.689 8.24 8.24v109.921h22.66v-109.921c0-4.551-3.689-8.24-8.24-8.24z" fill="#f58a97"/><path d="m413.907 451.235h-52.724c-2.844 0-5.15-2.306-5.15-5.15v-17.51c0-2.844 2.306-5.15 5.15-5.15h52.724c2.844 0 5.15 2.306 5.15 5.15v17.51c0 2.844-2.306 5.15-5.15 5.15z" fill="#f2fbff"/></g></svg>