<svg id="Capa_1" enable-background="new 0 0 512 512" height="512" viewBox="0 0 512 512" width="512" xmlns="http://www.w3.org/2000/svg"><g><g><g><path d="m205.47 493.408 50.577-81.24 9-24.271-9-19.522c0-54.577-44.244-98.821-98.821-98.821h-58.405c-54.577-.001-98.821 44.243-98.821 98.82v43.793l50.576 81.24 77.447 9z" fill="#92e8ff"/><path d="m160.881 269.439s1.507 39.274-32.861 39.274-32.861-39.274-32.861-39.274z" fill="#edbca4"/><path d="m213.212 354.328c-4.276 0-7.742 3.468-7.742 7.747v50.092l7.742 9.296 7.742-9.296v-50.092c0-4.279-3.466-7.747-7.742-7.747z" fill="#65add6"/><path d="m205.47 512 9-9.592-9-9h-154.894l-9 9.296 9 9.296z" fill="#79dbf2"/><path d="m42.834 354.328c-4.276 0-7.742 3.468-7.742 7.747v50.092l7.742 9.296 7.742-9.296v-50.092c0-4.279-3.466-7.747-7.742-7.747z" fill="#65add6"/><path d="m22.182 179.309c-40.001-65.838 11.289-165.807 70.127-177.212 48.958-9.49 68.583 16.316 68.583 16.316s10.945-3.477 38.568 6.387c49.504 17.679 70.847 88.885 32.663 146.458l-2.015 3.139z" fill="#888089"/><path d="m20.067 183.726c0 18.032 13.568 26.472 25.061 26.472 0 0 2.803-9.147 2.803-9.147l9.887-16.236-9.928-18.419c-.908-.094-1.83-.142-2.763-.142-11.492 0-21.288 7.272-25.06 17.472z" fill="#edbca4"/><path d="m45.129 201.198c-11.494 0-21.29-7.271-25.061-17.472-1.071 2.896-1.658 6.027-1.658 9.296 0 14.784 11.962 26.768 26.719 26.768 1.867 0 3.688-.193 5.447-.559l7.17-8.925-9.814-9.256c-.921.098-1.856.148-2.803.148z" fill="#eaab92"/><path d="m235.979 183.726c0 18.032-13.568 26.472-25.061 26.472 0 0-2.803-9.147-2.803-9.147l-9.887-16.236 9.928-18.419c.908-.094 1.83-.142 2.763-.142 11.492 0 21.289 7.272 25.06 17.472z" fill="#edbca4"/><path d="m210.918 201.198c11.494 0 21.29-7.271 25.061-17.472 1.071 2.896 1.658 6.027 1.658 9.296 0 14.784-11.963 26.768-26.719 26.768-1.867 0-3.689-.193-5.447-.559l-7.17-8.925 9.814-9.256c.921.098 1.856.148 2.803.148z" fill="#eaab92"/><path d="m128.023 269.257c44.255 0 80.131-31.846 80.131-89.279v-24.385c0-2.148-1.378-4.034-3.407-4.736-26.685-9.241-47.458-36.399-55.544-48.303-1.851-2.725-5.79-2.931-7.924-.422-31.335 36.852-75.609 46.886-89.236 49.181-2.401.404-4.152 2.494-4.152 4.931v23.734c.001 52.643 35.877 89.279 80.132 89.279z" fill="#ffd6bd"/><path d="m50.576 493.408v-81.241h-50.576v81.241l25.288 9z" fill="#edbca4"/><path d="m50.576 512h-45.574c-2.763 0-5.002-2.239-5.002-5.002v-13.591h50.576z" fill="#eaab92"/><path d="m128.023 260.257c-44.255 0-80.132-35.942-80.132-80.279v18.592c0 44.337 35.876 80.279 80.132 80.279 44.255 0 80.131-35.942 80.131-80.279v-18.592c.001 44.337-35.875 80.279-80.131 80.279z" fill="#f9c6aa"/><path d="m256.046 493.408-25.288 9-25.288-9v-81.241h50.576l9 45.121z" fill="#edbca4"/><path d="m205.47 493.408v18.592h50.576l9-9.296-9-9.296z" fill="#eaab92"/><path d="m461.424 493.408 50.554-81.241v-43.952c0-54.553-44.224-98.776-98.777-98.776h-58.378c-54.553 0-98.776 44.224-98.776 98.776v43.952l50.576 81.24 74.979 9z" fill="#ff748f"/><path d="m461.424 512 9-9.296-9-9.296h-154.801l-9 9.296 9 9.296z" fill="#ff577f"/><path d="m372.571 310.843-17.839-41.405h58.56l-17.839 41.405c-4.33 10.049-18.553 10.049-22.882 0z" fill="#edbca4"/><path d="m298.88 354.328c-4.276 0-7.742 3.468-7.742 7.747v50.092l7.742 9.296 7.742-9.296v-50.092c0-4.279-3.465-7.747-7.742-7.747z" fill="#e8587b"/><path d="m469.166 354.328c-4.276 0-7.742 3.468-7.742 7.747v50.092l7.742 9.296 7.742-9.296v-50.092c0-4.279-3.466-7.747-7.742-7.747z" fill="#e8587b"/><path d="m512 493.408v-81.241h-50.576v81.241l25.288 9z" fill="#ffd6bd"/><path d="m461.424 512h45.576c2.761 0 5-2.24 5-5.003v-13.589h-50.576z" fill="#f9c6aa"/><path d="m487.999 176.307c18.879-91.227-22.16-156.95-103.987-156.95s-122.866 65.723-103.987 156.95z" fill="#dfaa88"/><path d="m261.215 255.038c29.264 0 37.485-15.65 37.485-35.652l-24.304-26.654c-21.581 16.528-18.612 43.832-13.181 62.306-.001 0 0 0 0 0z" fill="#dfaa88"/><path d="m306.562 218.942-3.696-3.373-4.167 3.818c-6.394 10.9-17.739 24.558-37.485 35.652 1.754 5.969 3.765 11.017 5.288 14.482 1.219 2.774 4.612 3.836 7.191 2.249 35.908-22.1 32.869-52.828 32.869-52.828z" fill="#d99b74"/><path d="m301.115 209.908 2.803-9.147 6.923-18.002-6.964-16.653c-.908-.094-1.83-.142-2.763-.142-11.494 0-21.29 7.271-25.062 17.472.001 16.101 13.569 26.472 25.063 26.472z" fill="#edbca4"/><path d="m301.115 200.908c-11.493 0-21.29-7.271-25.061-17.472-1.071 2.896-1.658 6.027-1.658 9.296 0 14.784 11.962 26.768 26.719 26.768 1.867 0 3.689-.193 5.447-.559l7.17-8.925-9.814-9.256c-.921.097-1.856.148-2.803.148z" fill="#eaab92"/><path d="m506.804 255.038c-29.264 0-37.485-15.65-37.485-35.652l24.304-26.654c21.58 16.528 18.611 43.832 13.182 62.306-.001 0-.001 0-.001 0z" fill="#dfaa88"/><path d="m461.457 218.942 3.696-3.373 4.167 3.818c6.394 10.9 17.739 24.558 37.485 35.652-1.754 5.969-3.765 11.017-5.288 14.482-1.219 2.774-4.611 3.836-7.191 2.249-35.908-22.1-32.869-52.828-32.869-52.828z" fill="#d99b74"/><path d="m466.904 209.908-2.803-9.147-6.923-18.002 6.964-16.653c.908-.094 1.83-.142 2.763-.142 11.494 0 21.29 7.271 25.062 17.472-.002 16.101-13.57 26.472-25.063 26.472z" fill="#edbca4"/><path d="m466.904 200.908c11.493 0 21.29-7.271 25.061-17.472 1.071 2.896 1.658 6.027 1.658 9.296 0 14.784-11.962 26.768-26.719 26.768-1.867 0-3.689-.193-5.447-.559l-7.17-8.925 9.814-9.256c.921.097 1.856.148 2.803.148z" fill="#eaab92"/><path d="m384.009 268.966c44.254 0 80.132-31.898 80.132-89.274v-13.587c-29.86-8.43-64.746-49.952-76.242-64.498-1.997-2.527-5.813-2.524-7.828-.011-36.311 45.263-76.193 64.51-76.193 64.51v13.592c0 52.923 35.879 89.268 80.131 89.268z" fill="#ffd6bd"/><path d="m384.009 259.966c-44.255 0-80.132-35.942-80.132-80.279v18.592c0 44.337 35.876 80.279 80.132 80.279 44.255 0 80.132-35.942 80.132-80.279v-18.592c0 44.338-35.876 80.279-80.132 80.279z" fill="#f9c6aa"/><path d="m306.622 493.408-25.288 9-25.287-9v-81.241h50.575z" fill="#ffd6bd"/><path d="m256.046 493.408h50.576v18.592h-50.576z" fill="#f9c6aa"/></g></g><g><g><path d="m88.872 165.981c-4.285 0-7.757 3.475-7.757 7.762v18.032c0 4.287 3.473 7.762 7.757 7.762 4.285 0 7.757-3.475 7.757-7.762v-18.032c.001-4.287-3.472-7.762-7.757-7.762z" fill="#888089"/><path d="m166.685 199.537c4.285 0 7.757-3.475 7.757-7.762v-18.032c0-4.287-3.473-7.762-7.757-7.762-4.285 0-7.757 3.475-7.757 7.762v18.032c-.001 4.287 3.472 7.762 7.757 7.762z" fill="#888089"/><path d="m152.499 226.956c1.629-3.964-.262-8.5-4.224-10.131-3.963-1.628-8.494.263-10.125 4.227-.018.044-2.227 4.528-10.372 4.528-8.144 0-10.353-4.483-10.371-4.528-1.631-3.964-6.162-5.855-10.125-4.227-3.963 1.631-5.854 6.167-4.224 10.131 2.161 5.254 9.798 14.147 24.721 14.147 14.922 0 22.56-8.893 24.72-14.147z" fill="#ff748f"/><path d="m345.37 165.981c-4.285 0-7.757 3.475-7.757 7.762v18.032c0 4.287 3.473 7.762 7.757 7.762 4.285 0 7.757-3.475 7.757-7.762v-18.032c0-4.287-3.472-7.762-7.757-7.762z" fill="#888089"/><path d="m423.182 165.981c-4.285 0-7.757 3.475-7.757 7.762v18.032c0 4.287 3.473 7.762 7.757 7.762 4.285 0 7.757-3.475 7.757-7.762v-18.032c.001-4.287-3.472-7.762-7.757-7.762z" fill="#888089"/><path d="m404.773 216.825c-3.962-1.628-8.494.263-10.125 4.227-.018.044-2.227 4.528-10.371 4.528s-10.353-4.483-10.371-4.528c-1.631-3.964-6.164-5.855-10.125-4.227-3.962 1.631-5.853 6.167-4.224 10.131 2.161 5.254 9.798 14.147 24.721 14.147s22.56-8.893 24.721-14.147c1.627-3.964-.264-8.5-4.226-10.131z" fill="#ff748f"/></g></g></g></svg>