<svg id="Layer_1" height="512" viewBox="0 0 256 256" width="512" xmlns="http://www.w3.org/2000/svg"><g><g><path d="m203.86 253v-13.07c0-21.626-17.531-39.157-39.157-39.157h-73.406c-21.626 0-39.157 17.531-39.157 39.157v13.07z" fill="#e0ebfc"/></g><g><path d="m203.86 255h-151.72c-1.104 0-2-.896-2-2v-13.07c0-22.694 18.463-41.157 41.157-41.157h73.406c22.694 0 41.157 18.463 41.157 41.157v13.07c0 1.104-.895 2-2 2zm-149.72-4h147.72v-11.07c0-20.489-16.669-37.157-37.157-37.157h-73.406c-20.488 0-37.157 16.668-37.157 37.157z" fill="#3762cc"/></g><g><path d="m154.743 199.825v-39.658h-53.485v39.658c0 14.77 11.973 26.743 26.743 26.743 14.769 0 26.742-11.973 26.742-26.743z" fill="#f9cfcf"/></g><g><path d="m128 228.568c-15.849 0-28.742-12.894-28.742-28.743v-39.659c0-1.104.896-2 2-2h53.484c1.104 0 2 .896 2 2v39.659c0 15.849-12.893 28.743-28.742 28.743zm-24.742-66.401v37.659c0 13.643 11.1 24.743 24.742 24.743s24.742-11.1 24.742-24.743v-37.659z" fill="#3762cc"/></g><g><path d="m205.205 121.851h-154.409v-46.174c0-27.353 22.174-49.527 49.527-49.527h55.354c27.353 0 49.527 22.174 49.527 49.527v46.174z" fill="#a4c9ff"/></g><g><path d="m205.205 123.852h-154.409c-1.104 0-2-.896-2-2v-46.175c0-28.412 23.115-51.527 51.527-51.527h55.354c28.412 0 51.527 23.115 51.527 51.527v46.174c.001 1.105-.894 2.001-1.999 2.001zm-152.409-4h150.409v-44.175c0-26.207-21.32-47.527-47.527-47.527h-55.354c-26.207 0-47.527 21.321-47.527 47.527v44.175z" fill="#3762cc"/></g><g><path d="m59.749 100.177c0-48.13 33.366-74.027 68.251-74.027 34.326 0 68.251 25.246 68.251 74.027 12.42 0 21.254 9.771 21.254 20.917 0 10.578-7.575 20.917-23.329 20.917-7.465 29.599-34.258 51.51-66.175 51.51-31.917 0-58.71-21.911-66.175-51.51-15.606 0-23.329-10.219-23.329-20.917-.002-11.098 8.778-20.917 21.252-20.917z" fill="#f9cfcf"/></g><g><ellipse cx="171.283" cy="141.153" fill="#f9a7a7" rx="12.143" ry="6.778"/></g><g><path d="m161.066 134.154c-4.553 0-8.244-3.691-8.244-8.244v-8.793c0-4.553 3.691-8.244 8.244-8.244 4.553 0 8.244 3.691 8.244 8.244v8.793c-.001 4.553-3.691 8.244-8.244 8.244z" fill="#3762cc"/></g><g><path d="m128 158.992c-2.416 0-4.52-.283-6.433-.865-3.175-.966-5.956-2.588-8.043-4.692-.778-.784-.772-2.051.012-2.829s2.052-.772 2.828.011c1.622 1.635 3.824 2.909 6.367 3.682 1.53.466 3.253.692 5.269.692s3.738-.226 5.269-.692c2.544-.774 4.746-2.047 6.367-3.682.776-.785 2.044-.791 2.828-.012.784.778.79 2.044.012 2.829-2.086 2.104-4.867 3.726-8.043 4.692-1.913.583-4.017.866-6.433.866z" fill="#3762cc"/></g><g><ellipse cx="84.717" cy="141.153" fill="#f9a7a7" rx="12.143" ry="6.778"/></g><g><path d="m95.008 134.377c4.593 0 8.317-3.724 8.317-8.317v-8.871c0-4.593-3.724-8.317-8.317-8.317-4.593 0-8.317 3.724-8.317 8.317v8.871c0 4.594 3.723 8.317 8.317 8.317z" fill="#3762cc"/></g><g><path d="m128 195.521c-31.72 0-59.351-21.117-67.725-51.542-16.325-.684-23.78-12.18-23.78-22.884 0-12.192 9.193-21.877 21.271-22.838.406-22.197 7.861-41.034 21.624-54.567 12.814-12.601 30.077-19.54 48.61-19.54 18.405 0 35.591 6.849 48.392 19.287 13.904 13.509 21.436 32.433 21.842 54.819 12.078.961 21.271 10.646 21.271 22.838 0 10.705-7.455 22.201-23.78 22.885-8.374 30.425-36.005 51.542-67.725 51.542zm0-167.371c-32.923 0-66.251 24.741-66.251 72.027 0 1.104-.896 2-2 2-10.797 0-19.254 8.309-19.254 18.917 0 9.416 6.596 18.917 21.33 18.917.916 0 1.715.623 1.939 1.511 7.424 29.439 33.839 50 64.235 50s56.812-20.561 64.235-50c.225-.888 1.023-1.511 1.939-1.511 14.734 0 21.33-9.501 21.33-18.917 0-10.607-8.457-18.917-19.254-18.917-1.104 0-2-.896-2-2 .002-49.488-34.341-72.027-66.249-72.027z" fill="#3762cc"/></g><g><path d="m56.261 12.957c0-2.11 2.085-3.6 4.07-2.887 7.861 2.822 26.71 7.253 53.036-1.73 9.534-3.532 19.618-5.34 29.784-5.34 34.271 0 62.053 27.782 62.053 62.053v16.447h-112.668c-20.034 0-36.275-16.241-36.275-36.275z" fill="#4671c6"/></g><g><path d="m205.205 83.5h-112.669c-21.104 0-38.274-17.17-38.274-38.274v-32.268c0-1.648.805-3.199 2.152-4.147 1.338-.942 3.054-1.176 4.594-.623 6.829 2.452 25.542 7.189 51.715-1.741 9.737-3.609 19.991-5.447 30.428-5.447 35.319 0 64.054 28.734 64.054 64.053v16.447c0 1.104-.895 2-2 2zm-145.899-71.61c-.267 0-.473.11-.59.192-.137.096-.454.374-.454.875v32.268c0 18.899 15.375 34.274 34.274 34.274h110.669v-14.446c0-33.113-26.94-60.053-60.054-60.053-9.961 0-19.748 1.755-29.088 5.215-26.434 9.02-45.43 4.959-54.407 1.737-.125-.044-.243-.062-.35-.062z" fill="#3762cc"/></g><g><path d="m164.521 176.984v-6.63c0-20.137-16.383-36.521-36.521-36.521s-36.521 16.383-36.521 36.521v6.652c-11.958-7.616-22.389-19.271-29.655-34.996 0 0 3.509 52.323 66.175 56.323 62.667-4 66.175-56.323 66.175-56.323-7.251 15.697-17.684 27.351-29.653 34.974zm-64.042 4.873v-11.503c0-15.175 12.346-27.521 27.521-27.521s27.521 12.346 27.521 27.521v11.483c-17.607 7.884-37.428 7.9-55.042.02z" fill="#4671c6"/></g><g><path d="m128 200.333c-.043 0-.085-.001-.127-.004-33.206-2.12-49.947-17.798-58.144-30.578-8.886-13.854-9.862-27.052-9.899-27.607-.064-.962.566-1.833 1.501-2.072.927-.238 1.905.224 2.31 1.099 6.162 13.337 15.052 24.353 25.839 32.07v-2.888c0-21.24 17.28-38.521 38.521-38.521s38.521 17.28 38.521 38.521v2.866c10.796-7.72 19.685-18.729 25.84-32.048.404-.875 1.377-1.337 2.311-1.099.934.239 1.564 1.11 1.5 2.072-.037.555-1.014 13.753-9.899 27.607-8.196 12.779-24.938 28.458-58.145 30.578-.044.003-.086.004-.129.004zm-60.838-44.7c1.38 3.73 3.317 7.906 6.031 12.109 11.19 17.333 29.631 26.951 54.807 28.587 25.176-1.636 43.617-11.253 54.808-28.587 2.717-4.208 4.656-8.389 6.037-12.124-6.336 9.459-14.218 17.299-23.25 23.052-.616.392-1.397.417-2.036.066-.641-.351-1.038-1.023-1.038-1.753v-6.63c0-19.035-15.486-34.521-34.521-34.521s-34.521 15.486-34.521 34.521v6.652c0 .73-.397 1.402-1.038 1.753-.638.351-1.419.326-2.036-.066-9.026-5.748-16.906-13.59-23.243-23.059zm60.808 34.085c-9.658 0-19.313-2.012-28.307-6.035-.72-.322-1.184-1.037-1.184-1.826v-11.503c0-16.278 13.243-29.521 29.521-29.521s29.521 13.243 29.521 29.521v11.483c0 .789-.463 1.503-1.183 1.825-9.016 4.037-18.693 6.056-28.368 6.056zm-25.491-9.171c16.288 6.901 34.745 6.895 51.041-.02v-10.173c0-14.072-11.448-25.521-25.521-25.521s-25.521 11.448-25.521 25.521v10.193z" fill="#3762cc"/></g><g><path d="m164.703 200.773c-3.501 0-6.234 0-9.977 0 .022 1.45.017-.257.017 11.242 0 14.77-11.973 26.743-26.743 26.743v14.242h75.86v-13.07c0-21.626-17.531-39.157-39.157-39.157z" fill="#4671c6"/></g><g><path d="m101.257 212.014c0-11.483-.006-9.792.017-11.242-3.743 0-6.472 0-9.977 0-21.626 0-39.157 17.531-39.157 39.157v13.071h75.86v-14.243c-14.77 0-26.743-11.973-26.743-26.743z" fill="#4671c6"/></g><g><path d="m203.86 255h-75.86c-1.104 0-2-.896-2-2v-14.243c0-1.104.896-2 2-2 13.643 0 24.742-11.099 24.742-24.742l.001-5.843c0-4.345 0-4.345-.011-4.993l-.006-.376c-.008-.536.199-1.052.575-1.434.376-.381.89-.596 1.425-.596h9.977c22.694 0 41.157 18.463 41.157 41.157v13.07c0 1.104-.895 2-2 2zm-73.86-4h71.86v-11.07c0-20.489-16.669-37.157-37.157-37.157h-7.961c.001.679.001 1.719.001 3.399l-.001 5.843c0 15.176-11.823 27.643-26.742 28.673z" fill="#3762cc"/></g><g><path d="m128 255h-75.86c-1.104 0-2-.896-2-2v-13.07c0-22.694 18.463-41.157 41.157-41.157h9.977c.535 0 1.049.215 1.425.596.376.382.583.898.575 1.434l-.006.374c-.011.652-.011.652-.011 5.003l.001 5.836c0 13.643 11.1 24.742 24.742 24.742 1.104 0 2 .896 2 2v14.242c0 1.104-.896 2-2 2zm-73.86-4h71.86v-10.312c-14.919-1.03-26.742-13.497-26.742-28.673l-.001-5.835c0-1.686 0-2.727.001-3.407h-7.961c-20.488 0-37.157 16.668-37.157 37.157z" fill="#3762cc"/></g></g></svg>