<?xml version="1.0" encoding="UTF-8" standalone="no"?>
<!-- Created with Inkscape (http://www.inkscape.org/) -->

<svg
   version="1.1"
   id="svg1440"
   xml:space="preserve"
   width="682.66669"
   height="682.66669"
   viewBox="0 0 682.66669 682.66669"
   xmlns="http://www.w3.org/2000/svg"
   xmlns:svg="http://www.w3.org/2000/svg"><defs
     id="defs1444"><clipPath
       clipPathUnits="userSpaceOnUse"
       id="clipPath1454"><path
         d="M 0,512 H 512 V 0 H 0 Z"
         id="path1452" /></clipPath></defs><g
     id="g1446"
     transform="matrix(1.3333333,0,0,-1.3333333,0,682.66667)"><g
       id="g1448"><g
         id="g1450"
         clip-path="url(#clipPath1454)"><g
           id="g1456"
           transform="translate(501,245)"><path
             d="m 0,0 c 0,-135.31 -109.69,-245 -245,-245 -135.31,0 -245,109.69 -245,245 0,135.31 109.69,245 245,245 C -109.69,245 0,135.31 0,0"
             style="fill:#ffdd40;fill-opacity:1;fill-rule:nonzero;stroke:none"
             id="path1458" /></g><g
           id="g1460"
           transform="translate(235.7256,465.9272)"><path
             d="m 0,0 c 42.398,-53.057 67.077,-135.464 49.575,-201.033 -17.502,-65.568 -79.208,-80.919 -128.189,-80.919 l 0,281.952 z"
             style="fill:#2a428c;fill-opacity:1;fill-rule:nonzero;stroke:none"
             id="path1462" /></g><g
           id="g1464"
           transform="translate(80.7656,465.9272)"><path
             d="m 0,0 c -42.398,-53.057 -67.077,-135.464 -49.575,-201.033 17.502,-65.568 79.208,-80.919 128.189,-80.919 L 78.614,0 Z"
             style="fill:#1c2e7a;fill-opacity:1;fill-rule:nonzero;stroke:none"
             id="path1466" /></g><g
           id="g1468"
           transform="translate(334.4727,156.7725)"><path
             d="m 0,0 h -253.034 l -31.763,-43.889 c 24.664,-38.438 59.758,-69.542 101.31,-89.285 v 0 L 14.495,-28.751 C 7.82,-13.975 2.362,-2.819 0,0"
             style="fill:#f964b2;fill-opacity:1;fill-rule:nonzero;stroke:none"
             id="path1470" /></g><g
           id="g1472"
           transform="translate(49.6572,112.8574)"><path
             d="m 0,0 c 29.507,-13.907 66.098,-25.006 107.733,-25.006 86.052,0 151.571,47.406 176.987,69.035 -0.871,1.031 -1.73,1.931 -2.574,2.676 C 258.733,67.378 158.558,84.14 155.975,84.568 H 61.202 C 59.377,84.265 8.844,75.809 -28.92,63.583 -22.307,40.852 -12.501,19.48 0,0"
             style="fill:#fcad6d;fill-opacity:1;fill-rule:nonzero;stroke:none"
             id="path1474" /></g><g
           id="g1476"
           transform="translate(137.6294,142.6382)"><path
             d="M 0,0 C 0,0 -10.767,11.809 -23.703,11.809 -36.639,11.809 -78.895,0 -78.895,0 Z"
             style="fill:#fd995b;fill-opacity:1;fill-rule:nonzero;stroke:none"
             id="path1478" /></g><g
           id="g1480"
           transform="translate(240.1152,475.5776)"><path
             d="m 0,0 c -19.784,22.322 -47.621,36.422 -81.87,36.422 -34.249,0 -48.984,-5.638 -62.772,-12 -13.787,-6.361 -14.708,-34.072 -14.708,-34.072 -17.175,-18.715 -27.662,-43.666 -27.662,-71.07 v -30.076 H 23.273 V -80.72 C 23.273,-57.711 19.784,-22.322 0,0"
             style="fill:#2a428c;fill-opacity:1;fill-rule:nonzero;stroke:none"
             id="path1482" /></g><g
           id="g1484"
           transform="translate(53.103,364.7817)"><path
             d="M 0,0 H 49.009 V 63.728 C 37.179,67.833 27.817,81.069 27.663,101.146 10.487,82.431 0,57.479 0,30.076 Z"
             style="fill:#1c2e7a;fill-opacity:1;fill-rule:nonzero;stroke:none"
             id="path1486" /></g><g
           id="g1488"
           transform="translate(205.6318,291.2656)"><path
             d="m 0,0 h -94.772 v -93.841 c 0,0 19.021,-20.093 47.17,-20.093 28.149,0 47.602,20.094 47.602,20.094 z"
             style="fill:#fcad6d;fill-opacity:1;fill-rule:nonzero;stroke:none"
             id="path1490" /></g><g
           id="g1492"
           transform="translate(110.8599,291.2656)"><path
             d="m 0,0 v -93.841 c 94.723,0 94.772,53.401 94.772,53.401 V 0 Z"
             style="fill:#fd995b;fill-opacity:1;fill-rule:nonzero;stroke:none"
             id="path1494" /></g><g
           id="g1496"
           transform="translate(233.3032,352.4326)"><path
             d="M 0,0 C 0,0 10.385,25.285 28.897,19.416 47.41,13.546 28.45,-41.249 -7.676,-44.701 Z"
             style="fill:#fcad6d;fill-opacity:1;fill-rule:nonzero;stroke:none"
             id="path1498" /></g><g
           id="g1500"
           transform="translate(83.188,352.4326)"><path
             d="M 0,0 C 0,0 -10.385,25.285 -28.897,19.416 -47.41,13.546 -28.45,-41.249 7.676,-44.701 Z"
             style="fill:#fd995b;fill-opacity:1;fill-rule:nonzero;stroke:none"
             id="path1502" /></g><g
           id="g1504"
           transform="translate(97.0825,427.0962)"><path
             d="m 0,0 c -10.322,-3.439 -17.931,-12.279 -20.432,-22.867 -2.552,-10.801 -6.002,-27.519 -6.002,-38.984 0,-64.504 39.219,-140.155 87.597,-140.155 48.379,0 87.597,75.651 87.597,140.155 0,1.674 -0.032,2.084 -0.085,3.733 C 67.264,-58.116 36.491,12.157 0,0"
             style="fill:#f9ba8f;fill-opacity:1;fill-rule:nonzero;stroke:none"
             id="path1506" /></g><g
           id="g1508"
           transform="translate(178.2456,229.4365)"><path
             d="m 0,0 c -38.741,16.953 -67.597,80.479 -67.597,135.809 0,21.971 4.564,41.826 12.476,58.475 -8.869,4.459 -17.292,6.291 -26.042,3.376 -10.322,-3.439 -17.931,-12.28 -20.432,-22.868 -2.552,-10.8 -6.002,-27.519 -6.002,-38.983 0,-64.505 39.219,-140.155 87.597,-140.155 6.881,0 13.576,1.534 20,4.346"
             style="fill:#fcad6d;fill-opacity:1;fill-rule:nonzero;stroke:none"
             id="path1510" /></g><g
           id="g1512"
           transform="translate(144.2588,319.5532)"><path
             d="m 0,0 8.436,13.441 c 2.568,4.093 8.533,4.093 11.102,0 L 27.974,0 c 2.739,-4.365 -0.398,-10.038 -5.552,-10.038 H 5.551 C 0.398,-10.038 -2.739,-4.365 0,0"
             style="fill:#fcad6d;fill-opacity:1;fill-rule:nonzero;stroke:none"
             id="path1514" /></g><g
           id="g1516"
           transform="translate(137.6294,271.1304)"><path
             d="m 0,0 h 41.232 c 4.111,3.622 7.258,8.309 9.011,13.631 1.583,4.811 -2.07,9.754 -7.135,9.754 H -1.876 c -5.065,0 -8.718,-4.943 -7.134,-9.754 C -7.258,8.309 -4.111,3.622 0,0"
             style="fill:#142766;fill-opacity:1;fill-rule:nonzero;stroke:none"
             id="path1518" /></g><g
           id="g1520"
           transform="translate(178.8618,271.1304)"><path
             d="m 0,0 c -5.493,-4.849 -12.714,-7.798 -20.616,-7.798 -7.903,0 -15.124,2.949 -20.616,7.798 5.5,4.849 12.713,7.797 20.616,7.797 C -12.714,7.797 -5.5,4.849 0,0"
             style="fill:#ff4155;fill-opacity:1;fill-rule:nonzero;stroke:none"
             id="path1522" /></g><g
           id="g1524"
           transform="translate(213.2446,349.9146)"><path
             d="m 0,0 c 0.043,3.495 -1.371,7.004 -4.242,9.539 -4.675,4.128 -11.84,4.128 -16.514,0 -2.871,-2.535 -4.285,-6.044 -4.242,-9.539 0.056,-4.538 5.629,-6.716 8.838,-3.507 2.022,2.022 5.3,2.022 7.322,0 C -5.629,-6.716 -0.055,-4.538 0,0"
             style="fill:#142766;fill-opacity:1;fill-rule:nonzero;stroke:none"
             id="path1526" /></g><g
           id="g1528"
           transform="translate(103.2466,349.9146)"><path
             d="m 0,0 c -0.042,3.495 1.371,7.004 4.242,9.539 4.675,4.128 11.84,4.128 16.514,0 C 23.627,7.004 25.041,3.495 24.998,0 24.943,-4.538 19.369,-6.716 16.16,-3.507 c -2.022,2.022 -5.3,2.022 -7.322,0 C 5.629,-6.716 0.056,-4.538 0,0"
             style="fill:#142766;fill-opacity:1;fill-rule:nonzero;stroke:none"
             id="path1530" /></g><g
           id="g1532"
           transform="translate(125.7456,373.0317)"><path
             d="m 0,0 h -20 c -4.142,0 -7.5,3.358 -7.5,7.5 0,4.142 3.358,7.5 7.5,7.5 H 0 C 4.142,15 7.5,11.642 7.5,7.5 7.5,3.358 4.142,0 0,0"
             style="fill:#142766;fill-opacity:1;fill-rule:nonzero;stroke:none"
             id="path1534" /></g><g
           id="g1536"
           transform="translate(210.7456,373.0317)"><path
             d="m 0,0 h -20 c -4.142,0 -7.5,3.358 -7.5,7.5 0,4.142 3.358,7.5 7.5,7.5 H 0 C 4.142,15 7.5,11.642 7.5,7.5 7.5,3.358 4.142,0 0,0"
             style="fill:#142766;fill-opacity:1;fill-rule:nonzero;stroke:none"
             id="path1538" /></g><g
           id="g1540"
           transform="translate(306.3984,475.5776)"><path
             d="m 0,0 c 19.784,22.322 47.621,36.422 81.87,36.422 34.249,0 48.984,-5.638 62.772,-12 13.787,-6.361 14.708,-34.072 14.708,-34.072 17.175,-18.715 27.663,-43.666 27.663,-71.07 v -30.076 H -23.273 v 30.076 c 0,23.009 3.49,58.398 23.273,80.72"
             style="fill:#c3785c;fill-opacity:1;fill-rule:nonzero;stroke:none"
             id="path1542" /></g><g
           id="g1544"
           transform="translate(306.3984,475.5776)"><path
             d="m 0,0 c -19.783,-22.322 -23.273,-57.711 -23.273,-80.72 v -30.076 h 57.869 v 10.419 C 13.045,-53.41 27.551,36.422 81.87,36.422 47.621,36.422 19.784,22.322 0,0"
             style="fill:#a05838;fill-opacity:1;fill-rule:nonzero;stroke:none"
             id="path1546" /></g><g
           id="g1548"
           transform="translate(340.8828,197.4253)"><path
             d="m 0,0 c -2.584,-0.428 -102.759,-17.19 -126.173,-37.863 -6.212,-5.485 -44.048,-89.873 -63.724,-135.964 31.829,-15.124 67.43,-23.598 105.014,-23.598 114.756,0 211.071,78.902 237.688,185.412 C 123.443,-4.796 96.105,-0.221 94.771,0 Z"
             style="fill:#ff4155;fill-opacity:1;fill-rule:nonzero;stroke:none"
             id="path1550" /></g><g
           id="g1552"
           transform="translate(214.71,159.5625)"><path
             d="m 0,0 c -6.212,-5.485 -44.048,-89.874 -63.724,-135.964 31.829,-15.124 67.43,-23.598 105.014,-23.598 42.366,0 82.213,10.764 116.973,29.691 C 64.979,-72.415 58.546,23.407 58.546,23.407 l 10e-4,0.004 C 34.083,16.971 10.017,8.844 0,0"
             style="fill:#e80054;fill-opacity:1;fill-rule:nonzero;stroke:none"
             id="path1554" /></g><g
           id="g1556"
           transform="translate(450.5596,194.7349)"><path
             d="m 0,0 c -8.655,1.646 -14.316,2.593 -14.905,2.69 h -94.773 c -0.587,-0.097 -6.223,-1.04 -14.843,-2.678 1.997,-2.662 25.125,-32.415 62.014,-32.415 C -25.243,-32.403 -1.608,-2.119 0,0"
             style="fill:#e80054;fill-opacity:1;fill-rule:nonzero;stroke:none"
             id="path1558" /></g><g
           id="g1560"
           transform="translate(435.6543,291.2656)"><path
             d="m 0,0 h -94.772 v -93.841 c 0,0 19.021,-20.093 47.17,-20.093 28.149,0 47.602,20.094 47.602,20.094 z"
             style="fill:#fcad6d;fill-opacity:1;fill-rule:nonzero;stroke:none"
             id="path1562" /></g><g
           id="g1564"
           transform="translate(340.8818,291.2656)"><path
             d="m 0,0 v -93.841 c 94.724,0 94.772,53.401 94.772,53.401 V 0 Z"
             style="fill:#fd995b;fill-opacity:1;fill-rule:nonzero;stroke:none"
             id="path1566" /></g><g
           id="g1568"
           transform="translate(463.3262,352.4326)"><path
             d="M 0,0 C 0,0 10.385,25.285 28.896,19.416 47.409,13.546 28.449,-41.249 -7.677,-44.701 Z"
             style="fill:#fcad6d;fill-opacity:1;fill-rule:nonzero;stroke:none"
             id="path1570" /></g><g
           id="g1572"
           transform="translate(313.2109,352.4326)"><path
             d="M 0,0 C 0,0 -10.385,25.285 -28.897,19.416 -47.41,13.546 -28.45,-41.249 7.676,-44.701 Z"
             style="fill:#fd995b;fill-opacity:1;fill-rule:nonzero;stroke:none"
             id="path1574" /></g><g
           id="g1576"
           transform="translate(449.4316,427.0962)"><path
             d="m 0,0 c 10.321,-3.439 17.93,-12.279 20.432,-22.867 2.552,-10.801 6.002,-27.519 6.002,-38.984 0,-64.504 -39.219,-140.155 -87.597,-140.155 -48.379,0 -87.598,75.651 -87.598,140.155 0,1.674 0.033,2.084 0.085,3.733 C -67.264,-58.116 -36.491,12.157 0,0"
             style="fill:#f9ba8f;fill-opacity:1;fill-rule:nonzero;stroke:none"
             id="path1578" /></g><g
           id="g1580"
           transform="translate(340.6709,365.2456)"><path
             d="M 0,0 C 0,3.371 0.113,6.688 0.323,9.955 -11.604,6.13 -24.895,3.733 -39.915,3.733 -39.967,2.084 -40,1.673 -40,0 c 0,-64.505 39.219,-140.155 87.598,-140.155 6.881,0 13.575,1.534 20,4.345 C 28.856,-118.856 0,-55.33 0,0"
             style="fill:#fcad6d;fill-opacity:1;fill-rule:nonzero;stroke:none"
             id="path1582" /></g><g
           id="g1584"
           transform="translate(256)"><path
             d="m 0,0 c 0.829,0 1.652,0.023 2.479,0.031 l -19.45,67.924 c -2.552,8.916 -15.691,7.072 -15.691,-2.202 V 2.172 C -21.976,0.749 -11.076,0 0,0"
             style="fill:#cc0053;fill-opacity:1;fill-rule:nonzero;stroke:none"
             id="path1586" /></g><g
           id="g1588"
           transform="translate(374.2812,319.5532)"><path
             d="m 0,0 8.436,13.441 c 2.569,4.093 8.533,4.093 11.102,0 L 27.974,0 c 2.739,-4.365 -0.398,-10.038 -5.551,-10.038 H 5.552 C 0.398,-10.038 -2.739,-4.365 0,0"
             style="fill:#fcad6d;fill-opacity:1;fill-rule:nonzero;stroke:none"
             id="path1590" /></g><g
           id="g1592"
           transform="translate(367.6514,271.1304)"><path
             d="m 0,0 h 41.233 c 4.111,3.622 7.258,8.309 9.01,13.631 1.584,4.811 -2.069,9.754 -7.134,9.754 H -1.875 c -5.065,0 -8.719,-4.943 -7.135,-9.754 C -7.257,8.309 -4.11,3.622 0,0"
             style="fill:#142766;fill-opacity:1;fill-rule:nonzero;stroke:none"
             id="path1594" /></g><g
           id="g1596"
           transform="translate(408.8848,271.1304)"><path
             d="m 0,0 c -5.493,-4.849 -12.714,-7.798 -20.616,-7.798 -7.903,0 -15.124,2.949 -20.617,7.798 5.501,4.849 12.714,7.797 20.617,7.797 C -12.714,7.797 -5.5,4.849 0,0"
             style="fill:#ff4155;fill-opacity:1;fill-rule:nonzero;stroke:none"
             id="path1598" /></g><g
           id="g1600"
           transform="translate(443.2676,349.9146)"><path
             d="m 0,0 c 0.042,3.495 -1.371,7.004 -4.242,9.539 -4.675,4.128 -11.84,4.128 -16.515,0 -2.87,-2.535 -4.284,-6.044 -4.241,-9.539 0.055,-4.538 5.629,-6.716 8.838,-3.507 2.021,2.022 5.3,2.022 7.321,0 C -5.629,-6.716 -0.056,-4.538 0,0"
             style="fill:#142766;fill-opacity:1;fill-rule:nonzero;stroke:none"
             id="path1602" /></g><g
           id="g1604"
           transform="translate(333.2695,349.9146)"><path
             d="m 0,0 c -0.043,3.495 1.371,7.004 4.241,9.539 4.675,4.128 11.84,4.128 16.515,0 C 23.627,7.004 25.04,3.495 24.998,0 c -0.056,-4.538 -5.629,-6.716 -8.839,-3.507 -2.021,2.022 -5.3,2.022 -7.321,0 C 5.629,-6.716 0.055,-4.538 0,0"
             style="fill:#142766;fill-opacity:1;fill-rule:nonzero;stroke:none"
             id="path1606" /></g><g
           id="g1608"
           transform="translate(355.7686,373.0317)"><path
             d="m 0,0 h -20 c -4.143,0 -7.5,3.358 -7.5,7.5 0,4.142 3.357,7.5 7.5,7.5 H 0 C 4.142,15 7.5,11.642 7.5,7.5 7.5,3.358 4.142,0 0,0"
             style="fill:#823c26;fill-opacity:1;fill-rule:nonzero;stroke:none"
             id="path1610" /></g><g
           id="g1612"
           transform="translate(440.7686,373.0317)"><path
             d="m 0,0 h -20 c -4.143,0 -7.5,3.358 -7.5,7.5 0,4.142 3.357,7.5 7.5,7.5 H 0 C 4.142,15 7.5,11.642 7.5,7.5 7.5,3.358 4.142,0 0,0"
             style="fill:#823c26;fill-opacity:1;fill-rule:nonzero;stroke:none"
             id="path1614" /></g></g></g></g></svg>
