<svg id="Avatar-filledoutline" height="512" viewBox="0 0 64 64" width="512" xmlns="http://www.w3.org/2000/svg"><path d="m47.746 11.275c2 4.29.12 6.47-1.18 6.45 1.03 2.19 1.2 5.55-.14 7.66a2.985 2.985 0 0 0 -2.22-2.38 3.464 3.464 0 0 0 -2.75.75 4.389 4.389 0 0 0 -.95 1.13c-4.69.18-2.64-8.14-2.64-8.14-5.25-.53-4.54-3.46-4.54-5.46-3.28 2.03-7.25 1.63-7-.58-3.76 3.53-7.07 3.16-7.64 1.65h-.01a8.58 8.58 0 0 0 -2.27 5.02c-4.95-2-3.33-6.6-.87-7.81 0 0-2.16-1-.13-3.11 2.04-2.13 6.11-2.16 6.11-2.16s-1.06-.13-.39-1.34c.63-1.12 4.17-1.59 8.93-1.56 3.73.02 8.44 2.17 8.74 2.3-.1-.14-1.03-1.44-.21-2.02 1.37-.97 1.92 2 1.92 2s2.75-.96 2.89.62c.14 1.5-1.42 1.03-1.59.98a13.728 13.728 0 0 1 5.94 6z" fill="#a3625d"/><path d="m38.626 46.765c-2.15 5.23-7.29 15.76-7.29 15.76-.2.01-.87.04-1 .04a50.765 50.765 0 0 1 -7.41-.22c-1.37-7.46-.91-12.61.6-15.58-.68 4.46 12.3 4.22 15.1 0z" fill="#f9f4ef"/><path d="m18.526 47.655c-.35 3.02.85 10.8 2.9 14.5-5.73-.85-8.92-2.67-10.48-3.82-1.51-1.12-1.45-3.11-.68-4.82 1.32-2.94 5.22-7.07 9.55-9.27a8.082 8.082 0 0 0 -1.29 3.41z" fill="#41acc9"/><path d="m43.516 40.285c5.69 3.28 10.74 9.14 10.75 14.18 0 3.9-11.02 7.17-21.42 7.97 6.74-7.28 11.87-15.36 12.28-18.35.14-.985-.59-2.42-1.61-3.8z" fill="#41acc9"/><path d="m23.526 46.765c-1.51 2.97-1.97 8.12-.6 15.58-.52-.06-1.02-.12-1.5-.19-2.05-3.7-3.25-11.48-2.9-14.5a8.082 8.082 0 0 1 1.29-3.41 7.709 7.709 0 0 1 .67-.96 21.571 21.571 0 0 1 4.914-4.257c.25.85-.067 5.237-1.037 6.417a7.016 7.016 0 0 0 -.84 1.31z" fill="#41acc9"/><path d="m46.426 25.385a2.985 2.985 0 0 0 -2.22-2.38 3.464 3.464 0 0 0 -2.75.75 4.389 4.389 0 0 0 -.95 1.13c-4.69.18-2.64-8.14-2.64-8.14-5.25-.53-4.54-3.46-4.54-5.46-3.28 2.03-7.25 1.63-7-.58-3.76 3.53-7.07 3.16-7.64 1.65h-.01a8.58 8.58 0 0 0 -2.27 5.02c-.41 2.59.25 4.78.26 7.2.01 5.48 1.12 9.66 3.28 12.05a8.279 8.279 0 0 0 5.446 2.458c.25.85-.056 5.182-1.026 6.362a7.016 7.016 0 0 0 -.84 1.31v.01c-.68 4.46 12.3 4.22 15.1 0a.01.01 0 0 0 .01-.01c.42-1.04.82-2.03 1.17-2.97a5.255 5.255 0 0 0 .05-3.5 14.286 14.286 0 0 1 -.62-3.79 28.608 28.608 0 0 1 .04-2.88v-.015a9.1 9.1 0 0 0 1.68-3.02 3.194 3.194 0 0 0 1.32.71c2.02.44 3.71-1.46 4.16-3.48a5.387 5.387 0 0 0 -.01-2.425z" fill="#f9d1b7"/><path d="m45.126 44.085c-.41 2.99-5.54 11.07-12.28 18.35-.36.02-.71.05-1.06.07-.15.01-.3.02-.45.02 0 0 5.14-10.53 7.29-15.76a.01.01 0 0 0 .01-.01c.42-1.04.82-2.03 1.17-2.97a5.255 5.255 0 0 0 .05-3.5 14.286 14.286 0 0 1 -.62-3.79h.01a8.653 8.653 0 0 1 3.54 2.88c.25.3.5.6.73.91 1.02 1.38 1.75 2.815 1.61 3.8z" fill="#41acc9"/><g fill="#6b3434"><path d="m17.462 22.73a.519.519 0 0 1 -.5-.525c0-.453.389-.9 1.069-1.226a3.352 3.352 0 0 1 3.453.206.5.5 0 1 1 -.625.779 2.186 2.186 0 0 0 -1.835-.283 1.883 1.883 0 0 0 -1.07.575.475.475 0 0 1 -.492.474z"/><path d="m25.36 32.815c-.182 0-.368-.008-.556-.026a3.265 3.265 0 0 1 -2.392-1.072.5.5 0 1 1 .826-.565 2.445 2.445 0 0 0 1.658.642 3.4 3.4 0 0 0 2.6-.673.5.5 0 0 1 .707.707 4.014 4.014 0 0 1 -2.843.987z"/><path d="m24.548 28.478a2.227 2.227 0 0 1 -1.564-.634 1.265 1.265 0 0 1 -.285-1.423.5.5 0 1 1 .912.408c-.02.046-.067.152.095.322a1.232 1.232 0 0 0 1.255.248.5.5 0 0 1 .369.93 2.11 2.11 0 0 1 -.782.149z"/><path d="m16.955 19.145a.5.5 0 0 1 -.429-.758 2.364 2.364 0 0 1 1.521-.938 4.606 4.606 0 0 1 3.393.482.5.5 0 1 1 -.529.847 3.628 3.628 0 0 0 -2.631-.356 1.456 1.456 0 0 0 -.9.48.5.5 0 0 1 -.425.243z"/><path d="m28.651 22.72a.519.519 0 0 1 -.5-.526c0-.454.39-.9 1.071-1.227a3.307 3.307 0 0 1 3.442.208.5.5 0 0 1 -.625.779 2.172 2.172 0 0 0 -1.83-.283 1.881 1.881 0 0 0 -1.066.574.475.475 0 0 1 -.492.475z"/><path d="m32.565 18.935a.5.5 0 0 1 -.411-.216 2.218 2.218 0 0 0 -1.228-.395 4.793 4.793 0 0 0 -2.948.363.5.5 0 1 1 -.645-.764c.761-.644 2.467-.756 3.724-.59a2.915 2.915 0 0 1 1.92.817.5.5 0 0 1 -.412.785z"/><path d="m42.325 27.515a.494.494 0 0 1 -.107-.012.5.5 0 0 1 -.381-.6 2.193 2.193 0 0 1 2.349-1.6.5.5 0 0 1 .436.555.49.49 0 0 1 -.556.437 1.232 1.232 0 0 0 -1.253.821.5.5 0 0 1 -.488.399z"/><path d="m32.356 22.675v.61a1.1 1.1 0 1 1 -2.19 0v-.61a1.1 1.1 0 1 1 2.19 0z"/><path d="m21.176 22.685v.61a1.1 1.1 0 1 1 -2.19 0v-.61a1.1 1.1 0 1 1 2.19 0z"/><path d="m43.835 39.892c-.235-.31-.465-.6-.668-.839a9.57 9.57 0 0 0 -3.42-2.879c-.023-.746-.02-1.533.027-2.393a10.162 10.162 0 0 0 1.427-2.4 2.994 2.994 0 0 0 .968.405c2.323.513 4.243-1.566 4.755-3.859a5.942 5.942 0 0 0 .023-2.462 9.247 9.247 0 0 0 .314-7.371 2.688 2.688 0 0 0 1.239-1.056c.436-.671 1.277-2.6-.3-5.975a13.178 13.178 0 0 0 -4.84-5.428c.028-.019.058-.034.085-.056a1.437 1.437 0 0 0 .449-1.328 1.37 1.37 0 0 0 -.623-1.076 3.358 3.358 0 0 0 -2.4-.126c-.186-.664-.584-1.684-1.318-1.983a1.272 1.272 0 0 0 -1.257.2 1.253 1.253 0 0 0 -.526.834 1.644 1.644 0 0 0 .028.632 23.314 23.314 0 0 0 -7.739-1.832c-5.537-.038-8.672.576-9.371 1.818a1.753 1.753 0 0 0 -.266 1.158 9.117 9.117 0 0 0 -5.377 2.237 2.752 2.752 0 0 0 -.978 2.372 2.007 2.007 0 0 0 .579 1.049 5 5 0 0 0 -1.959 4.033c.038 1.036.517 2.91 3.185 4.124a18.086 18.086 0 0 0 .1 4.269 24.982 24.982 0 0 1 .194 2.62c.01 5.646 1.188 9.929 3.409 12.387a8.176 8.176 0 0 0 4.425 2.388 23.939 23.939 0 0 0 -3.9 3.607 8.23 8.23 0 0 0 -.644.908c-4.576 2.365-8.38 6.612-9.65 9.44-1 2.221-.68 4.3.838 5.427 1.8 1.328 5.123 3.084 10.706 3.912.484.071.989.132 1.518.193a52.491 52.491 0 0 0 5.451.263c1.178 0 3.831-.109 4.55-.176a73.65 73.65 0 0 0 13.1-2.376c4.989-1.459 8.79-3.507 8.79-6.089-.003-5.414-5.484-11.411-10.924-14.572zm-27.812-23.249a3.638 3.638 0 0 1 -2.336-3.119 3.958 3.958 0 0 1 2.069-3.511.5.5 0 0 0 -.011-.9 1.353 1.353 0 0 1 -.695-.813 1.977 1.977 0 0 1 .717-1.5c1.867-1.949 5.713-2 5.753-2a.5.5 0 0 0 .056-1c-.021 0-.139-.04-.163-.087s-.019-.208.149-.512c.126-.226 1.181-1.353 8.491-1.305 3.2.017 7.255 1.691 8.519 2.247a.5.5 0 0 0 .583-.05.481.481 0 0 0 .045-.693 1.933 1.933 0 0 1 -.444-1.136.255.255 0 0 1 .118-.183c.192-.137.271-.1.3-.09.356.145.715 1.122.837 1.774a.5.5 0 0 0 .656.379 3.218 3.218 0 0 1 2.058-.13.375.375 0 0 1 .168.325c.022.232-.009.4-.087.466a1.1 1.1 0 0 1 -.864-.012.5.5 0 0 0 -.618.34.507.507 0 0 0 .233.576 2.558 2.558 0 0 0 .231.136 12.661 12.661 0 0 1 5.5 5.638c1.363 2.925.709 4.478.364 5.009a1.436 1.436 0 0 1 -1.083.731.554.554 0 0 0 -.427.228.5.5 0 0 0 -.033.485 8.82 8.82 0 0 1 .35 6.2 3.232 3.232 0 0 0 -2.151-1.625 3.951 3.951 0 0 0 -3.169.847 5.053 5.053 0 0 0 -.906 1.009 1.949 1.949 0 0 1 -1.521-.7c-1.285-1.575-.7-5.449-.365-6.81a.5.5 0 0 0 -.436-.616c-4.241-.429-4.172-2.4-4.1-4.3.007-.229.015-.452.015-.664a.5.5 0 0 0 -.257-.436.5.5 0 0 0 -.506.011c-2.224 1.376-4.722 1.519-5.757.864a.937.937 0 0 1 -.483-.962.5.5 0 0 0 -.839-.421c-2.456 2.305-4.636 2.824-5.854 2.539a1.271 1.271 0 0 1 -.981-.716 1.1 1.1 0 0 1 .136-.948.5.5 0 1 0 -.877-.483 2.2 2.2 0 0 0 -.273 1.484 8.781 8.781 0 0 0 -2.112 4.434zm4.293 19.647c-2.051-2.27-3.14-6.322-3.15-11.718a25.876 25.876 0 0 0 -.2-2.725 15.94 15.94 0 0 1 -.067-4.4 8.276 8.276 0 0 1 1.743-4.289 2.516 2.516 0 0 0 1.261.693c1.716.4 3.944-.407 6.073-2.173a2.025 2.025 0 0 0 .794.887c1.365.864 3.84.664 6.033-.422-.057 1.834.037 4.388 4.458 5.029-.282 1.43-.849 5.255.679 7.13a2.963 2.963 0 0 0 2.416 1.083h.169a.519.519 0 0 0 .423-.268 4.224 4.224 0 0 1 .828-.979 2.941 2.941 0 0 1 2.325-.644 2.542 2.542 0 0 1 1.839 2.006 4.9 4.9 0 0 1 .007 2.2c-.4 1.778-1.875 3.468-3.563 3.1a2.741 2.741 0 0 1 -1.121-.617.5.5 0 0 0 -.79.262 9.1 9.1 0 0 1 -3.185 4.359 10.62 10.62 0 0 1 -1.315.808.5.5 0 1 0 .49.871 11.181 11.181 0 0 0 1.431-.884 9.9 9.9 0 0 0 .844-.71c-.006.529.014 1.653.028 1.712a14.884 14.884 0 0 0 .618 3.829 4.833 4.833 0 0 1 -.045 3.17c-.339.923-.727 1.9-1.139 2.9-1.862 2.784-8.911 3.8-12.485 2.414-1.235-.479-1.8-1.155-1.706-2.008a6.763 6.763 0 0 1 .737-1.137c.916-1.12 1.341-4.5 1.239-6.13a16.2 16.2 0 0 0 1.893-.03 15.008 15.008 0 0 0 3.241-.588.5.5 0 0 0 -.3-.954 15.443 15.443 0 0 1 -4.413.6c-.222-.011-.434-.03-.65-.05a8.022 8.022 0 0 1 -5.44-2.327zm-9.073 21.644c-1.682-1.249-.825-3.541-.521-4.214 1.076-2.4 4.1-5.885 7.871-8.209a5.645 5.645 0 0 0 -.563 2.08c-.336 2.868.657 9.832 2.509 13.9a22.053 22.053 0 0 1 -9.296-3.557zm10.508 3.758c-1.951-3.707-3.061-11.142-2.724-14.043a8.919 8.919 0 0 1 1.839-4.04 21.38 21.38 0 0 1 4.151-3.739c.03 1.326-.319 4.381-1.04 5.263a11.122 11.122 0 0 0 -1.225 2.117c-1.316 3.277-1.493 8.288-.426 14.515-.192-.024-.388-.047-.575-.073zm9.272.35a56.177 56.177 0 0 1 -7.669-.16c-1.209-6.837-.774-10.99.04-13.48a3.972 3.972 0 0 0 1.962 1.442 12.076 12.076 0 0 0 4.247.673 15.494 15.494 0 0 0 7.719-1.9c-2.048 4.82-4.508 9.996-6.299 13.425zm1.591-.095-.43.029a193.472 193.472 0 0 0 8.091-18.017 5.838 5.838 0 0 0 .06-3.831 12.669 12.669 0 0 1 -.536-2.813 9.636 9.636 0 0 1 2.601 2.385c1.5 1.77 2.353 3.424 2.228 4.32-.38 2.796-5.293 10.644-12.014 17.927zm1.461-.123c6.01-6.681 11.1-14.436 11.546-17.67a4.127 4.127 0 0 0 -.538-2.28c4.555 3.168 8.675 8.122 8.683 12.591 0 3.026-9.121 6.355-19.691 7.359z"/></g></svg>