<svg id="Avatar-filledoutline" height="512" viewBox="0 0 64 64" width="512" xmlns="http://www.w3.org/2000/svg"><path d="m39.466 42.36-18.206 4.19c-3.85 2.42-6.71 5.31-8.03 8.25-.66 1.47-.72 3.17.58 4.14 1.43 1.06 4.46 2.77 10.03 3.41.42.05.86.09 1.31.13 1.06.08 2.2.13 3.44.13.52 0 1.05-.01 1.6-.03.2 0 .4-.01.6-.02 9.41-.41 20.2-3.37 20.2-6.94 0-5.14-5.544-10.99-11.524-13.26z" fill="#634f5c"/><path d="m23.96 49.21s-2.52-.99-2.75-1.79a1.384 1.384 0 0 1 .05-.87c.63-1.75 4.16-4.01 7.4-5.29.02.12.03.23.04.34.07.69-1.069 2.7-1.919 4.74a22.214 22.214 0 0 0 -1.111 3.78c-.6 2.74-.97 5.68-.52 12.36-.45-.04-.89-.08-1.31-.13-.91-1.43-3.06-8.19-2.9-11.52.05-1.04 3.02-1.62 3.02-1.62z" fill="#755e6e"/><path d="m34.4 49.53c.54-1.2.97-2.25 1.3-3.18 1.11-3.11 1.15-4.87.82-6.1-.06-.25-.046-.545-.1-.8a11.393 11.393 0 0 1 3.006 2.835 8.335 8.335 0 0 1 1.68 3.6c.01.93-.7 1.57-1.88 2.07-1.34.57-3.37 1.2-3.37 1.2s2.36.17 2.18 1.18c-.6 3.25-6.5 10.41-7.93 12.24-.55.02-1.08.03-1.6.03.001.005 4.201-9.355 5.894-13.075z" fill="#755e6e"/><path d="m28.507 62.61c-1.24 0-2.38-.05-3.44-.13-.45-6.68-.08-9.62.52-12.36a23.726 23.726 0 0 1 1.194-3.78c.04 2.34 6.206 3.41 8.856 0l.06.01c-.33.93-.76 1.98-1.3 3.18-1.69 3.72-5.89 13.05-5.89 13.05z" fill="#edeae8"/><path d="m43.98 23.25a1.209 1.209 0 0 0 -.18-.05 3.509 3.509 0 0 0 -2.75.74 4.824 4.824 0 0 0 -.96 1.13c-1.6-.58-2.76-.65-2.82-5.8-.02-2.05-1.38-6.07-4.96-6.43-1.76-.17-4.22.73-6.64.71-2.2-.01-2.92-.51-4.79-.51s-3.04 1.92-3.43 2.9a9.27 9.27 0 0 0 -.48 3.28c-.04 1.96.18 4.28.26 6.55.2 5.47 1.21 9.38 3.38 11.77a9.467 9.467 0 0 0 7.19 2.84 4.949 4.949 0 0 0 .67-.06c.04.17.22 1.17.23 1.28.07.69-1.069 2.7-1.919 4.74.04 2.34 6.289 3.41 8.939 0l.06.01c1.11-3.11 1.15-4.87.82-6.1-.043-.177-.591-2.661-.62-2.81a9.959 9.959 0 0 0 4.54-6.67 3.4 3.4 0 0 0 1.32.72c2.02.45 3.72-1.45 4.17-3.46.44-1.96-.15-4.23-2.03-4.78z" fill="#ffbf94"/><path d="m16.96 19.22c-1.46-1.97-3.61-7.72-1.15-9.1 1.09-.6 1.25-.97 1.15-1.93a2.089 2.089 0 0 1 2.87-2.04c.36.12.91-.18.84-.55a1.964 1.964 0 0 1 3.42-1.66.718.718 0 0 0 1.19-.22 2.177 2.177 0 0 1 3.99.05c.13.35 1.15.4 1.37-.07.71-1.52 3.92-1.09 4.05 1.22.03.58 1.12 1 1.81.5 2.58-1.88 4.83 1.04 4.38 2.61-.41 1.4 2.37.84 3.21 2.44 1.66 3.13.55 9.11-.11 12.78a1.209 1.209 0 0 0 -.18-.05 3.509 3.509 0 0 0 -2.75.74 4.824 4.824 0 0 0 -.96 1.13c-1.6-.58-2.76-.65-2.82-5.8-.02-2.05-1.38-6.07-4.96-6.43-1.76-.17-4.22.73-6.64.71-2.2-.01-2.92-.51-4.79-.51s-3.04 1.92-3.43 2.9a9.27 9.27 0 0 0 -.48 3.28z" fill="#fcc64c"/><g fill="#6b3434"><path d="m41.912 27.706a.5.5 0 0 1 -.488-.607 2.194 2.194 0 0 1 2.346-1.587.5.5 0 1 1 -.124.992 1.208 1.208 0 0 0 -1.246.809.5.5 0 0 1 -.488.393z"/><path d="m26 33.953h-.113a3.534 3.534 0 0 1 -2.644-1.063.5.5 0 0 1 .757-.659 2.593 2.593 0 0 0 1.911.721 3.445 3.445 0 0 0 2.35-.737.5.5 0 1 1 .724.69 4.263 4.263 0 0 1 -2.985 1.048z"/><path d="m25.621 30.8a1.986 1.986 0 0 1 -1.35-.544 1.4 1.4 0 0 1 -.508-1.387.5.5 0 0 1 .958.285.766.766 0 0 0 .335.454.91.91 0 0 0 .882.132.5.5 0 0 1 .364.932 1.877 1.877 0 0 1 -.681.128z"/><path d="m34.33 21.44a.5.5 0 0 1 -.286-.09 5.418 5.418 0 0 0 -5.109-.132.5.5 0 1 1 -.629-.776 6.291 6.291 0 0 1 6.31.088.5.5 0 0 1 -.286.91z"/><path d="m22.18 21.57a.5.5 0 0 1 -.326-.121c-.915-.787-3.7-.475-4.1-.169a.5.5 0 0 1 -.6-.8c.814-.61 4.105-.866 5.356.211a.5.5 0 0 1 -.326.879z"/></g><rect fill="#f9ddca" height="4.848" rx="1" width="7.234" x="26.92" y="23.597"/><rect fill="#f9ddca" height="4.848" rx="1" width="7.234" x="15.992" y="23.597"/><path d="m17.41 28.44h-.42a1 1 0 0 1 -1-1v-2.84a1 1 0 0 1 1-1h.14c.04.72.08 1.45.1 2.17q.045 1.41.18 2.67z" fill="#ffeadc"/><path d="m40.049 24.574-5.395.483v-.457a1.5 1.5 0 0 0 -1.5-1.5h-5.234a1.5 1.5 0 0 0 -1.5 1.5v1.28h-2.694v-1.28a1.5 1.5 0 0 0 -1.5-1.5h-5.235a1.5 1.5 0 0 0 -1.5 1.5v2.848a1.5 1.5 0 0 0 1.5 1.5h5.235a1.5 1.5 0 0 0 1.5-1.5v-.568h2.694v.565a1.5 1.5 0 0 0 1.5 1.5h5.234a1.5 1.5 0 0 0 1.5-1.5v-1.384l5.485-.491a.5.5 0 1 0 -.09-1zm-17.323 2.871a.5.5 0 0 1 -.5.5h-5.235a.5.5 0 0 1 -.5-.5v-2.845a.5.5 0 0 1 .5-.5h5.235a.5.5 0 0 1 .5.5zm10.928 0a.5.5 0 0 1 -.5.5h-5.234a.5.5 0 0 1 -.5-.5v-2.845a.5.5 0 0 1 .5-.5h5.234a.5.5 0 0 1 .5.5z" fill="#6b3434"/><path d="m32.72 24.08v1.33a.93.93 0 1 1 -1.86 0v-1.33a.93.93 0 1 1 1.86 0z" fill="#6b3434"/><rect fill="#6b3434" height="3.19" rx=".93" width="1.87" x="19.94" y="23.15"/><path d="m39.764 41.943a22.856 22.856 0 0 0 -2.907-2.795c-.1-.423-.209-.944-.319-1.479a10.259 10.259 0 0 0 4.312-6.054 2.939 2.939 0 0 0 .885.359c2.323.517 4.251-1.54 4.767-3.836a5.378 5.378 0 0 0 -.547-3.971 3.245 3.245 0 0 0 -1.409-1.237c.693-3.859 1.667-9.524-.014-12.692a3.476 3.476 0 0 0 -2.291-1.516c-.955-.3-.933-.373-.881-.555a3.3 3.3 0 0 0 -1.448-3.3 3.048 3.048 0 0 0 -3.7.147.83.83 0 0 1 -.745.071c-.189-.069-.189-.069-.273-.194a2.711 2.711 0 0 0 -2.3-2.528 2.365 2.365 0 0 0 -2.694 1.112.651.651 0 0 1 -.489.04 2.494 2.494 0 0 0 -2.541-1.576 2.521 2.521 0 0 0 -2.37 1.646.288.288 0 0 1 -.2.086c-.089.009-.114-.03-.122-.039a2.443 2.443 0 0 0 -2.978-.627 2.34 2.34 0 0 0 -1.332 2.619.325.325 0 0 1 -.17.054 2.858 2.858 0 0 0 -2.663.45 2.3 2.3 0 0 0 -.869 2.114c.075.726.057.917-.9 1.442a2.646 2.646 0 0 0 -1.271 1.862c-.53 2.475 1.072 6.275 2.178 7.848-.015 1.216.23 5.57.258 6.394.213 5.844 1.329 9.685 3.508 12.087a9.951 9.951 0 0 0 7.561 3.005c.077 0 .174-.006.281-.015.006.03.012.057.018.087-3.094 1.284-6.42 3.418-7.235 5.26-3.955 2.513-6.755 5.408-8.09 8.383-.871 1.939-.588 3.758.738 4.747 1.694 1.255 4.851 2.882 10.269 3.505 1.192.141 3.638.263 4.809.263.526 0 2-.04 2.222-.05 8.669-.378 20.678-3.174 20.678-7.44 0-5.057-5.25-11.167-11.726-13.677zm-23.2-24.366c-.876-1.762-1.631-4.262-1.3-5.822a1.674 1.674 0 0 1 .78-1.2c1.217-.669 1.532-1.212 1.406-2.422a1.312 1.312 0 0 1 .5-1.225 1.873 1.873 0 0 1 1.718-.287 1.237 1.237 0 0 0 1.167-.26.906.906 0 0 0 .32-.868 1.347 1.347 0 0 1 .762-1.584 1.476 1.476 0 0 1 1.778.339 1.138 1.138 0 0 0 1.168.39 1.15 1.15 0 0 0 .9-.8 1.572 1.572 0 0 1 1.455-.907 1.522 1.522 0 0 1 1.582 1.014 1.072 1.072 0 0 0 1.037.6 1.251 1.251 0 0 0 1.255-.629 1.445 1.445 0 0 1 1.608-.57 1.726 1.726 0 0 1 1.491 1.6 1.235 1.235 0 0 0 .765 1.012 1.824 1.824 0 0 0 1.844-.134 2.033 2.033 0 0 1 2.545-.136 2.362 2.362 0 0 1 1.06 2.2c-.35 1.195.788 1.551 1.542 1.787a2.649 2.649 0 0 1 1.706 1.029c1.507 2.842.561 8.435-.071 11.961a4.07 4.07 0 0 0 -2.846.891 5.444 5.444 0 0 0 -.842.912c-1.29-.452-2.068-.809-2.119-5.2-.025-2.575-1.761-6.556-5.413-6.923-.964-.093-5.545.708-6.685.708-1.094-.005-3.844-.51-4.792-.51-1.931 0-3.3 1.732-3.894 3.213a7.112 7.112 0 0 0 -.422 1.821zm12.585 23.61c-.028-.134-.048-.294-.08-.456a11.258 11.258 0 0 0 2.374-.616.5.5 0 1 0 -.416-.909 7.774 7.774 0 0 1 -3.232.674 8.882 8.882 0 0 1 -6.815-2.68c-2.013-2.218-3.046-5.857-3.25-11.452-.029-.831-.286-5.295-.26-6.527a8.628 8.628 0 0 1 .445-3.1c.382-.96 1.436-2.585 2.965-2.585.857 0 3.605.5 4.786.51 1.226-.016 5.771-.792 6.594-.713 3.335.336 4.493 4.218 4.51 5.939.057 4.935 1.126 5.557 2.867 6.164 0 0 .211.08.283.1a.557.557 0 0 0 .615-.233 4.083 4.083 0 0 1 .832-.978 2.963 2.963 0 0 1 2.325-.636 2.2 2.2 0 0 1 1.419 1.011 4.417 4.417 0 0 1 .414 3.215c-.4 1.776-1.877 3.459-3.571 3.079a2.864 2.864 0 0 1 -1.128-.621.5.5 0 0 0 -.8.323c-.007.046-.737 4.611-4.693 6.516a.5.5 0 0 0 .217.951.535.535 0 0 0 .064-.015c.217 1.035.436 1.959.5 2.227.366 1.362.117 3.18-.775 5.712a6.16 6.16 0 0 1 -6.5 1.626c-.929-.31-1.49-.8-1.546-1.316.339-.87.679-1.664.971-2.332.673-1.515 1.005-2.343.89-2.878zm-15.041 17.352c-1.4-1.041-.675-2.969-.421-3.535 1.159-2.584 3.649-5.219 7.037-7.5v.05c.166.575.965 1.12 1.75 1.53-.959.33-2 .88-2.038 1.718-.144 3 1.484 8.515 2.528 10.914-4.612-.661-7.364-2.069-8.856-3.177zm10.992-8.539c-.6 2.594-.9 5.41-.487 11.922-.156-.015-.313-.03-.466-.047-.911-1.684-2.857-7.912-2.709-11.024.016-.326 1.312-.9 2.617-1.153a.5.5 0 0 0 .087-.956 6.106 6.106 0 0 1 -2.454-1.467.9.9 0 0 1 .041-.559c.473-1.313 3.157-3.273 6.288-4.648a54.205 54.205 0 0 0 -2.917 7.932zm3.167 12.1c-.891 0-1.764-.037-2.646-.1-.418-6.492-.151-9.257.451-11.773.222-.925.491-1.772.77-2.577a4 4 0 0 0 1.687 1.007 7.637 7.637 0 0 0 6.053-.63c-.17.417-5.665 12.632-6.314 14.078zm2.07-.518-.394.5c-.2.006-.385.009-.577.012.9-2.014 6.553-14.648 6.884-15.58a12.218 12.218 0 0 0 .944-5.852c.416.375 1.729 1.8 1.868 1.991a8.114 8.114 0 0 1 1.628 3.247c0 .4-.154 1-1.576 1.6-1.3.553-3.3 1.176-3.322 1.183a.5.5 0 0 0 .112.976 2.856 2.856 0 0 1 1.725.59c-.52 2.81-5.44 9.006-7.291 11.338zm.925.444c2.14-2.7 6.8-8.61 7.349-11.6a1.059 1.059 0 0 0 -.216-.858 1.771 1.771 0 0 0 -.643-.483c.578-.2 1.216-.438 1.752-.666s2.2-.932 2.185-2.538a6.026 6.026 0 0 0 -.9-2.394c5.39 2.628 9.7 7.891 9.7 12.132.001 2.82-9.257 5.886-19.226 6.412z" fill="#6b3434"/></svg>