<svg height="409pt" viewBox="-45 0 409 409.53314" width="409pt" xmlns="http://www.w3.org/2000/svg"><path d="m261.753906 304.5h-35.371094v-23.085938h-59.417968v23.085938h-35.367188c-29.558594 0-53.519531 23.960938-53.519531 53.519531v48.503907h237.191406v-48.503907c.003907-29.558593-23.957031-53.519531-53.515625-53.519531zm0 0" fill="#fce8cb"/><path d="m261.753906 301.5h-32.371094v-20.085938c0-1.65625-1.339843-3-3-3h-59.417968c-1.65625 0-3 1.34375-3 3v20.085938h-32.367188c-31.167968 0-56.519531 25.351562-56.519531 56.519531v48.503907c0 1.660156 1.339844 3 3 3h237.195313c1.65625 0 3-1.339844 3-3v-48.503907c0-31.167969-25.355469-56.519531-56.519532-56.519531zm50.519532 102.023438h-231.195313v-45.507813c0-27.855469 22.660156-50.519531 50.519531-50.519531h35.367188c1.65625 0 3-1.339844 3-3v-20.082032h53.417968v20.082032c0 1.660156 1.34375 3 3 3h35.371094c27.855469 0 50.519532 22.664062 50.519532 50.519531zm0 0" fill="#3a312a"/><path d="m261.753906 304.492188h-8.460937l.21875.160156-36.777344 48.777344-18.980469-14.296876-18.980468 14.296876-36.78125-48.777344.21875-.160156h-10.617188c-29.5625 0-53.519531 23.957031-53.519531 53.519531v48.519531h237.199219v-48.519531c0-29.5625-23.960938-53.519531-53.519532-53.519531zm0 0" fill="#8ac6dd"/><path d="m261.753906 301.492188h-8.460937c-1.296875 0-2.449219.835937-2.851563 2.070312-.03125.09375-.058594.1875-.078125.28125l-34.21875 45.386719-16.585937-12.496094c-1.070313-.804687-2.542969-.808594-3.613282 0l-16.585937 12.496094-34.21875-45.386719c-.019531-.09375-.046875-.1875-.078125-.28125-.402344-1.234375-1.554688-2.070312-2.851562-2.070312h-10.621094c-31.164063 0-56.519532 25.351562-56.519532 56.519531v48.519531c0 1.65625 1.34375 3 3 3h237.199219c1.660157 0 3-1.34375 3-3v-48.519531c.003907-31.164063-25.351562-56.519531-56.515625-56.519531zm50.519532 102.039062h-231.199219v-45.519531c0-27.855469 22.660156-50.519531 50.519531-50.519531h8.78125l36 47.746093c1 1.320313 2.878906 1.585938 4.203125.589844l17.175781-12.941406 17.171875 12.941406c1.324219.996094 3.203125.734375 4.203125-.589844l36-47.746093h6.625c27.855469 0 50.519532 22.664062 50.519532 50.519531zm0 0" fill="#3a312a"/><path d="m125.828125 171.835938c0 11.628906-9.425781 21.058593-21.058594 21.058593-11.628906 0-21.058593-9.429687-21.058593-21.058593 0-11.628907 9.429687-21.058594 21.058593-21.058594 11.632813 0 21.058594 9.429687 21.058594 21.058594zm0 0" fill="#fce8cb" fill-rule="evenodd"/><path d="m104.769531 147.773438c-13.265625 0-24.058593 10.792968-24.058593 24.058593s10.792968 24.0625 24.058593 24.0625 24.058594-10.792969 24.058594-24.0625c.003906-13.261719-10.792969-24.058593-24.058594-24.058593zm0 42.121093c-9.957031 0-18.058593-8.101562-18.058593-18.0625 0-9.957031 8.101562-18.058593 18.058593-18.058593 9.960938 0 18.058594 8.101562 18.058594 18.058593 0 9.960938-8.097656 18.0625-18.058594 18.0625zm0 0" fill="#3a312a"/><path d="m309.515625 169.765625c-1.148437-11.570313-11.457031-20.023437-23.03125-18.878906s-20.027344 11.457031-18.882813 23.03125c1.144532 11.570312 11.457032 20.023437 23.03125 18.878906 11.574219-1.144531 20.027344-11.457031 18.882813-23.03125zm0 0" fill="#fce8cb" fill-rule="evenodd"/><path d="m288.578125 147.773438c-13.265625 0-24.058594 10.792968-24.058594 24.058593s10.792969 24.0625 24.058594 24.0625 24.058594-10.792969 24.058594-24.0625c0-13.261719-10.792969-24.058593-24.058594-24.058593zm0 42.121093c-9.957031 0-18.058594-8.101562-18.058594-18.0625 0-9.957031 8.101563-18.058593 18.058594-18.058593s18.058594 8.101562 18.058594 18.058593c0 9.960938-8.101563 18.0625-18.058594 18.0625zm0 0" fill="#3a312a"/><path d="m196.675781 68.253906c-51.5625 0-93.355469 41.796875-93.355469 93.355469 0 51.5625 51.640626 130.699219 93.355469 130.699219 43.699219 0 93.355469-79.140625 93.355469-130.699219 0-51.554687-41.796875-93.355469-93.355469-93.355469zm0 0" fill="#fce8cb"/><g fill="#3a312a"><path d="m196.675781 65.257812c-53.132812 0-96.355469 43.222657-96.355469 96.355469 0 25.109375 12.09375 58.210938 31.566407 86.390625 20.46875 29.625 44.691406 47.308594 64.789062 47.308594 45.597657 0 96.355469-79.695312 96.355469-133.699219 0-53.132812-43.222656-96.355469-96.355469-96.355469zm0 224.050782c-18.128906 0-40.503906-16.71875-59.851562-44.71875-18.816407-27.230469-30.503907-59.023438-30.503907-82.980469 0-49.820313 40.53125-90.355469 90.355469-90.355469 49.820313 0 90.355469 40.535156 90.355469 90.355469 0 50.421875-48.464844 127.699219-90.355469 127.699219zm0 0"/><path d="m163.714844 151.445312c-5.03125 0-9.113282 4.078126-9.113282 9.113282 0 5.03125 4.082032 9.109375 9.113282 9.109375s9.113281-4.078125 9.113281-9.109375c0-5.035156-4.082031-9.113282-9.113281-9.113282zm0 0"/><path d="m229.632812 151.445312c-5.03125 0-9.109374 4.078126-9.109374 9.113282 0 5.03125 4.078124 9.109375 9.109374 9.109375 5.035157 0 9.113282-4.078125 9.113282-9.109375 0-5.035156-4.078125-9.113282-9.113282-9.113282zm0 0"/></g><path d="m145.503906 175.914062c-8.667968 0-15.695312 5.253907-15.695312 11.734376 0 6.480468 7.027344 11.734374 15.695312 11.734374 8.667969 0 15.695313-5.253906 15.695313-11.734374 0-6.480469-7.027344-11.734376-15.695313-11.734376zm0 0" fill="#f5978a"/><path d="m247.847656 175.914062c-8.667968 0-15.695312 5.253907-15.695312 11.734376 0 6.480468 7.027344 11.734374 15.695312 11.734374 8.667969 0 15.695313-5.253906 15.695313-11.734374 0-6.480469-7.027344-11.734376-15.695313-11.734376zm0 0" fill="#f5978a"/><path d="m223.476562 304.507812v-17.585937c-8.855468 5.257813-17.941406 8.324219-26.792968 8.324219-8.820313 0-17.90625-3.214844-26.785156-8.648438v17.910156c0 .90625-.410157 1.722657-1.082032 2.277344 9.289063 6.515625 18.785156 10.371094 27.871094 10.371094 9.257812 0 18.84375-3.765625 28.132812-10.195312-.820312-.527344-1.34375-1.433594-1.34375-2.453126zm0 0" fill="#ccae8b"/><path d="m65.085938 58.996094c-1.949219 23.128906-26.046876 26.777344-26.046876 26.777344 20.691407.976562 25.847657 28.121093 25.847657 28.121093.445312-19.355469 26.644531-28.40625 26.644531-28.40625-19.625-1.175781-26.445312-26.492187-26.445312-26.492187zm0 0" fill="#d7e057"/><path d="m91.707031 82.492188c-17.207031-1.027344-23.664062-24.046876-23.722656-24.277344-.382813-1.40625-1.722656-2.339844-3.167969-2.207032-1.449218.132813-2.597656 1.285157-2.71875 2.734376-1.71875 20.429687-22.628906 23.925781-23.507812 24.066406-1.523438.230468-2.625 1.578125-2.546875 3.121094.082031 1.539062 1.316406 2.765624 2.855469 2.839843 18.054687.851563 23 25.4375 23.046874 25.6875.273438 1.421875 1.515626 2.433594 2.941407 2.433594.085937 0 .171875-.003906.253906-.011719 1.527344-.128906 2.714844-1.386718 2.746094-2.917968.390625-17.015626 24.382812-25.554688 24.628906-25.636719 1.347656-.472657 2.183594-1.832031 1.988281-3.246094-.199218-1.417969-1.367187-2.5-2.796875-2.585937zm-27.128906 20.691406c-2.714844-6.257813-7.417969-13.8125-15.171875-17.75 5.859375-2.808594 12.816406-7.828125 16.402344-16.546875 3.101562 6.140625 8.398437 13.761719 16.667968 17.445312-6.015624 3.277344-13.84375 8.8125-17.898437 16.851563zm0 0" fill="#3a312a"/><path d="m21.691406 92.957031c-1.378906 16.359375-18.425781 18.941407-18.425781 18.941407 14.636719.6875 18.285156 19.890624 18.285156 19.890624.3125-13.691406 18.84375-20.09375 18.84375-20.09375-13.882812-.832031-18.703125-18.738281-18.703125-18.738281zm0 0" fill="#d7e057"/><path d="m40.574219 108.699219c-11.535157-.691407-15.945313-16.371094-15.988281-16.527344-.382813-1.40625-1.703126-2.328125-3.164063-2.203125-1.453125.128906-2.597656 1.285156-2.722656 2.734375-1.15625 13.742187-15.292969 16.132813-15.882813 16.226563-1.527344.230468-2.625 1.582031-2.546875 3.125.082031 1.539062 1.316407 2.765624 2.855469 2.839843 12.070312.570313 15.449219 17.289063 15.480469 17.449219.269531 1.425781 1.515625 2.441406 2.941406 2.441406.085937 0 .167969-.003906.25-.011718 1.53125-.125 2.71875-1.386719 2.753906-2.921876.261719-11.417968 16.664063-17.265624 16.824219-17.324218 1.355469-.464844 2.191406-1.824219 1.992188-3.242188-.195313-1.417968-1.363282-2.5-2.792969-2.585937zm-19.171875 13.59375c-1.847656-3.773438-4.679688-7.894531-8.894532-10.5625 3.710938-2.082031 7.394532-5.257813 9.742188-9.832031 2.113281 3.75 5.308594 7.910156 9.878906 10.445312-3.695312 2.203125-7.972656 5.480469-10.726562 9.949219zm0 0" fill="#3a312a"/><path d="m21.691406 39.640625c-1.378906 16.359375-18.425781 18.941406-18.425781 18.941406 14.636719.6875 18.285156 19.886719 18.285156 19.886719.3125-13.6875 18.84375-20.089844 18.84375-20.089844-13.882812-.828125-18.703125-18.738281-18.703125-18.738281zm0 0" fill="#d7e057"/><path d="m40.574219 55.386719c-11.535157-.691407-15.949219-16.375-15.988281-16.53125-.382813-1.40625-1.703126-2.328125-3.164063-2.203125-1.453125.128906-2.597656 1.285156-2.722656 2.734375-1.15625 13.742187-15.292969 16.132812-15.882813 16.226562-1.527344.230469-2.625 1.582031-2.546875 3.125.082031 1.539063 1.316407 2.765625 2.855469 2.839844 12.070312.570313 15.449219 17.289063 15.480469 17.453125.269531 1.425781 1.515625 2.441406 2.941406 2.441406.085937 0 .167969-.003906.25-.011718 1.53125-.125 2.71875-1.386719 2.753906-2.921876.261719-11.417968 16.664063-17.269531 16.824219-17.324218 1.355469-.46875 2.191406-1.824219 1.992188-3.242188-.195313-1.417968-1.363282-2.5-2.792969-2.585937zm-19.171875 13.589843c-1.847656-3.769531-4.679688-7.894531-8.894532-10.5625 3.710938-2.082031 7.394532-5.257812 9.742188-9.832031 2.113281 3.75 5.308594 7.910157 9.878906 10.449219-3.695312 2.199219-7.972656 5.480469-10.726562 9.945312zm0 0" fill="#3a312a"/><path d="m189.417969 339.132812h16.667969v55.519532h-16.667969zm0 0" fill="#d7e057"/><path d="m206.085938 336.132812h-16.664063c-1.660156 0-3 1.339844-3 3v18.949219c0 1.660157 1.339844 3 3 3 1.65625 0 3-1.339843 3-3v-15.949219h10.664063v49.519532h-10.664063v-6.433594c0-1.65625-1.34375-3-3-3-1.660156 0-3 1.34375-3 3v9.433594c0 1.65625 1.339844 3 3 3h16.664063c1.660156 0 3-1.34375 3-3v-55.519532c0-1.65625-1.34375-3-3-3zm0 0" fill="#3a312a"/><path d="m142.015625 304.628906 19.058594-14.363281 36.773437 48.785156-19.0625 14.367188zm0 0" fill="#d7e057"/><path d="m200.226562 337.261719-36.769531-48.785157c-1-1.324218-2.875-1.589843-4.199219-.589843l-19.058593 14.363281c-.636719.476562-1.054688 1.1875-1.167969 1.976562-.109375.789063.097656 1.585938.578125 2.222657l36.765625 48.789062c.589844.78125 1.488281 1.191407 2.398438 1.191407.628906 0 1.261718-.195313 1.804687-.601563l19.058594-14.363281c.636719-.480469 1.054687-1.191406 1.167969-1.980469.105468-.789063-.101563-1.585937-.578126-2.222656zm-20.867187 11.96875-33.15625-44 14.265625-10.75 33.160156 43.996093zm0 0" fill="#3a312a"/><path d="m197.6875 339.085938 36.769531-48.789063 19.058594 14.363281-36.769531 48.789063zm0 0" fill="#d7e057"/><path d="m255.308594 302.246094-19.058594-14.363282c-.636719-.480468-1.4375-.6875-2.222656-.574218-.789063.109375-1.5.527344-1.980469 1.164062l-36.765625 48.789063c-1 1.324219-.734375 3.203125.589844 4.203125l19.058594 14.363281c.523437.394531 1.15625.601563 1.804687.601563.136719 0 .277344-.007813.417969-.027344.785156-.109375 1.5-.53125 1.976562-1.167969l36.769532-48.789063c.996093-1.320312.730468-3.199218-.589844-4.199218zm-39.164063 46.984375-14.269531-10.753907 33.160156-43.996093 14.265625 10.75zm0 0" fill="#3a312a"/><path d="m122.503906 365.199219c-1.660156 0-3 1.34375-3 3v38.332031c0 1.660156 1.339844 3 3 3 1.65625 0 3-1.339844 3-3v-38.332031c0-1.65625-1.34375-3-3-3zm0 0" fill="#3a312a"/><path d="m273.003906 365.199219c-1.660156 0-3 1.34375-3 3v38.332031c0 1.660156 1.339844 3 3 3 1.65625 0 3-1.339844 3-3v-38.332031c0-1.65625-1.34375-3-3-3zm0 0" fill="#3a312a"/><path d="m215.449219 219.464844c-9.570313-10.097656-19.015625-2.601563-19.015625 4.308594 0 6.90625 9.054687 14.921874 23.453125 14.921874 10.664062 0 26.074219-9.246093 26.074219-16.152343s-16.210938 12.003906-30.511719-3.078125zm0 0" fill="#87796f"/><path d="m247.097656 218.652344c-2.171875-1.445313-4.6875-.382813-7.871094.957031-5.882812 2.480469-13.9375 5.875-21.605468-2.210937-5.015625-5.292969-10.941406-7.113282-16.265625-4.988282-4.664063 1.859375-7.925781 6.53125-7.925781 11.363282 0 8.621093 10.113281 17.921874 26.453124 17.921874 11.746094 0 29.074219-10.085937 29.074219-19.152343 0-2.195313-1.007812-3.328125-1.859375-3.890625zm-27.214844 17.042968c-13.167968 0-20.453124-7.046874-20.453124-11.921874 0-2.359376 1.785156-4.847657 4.148437-5.792969.726563-.289063 1.480469-.429688 2.253906-.429688 2.382813 0 4.953125 1.359375 7.4375 3.976563 10.523438 11.101562 22.078125 6.226562 28.285157 3.613281.132812-.054687.269531-.113281.410156-.171875-3.203125 4.515625-13.609375 10.726562-22.082032 10.726562zm0 0" fill="#3a312a"/><path d="m177.414062 219.464844c-14.300781 15.082031-30.511718-3.828125-30.511718 3.078125s15.410156 16.152343 26.074218 16.152343c14.398438 0 23.453126-8.015624 23.453126-14.921874 0-6.910157-9.445313-14.40625-19.015626-4.308594zm0 0" fill="#87796f"/><path d="m191.507812 212.410156c-5.324218-2.121094-11.25-.304687-16.265624 4.988282-7.667969 8.089843-15.722657 4.691406-21.605469 2.210937-3.183594-1.339844-5.699219-2.402344-7.871094-.957031-.847656.5625-1.859375 1.695312-1.859375 3.890625 0 9.0625 17.328125 19.152343 29.074219 19.152343 16.339843 0 26.453125-9.300781 26.453125-17.921874-.003906-4.832032-3.261719-9.503907-7.925782-11.363282zm-18.527343 23.285156c-8.472657 0-18.878907-6.207031-22.085938-10.726562.140625.058594.28125.117188.414063.171875 6.207031 2.617187 17.757812 7.488281 28.285156-3.613281 3.285156-3.46875 6.726562-4.726563 9.691406-3.546875 2.363282.941406 4.148438 3.433593 4.148438 5.792969-.003906 4.871093-7.285156 11.921874-20.453125 11.921874zm0 0" fill="#3a312a"/><path d="m244.574219 243.636719c-.195313.394531-.382813.789062-.566407 1.183593-2.875 6.128907-8.859374 10.335938-15.628906 10.445313-9.058594.148437-20.203125 7.773437-32.265625 7.773437-12.070312 0-23.222656-7.605468-32.28125-7.75-6.75-.109374-12.753906-4.261718-15.625-10.371093-.199219-.425781-.40625-.851563-.613281-1.28125-9.382812-19.300781-24.019531-41.144531-37.042969-43.984375 7.722657 22.378906 20.960938 60.25 36.261719 77.667968 3.019531 3.441407 6.101562 6.660157 9.261719 9.621094 13.21875 12.460938 27.398437 20.359375 40.597656 20.359375 13.160156 0 26.839844-7.160156 39.539063-18.601562 3.382812-3 6.683593-6.339844 9.882812-9.917969 15.859375-17.660156 29.339844-56.308594 37.019531-79.410156-13.378906 2.101562-28.78125 24.207031-38.539062 44.265625zm0 0" fill="#87796f" fill-rule="evenodd"/><path d="m285.402344 197.433594c-.675782-.796875-1.722656-1.1875-2.753906-1.027344-14.71875 2.3125-30.710938 25.234375-40.773438 45.917969-.003906 0-.003906.003906-.003906.007812l-.578125 1.210938c-2.445313 5.207031-7.53125 8.632812-12.960938 8.71875-4.648437.078125-9.492187 1.804687-14.621093 3.636719-5.695313 2.03125-11.582032 4.132812-17.597657 4.132812-6.019531 0-11.914062-2.097656-17.609375-4.125-5.132812-1.824219-9.976562-3.546875-14.625-3.625-5.445312-.085938-10.53125-3.476562-12.953125-8.640625-.210937-.445313-.421875-.886719-.632812-1.320313-4.726563-9.730468-21.519531-41.769531-39.097657-45.605468-1.058593-.234375-2.164062.128906-2.882812.9375-.71875.8125-.949219 1.945312-.59375 2.972656 7.289062 21.132812 20.859375 60.472656 36.839844 78.671875 3.171875 3.609375 6.355468 6.917969 9.457031 9.820313 14.699219 13.855468 29.449219 21.179687 42.660156 21.179687 13.109375 0 27.476563-6.699219 41.53125-19.359375 3.335938-2.960938 6.742188-6.378906 10.121094-10.15625 15.3125-17.050781 28.15625-51.960938 37.632813-80.46875.328124-.988281.117187-2.082031-.558594-2.878906zm-41.546875 79.347656c-3.226563 3.609375-6.46875 6.863281-9.652344 9.691406-12.949219 11.664063-25.929687 17.828125-37.53125 17.828125-11.652344 0-24.980469-6.757812-38.550781-19.550781-2.96875-2.777344-6.015625-5.941406-9.054688-9.410156-13.734375-15.632813-25.929687-48.652344-33.433594-70.179688 9 5.867188 19.886719 20.5 29.265626 39.796875.199218.410157.394531.820313.589843 1.234375 3.394531 7.222656 10.574219 11.972656 18.289063 12.097656 3.664062.054688 8.058594 1.621094 12.710937 3.277344 5.890625 2.09375 12.570313 4.46875 19.621094 4.46875 7.054687 0 13.730469-2.382812 19.621094-4.484375 4.648437-1.660156 9.039062-3.226562 12.699219-3.285156 7.703124-.125 14.886718-4.90625 18.296874-12.175781l.546876-1.148438c8.269531-17 20.410156-34.71875 31.035156-40.660156-6.5 19.25-19.695313 56.066406-34.453125 72.5zm0 0" fill="#3a312a"/><path d="m294.566406 140.03125c0-51.019531-43.261718-92.378906-96.628906-92.378906-53.363281 0-96.625 41.359375-96.625 92.382812 0 5.398438.976562 9.421875 2.792969 14.449219.855469 2.371094 14.691406-5.195313 15.871093-6.027344 5.890626-4.148437 10.703126-9.769531 14.300782-15.984375 1.488281-2.585937 2.730468-5.214844 3.730468-7.84375 3.183594-8.394531 11.839844-31.746094 20.625-29.914062 11.785157 2.457031 25.136719 3.84375 39.304688 3.84375s27.523438-1.386719 39.308594-3.84375c8.785156-1.832032 17.441406 21.519531 20.625 29.914062.996094 2.628906 2.238281 5.257813 3.726562 7.84375 5.945313 10.28125 15.984375 20.070313 28.199219 21.851563.03125-.589844.777344-.792969 1.332031-.992188 4-1.453125 3.4375-10.09375 3.4375-13.300781zm0 0" fill="#87796f"/><path d="m297.578125 141.070312-.011719-1.039062c0-52.59375-44.691406-95.378906-99.625-95.378906s-99.625 42.785156-99.625 95.378906c0 6.039062 1.132813 10.394531 2.96875 15.46875.382813 1.066406 1.246094 1.878906 2.367188 2.230469.363281.117187.78125.167969 1.25.167969 5.339844 0 16.6875-6.914063 16.800781-6.992188 5.925781-4.171875 11.175781-10.03125 15.175781-16.941406 1.542969-2.675782 2.863282-5.460938 3.933594-8.277344l.199219-.527344c9.492187-25.042968 14.726562-27.996094 17.007812-27.511718 12.4375 2.589843 25.867188 3.90625 39.917969 3.90625s27.484375-1.3125 39.917969-3.90625c2.269531-.476563 7.515625 2.457031 17.007812 27.507812l.203125.53125c1.066406 2.816406 2.390625 5.601562 3.933594 8.28125 7.46875 12.917969 18.820312 21.636719 30.363281 23.320312.835938.117188 1.683594-.113281 2.335938-.648437.183593-.152344.347656-.320313.488281-.503906 5.582031-2.058594 5.457031-10.519531 5.390625-15.066407zm-7.609375 9.488282c-.441406.15625-.835938.335937-1.1875.539062-9.253906-1.929687-18.351562-9.34375-24.582031-20.121094-1.382813-2.402343-2.566407-4.894531-3.523438-7.414062l-.199219-.53125c-6.292968-16.601562-14.0625-33.320312-23.84375-31.253906-12.035156 2.507812-25.050781 3.78125-38.691406 3.78125s-26.660156-1.273438-38.695312-3.78125c-9.820313-2.0625-17.554688 14.65625-23.84375 31.257812l-.199219.523438c-.957031 2.519531-2.140625 5.011718-3.519531 7.40625-3.566406 6.160156-8.207032 11.359375-13.421875 15.027344-1.5625 1.054687-8.683594 4.714843-11.949219 5.699218-1.246094-3.742187-1.996094-7.191406-1.996094-11.660156 0-49.285156 42-89.382812 93.625-89.382812s93.625 40.097656 93.625 89.382812l.011719 1.125c.117187 8.140625-1.097656 9.21875-1.609375 9.402344zm0 0" fill="#3a312a"/><path d="m201.273438 14.117188c-65.808594 38.71875-104.007813-35.707032-104.007813-1.765626 0 9.515626 3.410156 19 8.136719 27.816407l14.742187 21.632812 2.601563 3.695313c.054687.070312.113281.148437.167968.21875 15.859376 19.972656 34.832032 41.285156 57.753907 47.800781 36.875 10.484375 102.144531-2.59375 102.144531-55.667969 0-33.941406-28.449219-74.960937-81.539062-43.730468zm0 0" fill="#87796f"/><path d="m258.683594 5.765625c-11.359375-6.5-30.8125-10.773437-58.933594 5.765625-38.136719 22.4375-66.550781 5.394531-83.527344-4.789062-8.179687-4.90625-13.585937-8.144532-17.882812-5.714844-3.609375 2.046875-4.074219 7.128906-4.074219 11.324218 0 9.011719 2.777344 18.578126 8.492187 29.234376.78125 1.460937 2.597657 2.011718 4.0625 1.226562 1.457032-.78125 2.007813-2.597656 1.222657-4.0625-5.230469-9.761719-7.777344-18.398438-7.777344-26.398438 0-5.277343 1.019531-6.09375 1.03125-6.101562 1.269531-.707031 7.625 3.109375 11.835937 5.640625 16.933594 10.15625 48.453126 29.058594 89.660157 4.816406 20.292969-11.941406 38.589843-13.925781 52.910156-5.734375 16.652344 9.523438 24.105469 30.40625 24.105469 46.875 0 16.710938-6.691406 30.234375-19.886719 40.203125-22.027344 16.636719-56.132813 18.925781-78.4375 12.582031-21.65625-6.15625-39.820313-26.125-56.289063-46.859374l-2.597656-3.699219c-.953125-1.355469-2.820312-1.683594-4.179687-.730469-1.355469.957031-1.683594 2.824219-.730469 4.179688l2.601562 3.703124c.035157.046876.238282.304688.273438.351563 17.023438 21.445313 35.988281 42.203125 59.28125 48.828125 7.816406 2.222656 17 3.441406 26.648438 3.441406 19.652343 0 41.21875-5.058594 57.042968-17.011718 14.574219-11.003907 22.273438-26.5625 22.273438-44.988282.003906-18.203125-8.386719-41.367187-27.125-52.082031zm0 0" fill="#3a312a"/><path d="m255.707031 10.972656c-8.898437-5.082031-19.320312-6.242187-30.820312-3.542968 2.980469.800781 5.84375 2 8.542969 3.542968 16.660156 9.519532 24.117187 30.398438 24.117187 46.878906 0 16.699219-6.699219 30.21875-19.898437 40.199219-11.761719 8.878907-26.980469 13.679688-42 15.242188 20.941406 2.257812 46.519531-1.84375 64.28125-15.242188 13.199218-9.980469 19.878906-23.5 19.878906-40.199219 0-16.480468-7.460938-37.359374-24.101563-46.878906zm0 0" fill="#6b5b51"/></svg>