<?xml version="1.0" encoding="UTF-8" standalone="no"?>
<!-- Created with Inkscape (http://www.inkscape.org/) -->

<svg
   version="1.1"
   id="svg273"
   xml:space="preserve"
   width="682.66669"
   height="682.66669"
   viewBox="0 0 682.66669 682.66669"
   xmlns="http://www.w3.org/2000/svg"
   xmlns:svg="http://www.w3.org/2000/svg"><defs
     id="defs277"><clipPath
       clipPathUnits="userSpaceOnUse"
       id="clipPath287"><path
         d="M 0,512 H 512 V 0 H 0 Z"
         id="path285" /></clipPath></defs><g
     id="g279"
     transform="matrix(1.3333333,0,0,-1.3333333,0,682.66667)"><g
       id="g281"><g
         id="g283"
         clip-path="url(#clipPath287)"><g
           id="g289"
           transform="translate(328.8696,174.5)"><path
             d="m 0,0 h -145.739 c -35.133,0 -63.614,28.48 -63.614,63.613 V 193.517 C -209.353,268.895 -148.247,330 -72.87,330 2.508,330 63.613,268.895 63.613,193.517 V 63.613 C 63.613,28.48 35.133,0 0,0"
             style="fill:#685e68;fill-opacity:1;fill-rule:nonzero;stroke:none"
             id="path291" /></g><g
           id="g293"
           transform="translate(256,504.5)"><path
             d="m 0,0 v 0 c -5.07,0 -10.073,-0.286 -15,-0.824 68.319,-7.47 121.483,-65.352 121.483,-135.659 V -266.387 C 106.483,-301.52 78.002,-330 42.87,-330 h 30 c 35.132,0 63.613,28.48 63.613,63.613 v 129.904 C 136.483,-61.105 75.377,0 0,0"
             style="fill:#554e56;fill-opacity:1;fill-rule:nonzero;stroke:none"
             id="path295" /></g><g
           id="g297"
           transform="translate(370.2119,319.8818)"><path
             d="M 0,0 H -7.885 V 44.542 H 0 c 12.3,0 22.271,-9.971 22.271,-22.271 C 22.271,9.971 12.3,0 0,0"
             style="fill:#ffcebe;fill-opacity:1;fill-rule:nonzero;stroke:none"
             id="path299" /></g><g
           id="g301"
           transform="translate(141.7881,319.8818)"><path
             d="M 0,0 H 7.885 V 44.542 H 0 c -12.3,0 -22.271,-9.971 -22.271,-22.271 C -22.271,9.971 -12.3,0 0,0"
             style="fill:#ffb09c;fill-opacity:1;fill-rule:nonzero;stroke:none"
             id="path303" /></g><g
           id="g305"
           transform="translate(456.8184,10)"><path
             d="m 0,0 v 78.725 c 0,35.215 -23.027,66.289 -56.718,76.537 l -85.421,25.984 c -8.423,2.563 -14.179,10.331 -14.179,19.134 v 32.12 h -89 v -32.12 c 0,-8.803 -5.757,-16.571 -14.18,-19.134 l -85.421,-25.984 c -33.69,-10.248 -56.718,-41.322 -56.718,-76.537 V 0 c 0,-5.523 4.477,-10 10,-10 L -10,-10 c 5.523,0 10,4.477 10,10"
             style="fill:#ffcebe;fill-opacity:1;fill-rule:nonzero;stroke:none"
             id="path307" /></g><g
           id="g309"
           transform="translate(400.1006,165.2617)"><path
             d="m 0,0 -85.421,25.984 c -8.423,2.562 -14.18,10.331 -14.18,19.135 v 32.119 l -30,-15 V 30.119 c 0,-8.804 5.757,-16.573 14.18,-19.135 L -30,-15 C 3.69,-25.249 26.718,-56.322 26.718,-91.537 v -73.725 h 20 c 5.523,0 10,4.477 10,10 v 78.725 C 56.718,-41.322 33.69,-10.249 0,0"
             style="fill:#ffb09c;fill-opacity:1;fill-rule:nonzero;stroke:none"
             id="path311" /></g><g
           id="g313"
           transform="translate(362.3267,364.4233)"><path
             d="m 0,0 v -42.851 c 0,-58.847 -47.807,-106.529 -106.702,-106.326 -58.765,0.204 -105.951,48.716 -105.951,107.481 V 0 c 17.023,1.297 42.028,5.385 69.185,18.336 13.597,6.485 24.843,13.812 33.831,20.656 1.999,1.522 4.714,1.654 6.839,0.314 11.565,-7.293 25.606,-14.97 42.097,-21.814 C -37.789,7.981 -16.843,2.856 0,0"
             style="fill:#ffcebe;fill-opacity:1;fill-rule:nonzero;stroke:none"
             id="path315" /></g><g
           id="g317"
           transform="translate(332.3267,321.5728)"><path
             d="m 0,0 c 0,-20.302 -6.841,-48.84 -26.29,-69.994 -32.335,-35.17 -87.254,-27.577 -94.537,-26.462 8.433,-3.885 20.991,-8.414 36.769,-9.586 0,0 3.841,-0.272 7.356,-0.284 C -17.807,-106.53 30,-58.848 30,0 V 42.851 C 21.1,44.359 11.055,46.502 0.179,49.591 -1.134,30.862 0,18.958 0,0"
             style="fill:#ffb09c;fill-opacity:1;fill-rule:nonzero;stroke:none"
             id="path319" /></g><g
           id="g321"
           transform="translate(273.5,107)"><path
             d="m 0,0 c 0,-9.665 -7.835,-17.5 -17.5,-17.5 -9.665,0 -17.5,7.835 -17.5,17.5 0,9.665 7.835,17.5 17.5,17.5 C -7.835,17.5 0,9.665 0,0"
             style="fill:#f78996;fill-opacity:1;fill-rule:nonzero;stroke:none"
             id="path323" /></g><g
           id="g325"
           transform="translate(256,124.5)"><path
             d="M 0,0 C -3.191,0 -6.174,-0.868 -8.75,-2.36 -3.524,-5.388 0,-11.026 0,-17.5 0,-23.974 -3.524,-29.613 -8.75,-32.64 -6.174,-34.132 -3.191,-35 0,-35 c 9.665,0 17.5,7.835 17.5,17.5 C 17.5,-7.835 9.665,0 0,0"
             style="fill:#f2717f;fill-opacity:1;fill-rule:nonzero;stroke:none"
             id="path327" /></g><g
           id="g329"
           transform="translate(385.9971)"><path
             d="m 0,0 v 12.265 c 0,17.3 -6.369,33.385 -16.864,45.865 -1.691,2.01 -2.653,4.53 -2.653,7.156 v 110.203 l -30,9.126 v -100.5 c 0,-1.973 -1.864,-3.383 -3.776,-2.895 -5.362,1.366 -10.962,2.097 -16.719,2.095 -22.045,-0.004 -41.703,-10.201 -54.53,-26.132 -2.797,-3.475 -8.113,-3.475 -10.911,0 -12.826,15.931 -32.484,26.128 -54.529,26.132 -5.757,0.002 -11.357,-0.729 -16.719,-2.095 -1.912,-0.488 -3.777,0.922 -3.777,2.895 v 100.5 l -30,-9.126 V 65.286 c 0,-2.626 -0.961,-5.146 -2.652,-7.156 -10.495,-12.48 -16.864,-28.565 -16.864,-45.865 l 0,-12.265 z"
             style="fill:#f78996;fill-opacity:1;fill-rule:nonzero;stroke:none"
             id="path331" /></g><g
           id="g333"
           transform="translate(369.1328,58.1304)"><path
             d="m 0,0 c -1.69,2.01 -2.652,4.53 -2.652,7.156 v 110.202 l -30,9.126 v -5.937 l 10.483,-3.189 V 7.156 c 0,-2.626 0.962,-5.146 2.652,-7.156 10.496,-12.48 16.865,-28.565 16.865,-45.865 V -58.13 h 19.516 v 12.265 C 16.864,-28.565 10.495,-12.48 0,0"
             style="fill:#f2717f;fill-opacity:1;fill-rule:nonzero;stroke:none"
             id="path335" /></g><g
           id="g337"
           transform="translate(336.4805,160.4888)"><path
             d="M 0,0 30,-9.126 V 15 L 14.399,19.746 0,24.126 Z"
             style="fill:#f2717f;fill-opacity:1;fill-rule:nonzero;stroke:none"
             id="path339" /></g><g
           id="g341"
           transform="translate(373.7534,437.0552)"><path
             d="m 0,0 c 11.9,-20.255 18.727,-43.85 18.727,-69.035 v -129.91 c 0,-26.4 -16.09,-49.05 -38.99,-58.67"
             style="fill:none;stroke:#000000;stroke-width:15;stroke-linecap:round;stroke-linejoin:round;stroke-miterlimit:10;stroke-dasharray:none;stroke-opacity:1"
             id="path343" /></g><g
           id="g345"
           transform="translate(158.5098,179.4399)"><path
             d="m 0,0 c -22.9,9.62 -38.99,32.27 -38.99,58.67 v 129.91 c 0,75.37 61.1,136.48 136.48,136.48 37.69,0 71.81,-15.28 96.51,-39.98"
             style="fill:none;stroke:#000000;stroke-width:15;stroke-linecap:round;stroke-linejoin:round;stroke-miterlimit:10;stroke-dasharray:none;stroke-opacity:1"
             id="path347" /></g><g
           id="g349"
           transform="translate(362.3267,364.4238)"><path
             d="m 0,0 h 7.885 c 12.3,0 22.271,-9.971 22.271,-22.271 0,-12.3 -9.971,-22.271 -22.271,-22.271 H 0"
             style="fill:none;stroke:#000000;stroke-width:15;stroke-linecap:round;stroke-linejoin:round;stroke-miterlimit:10;stroke-dasharray:none;stroke-opacity:1"
             id="path351" /></g><g
           id="g353"
           transform="translate(149.6733,364.4238)"><path
             d="m 0,0 h -7.885 c -12.3,0 -22.271,-9.971 -22.271,-22.271 0,-12.3 9.971,-22.271 22.271,-22.271 H 0"
             style="fill:none;stroke:#000000;stroke-width:15;stroke-linecap:round;stroke-linejoin:round;stroke-miterlimit:10;stroke-dasharray:none;stroke-opacity:1"
             id="path355" /></g><g
           id="g357"
           transform="translate(211.5,225.1201)"><path
             d="m 0,0 v -14.74 c 0,-8.8 -5.76,-16.57 -14.18,-19.13 L -99.6,-59.86 c -33.69,-10.25 -56.72,-41.32 -56.72,-76.54 v -81.22"
             style="fill:none;stroke:#000000;stroke-width:15;stroke-linecap:round;stroke-linejoin:round;stroke-miterlimit:10;stroke-dasharray:none;stroke-opacity:1"
             id="path359" /></g><g
           id="g361"
           transform="translate(300.5,224.98)"><path
             d="m 0,0 v -14.6 c 0,-8.8 5.76,-16.57 14.18,-19.13 L 99.6,-59.72 c 33.69,-10.25 56.72,-41.32 56.72,-76.54 v -81.22"
             style="fill:none;stroke:#000000;stroke-width:15;stroke-linecap:round;stroke-linejoin:round;stroke-miterlimit:10;stroke-dasharray:none;stroke-opacity:1"
             id="path363" /></g><g
           id="g365"
           transform="translate(188.4678,188.5532)"><path
             d="m 0,0 c 12.87,-24.126 38.278,-40.553 67.532,-40.553 29.254,0 54.663,16.427 67.532,40.553"
             style="fill:none;stroke:#000000;stroke-width:15;stroke-linecap:round;stroke-linejoin:round;stroke-miterlimit:10;stroke-dasharray:none;stroke-opacity:1"
             id="path367" /></g><g
           id="g369"
           transform="translate(362.3267,364.4233)"><path
             d="m 0,0 v -42.851 c 0,-58.847 -47.807,-106.529 -106.702,-106.326 -58.765,0.204 -105.951,48.716 -105.951,107.481 V 0 c 17.023,1.297 42.028,5.385 69.185,18.336 13.597,6.485 24.843,13.812 33.831,20.656 1.999,1.522 4.714,1.654 6.839,0.314 11.565,-7.293 25.606,-14.97 42.097,-21.814 C -37.789,7.981 -16.843,2.856 0,0 Z"
             style="fill:none;stroke:#000000;stroke-width:15;stroke-linecap:round;stroke-linejoin:round;stroke-miterlimit:10;stroke-dasharray:none;stroke-opacity:1"
             id="path371" /></g><g
           id="g373"
           transform="translate(304.4966,343.3057)"><path
             d="M 0,0 V -17.157"
             style="fill:none;stroke:#000000;stroke-width:15;stroke-linecap:round;stroke-linejoin:round;stroke-miterlimit:10;stroke-dasharray:none;stroke-opacity:1"
             id="path375" /></g><g
           id="g377"
           transform="translate(207.5034,343.3057)"><path
             d="M 0,0 V -17.157"
             style="fill:none;stroke:#000000;stroke-width:15;stroke-linecap:round;stroke-linejoin:round;stroke-miterlimit:10;stroke-dasharray:none;stroke-opacity:1"
             id="path379" /></g><g
           id="g381"
           transform="translate(241.0078,273.4341)"><path
             d="M 0,0 C 1.836,-1.301 7.671,-5.083 15.921,-4.787 23.058,-4.532 28.062,-1.365 29.984,0"
             style="fill:none;stroke:#000000;stroke-width:15;stroke-linecap:round;stroke-linejoin:round;stroke-miterlimit:10;stroke-dasharray:none;stroke-opacity:1"
             id="path383" /></g><g
           id="g385"
           transform="translate(256,124.5)"><path
             d="M 0,0 V 23.5"
             style="fill:none;stroke:#000000;stroke-width:15;stroke-linecap:round;stroke-linejoin:round;stroke-miterlimit:10;stroke-dasharray:none;stroke-opacity:1"
             id="path387" /></g><g
           id="g389"
           transform="translate(273.5,107)"><path
             d="m 0,0 c 0,-9.665 -7.835,-17.5 -17.5,-17.5 -9.665,0 -17.5,7.835 -17.5,17.5 0,9.665 7.835,17.5 17.5,17.5 C -7.835,17.5 0,9.665 0,0 Z"
             style="fill:none;stroke:#000000;stroke-width:15;stroke-linecap:round;stroke-linejoin:round;stroke-miterlimit:10;stroke-dasharray:none;stroke-opacity:1"
             id="path391" /></g><g
           id="g393"
           transform="translate(145.5195,91.25)"><path
             d="M 0,0 V -25.964 C 0,-28.59 -0.962,-31.11 -2.652,-33.12 -13.147,-45.6 -19.517,-61.685 -19.517,-78.985 v -4.765"
             style="fill:none;stroke:#000000;stroke-width:15;stroke-linecap:round;stroke-linejoin:round;stroke-miterlimit:10;stroke-dasharray:none;stroke-opacity:1"
             id="path395" /></g><g
           id="g397"
           transform="translate(145.5195,175.4888)"><path
             d="M 0,0 V -49.239"
             style="fill:none;stroke:#000000;stroke-width:15;stroke-linecap:round;stroke-linejoin:round;stroke-miterlimit:10;stroke-dasharray:none;stroke-opacity:1"
             id="path399" /></g><g
           id="g401"
           transform="translate(336.4805,184.6147)"><path
             d="m 0,0 v -100.5 c 0,-1.973 -1.865,-3.382 -3.777,-2.895 -5.362,1.367 -10.961,2.097 -16.719,2.096 -22.044,-0.005 -41.703,-10.202 -54.529,-26.133 -2.798,-3.475 -8.113,-3.475 -10.911,0 -12.826,15.931 -32.485,26.128 -54.529,26.133 -5.758,0.001 -11.357,-0.729 -16.719,-2.096 -1.912,-0.487 -3.777,0.922 -3.777,2.895 V 0"
             style="fill:none;stroke:#000000;stroke-width:15;stroke-linecap:round;stroke-linejoin:round;stroke-miterlimit:10;stroke-dasharray:none;stroke-opacity:1"
             id="path403" /></g><g
           id="g405"
           transform="translate(385.9971,7.5)"><path
             d="m 0,0 v 4.765 c 0,17.3 -6.369,33.385 -16.864,45.865 -1.691,2.01 -2.653,4.53 -2.653,7.156 v 110.203"
             style="fill:none;stroke:#000000;stroke-width:15;stroke-linecap:round;stroke-linejoin:round;stroke-miterlimit:10;stroke-dasharray:none;stroke-opacity:1"
             id="path407" /></g></g></g></g></svg>
