<svg id="Filled_Outline" height="512" viewBox="0 0 128 128" width="512" xmlns="http://www.w3.org/2000/svg" data-name="Filled Outline"><path d="m64.186 3.05c-13.557-.309-28.508 12.29-33.195 26.85-7.767 24.131 1.009 62.3-9.069 85.35l68.745-.365a254.255 254.255 0 0 0 2.666-71.218c-1.029-9.519-2.6-20.767-8.666-28-6.708-7.995-13.222-11.652-16.526-12.367a15.726 15.726 0 0 0 -3.955-.25z" fill="#345a7f"/><path d="m105.4 123.6h-82.8c-1.209 0-2.155-.062-1.986-1.259.72-5.116 3.479-12.14 11.648-19.081 3.5-2.98 10.36-7.37 15.76-10.53a15.418 15.418 0 0 0 6.96-8.79 21.426 21.426 0 0 0 .93-4.52h16.178a21.426 21.426 0 0 0 .93 4.52 15.4 15.4 0 0 0 6.95 8.79c5.41 3.16 12.26 7.55 15.77 10.53 8.168 6.94 10.92 13.963 11.645 19.079.17 1.198-.777 1.261-1.985 1.261z" fill="#ff7b7b"/><path d="m96.742 103.263c-3.508-2.982-11.361-7.371-16.77-10.534l-14.257 31.871h40.685a2 2 0 0 0 1.987-2.26c-.726-5.117-3.482-12.14-11.645-19.077z" fill="#f7bfd4"/><path d="m48.025 92.729c-5.409 3.163-13.262 7.552-16.77 10.534-8.163 6.941-10.919 13.96-11.642 19.078a2 2 0 0 0 1.987 2.259h41.44z" fill="#ffccdc"/><path d="m38.943 47.389a6.212 6.212 0 0 0 -4.974-.076c-2.886 1.464-3.275 5.27-2.306 8 1.244 3.505 5.1 7.013 9.225 5.678z" fill="#ff7b7b"/><path d="m73.02 83.94c-3.38 1.86-6.87 3.27-9.02 3.27s-5.64-1.41-9.02-3.27a21.426 21.426 0 0 0 .93-4.52h16.18a21.426 21.426 0 0 0 .93 4.52z" fill="#f74b5b"/><path d="m88.035 45.377c-1.179-12.431-10.949-26.871-17.145-24.037a1.174 1.174 0 0 1 -1.265-.181c-10.345-9.166-10.333 22.869-30.682 26.23.463 14.254 5.057 23.811 9.857 27.544 4.354 3.386 11.617 7.276 15.2 7.276s10.846-3.89 15.2-7.276c5.027-3.91 10.287-14.257 8.835-29.556z" fill="#ff9595"/><path d="m83.921 92.834a8.076 8.076 0 0 0 -4.268-2.634c-.949-.321-1.782-.224-2.223.675-2.779 5.665-8.254 17.431-13.743 28.253v5.472h2.9c.882-1.129 10.511-6.882 11.229-9.663a6.038 6.038 0 0 0 -.6-5.267.619.619 0 0 1 .678-.926c3 .775 10.043 1.641 10.043-.557 0-2.156-.337-11.216-4.016-15.353z" fill="#ffd7e5"/><path d="m66.583 124.6c-6.021-13.913-12.564-26.7-16.012-33.73-.441-.9-1.275-.995-2.224-.674a8.071 8.071 0 0 0 -4.268 2.638c-3.679 4.137-4.016 13.2-4.016 15.353 0 2.2 7.038 1.332 10.043.557a.619.619 0 0 1 .678.926 6.038 6.038 0 0 0 -.6 5.267c.718 2.781 8.1 8.534 8.979 9.663z" fill="#ffe3ee"/><path d="m77.187 124.6c-2.1-.06-4.52-1.7-2.747-5.611 4.56-10.97-4.764-27.284-2.354-39.574a56.95 56.95 0 0 0 7.114-4.485c5.03-3.91 10.29-14.25 8.84-29.55-1.157-12.186-10.569-26.3-16.781-24.187a.084.084 0 0 1 -.092-.136c1.74-1.949 2.234-7.259-2.073-11.619-3.252-3.292-4.341-6.472-2.727-6.383 12.854.71 26.225 13.13 30.643 26.845 5.15 16 1.65 36.97 3.99 56.77 1.5 12.65 10.687 38.941-23.813 37.93z" fill="#345a7f"/><rect fill="#fff" height="5.563" rx="2" width="16.375" x="31.037" y="115.25"/><g fill="#473049"><circle cx="76.435" cy="49.446" r="2.525"/><path d="m71.948 46.2a5.512 5.512 0 0 1 2.719-1.7 7.072 7.072 0 0 1 3-.142 8.761 8.761 0 0 1 2.689.885c.119.067.127.078.224.138a1.667 1.667 0 0 0 .709.065l.294-.01a1.03 1.03 0 0 1 1.063 1 1.043 1.043 0 0 1 -.077.425 2.233 2.233 0 0 1 -1.352 1.223 2.948 2.948 0 0 1 -2.105-.125 7.252 7.252 0 0 0 -1.874-.472 4.934 4.934 0 0 0 -1.746.088 3.182 3.182 0 0 0 -1.351.682l-.115.092a1.5 1.5 0 0 1 -2.078-2.149z"/><path d="m70.925 39.188a19.387 19.387 0 0 1 6.973-.5 16.589 16.589 0 0 1 6.6 2.277 1.164 1.164 0 0 1 -1.15 2.024 14.061 14.061 0 0 0 -5.711-1.651 16.561 16.561 0 0 0 -5.915.738h-.009a1.5 1.5 0 0 1 -.865-2.874z"/><circle cx="51.565" cy="49.446" r="2.525"/><path d="m53.864 48.256a3.182 3.182 0 0 0 -1.351-.682 4.934 4.934 0 0 0 -1.746-.088 7.252 7.252 0 0 0 -1.874.472 2.948 2.948 0 0 1 -2.105.125 2.233 2.233 0 0 1 -1.352-1.223 1.03 1.03 0 0 1 .981-1.42l.3.01a1.667 1.667 0 0 0 .709-.065c.1-.06.105-.071.224-.138a8.761 8.761 0 0 1 2.689-.885 7.072 7.072 0 0 1 2.995.142 5.512 5.512 0 0 1 2.719 1.7 1.5 1.5 0 0 1 -2.073 2.145z"/><path d="m65.715 56.528a1.5 1.5 0 0 0 -1.127.51 2.815 2.815 0 0 1 -.6.1 2.782 2.782 0 0 1 -.608-.1 1.5 1.5 0 0 0 -2.627.99c0 2.087 3.2 2.112 3.235 2.112s3.224-.025 3.224-2.112a1.5 1.5 0 0 0 -1.497-1.5z"/><path d="m69.916 65.278a.973.973 0 0 0 -1.234-.613l-.084.028a1.3 1.3 0 0 1 -.769.026c-.3-.059-.7-.206-1.254-.323a3.842 3.842 0 0 0 -1.978.085 4.176 4.176 0 0 0 -.611.262 4.236 4.236 0 0 0 -.612-.262 3.838 3.838 0 0 0 -1.974-.081c-.553.117-.953.264-1.255.323a1.3 1.3 0 0 1 -.769-.026l-.084-.029a.975.975 0 0 0 -.856 1.732 3.382 3.382 0 0 0 1.841.528c.6 0 1.078-.08 1.421-.073a1.106 1.106 0 0 1 .685.179 3.791 3.791 0 0 0 .54.764 1.813 1.813 0 0 0 2.347-.216c.123-.152.306-.535.324-.548a1.108 1.108 0 0 1 .685-.179c.343-.007.821.076 1.422.073a3.381 3.381 0 0 0 1.84-.528.976.976 0 0 0 .375-1.122z"/><path d="m64.96 72.671h-1.92a1.5 1.5 0 0 1 0-3h1.92a1.5 1.5 0 0 1 0 3z"/><path d="m109.869 122.131a28.7 28.7 0 0 0 -5.477-12.894v-.009c.874-5.939-.226-12.426-1.12-17.7-.31-1.825-.6-3.549-.78-5.041a204.592 204.592 0 0 1 -.923-23.941c.009-12 .017-23.335-3.129-33.109-5.119-15.89-20.863-28.637-34.44-27.879-13.581-.758-29.321 11.989-34.438 27.883-3.7 11.5-3.718 26.166-3.734 40.349-.018 15.98-.037 32.5-5.279 44.494v.014a26.752 26.752 0 0 0 -2.416 7.833 3.467 3.467 0 0 0 .819 2.761 3.512 3.512 0 0 0 2.648 1.208h84.8a3.512 3.512 0 0 0 2.653-1.209 3.467 3.467 0 0 0 .816-2.76zm-54.518.97h-33.751a.508.508 0 0 1 -.388-.177.453.453 0 0 1 -.113-.373c.635-4.5 3.082-11.3 11.128-18.145a63.137 63.137 0 0 1 7.289-4.941 42.357 42.357 0 0 0 -.956 8.722 2.437 2.437 0 0 0 .982 1.951c1.9 1.469 6.59.89 9.168.424a7.92 7.92 0 0 0 .023 4.75c.539 2.085 3.263 4.76 6.617 7.786zm8.937 0h-4.476c-.371-.361-.9-.838-1.673-1.53-1.98-1.771-6.1-5.458-6.5-7.007a4.583 4.583 0 0 1 .383-4.041 2.235 2.235 0 0 0 .189-2 2.114 2.114 0 0 0 -2.481-1.226 24.971 24.971 0 0 1 -7.273.752.989.989 0 0 1 -.874-1.031c.143-3.991 1.017-10.26 3.616-13.183a11.31 11.31 0 0 1 3.822-2.226.232.232 0 0 1 .3.118c.6 1.217 10.305 20.774 14.969 31.377zm-7.213-83.913a20.991 20.991 0 0 0 -2.783-.492 74.187 74.187 0 0 0 5.652-9.53c2.111-4.032 4.1-7.841 6-8.131.856-.131 1.89.5 3.216 1.748a1.5 1.5 0 0 0 1.037.435 1.783 1.783 0 0 0 .882-.265 3.061 3.061 0 0 1 3.228-.034c4.879 2.259 11.287 12.623 12.233 22.6 1.331 14.027-3.19 24.286-8.263 28.229-4.223 3.286-11.228 6.961-14.277 6.961s-10.054-3.675-14.279-6.961c-3.791-2.948-8.321-11.048-9.165-24.336a1.016 1.016 0 0 1 .755-1.033 22.383 22.383 0 0 0 10.848-7.037 17.729 17.729 0 0 1 4.115.737h.014l.068.019a1.5 1.5 0 0 0 .719-2.914zm.012 42.5a18.32 18.32 0 0 0 6.913 2.021 17.057 17.057 0 0 0 6.26-1.727c-.353 5.177.818 10.791 1.973 16.255-2.382 5-5.218 10.945-8.217 16.946-3.711-8.067-11.13-23.01-11.634-24.032a18.23 18.23 0 0 0 4.7-9.465zm15.995 36.68a6.112 6.112 0 0 0 -.494 4.733h-5.024q-.968-2.221-1.951-4.4c2.714-5.37 5.317-10.76 7.618-15.576 1.081 5.692 1.623 10.975-.149 15.243zm4.149 4.734a2.108 2.108 0 0 1 -1.717-.79c-.349-.563-.244-1.518.317-2.743 2.638-6.355.972-14.232-.64-21.849-1.26-5.96-2.538-12.1-1.725-17.318a51.067 51.067 0 0 0 6.654-4.283c5.3-4.122 10.945-14.682 9.407-30.882-.965-10.17-7.618-22.1-13.96-25.039a6.165 6.165 0 0 0 -5.117-.3c-1.719-1.47-3.349-2.074-4.958-1.825-3.4.52-5.52 4.574-8.207 9.706-3.786 7.235-8.5 16.2-18.15 18.039h-.005a7.945 7.945 0 0 0 -5.841.162c-3.6 1.825-4.251 6.429-3.041 9.837 1.315 3.7 4.849 6.964 8.829 6.964a7.244 7.244 0 0 0 .759-.059c2.065 6.7 5.146 11.148 8.042 13.4a50.922 50.922 0 0 0 6.4 4.143 15.818 15.818 0 0 1 -3.8 8.53 3.558 3.558 0 0 0 -2.617-.017 9.531 9.531 0 0 0 -4.909 3.063 12.7 12.7 0 0 0 -2.043 3.294 85.916 85.916 0 0 0 -10.631 6.988 44.709 44.709 0 0 0 -3.967 3.813c2.464-10.935 2.5-23.692 2.512-36.14.016-13.952.032-28.379 3.59-39.433 4.759-14.763 19.216-26.621 31.587-25.8 12.378-.818 26.829 11.032 31.582 25.8 3 9.324 2.993 20.429 2.984 32.186a206.648 206.648 0 0 0 .945 24.3c.185 1.567.483 3.327.8 5.19 1.406 8.288 3.157 18.6-2.382 24.969-3.776 4.335-10.739 6.377-20.698 6.092zm-40.991-68.802a3.669 3.669 0 0 1 1.869.59q.378 2.589.93 4.882c-2.756-.025-5.146-2.66-5.963-4.96-.67-1.886-.625-5.043 1.571-6.158a5.1 5.1 0 0 1 2.853-.211c.048 1.048.12 2.064.21 3.055a7.393 7.393 0 0 0 -1.378-.2 1.482 1.482 0 0 0 -1.545 1.453 1.5 1.5 0 0 0 1.453 1.549zm70.545 68.628a.5.5 0 0 1 -.388.177h-11.59a17.578 17.578 0 0 0 5.384-4.126 16.934 16.934 0 0 0 3.235-5.746 24.766 24.766 0 0 1 3.471 9.324.453.453 0 0 1 -.112.367z"/><path d="m50.482 110.2h-.021z"/><path d="m44.412 122.313h-12.375a3.5 3.5 0 0 1 -3.5-3.5v-1.563a3.5 3.5 0 0 1 3.5-3.5h12.375a3.5 3.5 0 0 1 3.5 3.5v1.563a3.5 3.5 0 0 1 -3.5 3.5zm-12.375-5.563a.5.5 0 0 0 -.5.5v1.563a.5.5 0 0 0 .5.5h12.375a.5.5 0 0 0 .5-.5v-1.563a.5.5 0 0 0 -.5-.5z"/></g></svg>