<?xml version="1.0"?>
<svg xmlns="http://www.w3.org/2000/svg" viewBox="0 0 512 512" width="512" height="512"><g id="Filled_outline" data-name="Filled outline"><path d="M376,64h0a72,72,0,0,1,72,72V304a0,0,0,0,1,0,0H304a0,0,0,0,1,0,0V136a72,72,0,0,1,72-72Z" style="fill:#f57707"/><path d="M444,200H432V160h12a20,20,0,0,1,20,20h0A20,20,0,0,1,444,200Z" style="fill:#feb784"/><path d="M308,160h12v40H308a20,20,0,0,1-20-20h0A20,20,0,0,1,308,160Z" style="fill:#feb784"/><path d="M240,248a48,48,0,0,1-96,0,28.918,28.918,0,0,0,15.97-24.58c.02-.43.03-.87.03-1.31V200h64v22.11c0,.44.01.88.03,1.31A28.922,28.922,0,0,0,240,248Z" style="fill:#fec9a3"/><path d="M224.03,223.42c-.01.01-.02.01-.03.02a64.093,64.093,0,0,1-64,0c-.01-.01-.02-.01-.03-.02.02-.43.03-.87.03-1.31V200h64v22.11C224,222.55,224.01,222.99,224.03,223.42Z" style="fill:#feb784"/><path d="M336,296v48H280V488H104V344H40l9.32-55.89A47.987,47.987,0,0,1,96.66,248H144a48,48,0,0,0,96,0h48a47.925,47.925,0,0,1,48,48Z" style="fill:#4d5e78"/><path d="M40,344,24.353,445.708a30.287,30.287,0,0,0-.353,4.61v7.365A30.318,30.318,0,0,0,54.317,488h0a30.317,30.317,0,0,0,29.9-25.333L104,344Z" style="fill:#fec093"/><path d="M256,104v48a64.02,64.02,0,0,1-89.64,58.65,61.053,61.053,0,0,1-6.36-3.21A63.969,63.969,0,0,1,128,152V104a64,64,0,1,1,128,0Z" style="fill:#fec9a3"/><path d="M256,104v48a64.02,64.02,0,0,1-89.64,58.65,73.743,73.743,0,0,0,47.59-68.95V108.93a73.768,73.768,0,0,0-40.97-66.06A64.012,64.012,0,0,1,256,104Z" style="fill:#fec093"/><path d="M276,104h4a0,0,0,0,1,0,0v40a0,0,0,0,1,0,0h-4a20,20,0,0,1-20-20v0A20,20,0,0,1,276,104Z" transform="translate(536 248) rotate(-180)" style="fill:#feb784"/><path d="M124,104h4a0,0,0,0,1,0,0v40a0,0,0,0,1,0,0h-4a20,20,0,0,1-20-20v0A20,20,0,0,1,124,104Z" style="fill:#feb784"/><path d="M160,64l-32,40V64h0c0-24,16-24,16-24Z" style="fill:#804a32"/><path d="M224,64l32,40V64h0c0-24-16-24-16-24Z" style="fill:#804a32"/><path d="M256,64H160L144,40a28.939,28.939,0,0,1,25.89-16H216a40.031,40.031,0,0,1,22.02,6.61A40.041,40.041,0,0,1,256,64Z" style="fill:#92563a"/><path d="M336,296v48H280V488H104V404.75c76.88-24.72,148.44-72.39,199.47-154.21A48.029,48.029,0,0,1,336,296Z" style="fill:#485870"/><path d="M264,488h48V272H296a32,32,0,0,0-32,32Z" style="fill:#feb784"/><path d="M312,408l-2.07-1.38a49.251,49.251,0,0,1-14.91-66.32L312,312V272h32v16a32,32,0,0,0,64,0V272h32V416l24,72H312Z" style="fill:#f59898"/><path d="M464,488H312V429.93A352.006,352.006,0,0,0,440,321.48V416Z" style="fill:#ed9191"/><path d="M408,272v16a32,32,0,1,1-64,0V272a27.324,27.324,0,0,0,8-19.31V232h48v20.69A27.445,27.445,0,0,0,408,272Z" style="fill:#fec9a3"/><path d="M456,272H440V400L312,448l-48-8v48h48l158.315-43.177A24,24,0,0,0,488,421.669V304A32,32,0,0,0,456,272Z" style="fill:#fec9a3"/><path d="M400.73,258.92a62.656,62.656,0,0,1-26.04,5.07,63.712,63.712,0,0,1-23.44-4.95,27.44,27.44,0,0,0,.75-6.35V232h48v20.69A27.074,27.074,0,0,0,400.73,258.92Z" style="fill:#feb784"/><path d="M440,152v30.94c0,36.03-29.29,65.77-65.31,65.05-1.75-.04-3.49-.14-5.21-.32A63.993,63.993,0,0,1,312,184V152a63.951,63.951,0,0,1,64-64c.96,0,1.91.02,2.86.07a63.672,63.672,0,0,1,39.19,15.67q1.65,1.44,3.21,3A63.8,63.8,0,0,1,440,152Z" style="fill:#fec9a3"/><path d="M440,152v30.94c0,36.03-29.29,65.77-65.31,65.05-1.75-.04-3.49-.14-5.21-.32a82.347,82.347,0,0,0,32.54-65.65V145.36a82.106,82.106,0,0,0-23.16-57.29,63.672,63.672,0,0,1,39.19,15.67q1.65,1.44,3.21,3A63.8,63.8,0,0,1,440,152Z" style="fill:#fec093"/><rect x="264" y="440" width="48" height="48" style="fill:#fec9a3"/><path d="M232,488H54.124A30.124,30.124,0,0,1,24,457.876h0a30.124,30.124,0,0,1,33.644-29.918L160,440l24-16h48Z" style="fill:#fec9a3"/><path d="M304,160s64,0,104-56c0,0,0,40,32,56h8V136a72,72,0,0,0-72-72h0a72,72,0,0,0-72,72Z" style="fill:#f98500"/><path d="M220,136a12,12,0,1,0-12-12A12.013,12.013,0,0,0,220,136Z"/><path d="M164,136a12,12,0,1,0-12-12A12.013,12.013,0,0,0,164,136Z"/><path d="M176,176h6.111a84.208,84.208,0,0,0,37.466-8.845l-7.154-14.31A68.145,68.145,0,0,1,182.111,160H176Z"/><path d="M404,176a12,12,0,1,0-12-12A12.013,12.013,0,0,0,404,176Z"/><path d="M403.577,199.155l-7.154-14.31A68.145,68.145,0,0,1,366.111,192H360v16h6.111A84.208,84.208,0,0,0,403.577,199.155Z"/><path d="M456,264V205.286a27.978,27.978,0,0,0,0-50.568V136a80,80,0,0,0-160,0v18.714a27.978,27.978,0,0,0,0,50.568v35.3a56.464,56.464,0,0,0-8-.578H242.066A20.894,20.894,0,0,1,232,222.11V211.875A72.273,72.273,0,0,0,264,152v-.29a28,28,0,0,0,0-55.42V96l-.052-34.253c0-.041-1.21-10.376-2.95-14.456l-.021-.045A48.074,48.074,0,0,0,216,16H169.889A36.7,36.7,0,0,0,139,32.707C130.611,34.973,120,43.189,120,64V96.29a28,28,0,0,0,0,55.42V152a72.27,72.27,0,0,0,32,59.875V222.11A20.806,20.806,0,0,1,141.94,240H96.66a55.805,55.805,0,0,0-55.23,46.794l-9.321,55.89c-.005.033-.006.066-.011.1h0L16.439,444.516C16.147,446.447,16,457.88,16,457.88v.024A38.166,38.166,0,0,0,54.1,496H312a7.992,7.992,0,0,0,2.1-.282l132.03-36.009,10.277,30.821,15.178-5.06-10-29.977,10.825-2.952A32.068,32.068,0,0,0,496,421.669V304A40.045,40.045,0,0,0,456,264ZM271.978,416l-.311-112.26A24.44,24.44,0,0,1,296,280h8v29.784l-15.843,26.4A57.263,57.263,0,0,0,304,412.248v21.623L276.116,417.14A14.963,14.963,0,0,0,271.978,416ZM312,245.4V217a72.407,72.407,0,0,0,32,31.513v4.182A19.434,19.434,0,0,1,340.306,264h-6.35A56.154,56.154,0,0,0,312,245.4ZM348,176a11.987,11.987,0,0,0,8.6-20.351,139.6,139.6,0,0,0,46.154-32.607c3.484,13.413,11.383,30.819,29.246,41.663V182.94a57.354,57.354,0,0,1-35.063,52.9,54.546,54.546,0,0,1-22.086,4.151A55.6,55.6,0,0,1,355,235.934,55.883,55.883,0,0,1,320,184V166.464a150.518,150.518,0,0,0,16.053-3.511c-.03.345-.053.693-.053,1.047A12.013,12.013,0,0,0,348,176Zm52,99.063V288a24,24,0,1,1-48,0V275.063a35.628,35.628,0,0,0,7.967-20.868c6.059,2.549,23.366,2.472,32.065-.044A35.628,35.628,0,0,0,400,275.063Zm-83.563,126.28-2.074-1.382a41.251,41.251,0,0,1-12.483-55.545l16.98-28.3A8.009,8.009,0,0,0,320,312V280h16v8a40,40,0,1,0,80,0v-8h16V394.456l-112,42V408A8,8,0,0,0,316.437,401.343ZM411.694,264A19.434,19.434,0,0,1,408,252.69v-4.35a73.443,73.443,0,0,0,32-32.062V264Zm40.787-75.517a11.956,11.956,0,0,1-4.984,2.994c.328-2.827.5-22.785.5-22.785a11.989,11.989,0,0,1,4.481,19.791ZM376,72a64.072,64.072,0,0,1,64,64v14.829c-23.529-14.685-24-46.514-24-46.829a8,8,0,0,0-14.51-4.65c-28.926,40.5-71.844,49.851-89.49,52.007V136A64.072,64.072,0,0,1,376,72Zm-76.481,99.517A11.978,11.978,0,0,1,304,168.685s.135,20.289.388,22.758a11.994,11.994,0,0,1-4.869-19.926ZM168,222.11v-2.223a72.078,72.078,0,0,0,48,0v2.223a36.926,36.926,0,0,0,15.762,30.271,40,40,0,0,1-68.048,23.9,39.649,39.649,0,0,1-11.478-23.887A36.707,36.707,0,0,0,168,222.11ZM247.978,72,248,81.191,240.646,72ZM272,124a12.02,12.02,0,0,1-8,11.314V112.686A12.02,12.02,0,0,1,272,124ZM246.987,56H227.818l7.114-17.779A32.086,32.086,0,0,1,246.987,56Zm-26.9-23.74L210.584,56H187.816l9.6-24H216A32.175,32.175,0,0,1,220.083,32.26ZM169.889,32h10.295l-9.6,24h-6.3L153.522,39.861A20.819,20.819,0,0,1,169.889,32ZM136,64c0-8.776,2.436-12.744,4.693-14.537L150.1,63.57,136,81.193Zm-24,60a12.02,12.02,0,0,1,8-11.314v22.628A12.02,12.02,0,0,1,112,124Zm24,28V106.806L163.845,72h56.31L248,106.806V152a56,56,0,1,1-112,0ZM57.212,289.423A39.859,39.859,0,0,1,96.66,256h39.91a56,56,0,0,0,110.849,0H288a39.754,39.754,0,0,1,24,8H296a40.52,40.52,0,0,0-40.331,39.514c0,.058,0,.117,0,.175L255.978,416H184a8.005,8.005,0,0,0-4.438,1.344l-21.55,14.367L112,426.3V344a8,8,0,0,0-8-8H49.444ZM46.864,352H94.556L82.743,422.856l-24.165-2.843a38.123,38.123,0,0,0-22.871,4.494ZM54.32,480h-.252c-.26,0-.516,0-.771-.021l-.13-.007a22.241,22.241,0,0,1-21.138-21.138c0-.043,0-.086-.007-.13-.017-.255-.02-.511-.021-.771,0-.018,0-.037,0-.056A22.128,22.128,0,0,1,56.709,435.9l102.356,12.042a8,8,0,0,0,5.373-1.289L186.422,432H224v48ZM480,421.669a16.036,16.036,0,0,1-11.79,15.436L310.929,480H240V432h29.784l38.1,22.86a7.992,7.992,0,0,0,6.925.63l128-48A8,8,0,0,0,448,400V280h8a24.028,24.028,0,0,1,24,24Z"/></g></svg>
