<svg id="Capa_1" enable-background="new 0 0 512 512" height="512" viewBox="0 0 512 512" width="512" xmlns="http://www.w3.org/2000/svg"><g><path d="m441.073 288.77-96.692 144.205h-176.759l-21.417-31.936-75.276-112.269 71.382-110.301 20.737-32.039h188.039z" fill="#6c7fd8"/><path d="m351.087 146.43h-188.039l-20.738 32.039c8.108-4.533 17.328-6.985 26.816-6.985h112.218c15.679 0 30.607 6.696 41.022 18.409l81.608 91.761c3.487 3.921 3.494 9.83.016 13.759l-81.625 92.223c-10.415 11.713-25.342 18.42-41.022 18.42h-112.217c-8.004 0-15.813-1.751-22.922-5.017l21.417 31.936h176.759l96.693-144.205z" fill="#4f66d0"/><path d="m372.432 171.484-1.391 6.511-4.708 21.994c-2.05 9.55-10.302 16.452-19.986 16.864-.299.01-.597.021-.906.021h-178.88c-10.075 0-18.78-7.036-20.892-16.885l-6.099-28.505 116.431-13.588 59.318 6.923z" fill="#fff9e2"/><path d="m372.432 171.484-1.391 6.511-4.708 21.994c-2.05 9.55-10.302 16.452-19.986 16.864-.299.01-.597.021-.906.021h-29.741c4.698 0 15.495-1.535 19.059-4.162 4.677-3.441 5.182-10.271 1.319-14.608l-7.304-8.211c-10.415-11.713-16.669-18.409-20.32-18.413l6.865-6.661z" fill="#fff5c6"/><g><g><path d="m211.275 199.215c-4.268 0-7.726-3.459-7.726-7.726v-20.009c0-4.268 3.459-7.726 7.726-7.726s7.726 3.459 7.726 7.726v20.009c0 4.268-3.458 7.726-7.726 7.726z" fill="#fff5c6"/></g><g><path d="m256.001 199.215c-4.268 0-7.726-3.459-7.726-7.726v-20.009c0-4.268 3.459-7.726 7.726-7.726s7.726 3.459 7.726 7.726v20.009c.001 4.268-3.458 7.726-7.726 7.726z" fill="#fff5c6"/></g><g><path d="m300.728 199.215c-4.268 0-7.726-3.459-7.726-7.726v-20.009c0-4.268 3.459-7.726 7.726-7.726s7.726 3.459 7.726 7.726v20.009c0 4.268-3.459 7.726-7.726 7.726z" fill="#fff5c6"/></g></g><path d="m278.241 254.014 11.076.862c19.961 0 43.315 26.784 43.315 63.979 0 39.747-16.165 71.968-55.911 71.968h-41.44c-39.747 0-71.968-32.221-71.968-71.968 0-28.688 16.763-53.437 41.048-64.998l18.629 27.898 18.497 5.244c4.082 3.173 9.223 5.085 14.874 5.085 15.445 0 26.963-14.234 23.741-29.339z" fill="#8d9ca8"/><path d="m227.977 247.253c-8.38.846-16.334 3.133-23.615 6.603l-1.675 9.901c-2.507 14.815 8.91 28.326 23.935 28.326 5.662 0 10.793-1.918 14.866-5.086-6.77-5.264-10.625-13.998-9.061-23.24l1.694-10.012c.62-3.667-2.443-6.866-6.144-6.492z" fill="#7a8c98"/><path d="m278.241 254.014c24.089 11.635 40.708 36.296 40.708 64.841 0 39.747-32.221 71.968-71.968 71.968h29.74c39.747 0 71.968-32.221 71.968-71.968 0-37.195-28.217-67.8-64.413-71.576-3.771-.394-6.826 3.026-6.035 6.735z" fill="#7a8c98"/><path d="m474.534 280.498-75.193-149.304c-16.215-32.214-49.202-52.529-85.258-52.529h-14.494c-2.04 0-4.059.185-6.037.556-6.047 1.102-11.713 3.863-16.349 8.035l-15.71 14.144c-2.091 1.885-4.914 2.503-7.489 1.854h-.01c-1.257-.309-2.462-.927-3.482-1.854l-15.712-14.144c-6.15-5.532-14.124-8.592-22.386-8.592h-14.494c-3.451 0-6.861.185-10.24.546-31.966 3.451-60.348 22.849-75.018 51.983l-75.203 149.305c-2.617 5.202-2.617 11.342 0 16.545l60.121 119.366c10.982 21.799 26.847 40.136 45.895 53.93 25.126 18.203 55.764 28.526 87.967 28.526h49.119c1.762 0 3.523-.031 5.274-.093 54.538-1.916 103.914-33.378 128.587-82.363l60.111-119.377c2.628-5.202 2.628-11.332.001-16.534zm-40.178 15.823-81.219 91.315c-10.415 11.713-25.353 18.42-41.032 18.42h-112.207c-15.679 0-30.617-6.706-41.032-18.42l-11.26-12.661-69.96-78.654c-3.832-4.306-3.832-10.796 0-15.102l81.219-91.326c10.415-11.713 25.353-18.409 41.032-18.409h112.207c15.679 0 30.617 6.696 41.032 18.409l81.219 91.326c3.834 4.306 3.834 10.796.001 15.102z" fill="#fd8087"/><g fill="#fe646f"><path d="m253.993 103.255-19.975.402c-5.542 0-10.899-2.05-15.02-5.759l-14.969-10.642c-4.626-4.162-10.302-6.923-16.349-8.035v-.01c3.379-.361 6.789-.546 10.24-.546h14.495c8.262 0 16.236 3.06 22.386 8.592l15.71 14.144c1.019.927 2.225 1.545 3.482 1.854z"/><path d="m231.442 498.865c-32.203 0-62.841-10.322-87.967-28.526-5.058-11.281-7.222-24.075-5.594-37.365l3.162-25.785c.587-4.821-1.483-9.529-5.336-12.476-2.74-2.101-5.285-4.461-7.613-7.077l-80.921-90.975c-3.997-4.502-3.997-11.28 0-15.782l80.921-90.986c10.415-11.713 25.353-18.409 41.032-18.409h30.772c-15.679 0-30.617 6.696-41.032 18.409l-81.219 91.326c-3.832 4.306-3.832 10.796 0 15.102l69.96 78.654 11.26 12.661c10.415 11.713 25.353 18.42 41.032 18.42h22.601z"/><path d="m474.534 297.032-60.111 119.377c-24.673 48.985-74.05 80.447-128.587 82.363-1.751.062-3.513.093-5.274.093h-30.772c56.619 0 108.396-31.894 133.862-82.456l60.967-121.055c2.086-4.142 2.086-9.028 0-13.17l-76.049-150.992c-14.67-29.133-43.051-48.532-75.018-51.973 1.978-.371 3.997-.556 6.037-.556h14.494c36.056 0 69.043 20.315 85.258 52.529l75.193 149.304c2.627 5.204 2.627 11.334 0 16.536z"/></g><path d="m274.462 512h-36.922c-42.31 0-75.08-37.035-69.919-79.025l4.966-40.496c3.894-31.771 30.885-55.65 62.893-55.65h41.042c32.008 0 58.999 23.88 62.893 55.65l4.966 40.496c5.161 41.99-27.609 79.025-69.919 79.025z" fill="#fd4755"/><path d="m344.384 432.971-4.969-40.493c-3.899-31.774-30.883-55.65-62.895-55.65h-12.782c19.778 0 42.038 23.876 45.937 55.65l4.969 40.493c5.153 41.996-27.614 79.029-69.924 79.029h29.74c42.311 0 75.077-37.033 69.924-79.029z" fill="#ef3349"/><path d="m442.117 8.459-21.239 55.717-22.879-5.767-22.472-11.523 15.279-40.1c1.557-4.085 5.476-6.786 9.85-6.786h35.633c4.369 0 7.385 4.376 5.828 8.459z" fill="#8d9ca8"/><path d="m410.368 0c4.258 1.098 6.614 5.655 5.048 9.764l-17.417 45.69v2.956l22.879 5.767 21.239-55.717c1.557-4.084-1.459-8.46-5.828-8.46z" fill="#7a8c98"/><path d="m401.086 146.246-37.901-1.98-27.52-22.956 25.767-67.6c2.241-5.881 8.826-8.831 14.706-6.589l44.125 16.819c5.881 2.241 8.831 8.826 6.589 14.706z" fill="#c8effe"/><path d="m420.263 63.94-44.125-16.819c-5.881-2.241-12.465.708-14.706 6.589l-.46 1.207c2.669-1.207 5.801-1.393 8.755-.267l24.332 9.29c5.881 2.241 8.831 8.826 6.589 14.706l-22.443 58.879 4.68 7.77 18.2.951 25.767-67.6c2.242-5.88-.708-12.464-6.589-14.706z" fill="#99e6fc"/><g><path d="m369.19 141.818c-.919 0-1.855-.165-2.765-.514-3.985-1.528-5.976-5.997-4.448-9.981l15.126-39.435c1.528-3.984 5.998-5.977 9.981-4.448 3.985 1.528 5.976 5.997 4.448 9.981l-15.126 39.435c-1.178 3.075-4.108 4.962-7.216 4.962z" fill="#99e6fc"/></g><path d="m401.403 146.368-66.055-25.178c-18.797-7.165-39.844 2.265-47.009 21.063-2.987 7.837.944 16.612 8.782 19.6l105.745 40.306c7.837 2.987 16.612-.944 19.6-8.782 7.165-18.798-2.265-39.845-21.063-47.009z" fill="#62dbfb"/><path d="m401.403 146.367-66.055-25.178c-8.745-3.333-17.975-3.071-26.07.051l65.921 25.127c18.797 7.165 28.227 28.212 21.063 47.009-.739 1.939-1.835 3.637-3.18 5.052l9.785 3.73c7.837 2.987 16.612-.944 19.6-8.782 7.164-18.797-2.266-39.844-21.064-47.009z" fill="#01d0fb"/><g><path d="m263.738 336.828v81.735c0 4.275-3.461 7.726-7.726 7.726s-7.726-3.451-7.726-7.726v-81.735z" fill="#ef3349"/></g><g fill="#c8effe"><path d="m127.703 21.014c-4.129-1.062-8.345 1.418-9.413 5.548l-4.224 16.352c-1.067 4.132 1.417 8.346 5.548 9.413.648.167 1.298.247 1.938.247 3.439 0 6.575-2.313 7.476-5.796l4.224-16.352c1.066-4.13-1.418-8.345-5.549-9.412z"/><path d="m80.079 37.2c-3.02-3.014-7.912-3.01-10.927.011-3.014 3.021-3.009 7.912.011 10.927l11.92 11.894c1.508 1.505 3.483 2.258 5.458 2.258 1.98 0 3.96-.757 5.469-2.269 3.014-3.021 3.009-7.912-.011-10.927z"/><path d="m75.386 82.293-16.274 4.517c-4.112 1.141-6.52 5.399-5.378 9.511.95 3.421 4.055 5.662 7.441 5.662.684 0 1.379-.092 2.07-.284l16.274-4.517c4.112-1.141 6.52-5.399 5.378-9.511s-5.401-6.522-9.511-5.378z"/></g></g></svg>