<svg height="512" viewBox="0 0 54 60" width="512" xmlns="http://www.w3.org/2000/svg"><g id="Page-1" fill="none" fill-rule="evenodd"><g id="042---Dentistry" fill-rule="nonzero" transform="translate(-1 -1)"><path id="Shape" d="m36.922 2.652c5.1527542-1.70536997 10.8227096-.03000224 14.2210609 4.20206241 3.3983512 4.23206469 3.8097867 10.13002809 1.0319391 14.79293759-3.2931263 5.3256369-5.0815059 11.4441416-5.175 17.705v1.648c0 9.029-3.554 16.217-8.672 18.592-1.391011.6270005-3.0053693.5038139-4.2851402-.3269855-1.279771-.8307995-2.0493858-2.2552364-2.0428598-3.7810145v-12.317c.0349519-2.1022511-1.5205052-3.8927301-3.607-4.152-1.1245295-.1110229-2.2435547.2587724-3.0805031 1.0179892s-1.3137267 1.8370147-1.3124969 2.9670108v12.484c.0037967 1.5243598-.7669238 2.94629-2.0462355 3.775174-1.2793118.828884-2.8920507.9512307-4.2817645.324826-5.118-2.371-8.672-9.559-8.672-18.584v-1.648c-.09439465-6.2591546-1.8827401-12.3758144-5.175-17.7-2.78149526-4.6631139-2.37190678-10.5637702 1.0271798-14.79786479 3.39908659-4.2340946 9.0716398-5.90969822 14.2258202-4.20213521 5.7923686 1.92426146 12.0516314 1.92426146 17.844 0z" fill="#f5f5f5"/><g fill="#cfd8dc"><path id="Shape" d="m16.078 2.652c3.357389 1.10675389 6.8921578 1.57581791 10.422 1.383-2.5244591-.12918627-5.0204368-.59428155-7.422-1.383-1.7965511-.58967806-3.6994639-.78344903-5.578-.568h-.024c.8845421.09944815 1.7564811.28978686 2.602.568z"/><path id="Shape" d="m53.931 13.636c-.6550846-6.04287338-5.3953591-10.83332489-11.431-11.552-.9888639-.11155361-1.9871361-.11155361-2.976 0 4.3735211.51504994 8.1889535 3.20920561 10.1375841 7.15835763 1.9486306 3.94915207 1.7654974 8.61632047-.4865841 12.40064237-3.2938196 5.3267979-5.0822266 11.4467786-5.175 17.709v1.648c0 9.029-3.554 16.217-8.672 18.592-.118.055-.237.094-.357.138 1.0922163.4061189 2.3018022.3563951 3.357-.138 5.118-2.379 8.672-9.567 8.672-18.592v-1.648c.0943947-6.2591546 1.8827401-12.3758144 5.175-17.7 1.4354327-2.4123336 2.0514694-5.2244918 1.756-8.016z"/><path id="Shape" d="m25.393 39.015c-1.1245295-.1110229-2.2435547.2587724-3.0805031 1.0179892s-1.3137267 1.8370147-1.3124969 2.9670108v12.484c-.0000388 1.8979873-1.1873409 3.5932197-2.971 4.242 1.3738671.4819673 2.8961897.2672079 4.0831071-.5760183 1.1869175-.8432262 1.8907888-2.2100301 1.8878929-3.6659817v-12.484c.0040502-1.6204402.9882163-3.0773223 2.49-3.686-.3482327-.1551566-.718199-.2559952-1.097-.299z"/></g><path id="Shape" d="m37 20v4c0 .5522847-.4477153 1-1 1h-5v5c0 .5522847-.4477153 1-1 1h-4c-.5522847 0-1-.4477153-1-1v-5h-5c-.5522847 0-1-.4477153-1-1v-4c0-.5522847.4477153-1 1-1h5v-5c0-.5522847.4477153-1 1-1h4c.5522847 0 1 .4477153 1 1v5h5c.5522847 0 1 .4477153 1 1z" fill="#f44335"/><path id="Shape" d="m33.555 60.137c1.5557031 1.0011763 3.5156476 1.1362668 5.194.358 5.62-2.608 9.251-10.262 9.251-19.495v-1.648c.1020608-6.0793069 1.841071-12.0186795 5.034-17.193 2.9934992-5.0216563 2.5514701-11.3747152-1.1086063-15.9334333-3.6600764-4.55871805-9.7675049-6.36317485-15.3173937-4.5255667-5.5881176 1.85897944-11.6278824 1.85897944-17.216 0-5.5498888-1.83760815-11.65731734-.03315135-15.31739373 4.5255667-3.66007638 4.5587181-4.10210547 10.911777-1.10860627 15.9334333 3.192929 5.1743205 4.93193915 11.1136931 5.034 17.193v1.648c0 9.237 3.631 16.891 9.251 19.5 1.6781042.7796087 3.6387268.6444714 5.194-.358 1.5948172-1.0111086 2.5594249-2.7696772 2.555-4.658v-12.484c-.0000107-.8478541.358743-1.6561228.9875248-2.2248846.6287819-.5687618 1.468871-.8449008 2.3124752-.7601154 1.5703387.2116606 2.7319927 1.567784 2.7 3.152v12.317c-.0027078 1.8865472.9616872 3.6428406 2.555 4.653zm-5.067-22.117c-1.404914-.1377778-2.8026052.3247442-3.8480058 1.2733767-1.0454007.9486325-1.6410873 2.2949701-1.6399942 3.7066233v12.484c.0012003 1.2030119-.6144778 2.3226326-1.631 2.966-.9769643.6431205-2.218455.7306615-3.276.231-4.841-2.246-8.093-9.354-8.093-17.681v-1.648c-.1015904-6.4402052-1.93806576-12.7338297-5.316-18.218-2.0802754-3.4961504-2.2475409-7.8081957-.4443423-11.45498715 1.80319861-3.64679145 5.33126586-6.13163638 9.3723423-6.60101285.4631622-.05222478.9289028-.07826619 1.395-.078 1.2766829-.00213016 2.5454506.20044053 3.758.6 5.9952177 1.99397847 12.4747823 1.99397847 18.47 0 4.7566144-1.57507003 9.9911598-.02891022 13.1285678 3.87786562 3.1374079 3.90677578 3.5171561 9.35166958.9524322 13.65613438-3.3779342 5.4841703-5.2144096 11.7777948-5.316 18.218v1.648c0 8.331-3.252 15.439-8.093 17.685-1.0577312.4986681-2.298712.411163-3.276-.231-1.0177259-.6441263-1.6335745-1.7655673-1.631-2.97v-12.317c.0272347-2.6147346-1.9162043-4.8316851-4.512-5.147z" fill="#000"/><path id="Shape" d="m13.834 5.065c-4.61945282.58629581-8.24292926 4.24856573-8.78 8.874-.23080339 2.1484504.24149673 4.3138026 1.346 6.171.28304594.4744126.8970874.6295459 1.37149999.3465.4744126-.2830459.62954593-.8970874.34650001-1.3715-.88409838-1.4881905-1.26165604-3.2229908-1.076-4.944.42809981-3.6947789 3.3229181-6.62014277 7.013-7.087.5492472-.06157975.9445797-.55675282.883-1.106s-.5567528-.94457975-1.106-.883z" fill="#000"/><path id="Shape" d="m32 26h4c1.1045695 0 2-.8954305 2-2v-4c0-1.1045695-.8954305-2-2-2h-4v-4c0-1.1045695-.8954305-2-2-2h-4c-1.1045695 0-2 .8954305-2 2v4h-4c-1.1045695 0-2 .8954305-2 2v4c0 1.1045695.8954305 2 2 2h4v4c0 1.1045695.8954305 2 2 2h4c1.1045695 0 2-.8954305 2-2zm-1-2c-.5522847 0-1 .4477153-1 1v5h-4v-5c0-.5522847-.4477153-1-1-1h-5v-4h5c.5522847 0 1-.4477153 1-1v-5h4v5c0 .5522847.4477153 1 1 1h5v4z" fill="#000"/></g></g></svg>