<svg id="Capa_1" enable-background="new 0 0 512 512" height="512" viewBox="0 0 512 512" width="512" xmlns="http://www.w3.org/2000/svg"><g><g><g><g><path d="m361.711 112.588c-.104.873-6.838 20.939-10.963 33.149-2.016 5.985-3.221 12.199-3.595 18.497-1.694 27.901-8.469 103.696-32.12 106.232-7.43.79-14.143-3.221-19.931-9.799-12.439-14.143-20.637-40.152-22.581-56.01-2.951-24.181-34.032-25.999-39.841 0-5.102 22.799-19.141 68.303-42.511 65.809-23.931-2.567-30.582-80.128-32.182-107.198-.374-6.359-1.611-12.647-3.658-18.684l-10.838-31.995c-2.328-6.879-3.46-14.008-3.46-21.074 0-16.013 5.809-31.725 16.689-43.519 15.203-16.471 37.721-22.498 58.379-15.618l14.974 6.848 15.587 7.118c4.281 1.964 9.196 2.016 13.509.166.197-.083.322-.145.374-.166l21.843-9.976.675-.312 3.35-1.532c6.287-2.875 13.054-4.663 19.963-4.908.639-.023 1.278-.034 1.917-.034 15.244 0 30.146 6.453 41.192 18.414 15.681 16.999 20.835 42.136 13.228 64.592z" fill="#fff9e2"/></g></g></g><path d="m361.711 112.588c-.104.873-6.838 20.939-10.963 33.149-2.016 5.985-3.221 12.199-3.595 18.497-1.694 27.901-8.469 103.696-32.12 106.232-7.43.79-14.143-3.221-19.931-9.799v-.01c8.791-14.049 14.226-40.464 17.478-63.367 3.242-22.892 4.292-42.283 4.292-42.283.073-3.71-1.985-7.108-5.268-8.833-24.7-12.958-41.555-38.843-41.555-68.667 0-13.166 6.017-29.377 11.337-41.139l.675-.312 3.35-1.532c6.287-2.875 13.054-4.663 19.963-4.908.639-.023 1.278-.034 1.917-.034 15.244 0 30.146 6.453 41.192 18.414 15.681 16.999 20.835 42.136 13.228 64.592z" fill="#fff5c6"/><path d="m252.601 185.843c-2.954-24.186-41.952-30.836-52.398 18.813-3.263 15.508-10.909 41.404-22.783 55.68 3.581 5.847 7.793 9.596 12.746 10.126 23.369 2.5 37.416-43.006 42.51-65.806 2.788-12.478 11.398-18.533 19.926-18.799 0-.005 0-.01-.001-.014z" fill="#fff5c6"/><path d="m2.585 502.841 115.141-128.44c2.131-2.377 3.802-5.119 5.025-8.068 11.253-27.13 36.019-48.058 65.311-54.034l61.936-12.918c4.558-.951 8.866-2.844 12.648-5.559l55.64-39.939c6.174-4.432 14.28-5.123 21.115-1.801 11.892 5.78 15.388 21.078 7.187 31.45l-15.21 19.236c-14.5 18.339-32.013 34.078-51.79 46.546h119.724c8.284 0 16.25-3.192 22.243-8.912l55.681-53.15c6.173-5.893 15.42-7.185 22.972-3.21 10.569 5.562 13.877 19.125 7.055 28.929l-53.07 76.275c-7.168 10.303-17.958 17.523-30.216 20.221l-194.685 42.845c-9.042 1.99-17.077 7.14-22.662 14.524l-28.703 37.95c-3.437 4.544-8.804 7.214-14.501 7.214h-156.751c-4.75 0-7.261-5.622-4.09-9.159z" fill="#fed2a4"/><g fill="#ffbd86"><path d="m304.923 283.532-15.21 19.236c-9.664 12.222-29.45 28.827-41.574 38.544-5.061 4.056-4.827 11.832.459 15.59l3.919 2.786c3.644 2.591 8.524 2.608 12.188.044l14.885-10.419c19.777-12.467 37.29-28.207 51.79-46.546l15.21-19.236c8.201-10.372 4.705-25.67-7.187-31.45-6.835-3.322-14.941-2.631-21.115 1.801l-10.941 7.853c3.262 6.824 2.728 15.282-2.424 21.797z"/><path d="m500.545 284.223c-7.701-4.239-17.317-2.689-23.676 3.38l-8.588 8.197c1.714 5.599.968 11.923-2.684 17.171l-53.07 76.275c-7.168 10.302-17.958 17.523-30.216 20.221l-194.685 42.845c-9.042 1.99-17.077 7.14-22.662 14.524l-24.779 32.762c-4.748 6.278-11.566 10.672-19.245 12.402h42.487c5.697 0 11.065-2.67 14.501-7.214l28.703-37.95c5.585-7.384 13.62-12.534 22.662-14.524l194.685-42.845c12.258-2.698 23.047-9.918 30.216-20.221l53.07-76.275c6.749-9.699 3.584-23.077-6.719-28.748z"/></g><circle cx="385.423" cy="77.503" fill="#fd4755" r="77.503"/><path d="m385.423 0c-6.533 0-12.873.818-18.934 2.34 33.65 8.45 58.569 38.893 58.569 75.164s-24.919 66.714-58.569 75.164c6.061 1.522 12.401 2.34 18.934 2.34 42.804 0 77.503-34.7 77.503-77.503s-34.699-77.505-77.503-77.505z" fill="#ef3349"/><path d="m415.293 64.022h-11.533c-2.682 0-4.856-2.174-4.856-4.856v-11.532c0-3.843-3.115-6.959-6.959-6.959h-13.045c-3.843 0-6.959 3.115-6.959 6.959v11.533c0 2.682-2.174 4.856-4.856 4.856h-11.533c-3.843 0-6.959 3.115-6.959 6.959v13.045c0 3.843 3.115 6.959 6.959 6.959h11.533c2.682 0 4.856 2.174 4.856 4.856v11.533c0 3.843 3.115 6.959 6.959 6.959h13.045c3.843 0 6.959-3.115 6.959-6.959v-11.535c0-2.682 2.174-4.856 4.856-4.856h11.533c3.843 0 6.959-3.115 6.959-6.959v-13.044c0-3.843-3.116-6.959-6.959-6.959z" fill="#c8effe"/><g><path d="m259.169 46.509c-2.92 1.32-21.417 9.352-40.36 9.352-4.302 0-7.794-3.491-7.794-7.794 0-4.302 3.492-7.794 7.794-7.794 3.793 0 7.617-.416 11.264-1.049l15.587 7.118c4.281 1.964 9.196 2.016 13.509.167z" fill="#fff5c6"/></g><g><path d="m112.36 196.931h-6.523v-6.522c0-4.305-3.489-7.794-7.794-7.794s-7.794 3.489-7.794 7.794v6.522h-6.522c-4.305 0-7.794 3.489-7.794 7.794s3.489 7.794 7.794 7.794h6.522v6.522c0 4.305 3.489 7.794 7.794 7.794s7.794-3.489 7.794-7.794v-6.522h6.523c4.305 0 7.794-3.489 7.794-7.794s-3.49-7.794-7.794-7.794z" fill="#eaf6ff"/><path d="m32.829 125.79c-4.292 0-7.771 3.479-7.771 7.771s3.479 7.771 7.771 7.771 7.772-3.479 7.772-7.771c0-4.291-3.479-7.771-7.772-7.771z" fill="#c8effe"/></g></g></svg>