<svg id="Object" height="512" viewBox="0 0 512 512" width="512" xmlns="http://www.w3.org/2000/svg"><path d="m434.19 155.8c-.18 51.03-13.75 77.54-25.4 101.66-10.66 21.92-19.18 66.96-24.66 98.93-.01.09-.03.18-.05.27-7.72 32.57-17.59 94.92-53.12 102.98-18.42.49-31.32-11.55-39.65-36.1-12.3-32.88-10.47-94.24-22.09-124.8-4.04-8.28-8.73-13.01-13.23-13.34h-.06c-.11 0-.23.02-.35.04-.16.02-.33.05-.5.08-.12.03-.24.05-.37.09-.28.07-.56.15-.85.26-.14.05-.28.11-.43.17-.81.35-1.63.84-2.45 1.46-.14.11-.29.22-.43.34-1.43 1.17-2.85 2.75-4.22 4.71-.14.19-.27.39-.41.6-1.19 1.77-2.24 3.65-3.18 5.59-11.64 30.63-9.78 91.86-22.09 124.8-8.33 24.56-21.23 36.58-39.65 36.1-35.55-8.08-45.38-70.39-53.12-102.98-.02-.09-.04-.18-.05-.27-5.48-31.97-14-77.01-24.66-98.93-11.65-24.12-25.22-50.64-25.4-101.66-3.79-77.1 61.33-113.49 129.13-101.11.48.08.96.17 1.44.26.23.05.46.09.69.14.58.11 1.16.22 1.73.35 2.18.45 4.34.95 6.5 1.5.05.01.09.03.14.04.84.22 1.68.42 2.51.67 4.41 1.21 8.8 2.63 13.07 4.27 7.98 3.03 15.7 6.77 23 11.2 74.15-45.53 184.06-15.48 178.21 82.68z" fill="#9d9d9c"/><path d="m430.19 155.71c0 50-13.73 76.83-25 100-11.01 22.64-19.74 69.31-25 100-5.82 23.07-16 92.79-50 100-53.4-.11-40.68-121.36-57.34-158.66-5.26-10.81-11.19-15.38-16.83-15.66h-.08c-5.64.28-11.57 4.85-16.83 15.66-18.32 45.1-2.66 155.42-57.34 158.66-33.42-6.54-44.38-76.92-50-100-5.26-30.69-13.99-77.36-25-100-11.27-23.17-25-50-25-100-6.19-94 100.6-124.57 174.21-77.89 69.41-43.91 178.6-21.88 174.21 77.89z" fill="#e2cb98"/><path d="m430.19 155.71c0 50-13.73 76.83-25 100-1.44 2.97-7.45 5.55-16.83 7.74-26.4 6.17-79.52 9.25-132.59 9.24-71.78-.01-143.5-5.67-149-16.98-11.27-23.17-25-50-25-100-6.19-94 100.6-124.57 174.21-77.89 69.41-43.91 178.6-21.88 174.21 77.89z" fill="#e3e3de"/><path d="m405.5 179.73c0 50-13.73 76.83-25 100-11.01 22.64-19.74 69.31-25 100-3.7 15.2-9.72 50.91-22.94 75.4-.78.23-1.57.43-2.37.58-53.4-.11-40.68-121.36-57.34-158.66-5.26-10.81-11.19-15.38-16.83-15.66h-.08c-4.23-1.92-27.03-3.8-35.51 13.74-4.95 10.25-8.5 32.49-9.51 36.48-7.97 31.42-7.19 90.02-22.12 123.32-2.2.51-4.54.77-7.03.78-33.42-6.54-44.38-76.92-50-100-5.26-30.69-13.99-77.36-25-100-11.27-23.17-25-50-25-100-1.01-24.3 4.38-43.47 14.71-59.11 37.16-23.71 93.15-21.12 134.81 5.24 69.41-43.91 178.6-21.88 174.21 77.89z" fill="#ffe5a5"/><path d="m405.5 179.73c0 38.86-8.29 63.72-17.28 83.75-43.55 11.86-262.27 15.07-281.45-7.77-11.27-23.17-25-50-25-100-1.01-24.3 4.38-43.47 14.71-59.11 37.16-23.71 93.15-21.12 134.81 5.24 69.41-43.91 178.6-21.88 174.21 77.89z" fill="#f9f9f1"/><path d="m121.95 163.87c-2.61 4.37-9.29 2.63-9.46-2.45-.54-16.87 1.06-31.49 15.6-41 19.46-12.73 39.32-16.81 72.4.57 4.46 2.34 3.16 9.05-1.85 9.57-51.57 5.35-63.36 10.95-76.69 33.3z" fill="#fbfbf4"/><path d="m181.77 459.71c-54.59-9.32-54.99-160.88-78.6-202.25-11.67-24.12-25.22-50.64-25.4-101.66-5.39-99.22 104.18-127.85 178.21-82.68 74.14-45.52 184.06-15.48 178.21 82.68-.18 51.03-13.73 77.54-25.4 101.66-10.7 21.99-19.2 67.18-24.71 99.2-7.53 31.71-16.9 91.08-50.25 102.27-1.28.36-2.41.71-3.64.78-59-1.54-44.04-123.55-60.96-160.97-4.04-8.29-8.74-13.02-13.24-13.35-6.16.82-9.94 6.92-13.25 13.34-16.87 44.52-4.4 148.03-53.04 160.09-2.48.58-5.15.87-7.93.88zm74.17-182.32c26.01 3.2 27.5 46.46 31.14 75.56 5.02 46.08 10.71 98.28 42.73 98.76.49-.1 1.01-.24 1.57-.4 28.93-10.11 38.06-68.14 44.89-96.41 5.56-32.44 14.23-78.13 25.32-100.94 11.85-24.41 24.44-49.1 24.6-98.25 3.18-99-101.64-115.58-168.07-74.51-1.31.83-2.97.83-4.28 0-45.38-30.26-123.34-29.8-154.03 17.62-10.43 15.71-15.01 34.68-14.04 56.89 0 47.76 12.59 73.6 23.7 96.41 12 23.83 20.39 69.19 26.22 102.78 6.91 28.73 16.48 88.96 46.47 96.81 2.09-.03 4.04-.27 5.88-.7 38.22-9.14 33.07-104.63 43.7-144.4 2.99-12.62 11.03-28.51 24.21-29.22z" fill="#9d9d9c"/></svg>