<svg id="Object" height="512" viewBox="0 0 512 512" width="512" xmlns="http://www.w3.org/2000/svg"><path d="m434.09 155.78c-.18 51.02-13.74 77.55-25.4 101.66-25.34 43.83-20.74 187.31-78.6 202.25-60.33-3.62-43.27-122.15-60.97-160.97-8.5-17.46-17.98-17.46-26.48 0-17.57 38.57-.86 157.69-60.96 160.97-57.79-14.73-53.32-158.55-78.61-202.25-25.83-42.56-48.42-156.32 19.32-190.37 37.46-21.71 91.99-19.16 133.5 6.03 73.16-45.94 184.83-14.56 178.21 82.68z" fill="#9d9d9c"/><path d="m430.09 155.69c0 50-13.73 76.83-25 100-25.14 42.67-20.78 182.23-75 200-65.14-.8-28.63-162.95-74.17-174.32-8.52-.6-18.33 14.66-20.41 26.2-12.16 45.04-3.16 146.15-53.84 148.12-54.51-18.25-49.69-157.05-75-200-17.84-26.74-40.41-117.19-11.16-157.76 31.06-48.73 107.34-53.69 160.38-20.13 69.41-43.91 178.6-21.88 174.21 77.89z" fill="#e2cb98"/><path d="m430.09 155.69c0 50-13.73 76.83-25 100-18.27 16.33-98.92 15.86-149.42 16.98-71.78-.01-143.5-5.67-149-16.98-17.84-26.67-40.41-117.24-11.17-157.76 31.06-48.73 107.34-53.69 160.38-20.13 69.41-43.91 178.6-21.88 174.21 77.89z" fill="#e3e3de"/><path d="m405.4 179.71c0 50-13.73 76.83-25 100-23.72 52.49-19.45 115.89-47.94 175.4-67.38 6.57-31.12-163.97-76.62-173.74-36.57-7.38-39.54 22.77-45.02 50.22-7.97 31.42-7.19 90.02-22.12 123.32-57.94 6.14-58.84-164.35-82.03-199.22-17.99-27.15-40.85-118.66-10.29-159.11 37.16-23.71 93.15-21.12 134.81 5.24 69.41-43.91 178.6-21.88 174.21 77.89z" fill="#ffe5a5"/><path d="m405.4 179.71c0 38.86-8.29 63.72-17.28 83.75-43.5 11.93-262.3 15.03-281.45-7.77-18.01-27.1-40.84-118.69-10.29-159.11 37.16-23.71 93.15-21.12 134.81 5.24 69.41-43.91 178.6-21.88 174.21 77.89z" fill="#f9f9f1"/><path d="m294.55 133.86c-39.23 19.2-60.92-26.48-59.74-61.83l18.8 10c1.18.63 2.59.63 3.76 0l20.67-11.04 21.11 6.76c18.91 6.06 17.51 18.03 17.45 18.48 5.74 14.32-12.9 31.6-22.05 37.63z" fill="#e3e3de"/><path d="m288.59 120.5c-6.42 3.95-32.86 11.69-25.68-6.19 6.2-15.45 19.42-25.41 29.58-25.91 8.72-.43 12.61 6.19 11.46 12.61-2.08 11.63-6.21 13.46-15.36 19.49z" fill="#f9f9f1"/><path d="m121.97 163.86c-2.61 4.37-9.29 2.63-9.46-2.45-.54-16.87 1.06-31.49 15.6-41 19.46-12.73 39.32-16.81 72.4.57 4.46 2.34 3.16 9.05-1.85 9.57-51.57 5.35-63.36 10.95-76.69 33.3z" fill="#fbfbf4"/><g fill="#9d9d9c"><path d="m255.88 73.1c-7.49-4.54-15.4-8.35-23.55-11.41.14.05.29.12.43.19l22.73 12.09c.43-.2 20.15-10.83 20.59-10.97-6.97 2.81-13.74 6.18-20.2 10.1z"/><path d="m389.38 67.07c-37.58-22.28-94.42-18.55-133.89 6.9-38.99-25.52-95.69-29.15-133.11-6.9-67.72 34.18-45.18 147.67-19.31 190.37 25.47 44.47 20.5 185.14 77.82 202.18 61.12-2.03 44.05-122.26 61.74-160.9 8.48-17.46 17.99-17.46 26.48 0 17.58 38.61.84 157.69 60.97 160.97 57.72-14.68 53.35-158.6 78.6-202.25 25.85-42.57 48.39-156.33-19.31-190.37zm-72.57 31.23c5.06 13.29-14.27 30.11-22.26 35.56-39.19 19.2-60.93-26.45-59.74-61.83l18.8 10c1.18.63 2.59.63 3.76 0l20.67-11.04c19.07 6.43 39.85 9.22 38.77 27.31zm109.28 57.22c-.1 49.11-12.74 74.03-24.6 98.42-11.09 22.81-19.76 68.5-25.32 100.94-6.85 28.77-16.52 88.92-46.47 96.81-32.01-.49-37.7-52.69-42.72-98.76-2.52-23.11-4.86-44.79-10.63-57.65-12.29-24.08-28.78-23.97-40.99.12-16.81 37.7-4.96 155.43-53.3 156.29-49.11-16.7-47.61-156.87-71.79-197.75-26.22-43.84-45.13-149.98 16.13-179.94 27.96-16.21 66.21-17.88 100.39-5.83-.19 10.71.75 46.78 21 65.74 15.66 16.08 39.97 13.7 51.02 6.73 1.49-1.01 32.87-22.46 25.83-44.23.42-15.7-12.89-24.26-34.52-29.95 64.96-17.9 137.22 2.91 135.98 89.06z"/></g></svg>