<svg height="512" viewBox="0 0 64 64" width="512" xmlns="http://www.w3.org/2000/svg"><g id="Layer_33" data-name="Layer 33"><path d="m46 1a12 12 0 0 1 12 12v17a8 8 0 0 1 -8 8h-8a8 8 0 0 1 -8-8v-17a12 12 0 0 1 12-12z" fill="#c67a60"/><path d="m35 43.034v19.966h-30a4 4 0 0 1 -4-4v-15.966a8 8 0 0 1 5.8-7.692l8.2-2.342h6l8.2 2.342a8 8 0 0 1 5.8 7.692z" fill="#62b5e8"/><path d="m4 59v-15.966a8 8 0 0 1 5.8-7.692l8.2-2.342h-3l-8.2 2.342a8 8 0 0 0 -5.8 7.692v15.966a4 4 0 0 0 4 4h3a4 4 0 0 1 -4-4z" fill="#44a7d8"/><path d="m37 30v-17a11.994 11.994 0 0 1 10.5-11.9 11.927 11.927 0 0 0 -13.5 11.9v17a8 8 0 0 0 8 8h3a8 8 0 0 1 -8-8z" fill="#b26049"/><path d="m63 43.034v15.966a4 4 0 0 1 -4 4h-30v-19.966a8 8 0 0 1 5.8-7.692l8.2-2.342h6l8.2 2.342a8 8 0 0 1 5.8 7.692z" fill="#f2a7b1"/><path d="m43 28h6a0 0 0 0 1 0 0v5a3 3 0 0 1 -3 3 3 3 0 0 1 -3-3v-5a0 0 0 0 1 0 0z" fill="#ffddb0" stroke="#000" stroke-linecap="round" stroke-linejoin="round" stroke-width="2"/><path d="m9 11h18a0 0 0 0 1 0 0v11a9 9 0 0 1 -9 9 9 9 0 0 1 -9-9v-11a0 0 0 0 1 0 0z" fill="#f7d1c6"/><path d="m26.544 24.818-2.451-1.949a4 4 0 0 0 -2.493-.869h-7.2a4 4 0 0 0 -2.489.869l-2.455 1.949a9 9 0 0 0 17.088 0z" fill="#c67a60"/><path d="m9 15a0 0 0 0 1 0 0v6a0 0 0 0 1 0 0 3 3 0 0 1 -3-3 3 3 0 0 1 3-3z" fill="#f4b19f"/><path d="m30 15a0 0 0 0 1 0 0v6a0 0 0 0 1 0 0 3 3 0 0 1 -3-3 3 3 0 0 1 3-3z" fill="#f7d1c6" transform="matrix(-1 0 0 -1 57 36)"/><path d="m46 31a9 9 0 0 1 -9-9v-7h4a8 8 0 0 0 6.4-3.2l.6-.8.6.8a8 8 0 0 0 6.4 3.2v7a9 9 0 0 1 -9 9z" fill="#f7d1c6"/><path d="m12 22v-11h-3v11a8.951 8.951 0 0 0 10.5 8.865 8.995 8.995 0 0 1 -7.5-8.865z" fill="#f4b19f"/><path d="m37 15a0 0 0 0 1 0 0v6a0 0 0 0 1 0 0 3 3 0 0 1 -3-3 3 3 0 0 1 3-3z" fill="#f4b19f"/><path d="m58 15a0 0 0 0 1 0 0v6a0 0 0 0 1 0 0 3 3 0 0 1 -3-3 3 3 0 0 1 3-3z" fill="#f7d1c6" transform="matrix(-1 0 0 -1 113 36)"/><path d="m24 3.988v-.988a2 2 0 0 0 -2-2h-7.686a8.314 8.314 0 0 0 -8.314 8.314 5.686 5.686 0 0 0 5.686 5.686 18 18 0 0 0 11.244-3.944l.07-.056a4 4 0 0 0 4 4v-9.012a2 2 0 0 0 -2-2z" fill="#c67a60"/><path d="m57 49.012h6a0 0 0 0 1 0 0v9.988a4 4 0 0 1 -4 4h-2a0 0 0 0 1 0 0v-13.988a0 0 0 0 1 0 0z" fill="#f7d1c6"/><path d="m23.969 53.031h-10a8 8 0 0 0 -8 8v1.969h26v-1.969a8 8 0 0 0 -8-8z" fill="#f96464"/><path d="m17 53h4a0 0 0 0 1 0 0v1a2 2 0 0 1 -2 2 2 2 0 0 1 -2-2v-1a0 0 0 0 1 0 0z" fill="#f7d1c6"/><path d="m11 37h16a0 0 0 0 1 0 0v8a8 8 0 0 1 -8 8 8 8 0 0 1 -8-8v-8a0 0 0 0 1 0 0z" fill="#f7d1c6"/><path d="m14 45v-8h-3v8a7.985 7.985 0 0 0 9.5 7.855 8 8 0 0 1 -6.5-7.855z" fill="#f4b19f"/><path d="m19.5 30.87a9.3 9.3 0 0 1 -1.5.13 8.974 8.974 0 0 1 -8.54-6.18l2.45-1.95a.6.6 0 0 1 .13-.09 8.987 8.987 0 0 0 7.46 8.09z" fill="#b26049"/><path d="m10 41h1a0 0 0 0 1 0 0v4a0 0 0 0 1 0 0h-1a2 2 0 0 1 -2-2 2 2 0 0 1 2-2z" fill="#f4b19f"/><path d="m29 41.034h1a0 0 0 0 1 0 0v4a0 0 0 0 1 0 0h-1a2 2 0 0 1 -2-2 2 2 0 0 1 2-2z" fill="#f7d1c6" transform="matrix(-1 0 0 -1 57 86.069)"/><path d="m27 41h-4.343a4 4 0 0 1 -2.829-1.172l-.828-.828-.828.828a4 4 0 0 1 -2.829 1.172h-4.343v-4a8 8 0 0 1 8-8 8 8 0 0 1 8 8z" fill="#c67a60"/><path d="m20.5 29.145a7.985 7.985 0 0 0 -9.5 7.855v4h3v-4a8 8 0 0 1 6.5-7.855z" fill="#b26049"/><path d="m55 43h-20l-2 10h24z" fill="#c67a60"/><path d="m37 37h16a0 0 0 0 1 0 0v8a8 8 0 0 1 -8 8 8 8 0 0 1 -8-8v-8a0 0 0 0 1 0 0z" fill="#f7d1c6"/><g fill="#f4b19f"><path d="m40 45v-8h-3v8a7.985 7.985 0 0 0 9.5 7.855 8 8 0 0 1 -6.5-7.855z"/><path d="m36 41h1a0 0 0 0 1 0 0v4a0 0 0 0 1 0 0h-1a2 2 0 0 1 -2-2 2 2 0 0 1 2-2z"/><path d="m40 22v-7h-3v7a8.951 8.951 0 0 0 10.5 8.865 8.995 8.995 0 0 1 -7.5-8.865z"/></g><path d="m55 41.034h1a0 0 0 0 1 0 0v4a0 0 0 0 1 0 0h-1a2 2 0 0 1 -2-2 2 2 0 0 1 2-2z" fill="#f7d1c6" transform="matrix(-1 0 0 -1 109 86.069)"/><path d="m53 41h-4l-2-2-2 2h-8a2 2 0 0 1 -2-2 10 10 0 0 1 10-10 10 10 0 0 1 10 10 2 2 0 0 1 -2 2z" fill="#c67a60"/><path d="m38 39a9.993 9.993 0 0 1 8.5-9.875 9.928 9.928 0 0 0 -11.5 9.875 2 2 0 0 0 2 2h3a2 2 0 0 1 -2-2z" fill="#b26049"/><path d="m12 60v-2a3 3 0 0 0 -3-3c-.106 0-.207.021-.311.031a7.975 7.975 0 0 0 -2.672 5.137 2.994 2.994 0 0 0 5.983-.168z" fill="#d34444"/><path d="m49.969 53.031h-10a8 8 0 0 0 -8 8v1.969h26v-1.969a8 8 0 0 0 -8-8z" fill="#fcab68"/><path d="m42.969 53.031h-3a8 8 0 0 0 -8 8v1.969h3v-1.969a8 8 0 0 1 8-8z" fill="#ea8e49"/><path d="m43 53h4a0 0 0 0 1 0 0v1a2 2 0 0 1 -2 2 2 2 0 0 1 -2-2v-1a0 0 0 0 1 0 0z" fill="#f7d1c6"/><rect fill="#f7d1c6" height="8" rx="3" width="6" x="4" y="55"/><path d="m6.083 60v-2a2.99 2.99 0 0 1 2-2.816 2.966 2.966 0 0 0 -1-.184 3 3 0 0 0 -3 3v2a3 3 0 0 0 3 3 2.966 2.966 0 0 0 1-.184 2.99 2.99 0 0 1 -2-2.816z" fill="#f4b19f"/><rect fill="#f7d1c6" height="8" rx="3" width="6" x="54" y="55"/><path d="m9 9.314a8.314 8.314 0 0 1 8.314-8.314h-3a8.314 8.314 0 0 0 -8.314 8.314 5.686 5.686 0 0 0 5.686 5.686 17.943 17.943 0 0 0 1.886-.111 5.686 5.686 0 0 1 -4.572-5.575z" fill="#b26049"/><path d="m56 60v-2a2.99 2.99 0 0 1 2-2.816 2.962 2.962 0 0 0 -1-.184 3 3 0 0 0 -3 3v2a3 3 0 0 0 3 3 2.962 2.962 0 0 0 1-.184 2.99 2.99 0 0 1 -2-2.816z" fill="#f4b19f"/><path d="m41 17a1 1 0 0 0 -1 1v.951a1 1 0 0 0 2 0v-.951a1 1 0 0 0 -1-1z"/><path d="m51 20a1 1 0 0 0 1-1v-1a1 1 0 0 0 -2 0v1a1 1 0 0 0 1 1z"/><path d="m47.293 25.293a1.536 1.536 0 0 1 -2.586 0 1 1 0 0 0 -1.414 1.414 3.484 3.484 0 0 0 5.414 0 1 1 0 0 0 -1.414-1.414z"/><path d="m13 20a1 1 0 0 0 1-1v-1a1 1 0 0 0 -2 0v1a1 1 0 0 0 1 1z"/><path d="m23 20a1 1 0 0 0 1-1v-1a1 1 0 0 0 -2 0v1a1 1 0 0 0 1 1z"/><path d="m20.707 25.293a1 1 0 0 0 -1.414 0 1.536 1.536 0 0 1 -2.586 0 1 1 0 0 0 -1.414 1.414 3.862 3.862 0 0 0 2.707 1.293 3.862 3.862 0 0 0 2.707-1.291 1 1 0 0 0 0-1.416z"/><path d="m57.8 34.488a9.027 9.027 0 0 0 1.2-4.488v-17a13 13 0 0 0 -26 0v17a9.037 9.037 0 0 0 1.209 4.5 8.962 8.962 0 0 0 -2.2 1.068 8.93 8.93 0 0 0 -2.534-1.183l-2.075-.597a9.029 9.029 0 0 0 -3.091-4.041 10.049 10.049 0 0 0 3.691-7.747v-.142a3.981 3.981 0 0 0 0-7.716v-8.154a3 3 0 0 0 -3-3 3 3 0 0 0 -3-2.988h-7.686a9.324 9.324 0 0 0 -9.314 9.314 6.669 6.669 0 0 0 2.331 5.062 3.982 3.982 0 0 0 .669 7.482v.142a9.982 9.982 0 0 0 4.767 8.523 9.039 9.039 0 0 0 -1.883 2.613l-4.356 1.245a9.037 9.037 0 0 0 -6.528 8.653v15.966a5.006 5.006 0 0 0 5 5h26.959.019 27.022a5.006 5.006 0 0 0 5-5v-15.966a9.034 9.034 0 0 0 -6.2-8.546zm4.2 8.546v4.978h-4.978l-.641-3.207a2.967 2.967 0 0 0 -.782-4.334 2.967 2.967 0 0 0 .401-1.471 10.937 10.937 0 0 0 -.449-3.088l1.372.392a7.029 7.029 0 0 1 5.077 6.73zm-3 16.966a2 2 0 0 1 -4 0v-2a2 2 0 0 1 4 0zm-29-5.644v-9.136a2.951 2.951 0 0 0 .292-4.132 6.968 6.968 0 0 1 3.981-4.494 10.966 10.966 0 0 0 -.273 2.406 2.967 2.967 0 0 0 .4 1.471 2.967 2.967 0 0 0 -.781 4.335l-1.593 8a1 1 0 0 0 .981 1.2h1.349a9.059 9.059 0 0 0 -2.382 2.944 9.043 9.043 0 0 0 -1.974-2.594zm-21-11.356a1 1 0 0 1 1-1v2a1 1 0 0 1 -1-1zm3-1h3.343a4.966 4.966 0 0 0 3.535-1.464l.122-.122.122.122a4.966 4.966 0 0 0 3.535 1.464h3.343v3a7 7 0 0 1 -14 0zm17 1a1 1 0 0 1 -1 1v-2a1 1 0 0 1 1 1zm-9 11a1 1 0 0 1 -2 0zm7.941-8h.059v6.974a8.9 8.9 0 0 0 -3.4-.94 8.99 8.99 0 0 0 3.341-6.034zm7.059-24.556a3.966 3.966 0 0 0 1 .414v.142a9.924 9.924 0 0 0 3.436 7.527 11.07 11.07 0 0 0 -3.7 3.564 6.925 6.925 0 0 1 -.736-3.091zm22-3.444a2 2 0 0 1 -1 1.731v-3.462a2 2 0 0 1 1 1.731zm0 3.444v8.556a6.9 6.9 0 0 1 -1.215 3.9l-1.248-.357a11.064 11.064 0 0 0 -2.9-3.294 10.046 10.046 0 0 0 4.363-8.249v-.142a3.966 3.966 0 0 0 1-.414zm-1.22 30.556h-5.136a8.995 8.995 0 0 0 3.3-6h.056a3.049 3.049 0 0 0 .569-.057zm-10.78-10a1 1 0 0 0 .707-.293l1.293-1.293 1.293 1.293a1 1 0 0 0 .707.293h3v3a7 7 0 0 1 -14 0v-3zm9 2v-2a1 1 0 0 1 0 2zm-18 0a1 1 0 0 1 0-2zm-.566 1.943a3.009 3.009 0 0 0 .566.057h.059a8.995 8.995 0 0 0 3.3 6h-5.132zm17.566-5.943h-3.586l-1.707-1.707a1 1 0 0 0 -1.414 0l-1.707 1.707h-7.586a1 1 0 0 1 -1-1 9 9 0 0 1 18 0 1 1 0 0 1 -1 1zm1-19v1a8.026 8.026 0 0 1 -4.3 7.072 10.853 10.853 0 0 0 -8.221-.486 7.942 7.942 0 0 1 -3.479-6.586v-6h3a9.044 9.044 0 0 0 7-3.344 9.049 9.049 0 0 0 6 3.287zm-18-1.269a2 2 0 0 1 0-3.462zm10 34.269a1 1 0 0 1 -2 0zm10 0v.142c-.048.013-.095.03-.142.044-.072-.061-.139-.127-.212-.186zm-10-52a11.013 11.013 0 0 1 11 11v1.556a3.959 3.959 0 0 0 -2-.556 7.035 7.035 0 0 1 -5.6-2.8l-.6-.8a1.036 1.036 0 0 0 -1.6 0l-.6.8a7.035 7.035 0 0 1 -5.6 2.8h-4a3.959 3.959 0 0 0 -2 .556v-1.556a11.013 11.013 0 0 1 11-11zm-17.077 34.3a7 7 0 0 1 1.473.617 8.958 8.958 0 0 0 -1.882 3.131 3.005 3.005 0 0 0 -.514-.048v-3a9.252 9.252 0 0 0 -.055-.976zm-18.923-20.524a6.657 6.657 0 0 0 1.686.224 19.082 19.082 0 0 0 10.627-3.257 5.014 5.014 0 0 0 3.687 3.144s-.024 6.818-.071 7.165l-1.214-.966a5.019 5.019 0 0 0 -3.115-1.086h-7.2a5.019 5.019 0 0 0 -3.111 1.086l-1.207.96c-.05-.346-.082-7.27-.082-7.27zm19 2.224a2 2 0 0 1 -1 1.731v-3.462a2 2 0 0 1 1 1.731zm-14.686-16h7.686a1 1 0 0 1 1 1v.988a1 1 0 0 0 1 1h1a1 1 0 0 1 1 1v7.841a3.006 3.006 0 0 1 -2-2.829 1 1 0 0 0 -.6-.874 1.07 1.07 0 0 0 -1.092.149 17.065 17.065 0 0 1 -10.622 3.725 4.691 4.691 0 0 1 -4.686-4.686 7.322 7.322 0 0 1 7.314-7.314zm-7.314 16a2 2 0 0 1 1-1.731v3.462a2 2 0 0 1 -1-1.731zm3.657 7.14 1.873-1.488a3 3 0 0 1 1.87-.652h7.2a3.009 3.009 0 0 1 1.867.652l1.874 1.49a8.031 8.031 0 0 1 -2.954 3.527 8.93 8.93 0 0 0 -7.852.525 7.961 7.961 0 0 1 -3.878-4.054zm8.343 4.86a7.008 7.008 0 0 1 7 7v3h-3.343a3.02 3.02 0 0 1 -2.121-.878l-.829-.829a1 1 0 0 0 -1.414 0l-.829.829a3.02 3.02 0 0 1 -2.121.878h-3.343v-3a7.008 7.008 0 0 1 7-7zm-17 29v-15.966a7.029 7.029 0 0 1 5.077-6.734l3.07-.877a8.96 8.96 0 0 0 -.147 1.577v3a3 3 0 0 0 0 6h.059a9 9 0 0 0 3.335 6.029 8.92 8.92 0 0 0 -5.281 2.148c-.038-.011-.074-.025-.113-.035v-7.142a1 1 0 0 0 -2 0v7.142a4 4 0 0 0 -3 3.858v2a3.966 3.966 0 0 0 .283 1.453 3 3 0 0 1 -1.283-2.453zm3 1v-2a2 2 0 0 1 4 0v2a2 2 0 0 1 -4 0zm25.959 2h-20.515a3.959 3.959 0 0 0 .556-2v-2a3.972 3.972 0 0 0 -1.074-2.707 6.942 6.942 0 0 1 4.033-1.293h2.041a3 3 0 0 0 6 0h1.959a7.02 7.02 0 0 1 7 7.024zm2.041-1a7.008 7.008 0 0 1 7-7h2a3 3 0 0 0 6 0h2a6.959 6.959 0 0 1 4.062 1.308 3.974 3.974 0 0 0 -1.062 2.692v2a3.959 3.959 0 0 0 .556 2h-20.556zm29-2a3 3 0 0 1 -1.283 2.453 3.966 3.966 0 0 0 .283-1.453v-2a4 4 0 0 0 -3-3.858v-4.13h4z"/><path d="m15 45.809a1 1 0 0 0 1-1v-.809a1 1 0 0 0 -2 0v.809a1 1 0 0 0 1 1z"/><path d="m23 45.809a1 1 0 0 0 1-1v-.809a1 1 0 0 0 -2 0v.809a1 1 0 0 0 1 1z"/><path d="m16.293 49.707a3.862 3.862 0 0 0 2.707 1.293 3.862 3.862 0 0 0 2.707-1.291 1 1 0 0 0 -1.414-1.414 1.536 1.536 0 0 1 -2.586 0 1 1 0 0 0 -1.414 1.414z"/><path d="m41 45.809a1 1 0 0 0 1-1v-.809a1 1 0 0 0 -2 0v.809a1 1 0 0 0 1 1z"/><path d="m49 45.809a1 1 0 0 0 1-1v-.809a1 1 0 0 0 -2 0v.809a1 1 0 0 0 1 1z"/><path d="m42.293 49.707a3.484 3.484 0 0 0 5.414 0 1 1 0 0 0 -1.414-1.414 1.536 1.536 0 0 1 -2.586 0 1 1 0 0 0 -1.414 1.414z"/></g></svg>