<svg id="Capa_1" enable-background="new 0 0 512 512" height="512" viewBox="0 0 512 512" width="512" xmlns="http://www.w3.org/2000/svg"><g><path d="m309.221 464.081c-1.038-3.698-1.618-7.51-1.726-11.349l-2.284-80.889 4.894-93.19h-30.584l-23.19 59.135-18.787-59.135h-32.314l4.894 93.19-2.284 80.889c-.108 3.84-.688 7.651-1.726 11.349-3.26 11.616-10.872 21.529-21.252 27.679l-34.165 20.24h213.943l-34.167-20.24c-10.38-6.149-17.992-16.063-21.252-27.679z" fill="#d77f4a"/><g><path d="m330.473 491.76c-10.381-6.149-17.992-16.062-21.252-27.679-1.038-3.698-1.618-7.51-1.726-11.349l-2.284-80.889 4.894-93.19h-30.583l-5.148 13.128-4.205 80.061 2.284 80.889c.108 3.84.688 7.651 1.726 11.349 3.26 11.616 10.871 21.53 21.252 27.679l34.167 20.241h35.042z" fill="#c86d36"/></g><path d="m445.582 225.579c14.538-11.597 23.865-29.452 23.865-49.495 0-29.366-20.001-54.053-47.122-61.201.339-2.651.533-5.348.533-8.091 0-34.957-28.338-63.295-63.295-63.295-14.681 0-28.184 5.012-38.921 13.4-3.208-31.952-30.177-56.897-62.974-56.897s-59.766 24.945-62.974 56.897c-10.737-8.388-24.24-13.4-38.921-13.4-34.957 0-63.295 28.338-63.295 63.295 0 2.743.194 5.44.533 8.091-6.78 1.787-13.115 4.67-18.804 8.449-17.067 11.335-28.318 30.728-28.318 52.753 0 20.043 9.327 37.897 23.865 49.495-14.538 11.597-23.865 29.452-23.865 49.495 0 34.957 28.338 63.295 63.295 63.295 8.694 0 16.977-1.756 24.518-4.927 4.317 30.754 30.719 54.422 62.663 54.422 29.496 0 54.279-20.176 61.303-47.479 7.023 27.304 31.807 47.479 61.303 47.479 31.944 0 58.346-23.668 62.663-54.422 7.541 3.172 15.824 4.927 24.518 4.927 34.957 0 63.295-28.338 63.295-63.295 0-20.044-9.327-37.899-23.865-49.496z" fill="#0ab69f"/><g fill="#01998d"><path d="m371.11 338.368c-8.694 0-16.977-1.756-24.518-4.927-3.494 24.896-21.465 45.143-45.129 51.955 5.562 1.598 11.433 2.467 17.509 2.467 30.481 0 55.901-21.556 61.917-50.249-3.188.495-6.453.754-9.779.754z"/><path d="m445.582 225.579c14.538-11.597 23.865-29.452 23.865-49.495 0-29.366-20.001-54.053-47.122-61.201.339-2.651.533-5.348.533-8.091 0-34.957-28.338-63.295-63.295-63.295-6.082 0-11.957.872-17.522 2.476 26.43 7.601 45.774 31.943 45.774 60.819 0 2.743-.194 5.44-.533 8.091 27.121 7.148 47.122 31.836 47.122 61.201 0 20.043-9.326 37.897-23.865 49.495 14.538 11.597 23.865 29.452 23.865 49.495 0 28.874-19.342 53.215-45.77 60.818 5.565 1.601 11.437 2.477 17.518 2.477 34.957 0 63.295-28.338 63.295-63.295 0-20.043-9.327-37.898-23.865-49.495z"/></g><path d="m446.785 292.562h-118.338v-32.475c0-4.267-3.459-7.726-7.726-7.726h-55.326v-20.338h56.994c4.268 0 7.726-3.459 7.726-7.726v-59.083c0-4.267-3.459-7.726-7.726-7.726s-7.726 3.459-7.726 7.726v51.356h-110.652v-51.356c0-4.267-3.459-7.726-7.726-7.726s-7.726 3.459-7.726 7.726v59.083c0 4.267 3.459 7.726 7.726 7.726h53.657v20.338h-55.326c-4.268 0-7.726 3.459-7.726 7.726v32.475h-118.338c-4.268 0-7.726 3.459-7.726 7.726v52.985c0 4.267 3.459 7.726 7.726 7.726 4.268 0 7.726-3.459 7.726-7.726v-45.259h110.651v45.259c0 4.267 3.459 7.726 7.726 7.726s7.726-3.459 7.726-7.726v-52.985c0-.263-.014-.522-.039-.778v-31.698h110.652v31.698c-.026.256-.039.515-.039.778v52.985c0 4.267 3.459 7.726 7.726 7.726s7.726-3.459 7.726-7.726v-45.259h110.651v45.259c0 4.267 3.459 7.726 7.726 7.726s7.726-3.459 7.726-7.726v-52.985c.001-4.267-3.457-7.726-7.725-7.726z" fill="#e2e2e2"/><g fill="#ffcebf"><circle cx="68.551" cy="353.274" r="30.029"/><circle cx="194.655" cy="353.274" r="30.029"/><circle cx="320.681" cy="353.274" r="30.029"/><circle cx="446.785" cy="353.274" r="30.029"/></g><path d="m227.279 430.384h-65.247v-23.953c0-12.773 10.355-23.128 23.128-23.128h18.99c12.773 0 23.128 10.355 23.128 23.128v23.953z" fill="#0473ce"/><path d="m479.409 430.384h-65.247v-23.953c0-12.773 10.355-23.128 23.128-23.128h18.99c12.773 0 23.128 10.355 23.128 23.128v23.953z" fill="#0473ce"/><circle cx="196.284" cy="111.645" fill="#ffcebf" r="30.029"/><circle cx="322.389" cy="111.645" fill="#ffcebf" r="30.029"/><path d="m232.245 188.755h-71.92v-22.799c0-13.411 10.872-24.282 24.282-24.282h23.356c13.411 0 24.282 10.872 24.282 24.282z" fill="#0473ce"/><path d="m355.012 188.755h-65.247v-23.953c0-12.773 10.355-23.128 23.128-23.128h18.99c12.773 0 23.128 10.355 23.128 23.128v23.953z" fill="#eb5569"/><path d="m104.512 430.384h-71.92v-22.799c0-13.411 10.872-24.282 24.282-24.282h23.356c13.411 0 24.282 10.872 24.282 24.282z" fill="#eb5569"/><path d="m356.641 430.384h-71.92v-22.799c0-13.411 10.872-24.282 24.282-24.282h23.356c13.411 0 24.282 10.872 24.282 24.282z" fill="#eb5569"/><g fill="#ffb09e"><path d="m68.551 323.245c-4.143 0-8.09.839-11.681 2.357 10.782 4.557 18.348 15.231 18.348 27.672s-7.566 23.115-18.348 27.672c3.591 1.517 7.537 2.357 11.681 2.357 16.584 0 30.029-13.444 30.029-30.029s-13.444-30.029-30.029-30.029z"/><path d="m194.655 323.245c-4.143 0-8.09.839-11.681 2.357 10.782 4.557 18.348 15.231 18.348 27.672s-7.566 23.115-18.348 27.672c3.591 1.517 7.538 2.357 11.681 2.357 16.584 0 30.029-13.444 30.029-30.029s-13.444-30.029-30.029-30.029z"/><path d="m320.681 323.245c-4.143 0-8.09.839-11.681 2.357 10.782 4.557 18.348 15.231 18.348 27.672s-7.566 23.115-18.348 27.672c3.591 1.518 7.538 2.357 11.681 2.357 16.584 0 30.028-13.444 30.028-30.029s-13.444-30.029-30.028-30.029z"/><path d="m446.785 323.245c-4.143 0-8.09.839-11.681 2.357 10.782 4.557 18.348 15.231 18.348 27.672s-7.566 23.115-18.348 27.672c3.591 1.518 7.537 2.357 11.681 2.357 16.585 0 30.029-13.444 30.029-30.029s-13.445-30.029-30.029-30.029z"/></g><path d="m204.151 383.302h-18.99c-.737 0-1.466.038-2.186.106 11.748 1.102 20.943 10.987 20.943 23.023v23.953h23.362v-23.953c-.001-12.774-10.356-23.129-23.129-23.129z" fill="#0067c5"/><path d="m456.28 383.302h-18.99c-.738 0-1.466.038-2.186.106 11.748 1.102 20.943 10.987 20.943 23.023v23.953h23.362v-23.953c0-12.774-10.355-23.129-23.129-23.129z" fill="#0067c5"/><path d="m196.284 81.616c-4.143 0-8.09.839-11.681 2.357 10.782 4.557 18.348 15.231 18.348 27.672s-7.566 23.115-18.348 27.672c3.591 1.517 7.538 2.357 11.681 2.357 16.584 0 30.029-13.444 30.029-30.028s-13.444-30.03-30.029-30.03z" fill="#ffb09e"/><path d="m322.389 81.616c-4.143 0-8.09.839-11.681 2.357 10.782 4.557 18.348 15.231 18.348 27.672s-7.566 23.115-18.348 27.672c3.591 1.517 7.537 2.357 11.681 2.357 16.584 0 30.028-13.444 30.028-30.028s-13.444-30.03-30.028-30.03z" fill="#ffb09e"/><path d="m207.962 141.673h-23.356c-.001 0-.002 0-.003 0 13.409.002 24.279 10.872 24.279 24.282v22.799h23.362v-22.799c.001-13.41-10.871-24.282-24.282-24.282z" fill="#0067c5"/><path d="m331.884 141.673h-18.99c-.737 0-1.466.038-2.186.106 11.748 1.102 20.943 10.987 20.943 23.023v23.953h23.361v-23.953c0-12.774-10.355-23.129-23.128-23.129z" fill="#e53950"/><path d="m80.229 383.302h-23.355c-.001 0-.002 0-.003 0 13.409.002 24.279 10.872 24.279 24.282v22.8h23.362v-22.8c0-13.41-10.872-24.282-24.283-24.282z" fill="#e53950"/><path d="m332.359 383.302h-23.356c-.001 0-.002 0-.003 0 13.409.002 24.279 10.872 24.279 24.282v22.8h23.362v-22.8c0-13.41-10.871-24.282-24.282-24.282z" fill="#e53950"/></g></svg>