<svg id="Capa_1" enable-background="new 0 0 512 512" height="512" viewBox="0 0 512 512" width="512" xmlns="http://www.w3.org/2000/svg"><path d="m19.96 435.375s-8.457 61.628 41.293 76.336h144.377c49.75-14.708 41.293-76.336 41.293-76.336l-111.353-37.476z" fill="#ffb983"/><path d="m151.075 397.903h-35.266c-15.795 0-28.599-12.804-28.599-28.599v-42.82h92.465v42.82c0 15.795-12.805 28.599-28.6 28.599z" fill="#fcd0a3"/><path d="m242.515 272.409h.153c13.116 0 23.744-10.637 23.744-23.744 0-13.116-10.628-23.753-23.744-23.753-.171 0-.341 0-.512.009h-217.428c-.171-.009-.341-.009-.512-.009-13.116 0-23.744 10.637-23.744 23.753 0 13.107 10.628 23.744 23.744 23.744h.153" fill="#ffb983"/><path d="m179.675 349.561s67.249 8.455 67.249 40.684 0 45.13 0 45.13h-41.294v76.336h-144.377v-76.336h-41.293s0-12.902 0-45.13 67.249-40.684 67.249-40.684" fill="#ec6161"/><path d="m93.185 511.714h-31.925v-76.336h-41.3s0-12.898 0-45.132c0-32.224 67.25-40.682 67.25-40.682h15.484l.742.577c-16.226-.001-38.436 52.888-10.251 161.573z" fill="#d63030"/><path d="m179.671 365.762v3.545c0 15.797-12.798 28.596-28.596 28.596h-15.498c-15.787 0-28.596-12.798-28.596-28.596v-2.875c24.227.608 48.464.382 72.69-.67z" fill="#fcd0a3"/><path d="m179.674 326.488v39.281l-.01-.01c-24.226 1.051-48.463 1.278-72.689.67v2.875c0 15.797 12.809 28.596 28.596 28.596h-19.764c-15.787 0-28.596-12.798-28.596-28.596v-42.816z" fill="#ffb983"/><path d="m237.053 162.906c-69.074-6.697-138.148-6.697-207.222 0-5.36 42.948-6.939 85.895-4.736 128.843 1.603 31.264 26.621 56.148 57.89 57.625 33.638 1.588 67.276 1.588 100.914 0 31.27-1.476 56.287-26.361 57.89-57.625 2.203-42.947.625-85.895-4.736-128.843z" fill="#fcd0a3"/><path d="m29.835 162.899c34.531-3.349 69.072-5.018 103.614-5.018-17.487 0-34.974 1.69-52.461 5.07-2.72 43.362-3.514 86.724-2.401 130.076.732 28.534 11.16 51.802 24.845 57.109-6.811-.185-13.633-.443-20.445-.763-31.264-1.474-56.284-26.359-57.892-57.624-2.195-42.95-.618-85.9 4.74-128.85z" fill="#ffb983"/><path d="m133.442 302.07c-12.413 0-23.874-7.247-29.197-18.464-1.83-3.855-.188-8.463 3.667-10.293 3.858-1.83 8.464-.188 10.293 3.667 2.779 5.855 8.76 9.637 15.237 9.637 6.478 0 12.458-3.783 15.236-9.637 1.83-3.855 6.437-5.497 10.293-3.668 3.855 1.829 5.497 6.438 3.668 10.293-5.323 11.217-16.783 18.465-29.197 18.465z" fill="#e7ab8a"/><path d="m241.573 205.676c-22.052 22.062-65.723-22.052-65.723-22.052 1.237 7.986-1.01 15.766-9.666 21.949-6.131 4.379-13.066 6.306-20.249 6.595-28.781 1.154-61.406-24.154-61.406-24.154-5.812 15.983-22.959 15.663-37.169 12.16-13.077-3.225-24.123-11.881-30.43-23.783-10.84-20.456-25.534-55.059-10.551-70.042 21.949-21.949 49.174 0 49.174 0s26.442-9.923 60.19-16.951c.01 0 .031-.01.041-.01 40.384-8.409 91.217-12.695 119.771 9.068 29.471 22.464 28.08 85.168 6.018 107.22z" fill="#3c5959"/><path d="m145.935 212.168c-28.781 1.154-61.406-24.154-61.406-24.154-5.812 15.983-22.959 15.663-37.169 12.16-13.077-3.225-24.123-11.881-30.43-23.783-10.84-20.456-25.534-55.059-10.551-70.042 21.949-21.949 49.174 0 49.174 0s26.442-9.923 60.19-16.951c-43.631 11.459-7.863 109.106 30.192 122.77z" fill="#394949"/><path d="m456.653 291.752c47.29 0 48.633 59.287 55.347 78.087 0 0-50.834-8.822-66.71-45.704" fill="#fcb143"/><path d="m234.822 435.378s-8.457 61.628 41.293 76.336h144.376c49.75-14.708 41.293-76.336 41.293-76.336l-111.353-37.476z" fill="#ffb983"/><path d="m365.937 397.905h-35.266c-15.795 0-28.599-12.804-28.599-28.599v-42.82h92.465v42.82c-.001 15.795-12.805 28.599-28.6 28.599z" fill="#fcd0a3"/><path d="m457.377 272.412h.153c13.116 0 23.744-10.637 23.744-23.744 0-13.116-10.628-23.753-23.744-23.753-.171 0-.341 0-.512.009h-217.428c-.171-.009-.341-.009-.512-.009-13.116 0-23.744 10.637-23.744 23.753 0 13.107 10.628 23.744 23.744 23.744h.153" fill="#ffb983"/><path d="m461.789 390.244v45.132h-41.3v76.336h-144.37v-76.336h-41.3s0-12.898 0-45.132c0-32.224 67.25-40.682 67.25-40.682h92.469c.001 0 67.251 8.458 67.251 40.682z" fill="#0a93a3"/><path d="m308.045 511.713h-31.925v-76.336h-41.3s0-12.898 0-45.132c0-32.224 67.25-40.682 67.25-40.682h15.484l.742.577c-16.226-.001-38.437 52.889-10.251 161.573z" fill="#046b74"/><path d="m394.533 365.765v3.545c0 15.797-12.798 28.596-28.596 28.596h-15.498c-15.787 0-28.596-12.798-28.596-28.596v-2.875c24.227.608 48.463.381 72.69-.67z" fill="#fcd0a3"/><path d="m394.536 326.49v39.281l-.01-.01c-24.226 1.051-48.463 1.278-72.689.67v2.875c0 15.797 12.809 28.596 28.596 28.596h-19.764c-15.787 0-28.596-12.798-28.596-28.596v-42.816z" fill="#ffb983"/><path d="m451.915 162.909c-69.074-6.697-138.148-6.697-207.222 0-5.36 42.948-6.939 85.895-4.736 128.843 1.603 31.264 26.621 56.148 57.89 57.625 33.638 1.588 67.276 1.588 100.914 0 31.27-1.476 56.287-26.361 57.891-57.625 2.202-42.948.623-85.896-4.737-128.843z" fill="#fcd0a3"/><path d="m244.697 162.902c34.531-3.349 69.072-5.018 103.614-5.018-17.487 0-34.974 1.69-52.461 5.07-2.72 43.362-3.514 86.724-2.401 130.076.732 28.534 11.16 51.802 24.845 57.109-6.811-.185-13.633-.443-20.445-.763-31.264-1.474-56.284-26.359-57.892-57.624-2.195-42.95-.619-85.9 4.74-128.85z" fill="#ffb983"/><path d="m348.304 302.072c-12.413 0-23.874-7.247-29.197-18.464-1.83-3.855-.188-8.463 3.667-10.293 3.855-1.831 8.463-.187 10.293 3.667 2.779 5.855 8.76 9.637 15.237 9.637s12.458-3.783 15.236-9.637c1.829-3.855 6.437-5.496 10.293-3.668 3.855 1.829 5.497 6.438 3.668 10.293-5.323 11.217-16.784 18.465-29.197 18.465z" fill="#e7ab8a"/><path d="m456.292 210.108s-78.687-3.658-107.983-52.224c-12.438 20.64-33.799 33.16-54.254 40.734-27.699 10.284-53.729 11.49-53.729 11.49s-37.189-120.926 107.984-120.926 107.982 120.926 107.982 120.926z" fill="#fcb143"/><path d="m348.31 89.182c-38.117 16.797-52.461 73.761-54.254 109.436-27.699 10.284-53.729 11.49-53.729 11.49s-37.19-120.926 107.983-120.926z" fill="#fa9801"/><ellipse cx="278.559" cy="274.495" fill="#ec6161" rx="19.639" ry="9.064"/><ellipse cx="418.049" cy="274.495" fill="#ec6161" rx="19.639" ry="9.064"/><path d="m247.038 139.387c-84.561-43.805-95.891-117.755-57.209-135.495 38.259-17.543 57.209 34.637 57.209 34.637s18.945-52.18 57.204-34.637c2.064.943 3.982 2.053 5.754 3.304.005.005.016.01.026.016.261.182.511.37.761.552 30.483 22.817 15.63 90.502-63.745 131.623z" fill="#ec6161"/><path d="m330.47 450.368h.12c10.295 0 18.637-8.349 18.637-18.637 0-10.295-8.342-18.644-18.637-18.644-.134 0-.268 0-.402.007h-191.265c-.134-.007-.268-.007-.402-.007-10.295 0-18.637 8.349-18.637 18.644 0 10.288 8.342 18.637 18.637 18.637h.12" fill="#ffb983"/><path d="m315.881 364.418c-54.217-5.256-108.434-5.256-162.651 0-4.207 33.71-5.446 67.42-3.718 101.13 1.259 24.539 20.895 44.072 45.439 45.23 26.403 1.247 52.806 1.247 79.208 0 24.544-1.159 44.18-20.691 45.439-45.23 1.73-33.71.49-67.42-3.717-101.13z" fill="#fcd0a3"/><path d="m153.233 364.413c27.104-2.629 54.216-3.939 81.328-3.939-13.726 0-27.452 1.326-41.177 3.979-2.135 34.035-2.758 68.071-1.885 102.098.574 22.396 8.76 40.66 19.501 44.825-5.346-.146-10.701-.348-16.047-.599-24.54-1.157-44.178-20.69-45.44-45.23-1.723-33.711-.486-67.422 3.72-101.134z" fill="#ffb983"/><path d="m234.555 473.765c-9.788 0-18.825-5.715-23.023-14.559-1.464-3.084-.15-6.771 2.934-8.234s6.771-.15 8.234 2.934c2.162 4.555 6.815 7.498 11.855 7.498s9.693-2.943 11.855-7.498c1.464-3.084 5.149-4.398 8.234-2.934 3.084 1.463 4.397 5.15 2.934 8.234-4.198 8.845-13.234 14.559-23.023 14.559z" fill="#e7ab8a"/><g fill="#394949"><ellipse cx="82.883" cy="240.324" rx="9.916" ry="14.745"/><path d="m193.918 240.324c0-8.131-4.448-14.745-9.916-14.745s-9.917 6.615-9.917 14.745 4.449 14.745 9.917 14.745 9.916-6.614 9.916-14.745z"/><ellipse cx="297.745" cy="240.327" rx="9.916" ry="14.745"/><path d="m398.863 225.581c-5.468 0-9.917 6.615-9.917 14.745s4.449 14.745 9.917 14.745 9.916-6.615 9.916-14.745-4.448-14.745-9.916-14.745z"/><ellipse cx="194.871" cy="425.184" rx="7.839" ry="11.629"/><path d="m274.24 413.555c-4.322 0-7.839 5.217-7.839 11.629s3.517 11.629 7.839 11.629 7.839-5.217 7.839-11.629-3.517-11.629-7.839-11.629z"/></g><path d="m319.317 401.465s-61.762-2.871-84.757-40.991c-9.763 16.201-26.529 26.028-42.585 31.973-21.741 8.072-42.172 9.018-42.172 9.018s-29.191-94.916 84.757-94.916 84.757 94.916 84.757 94.916z" fill="#d5694c"/><path d="m234.56 306.549c-29.918 13.184-41.177 57.896-42.585 85.897-21.741 8.072-42.172 9.018-42.172 9.018s-29.191-94.915 84.757-94.915z" fill="#a64c31"/></svg>