<svg width="400" height="400" viewBox="0 0 400 400" fill="none" xmlns="http://www.w3.org/2000/svg">
<path d="M80.0498 226.92C74.3798 213.77 74.5698 198.76 80.5798 185.72" stroke="#1E1E1E" stroke-width="6" stroke-miterlimit="10" stroke-linecap="round" stroke-linejoin="round"/>
<path d="M93.0593 221.3C88.9593 211.79 89.1493 200.96 93.4493 191.66" stroke="#1E1E1E" stroke-width="6" stroke-miterlimit="10" stroke-linecap="round" stroke-linejoin="round"/>
<path d="M319.33 226.92C325 213.77 324.81 198.76 318.8 185.72" stroke="#1E1E1E" stroke-width="6" stroke-miterlimit="10" stroke-linecap="round" stroke-linejoin="round"/>
<path d="M306.32 221.3C310.42 211.79 310.23 200.96 305.93 191.66" stroke="#1E1E1E" stroke-width="6" stroke-miterlimit="10" stroke-linecap="round" stroke-linejoin="round"/>
<path d="M241.35 176.65C233.52 183.56 209.62 183.43 207.95 185.26C206.05 187.35 203.35 188.85 200.32 189.12C196.85 189.43 194.18 187.56 191.7 185.46C188.69 182.91 179.72 185.86 170.31 177.24L165.13 164.68C170.87 166.27 188.16 177.34 192.2 171.95C194.15 169.35 197.36 168.15 200.83 168.46C203.86 168.73 205.74 170.64 208 172.34C210.67 174.34 224.01 170.69 230.15 161.53L241.35 176.65Z" fill="#009EE5"/>
<path d="M285.2 225.91C289.39 221.61 291.96 215.73 291.96 209.26C291.96 199.6 286.23 191.28 277.98 187.52L277.93 187.51C278.12 186.25 278.22 184.97 278.22 183.66C278.22 174.56 273.58 166.58 266.43 162.04C266.43 162.04 265.65 136.84 254.99 133.37C244.63 129.99 246.8 157.09 242.83 162.16C235.01 167.41 229.69 177.77 230.89 192.26L230.01 192.6C220.01 195.71 210.5 204.11 210.11 215.05H210.07C210.07 215.05 203.37 214.43 201.06 214.41C196.8 214.37 188.37 215.41 188.37 215.41H188.33C187.94 204.48 180.6 195.31 170.59 192.2L170.79 191.01C172 176.53 167.67 167.55 159.84 162.3C155.87 157.23 155.98 129.59 145.63 132.97C134.97 136.45 135.62 162.05 135.62 162.05C128.47 166.59 123.83 174.57 123.83 183.67C123.83 184.98 123.93 186.26 124.12 187.52L124.08 187.53C115.83 191.29 110.1 199.61 110.1 209.27C110.1 215.75 112.68 221.62 116.87 225.92L116.89 225.95C113.86 229.95 112.06 234.94 112.06 240.34C112.06 253.53 122.75 264.22 135.94 264.22C136.67 264.22 137.39 264.19 138.1 264.13H138.12C140.07 274.79 149.41 282.87 160.64 282.87C169.13 282.87 176.21 278.2 180.92 271.83C184.19 267.4 190.58 261.83 200.77 261.4L201.26 261.38C211.45 261.81 217.89 267.4 221.16 271.83C225.87 278.21 232.95 282.87 241.44 282.87C252.67 282.87 262.01 274.79 263.96 264.13H263.98C264.69 264.19 265.41 264.22 266.14 264.22C279.33 264.22 290.02 253.53 290.02 240.34C290.02 234.93 288.22 229.95 285.2 225.95V225.91Z" fill="#85DE76"/>
<path d="M114.81 226.35C110.62 222.05 108.05 216.17 108.05 209.7C108.05 200.04 113.78 191.72 122.03 187.96" stroke="#232323" stroke-width="6" stroke-miterlimit="10" stroke-linecap="round" stroke-linejoin="round"/>
<path d="M122.02 187.96C125.03 186.59 128.39 185.82 131.92 185.82C132.58 185.82 133.24 185.85 133.89 185.9" stroke="#232323" stroke-width="6" stroke-miterlimit="10" stroke-linecap="round" stroke-linejoin="round"/>
<path d="M122.07 187.95C121.88 186.69 121.78 185.41 121.78 184.1C121.78 175 126.42 167.02 133.57 162.48C133.57 162.48 132.92 136.88 143.58 133.4C153.94 130.02 153.83 157.67 157.79 162.73C165.61 167.98 169.95 176.96 168.74 191.44" stroke="#232323" stroke-width="6" stroke-miterlimit="10" stroke-linecap="round" stroke-linejoin="round"/>
<path d="M136.04 264.55C135.33 264.62 134.61 264.65 133.88 264.65C120.69 264.65 110 253.96 110 240.77C110 235.36 111.8 230.38 114.83 226.38" stroke="#232323" stroke-width="6" stroke-miterlimit="10" stroke-linecap="round" stroke-linejoin="round"/>
<path d="M150.11 220.42C149.14 211.88 139.68 209.44 133.49 210.29" stroke="#232323" stroke-width="6" stroke-miterlimit="10" stroke-linecap="round" stroke-linejoin="round"/>
<path d="M145.58 210.97C147.04 208.51 147.97 207.13 150.72 207.12C152.55 207.11 154.07 207.92 155.59 207.06" stroke="#232323" stroke-width="6" stroke-miterlimit="10" stroke-linecap="round" stroke-linejoin="round"/>
<path d="M159.43 262.87C167.93 261.59 170.03 252.04 168.94 245.89" stroke="#232323" stroke-width="6" stroke-miterlimit="10" stroke-linecap="round" stroke-linejoin="round"/>
<path d="M283.15 226.35C287.34 222.05 289.91 216.17 289.91 209.7C289.91 200.04 284.18 191.72 275.93 187.96" stroke="#232323" stroke-width="6" stroke-miterlimit="10" stroke-linecap="round" stroke-linejoin="round"/>
<path d="M275.93 187.96C272.91 186.59 269.56 185.82 266.03 185.82C265.37 185.82 264.71 185.85 264.06 185.9" stroke="#232323" stroke-width="6" stroke-miterlimit="10" stroke-linecap="round" stroke-linejoin="round"/>
<path d="M275.89 187.95C276.08 186.69 276.18 185.41 276.18 184.1C276.18 175 271.54 167.02 264.39 162.48C264.39 162.48 263.61 137.28 252.95 133.8C242.59 130.42 244.76 157.52 240.79 162.59C232.97 167.84 227.65 178.2 228.85 192.69" stroke="#232323" stroke-width="6" stroke-miterlimit="10" stroke-linecap="round" stroke-linejoin="round"/>
<path d="M261.91 264.55C262.62 264.62 263.34 264.65 264.07 264.65C277.26 264.65 287.95 253.96 287.95 240.77C287.95 235.36 286.15 230.38 283.13 226.38" stroke="#232323" stroke-width="6" stroke-miterlimit="10" stroke-linecap="round" stroke-linejoin="round"/>
<path d="M260.74 252.14C261.73 254.7 262.27 257.48 262.27 260.4C262.27 273.04 252.02 283.3 239.37 283.3C230.87 283.3 223.8 278.63 219.09 272.26C215.82 267.83 209.39 262.24 199.2 261.81L198.71 261.83C188.52 262.26 182.13 267.83 178.86 272.26C174.15 278.64 167.07 283.3 158.58 283.3C145.93 283.3 135.68 273.05 135.68 260.4C135.68 257.49 136.22 254.7 137.21 252.14" stroke="#232323" stroke-width="6" stroke-miterlimit="10" stroke-linecap="round" stroke-linejoin="round"/>
<path d="M227.97 193.03C217.97 196.14 208.46 204.54 208.07 215.48H208.03C208.03 215.48 201.33 214.86 199.01 214.84C194.75 214.8 186.32 215.84 186.32 215.84H186.28C185.89 204.91 178.55 195.74 168.54 192.63" stroke="#232323" stroke-width="6" stroke-miterlimit="10" stroke-linecap="round" stroke-linejoin="round"/>
<path d="M247.84 220.42C248.81 211.88 258.27 209.44 264.46 210.29" stroke="#232323" stroke-width="6" stroke-miterlimit="10" stroke-linecap="round" stroke-linejoin="round"/>
<path d="M252.38 210.97C250.92 208.51 249.99 207.13 247.24 207.12C245.41 207.11 243.89 207.92 242.37 207.06" stroke="#232323" stroke-width="6" stroke-miterlimit="10" stroke-linecap="round" stroke-linejoin="round"/>
<path d="M238.519 262.87C230.019 261.59 227.919 252.04 228.999 245.89" stroke="#232323" stroke-width="6" stroke-miterlimit="10" stroke-linecap="round" stroke-linejoin="round"/>
<path d="M227.379 279.8H172.399" stroke="#232323" stroke-width="6" stroke-miterlimit="10" stroke-linecap="round" stroke-linejoin="round"/>
<path d="M164.96 284.26V298.67C164.96 298.67 180.99 302.33 200.29 302.33C220.73 302.33 238.56 298.67 238.56 298.67L238.12 285.15" stroke="#232323" stroke-width="6" stroke-miterlimit="10" stroke-linecap="round" stroke-linejoin="round"/>
<path d="M164.67 167.18C164.67 167.18 197.07 150.82 235.5 164.68" stroke="#232323" stroke-width="6" stroke-miterlimit="10" stroke-linecap="round" stroke-linejoin="round"/>
<path d="M226.16 164.97C220.02 174.13 209.98 176.16 207.31 174.16C205.05 172.47 203.17 170.55 200.14 170.28C196.67 169.97 193.46 171.17 191.51 173.77C187.47 179.16 177.15 173.02 173.68 166.78" stroke="#232323" stroke-width="6" stroke-miterlimit="10" stroke-linecap="round" stroke-linejoin="round"/>
<path d="M228.76 179.16C220.92 186.07 208.93 185.25 207.27 187.08C205.37 189.17 202.67 190.67 199.64 190.94C196.17 191.25 193.5 189.38 191.02 187.28C188.01 184.73 179.04 187.68 169.63 179.06" stroke="#232323" stroke-width="6" stroke-miterlimit="10" stroke-linecap="round" stroke-linejoin="round"/>
<path d="M252.58 133.15C252.58 133.15 249.63 118.4 245.11 108.97C241.79 102.03 235.02 93.69 232.76 99.01C230.5 104.32 242.25 119.37 237.97 125.08C233.59 130.93 230.38 119.9 222.53 119.07C216.29 118.41 215.09 123.99 210.97 133.15C207.77 140.27 204.65 140.32 201.03 140.6H201C197.42 140.54 194.25 140.27 191.06 133.15C186.94 123.98 185.75 118.4 179.5 119.07C171.65 119.91 169.44 132.91 165.05 127.06C160.77 121.35 171.52 104.32 169.26 99.01C167 93.7 160.23 102.03 156.91 108.97C152.39 118.4 149.47 134.21 149.47 134.21" stroke="#232323" stroke-width="6" stroke-miterlimit="10" stroke-linecap="round" stroke-linejoin="round"/>
</svg>
