<?xml version="1.0" encoding="iso-8859-1"?>
<!-- Generator: Adobe Illustrator 19.0.0, SVG Export Plug-In . SVG Version: 6.00 Build 0)  -->
<svg version="1.1" id="Capa_1" xmlns="http://www.w3.org/2000/svg" xmlns:xlink="http://www.w3.org/1999/xlink" x="0px" y="0px"
	 viewBox="0 0 512 512" style="enable-background:new 0 0 512 512;" xml:space="preserve">
<path style="fill:#EDF2FA;" d="M475,398V50c0-22.091-17.909-40-40-40H77c-22.091,0-40,17.909-40,40v412c0,22.091,17.909,40,40,40
	h294L475,398z"/>
<path style="fill:#FF5D5D;" d="M371,502v-71.5c0-17.949,14.551-32.5,32.5-32.5H475L371,502z"/>
<path style="fill:#FFB954;" d="M113.159,339.178l230.339-230.339c11.785-11.785,30.892-11.785,42.677,0l36.987,36.986
	c11.785,11.785,11.785,30.892,0,42.677l-230.34,230.339L113.159,339.178z"/>
<path style="fill:#FE8F8D;" d="M383.323,228.34l39.838-39.838c11.785-11.785,11.785-30.892,0-42.677l-36.987-36.987
	c-11.785-11.785-30.892-11.785-42.677,0l-39.838,39.838L383.323,228.34z"/>
<polygon style="fill:#D8D8E4;" points="84,448 113.159,339.178 192.822,418.841 "/>
<polygon style="fill:#5A54E0;" points="96.737,400.464 84,448 131.536,435.263 "/>
<path d="M37,214c2.63,0,5.21-1.07,7.069-2.931C45.93,209.21,47,206.63,47,204s-1.07-5.21-2.931-7.07C42.21,195.069,39.63,194,37,194
	s-5.21,1.069-7.07,2.93S27,201.37,27,204s1.069,5.21,2.93,7.069C31.79,212.93,34.37,214,37,214z"/>
<path d="M485,50c0-27.57-22.43-50-50-50H77C49.43,0,27,22.43,27,50v100c0,5.522,4.478,10,10,10s10-4.478,10-10V50
	c0-16.542,13.458-30,30-30h358c16.542,0,30,13.458,30,30v338h-61.5c-23.435,0-42.5,19.065-42.5,42.5V492H77
	c-16.542,0-30-13.458-30-30V249c0-5.522-4.478-10-10-10s-10,4.478-10,10v213c0,27.57,22.43,50,50,50h294l0,0
	c2.602,0,5.159-1.016,7.071-2.929l104-104c1.911-1.912,2.903-4.468,2.905-7.068c0.008-0.001,0.016-0.002,0.024-0.003V50z
	 M381,477.857V430.5c0-12.406,10.094-22.5,22.5-22.5h47.357L381,477.857z"/>
<path d="M195.491,428.472c1.647-0.455,3.193-1.351,4.402-2.56l230.339-230.339c7.589-7.589,11.768-17.678,11.768-28.409
	c0-10.732-4.179-20.821-11.768-28.41l-36.986-36.986C385.657,94.179,375.568,90,364.836,90c-10.731,0-20.82,4.179-28.409,11.768
	L106.088,332.106c-1.226,1.226-2.142,2.808-2.588,4.483L74.341,445.412c-0.925,3.45,0.062,7.133,2.588,9.659
	C78.829,456.97,81.382,458,84,458l0,0h215c5.522,0,10-4.478,10-10s-4.478-10-10-10H159.956l35.454-9.5
	c0.08-0.029,0.161-0.053,0.243-0.072C195.599,428.443,195.545,428.457,195.491,428.472
	C195.885,428.364,195.463,428.48,195.491,428.472z M127.302,339.178l175.117-175.117l65.521,65.52L192.822,404.698L127.302,339.178z
	 M98.143,433.857l3.706-13.83l10.124,10.124L98.143,433.857z M350.569,115.91c7.866-7.866,20.666-7.868,28.534,0l36.986,36.986
	c7.867,7.867,7.867,20.667,0,28.534l-34.007,34.007l-65.521-65.52L350.569,115.91z M134.281,424.174l-26.455-26.454l10.51-39.224
	l55.168,55.168L134.281,424.174z"/>
<path d="M321.192,236.029c-3.906-3.904-10.236-3.904-14.143,0l-67.856,67.856c-3.905,3.905-3.905,10.237,0,14.143
	c1.953,1.952,4.512,2.929,7.071,2.929s5.118-0.977,7.071-2.929l67.856-67.856C325.098,246.267,325.098,239.935,321.192,236.029z"/>
<path d="M208.362,334.717l-0.12,0.12c-3.905,3.905-3.905,10.237,0,14.143c1.953,1.952,4.512,2.929,7.071,2.929
	s5.118-0.977,7.071-2.929l0.12-0.12c3.905-3.905,3.905-10.237,0-14.143C218.599,330.813,212.269,330.813,208.362,334.717z"/>
<g>
</g>
<g>
</g>
<g>
</g>
<g>
</g>
<g>
</g>
<g>
</g>
<g>
</g>
<g>
</g>
<g>
</g>
<g>
</g>
<g>
</g>
<g>
</g>
<g>
</g>
<g>
</g>
<g>
</g>
</svg>
