<svg id="icons" height="512" viewBox="0 0 60 60" width="512" xmlns="http://www.w3.org/2000/svg"><path d="m59 9v47a3 3 0 0 1 -3 3h-52a3 3 0 0 1 -3-3v-47l1-1h56z" fill="#e4f1ff"/><path d="m59 4v5h-58v-5a3 3 0 0 1 3-3h52a3 3 0 0 1 3 3z" fill="#6e7689"/><path d="m18.05 44.9 2.83-8.5a3.5 3.5 0 0 1 .3-.65l7.07 7.07a3.5 3.5 0 0 1 -.65.3l-8.5 2.83z" fill="#a97866"/><path d="m48.4 22.78-2.15 2.15-7.18-7.18 2.15-2.15a2.016 2.016 0 0 1 2.87 0l4.31 4.31a2.016 2.016 0 0 1 0 2.87z" fill="#cd596b"/><path d="m46.25 24.93-17.45 17.46a2.9 2.9 0 0 1 -.55.43l-7.07-7.07a2.9 2.9 0 0 1 .43-.55l17.46-17.45z" fill="#e3cb5b"/><path d="m23.99 44.32-4.89 1.63a.82.82 0 0 1 -1.05-1.05l1.63-4.89z" fill="#6e7689"/><g fill="#373737"><path d="m56 0h-52a4 4 0 0 0 -4 4v9a1 1 0 0 0 2 0v-3h56v46a2 2 0 0 1 -2 2h-52a2 2 0 0 1 -2-2v-38a1 1 0 0 0 -2 0v38a4 4 0 0 0 4 4h52a4 4 0 0 0 4-4v-52a4 4 0 0 0 -4-4zm2 8h-56v-4a2 2 0 0 1 2-2h52a2 2 0 0 1 2 2z"/><path d="m6 4h-1a1 1 0 0 0 0 2h1a1 1 0 0 0 0-2z"/><path d="m11 4h-1a1 1 0 0 0 0 2h1a1 1 0 0 0 0-2z"/><path d="m16 4h-1a1 1 0 0 0 0 2h1a1 1 0 0 0 0-2z"/><path d="m55 4h-6a1 1 0 0 0 0 2h6a1 1 0 0 0 0-2z"/><path d="m19.932 36.082-2.832 8.494a1.825 1.825 0 0 0 .436 1.888 1.873 1.873 0 0 0 1.883.437l8.5-2.833a4.2 4.2 0 0 0 1.589-.971l19.592-19.607a3.079 3.079 0 0 0 0-4.29l-4.3-4.3a3.093 3.093 0 0 0 -4.292 0l-19.62 19.61a4.172 4.172 0 0 0 -.956 1.572zm-.832 8.818 1.013-3.041 2.028 2.028zm9.208-3.433-2.18-2.18 16.529-16.53 2.177 2.176zm13.623-25.162a1.04 1.04 0 0 1 1.455 0l4.314 4.313a1.043 1.043 0 0 1 0 1.456l-1.443 1.444-5.765-5.766zm-2.863 2.861 2.176 2.176-16.529 16.53-2.181-2.181zm-15.094 20.793c.011.013.015.029.027.041s.028.016.041.027l2.419 2.419-2.2.733-3.443-3.442.733-2.2z"/><path d="m31 18h-16a5.006 5.006 0 0 0 -5 5v26a5.006 5.006 0 0 0 5 5h26a5.006 5.006 0 0 0 5-5v-16a1 1 0 0 0 -2 0v16a3 3 0 0 1 -3 3h-26a3 3 0 0 1 -3-3v-26a3 3 0 0 1 3-3h16a1 1 0 0 0 0-2z"/></g></svg>