<svg height="512" viewBox="0 0 512 512" width="512" xmlns="http://www.w3.org/2000/svg"><g id="_7_Written_Text" data-name="7 Written Text"><path d="m497 325.74v35.26a136 136 0 0 1 -136 136h-210a136 136 0 0 1 -136-136v-210a136 136 0 0 1 136-136h9.15a258.32 258.32 0 0 0 -9.15 68.33c0 142.41 115.45 257.86 257.86 257.86a257.22 257.22 0 0 0 88.14-15.45z" fill="#c6c6c6"/><path d="m489.3 103.73-116.78 116.78a35.61 35.61 0 0 0 -50.34 50.34l-2 2-26.67 26.68a32.4 32.4 0 0 1 -19.63 9.31l-66.37 7.43a10.69 10.69 0 0 1 -11.82-11.78l7.31-66.76a32.38 32.38 0 0 1 9.23-19l196.06-196a26.28 26.28 0 0 1 37.18 0l43.83 43.82a26.28 26.28 0 0 1 0 37.18z" fill="#ffbc42"/><rect fill="#ff6b6b" height="77.68" rx="12" transform="matrix(.707 .707 -.707 .707 181.39 -286.17)" width="114.6" x="378.84" y="37.02"/><path d="m206.28 331.34a25.69 25.69 0 0 1 -25.5-28.48l7.31-66.93a47.46 47.46 0 0 1 13.52-27.78l196.05-196.06a41.33 41.33 0 0 1 58.39 0l43.86 43.91a41.33 41.33 0 0 1 0 58.39l-123.12 123.07a15 15 0 1 1 -21.21-21.22l123.11-123.11a11.29 11.29 0 0 0 0-16l-43.85-43.82a11.29 11.29 0 0 0 -16 0l-196 196.05a17.41 17.41 0 0 0 -4.94 10.1l-6.7 61.31 61.2-6.86a17.39 17.39 0 0 0 10.52-5l26.68-26.68a15 15 0 0 1 21.21 21.22l-26.68 26.68a47.47 47.47 0 0 1 -28.64 13.61l-66.29 7.43a25.75 25.75 0 0 1 -2.92.17z"/><path d="m449.19 158.85a15 15 0 0 1 -10.61-4.4l-81-81a15 15 0 1 1 21.21-21.21l81 81a15 15 0 0 1 -10.6 25.61z"/><path d="m361 512h-210c-83.25 0-151-67.75-151-151v-210c0-83.25 67.75-151 151-151h64.28a15 15 0 0 1 0 30h-64.28a121.16 121.16 0 0 0 -121 121v210a121.16 121.16 0 0 0 121 121h210a121.16 121.16 0 0 0 121-121v-66a15 15 0 0 1 30 0v66c0 83.25-67.75 151-151 151z"/></g></svg>