<svg id="Icons" viewBox="0 0 60 60" xmlns="http://www.w3.org/2000/svg"><path d="m5.38 40.47 29.488-29.488 2.476-.507 11.557 11.63.117 3.027-29.478 29.478-.01.01-8.53-5.62z" fill="#f4ab19"/><path d="m9.75 57.4-6.82 1.55a1.544 1.544 0 0 1 -1.88-1.88l1.55-6.82 1.4-.25 6 6z" fill="#2a4093"/><path d="m19.53 54.62a3.654 3.654 0 0 1 -1.67.94l-8.11 1.84-7.15-7.15 1.84-8.11a3.654 3.654 0 0 1 .94-1.67l7.08.78v6.29h6.29z" fill="#f0c2aa"/><path d="m58.02 16.13-5.07 5.07h-2.315l-11.851-11.851.016-2.3 5.07-5.07a3.326 3.326 0 0 1 4.72 0l9.43 9.43a3.326 3.326 0 0 1 0 4.721z" fill="#c62645"/><path d="m41.129 6.087h5.558v20.01h-5.558z" fill="#dfe2f2" transform="matrix(.707 -.707 .707 .707 1.482 35.761)"/><path d="m45.09 21.2-26.34 26.34h-6.29v-6.29l26.34-26.34z" fill="#d89216"/><path d="m49.3 1.278a4.291 4.291 0 0 0 -3.06-1.278h-.009a4.315 4.315 0 0 0 -3.07 1.275l-11.868 11.869a1 1 0 0 0 1.414 1.414l2.161-2.158 2.516 2.517-25.291 25.283-4.533-.5 22.147-22.142a1 1 0 0 0 -1.414-1.414l-23.61 23.61a4.631 4.631 0 0 0 -1.219 2.165l-3.383 14.905a2.549 2.549 0 0 0 2.454 3.176 2.493 2.493 0 0 0 .616-.077l14.949-3.393a4.606 4.606 0 0 0 2.143-1.213l38.482-38.478a4.326 4.326 0 0 0 0-6.134zm-10.5 7.189 12.733 12.733-2.515 2.516-12.736-12.734zm-19 39.44 25.287-25.291 2.513 2.516-27.3 27.308zm23.873-26.707-25.34 25.341h-4.874v-4.874l25.341-25.34zm-40.989 36.781a.537.537 0 0 1 -.524-.141.557.557 0 0 1 -.135-.548l1.147-5.051 4.587 4.588zm14.954-3.4-7.574 1.72-6.364-6.365 1.714-7.552a2.609 2.609 0 0 1 .416-.858l5.634.62v5.395a1 1 0 0 0 1 1h5.4l.62 5.635a2.58 2.58 0 0 1 -.846.409zm39.673-39.16-4.364 4.363-12.735-12.731 4.363-4.364a2.364 2.364 0 0 1 3.306 0l9.432 9.433a2.35 2.35 0 0 1 -.002 3.303z" fill="#262626"/></svg>