<?xml version="1.0" encoding="iso-8859-1"?>
<!-- Generator: Adobe Illustrator 19.0.0, SVG Export Plug-In . SVG Version: 6.00 Build 0)  -->
<svg version="1.1" id="Capa_1" xmlns="http://www.w3.org/2000/svg" xmlns:xlink="http://www.w3.org/1999/xlink" x="0px" y="0px"
	 viewBox="0 0 454.008 454.008" style="enable-background:new 0 0 454.008 454.008;" xml:space="preserve">
<path style="fill:#D4E1F4;" d="M313.731,227.265c58.514,0,105.535,47.02,105.535,105.535s-47.02,105.535-105.535,105.535
	c-37.094,0-69.486-18.808-88.294-47.543c-10.971-16.718-17.241-36.571-17.241-57.992c0-40.229,22.465-75.233,55.38-92.996
	C278.727,231.967,295.445,227.265,313.731,227.265z"/>
<g>
	<path style="fill:#4DCFE0;" d="M241.11,39.184c14.629,14.629,23.51,34.482,23.51,56.947s-8.882,42.318-23.51,56.947
		s-34.482,23.51-56.947,23.51c-44.408,0-80.457-36.049-80.457-80.457c0-21.943,8.882-42.318,23.51-56.947s34.482-23.51,56.947-23.51
		S226.482,24.555,241.11,39.184z"/>
	<path style="fill:#4DCFE0;" d="M263.053,238.759l0.522,1.045c-32.914,17.763-55.38,52.767-55.38,92.996
		c0,21.42,6.269,41.273,17.241,57.992l0,0H34.743V354.22c0-71.576,57.992-129.567,129.567-129.567h40.229
		C225.437,224.653,245.29,229.878,263.053,238.759z"/>
</g>
<g>
	<path style="fill:#3A2C51;" d="M184.163,192.261c-52.767,0-96.131-43.363-96.131-96.131c0-25.6,10.449-50.155,28.212-67.918
		C134.531,9.927,158.563,0,184.163,0s50.155,9.927,67.918,28.212c18.286,18.286,28.212,42.318,28.212,67.918
		s-9.927,50.155-28.212,67.918C234.318,181.812,209.763,192.261,184.163,192.261z M184.163,31.347
		c-17.241,0-33.437,6.792-45.976,18.808C126.171,62.171,119.38,78.89,119.38,96.131c0,35.527,29.257,64.784,64.784,64.784
		c17.241,0,33.959-6.792,45.976-18.808c12.016-12.016,18.808-28.735,18.808-45.976s-6.792-33.437-18.808-45.976
		C217.6,38.139,201.404,31.347,184.163,31.347z"/>
	<path style="fill:#3A2C51;" d="M313.731,211.592c-16.718,0-33.437,3.657-49.11,10.449c-19.331-8.882-39.184-13.061-60.082-13.061
		H164.31c-79.935,0-145.241,65.306-145.241,145.241v36.571c0,8.882,6.792,15.673,15.673,15.673H217.6
		c22.988,29.78,57.992,47.543,96.131,47.543c66.873,0,121.208-54.335,121.208-121.208S380.604,211.592,313.731,211.592z
		 M50.416,354.22c0-62.694,51.2-113.894,113.894-113.894h40.229c8.882,0,18.286,1.045,27.167,3.135
		c-24.555,22.465-39.184,54.857-39.184,89.339c0,14.629,2.612,28.735,7.837,42.318H50.416V354.22z M313.731,422.661
		c-30.302,0-58.514-15.151-75.233-40.229c-9.404-14.629-14.629-31.869-14.629-49.633c0-32.914,17.763-63.216,47.02-78.89
		c13.584-7.314,28.212-10.971,42.841-10.971c49.633,0,89.861,40.229,89.861,89.861S363.363,422.661,313.731,422.661z"/>
	<path style="fill:#3A2C51;" d="M357.094,317.127h-27.69v-27.69c0-8.882-6.792-15.673-15.673-15.673s-15.673,6.792-15.673,15.673
		v27.69h-27.69c-8.882,0-15.673,6.792-15.673,15.673s6.792,15.673,15.673,15.673h27.69v27.69c0,8.882,6.792,15.673,15.673,15.673
		c8.882,0,15.673-6.792,15.673-15.673v-27.69h27.69c8.882,0,15.673-6.792,15.673-15.673S365.975,317.127,357.094,317.127z"/>
</g>
<g>
</g>
<g>
</g>
<g>
</g>
<g>
</g>
<g>
</g>
<g>
</g>
<g>
</g>
<g>
</g>
<g>
</g>
<g>
</g>
<g>
</g>
<g>
</g>
<g>
</g>
<g>
</g>
<g>
</g>
</svg>
