<svg height="512" viewBox="0 0 512 512" width="512" xmlns="http://www.w3.org/2000/svg"><g id="ESSENTIAL_UI" data-name="ESSENTIAL UI"><path d="m262.67 489.87c-38.08.94-112.9-5-137.35-10.79-16.67-3.51-32.34-13.21-44.14-26.71s-19.26-30.19-21-47.06l-.06-.52a271.5 271.5 0 0 1 -1.12-37.91s-.94-11.17 1.18-31.42c0-.17 0-.35 0-.52a73 73 0 0 1 21.08-43.94 74.29 74.29 0 0 1 44.28-21.32c24.53-2.59 99.17-4 137.11-4s98.82 1.41 123.35 4a74.31 74.31 0 0 1 44.28 21.32 72.93 72.93 0 0 1 21.07 44v.51c2.12 20.26 1.84 31.37 1.84 31.38a360.41 360.41 0 0 1 -1.83 38c0 .17 0 .34-.05.51-1.74 16.87-9.19 33.54-21 47.07s-27.48 23.19-44.15 26.7c-24.41 5.5-85.42 10.96-123.49 10.7z" fill="#4193d2"/><path d="m374.61 268.72c-28.72-2-79-3.05-112-3.05-37.94 0-112.58 1.42-137.11 4a74.29 74.29 0 0 0 -44.24 21.33 73 73 0 0 0 -21.07 43.94v.52c-2.19 20.25-1.19 31.41-1.19 31.42a271.5 271.5 0 0 0 1.17 37.91l.06.52a81.9 81.9 0 0 0 7.87 27.26 268 268 0 0 0 57.9 6.31c113.19 0 209.93-70.59 248.61-170.16z" fill="#48a4df"/><circle cx="253.53" cy="118.59" fill="#edab7e" r="118.59"/><path d="m410.08 308.16a101.92 101.92 0 1 0 101.92 101.92 101.92 101.92 0 0 0 -101.92-101.92z" fill="#f9973e"/><path d="m454 429.08h-24.92v24.92a19 19 0 0 1 -38 0v-24.92h-24.87a19 19 0 0 1 0-38h24.87v-24.88a19 19 0 0 1 38 0v24.88h24.92a19 19 0 0 1 0 38z" fill="#fff"/></g></svg>