<svg id="Layer_1" enable-background="new 0 0 468.519 468.519" height="512" viewBox="0 0 468.519 468.519" width="512" xmlns="http://www.w3.org/2000/svg"><g><g><g><g><path d="m311.672 448.975v-118.977c0-59.043-47.728-106.908-106.602-106.908h-52.208c-58.875 0-106.602 47.864-106.602 106.908v118.977z" fill="#6e6eff"/><g><path d="m249.61 353.578h62.063v95.397h-62.063z" fill="#ffbdb0" transform="matrix(-1 0 0 -1 561.282 802.552)"/></g><g><path d="m46.26 353.578h62.449v95.397h-62.449z" fill="#ffbdb0" transform="matrix(-1 0 0 -1 154.968 802.552)"/></g></g><path d="m178.966 275.355c18.573 0 33.629-15.062 33.629-33.642v-93.898h-67.258v93.898c0 18.58 15.056 33.642 33.629 33.642z" fill="#ffbdb0"/><g><path d="m179.64 216.009c-42.567 0-77.073-34.521-77.073-77.104v-76.28h154.147v76.28c-.001 42.583-34.508 77.104-77.074 77.104z" fill="#fed9c9"/><path d="m183.776.009h-46.311c-36.782-.683-42.704 38.586-37.704 51.406-39.735 17.628 2.806 90.737 2.806 90.737l28.688-74.14s51.809 34.053 97.196 0l28.26 74.14c7.462-6.411 12.739-15.053 14.901-24.686 14.946-83.127-29.589-114.027-87.836-117.457z" fill="#646464"/></g></g><g><ellipse cx="311.126" cy="357.571" fill="#53d390" rx="111.133" ry="110.948"/><path d="m379.185 339.04h-49.497v-49.415h-37.123v49.415h-49.498v37.062h49.498v49.415h37.123v-49.415h49.497z" fill="#fff"/></g></g><g><path d="m340.385 76.161 7.747-1.642-8.959-2.541c-4.718-1.338-8.321-5.159-9.38-9.948l-1.661-7.511-1.661 7.511c-1.059 4.789-4.662 8.61-9.38 9.948l-8.959 2.541 7.747 1.642c5.016 1.063 8.977 4.907 10.19 9.889l2.063 8.47 2.063-8.47c1.213-4.982 5.175-8.826 10.19-9.889z" fill="#c2c2ff"/><path d="m412.64 196.161 7.747-1.642-8.959-2.541c-4.718-1.338-8.321-5.159-9.38-9.948l-1.661-7.511-1.661 7.511c-1.059 4.789-4.662 8.61-9.38 9.948l-8.959 2.541 7.747 1.642c5.016 1.063 8.977 4.907 10.19 9.889l2.063 8.47 2.063-8.47c1.213-4.982 5.175-8.826 10.19-9.889z" fill="#ff8a80"/></g></g></svg>