<svg id="Layer_1" enable-background="new 0 0 470 470" height="512" viewBox="0 0 470 470" width="512" xmlns="http://www.w3.org/2000/svg"><g><g><g><path d="m411.944 380.123c-58.382 68.268-174.157 115.12-276.889 75.156-73.639-28.646-141.541-102.731-134.56-184.078 4.425-51.551 39.255-109.896 91.475-135.483 41.094-20.136 76.474-11.91 99.003-41.857 19.796-26.315 3.602-47.454 20.408-68.425 26.575-33.162 109.018-32.652 159.379-5.707 99.729 53.359 142.644 241.754 41.184 360.394z" fill="#e6edff"/></g></g><g><g><g><g><g><path d="m28 296.046h41.945v58.954h-41.945z" fill="#fdd2b5"/></g></g><g><g><path d="m28 296.046h18v58.954h-18z" fill="#f9c19b"/></g></g></g><g><g><path d="m190.615 296.046h42.234v58.954h-42.234z" fill="#fdd2b5"/></g></g><g><g><g><path d="m190.615 355h-120.67v-85.409 26.366l-41.945.089v-24.17c0-45.38 36.837-82.169 82.277-82.169h40.295c45.441 0 82.277 36.788 82.277 82.169v24.17h-42.234z" fill="#f9c032"/></g></g><g><g><path d="m123.322 189.707h-13.045c-45.44 0-82.277 36.788-82.277 82.169v24.17l18-.038v-19.132c0-43.717 34.191-79.446 77.322-82.007z" fill="#e5a505"/></g></g></g><g><g><g><path d="m130.28 227.085c-15.836 0-28.673-12.82-28.673-28.635v-101.602h57.347v101.602c0 15.814-12.838 28.635-28.674 28.635z" fill="#fdd2b5"/></g></g><g><g><path d="m116.607 198.45v-101.602h-15v101.602c0 15.815 12.838 28.635 28.673 28.635 2.596 0 5.109-.351 7.5-.996-12.197-3.294-21.173-14.417-21.173-27.639z" fill="#f9c19b"/></g></g><g><g><path d="m130.425 179.436c-10.576 0-20.447-3.008-28.818-8.202v15c8.371 5.195 18.241 8.202 28.818 8.202 10.454 0 20.22-2.933 28.529-8.017v-15c-8.309 5.084-18.076 8.017-28.529 8.017z" fill="#f9c19b"/></g></g></g><g><g><g><path d="m130.425 179.436c30.233 0 54.741-24.508 54.741-54.741v-83.613h-109.482v83.613c0 30.233 24.508 54.741 54.741 54.741z" fill="#fdd2b5"/></g></g><g><g><path d="m185.166 87.044-46.209.129c-16.594-.995-32.211-3.784-46.717-15.187-6.705-5.271-16.556-.387-16.556 8.136v16c0-8.522 9.85-13.407 16.556-8.136 14.506 11.403 30.124 14.192 46.717 15.187l46.209-.129z" fill="#f9c19b"/></g></g></g><g><g><g><path d="m85.881 28.964c0-13.235 10.744-23.964 23.996-23.964h3.873c27.463 0 54.02 10.849 72.893 30.773 12.562 13.261 22.609 31.356 22.603 55.314-.009 33.097-24.08 38.574-24.08 38.574v-42.617l-46.209.129c-16.594-.995-32.211-3.784-46.717-15.187-6.705-5.271-16.556-.387-16.556 8.136v49.284s-27.362.257-27.27-46.313c0-.001-2.23-53.108 37.467-54.129z" fill="#616161"/></g></g><g><g><path d="m61.414 95.092s-2.229-53.106 37.468-54.127c-.001-13.236 10.743-23.965 23.995-23.965h3.873c22.32 0 44.042 7.167 61.526 20.547-.54-.599-1.083-1.193-1.633-1.773-18.873-19.925-45.43-30.774-72.893-30.774h-3.873c-13.252 0-23.996 10.729-23.996 23.964-39.697 1.021-37.468 54.127-37.468 54.127-.061 30.748 11.845 41.08 19.943 44.553-3.995-6.86-6.973-17.14-6.942-32.552z" fill="#4c4c4c"/></g></g></g></g><g><g><g><g><path d="m400.055 296.046h41.945v58.954h-41.945z" fill="#fdd2b5" transform="matrix(-1 0 0 -1 842.055 651.046)"/></g></g><g><g><path d="m424 296.046h18v58.954h-18z" fill="#f9c19b"/></g></g></g><g><g><path d="m237.15 296.046h42.234v58.954h-42.234z" fill="#fdd2b5" transform="matrix(-1 0 0 -1 516.535 651.046)"/></g></g><g><g><g><path d="m279.385 355h120.67v-85.409 26.366l41.945.089v-24.17c0-45.38-36.837-82.169-82.277-82.169h-40.295c-45.441 0-82.277 36.788-82.277 82.169v24.17h42.234z" fill="#16d3a5"/></g></g><g><g><path d="m346.678 189.707h13.045c45.44 0 82.277 36.788 82.277 82.169v24.17l-18-.038v-19.132c0-43.717-34.191-79.446-77.322-82.007z" fill="#0eaf89"/></g></g></g><g><g><g><path d="m339.431 227.085c-15.836 0-28.673-12.82-28.673-28.635v-101.602h57.347v101.602c-.001 15.814-12.839 28.635-28.674 28.635z" fill="#fdd2b5"/></g></g><g><g><path d="m325.757 198.45v-101.602h-15v101.602c0 15.815 12.838 28.635 28.673 28.635 2.596 0 5.109-.351 7.5-.996-12.196-3.294-21.173-14.417-21.173-27.639z" fill="#f9c19b"/></g></g><g><g><path d="m339.575 179.436c-10.576 0-20.447-3.008-28.818-8.202v15c8.371 5.195 18.241 8.202 28.818 8.202 10.454 0 20.22-2.933 28.529-8.017v-15c-8.308 5.084-18.075 8.017-28.529 8.017z" fill="#f9c19b"/></g></g></g><g><g><g><path d="m339.575 179.436c30.233 0 54.741-24.508 54.741-54.741v-83.613h-109.482v83.613c0 30.233 24.509 54.741 54.741 54.741z" fill="#fdd2b5"/></g></g><g><g><path d="m394.316 87.044-46.209.129c-16.594-.995-32.211-3.784-46.717-15.187-6.705-5.271-16.556-.387-16.556 8.136v16c0-8.522 9.85-13.407 16.556-8.136 14.506 11.403 30.124 14.192 46.717 15.187l46.209-.129z" fill="#f9c19b"/></g></g></g><g><g><g><path d="m295.032 28.964c0-13.235 10.743-23.964 23.996-23.964h3.873c27.463 0 54.02 10.849 72.893 30.773 12.562 13.261 22.609 31.356 22.603 55.314-.009 33.097-24.08 38.574-24.08 38.574v-42.617l-46.209.129c-16.594-.995-32.211-3.784-46.717-15.187-6.705-5.271-16.556-.387-16.556 8.136v49.284s-27.362.257-27.27-46.313c-.001-.001-2.23-53.108 37.467-54.129z" fill="#616161"/></g></g><g><g><path d="m270.564 95.092s-2.229-53.106 37.468-54.127c0-13.235 10.743-23.964 23.996-23.964h3.873c22.32 0 44.042 7.167 61.526 20.547-.54-.599-1.083-1.193-1.633-1.773-18.874-19.926-45.43-30.775-72.894-30.775h-3.873c-13.253 0-23.996 10.729-23.996 23.964-39.697 1.021-37.468 54.127-37.468 54.127-.061 30.748 11.845 41.08 19.943 44.553-3.995-6.86-6.972-17.14-6.942-32.552z" fill="#4c4c4c"/></g></g></g></g><g><g><g><g><path d="m135.41 369.871h40.784v57.399h-40.784z" fill="#fdd2b5"/></g></g><g><g><path d="m135.41 369.87h18v57.399h-18z" fill="#f9c19b"/></g></g></g><g><g><path d="m293.524 369.871h41.065v57.399h-41.065z" fill="#fdd2b5"/></g></g><g><g><path d="m293.524 427.269h-117.33v-83.155 25.67l-40.784.086v-23.532c0-44.183 35.817-80 80-80h39.179c44.183 0 80 35.817 80 80v23.532h-41.065z" fill="#4c62bf"/></g></g><g><g><path d="m153.41 353.338c0-44.183 35.817-80 80-80h39.18c6.82 0 13.439.859 19.76 2.465-11.248-6.034-24.102-9.465-37.76-9.465h-39.18c-44.183 0-80 35.817-80 80v23.532l18-.038z" fill="#4057a0"/></g></g><g><g><path d="m235 401.215-20.173-27.947 12.254-71.538h17.097l10.995 71.538z" fill="#fff"/></g></g><g><g><g><path d="m234.859 302.73c-15.398 0-27.88-12.482-27.88-27.88v-98.92h55.759v98.92c.001 15.398-12.481 27.88-27.879 27.88z" fill="#fdd2b5"/></g></g><g><g><path d="m234.859 254.563c-10.224 0-19.771-2.888-27.88-7.885v16c8.109 4.997 17.656 7.885 27.88 7.885 10.224 0 19.771-2.888 27.88-7.885v-16c-8.109 4.997-17.656 7.885-27.88 7.885z" fill="#f9c19b"/></g></g><g><g><path d="m222.98 274.85v-98.92h-16v98.92c0 15.397 12.482 27.88 27.88 27.88 2.781 0 5.465-.413 8-1.171-11.498-3.439-19.88-14.093-19.88-26.709z" fill="#f9c19b"/></g></g></g><g><g><g><path d="m234.86 254.563c-29.396 0-53.226-23.83-53.226-53.226v-81.477h106.451v81.477c0 29.396-23.83 53.226-53.225 53.226z" fill="#fdd2b5"/></g></g><g><g><path d="m286.303 168.203c-31.974 9.424-66.547 1.6-91.348-20.671-5.141-4.616-13.321-.968-13.321 5.942v11.126c2.328-4.194 8.263-5.712 12.321-2.068 24.802 22.271 59.375 30.094 91.348 20.671.594-.175 2.167-.499 2.746-.703v-14.89c-.579.204-1.152.418-1.746.593z" fill="#f9c19b"/></g></g></g><g><g><g><path d="m302.898 142.699c-.526-18.266-10.064-35.191-25.629-44.763-13.785-8.477-29.874-13.205-46.678-13.205h-19.094c-12.886 0-23.332 10.446-23.332 23.332-38.598.994-36.431 52.699-36.431 52.699-.089 45.341 29.899 45.341 29.899 45.341v-52.628c0-6.91 8.18-10.558 13.321-5.942 24.802 22.271 59.375 30.094 91.348 20.671.594-.175 1.167-.389 1.746-.593v38.493s10.946-4.283 19.593-17.672c6.497-10.062 9.27-21.818 8.418-33.428-.507-6.923-6.221-12.305-13.161-12.305z" fill="#616161"/></g></g><g><g><path d="m164.734 172.762s-2.168-51.705 36.431-52.699c0-12.886 10.446-23.332 23.332-23.332h19.094c16.804 0 32.893 4.728 46.678 13.205.414.254.806.535 1.211.799-3.884-5.017-8.655-9.383-14.211-12.799-13.785-8.477-29.874-13.205-46.678-13.205h-19.094c-12.886 0-23.332 10.446-23.332 23.332-38.598.994-36.431 52.699-36.431 52.699-.055 27.875 11.257 38.61 19.981 42.746-4.057-6.701-7.009-16.477-6.981-30.746z" fill="#4c4c4c"/></g></g></g></g><g><g><g><g><circle cx="340" cy="400" fill="#ea2f2f" r="65"/></g></g><g><g><path d="m292 400c0-33.015 24.621-60.262 56.5-64.429-2.784-.364-5.617-.571-8.5-.571-35.898 0-65 29.102-65 65s29.102 65 65 65c2.883 0 5.716-.207 8.5-.571-31.879-4.167-56.5-31.414-56.5-64.429z" fill="#cc2929"/></g></g></g><path d="m375 395h-30v-30c0-2.761-2.238-5-5-5s-5 2.239-5 5v30h-30c-2.762 0-5 2.239-5 5s2.238 5 5 5h30v30c0 2.761 2.238 5 5 5s5-2.239 5-5v-30h30c2.762 0 5-2.239 5-5s-2.238-5-5-5z" fill="#fff"/></g></g></g></svg>