<svg id="Layer_1" height="512" viewBox="0 0 512 512" width="512" xmlns="http://www.w3.org/2000/svg"><g fill="#ef4136"><path d="m480.359 430.359c0 27.5-22.5 50-50 50h-348.718c-27.5 0-50-22.5-50-50v-348.718c0-27.5 22.5-50 50-50h348.719c27.5 0 50 22.5 50 50v348.718z"/><path d="m480.359 430.359c0 27.5-22.5 50-50 50h-348.718c-27.5 0-50-22.5-50-50v-348.718c0-27.5 22.5-50 50-50h348.719c27.5 0 50 22.5 50 50v348.718z"/></g><path d="m337.737 157.774h-163.473-17.556v17.555 63.469 158.937c0 9.656 7.9 17.556 17.556 17.556h163.474c9.655 0 17.555-7.899 17.555-17.556v-158.937-63.468-17.555h-17.556z" fill="#f1f2f2"/><g><path d="m309.555 131.26h-107.11c-2.761 0-5-2.239-5-5v-2.458c0-14.373 13.185-26.066 29.39-26.066h58.33c16.205 0 29.39 11.693 29.39 26.066v2.458c0 2.761-2.239 5-5 5zm-101.867-10h96.625c-1.475-7.656-9.499-13.524-19.147-13.524h-58.33c-9.649 0-17.674 5.868-19.148 13.524z" fill="#f1f2f2"/></g><g><g><path d="m202.445 367.167c-2.761 0-5-2.238-5-5v-159.29c0-2.761 2.239-5 5-5s5 2.239 5 5v159.29c0 2.762-2.238 5-5 5z" fill="#d1d3d4"/></g><g><path d="m256 367.167c-2.761 0-5-2.238-5-5v-159.29c0-2.761 2.239-5 5-5 2.762 0 5 2.239 5 5v159.29c0 2.762-2.238 5-5 5z" fill="#d1d3d4"/></g><g><path d="m309.555 367.167c-2.762 0-5-2.238-5-5v-159.29c0-2.761 2.238-5 5-5s5 2.239 5 5v159.29c0 2.762-2.239 5-5 5z" fill="#d1d3d4"/></g></g><path d="m375.036 139.264c0 10.229-8.286 18.515-18.503 18.515h-201.065c-10.218 0-18.504-8.286-18.504-18.515 0-5.103 2.072-9.737 5.419-13.085 3.347-3.347 7.982-5.418 13.085-5.418h201.065c10.217-.001 18.503 8.285 18.503 18.503z" fill="#d1d3d4"/></svg>