<svg id="Flat" height="512" viewBox="0 0 16 16" width="512" xmlns="http://www.w3.org/2000/svg"><path d="m13 2.5h-2.5v-.5a1.498 1.498 0 0 0 -1.5-1.5h-2a1.498 1.498 0 0 0 -1.5 1.5v.5h-2.5a1.498 1.498 0 0 0 -1.5 1.5v1a1.4954 1.4954 0 0 0 1 1.41v7.59a1.498 1.498 0 0 0 1.5 1.5h8a1.498 1.498 0 0 0 1.5-1.5v-7.59a1.4954 1.4954 0 0 0 1-1.41v-1a1.498 1.498 0 0 0 -1.5-1.5zm-8 9.5v-3a.5.5 0 0 1 1 0v3a.5.5 0 0 1 -1 0zm2.5 0v-3a.5.5 0 0 1 1 0v3a.5.5 0 0 1 -1 0zm3.5 0a.5.5 0 0 1 -1 0v-3a.5.5 0 0 1 1 0z" fill="#f44336"/></svg>