<svg height="512" viewBox="0 0 64 64" width="512" xmlns="http://www.w3.org/2000/svg"><g id="Filled_outline" data-name="Filled outline"><g id="Color"><path d="m18.57 15.51 7.86 7a2 2 0 0 0 1.33.51h28.24v34.9a2.93 2.93 0 0 1 -2.74 3.08h-47.52a2.93 2.93 0 0 1 -2.74-3.08v-39.92a2.85 2.85 0 0 1 2.68-3h11.56a2 2 0 0 1 1.33.51z" fill="#fdbf00"/><path d="m7 3h42v54h-42z" fill="#d7e6ef" transform="matrix(-1 0 0 -1 56 60)"/><path d="m45 23h16v-6a2 2 0 0 0 -2-2h-6z" fill="#fdbf00"/><path d="m14 9h42v14h-42z" fill="#f7fcff"/><path d="m25.69 15.51 7.42 7a1.8 1.8 0 0 0 1.25.51h26.64v34.9a2.87 2.87 0 0 1 -2.59 3.08h-44.82a2.87 2.87 0 0 1 -2.59-3.08v-39.92a2.79 2.79 0 0 1 2.53-3h10.9a1.82 1.82 0 0 1 1.26.51z" fill="#ffda2d"/><circle cx="36" cy="42" fill="#f7fcff" r="13"/><path d="m39.55 42 1.72-1.72a2.51 2.51 0 1 0 -3.55-3.55l-1.72 1.72-1.72-1.72a2.51 2.51 0 1 0 -3.55 3.55l1.72 1.72-1.72 1.72a2.51 2.51 0 1 0 3.55 3.55l1.72-1.72 1.72 1.72a2.51 2.51 0 1 0 3.55-3.55z" fill="#c02027"/></g><g id="Outline" fill="#1e120b"><path d="m31 42-1 1a3.51 3.51 0 0 0 5 5l1-1 1 1a3.51 3.51 0 0 0 5-5l-1-1 1-1a3.51 3.51 0 0 0 -5-5l-1 1-1-1a3.51 3.51 0 0 0 -5 5zm.4-4.56a1.5 1.5 0 0 1 2.13 0l1.72 1.72a1 1 0 0 0 1.42 0l1.72-1.72a1.51 1.51 0 1 1 2.13 2.13l-1.72 1.72a1 1 0 0 0 0 1.42l1.72 1.72a1.51 1.51 0 1 1 -2.13 2.13l-1.72-1.72a1 1 0 0 0 -1.42 0l-1.72 1.72a1.51 1.51 0 1 1 -2.13-2.13l1.72-1.72a1 1 0 0 0 0-1.42l-1.72-1.72a1.5 1.5 0 0 1 .04-2.13z"/><path d="m59 14h-2v-5a1 1 0 0 0 -1-1h-6v-5a1 1 0 0 0 -1-1h-42a1 1 0 0 0 -1 1v11h-.32a3.85 3.85 0 0 0 -3.68 4v39.92a3.93 3.93 0 0 0 3.74 4.08h52.67a3.86 3.86 0 0 0 3.59-4.08v-40.92a3 3 0 0 0 -3-3zm0 2a1 1 0 0 1 1 1v5h-3v-6zm-4 6h-20.64a.83.83 0 0 1 -.57-.23l-7.42-7a2.83 2.83 0 0 0 -1.94-.77h-9.43v-4h40zm-51 35.92v-39.92a1.86 1.86 0 0 1 1.68-2h.32v41a1 1 0 0 0 1 1h3a4.42 4.42 0 0 0 .51 2h-4.77a1.93 1.93 0 0 1 -1.74-2.08zm56 0a1.91 1.91 0 0 1 -1.59 2.08h-44.82a1.91 1.91 0 0 1 -1.59-2.08v-16.92a1 1 0 0 0 -2 0v15h-2v-52h40v4h-34a1 1 0 0 0 -1 1v5.06a3.87 3.87 0 0 0 -3 3.94v15a1 1 0 0 0 2 0v-15a1.84 1.84 0 0 1 1.53-2h10.9a.83.83 0 0 1 .57.23l7.42 7a2.83 2.83 0 0 0 1.94.78h25.64z"/><path d="m32 15h20a1 1 0 0 0 0-2h-20a1 1 0 0 0 0 2z"/><path d="m52 17h-15a1 1 0 0 0 0 2h15a1 1 0 0 0 0-2z"/><circle cx="11" cy="37" r="1"/><path d="m22 42a14 14 0 1 0 14-14 14 14 0 0 0 -14 14zm14-12a12 12 0 1 1 -12 12 12 12 0 0 1 12-12z"/></g></g></svg>