<svg height="512" viewBox="0 0 64 64" width="512" xmlns="http://www.w3.org/2000/svg"><g id="Layer_32" data-name="Layer 32"><path d="m58 62a4 4 0 0 0 4-4v-42a4 4 0 0 0 -4-4h-13v50z" fill="#e56b10"/><path d="m60 56v-35.313a8.687 8.687 0 0 0 -8.687-8.687h-6.313v48h11a4 4 0 0 0 4-4z" fill="#ec8329"/><path d="m14 2h36v32h-36z" fill="#c1cfe8"/><path d="m6 34v-17l11-9h23v26z" fill="#e4eaf4"/><g fill="#004c9d"><path d="m40 13h6v2h-6z"/><path d="m40 17h6v2h-6z"/><path d="m40 21h6v2h-6z"/></g><path d="m6 17h11v-9z" fill="#95afd1"/><path d="m24 14h12v2h-12z" fill="#0059be"/><path d="m20 18h16v2h-16z" fill="#0059be"/><path d="m54 34a4 4 0 0 0 -4-4h-13a2.651 2.651 0 0 1 -2.549-1.923l-.9-3.154a2.651 2.651 0 0 0 -2.551-1.923h-24a5 5 0 0 0 -5 5v30a4 4 0 0 0 4 4h52a4 4 0 0 1 -4-4z" fill="#ffa617"/><path d="m40 25h6v2h-6z" fill="#004c9d"/><path d="m54 34a4 4 0 0 0 -4-4h-13a2.651 2.651 0 0 1 -2.549-1.923l-.9-3.154a2.651 2.651 0 0 0 -2.551-1.923h-24a4.947 4.947 0 0 0 -1.687.313 4.947 4.947 0 0 0 -.313 1.687v30a4 4 0 0 0 4 4h45.141a3.977 3.977 0 0 1 -.141-1z" fill="#fcb732"/><path d="m22 46 7 7-4 4-7-7-7 7-4-4 7-7-7-7 4-4 7 7 7-7 4 4z" fill="#c91123"/><path d="m24 14h12v2h-12z"/><path d="m20 18h16v2h-16z"/><path d="m58 11h-7v-9a1 1 0 0 0 -1-1h-36a1 1 0 0 0 -1 1v7.981l-7.633 6.245a1 1 0 0 0 -.367.774v5.35a6 6 0 0 0 -4 5.65v30a5.006 5.006 0 0 0 5 5h52a5.006 5.006 0 0 0 5-5v-42a5 5 0 0 0 -5-5zm-43-8h34v26h-8v-2h5v-2h-5v-2h5v-2h-5v-2h5v-2h-5v-2h5v-2h-5v-5a1 1 0 0 0 -1-1h-23a1 1 0 0 0 -.633.226l-1.367 1.119zm1 7.111v5.889h-7.2zm-9 7.889h10a1 1 0 0 0 1-1v-8h21v20h-2a1.659 1.659 0 0 1 -1.588-1.2l-.9-3.155a3.669 3.669 0 0 0 -3.512-2.645h-24zm-1 43a3 3 0 0 1 -3-3v-30a4 4 0 0 1 4-4h24a1.659 1.659 0 0 1 1.588 1.2l.9 3.155a3.669 3.669 0 0 0 3.512 2.645h13a3 3 0 0 1 3 3v24a4.973 4.973 0 0 0 1 3zm55-3a3 3 0 0 1 -6 0v-24a5.009 5.009 0 0 0 -4-4.9v-16.1h7a3 3 0 0 1 3 3z"/><path d="m29.707 38.293-4-4a1 1 0 0 0 -1.414 0l-6.293 6.293-6.293-6.293a1 1 0 0 0 -1.414 0l-4 4a1 1 0 0 0 0 1.414l6.293 6.293-6.293 6.293a1 1 0 0 0 0 1.414l4 4a1 1 0 0 0 1.414 0l6.293-6.293 6.293 6.293a1 1 0 0 0 1.414 0l4-4a1 1 0 0 0 0-1.414l-6.293-6.293 6.293-6.293a1 1 0 0 0 0-1.414zm-8.414 7a1 1 0 0 0 0 1.414l6.293 6.293-2.586 2.586-6.293-6.293a1 1 0 0 0 -1.414 0l-6.293 6.293-2.586-2.586 6.293-6.293a1 1 0 0 0 0-1.414l-6.293-6.293 2.586-2.586 6.293 6.293a1 1 0 0 0 1.414 0l6.293-6.293 2.586 2.586z"/></g></svg>