<svg height="512" viewBox="0 0 58 59" width="512" xmlns="http://www.w3.org/2000/svg"><g id="Page-1" fill="none" fill-rule="evenodd"><g id="074---Delete-Old-Files" fill-rule="nonzero"><path id="Shape" d="m31.41 54h-29.41c-1.10320187-.0032948-1.9967052-.8967981-2-2v-50c.0032948-1.10320187.89679813-1.9967052 2-2h28l8 8v18.5z" fill="#9fc9d3"/><path id="Shape" d="m58 42c.011324 6.487803-3.8896164 12.3425497-9.8814048 14.8305582-5.9917885 2.4880085-12.8925018 1.1185013-17.4800783-3.4690751-4.5875764-4.5875765-5.9570836-11.4882898-3.4690751-17.4800783 2.4880085-5.9917884 8.3427552-9.8927288 14.8305582-9.8814048 4.2434638 0 8.3131264 1.6857094 11.3137085 4.6862915s4.6862915 7.0702447 4.6862915 11.3137085z" fill="#e64c3c"/><path id="Shape" d="m49.389 46.431c.7905442.821193.7781569 2.1241284-.0278573 2.9301427-.8060143.8060142-2.1089497.8184015-2.9301427.0278573l-4.431-4.431-4.431 4.431c-.8187274.8122334-2.1392726.8122334-2.958 0-.8079028-.8205064-.8079028-2.1374936 0-2.958l4.431-4.431-4.431-4.431c-.8122334-.8187274-.8122334-2.1392726 0-2.958.8205064-.8079028 2.1374936-.8079028 2.958 0l4.431 4.431 4.431-4.431c.821193-.7905442 2.1241284-.7781569 2.9301427.0278573.8060142.8060143.8184015 2.1089497.0278573 2.9301427l-4.432 4.431z" fill="#fff"/><circle id="Oval" cx="19" cy="14" fill="#fff" r="8"/><path id="Shape" d="m21 16c-.1547895-.0000102-.3074634-.0359537-.446-.105l-2-1c-.3394402-.169145-.5539875-.5157512-.554-.895v-3c0-.5522847.4477153-1 1-1s1 .4477153 1 1v2.382l1.447.723c.415452.2070599.6337945.6727907.5272238 1.1245837-.1065707.4517929-.510032.7708502-.9742238.7704163z" fill="#464f5d"/><g fill="#285680"><path id="Shape" d="m29 28h-23c-.55228475 0-1-.4477153-1-1s.44771525-1 1-1h23c.5522847 0 1 .4477153 1 1s-.4477153 1-1 1z"/><path id="Shape" d="m26 32h-20c-.55228475 0-1-.4477153-1-1s.44771525-1 1-1h20c.5522847 0 1 .4477153 1 1s-.4477153 1-1 1z"/><path id="Shape" d="m24 36h-18c-.55228475 0-1-.4477153-1-1s.44771525-1 1-1h18c.5522847 0 1 .4477153 1 1s-.4477153 1-1 1z"/><path id="Shape" d="m22 40h-16c-.55228475 0-1-.4477153-1-1s.44771525-1 1-1h16c.5522847 0 1 .4477153 1 1s-.4477153 1-1 1z"/><path id="Shape" d="m22 44h-16c-.55228475 0-1-.4477153-1-1s.44771525-1 1-1h16c.5522847 0 1 .4477153 1 1s-.4477153 1-1 1z"/><path id="Shape" d="m23 48h-17c-.55228475 0-1-.4477153-1-1s.44771525-1 1-1h17c.5522847 0 1 .4477153 1 1s-.4477153 1-1 1z"/></g><path id="Shape" d="m38 8h-7c-.5522847 0-1-.44771525-1-1v-7z" fill="#3b97d3"/></g></g></svg>