<svg id="OBJECT" height="512" viewBox="0 0 32 32" width="512" xmlns="http://www.w3.org/2000/svg"><path d="m20.88 7.18-5-6a.49.49 0 0 0 -.38-.18h-12a2.5 2.5 0 0 0 -2.5 2.5v25a2.5 2.5 0 0 0 2.5 2.5h15a2.5 2.5 0 0 0 2.5-2.5v-21a.47.47 0 0 0 -.12-.32z" fill="#80b6ff"/><path d="m19.5 30h-15a2.5 2.5 0 0 1 -2.5-2.5v-25a2.54 2.54 0 0 1 .31-1.19 2.51 2.51 0 0 0 -1.31 2.19v25a2.5 2.5 0 0 0 2.5 2.5h15a2.51 2.51 0 0 0 2.19-1.31 2.54 2.54 0 0 1 -1.19.31z" fill="#60a4ff"/><path d="m21 7.5a.47.47 0 0 0 -.12-.32l-4.3-5.18h-.08-.45l-.85 6a1.58 1.58 0 0 0 1.57 1.81h.26l4-.66z" fill="#60a4ff"/><path d="m15.88 1.18a.49.49 0 0 0 -.38-.18h-.45l-.85 6a1.58 1.58 0 0 0 1.57 1.81h.26l4.97-.81v-.5a.47.47 0 0 0 -.12-.32z" fill="#c193dc"/><path d="m15.66 8.34a1.6 1.6 0 0 1 -.46-1.34l.8-5.67-.13-.15a.49.49 0 0 0 -.37-.18h-.45l-.85 6a1.58 1.58 0 0 0 1.57 1.81h.26.29a1.63 1.63 0 0 1 -.66-.47z" fill="#b278d3"/><g fill="#faf7f5"><path d="m17 13h-12a.5.5 0 0 1 0-1h12a.5.5 0 0 1 0 1z"/><path d="m15 19h-10a.5.5 0 0 1 0-1h10a.5.5 0 0 1 0 1z"/><path d="m13 25h-8a.5.5 0 0 1 0-1h8a.5.5 0 0 1 0 1z"/></g><path d="m15 24.5a7.52 7.52 0 0 0 3.74 6.5 2.5 2.5 0 0 0 2.26-2.5v-11.35a7.52 7.52 0 0 0 -6 7.35z" fill="#60a4ff"/><circle cx="23.5" cy="23.5" fill="#ff7b79" r="7.5"/><path d="m28.28 17.72a7.5 7.5 0 0 1 -10.56 10.56 7.5 7.5 0 1 0 10.56-10.56z" fill="#ff5a58"/><path d="m23.5 27a.5.5 0 0 1 -.5-.5v-6a.5.5 0 0 1 1 0v6a.5.5 0 0 1 -.5.5z" fill="#faf7f5"/><path d="m26.5 24h-6a.5.5 0 0 1 0-1h6a.5.5 0 0 1 0 1z" fill="#faf7f5"/></svg>