<svg viewBox="-17 0 512 512.00102" xmlns="http://www.w3.org/2000/svg"><path d="m314.789062 28.871094v337.71875c0 11.742187-9.511718 21.257812-21.253906 21.257812h-264.695312c-11.738282 0-21.253906-9.515625-21.253906-21.257812v-337.71875c0-11.742188 9.515624-21.253906 21.253906-21.253906h264.695312c11.742188 0 21.253906 9.511718 21.253906 21.253906zm0 0" fill="#ebe1dc"/><path d="m314.789062 28.871094v320.515625h-243.4375c-11.742187 0-21.253906-9.515625-21.253906-21.257813v-320.511718h243.4375c11.742188 0 21.253906 9.511718 21.253906 21.253906zm0 0" fill="#fff5f5"/><g fill="#40c1fa"><path d="m92.871094 79.316406c0 10.578125-8.570313 19.148438-19.148438 19.148438-10.574218 0-19.148437-8.570313-19.148437-19.148438 0-10.574218 8.574219-19.148437 19.148437-19.148437 10.578125 0 19.148438 8.574219 19.148438 19.148437zm0 0"/><path d="m92.871094 158.261719c0 10.574219-8.570313 19.148437-19.148438 19.148437-10.574218 0-19.148437-8.574218-19.148437-19.148437 0-10.578125 8.574219-19.152344 19.148437-19.152344 10.578125 0 19.148438 8.574219 19.148438 19.152344zm0 0"/><path d="m92.871094 237.203125c0 10.574219-8.570313 19.148437-19.148438 19.148437-10.574218 0-19.148437-8.574218-19.148437-19.148437s8.574219-19.148437 19.148437-19.148437c10.578125 0 19.148438 8.574218 19.148438 19.148437zm0 0"/><path d="m92.871094 316.144531c0 10.578125-8.570313 19.148438-19.148438 19.148438-10.574218 0-19.148437-8.570313-19.148437-19.148438 0-10.574219 8.574219-19.148437 19.148437-19.148437 10.578125 0 19.148438 8.574218 19.148438 19.148437zm0 0"/></g><path d="m470.3125 393.933594c0 52.863281-37.015625 97.085937-86.539062 108.15625-7.8125 1.753906-15.941407 2.671875-24.292969 2.671875-61.214844 0-110.828125-49.625-110.828125-110.828125 0-61.214844 49.613281-110.828125 110.828125-110.828125 8.351562 0 16.480469.921875 24.292969 2.671875 49.523437 11.074218 86.539062 55.292968 86.539062 108.15625zm0 0" fill="#07a9f0"/><path d="m470.3125 393.933594c0 52.863281-37.015625 97.085937-86.539062 108.15625-49.523438-11.070313-86.546876-55.292969-86.546876-108.15625 0-52.875 37.023438-97.082032 86.546876-108.15625 49.523437 11.074218 86.539062 55.292968 86.539062 108.15625zm0 0" fill="#40c1fa"/><path d="m417.648438 378.394531h-36.949219c-3.6875 0-6.675781-2.988281-6.675781-6.675781v-37.351562c0-8.351563-6.832032-15.183594-15.183594-15.183594-8.347656 0-15.179688 6.832031-15.179688 15.183594v37.351562c0 3.6875-2.992187 6.675781-6.675781 6.675781h-36.953125c-7.746094 0-14.546875 5.640625-15.472656 13.332031-1.101563 9.167969 6.113281 17.03125 15.070312 17.03125h37.355469c3.683594 0 6.675781 2.988282 6.675781 6.675782v37.351562c0 8.351563 6.832032 15.183594 15.179688 15.183594 8.351562 0 15.183594-6.832031 15.183594-15.183594v-37.351562c0-3.6875 2.988281-6.675782 6.675781-6.675782h37.351562c8.960938 0 16.171875-7.863281 15.070313-17.03125-.921875-7.691406-7.726563-13.332031-15.472656-13.332031zm0 0" fill="#fff5f5"/><path d="m73.730469 52.554688c-14.742188 0-26.738281 11.996093-26.738281 26.738281 0 14.742187 11.996093 26.738281 26.738281 26.738281 14.742187 0 26.738281-11.996094 26.738281-26.738281 0-14.742188-11.996094-26.738281-26.738281-26.738281zm0 38.296874c-6.371094 0-11.558594-5.183593-11.558594-11.558593s5.1875-11.558594 11.558594-11.558594c6.371093 0 11.558593 5.183594 11.558593 11.558594s-5.1875 11.558593-11.558593 11.558593zm0 0"/><path d="m129.582031 86.882812h91.09375c4.191407 0 7.589844-3.398437 7.589844-7.589843 0-4.195313-3.398437-7.589844-7.589844-7.589844h-91.09375c-4.191406 0-7.589843 3.394531-7.589843 7.589844 0 4.191406 3.398437 7.589843 7.589843 7.589843zm0 0"/><path d="m268.046875 86.882812c4.195313 0 7.59375-3.398437 7.59375-7.589843 0-4.195313-3.398437-7.589844-7.59375-7.589844h-17.007813c-4.191406 0-7.589843 3.394531-7.589843 7.589844 0 4.191406 3.398437 7.589843 7.589843 7.589843zm0 0"/><path d="m73.730469 131.496094c-14.742188 0-26.738281 11.996094-26.738281 26.738281 0 14.746094 11.996093 26.742187 26.738281 26.742187 14.742187 0 26.738281-11.996093 26.738281-26.742187 0-14.742187-11.996094-26.738281-26.738281-26.738281zm0 38.296875c-6.371094 0-11.558594-5.183594-11.558594-11.558594 0-6.371094 5.1875-11.554687 11.558594-11.554687 6.371093 0 11.558593 5.183593 11.558593 11.554687 0 6.375-5.1875 11.558594-11.558593 11.558594zm0 0"/><path d="m129.582031 165.828125h138.464844c4.195313 0 7.59375-3.398437 7.59375-7.59375 0-4.191406-3.398437-7.589844-7.59375-7.589844h-138.464844c-4.191406 0-7.589843 3.398438-7.589843 7.589844 0 4.195313 3.398437 7.59375 7.589843 7.59375zm0 0"/><path d="m73.730469 210.4375c-14.742188 0-26.738281 11.996094-26.738281 26.742188 0 14.742187 11.996093 26.738281 26.738281 26.738281 14.742187 0 26.738281-11.996094 26.738281-26.738281 0-14.746094-11.996094-26.742188-26.738281-26.742188zm0 38.296875c-6.371094 0-11.558594-5.183594-11.558594-11.554687 0-6.375 5.1875-11.558594 11.558594-11.558594 6.371093 0 11.558593 5.183594 11.558593 11.558594 0 6.371093-5.1875 11.554687-11.558593 11.554687zm0 0"/><path d="m268.046875 229.585938h-91.089844c-4.195312 0-7.59375 3.398437-7.59375 7.59375 0 4.191406 3.398438 7.589843 7.59375 7.589843h91.089844c4.195313 0 7.59375-3.398437 7.59375-7.589843 0-4.195313-3.398437-7.59375-7.59375-7.59375zm0 0"/><path d="m129.582031 244.769531h17.007813c4.195312 0 7.59375-3.398437 7.59375-7.589843 0-4.195313-3.398438-7.59375-7.59375-7.59375h-17.007813c-4.191406 0-7.589843 3.398437-7.589843 7.59375 0 4.191406 3.398437 7.589843 7.589843 7.589843zm0 0"/><path d="m73.730469 289.382812c-14.742188 0-26.738281 11.996094-26.738281 26.738282 0 14.742187 11.996093 26.738281 26.738281 26.738281 14.742187 0 26.738281-11.996094 26.738281-26.738281 0-14.742188-11.996094-26.738282-26.738281-26.738282zm0 38.296876c-6.371094 0-11.558594-5.183594-11.558594-11.558594s5.1875-11.558594 11.558594-11.558594c6.371093 0 11.558593 5.183594 11.558593 11.558594s-5.1875 11.558594-11.558593 11.558594zm0 0"/><path d="m322.386719 280.910156v-252.0625c0-15.902344-12.933594-28.847656-28.847657-28.847656h-264.691406c-15.902344 0-28.847656 12.945312-28.847656 28.847656v337.71875c0 15.898438 12.945312 28.84375 28.847656 28.84375h59.53125c4.191406 0 7.59375-3.398437 7.59375-7.589844 0-4.191406-3.402344-7.589843-7.59375-7.589843h-59.53125c-7.53125 0-13.664062-6.132813-13.664062-13.664063v-337.71875c0-7.53125 6.132812-13.664062 13.664062-13.664062h264.691406c7.542969 0 13.664063 6.132812 13.664063 13.664062v258.175782c-12.503906 6.085937-23.78125 14.316406-33.359375 24.199218-1.394531-1.644531-3.472656-2.691406-5.796875-2.691406h-138.464844c-4.191406 0-7.589843 3.398438-7.589843 7.589844 0 4.195312 3.398437 7.59375 7.589843 7.59375h133.71875c-11.886719 16.207031-19.761719 35.535156-22.117187 56.515625h-122.4375c-4.203125 0-7.59375 3.402343-7.59375 7.589843 0 4.191407 3.390625 7.59375 7.59375 7.59375h121.699218c.980469 64.453126 53.710938 116.585938 118.398438 116.585938 65.292969 0 118.421875-53.125 118.421875-118.417969 0-80.171875-78.570313-137.484375-154.878906-112.671875zm36.457031 215.90625c-62 0-110.40625-54.636718-102.378906-116.585937 4.210937-32.480469 23.574218-60.273438 50.738281-76.023438 68.5625-39.8125 154.878906 10.101563 154.878906 89.371094 0 56.925781-46.316406 103.238281-103.238281 103.238281zm0 0"/><path d="m417.652344 370.804688h-36.039063v-36.4375c0-12.558594-10.214843-22.773438-22.769531-22.773438-12.558594 0-22.773438 10.214844-22.773438 22.773438v36.4375h-36.039062c-12.617188 0-23.171875 9.945312-23.171875 22.773437 0 12.554687 10.214844 22.773437 22.773437 22.773437h36.4375v36.433594c0 12.558594 10.214844 22.773438 22.773438 22.773438 12.554688 0 22.769531-10.214844 22.769531-22.773438v-36.433594h36.4375c12.558594 0 22.773438-10.21875 22.773438-22.773437 0-12.769531-10.5-22.773437-23.171875-22.773437zm.398437 30.363281h-37.351562c-7.867188 0-14.265625 6.398437-14.265625 14.265625v37.351562c0 4.1875-3.40625 7.59375-7.589844 7.59375-4.1875 0-7.59375-3.40625-7.59375-7.59375v-37.351562c0-7.863282-6.398438-14.265625-14.265625-14.265625h-37.351563c-4.1875 0-7.59375-3.40625-7.59375-7.589844 0-4.417969 3.851563-7.59375 7.992188-7.59375h36.953125c7.867187 0 14.265625-6.398437 14.265625-14.265625v-37.351562c0-4.1875 3.40625-7.589844 7.59375-7.589844 4.183594 0 7.589844 3.402344 7.589844 7.589844v37.351562c0 7.867188 6.398437 14.265625 14.265625 14.265625h36.953125c4 0 7.484375 2.921875 7.933594 6.648437.558593 4.644532-3.074219 8.535157-7.535157 8.535157zm0 0"/></svg>