<svg height="482pt" viewBox="-42 0 481 482" width="482pt" xmlns="http://www.w3.org/2000/svg"><path d="m239.800781 180-33.902343-92h-161.5c-24.296876 0-43.898438 20-43.898438 44.300781v305.398438c0 24.300781 19.601562 44.300781 43.898438 44.300781h219.203124c24.296876 0 43.898438-20 43.898438-44.300781v-242.597657zm0 0" fill="#00efd1"/><path d="m284.800781 136-33.902343-92h-161.5c-24.296876 0-43.898438 20-43.898438 44.300781v305.398438c0 24.300781 19.601562 44.300781 43.898438 44.300781h219.203124c24.296876 0 43.898438-20 43.898438-44.300781v-242.597657zm0 0" fill="#fedb41"/><path d="m328.800781 92-33.902343-92h-161.5c-24.296876 0-43.898438 20-43.898438 44.300781v305.398438c0 24.300781 19.601562 44.300781 43.898438 44.300781h219.203124c24.296876 0 43.898438-20 43.898438-44.300781v-242.597657zm0 0" fill="#00acea"/><path d="m294.898438.300781 101.703124 106.898438h-67.703124c-18.796876 0-34-15.199219-34-34zm0 0" fill="#00efd1"/><g fill="#083863"><path d="m325.300781 320h-164.601562c-5.5 0-10 4.5-10 10s4.5 10 10 10h164.699219c5.5 0 10-4.5 10-10s-4.5-10-10.097657-10zm0 0"/><path d="m283.898438 192h-31.398438v-30.898438c0-5.5-4.5-10-10-10s-10 4.5-10 10v30.898438h-30.398438c-5.5 0-10 4.5-10 10s4.5 10 10 10h30.398438v30.898438c0 5.5 4.5 10 10 10s10-4.5 10-10v-30.898438h31.398438c5.5 0 10-4.5 10-10s-4.5-10-10-10zm0 0"/><path d="m243 100.101562c-56.199219 0-101.898438 45.699219-101.898438 101.898438s45.699219 101.898438 101.898438 101.898438 101.898438-45.699219 101.898438-101.898438-45.699219-101.898438-101.898438-101.898438zm0 183.796876c-45.199219 0-81.898438-36.699219-81.898438-81.898438s36.699219-81.898438 81.898438-81.898438 81.898438 36.699219 81.898438 81.898438-36.699219 81.898438-81.898438 81.898438zm0 0"/></g></svg>