<svg id="Capa_1" enable-background="new 0 0 512 512" height="512" viewBox="0 0 512 512" width="512" xmlns="http://www.w3.org/2000/svg"><g><path d="m62.218 400.641c-5.689 5.207-14.7 4.158-18.995-2.248-27.299-40.712-43.223-89.693-43.223-142.393 0-141.385 114.615-256 255.999-256 141.011 0 257.02 116.894 255.994 257.902-.468 64.336-24.668 123.027-64.28 167.756-4.361 4.924-12.05 4.765-16.271-.28-46.96-56.134-117.532-91.837-196.442-91.837-66.592 0-127.245 25.426-172.782 67.1z" fill="#ffc143"/><path d="m474.459 221.872c0 114.021-92.432 206.452-206.453 206.452s-206.452-92.431-206.452-206.452 92.432-206.452 206.453-206.452 206.452 92.432 206.452 206.452z" fill="#ffcd6b"/><path d="m256 512c-88.829 0-167.091-45.242-213-113.941v-101.13c0-8.284 6.716-15 15-15h70c7.63 0 13.93 5.698 14.877 13.071h290.123c8.284 0 15 6.716 15 15v115.333c-46.908 53.146-115.539 86.667-192 86.667z" fill="#deecf1"/><path d="m278 462c-93.889 0-170-76.112-170-170v-208.676c0-8.284 6.716-15 15-15h310c8.284 0 15 6.716 15 15v208.676c0 93.888-76.111 170-170 170z" fill="#fff5f5"/><path d="m391.962 201.872h-175c-4.142 0-7.5-3.358-7.5-7.5 0-4.142 3.358-7.5 7.5-7.5h175c4.142 0 7.5 3.358 7.5 7.5 0 4.142-3.358 7.5-7.5 7.5zm-72.5 20c0-4.142-3.358-7.5-7.5-7.5h-95c-4.142 0-7.5 3.358-7.5 7.5 0 4.142 3.358 7.5 7.5 7.5h95c4.142 0 7.5-3.358 7.5-7.5zm80 42.5c0-4.142-3.358-7.5-7.5-7.5h-175c-4.142 0-7.5 3.358-7.5 7.5 0 4.142 3.358 7.5 7.5 7.5h175c4.142 0 7.5-3.358 7.5-7.5zm-80 27.5c0-4.142-3.358-7.5-7.5-7.5h-95c-4.142 0-7.5 3.358-7.5 7.5 0 4.142 3.358 7.5 7.5 7.5h95c4.142 0 7.5-3.358 7.5-7.5zm80 42.5c0-4.142-3.358-7.5-7.5-7.5h-175c-4.142 0-7.5 3.358-7.5 7.5 0 4.142 3.358 7.5 7.5 7.5h175c4.142 0 7.5-3.358 7.5-7.5zm-80 27.5c0-4.142-3.358-7.5-7.5-7.5h-95c-4.142 0-7.5 3.358-7.5 7.5 0 4.142 3.358 7.5 7.5 7.5h95c4.142 0 7.5-3.358 7.5-7.5zm80 42.5c0-4.142-3.358-7.5-7.5-7.5h-175c-4.142 0-7.5 3.358-7.5 7.5 0 4.142 3.358 7.5 7.5 7.5h175c4.142 0 7.5-3.358 7.5-7.5zm-80 27.5c0-4.142-3.358-7.5-7.5-7.5h-95c-4.142 0-7.5 3.358-7.5 7.5 0 4.142 3.358 7.5 7.5 7.5h95c4.142 0 7.5-3.358 7.5-7.5z" fill="#a8d3d8"/><path d="m448 90h-340v-35c0-8.284 6.716-15 15-15h310c8.284 0 15 6.716 15 15z" fill="#a8d3d8"/><path d="m370.915 65c0 5.523-4.477 10-10 10-5.523 0-10-4.477-10-10s4.477-10 10-10c5.523 0 10 4.477 10 10zm20-10c-5.523 0-10 4.477-10 10s4.477 10 10 10c5.523 0 10-4.477 10-10s-4.477-10-10-10zm30 0c-5.523 0-10 4.477-10 10s4.477 10 10 10c5.523 0 10-4.477 10-10s-4.477-10-10-10z" fill="#8ebac5"/><path d="m182 275c0 4.855-1.384 9.387-3.779 13.222-.216.346-.51.64-.856.856-3.835 2.395-8.367 3.779-13.222 3.779-13.744 0-25-11.256-25-25 0-4.807 1.357-9.296 3.708-13.107.262-.424.618-.781 1.042-1.042 3.811-2.351 8.3-3.708 13.107-3.708 13.744 0 25 11.256 25 25zm0 140c0 4.855-1.384 9.387-3.779 13.222-.216.346-.51.64-.856.856-3.835 2.395-8.367 3.779-13.222 3.779-13.744 0-25-11.256-25-25 0-4.807 1.357-9.296 3.708-13.107.262-.424.618-.781 1.042-1.042 3.811-2.351 8.3-3.708 13.107-3.708 13.744 0 25 11.256 25 25z" fill="#00d1fc"/><path d="m178.349 288.015c-4.391 7.188-12.31 11.985-21.349 11.985-13.807 0-25-11.193-25-25 0-9.039 4.797-16.958 11.985-21.349-2.316 3.791-3.651 8.247-3.651 13.015 0 13.807 11.193 25 25 25 4.767.001 9.224-1.334 13.015-3.651zm0 140c-4.391 7.188-12.31 11.985-21.349 11.985-13.807 0-25-11.193-25-25 0-9.039 4.797-16.958 11.985-21.349-2.316 3.791-3.651 8.247-3.651 13.015 0 13.807 11.193 25 25 25 4.767.001 9.224-1.334 13.015-3.651z" fill="#00c1fb"/><path d="m182 205c0 4.855-1.384 9.387-3.779 13.222-.216.346-.51.64-.856.856-3.835 2.395-8.367 3.779-13.222 3.779-13.744 0-25-11.256-25-25 0-4.807 1.357-9.296 3.708-13.107.262-.424.618-.781 1.042-1.042 3.811-2.351 8.3-3.708 13.107-3.708 13.744 0 25 11.256 25 25z" fill="#0077f0"/><path d="m178.349 218.015c-4.391 7.188-12.31 11.985-21.349 11.985-13.807 0-25-11.193-25-25 0-9.039 4.797-16.958 11.985-21.349-2.316 3.791-3.651 8.247-3.651 13.015 0 13.807 11.193 25 25 25 4.767.001 9.224-1.334 13.015-3.651z" fill="#0055ca"/><path d="m221 79c0 15.342-4.373 29.662-11.941 41.782-.683 1.094-1.611 2.022-2.705 2.705-12.12 7.568-26.44 11.941-41.781 11.941-43.431 0-79.001-35.569-79.001-79 0-15.189 4.287-29.376 11.716-41.419.827-1.34 1.953-2.467 3.293-3.293 12.043-7.429 26.23-11.716 41.419-11.716 43.43 0 79 35.569 79 79z" fill="#0055ca"/><path d="m209.462 120.129c-13.876 22.712-38.899 37.871-67.462 37.871-43.63 0-79-35.369-79-79 0-28.563 15.159-53.586 37.871-67.462-7.319 11.98-11.537 26.062-11.537 41.129 0 43.63 35.369 79 79 79 15.066-.001 29.148-4.219 41.128-11.538z" fill="#00429c"/><path d="m120.153 49.936v-7.484c0-12.4 10.052-22.452 22.452-22.452s22.452 10.052 22.452 22.452v7.484c0 12.4-10.052 22.452-22.452 22.452s-22.452-10.052-22.452-22.452zm37.884 32.483h-30.865c-12.4 0-22.452 10.052-22.452 22.452v18.71c0 2.067 1.675 3.742 3.742 3.742h68.285c2.067 0 3.742-1.675 3.742-3.742v-18.71c0-12.4-10.052-22.452-22.452-22.452z" fill="#fff5f5"/><path d="m182 345c0 4.855-1.384 9.387-3.779 13.222-.216.346-.51.64-.856.856-3.835 2.395-8.367 3.779-13.222 3.779-13.744 0-25-11.256-25-25 0-4.807 1.357-9.296 3.708-13.107.262-.424.618-.781 1.042-1.042 3.811-2.351 8.3-3.708 13.107-3.708 13.744 0 25 11.256 25 25z" fill="#ff5757"/><path d="m178.349 358.015c-4.391 7.188-12.31 11.985-21.349 11.985-13.807 0-25-11.193-25-25 0-9.039 4.797-16.958 11.985-21.349-2.316 3.791-3.651 8.247-3.651 13.015 0 13.807 11.193 25 25 25 4.767.001 9.224-1.334 13.015-3.651z" fill="#ff4343"/><path d="m292 117c0 11.069-3.155 21.402-8.616 30.147-.493.789-1.162 1.459-1.952 1.952-8.745 5.46-19.077 8.616-30.146 8.616-31.336 0-57.001-25.664-57.001-57 0-10.959 3.093-21.196 8.453-29.885.597-.967 1.409-1.78 2.376-2.376 8.69-5.361 18.927-8.454 29.886-8.454 31.336 0 57 25.664 57 57z" fill="#ff5757"/><path d="m283.676 146.675c-10.012 16.387-28.067 27.325-48.676 27.325-31.48 0-57-25.52-57-57 0-20.609 10.938-38.664 27.325-48.675-5.281 8.643-8.325 18.804-8.325 29.675 0 31.48 25.52 57 57 57 10.871 0 21.032-3.044 29.676-8.325z" fill="#ff4343"/><path d="m268.007 117c0 4.142-3.357 7.5-7.5 7.5h-18.007v18.006c0 4.142-3.357 7.5-7.5 7.5s-7.5-3.358-7.5-7.5v-18.006h-18.007c-4.143 0-7.5-3.358-7.5-7.5s3.357-7.5 7.5-7.5h18.007v-18.007c0-4.142 3.357-7.5 7.5-7.5s7.5 3.358 7.5 7.5v18.007h18.007c4.143 0 7.5 3.358 7.5 7.5z" fill="#fff"/></g></svg>