<svg xmlns="http://www.w3.org/2000/svg" height="512pt" version="1.1" viewBox="-8 0 512 512" width="512pt">
<g id="surface1">
<path d="M 424.371094 159.15625 L 272.078125 159.15625 L 272.078125 6.863281 Z M 424.371094 159.15625 " style=" stroke:none;fill-rule:nonzero;fill:rgb(85.098039%,93.333333%,96.862745%);fill-opacity:1;" />
<path d="M 424.371094 159.15625 L 424.371094 277.222656 C 407.617188 268.402344 388.539062 263.355469 368.261719 263.355469 C 301.894531 263.355469 248.03125 317.21875 248.03125 383.585938 C 248.03125 449.953125 301.894531 503.816406 368.261719 503.816406 L 7.570312 503.816406 L 7.570312 6.863281 L 272.078125 6.863281 L 272.078125 159.152344 L 424.371094 159.152344 Z M 424.371094 159.15625 " style=" stroke:none;fill-rule:nonzero;fill:rgb(34.509804%,80.392157%,96.862745%);fill-opacity:1;" />
<path d="M 7.570312 6.863281 L 79.707031 6.863281 L 79.707031 503.816406 L 7.570312 503.816406 Z M 7.570312 6.863281 " style=" stroke:none;fill-rule:nonzero;fill:rgb(12.156863%,57.647059%,77.254902%);fill-opacity:1;" />
<path d="M 47.648438 175.183594 L 191.925781 175.183594 L 191.925781 319.460938 L 47.648438 319.460938 Z M 47.648438 175.183594 " style=" stroke:none;fill-rule:nonzero;fill:rgb(85.098039%,93.333333%,96.862745%);fill-opacity:1;" />
<path d="M 127.800781 46.9375 L 175.894531 46.9375 L 175.894531 95.03125 L 127.800781 95.03125 Z M 127.800781 46.9375 " style=" stroke:none;fill-rule:nonzero;fill:rgb(85.098039%,93.333333%,96.862745%);fill-opacity:1;" />
<path d="M 47.648438 46.9375 L 95.738281 46.9375 L 95.738281 95.03125 L 47.648438 95.03125 Z M 47.648438 46.9375 " style=" stroke:none;fill-rule:nonzero;fill:rgb(85.098039%,93.333333%,96.862745%);fill-opacity:1;" />
<path d="M 47.648438 175.183594 L 111.769531 175.183594 L 111.769531 319.460938 L 47.648438 319.460938 Z M 47.648438 175.183594 " style=" stroke:none;fill-rule:nonzero;fill:rgb(66.666667%,76.862745%,85.490196%);fill-opacity:1;" />
<path d="M 47.648438 46.9375 L 71.691406 46.9375 L 71.691406 95.03125 L 47.648438 95.03125 Z M 47.648438 46.9375 " style=" stroke:none;fill-rule:nonzero;fill:rgb(66.666667%,76.862745%,85.490196%);fill-opacity:1;" />
<path d="M 127.800781 46.9375 L 151.847656 46.9375 L 151.847656 95.03125 L 127.800781 95.03125 Z M 127.800781 46.9375 " style=" stroke:none;fill-rule:nonzero;fill:rgb(66.666667%,76.862745%,85.490196%);fill-opacity:1;" />
<path d="M 424.371094 277.222656 C 462.523438 297.421875 488.492188 337.496094 488.492188 383.585938 C 488.492188 449.953125 434.628906 503.816406 368.261719 503.816406 C 301.894531 503.816406 248.03125 449.953125 248.03125 383.585938 C 248.03125 317.21875 301.894531 263.355469 368.261719 263.355469 C 388.539062 263.355469 407.617188 268.402344 424.371094 277.222656 Z M 424.371094 277.222656 " style=" stroke:none;fill-rule:nonzero;fill:rgb(100%,89.411765%,31.764706%);fill-opacity:1;" />
<path d="M 15.046875 15.046875 L 135.769531 15.046875 L 135.769531 0 L 0 0 L 0 512 L 119.738281 512 L 119.738281 496.953125 L 15.046875 496.953125 Z M 15.046875 15.046875 " style=" stroke:none;fill-rule:nonzero;fill:rgb(13.72549%,12.156863%,12.54902%);fill-opacity:1;" />
<path d="M 40.078125 40.078125 L 40.078125 103.214844 L 103.214844 103.214844 L 103.214844 40.078125 Z M 88.167969 88.167969 L 55.125 88.167969 L 55.125 55.125 L 88.167969 55.125 Z M 88.167969 88.167969 " style=" stroke:none;fill-rule:nonzero;fill:rgb(13.72549%,12.156863%,12.54902%);fill-opacity:1;" />
<path d="M 120.230469 103.214844 L 183.367188 103.214844 L 183.367188 40.078125 L 120.230469 40.078125 Z M 135.277344 55.125 L 168.324219 55.125 L 168.324219 88.167969 L 135.277344 88.167969 Z M 135.277344 55.125 " style=" stroke:none;fill-rule:nonzero;fill:rgb(13.72549%,12.156863%,12.54902%);fill-opacity:1;" />
<path d="M 39.585938 120.230469 L 183.859375 120.230469 L 183.859375 135.277344 L 39.585938 135.277344 Z M 39.585938 120.230469 " style=" stroke:none;fill-rule:nonzero;fill:rgb(100%,100%,100%);fill-opacity:1;" />
<path d="M 431.847656 273.445312 L 431.847656 156.699219 L 275.148438 0 L 159.816406 0 L 159.816406 15.046875 L 264.507812 15.046875 L 264.507812 167.339844 L 328.140625 167.339844 L 328.140625 152.292969 L 279.554688 152.292969 L 279.554688 25.683594 L 406.160156 152.292969 L 352.183594 152.292969 L 352.183594 167.335938 L 416.800781 167.335938 L 416.800781 266.089844 C 401.421875 259.789062 384.84375 256.492188 368.214844 256.492188 C 297.769531 256.492188 240.460938 313.800781 240.460938 384.246094 C 240.460938 432.976562 267.890625 475.417969 308.117188 496.953125 L 143.785156 496.953125 L 143.785156 512 L 368.214844 512 C 438.65625 512 495.96875 454.6875 495.96875 384.246094 C 495.96875 338.308594 471.515625 296.269531 431.847656 273.445312 Z M 368.214844 496.953125 C 306.066406 496.953125 255.507812 446.394531 255.507812 384.246094 C 255.507812 322.097656 306.066406 271.539062 368.214844 271.539062 C 386.726562 271.539062 404.421875 275.910156 420.8125 284.535156 C 457.890625 304.167969 480.921875 342.375 480.921875 384.246094 C 480.921875 446.390625 430.363281 496.953125 368.214844 496.953125 Z M 368.214844 496.953125 " style=" stroke:none;fill-rule:nonzero;fill:rgb(13.72549%,12.156863%,12.54902%);fill-opacity:1;" />
<path d="M 375.738281 320.121094 L 360.691406 320.121094 L 360.691406 376.722656 L 304.09375 376.722656 L 304.09375 391.769531 L 360.691406 391.769531 L 360.691406 448.367188 L 375.738281 448.367188 L 375.738281 391.769531 L 432.339844 391.769531 L 432.339844 376.722656 L 375.738281 376.722656 Z M 375.738281 320.121094 " style=" stroke:none;fill-rule:nonzero;fill:rgb(13.72549%,12.156863%,12.54902%);fill-opacity:1;" />
<path d="M 40.078125 327.644531 L 199.398438 327.644531 L 199.398438 168.324219 L 40.078125 168.324219 Z M 55.125 183.367188 L 184.351562 183.367188 L 184.351562 312.601562 L 55.125 312.601562 Z M 55.125 183.367188 " style=" stroke:none;fill-rule:nonzero;fill:rgb(13.72549%,12.156863%,12.54902%);fill-opacity:1;" />
<path d="M 39.585938 352.675781 L 207.90625 352.675781 L 207.90625 367.722656 L 39.585938 367.722656 Z M 39.585938 352.675781 " style=" stroke:none;fill-rule:nonzero;fill:rgb(100%,100%,100%);fill-opacity:1;" />
<path d="M 39.585938 384.738281 L 207.90625 384.738281 L 207.90625 399.785156 L 39.585938 399.785156 Z M 39.585938 384.738281 " style=" stroke:none;fill-rule:nonzero;fill:rgb(13.72549%,12.156863%,12.54902%);fill-opacity:1;" />
<path d="M 39.585938 416.800781 L 207.90625 416.800781 L 207.90625 431.847656 L 39.585938 431.847656 Z M 39.585938 416.800781 " style=" stroke:none;fill-rule:nonzero;fill:rgb(100%,100%,100%);fill-opacity:1;" />
<path d="M 39.585938 448.859375 L 207.90625 448.859375 L 207.90625 463.90625 L 39.585938 463.90625 Z M 39.585938 448.859375 " style=" stroke:none;fill-rule:nonzero;fill:rgb(13.72549%,12.156863%,12.54902%);fill-opacity:1;" />
<path d="M 127.261719 223.9375 L 112.214844 223.9375 L 112.214844 240.460938 L 95.691406 240.460938 L 95.691406 255.507812 L 112.214844 255.507812 L 112.214844 272.03125 L 127.261719 272.03125 L 127.261719 255.507812 L 143.785156 255.507812 L 143.785156 240.460938 L 127.261719 240.460938 Z M 127.261719 223.9375 " style=" stroke:none;fill-rule:nonzero;fill:rgb(100%,100%,100%);fill-opacity:1;" />
<path d="M 215.921875 168.324219 L 231.953125 168.324219 L 231.953125 183.367188 L 215.921875 183.367188 Z M 215.921875 168.324219 " style=" stroke:none;fill-rule:nonzero;fill:rgb(13.72549%,12.156863%,12.54902%);fill-opacity:1;" />
<path d="M 215.921875 200.382812 L 392.261719 200.382812 L 392.261719 215.429688 L 215.921875 215.429688 Z M 215.921875 200.382812 " style=" stroke:none;fill-rule:nonzero;fill:rgb(100%,100%,100%);fill-opacity:1;" />
<path d="M 215.921875 232.445312 L 312.105469 232.445312 L 312.105469 247.492188 L 215.921875 247.492188 Z M 215.921875 232.445312 " style=" stroke:none;fill-rule:nonzero;fill:rgb(13.72549%,12.156863%,12.54902%);fill-opacity:1;" />
<path d="M 215.921875 264.507812 L 231.953125 264.507812 L 231.953125 279.554688 L 215.921875 279.554688 Z M 215.921875 264.507812 " style=" stroke:none;fill-rule:nonzero;fill:rgb(100%,100%,100%);fill-opacity:1;" />
</g>
</svg>