<svg id="Capa_1" enable-background="new 0 0 512 512" height="512" viewBox="0 0 512 512" width="512" xmlns="http://www.w3.org/2000/svg"><g><g><path d="m449.158 191.329c-6.219-17.427-19.838-31.33-37.079-37.93-2.845-1.089-4.638-3.867-4.635-6.913 0-.018 0-.036 0-.055 0-40.273-32.648-72.921-72.921-72.921-14.162 0-27.376 4.043-38.562 11.031-3.127 1.953-7.183 1.289-9.542-1.545-13.375-16.063-33.515-26.293-56.051-26.293-37.83 0-68.922 28.81-72.555 65.685-.362 3.674-3.349 6.494-7.038 6.642-21.018.843-41.16 12.105-52.455 31.669-4.63 8.019-7.301 16.628-8.175 25.279-.38 3.757-3.665 6.613-7.439 6.483-.785-.027-1.573-.041-2.364-.041-40.595 0-73.443 33.172-72.914 73.889.52 40.073 33.925 71.952 74.001 71.952h348.99c40.299 0 73.913-32.163 74.161-72.461.202-32.746-21.185-60.519-50.761-69.942-2.18-.696-3.892-2.375-4.661-4.529z" fill="#efe7e4"/></g><g><g><path d="m453.818 195.856c-2.179-.694-3.891-2.373-4.66-4.527-6.219-17.427-19.838-31.33-37.079-37.93-2.845-1.089-4.638-3.867-4.635-6.914 0-.018 0-.036 0-.055 0-40.273-32.648-72.92-72.92-72.92-9.49 0-18.551 1.823-26.865 5.124 26.982 10.695 46.073 37.007 46.073 67.796v.055c-.003 3.047 1.79 5.824 4.635 6.914 17.242 6.601 30.861 20.503 37.079 37.93.769 2.154 2.481 3.833 4.66 4.527 29.575 9.423 50.962 37.197 50.761 69.942-.249 40.298-33.863 72.461-74.161 72.461h53.713c40.298 0 73.913-32.163 74.161-72.461.201-32.745-21.186-60.519-50.762-69.942z" fill="#eadfda"/></g></g><g><path d="m320.311 205.885h-14.638l-56.988 4.946-54.464-4.946h-40.765c-12.216 0-22.119 9.903-22.119 22.119v205.174c0 12.216 9.903 22.119 22.119 22.119h205.174c12.216 0 22.119-9.903 22.119-22.119v-166.855c0-5.866-2.33-11.493-6.479-15.641l-38.319-38.319c-4.148-4.148-9.774-6.478-15.64-6.478z" fill="#698ed5"/></g><g><path d="m374.271 250.682-24.823-24.822v176.017c0 12.216-9.903 22.119-22.119 22.119h-195.992v9.182c0 12.216 9.903 22.119 22.119 22.119h205.174c12.216 0 22.119-9.903 22.119-22.119v-166.855c0-5.866-2.33-11.493-6.478-15.641z" fill="#4073c8"/></g><g><path d="m205.281 288.94h89.333c6.108 0 11.06-4.951 11.06-11.06v-71.996h-111.453v71.996c0 6.109 4.952 11.06 11.06 11.06z" fill="#f6f1f1"/></g><g><path d="m294.06 205.885v60.383c0 6.108-4.952 11.06-11.06 11.06h-88.78v.553c0 6.108 4.952 11.06 11.06 11.06h89.333c6.108 0 11.06-4.952 11.06-11.06v-71.996z" fill="#efe7e4"/></g><g><path d="m331.976 441.958h-151.952c-5.522 0-9.998-4.476-9.998-9.998v-76.2c0-5.522 4.476-9.998 9.998-9.998h151.952c5.522 0 9.998 4.476 9.998 9.998v76.199c0 5.522-4.476 9.999-9.998 9.999z" fill="#f6f1f1"/></g><g><path d="m327.329 423.996h-157.303v8.071c0 5.462 4.428 9.891 9.891 9.891h152.167c5.463 0 9.891-4.428 9.891-9.891v-13.621c-3.902 3.451-9.028 5.55-14.646 5.55z" fill="#efe7e4"/></g><g><path d="m80.34 199.838c.706 0 1.409.013 2.108.037 7.681.273 14.305-5.512 15.077-13.152.797-7.891 3.226-15.399 7.219-22.314 9.662-16.736 26.98-27.19 46.326-27.965 7.333-.294 13.405-6.024 14.125-13.328 3.313-33.631 31.331-58.992 65.171-58.992 19.499 0 37.851 8.609 50.35 23.621 4.704 5.651 12.947 6.98 19.175 3.091 10.373-6.48 22.348-9.905 34.631-9.905 17.972 0 34.734 7.134 47.2 20.086 2.842 2.953 7.539 3.043 10.491.201 2.952-2.841 3.043-7.538.201-10.491-15.289-15.887-35.849-24.636-57.892-24.636-15.041 0-29.712 4.191-42.434 12.122-15.326-18.385-37.82-28.928-61.723-28.928-20.068 0-39.281 7.44-54.1 20.951-14.717 13.417-23.893 31.681-25.79 51.381-24.461.981-46.362 14.204-58.583 35.372-5.018 8.69-8.083 18.127-9.112 28.05-.811-.026-1.624-.04-2.442-.04-21.656 0-41.963 8.489-57.178 23.903-15.21 15.411-23.434 35.832-23.153 57.502.248 19.052 7.408 37.446 20.162 51.793 1.466 1.649 3.503 2.49 5.548 2.49 1.753 0 3.513-.618 4.927-1.874 3.063-2.723 3.338-7.412.615-10.475-10.384-11.681-16.213-26.641-16.414-42.126-.229-17.67 6.475-34.321 18.878-46.885 12.405-12.568 28.961-19.489 46.617-19.489z"/><path d="m456.146 188.835c-6.947-19.466-21.986-34.881-41.273-42.311-.004-.042-.01-.093-.01-.093 0-7.328-.988-14.591-2.936-21.589-1.098-3.947-5.191-6.257-9.137-5.158-3.948 1.099-6.257 5.19-5.158 9.137 1.587 5.702 2.392 11.627 2.392 17.657-.006 6.129 3.773 11.695 9.402 13.85 15.303 5.858 27.238 18.067 32.744 33.494 1.539 4.316 5.052 7.72 9.395 9.104 27.449 8.746 45.771 33.994 45.594 62.827-.221 35.889-30.161 65.087-66.742 65.087h-42.249v-64.517c0-7.891-3.073-15.308-8.652-20.887l-38.319-38.319c-5.58-5.579-12.998-8.651-20.887-8.651h-166.854c-16.288 0-29.539 13.251-29.539 29.539v102.835h-42.49c-7.823 0-15.5-1.341-22.82-3.985-3.853-1.393-8.106.603-9.499 4.457s.603 8.107 4.457 9.499c8.941 3.23 18.315 4.868 27.862 4.868h42.49v87.498c0 16.288 13.251 29.539 29.539 29.539h205.174c16.288 0 29.539-13.251 29.539-29.539v-25.017c0-4.098-3.322-7.42-7.42-7.42s-7.42 3.322-7.42 7.42v25.018c0 8.105-6.594 14.7-14.7 14.7h-19.529c6.056-2.699 10.294-8.764 10.294-15.811v-76.414c0-9.545-7.765-17.31-17.31-17.31h-152.167c-9.545 0-17.31 7.765-17.31 17.31v76.414c0 7.046 4.238 13.112 10.294 15.811h-19.444c-8.105 0-14.7-6.595-14.7-14.7v-205.174c0-8.105 6.595-14.7 14.7-14.7h33.346v64.576c0 10.189 8.29 18.479 18.479 18.479h89.333c10.189 0 18.479-8.29 18.479-18.479v-64.576h7.218c3.926 0 7.618 1.529 10.395 4.305l38.319 38.319c2.777 2.777 4.305 6.468 4.305 10.395v105.312c0 4.098 3.322 7.42 7.42 7.42s7.42-3.322 7.42-7.42v-25.956h42.249c44.713 0 81.31-35.814 81.581-79.835.215-35.363-22.261-66.33-55.855-77.009zm-278.701 166.818c0-1.363 1.109-2.471 2.471-2.471h152.167c1.363 0 2.471 1.109 2.471 2.471v76.414c0 1.363-1.109 2.471-2.471 2.471h-152.166c-1.363 0-2.471-1.109-2.471-2.471v-76.414zm120.809-77.773c0 2.007-1.633 3.64-3.64 3.64h-89.333c-2.007 0-3.64-1.633-3.64-3.64v-64.576h96.613z"/><path d="m206.264 383.505h99.558c4.098 0 7.42-3.322 7.42-7.42s-3.322-7.42-7.42-7.42h-99.558c-4.098 0-7.42 3.322-7.42 7.42.001 4.098 3.323 7.42 7.42 7.42z"/><path d="m206.264 416.374h99.558c4.098 0 7.42-3.322 7.42-7.42s-3.322-7.42-7.42-7.42h-99.558c-4.098 0-7.42 3.322-7.42 7.42.001 4.098 3.323 7.42 7.42 7.42z"/><path d="m256.538 265.603h18.24c2.185 0 3.957-1.772 3.957-3.957v-31.829c0-2.185-1.772-3.957-3.957-3.957h-18.24c-2.185 0-3.957 1.772-3.957 3.957v31.829c0 2.185 1.771 3.957 3.957 3.957z"/></g></g></svg>