<svg id="Icons" height="512" viewBox="0 0 60 60" width="512" xmlns="http://www.w3.org/2000/svg"><path d="m41 8v21.3l-10.66 20.89a51.578 51.578 0 0 1 -9.34.81c-11.05 0-20-3.13-20-7v-36z" fill="#35718a"/><ellipse cx="21" cy="8" fill="#4184a9" rx="20" ry="7"/><path d="m30.15 38.23a52.517 52.517 0 0 1 -9.15.77c-11.05 0-20-3.13-20-7v-12c0 3.866 8.954 7 20 7s20-3.134 20-7v10z" fill="#4184a9"/><path d="m59 27.828v29.172a2.006 2.006 0 0 1 -2 2h-35a2.006 2.006 0 0 1 -2-2v-35a2.006 2.006 0 0 1 2-2h29.172a2 2 0 0 1 1.414.586l5.828 5.828a2 2 0 0 1 .586 1.414z" fill="#5498c8"/><path d="m24 20v10a3 3 0 0 0 3 3h5l-3-13z" fill="#4184a9"/><rect fill="#bfdbf0" height="18" rx="2" width="31" x="24" y="37"/><path d="m50 20v10a3 3 0 0 1 -3 3h-15a3 3 0 0 1 -3-3v-10z" fill="#bfdbf0"/><rect fill="#4184a9" height="5" rx="1" width="4" x="42" y="24"/><path d="m6 19.631a1 1 0 0 1 -.369-.071q-.55-.219-1.054-.453a1 1 0 0 1 .846-1.813q.45.211.946.407a1 1 0 0 1 -.369 1.93z" fill="#fde05e"/><path d="m11 21.063a.967.967 0 0 1 -.2-.02q-.524-.105-1.026-.221a1 1 0 1 1 .448-1.949c.319.073.643.143.974.21a1 1 0 0 1 -.2 1.98z" fill="#86fdaa"/><g fill="#9ebbce"><path d="m50 42h-21a1 1 0 0 1 0-2h21a1 1 0 0 1 0 2z"/><path d="m50 47h-21a1 1 0 0 1 0-2h21a1 1 0 0 1 0 2z"/><path d="m50 52h-21a1 1 0 0 1 0-2h21a1 1 0 0 1 0 2z"/></g></svg>