<svg id="Layer_1" enable-background="new 0 0 68 68" height="512" viewBox="0 0 68 68" width="512" xmlns="http://www.w3.org/2000/svg"><g><g><path d="m65.9987793 11.3169479v41.5070038c0 2.6670074-2.1620483 4.8289948-4.8280029 4.8289948h-46.0280152c-2.6669922 0-4.8300171-2.1619873-4.8300171-4.8289948v-46.0269928c0-2.6670074 2.1630249-4.82901 4.8300171-4.82901h41.3770142c1.2559814 0 2.4629517.4900055 3.3649902 1.3660126l4.651001 4.519989c.9359741.9090118 1.4630127 2.1580048 1.4630127 3.4629974" fill="#43a2ff"/></g><g><path d="m56.5720215 1.9678421v14.5510101c0 2.6829987-2.1750488 4.8580017-4.8580322 4.8580017h-27.0369873c-2.6820068 0-4.8580322-2.1750031-4.8580322-4.8580017v-14.5510101z" fill="#e5f4f7"/></g><g><path d="m56.1754761 35.2685471v22.3850098h-35.9590454v-22.3850098c0-1.8959961 1.5369873-3.4329987 3.4330444-3.4329987h29.0929565c1.8959961 0 3.4330445 1.5370026 3.4330445 3.4329987" fill="#0093f7"/></g><g><path d="m47.1853027 42.1098404v15.5430145h-17.9790039v-15.5430145c0-.947998.7679443-1.7159882 1.7160034-1.7159882h14.5469971c.9479981 0 1.7160034.7679901 1.7160034 1.7159882" fill="#e5f4f7"/></g><g><path d="m50.1080933 1.9712448v9.7890015c0 1.2060089-.9780273 2.1699982-2.1710205 2.1699982s-2.1710205-.9639893-2.1710205-2.1699982v-9.7890015z" fill="#2c3033"/></g><g><path d="m26.4412231 53.8081436c0 6.7480011-5.4690552 12.2240143-12.217041 12.2240143-6.7550049 0-12.2229614-5.4760132-12.2229614-12.2240143 0-6.7489929 5.4679565-12.2169952 12.2229614-12.2169952 6.7479859 0 12.217041 5.4680023 12.217041 12.2169952" fill="#fb545c"/></g><g><path d="m12.40802 60.0425339c-.3760376 0-.7510376-.1439972-1.0370483-.4299927l-3.4639893-3.4640045c-.572998-.571991-.572998-1.5009918-.0009766-2.0739899.572998-.572998 1.5020142-.572998 2.0750122 0l2.427002 2.4259949 6.6139526-6.6139984c.572998-.572998 1.5020142-.572998 2.0740356 0 .5739746.572998.5739746 1.5009918 0 2.0740051l-7.651001 7.6519928c-.2860106.2859955-.6619872.4299927-1.0369872.4299927" fill="#fff"/></g></g></svg>