<svg id="Layer_1" height="512" viewBox="0 0 512 512" width="512" xmlns="http://www.w3.org/2000/svg" data-name="Layer 1"><path d="m386.359 24.919v98.881a34.243 34.243 0 0 1 -34.209 34.2h-192.3a34.243 34.243 0 0 1 -34.209-34.2v-99.8h-77.221a11.988 11.988 0 0 0 -11.83 11.83v440.34a11.988 11.988 0 0 0 11.83 11.83h27.86v-188.29a53.771 53.771 0 0 1 53.71-53.71h252.02a53.771 53.771 0 0 1 53.71 53.71v188.29h27.86a11.988 11.988 0 0 0 11.83-11.83v-369.65zm14.841 181.791a10.525 10.525 0 1 1 10.52-10.53 10.537 10.537 0 0 1 -10.52 10.53z" fill="#fab03a"/><path d="m494.863 91.793-96.163-88.115a14 14 0 0 0 -9.461-3.678h-340.815a35.87 35.87 0 0 0 -35.824 35.829v440.342a35.87 35.87 0 0 0 35.824 35.829h415.151a35.87 35.87 0 0 0 35.83-35.829v-374.055a14 14 0 0 0 -4.542-10.323zm-345.221-63.793h212.715v95.8a10.216 10.216 0 0 1 -10.2 10.2h-192.31a10.216 10.216 0 0 1 -10.205-10.2zm262.076 456h-311.436v-184.288a29.746 29.746 0 0 1 29.712-29.712h252.012a29.746 29.746 0 0 1 29.712 29.712zm59.687-7.829a7.934 7.934 0 0 1 -7.83 7.829h-23.857v-184.288a57.778 57.778 0 0 0 -57.712-57.712h-252.012a57.778 57.778 0 0 0 -57.712 57.712v184.288h-23.858a7.934 7.934 0 0 1 -7.829-7.829v-440.342a7.934 7.934 0 0 1 7.829-7.829h73.218v95.8a38.247 38.247 0 0 0 38.205 38.2h192.306a38.247 38.247 0 0 0 38.2-38.2v-89.787l81.048 74.263zm-83.895-162.878a14 14 0 0 1 -14 14h-235.02a14 14 0 0 1 0-28h235.02a14 14 0 0 1 14 14zm0 63.707a14 14 0 0 1 -14 14h-235.02a14 14 0 0 1 0-28h235.02a14 14 0 0 1 14 14zm0 63.707a14 14 0 0 1 -14 14h-235.02a14 14 0 0 1 0-28h235.02a14 14 0 0 1 14 14zm-217.532-340.547v-38.32a14 14 0 0 1 28 0v38.32a14 14 0 1 1 -28 0zm192.7 96.024a38.523 38.523 0 1 0 38.522-38.522 38.567 38.567 0 0 0 -38.527 38.522zm49.045 0a10.523 10.523 0 1 1 -10.523-10.522 10.535 10.535 0 0 1 10.518 10.522z" fill="#515151"/></svg>