<svg id="Capa_1" enable-background="new 0 0 512.013 512.013" height="512" viewBox="0 0 512.013 512.013" width="512" xmlns="http://www.w3.org/2000/svg"><g><path d="m399.715 19.124h-324.208c-24.992 0-45.253 20.26-45.253 45.253v327.277c0 24.992 20.26 45.253 45.253 45.253h360.999c24.992 0 45.253-20.26 45.253-45.253v-290.486c0-13.596-5.401-26.634-15.014-36.248l-30.781-30.782c-9.615-9.614-22.654-15.014-36.249-15.014z" fill="#5d84d9"/><path d="m399.877 389.59c-.543-76.735-62.022-140.047-138.711-142.746-17.72-.624-34.763 1.98-50.593 7.262-2.521.841-5.277-.297-6.46-2.678-29.154-58.663-22.093-135.197-20.841-232.305h-107.765c-24.993 0-45.253 20.26-45.253 45.253v327.277c0 24.992 20.26 45.253 45.253 45.253h316.729c5.055-14.84 7.758-30.76 7.641-47.316z" fill="#2e67cf"/><path d="m380.248 294.271h-248.483c-19.956 0-36.133 16.177-36.133 36.133v106.503h320.749v-106.503c0-19.956-16.177-36.133-36.133-36.133z" fill="#fff0ce"/><path d="m399.877 389.59c-.258-36.507-14.316-69.97-37.236-95.319h-230.876c-19.956 0-36.133 16.177-36.133 36.133v106.503h296.604c5.055-14.841 7.758-30.761 7.641-47.317z" fill="#ffddb9"/><path d="m357.393 7.5h-202.774c-9.814 0-17.769 7.955-17.769 17.769v90.011c0 22.805 18.487 41.292 41.292 41.292h155.728c22.805 0 41.292-18.487 41.292-41.292v-90.011c.001-9.814-7.955-17.769-17.769-17.769z" fill="#59d5ff"/><path d="m154.619 7.5c-9.814 0-17.769 7.955-17.769 17.769v90.011c0 22.805 18.487 41.292 41.292 41.292h80.437c-35.295-27.931-37.782-107.436-32.692-149.072z" fill="#00c4fc"/><path d="m296.007 45.767h27.312c7.498 0 13.576 6.078 13.576 13.576v45.385c0 7.498-6.078 13.576-13.576 13.576h-27.312c-7.498 0-13.576-6.078-13.576-13.576v-45.384c0-7.498 6.078-13.577 13.576-13.577z" fill="#2e67cf"/><g><ellipse cx="256.006" cy="390.626" fill="#38d39a" rx="113.874" ry="113.874" transform="matrix(.707 -.707 .707 .707 -201.232 295.436)"/><path d="m142.132 390.626c0 62.891 50.983 113.874 113.874 113.874 44.965 0 83.837-26.064 102.347-63.906-180.912 27.271-162.25-110.374-143.867-156.032-42.357 16.594-72.354 57.825-72.354 106.064z" fill="#00c072"/></g><g><g fill="#ffa1ac"><ellipse cx="172.441" cy="239.22" rx="30.834" ry="24.555"/><ellipse cx="339.571" cy="239.22" rx="30.834" ry="24.555"/></g></g><path d="m296.007 125.805h27.311c11.621 0 21.076-9.455 21.076-21.076v-45.385c0-11.621-9.455-21.076-21.076-21.076h-27.311c-11.621 0-21.076 9.455-21.076 21.076v45.385c0 11.621 9.455 21.076 21.076 21.076zm-6.076-66.461c0-3.35 2.726-6.076 6.076-6.076h27.311c3.351 0 6.076 2.726 6.076 6.076v45.385c0 3.35-2.726 6.076-6.076 6.076h-27.311c-3.351 0-6.076-2.726-6.076-6.076zm191.299 12.173c-2.09-3.576-6.685-4.779-10.26-2.691-3.576 2.09-4.781 6.683-2.691 10.26 3.912 6.695 5.98 14.331 5.98 22.083v290.486c0 20.817-16.935 37.753-37.753 37.753h-12.625v-99.003c0-24.059-19.573-43.633-43.633-43.633h-61.485c-38.502-23.353-86.954-23.388-125.515 0h-61.484c-24.06 0-43.633 19.574-43.633 43.633v99.003h-12.624c-20.817 0-37.753-16.936-37.753-37.753v-327.278c0-20.817 16.936-37.753 37.753-37.753h53.843v88.657c0 26.904 21.888 48.792 48.792 48.792h155.729c26.904 0 48.792-21.888 48.792-48.792v-88.657h17.053c11.688 0 22.679 4.552 30.944 12.818l15.005 15.005c2.928 2.928 7.677 2.93 10.606 0 2.93-2.929 2.93-7.677.001-10.607l-15.006-15.005c-11.099-11.099-25.855-17.211-41.551-17.211h-21.071c-4.5-6.985-12.341-11.624-21.25-11.624h-202.774c-8.909 0-16.751 4.639-21.251 11.623h-57.862c-29.088 0-52.753 23.665-52.753 52.753v327.277c0 29.088 23.665 52.753 52.753 52.753h71.724c6.755 13.666 16.077 26.091 27.637 36.488 3.082 2.772 7.824 2.518 10.592-.561 2.771-3.08 2.519-7.822-.561-10.591-22.413-20.158-35.268-48.995-35.268-79.117 0-58.655 47.719-106.374 106.374-106.374s106.375 47.72 106.375 106.375-47.718 106.374-106.374 106.374c-15.147 0-29.775-3.115-43.477-9.259-3.775-1.695-8.217-.005-9.912 3.774-1.694 3.78-.005 8.217 3.775 9.912 58.797 26.367 129.081 2.047 158.401-57.021h71.714c29.088 0 52.753-23.665 52.753-52.753v-290.485c-.001-10.409-2.777-20.662-8.03-29.651zm-336.88-46.248c0-5.663 4.606-10.269 10.27-10.269h202.774c5.662 0 10.269 4.606 10.269 10.269v90.011c0 18.633-15.159 33.792-33.792 33.792h-155.729c-18.633 0-33.792-15.159-33.792-33.792zm-9.718 365.357c0 13.311 2.209 26.4 6.391 38.781h-37.891v-99.003c0-15.788 12.845-28.633 28.633-28.633h41.654c-23.844 22.177-38.787 53.801-38.787 88.855zm274.249 38.781h-37.854c15.139-44.78 2.924-94.75-32.433-127.636h41.655c15.788 0 28.633 12.845 28.633 28.633v99.003zm-225.97-226.126v12c0 4.142 3.357 7.5 7.5 7.5s7.5-3.358 7.5-7.5v-12c0-4.142-3.357-7.5-7.5-7.5s-7.5 3.358-7.5 7.5zm54.209 232.16c2.93 2.929 7.678 2.929 10.607 0l61.34-61.34c2.929-2.929 2.929-7.678 0-10.606-2.93-2.929-7.678-2.929-10.607 0l-56.036 56.037-25.366-25.367c-2.93-2.929-7.678-2.929-10.607 0s-2.929 7.678 0 10.606zm30.526-225.161c-2.938 3.373-7.182 5.307-11.64 5.307s-8.701-1.934-11.64-5.307c-2.723-3.123-7.46-3.447-10.582-.727-3.122 2.722-3.448 7.459-.727 10.582 5.788 6.642 14.152 10.451 22.948 10.451s17.16-3.81 22.948-10.451c2.722-3.123 2.396-7.86-.727-10.582-3.123-2.721-7.859-2.396-10.58.727zm34.866 4.666c0 4.142 3.357 7.5 7.5 7.5s7.5-3.358 7.5-7.5c0-3.532 2.874-6.406 6.406-6.406s6.406 2.874 6.406 6.406c0 4.142 3.357 7.5 7.5 7.5s7.5-3.358 7.5-7.5c0-11.803-9.603-21.406-21.406-21.406s-21.406 9.603-21.406 21.406z"/></g></svg>