<?xml version="1.0" encoding="iso-8859-1"?>
<!-- Generator: Adobe Illustrator 19.0.0, SVG Export Plug-In . SVG Version: 6.00 Build 0)  -->
<svg version="1.1" id="Layer_1" xmlns="http://www.w3.org/2000/svg" xmlns:xlink="http://www.w3.org/1999/xlink" x="0px" y="0px"
	 viewBox="0 0 512 512" style="enable-background:new 0 0 512 512;" xml:space="preserve">
<path d="M503.467,0H8.533C3.84,0,0,3.84,0,8.533v392.533c0,2.389,1.024,4.693,2.731,6.229l110.933,102.4
	c1.621,1.536,3.669,2.304,5.803,2.304h384c4.693,0,8.533-3.84,8.533-8.533V8.533C512,3.84,508.16,0,503.467,0z M215.808,364.459
	c2.219,2.133,5.376,2.987,8.277,2.133l93.781-25.515c1.365-0.341,2.731-1.109,3.84-2.219c0.085,0,0.085,0,0.085,0l5.973-6.059
	h26.027l13.141,19.627v88.747L353.792,460.8H158.208l-13.141-19.627v-88.747l13.141-19.627h61.781l-6.315,23.381
	C212.821,359.083,213.675,362.24,215.808,364.459z M237.568,333.141l14.251-52.139l47.445,47.445l-52.139,14.251L237.568,333.141z
	 M315.733,320.768l-19.541-19.541l-36.693-36.693l107.435-107.435l56.235,56.235L315.733,320.768z M415.659,181.76l-36.693-36.693
	l13.568-13.568l56.235,56.235L435.2,201.301L415.659,181.76z M441.259,156.16l-36.693-36.693L435.2,88.832l56.235,56.235
	L460.8,175.701L441.259,156.16z M93.867,17.067h324.267v64.768l-25.6,25.515l-31.659,31.659l-74.24,74.325H122.283L93.867,192
	V17.067z M494.933,494.933H122.795L17.067,397.312V17.067H76.8v179.2c0,2.645,1.28,5.205,3.413,6.827l34.133,25.6
	c1.451,1.109,3.243,1.707,5.12,1.707h150.101l-28.16,28.075v0.085c-1.109,1.109-1.877,2.475-2.219,3.84l-14.507,53.333H153.6
	c-2.816,0-5.547,1.451-7.083,3.84l-17.067,25.6c-0.939,1.365-1.451,2.987-1.451,4.693v93.867c0,1.707,0.512,3.328,1.451,4.693
	l17.067,25.6c1.536,2.389,4.267,3.84,7.083,3.84h204.8c2.816,0,5.547-1.451,7.083-3.84l17.067-25.6
	c0.939-1.365,1.451-2.987,1.451-4.693v-93.867c0-1.707-0.512-3.328-1.451-4.693l-17.067-25.6c-1.536-2.389-4.267-3.84-7.083-3.84
	h-13.568l150.101-150.101V494.933z M494.933,124.501l-25.6-25.6l-28.075-28.16c-1.707-1.621-3.84-2.475-6.059-2.475v-51.2h59.733
	V124.501z"/>
<polygon style="fill:#24067F;" points="494.933,17.067 494.933,124.501 469.333,98.901 469.333,17.067 "/>
<path style="fill:#2B339B;" d="M469.333,17.067v81.835l-28.075-28.16c-1.707-1.621-3.84-2.475-6.059-2.475v-51.2H469.333z"/>
<rect x="444.667" y="136.802" transform="matrix(-0.7071 0.7071 -0.7071 -0.7071 902.579 -72.6166)" style="fill:#9B0045;" width="43.323" height="27.639"/>
<rect x="416.558" y="96.553" transform="matrix(-0.7071 0.7071 -0.7071 -0.7071 834.7069 -100.7498)" style="fill:#CC004E;" width="43.323" height="51.891"/>
<rect x="422.636" y="170.932" transform="matrix(-0.7071 0.7071 -0.7071 -0.7071 868.5048 9.7565)" style="fill:#7E939E;" width="19.191" height="27.639"/>
<rect x="394.49" y="130.693" transform="matrix(-0.7071 0.7071 -0.7071 -0.7071 800.5784 -18.3329)" style="fill:#AFAFAF;" width="19.191" height="51.891"/>
<rect x="283.725" y="243.447" transform="matrix(-0.7071 0.7071 -0.7071 -0.7071 795.948 184.84)" style="fill:#F6981E;" width="151.935" height="27.639"/>
<rect x="255.591" y="203.21" transform="matrix(-0.7071 0.7071 -0.7071 -0.7071 728.0432 156.7445)" style="fill:#FDB50D;" width="151.935" height="51.891"/>
<polygon style="fill:#7E939E;" points="299.264,328.448 247.125,342.699 241.835,337.408 282.709,311.893 "/>
<polygon style="fill:#AFAFAF;" points="282.709,311.893 241.835,337.408 237.568,333.141 251.819,281.003 "/>
<path style="fill:#F9F9F9;" d="M327.765,332.8l-5.973,6.059c0,0,0,0-0.085,0c-1.109,1.109-2.475,1.877-3.84,2.219l-93.781,25.515
	c-2.901,0.853-6.059,0-8.277-2.133c-2.133-2.219-2.987-5.376-2.133-8.277l6.315-23.381h-61.781l-13.141,19.627v88.747l13.141,19.627
	h183.125v-128H327.765z M204.8,426.667c0,4.693-3.84,8.533-8.533,8.533s-8.533-3.84-8.533-8.533v-59.733
	c0-4.693,3.84-8.533,8.533-8.533s8.533,3.84,8.533,8.533V426.667z"/>
<polygon style="fill:#E5E5E5;" points="366.933,352.427 366.933,441.173 353.792,460.8 341.333,460.8 341.333,332.8 353.792,332.8 
	"/>
<polygon style="fill:#7E939E;" points="418.133,17.067 418.133,81.835 392.533,107.349 392.533,34.133 93.867,34.133 93.867,17.067 
	"/>
<polygon style="fill:#AFAFAF;" points="392.533,34.133 392.533,107.349 360.875,139.008 286.635,213.333 122.283,213.333 
	93.867,192 93.867,34.133 "/>
<polygon style="fill:#24067F;" points="494.933,165.632 494.933,494.933 469.333,494.933 469.333,191.232 "/>
<path style="fill:#2B339B;" d="M469.333,191.232v303.701H122.795L17.067,397.312V17.067H76.8v179.2c0,2.645,1.28,5.205,3.413,6.827
	l34.133,25.6c1.451,1.109,3.243,1.707,5.12,1.707h150.101l-28.16,28.075v0.085c-1.109,1.109-1.877,2.475-2.219,3.84l-14.507,53.333
	H153.6c-2.816,0-5.547,1.451-7.083,3.84l-17.067,25.6c-0.939,1.365-1.451,2.987-1.451,4.693v93.867c0,1.707,0.512,3.328,1.451,4.693
	l17.067,25.6c1.536,2.389,4.267,3.84,7.083,3.84h204.8c2.816,0,5.547-1.451,7.083-3.84l17.067-25.6
	c0.939-1.365,1.451-2.987,1.451-4.693v-93.867c0-1.707-0.512-3.328-1.451-4.693l-17.067-25.6c-1.536-2.389-4.267-3.84-7.083-3.84
	h-13.568L469.333,191.232z"/>
<path d="M204.8,366.933v59.733c0,4.693-3.84,8.533-8.533,8.533s-8.533-3.84-8.533-8.533v-59.733c0-4.693,3.84-8.533,8.533-8.533
	S204.8,362.24,204.8,366.933z"/>
<g>
</g>
<g>
</g>
<g>
</g>
<g>
</g>
<g>
</g>
<g>
</g>
<g>
</g>
<g>
</g>
<g>
</g>
<g>
</g>
<g>
</g>
<g>
</g>
<g>
</g>
<g>
</g>
<g>
</g>
</svg>
