<?xml version="1.0" encoding="iso-8859-1"?>
<!-- Generator: Adobe Illustrator 19.0.0, SVG Export Plug-In . SVG Version: 6.00 Build 0)  -->
<svg xmlns="http://www.w3.org/2000/svg" xmlns:xlink="http://www.w3.org/1999/xlink" version="1.1" id="Layer_1" x="0px" y="0px" viewBox="0 0 512 512" style="enable-background:new 0 0 512 512;" xml:space="preserve" width="512" height="512">
<g id="XMLID_1572_">
	<path id="XMLID_902_" style="fill:#93E7F8;" d="M484.028,502H27.972c-12.608,0-21.29-12.654-16.753-24.417l42.974-111.414h403.612   l42.974,111.414C505.317,489.346,496.636,502,484.028,502z"/>
	<path id="XMLID_898_" style="fill:#FFFFFF;" d="M336.58,502H175.42c-4.455,0-7.523-4.472-5.92-8.629L184.686,454h142.629   l15.186,39.371C344.104,497.528,341.036,502,336.58,502z"/>
	<polygon id="XMLID_815_" style="fill:#C7C4C8;" points="429.785,414.084 411.303,366.169 100.697,366.169 82.215,414.084  "/>
	<path id="XMLID_2494_" style="fill:#D5F5FB;" d="M438,102.169H74c-11.046,0-20,8.954-20,20v244h404v-244   C458,111.123,449.046,102.169,438,102.169z"/>
	<g id="XMLID_1004_">
		<path id="XMLID_1005_" style="fill:#FFFFFF;" d="M94,326.169h324v-184H94V326.169z"/>
	</g>
	<g id="XMLID_2_">
		<path id="XMLID_1560_" style="fill:#FF765B;" d="M325.625,10H153c-11.046,0-20,8.954-20,20v206c0,11.046,8.954,20,20,20h206    c11.046,0,20-8.954,20-20V63.375L325.625,10z"/>
		<path id="XMLID_1559_" style="fill:#FFFFFF;" d="M307.591,92H204.409c-8.976,0-16.252-7.276-16.252-16.252V10h135.685v65.748    C323.843,84.724,316.567,92,307.591,92z"/>
		<path id="XMLID_1538_" style="fill:#93E7F8;" d="M177.043,171.083V256h157.915v-84.917c0-10.539-8.544-19.083-19.083-19.083    h-119.75C185.586,152,177.043,160.544,177.043,171.083z"/>
	</g>
	<g id="XMLID_1211_">
		<path id="XMLID_1677_" d="M510.11,473.984L468,364.809v-30.402c0-5.522-4.478-10-10-10s-10,4.478-10,10v21.763h-36.697H100.697H64    v-234c0-5.514,4.486-10,10-10h49v20H94c-5.522,0-10,4.478-10,10v184c0,5.522,4.478,10,10,10h324c5.522,0,10-4.478,10-10v-184    c0-5.522-4.478-10-10-10h-29v-20h49c5.514,0,10,4.486,10,10v145c0,5.522,4.478,10,10,10s10-4.478,10-10v-145    c0-16.542-13.458-30-30-30h-49V63.375c0-2.652-1.054-5.195-2.929-7.071L332.696,2.929C330.82,1.054,328.277,0,325.625,0h-1.782    H188.157H153c-16.542,0-30,13.458-30,30v62.169H74c-16.542,0-30,13.458-30,30v242.64L1.89,473.984    c-3.317,8.602-2.185,18.274,3.031,25.876S18.754,512,27.973,512H175.42h161.16h147.447c9.219,0,17.836-4.538,23.052-12.14    S513.428,482.586,510.11,473.984z M408,152.169v164H104v-164h19V236c0,16.542,13.458,30,30,30h24.043h157.914H359    c16.542,0,30-13.458,30-30v-83.831H408z M324.957,246H187.043v-74.917c0-5.009,4.074-9.083,9.082-9.083h119.75    c5.008,0,9.082,4.074,9.082,9.083V246z M313.843,20v55.748c0,3.447-2.805,6.252-6.252,6.252H204.409    c-3.447,0-6.252-2.805-6.252-6.252V20H313.843z M143,30c0-5.514,4.486-10,10-10h25.157v55.748    c0,14.476,11.776,26.252,26.252,26.252h103.182c14.476,0,26.252-11.776,26.252-26.252V32.36L369,67.518V236    c0,5.514-4.486,10-10,10h-14.043v-74.917c0-16.036-13.046-29.083-29.082-29.083h-119.75c-16.036,0-29.082,13.047-29.082,29.083    V246H153c-5.514,0-10-4.486-10-10V30z M180.747,492l10.8-28h128.906l10.8,28H180.747z M490.588,488.545    c-1.507,2.196-3.897,3.455-6.561,3.455H352.505c-0.173-0.752-0.393-1.497-0.675-2.228l-15.186-39.371    c-1.488-3.857-5.196-6.401-9.33-6.401H184.686c-4.134,0-7.842,2.544-9.33,6.401l-15.186,39.371    c-0.282,0.731-0.502,1.476-0.675,2.228H27.973c-2.663,0-5.054-1.259-6.561-3.455c-1.506-2.195-1.82-4.879-0.862-7.363    l40.505-105.013h25.067l-13.237,34.317c-1.187,3.075-0.78,6.538,1.084,9.256c1.865,2.719,4.95,4.343,8.246,4.343h41.452    c5.522,0,10-4.478,10-10s-4.478-10-10-10H96.79l10.769-27.916h296.883l10.769,27.916H203.667c-5.522,0-10,4.478-10,10    s4.478,10,10,10h226.118c3.296,0,6.381-1.624,8.246-4.343c1.864-2.718,2.271-6.181,1.084-9.256l-13.237-34.317h25.067    l40.505,105.013C492.408,483.666,492.094,486.35,490.588,488.545z"/>
		<path id="XMLID_1883_" d="M458,291.819c-2.63,0-5.21,1.07-7.07,2.931c-1.86,1.859-2.93,4.439-2.93,7.069    c0,2.631,1.069,5.211,2.93,7.07c1.86,1.86,4.44,2.93,7.07,2.93s5.21-1.069,7.069-2.93c1.86-1.859,2.931-4.439,2.931-7.07    c0-2.63-1.07-5.21-2.931-7.069C463.21,292.89,460.63,291.819,458,291.819z"/>
		<path id="XMLID_1884_" d="M287.237,70.76c5.522,0,10-4.478,10-10V41.24c0-5.522-4.478-10-10-10s-10,4.478-10,10v19.52    C277.237,66.282,281.715,70.76,287.237,70.76z"/>
		<path id="XMLID_1885_" d="M163.67,404.08c-2.64,0-5.21,1.069-7.07,2.939c-1.87,1.851-2.93,4.431-2.93,7.061    c0,2.64,1.06,5.21,2.93,7.069c1.86,1.87,4.431,2.931,7.07,2.931c2.63,0,5.21-1.061,7.07-2.931c1.859-1.859,2.93-4.439,2.93-7.069    s-1.07-5.2-2.93-7.061C168.88,405.149,166.3,404.08,163.67,404.08z"/>
	</g>
</g>















</svg>
