<?xml version="1.0" encoding="iso-8859-1"?>
<!-- Generator: Adobe Illustrator 19.0.0, SVG Export Plug-In . SVG Version: 6.00 Build 0)  -->
<svg version="1.1" id="Capa_1" xmlns="http://www.w3.org/2000/svg" xmlns:xlink="http://www.w3.org/1999/xlink" x="0px" y="0px"
	 viewBox="0 0 491.52 491.52" style="enable-background:new 0 0 491.52 491.52;" xml:space="preserve">
<circle style="fill:#E05B49;" cx="245.76" cy="245.76" r="245.76"/>
<path style="fill:#2F4859;" d="M383.057,151.044l-31.771-30.376c-2.244-2.144-5.285-3.349-8.457-3.349H116.92
	c-6.605,0-11.96,5.12-11.96,11.436v246.371c0,6.316,5.355,11.436,11.96,11.436H374.6c6.605,0,11.96-5.12,11.96-11.436V159.129
	C386.56,156.096,385.301,153.187,383.057,151.044z"/>
<path style="fill:#3A556A;" d="M383.057,138.685l-31.771-30.376c-2.244-2.143-5.285-3.349-8.457-3.349H116.92
	c-6.605,0-11.96,5.12-11.96,11.436v246.37c0,6.316,5.355,11.436,11.96,11.436H374.6c6.605,0,11.96-5.12,11.96-11.436V146.771
	C386.56,143.738,385.301,140.829,383.057,138.685z"/>
<path style="fill:#E56353;" d="M328.219,258.367H163.304c-2.968,0-5.373,2.406-5.373,5.372v22.859h175.658v-22.86
	C333.589,260.772,331.184,258.367,328.219,258.367z"/>
<rect x="157.932" y="286.597" style="fill:#EBF0F3;" width="175.667" height="87.603"/>
<g>
	<rect x="168.883" y="304.486" style="fill:#E1E6E9;" width="153.754" height="5.647"/>
	<rect x="168.883" y="327.578" style="fill:#E1E6E9;" width="153.754" height="5.647"/>
	<rect x="168.883" y="350.669" style="fill:#E1E6E9;" width="153.754" height="5.647"/>
</g>
<path style="fill:#64798A;" d="M163.124,104.96v79.748c0,3.995,3.237,7.232,7.23,7.232h156.003c3.995,0,7.233-3.237,7.233-7.232
	V104.96H163.124z"/>
<path style="fill:#EBF0F3;" d="M229.684,104.96v79.748c0,3.995,3.237,7.232,7.233,7.232h89.44c3.995,0,7.233-3.238,7.233-7.233
	V104.96H229.684z M313.019,170.588c0,2.378-1.928,4.305-4.305,4.305h-15.84c-2.378,0-4.305-1.928-4.305-4.305v-48.901
	c0-2.377,1.927-4.305,4.305-4.305h15.84c2.377,0,4.305,1.928,4.305,4.305V170.588z"/>
<path style="fill:#2F4859;" d="M135.525,333.222h-14.321c-2.418,0-4.381,1.963-4.381,4.381v14.319c0,2.42,1.963,4.381,4.381,4.381
	h14.321c2.419,0,4.381-1.961,4.381-4.381v-14.319C139.906,335.185,137.944,333.222,135.525,333.222z"/>
<g>
</g>
<g>
</g>
<g>
</g>
<g>
</g>
<g>
</g>
<g>
</g>
<g>
</g>
<g>
</g>
<g>
</g>
<g>
</g>
<g>
</g>
<g>
</g>
<g>
</g>
<g>
</g>
<g>
</g>
</svg>
